<?xml version="1.0" encoding="UTF-8" standalone="no"?>
<!-- Created with Inkscape (http://www.inkscape.org/) -->

<svg
   version="1.1"
   id="svg1"
   width="76"
   height="90.593002"
   viewBox="0 0 76 90.593003"
   sodipodi:docname="003.svg"
   inkscape:version="1.4.3 (0d15f75, 2025-12-25)"
   xmlns:inkscape="http://www.inkscape.org/namespaces/inkscape"
   xmlns:sodipodi="http://sodipodi.sourceforge.net/DTD/sodipodi-0.dtd"
   xmlns="http://www.w3.org/2000/svg"
   xmlns:svg="http://www.w3.org/2000/svg">
  <defs
     id="defs1" />
  <sodipodi:namedview
     id="namedview1"
     pagecolor="#ffffff"
     bordercolor="#cccccc"
     borderopacity="1"
     inkscape:showpageshadow="0"
     inkscape:pageopacity="1"
     inkscape:pagecheckerboard="0"
     inkscape:deskcolor="#d1d1d1"
     inkscape:zoom="1.930139"
     inkscape:cx="313.18987"
     inkscape:cy="79.527949"
     inkscape:window-width="1920"
     inkscape:window-height="991"
     inkscape:window-x="-9"
     inkscape:window-y="-9"
     inkscape:window-maximized="1"
     inkscape:current-layer="layer-MC0">
    <inkscape:page
       x="8.3536094e-07"
       y="3.0363873e-07"
       inkscape:label="1"
       id="page1"
       width="75.652832"
       height="98.592857"
       margin="30.659866 25.143999 30.658667 25.547733"
       bleed="0" />
  </sodipodi:namedview>
  <g
     id="layer-MC0"
     inkscape:groupmode="layer"
     inkscape:label="Layer 1"
     transform="translate(-145.86963,-95.768571)">
    <path
       id="path1"
       d="m 98.477257,169.75184 h -1.584 v -12.27467 h 1.584 z"
       style="fill:#231f20;fill-opacity:1;fill-rule:nonzero;stroke:none;stroke-width:1.33333" />
    <path
       id="path2"
       d="m 107.47353,169.4233 c -0.41867,0.21867 -1.348,0.50933 -2.532,0.50933 -2.65867,0 -4.388,-1.80133 -4.388,-4.49866 0,-2.712 1.856,-4.68 4.73333,-4.68 0.948,0 1.78533,0.23733 2.22267,0.45466 l -0.364,1.23867 c -0.38267,-0.21733 -0.984,-0.41867 -1.85867,-0.41867 -2.02,0 -3.11333,1.49334 -3.11333,3.33334 0,2.04 1.31066,3.29733 3.06,3.29733 0.91066,0 1.51066,-0.23733 1.96666,-0.43733 z"
       style="fill:#231f20;fill-opacity:1;fill-rule:nonzero;stroke:none;stroke-width:1.33333" />
    <path
       id="path3"
       d="m 110.33126,165.36144 c 0,1.93067 1.11067,3.388 2.67733,3.388 1.52934,0 2.676,-1.43867 2.676,-3.424 0,-1.49333 -0.74666,-3.388 -2.64,-3.388 -1.89466,0 -2.71333,1.748 -2.71333,3.424 m 6.99333,-0.0907 c 0,3.26 -2.25866,4.68 -4.38933,4.68 -2.38533,0 -4.22533,-1.748 -4.22533,-4.53466 0,-2.94934 1.93066,-4.68 4.372,-4.68 2.53066,0 4.24266,1.84 4.24266,4.53466"
       style="fill:#231f20;fill-opacity:1;fill-rule:nonzero;stroke:none;stroke-width:1.33333" />
    <path
       id="path4"
       d="m 119.34313,163.32264 c 0,-0.91067 -0.0173,-1.65733 -0.0733,-2.38667 h 1.42134 l 0.0907,1.45867 h 0.036 c 0.43734,-0.83867 1.45734,-1.65867 2.91467,-1.65867 1.22,0 3.11467,0.728 3.11467,3.752 v 5.264 h -1.60267 v -5.08133 c 0,-1.42133 -0.528,-2.604 -2.04,-2.604 -1.05733,0 -1.876,0.74667 -2.14933,1.63733 -0.0733,0.20134 -0.10934,0.47467 -0.10934,0.74667 v 5.30133 h -1.60266 z"
       style="fill:#231f20;fill-opacity:1;fill-rule:nonzero;stroke:none;stroke-width:1.33333" />
    <path
       id="path5"
       d="m 59.881659,185.84677 h -4.772 v 4.42533 h 5.318667 v 1.32934 h -6.902667 v -12.27467 h 6.629333 v 1.33067 h -5.045333 v 3.87733 h 4.772 z"
       style="fill:#231f20;fill-opacity:1;fill-rule:nonzero;stroke:none;stroke-width:1.33333" />
    <path
       id="path6"
       d="m 63.174992,182.7865 1.256,1.89467 c 0.328,0.492 0.602667,0.94666 0.892,1.43866 h 0.056 c 0.290667,-0.528 0.582667,-0.984 0.874667,-1.456 l 1.238666,-1.87733 h 1.729333 l -3.005333,4.26133 3.096,4.55334 h -1.82 l -1.293333,-1.98534 c -0.346667,-0.50933 -0.638667,-1.00133 -0.948,-1.52933 h -0.036 c -0.292,0.528 -0.601333,1.00267 -0.929333,1.52933 l -1.274667,1.98534 h -1.766667 l 3.133334,-4.49734 -2.988,-4.31733 z"
       style="fill:#231f20;fill-opacity:1;fill-rule:nonzero;stroke:none;stroke-width:1.33333" />
    <path
       id="path7"
       d="m 75.357659,187.10317 c -1.748,-0.036 -3.733333,0.272 -3.733333,1.98533 0,1.03734 0.690666,1.52934 1.510666,1.52934 1.148,0 1.876,-0.72934 2.130667,-1.476 0.056,-0.16134 0.092,-0.34534 0.092,-0.50934 z m 0.236,4.49867 -0.128,-1.11067 h -0.05333 c -0.492,0.692 -1.44,1.31067 -2.696,1.31067 -1.785334,0 -2.696,-1.25734 -2.696,-2.532 0,-2.13067 1.894666,-3.29734 5.301333,-3.27734 v -0.184 c 0,-0.72666 -0.201333,-2.03866 -2.005333,-2.03866 -0.818667,0 -1.674667,0.25466 -2.294667,0.656 l -0.362667,-1.056 c 0.728,-0.47467 1.784,-0.78267 2.894667,-0.78267 2.696,0 3.352,1.83867 3.352,3.60533 v 3.29734 c 0,0.764 0.036,1.51066 0.145333,2.112 z"
       style="fill:#231f20;fill-opacity:1;fill-rule:nonzero;stroke:none;stroke-width:1.33333" />
    <path
       id="path8"
       d="m 79.488726,185.17304 c 0,-0.91067 -0.01733,-1.65733 -0.07333,-2.38667 h 1.402666 l 0.07333,1.42 h 0.05467 c 0.492,-0.83733 1.310667,-1.62 2.768,-1.62 1.201334,0 2.112,0.728 2.494667,1.76667 h 0.036 c 0.274666,-0.492 0.62,-0.87467 0.984,-1.148 0.529333,-0.40133 1.112,-0.61867 1.949333,-0.61867 1.165333,0 2.896,0.76534 2.896,3.82534 v 5.19066 h -1.566667 v -4.99066 c 0,-1.69334 -0.618666,-2.71467 -1.912,-2.71467 -0.910666,0 -1.621333,0.676 -1.894666,1.45733 -0.07333,0.22 -0.128,0.51067 -0.128,0.80267 v 5.44533 h -1.566667 v -5.28133 c 0,-1.40267 -0.617333,-2.424 -1.838666,-2.424 -1.001334,0 -1.729334,0.80133 -1.984,1.604 -0.092,0.23733 -0.128,0.50933 -0.128,0.78267 v 5.31866 h -1.566667 z"
       style="fill:#231f20;fill-opacity:1;fill-rule:nonzero;stroke:none;stroke-width:1.33333" />
    <path
       id="path9"
       d="m 96.257792,188.01397 c 0,0.23733 0.036,0.45467 0.07333,0.656 0.290667,1.11067 1.256,1.87467 2.404,1.87467 1.693338,0 2.677338,-1.38267 2.677338,-3.40534 0,-1.76666 -0.92933,-3.27866 -2.622671,-3.27866 -1.093333,0 -2.113333,0.78266 -2.422667,1.98666 -0.05467,0.19867 -0.109333,0.436 -0.109333,0.65467 z m -1.584,-2.34933 c 0,-1.12934 -0.03733,-2.04 -0.07333,-2.87867 h 1.438666 l 0.072,1.512 h 0.03733 c 0.656,-1.07467 1.693333,-1.71067 3.133333,-1.71067 2.130669,0 3.731999,1.80134 3.731999,4.48 0,3.16934 -1.92933,4.73334 -4.005332,4.73334 -1.166667,0 -2.185334,-0.50934 -2.714667,-1.38267 h -0.036 v 4.78933 h -1.584 z"
       style="fill:#231f20;fill-opacity:1;fill-rule:nonzero;stroke:none;stroke-width:1.33333" />
    <path
       id="path10"
       d="m 105.03326,178.67184 h 1.60266 v 12.93066 h -1.60266 z"
       style="fill:#231f20;fill-opacity:1;fill-rule:nonzero;stroke:none;stroke-width:1.33333" />
    <path
       id="path11"
       d="m 114.92166,186.33864 c 0.0187,-1.02 -0.41867,-2.60533 -2.22133,-2.60533 -1.62134,0 -2.332,1.49333 -2.45867,2.60533 z m -4.69867,1.148 c 0.036,2.16667 1.42134,3.05867 3.02267,3.05867 1.148,0 1.84,-0.2 2.44133,-0.45467 l 0.27334,1.148 c -0.564,0.25467 -1.53067,0.54533 -2.932,0.54533 -2.71334,0 -4.33467,-1.784 -4.33467,-4.444 0,-2.65866 1.56533,-4.75333 4.13333,-4.75333 2.87867,0 3.64267,2.53067 3.64267,4.15333 0,0.328 -0.036,0.58267 -0.0547,0.74667 z"
       style="fill:#231f20;fill-opacity:1;fill-rule:nonzero;stroke:none;stroke-width:1.33333" />
    <path
       id="path12"
       d="m 118.23379,189.96197 c 0.47334,0.31067 1.31067,0.63867 2.112,0.63867 1.16534,0 1.71334,-0.584 1.71334,-1.312 0,-0.76534 -0.456,-1.184 -1.64,-1.62 -1.58534,-0.56534 -2.332,-1.44 -2.332,-2.496 0,-1.42 1.148,-2.58534 3.04133,-2.58534 0.89333,0 1.676,0.25467 2.168,0.54534 l -0.4,1.16533 c -0.34667,-0.21733 -0.984,-0.50933 -1.804,-0.50933 -0.94667,0 -1.47467,0.54666 -1.47467,1.20266 0,0.72667 0.528,1.05467 1.67467,1.49334 1.53067,0.58266 2.31467,1.348 2.31467,2.65733 0,1.54933 -1.20267,2.64133 -3.29734,2.64133 -0.96533,0 -1.85733,-0.23733 -2.47733,-0.6 z"
       style="fill:#231f20;fill-opacity:1;fill-rule:nonzero;stroke:none;stroke-width:1.33333" />
    <path
       id="path13"
       d="m 278.32926,128.9009 c -2.492,-2.37733 -5.78,-3.61067 -9.21467,-3.43467 -6.30266,0.29467 -11.512,5.46 -11.86,11.76 -0.224,4.05734 1.46267,7.85067 4.62934,10.408 0.80266,0.648 1.264,1.608 1.264,2.636 v 2.47467 c 0,0.86933 0.504,1.60133 1.22,1.992 v 2.64 c 0,2.948 2.4,5.34666 5.34666,5.34666 2.95067,0 5.34934,-2.39866 5.34934,-5.34666 v -2.64 c 0.71466,-0.39067 1.21866,-1.12267 1.21866,-1.992 v -2.47467 c 0,-1.032 0.448,-1.98267 1.232,-2.60933 2.97334,-2.38534 4.68134,-5.92933 4.68134,-9.72933 0,-3.44534 -1.37467,-6.652 -3.86667,-9.03067 m -4.332,26.14133 v 2.33467 c 0,2.36266 -1.91867,4.28266 -4.28267,4.28266 -2.11333,0 -3.864,-1.54133 -4.20933,-3.55866 h 4.20933 c 0.296,0 0.532,-0.23867 0.532,-0.532 0,-0.29467 -0.236,-0.532 -0.532,-0.532 h -4.28266 v -1.99467 h 0.016 8.536 z m 2.85067,-8.21333 c -1.03734,0.832 -1.63067,2.084 -1.63067,3.44133 v 2.47467 c 0,0.68133 -0.55333,1.23333 -1.23333,1.23333 h -8.536 c -0.68134,0 -1.236,-0.552 -1.236,-1.23333 v -2.47467 c 0,-1.35067 -0.604,-2.61333 -1.65867,-3.46533 -2.89733,-2.336 -4.44,-5.808 -4.236,-9.52 0.32,-5.76267 5.084,-10.484 10.848,-10.75733 0.18533,-0.008 0.372,-0.012 0.556,-0.012 2.952,0 5.72933,1.11066 7.87333,3.156 2.28,2.17466 3.536,5.108 3.536,8.26 0,3.47333 -1.56133,6.71733 -4.28266,8.89733"
       style="fill:#231f20;fill-opacity:1;fill-rule:nonzero;stroke:none;stroke-width:1.33333" />
    <path
       id="path14"
       d="m 276.29206,135.97544 c -0.712,0 -1.29333,0.58 -1.29333,1.29333 0,0.712 0.58133,1.29067 1.29333,1.29067 0.712,0 1.29333,-0.57867 1.29333,-1.29067 0,-0.71333 -0.58133,-1.29333 -1.29333,-1.29333"
       style="fill:#231f20;fill-opacity:1;fill-rule:nonzero;stroke:none;stroke-width:1.33333" />
    <path
       id="path15"
       d="m 278.32926,63.825702 c -2.492,-2.377334 -5.764,-3.621334 -9.21333,-3.434667 -6.304,0.294667 -11.51067,5.46 -11.86134,11.76 -0.224,4.057333 1.46267,7.850666 4.632,10.406666 0.80267,0.649334 1.264,1.609333 1.264,2.637333 v 2.472 c 0,0.870667 0.504,1.602667 1.21734,1.993334 v 2.64 c 0,2.949333 2.4,5.347999 5.34933,5.347999 2.948,0 5.34667,-2.398666 5.34667,-5.347999 v -2.638667 c 0.71466,-0.390667 1.21866,-1.122667 1.21866,-1.994667 v -2.472 c 0,-1.032 0.448,-1.983999 1.232,-2.611999 2.97334,-2.382667 4.68134,-5.929334 4.68134,-9.726667 0,-3.445333 -1.37467,-6.652 -3.86667,-9.030666 m -4.332,26.141332 v 2.333334 c 0,2.36 -1.91867,4.282666 -4.28,4.282666 -2.11467,0 -3.864,-1.541333 -4.212,-3.558666 h 4.212 c 0.29333,0 0.532,-0.238667 0.532,-0.532 0,-0.293334 -0.23867,-0.532 -0.532,-0.532 h -4.28533 v -1.993334 h 0.016 8.536 z m 2.85067,-8.213333 c -1.03467,0.829334 -1.63067,2.084 -1.63067,3.441333 v 2.472 c 0,0.681334 -0.55333,1.236 -1.23333,1.236 h -8.536 c -0.67867,0 -1.23334,-0.554666 -1.23334,-1.236 v -2.472 c 0,-1.350666 -0.60666,-2.613333 -1.66133,-3.465333 -2.89733,-2.338666 -4.44,-5.808 -4.23333,-9.522666 0.31733,-5.76 5.08133,-10.482667 10.84533,-10.752 0.18533,-0.01067 0.372,-0.01467 0.556,-0.01467 2.952,0 5.72933,1.110667 7.87333,3.156 2.28,2.174667 3.536,5.108 3.536,8.26 0,3.473333 -1.56133,6.717333 -4.28266,8.897333"
       style="fill:#231f20;fill-opacity:1;fill-rule:nonzero;stroke:none;stroke-width:1.33333" />
    <path
       id="path16"
       d="m 271.35179,70.590769 c -0.712,0 -1.29333,0.58 -1.29333,1.293333 0,0.712 0.58133,1.290667 1.29333,1.290667 0.712,0 1.29333,-0.578667 1.29333,-1.290667 0,-0.713333 -0.58133,-1.293333 -1.29333,-1.293333"
       style="fill:#231f20;fill-opacity:1;fill-rule:nonzero;stroke:none;stroke-width:1.33333" />
    <path
       id="path17"
       d="m 275.53339,68.157036 c -0.712,0 -1.29333,0.58 -1.29333,1.293333 0,0.712 0.58133,1.290667 1.29333,1.290667 0.712,0 1.29333,-0.578667 1.29333,-1.290667 0,-0.713333 -0.58133,-1.293333 -1.29333,-1.293333"
       style="fill:#231f20;fill-opacity:1;fill-rule:nonzero;stroke:none;stroke-width:1.33333" />
    <path
       id="path18"
       d="m 275.53339,73.568636 c -0.712,0 -1.29333,0.58 -1.29333,1.293333 0,0.712 0.58133,1.290667 1.29333,1.290667 0.712,0 1.29333,-0.578667 1.29333,-1.290667 0,-0.713333 -0.58133,-1.293333 -1.29333,-1.293333"
       style="fill:#231f20;fill-opacity:1;fill-rule:nonzero;stroke:none;stroke-width:1.33333" />
    <path
       id="path19"
       d="m 192.50979,64.804769 c -2.49067,-2.377334 -5.764,-3.622667 -9.21333,-3.434667 -6.30134,0.294667 -11.51067,5.46 -11.85867,11.76 -0.224,4.057333 1.46267,7.850666 4.62933,10.406666 0.80267,0.646667 1.264,1.608 1.264,2.636 v 2.473333 c 0,0.870667 0.504,1.602667 1.21734,1.993334 v 2.64 c 0,2.946666 2.4,5.346666 5.34933,5.346666 2.948,0 5.34667,-2.4 5.34667,-5.346666 v -2.64 c 0.71466,-0.390667 1.21866,-1.122667 1.21866,-1.993334 l 0.001,-2.473333 c 0,-1.032 0.44933,-1.982666 1.23066,-2.610666 2.97467,-2.382667 4.68134,-5.929334 4.68134,-9.728 0,-3.444 -1.37467,-6.650667 -3.86667,-9.029333 m -4.32933,26.141332 v 2.333334 c 0,2.36 -1.92134,4.282666 -4.28267,4.282666 -2.11467,0 -3.864,-1.544 -4.212,-3.561333 h 4.212 c 0.29333,0 0.532,-0.236 0.532,-0.532 0,-0.293333 -0.23867,-0.532 -0.532,-0.532 h -4.28533 v -1.990667 h 0.016 8.536 z m 2.848,-8.214666 c -1.036,0.830667 -1.628,2.082666 -1.628,3.441333 l -0.003,2.473333 c 0,0.682667 -0.55333,1.236 -1.23333,1.236 h -8.536 c -0.67867,0 -1.23334,-0.553333 -1.23334,-1.236 v -2.473333 c 0,-1.352 -0.60533,-2.614666 -1.65866,-3.464 -2.89734,-2.338666 -4.44134,-5.808 -4.236,-9.522666 0.31866,-5.76 5.08266,-10.482667 10.84533,-10.754667 0.18533,-0.008 0.372,-0.012 0.556,-0.012 2.952,0 5.72933,1.109334 7.87333,3.156 2.28,2.174667 3.536,5.108 3.536,8.258667 0,3.474666 -1.55866,6.718666 -4.28266,8.897333"
       style="fill:#231f20;fill-opacity:1;fill-rule:nonzero;stroke:none;stroke-width:1.33333" />
    <path
       id="path20"
       d="m 173.63186,110.18104 c -9.99641,3.9482 -12.1316,10.88341 -12.21329,11.17459 -0.20052,0.67003 0.27852,1.34321 1.07316,1.50914 0.11889,0.0282 0.24508,0.0376 0.36019,0.0376 0.66471,0 1.26258,-0.37884 1.43707,-0.9393 0.0744,-0.24735 1.93839,-6.09608 10.598,-9.51515 0.73896,-0.29431 1.06201,-1.04262 0.71667,-1.66257 -0.34904,-0.63245 -1.23285,-0.89858 -1.9718,-0.60427"
       style="fill:#231f20;fill-opacity:1;fill-rule:nonzero;stroke:none;stroke-width:3.40978" />
    <path
       id="path21"
       d="m 207.36975,106.55657 c -6.9403,-5.58258 -16.07521,-8.485033 -25.66316,-8.065486 -17.5457,0.691949 -32.05387,12.821486 -33.03049,27.615516 -0.62384,9.53394 4.08102,18.44167 12.89287,24.43756 2.24286,1.52481 3.52028,3.7854 3.52028,6.19314 v 5.81116 c 0,2.04141 1.41107,3.76034 3.39773,4.67774 v 6.19941 c 0,6.92266 6.68408,12.55534 14.89063,12.55534 8.21772,0 14.89436,-5.63268 14.89436,-12.55534 v -6.19941 c 1.99409,-0.9174 3.39774,-2.63633 3.39774,-4.67774 v -5.81116 c 0,-2.4234 1.24768,-4.65582 3.43114,-6.12738 8.28457,-5.59826 13.0377,-13.9236 13.0377,-22.84698 0,-8.09055 -3.8285,-15.62062 -10.7688,-21.20637 M 195.305,167.94946 v 5.47615 c 0,5.54501 -5.34356,10.05678 -11.92739,10.05678 -5.88569,0 -10.76137,-3.62255 -11.72312,-8.35665 h 11.72312 c 0.82438,0 1.48164,-0.56045 1.48164,-1.24927 0,-0.69197 -0.65726,-1.25242 -1.48164,-1.25242 h -11.92736 v -4.67459 h 0.0447 23.77304 z m 7.93921,-19.2933 c -2.88161,1.95376 -4.54149,4.8969 -4.54149,8.08114 v 5.81116 c 0,1.59994 -1.54104,2.90245 -3.43485,2.90245 h -23.77305 c -1.89013,0 -3.4349,-1.30251 -3.4349,-2.90245 v -5.81116 c 0,-3.16858 -1.68585,-6.13677 -4.63056,-8.13749 -8.06544,-5.48553 -12.36183,-13.63556 -11.79368,-22.35543 0.89121,-13.53224 14.15911,-24.61914 30.21203,-25.25475 0.51615,-0.0251 1.0286,-0.0345 1.54848,-0.0345 8.22142,0 15.95637,2.60498 21.92748,7.41109 6.34988,5.10668 9.84787,11.99492 9.84787,19.39663 0,8.16255 -4.34092,15.77716 -11.92733,20.89324"
       style="fill:#231f20;fill-opacity:1;fill-rule:nonzero;stroke:none;stroke-width:3.40978" />
    <path
       id="path22"
       d="m 532.40326,135.58304 h -3.688 v -8.08267 c 0,-0.29333 -0.23867,-0.532 -0.532,-0.532 -0.296,0 -0.532,0.23867 -0.532,0.532 v 8.08267 h -3.69067 c -7.948,0 -14.416,6.468 -14.416,14.416 v 0.80933 c 0,0.29333 0.23867,0.532 0.532,0.532 h 12.52934 c 0.61333,2.584 2.89333,4.412 5.57866,4.412 2.68667,0 4.96534,-1.828 5.58,-4.412 h 12.52267 c 0.296,0 0.532,-0.23867 0.532,-0.532 v -0.81067 c 0,-7.94933 -6.468,-14.41466 -14.416,-14.41466 m 13.352,14.69333 h -12.428 c -0.26267,0 -0.48533,0.192 -0.52533,0.44933 -0.364,2.296 -2.304,3.96267 -4.61734,3.96267 -2.312,0 -4.25333,-1.66667 -4.616,-3.96267 -0.0427,-0.25733 -0.26533,-0.44933 -0.52666,-0.44933 h -12.43334 v -0.27733 c 0,-7.36133 5.99067,-13.352 13.352,-13.352 h 4.08667 c 0.0493,0.0147 0.084,0.0573 0.136,0.0573 0.052,0 0.0867,-0.0427 0.136,-0.0573 h 4.084 c 7.36133,0 13.352,5.988 13.352,13.35066 z"
       style="fill:#231f20;fill-opacity:1;fill-rule:nonzero;stroke:none;stroke-width:1.33333" />
    <path
       id="path23"
       d="m 532.40326,70.505702 h -3.688 v -8.082667 c 0,-0.293333 -0.23867,-0.532 -0.532,-0.532 -0.296,0 -0.532,0.238667 -0.532,0.532 v 8.082667 h -3.69067 c -7.948,0 -14.416,6.468 -14.416,14.415999 v 0.809334 c 0,0.293333 0.23867,0.532 0.532,0.532 h 12.52934 c 0.61333,2.584 2.89066,4.411999 5.57866,4.411999 2.68667,0 4.96534,-1.827999 5.58,-4.411999 h 12.52267 c 0.296,0 0.532,-0.238667 0.532,-0.532 v -0.810667 c 0,-7.949333 -6.468,-14.414666 -14.416,-14.414666 m 13.352,14.693333 h -12.428 c -0.26267,0 -0.48533,0.192 -0.52533,0.449333 -0.364,2.296 -2.304,3.962667 -4.61734,3.962667 -2.31333,0 -4.256,-1.666667 -4.616,-3.962667 -0.04,-0.257333 -0.26533,-0.449333 -0.52666,-0.449333 h -12.43334 v -0.277334 c 0,-7.361333 5.99067,-13.351999 13.352,-13.351999 h 4.08667 c 0.0493,0.01467 0.084,0.05733 0.136,0.05733 0.052,0 0.0867,-0.04267 0.136,-0.05733 h 4.084 c 7.36133,0 13.352,5.987999 13.352,13.350666 z"
       style="fill:#231f20;fill-opacity:1;fill-rule:nonzero;stroke:none;stroke-width:1.33333" />
    <path
       id="path24"
       d="m 527.46513,87.934236 c -0.012,-0.0027 -1.272,-0.301334 -1.81733,-1.716 -0.10267,-0.274667 -0.41467,-0.414667 -0.68534,-0.305334 -0.27466,0.105334 -0.412,0.414667 -0.308,0.688 0.74534,1.94 2.50267,2.357334 2.57867,2.373334 0.0373,0.008 0.076,0.012 0.11733,0.012 0.24267,0 0.46267,-0.168 0.51734,-0.414667 0.064,-0.288 -0.116,-0.572 -0.40267,-0.637333"
       style="fill:#231f20;fill-opacity:1;fill-rule:nonzero;stroke:none;stroke-width:1.33333" />
    <path
       id="path25"
       d="m 616.17966,135.46157 h -3.688 v -8.08267 c 0,-0.29333 -0.23867,-0.532 -0.532,-0.532 -0.29333,0 -0.532,0.23867 -0.532,0.532 v 8.08267 h -3.69067 c -7.948,0 -14.416,6.468 -14.416,14.416 v 0.80933 c 0,0.29333 0.23867,0.532 0.532,0.532 h 12.52667 c 0.616,2.584 2.896,4.412 5.58133,4.412 2.68667,0 4.96534,-1.828 5.57867,-4.412 h 12.524 c 0.29333,0 0.532,-0.23867 0.532,-0.532 v -0.81067 c 0,-7.94933 -6.468,-14.41466 -14.416,-14.41466 m 13.352,14.69333 h -12.42933 c -0.26134,0 -0.484,0.19067 -0.52667,0.44933 -0.36133,2.296 -2.30133,3.96267 -4.61467,3.96267 -2.312,0 -4.25333,-1.66667 -4.61866,-3.96267 -0.04,-0.25866 -0.26267,-0.44933 -0.52534,-0.44933 h -12.432 v -0.27733 c 0,-7.36133 5.99067,-13.352 13.352,-13.352 h 4.08667 c 0.0493,0.0147 0.084,0.0573 0.136,0.0573 0.052,0 0.0867,-0.0427 0.13333,-0.0573 h 4.08667 c 7.36133,0 13.352,5.988 13.352,13.35066 z"
       style="fill:#231f20;fill-opacity:1;fill-rule:nonzero;stroke:none;stroke-width:1.33333" />
    <path
       id="path26"
       d="m 611.84833,150.45837 c -0.70667,0 -1.276,0.572 -1.276,1.276 0,0.704 0.56933,1.27733 1.276,1.27733 0.704,0 1.276,-0.57333 1.276,-1.27733 0,-0.704 -0.572,-1.276 -1.276,-1.276"
       style="fill:#231f20;fill-opacity:1;fill-rule:nonzero;stroke:none;stroke-width:1.33333" />
    <path
       id="path27"
       d="m 616.17966,68.670769 h -3.688 v -8.082667 c 0,-0.293333 -0.23867,-0.532 -0.532,-0.532 -0.29333,0 -0.532,0.238667 -0.532,0.532 v 8.085333 h -3.69067 c -7.948,0 -14.416,6.465334 -14.416,14.416 v 0.809333 c 0,0.141334 0.0573,0.276 0.156,0.376 0.10134,0.101334 0.23734,0.156 0.376,0.156 l 12.52934,-0.0027 c 0.61333,2.584 2.89333,4.411999 5.57866,4.411999 2.68934,0 4.96667,-1.827999 5.58,-4.411999 h 12.52267 c 0.29333,0 0.53467,-0.238667 0.53467,-0.532 v -0.810667 c 0,-7.949333 -6.47067,-14.414666 -14.41867,-14.414666 m 13.352,14.693333 h -12.428 c -0.26,0 -0.48267,0.192 -0.52533,0.449333 -0.36,2.296 -2.30267,3.962667 -4.61734,3.962667 -2.312,0 -4.25333,-1.666667 -4.616,-3.962667 -0.04,-0.257333 -0.26266,-0.449333 -0.52666,-0.449333 l -12.43067,0.0027 v -0.277333 c 0,-7.364 5.988,-13.352 13.34933,-13.352 h 0.33467 3.75467 c 0.048,0.01333 0.0813,0.05467 0.13333,0.05467 0.0507,0 0.0853,-0.04133 0.132,-0.05467 l 4.088,-0.0027 c 7.36133,0 13.352,5.987999 13.352,13.350666 z"
       style="fill:#231f20;fill-opacity:1;fill-rule:nonzero;stroke:none;stroke-width:1.33333" />
    <path
       id="path28"
       d="m 605.41499,86.479702 c -0.70667,0 -1.276,0.570666 -1.276,1.276 0,0.704 0.56933,1.277333 1.276,1.277333 0.70667,0 1.276,-0.573333 1.276,-1.277333 0,-0.705334 -0.56933,-1.276 -1.276,-1.276"
       style="fill:#231f20;fill-opacity:1;fill-rule:nonzero;stroke:none;stroke-width:1.33333" />
    <path
       id="path29"
       d="m 612.06673,89.716502 c -0.70667,0 -1.276,0.570666 -1.276,1.276 0,0.704 0.56933,1.277333 1.276,1.277333 0.704,0 1.276,-0.573333 1.276,-1.277333 0,-0.705334 -0.572,-1.276 -1.276,-1.276"
       style="fill:#231f20;fill-opacity:1;fill-rule:nonzero;stroke:none;stroke-width:1.33333" />
    <path
       id="path30"
       d="m 618.10753,86.916636 c -0.70667,0 -1.276,0.570666 -1.276,1.276 0,0.704 0.56933,1.277333 1.276,1.277333 0.704,0 1.276,-0.573333 1.276,-1.277333 0,-0.705334 -0.572,-1.276 -1.276,-1.276"
       style="fill:#231f20;fill-opacity:1;fill-rule:nonzero;stroke:none;stroke-width:1.33333" />
    <path
       id="path31"
       d="m 353.34579,65.332769 c -0.296,0 -0.532,0.238666 -0.532,0.534666 v 19.957333 c -0.384,0.196 -0.752,0.432 -1.06667,0.745333 -0.84266,0.848 -1.308,1.969334 -1.308,3.162667 0,1.193333 0.46534,2.314667 1.31067,3.161333 0.84533,0.846667 1.968,1.309334 3.16133,1.309334 1.19467,0 2.31734,-0.462667 3.16267,-1.309334 0.844,-0.845333 1.30933,-1.965333 1.30933,-3.161333 0,-1.193333 -0.46533,-2.316 -1.30933,-3.162667 -1.10133,-1.1 -2.72533,-1.470666 -4.196,-1.14 V 65.867435 c 0,-0.296 -0.236,-0.534666 -0.532,-0.534666 m 1.56533,20.994666 c 0.90934,0 1.764,0.354666 2.408,0.997333 0.64267,0.641333 0.99734,1.497333 0.99734,2.408 0,0.910667 -0.35467,1.766667 -0.99734,2.409333 -1.28933,1.286667 -3.528,1.286667 -4.81466,0 -0.64534,-0.645333 -1,-1.501333 -1,-2.409333 0,-0.906667 0.35466,-1.762667 0.99733,-2.408 0.644,-0.642667 1.5,-0.997333 2.40933,-0.997333"
       style="fill:#231f20;fill-opacity:1;fill-rule:nonzero;stroke:none;stroke-width:1.33333" />
    <path
       id="path32"
       d="m 362.52433,85.142502 c -0.70133,-1.162667 -1.67333,-2.156 -2.81867,-2.890667 v -6.009333 c 0,-0.293333 -0.23866,-0.532 -0.53333,-0.532 -0.29333,0 -0.532,0.238667 -0.532,0.532 v 6.306666 c 0,0.185334 0.0987,0.361334 0.26133,0.457334 1.108,0.657333 2.04534,1.585333 2.71067,2.686666 0.736,1.217334 1.124,2.613334 1.124,4.044 0,2.089333 -0.81333,4.056 -2.292,5.533333 -1.476,1.478667 -3.44133,2.292 -5.53333,2.292 -2.09067,0 -4.056,-0.813333 -5.53467,-2.292 -1.47867,-1.477333 -2.292,-3.444 -2.292,-5.533333 0,-1.428 0.388,-2.826666 1.12533,-4.044 0.66534,-1.101333 1.60134,-2.029333 2.71067,-2.686666 0.16133,-0.096 0.26133,-0.272 0.26133,-0.457334 V 66.101169 c 0,-0.990667 0.388,-1.928 1.09334,-2.633333 1.41466,-1.410667 3.85466,-1.414667 5.27066,0 0.704,0.705333 1.09467,1.639999 1.09467,2.633333 v 1.050666 c 0,0.293334 0.23867,0.533334 0.532,0.533334 0.29467,0 0.53333,-0.24 0.53333,-0.533334 v -1.050666 c 0,-1.276 -0.49866,-2.48 -1.408,-3.388 -1.812,-1.810667 -4.952,-1.817333 -6.77466,0 -0.908,0.908 -1.408,2.112 -1.408,3.388 v 16.150666 c -1.14534,0.734667 -2.116,1.728 -2.81867,2.890667 -0.83467,1.381333 -1.27867,2.972 -1.27867,4.594666 0,2.374667 0.92534,4.608 2.60667,6.286667 1.67867,1.68 3.912,2.604 6.28667,2.604 2.376,0 4.60933,-0.924 6.28666,-2.604 1.68134,-1.68 2.60534,-3.913334 2.60534,-6.286667 0,-1.625333 -0.44267,-3.213333 -1.27867,-4.594666"
       style="fill:#231f20;fill-opacity:1;fill-rule:nonzero;stroke:none;stroke-width:1.33333" />
    <path
       id="path33"
       d="m 358.26579,68.745702 c 0,0.497333 0.404,0.902666 0.90267,0.902666 0.49733,0 0.9,-0.405333 0.9,-0.902666 0,-0.497334 -0.40267,-0.902667 -0.9,-0.902667 -0.49867,0 -0.90267,0.405333 -0.90267,0.902667"
       style="fill:#231f20;fill-opacity:1;fill-rule:nonzero;stroke:none;stroke-width:1.33333" />
    <path
       id="path34"
       d="m 360.09659,74.351569 c 0,-0.497334 -0.404,-0.902667 -0.90267,-0.902667 -0.49733,0 -0.9,0.405333 -0.9,0.902667 0,0.497333 0.40267,0.902666 0.9,0.902666 0.49867,0 0.90267,-0.405333 0.90267,-0.902666"
       style="fill:#231f20;fill-opacity:1;fill-rule:nonzero;stroke:none;stroke-width:1.33333" />
    <path
       id="path35"
       d="m 361.65646,72.312369 c 0.49733,0 0.90267,-0.404 0.90267,-0.902667 0,-0.497333 -0.40534,-0.9 -0.90267,-0.9 -0.49733,0 -0.90267,0.402667 -0.90267,0.9 0,0.498667 0.40534,0.902667 0.90267,0.902667"
       style="fill:#231f20;fill-opacity:1;fill-rule:nonzero;stroke:none;stroke-width:1.33333" />
    <path
       id="path36"
       d="m 357.53553,71.410102 c 0,-0.497334 -0.40267,-0.902667 -0.90267,-0.902667 -0.49733,0 -0.9,0.405333 -0.9,0.902667 0,0.497333 0.40267,0.902666 0.9,0.902666 0.5,0 0.90267,-0.405333 0.90267,-0.902666"
       style="fill:#231f20;fill-opacity:1;fill-rule:nonzero;stroke:none;stroke-width:1.33333" />
    <path
       id="path37"
       d="m 353.34579,143.7965 c -0.296,0 -0.532,0.23867 -0.532,0.532 v 6.57333 c -0.384,0.19734 -0.75067,0.43467 -1.064,0.74667 -0.84533,0.84533 -1.31067,1.96933 -1.31067,3.16133 0,1.19334 0.46534,2.31867 1.31067,3.164 0.844,0.844 1.96667,1.30933 3.16133,1.30933 1.19467,0 2.31734,-0.46533 3.16,-1.30933 0.84667,-0.844 1.312,-1.968 1.312,-3.164 0,-1.19333 -0.46533,-2.316 -1.312,-3.16133 -1.096,-1.09867 -2.72266,-1.46933 -4.19333,-1.14 v -6.18 c 0,-0.29333 -0.236,-0.532 -0.532,-0.532 m 1.56533,7.608 c 0.90934,0 1.764,0.35467 2.408,0.99867 0.64267,0.64266 0.99734,1.49866 0.99734,2.40666 0,0.91067 -0.35467,1.76667 -0.99734,2.40933 -1.28666,1.28667 -3.53066,1.28667 -4.81733,0 -0.64267,-0.64266 -0.99733,-1.49866 -0.99733,-2.40933 0,-0.908 0.35466,-1.764 0.99733,-2.40666 0.644,-0.644 1.5,-0.99867 2.40933,-0.99867"
       style="fill:#231f20;fill-opacity:1;fill-rule:nonzero;stroke:none;stroke-width:1.33333" />
    <path
       id="path38"
       d="m 362.52433,150.2157 c -0.704,-1.16133 -1.67333,-2.15467 -2.81867,-2.88933 v -7.572 c 0,-0.29334 -0.23866,-0.532 -0.53333,-0.532 -0.29333,0 -0.532,0.23866 -0.532,0.532 v 7.86933 c 0,0.188 0.0987,0.36267 0.26133,0.45733 1.10667,0.66 2.04534,1.58667 2.71067,2.68667 0.736,1.21867 1.124,2.61467 1.124,4.044 0,2.09067 -0.81333,4.056 -2.29333,5.53333 -1.47467,1.47867 -3.44,2.292 -5.532,2.292 -2.09067,0 -4.056,-0.81333 -5.53467,-2.292 -1.47867,-1.47733 -2.292,-3.44266 -2.292,-5.53333 0,-1.428 0.388,-2.82533 1.12533,-4.044 0.66534,-1.1 1.60134,-2.02667 2.71067,-2.68667 0.16133,-0.0947 0.26133,-0.26933 0.26133,-0.45733 v -16.44667 c 0,-0.992 0.388,-1.928 1.09334,-2.63466 1.41466,-1.40934 3.85466,-1.41334 5.27066,0 0.704,0.70666 1.09467,1.64133 1.09467,2.63466 v 1.93334 c 0,0.29333 0.23867,0.532 0.532,0.532 0.29467,0 0.53333,-0.23867 0.53333,-0.532 v -1.93334 c 0,-1.27733 -0.49866,-2.48 -1.408,-3.38933 -1.812,-1.81067 -4.952,-1.816 -6.77466,0 -0.908,0.90933 -1.408,2.112 -1.408,3.38933 v 16.14934 c -1.14534,0.73466 -2.116,1.728 -2.81867,2.892 -0.83467,1.38133 -1.27867,2.97333 -1.27867,4.59333 0,2.376 0.92534,4.60933 2.60667,6.288 1.67867,1.67867 3.912,2.604 6.28667,2.604 2.376,0 4.60933,-0.92533 6.28666,-2.604 1.67867,-1.68133 2.60534,-3.91467 2.60534,-6.288 0,-1.624 -0.44267,-3.212 -1.27867,-4.596"
       style="fill:#231f20;fill-opacity:1;fill-rule:nonzero;stroke:none;stroke-width:1.33333" />
    <path
       id="path39"
       d="m 358.26379,136.2809 c 0,0.49733 0.404,0.90267 0.90267,0.90267 0.49733,0 0.9,-0.40534 0.9,-0.90267 0,-0.49733 -0.40267,-0.90267 -0.9,-0.90267 -0.49867,0 -0.90267,0.40534 -0.90267,0.90267"
       style="fill:#231f20;fill-opacity:1;fill-rule:nonzero;stroke:none;stroke-width:1.33333" />
    <path
       id="path40"
       d="M 445.76246,81.468636 V 65.071303 c 0.004,-1.252 -0.48133,-2.430667 -1.36533,-3.317334 -0.884,-0.887999 -2.06134,-1.377333 -3.31334,-1.379999 h -0.0107 c -2.584,0 -4.688,2.103999 -4.688,4.695999 v 16.398667 c -3.97734,2.496 -5.28934,7.735999 -2.91467,11.829333 1.49733,2.570666 4.16133,4.197333 7.16,4.350666 h 0.44267 c 4.83733,0 8.76933,-3.934666 8.76933,-8.769333 0,-3 -1.55467,-5.812 -4.08,-7.410666 m -4.68933,15.115999 h -0.41734 c -2.60666,-0.133333 -4.94933,-1.564 -6.26266,-3.824 -2.13467,-3.673333 -0.88267,-8.397333 2.792,-10.533333 0.164,-0.09333 0.264,-0.270666 0.264,-0.458666 V 65.061969 c 0,-1.998666 1.62666,-3.624 3.624,-3.624 V 60.90597 l 0.008,0.531999 c 0.96666,0.0027 1.87733,0.381334 2.56133,1.066667 0.68133,0.685333 1.05733,1.596 1.056,2.565333 v 16.698667 c 0,0.188 0.10133,0.364 0.26267,0.458666 2.35466,1.376 3.81733,3.922667 3.81733,6.652 0,4.246667 -3.45467,7.705333 -7.70533,7.705333"
       style="fill:#231f20;fill-opacity:1;fill-rule:nonzero;stroke:none;stroke-width:1.33333" />
    <path
       id="path41"
       d="m 441.59699,87.003702 v -22.148 c 0,-0.293333 -0.23867,-0.532 -0.532,-0.532 -0.296,0 -0.532,0.238667 -0.532,0.532 v 22.148 c -1.11467,0.250666 -1.964,1.2 -1.964,2.386666 0,1.378667 1.11867,2.498667 2.496,2.498667 1.376,0 2.496,-1.12 2.496,-2.498667 0,-1.185333 -0.852,-2.136 -1.964,-2.386666"
       style="fill:#231f20;fill-opacity:1;fill-rule:nonzero;stroke:none;stroke-width:1.33333" />
    <path
       id="path42"
       d="m 449.39993,64.209969 c -0.56267,0 -1.01733,0.454666 -1.01733,1.017333 0,0.562667 0.45466,1.017333 1.01733,1.017333 0.56267,0 1.01733,-0.454666 1.01733,-1.017333 0,-0.562667 -0.45466,-1.017333 -1.01733,-1.017333"
       style="fill:#231f20;fill-opacity:1;fill-rule:nonzero;stroke:none;stroke-width:1.33333" />
    <path
       id="path43"
       d="m 445.83126,146.54384 v -16.39867 c 0.004,-2.584 -2.09333,-4.692 -4.68133,-4.696 h -0.008 c -2.584,0 -4.688,2.104 -4.688,4.696 v 16.39867 c -3.97467,2.496 -5.292,7.736 -2.91334,11.82933 1.496,2.57067 4.16267,4.19733 7.156,4.35067 h 0.44534 c 4.83733,0 8.76933,-3.93467 8.76933,-8.76933 0,-3.00267 -1.55467,-5.81467 -4.08,-7.41067 m -4.68933,15.116 h -0.41734 c -2.60666,-0.13334 -4.94933,-1.564 -6.26533,-3.824 -2.132,-3.67333 -0.88,-8.39733 2.796,-10.53333 0.16267,-0.0933 0.26267,-0.27067 0.26267,-0.45867 v -16.70667 c 0,-1.99866 1.62666,-3.624 3.624,-3.624 v -0.532 l 0.008,0.532 c 0.96666,0.003 1.876,0.38134 2.56133,1.06667 0.68133,0.68533 1.05733,1.596 1.056,2.56533 v 16.69867 c 0,0.188 0.0987,0.364 0.26267,0.45867 2.35466,1.37333 3.81733,3.92266 3.81733,6.652 0,4.24666 -3.45733,7.70533 -7.70533,7.70533"
       style="fill:#231f20;fill-opacity:1;fill-rule:nonzero;stroke:none;stroke-width:1.33333" />
    <path
       id="path44"
       d="m 441.66579,152.0809 v -5.04533 c 0,-0.29334 -0.23867,-0.532 -0.532,-0.532 -0.29333,0 -0.532,0.23866 -0.532,0.532 v 5.04533 c -1.11467,0.24933 -1.96667,1.2 -1.96667,2.38667 0,1.37866 1.12134,2.49866 2.496,2.49866 1.37867,0 2.49734,-1.12 2.49734,-2.49866 0,-1.18534 -0.84934,-2.136 -1.96267,-2.38667"
       style="fill:#231f20;fill-opacity:1;fill-rule:nonzero;stroke:none;stroke-width:1.33333" />
    <path
       id="path45"
       d="m 449.33113,143.28477 c -0.56267,0 -1.01733,0.45467 -1.01733,1.01733 0,0.56267 0.45466,1.01734 1.01733,1.01734 0.56267,0 1.01733,-0.45467 1.01733,-1.01734 0,-0.56266 -0.45466,-1.01733 -1.01733,-1.01733"
       style="fill:#231f20;fill-opacity:1;fill-rule:nonzero;stroke:none;stroke-width:1.33333" />
    <path
       id="path46"
       d="m 888.79299,60.613036 h -3.08667 -30.036 -3.088 c -0.29333,0 -0.532,0.238666 -0.532,0.532 0,0.293333 0.23867,0.532 0.532,0.532 h 2.55467 v 24.102666 c 0,3.097333 2.39333,5.617333 5.42267,5.881333 0.032,0.0053 0.052,0.036 0.084,0.036 0.0213,0 0.0333,-0.02 0.0507,-0.02267 0.128,0.008 0.24934,0.03867 0.37734,0.03867 h 19.232 c 0.12666,0 0.24533,-0.03067 0.37066,-0.03867 0.0187,0.0027 0.0307,0.02267 0.0507,0.02267 0.032,0 0.0533,-0.03067 0.0827,-0.03467 3.03333,-0.26 5.43066,-2.784 5.43066,-5.882666 V 61.677036 h 2.55467 c 0.29333,0 0.532,-0.238667 0.532,-0.532 0,-0.293334 -0.23867,-0.532 -0.532,-0.532 m -8.6,30.035999 H 861.17566 V 61.679702 h 19.01733 z M 856.20232,85.779702 V 61.677036 h 3.90934 v 28.874666 c -2.22667,-0.446667 -3.90934,-2.417334 -3.90934,-4.772 m 28.972,0 c 0,2.357333 -1.688,4.326666 -3.91733,4.772 V 61.677036 h 3.91733 z"
       style="fill:#231f20;fill-opacity:1;fill-rule:nonzero;stroke:none;stroke-width:1.33333" />
    <path
       id="path47"
       d="m 875.75433,75.733302 c 0.34,0 0.61733,-0.277334 0.61733,-0.618667 0,-0.34 -0.27733,-0.617333 -0.61733,-0.617333 -0.34,0 -0.61733,0.277333 -0.61733,0.617333 0,0.341333 0.27733,0.618667 0.61733,0.618667"
       style="fill:#231f20;fill-opacity:1;fill-rule:nonzero;stroke:none;stroke-width:1.33333" />
    <path
       id="path48"
       d="m 877.07739,76.700236 c 0.34,0 0.61733,-0.277334 0.61733,-0.618667 0,-0.34 -0.27733,-0.617333 -0.61733,-0.617333 -0.34,0 -0.61733,0.277333 -0.61733,0.617333 0,0.341333 0.27733,0.618667 0.61733,0.618667"
       style="fill:#231f20;fill-opacity:1;fill-rule:nonzero;stroke:none;stroke-width:1.33333" />
    <path
       id="path49"
       d="m 877.07739,78.873036 c 0.34,0 0.61733,-0.277334 0.61733,-0.618667 0,-0.34 -0.27733,-0.617333 -0.61733,-0.617333 -0.34,0 -0.61733,0.277333 -0.61733,0.617333 0,0.341333 0.27733,0.618667 0.61733,0.618667"
       style="fill:#231f20;fill-opacity:1;fill-rule:nonzero;stroke:none;stroke-width:1.33333" />
    <path
       id="path50"
       d="m 878.25886,77.693569 c 0.34,0 0.61733,-0.277334 0.61733,-0.618667 0,-0.34 -0.27733,-0.617333 -0.61733,-0.617333 -0.34,0 -0.61733,0.277333 -0.61733,0.617333 0,0.341333 0.27733,0.618667 0.61733,0.618667"
       style="fill:#231f20;fill-opacity:1;fill-rule:nonzero;stroke:none;stroke-width:1.33333" />
    <path
       id="path51"
       d="m 865.72193,75.733302 c 0.34,0 0.61733,-0.277334 0.61733,-0.618667 0,-0.34 -0.27733,-0.617333 -0.61733,-0.617333 -0.34,0 -0.61733,0.277333 -0.61733,0.617333 0,0.341333 0.27733,0.618667 0.61733,0.618667"
       style="fill:#231f20;fill-opacity:1;fill-rule:nonzero;stroke:none;stroke-width:1.33333" />
    <path
       id="path52"
       d="m 864.40113,76.700236 c 0.34,0 0.61733,-0.277334 0.61733,-0.618667 0,-0.34 -0.27733,-0.617333 -0.61733,-0.617333 -0.34,0 -0.61733,0.277333 -0.61733,0.617333 0,0.341333 0.27733,0.618667 0.61733,0.618667"
       style="fill:#231f20;fill-opacity:1;fill-rule:nonzero;stroke:none;stroke-width:1.33333" />
    <path
       id="path53"
       d="m 865.72193,79.844102 c 0.34,0 0.61733,-0.277334 0.61733,-0.618667 0,-0.34 -0.27733,-0.617333 -0.61733,-0.617333 -0.34,0 -0.61733,0.277333 -0.61733,0.617333 0,0.341333 0.27733,0.618667 0.61733,0.618667"
       style="fill:#231f20;fill-opacity:1;fill-rule:nonzero;stroke:none;stroke-width:1.33333" />
    <path
       id="path54"
       d="m 864.40113,77.637036 c -0.34,0 -0.61733,0.277333 -0.61733,0.618666 0,0.34 0.27733,0.617334 0.61733,0.617334 0.34,0 0.61733,-0.277334 0.61733,-0.617334 0,-0.341333 -0.27733,-0.618666 -0.61733,-0.618666"
       style="fill:#231f20;fill-opacity:1;fill-rule:nonzero;stroke:none;stroke-width:1.33333" />
    <path
       id="path55"
       d="m 863.21953,77.693569 c 0.34,0 0.61733,-0.277334 0.61733,-0.618667 0,-0.34 -0.27733,-0.617333 -0.61733,-0.617333 -0.34,0 -0.61733,0.277333 -0.61733,0.617333 0,0.341333 0.27733,0.618667 0.61733,0.618667"
       style="fill:#231f20;fill-opacity:1;fill-rule:nonzero;stroke:none;stroke-width:1.33333" />
    <path
       id="path56"
       d="m 875.75433,79.844102 c 0.34,0 0.61733,-0.277334 0.61733,-0.618667 0,-0.34 -0.27733,-0.617333 -0.61733,-0.617333 -0.34,0 -0.61733,0.277333 -0.61733,0.617333 0,0.341333 0.27733,0.618667 0.61733,0.618667"
       style="fill:#231f20;fill-opacity:1;fill-rule:nonzero;stroke:none;stroke-width:1.33333" />
    <path
       id="path57"
       d="m 860.95166,143.6833 c -0.34,0 -0.61733,0.27733 -0.61733,0.61867 0,0.34 0.27733,0.61733 0.61733,0.61733 0.34,0 0.61733,-0.27733 0.61733,-0.61733 0,-0.34134 -0.27733,-0.61867 -0.61733,-0.61867"
       style="fill:#231f20;fill-opacity:1;fill-rule:nonzero;stroke:none;stroke-width:1.33333" />
    <path
       id="path58"
       d="m 862.27473,142.71624 c -0.34,0 -0.61733,0.27733 -0.61733,0.61867 0,0.34 0.27733,0.61733 0.61733,0.61733 0.34,0 0.61733,-0.27733 0.61733,-0.61733 0,-0.34134 -0.27733,-0.61867 -0.61733,-0.61867"
       style="fill:#231f20;fill-opacity:1;fill-rule:nonzero;stroke:none;stroke-width:1.33333" />
    <path
       id="path59"
       d="m 860.95166,139.5725 c -0.34,0 -0.61733,0.27733 -0.61733,0.61867 0,0.34 0.27733,0.61733 0.61733,0.61733 0.34,0 0.61733,-0.27733 0.61733,-0.61733 0,-0.34134 -0.27733,-0.61867 -0.61733,-0.61867"
       style="fill:#231f20;fill-opacity:1;fill-rule:nonzero;stroke:none;stroke-width:1.33333" />
    <path
       id="path60"
       d="m 862.27473,141.77957 c 0.34,0 0.61733,-0.27733 0.61733,-0.61867 0,-0.34 -0.27733,-0.61733 -0.61733,-0.61733 -0.34,0 -0.61733,0.27733 -0.61733,0.61733 0,0.34134 0.27733,0.61867 0.61733,0.61867"
       style="fill:#231f20;fill-opacity:1;fill-rule:nonzero;stroke:none;stroke-width:1.33333" />
    <path
       id="path61"
       d="m 863.45619,141.7229 c -0.34,0 -0.61733,0.27733 -0.61733,0.61867 0,0.34 0.27733,0.61733 0.61733,0.61733 0.34,0 0.61733,-0.27733 0.61733,-0.61733 0,-0.34134 -0.27733,-0.61867 -0.61733,-0.61867"
       style="fill:#231f20;fill-opacity:1;fill-rule:nonzero;stroke:none;stroke-width:1.33333" />
    <path
       id="path62"
       d="m 880.42153,143.6833 c -0.34,0 -0.61733,0.27733 -0.61733,0.61867 0,0.34 0.27733,0.61733 0.61733,0.61733 0.34,0 0.61733,-0.27733 0.61733,-0.61733 0,-0.34134 -0.27733,-0.61867 -0.61733,-0.61867"
       style="fill:#231f20;fill-opacity:1;fill-rule:nonzero;stroke:none;stroke-width:1.33333" />
    <path
       id="path63"
       d="m 879.09833,142.71624 c -0.34,0 -0.61733,0.27733 -0.61733,0.61867 0,0.34 0.27733,0.61733 0.61733,0.61733 0.34,0 0.61733,-0.27733 0.61733,-0.61733 0,-0.34134 -0.27733,-0.61867 -0.61733,-0.61867"
       style="fill:#231f20;fill-opacity:1;fill-rule:nonzero;stroke:none;stroke-width:1.33333" />
    <path
       id="path64"
       d="m 879.09833,140.54344 c -0.34,0 -0.61733,0.27733 -0.61733,0.61867 0,0.34 0.27733,0.61733 0.61733,0.61733 0.34,0 0.61733,-0.27733 0.61733,-0.61733 0,-0.34134 -0.27733,-0.61867 -0.61733,-0.61867"
       style="fill:#231f20;fill-opacity:1;fill-rule:nonzero;stroke:none;stroke-width:1.33333" />
    <path
       id="path65"
       d="m 877.91699,141.7229 c -0.34,0 -0.61733,0.27733 -0.61733,0.61867 0,0.34 0.27733,0.61733 0.61733,0.61733 0.34,0 0.61733,-0.27733 0.61733,-0.61733 0,-0.34134 -0.27733,-0.61867 -0.61733,-0.61867"
       style="fill:#231f20;fill-opacity:1;fill-rule:nonzero;stroke:none;stroke-width:1.33333" />
    <path
       id="path66"
       d="m 880.42153,139.5725 c -0.34,0 -0.61733,0.27733 -0.61733,0.61867 0,0.34 0.27733,0.61733 0.61733,0.61733 0.34,0 0.61733,-0.27733 0.61733,-0.61733 0,-0.34134 -0.27733,-0.61867 -0.61733,-0.61867"
       style="fill:#231f20;fill-opacity:1;fill-rule:nonzero;stroke:none;stroke-width:1.33333" />
    <path
       id="path67"
       d="m 888.79299,125.68837 h -3.08667 -30.036 -3.088 c -0.29333,0 -0.532,0.23867 -0.532,0.532 0,0.29333 0.23867,0.532 0.532,0.532 h 2.55467 v 24.10266 c 0,3.09734 2.39333,5.61867 5.42267,5.88134 0.032,0.005 0.052,0.036 0.084,0.036 0.0213,0 0.0333,-0.02 0.0507,-0.0227 0.128,0.008 0.24934,0.0387 0.37734,0.0387 h 19.232 c 0.128,0 0.24533,-0.0307 0.37066,-0.0387 0.0187,0.003 0.0307,0.0227 0.0507,0.0227 0.032,0 0.0533,-0.0307 0.0827,-0.0347 3.03333,-0.26 5.43066,-2.784 5.43066,-5.88267 v -24.10266 h 2.55467 c 0.29333,0 0.532,-0.23867 0.532,-0.532 0,-0.29333 -0.23867,-0.532 -0.532,-0.532 m -16.69467,30.036 h -2.83066 v -28.96933 h 2.83066 z m -11.98666,-0.0973 c -2.22667,-0.44666 -3.90934,-2.41733 -3.90934,-4.772 v -24.10266 h 3.70934 0.2 1.06533 0.276 6.752 v 28.972 h -7.028 c 0,0 -0.56933,0.0307 -1.06533,-0.0973 m 25.06266,-4.772 c 0,2.35067 -1.68,4.31467 -3.89866,4.76667 0,0.001 -0.003,0.001 -0.003,0.001 -10e-4,0 -0.005,0 -0.008,0.003 -10e-4,0 -0.005,10e-4 -0.008,10e-4 -0.42,0.10934 -0.98933,0.096 -1.064,0.0933 v 0.004 h -7.028 v -28.972 h 6.76667 v -10e-4 h 1.54133 v 10e-4 h 3.70133 z"
       style="fill:#231f20;fill-opacity:1;fill-rule:nonzero;stroke:none;stroke-width:1.33333" />
    <path
       id="path68"
       d="m 783.31339,75.812236 c 0.10133,0.028 0.20267,0.04 0.304,0.04 0.19733,0 0.396,-0.052 0.57333,-0.153334 0.268,-0.153333 0.45734,-0.404 0.53467,-0.689333 0.028,-0.09733 0.0427,-0.202667 0.0427,-0.310667 V 59.221569 c 0,-0.625333 -0.5,-1.134666 -1.11867,-1.156 -0.0267,-0.004 -0.0533,-0.0013 -0.0787,-0.0013 -0.084,0.004 -0.172,0.02 -0.25733,0.04267 -3.99333,1.073333 -6.78533,4.710666 -6.78933,8.848 0.001,4.139999 2.79333,7.781333 6.78933,8.857333 m 0.28267,-16.664 c 0.0173,-0.004 0.0227,-0.004 0.0227,-0.004 l -0.024,-0.537333 0.0933,0.614666 -0.0933,15.549333 c -3.52666,-0.949333 -5.988,-4.164 -5.99066,-7.815999 0.004,-3.649334 2.46666,-6.857334 5.992,-7.806667"
       style="fill:#231f20;fill-opacity:1;fill-rule:nonzero;stroke:none;stroke-width:1.33333" />
    <path
       id="path69"
       d="m 803.82299,74.250369 c -1.076,-3.997334 -4.71733,-6.786667 -8.85733,-6.786667 -4.132,0 -7.772,2.789333 -8.848,6.786667 -0.16667,0.613333 0.19733,1.248 0.82933,1.42 0.0987,0.02267 0.19333,0.03467 0.28533,0.03467 h 15.476 c 0.63734,0 1.15467,-0.518666 1.15467,-1.154666 0,-0.108 -0.0133,-0.213334 -0.04,-0.3 m -16.664,0.282666 c 0.95067,-3.528 4.16133,-5.989333 7.80667,-5.989333 3.652,0 6.864,2.461333 7.74266,6.082667 z"
       style="fill:#231f20;fill-opacity:1;fill-rule:nonzero;stroke:none;stroke-width:1.33333" />
    <path
       id="path70"
       d="m 787.68313,77.056369 c -0.11333,-0.032 -0.22667,-0.04267 -0.35067,-0.04267 h -10e-4 c -0.62267,0.02667 -1.11067,0.532 -1.11067,1.157333 v 15.474667 c 0,0.637333 0.51734,1.154666 1.15467,1.154666 0.10533,0 0.20933,-0.01467 0.3,-0.04 3.996,-1.076 6.78667,-4.718666 6.78933,-8.857333 0,-4.133333 -2.792,-7.770666 -6.78133,-8.846666 m -0.38267,16.589333 V 78.171035 c 0,-0.04 0.032,-0.07467 0.0733,-0.07733 l -0.0227,-0.541333 0.0427,0.544 c 3.52666,0.950666 5.99066,4.161333 5.99066,7.809333 -0.003,3.649333 -2.46666,6.864 -6.084,7.74"
       style="fill:#231f20;fill-opacity:1;fill-rule:nonzero;stroke:none;stroke-width:1.33333" />
    <path
       id="path71"
       d="m 784.06393,77.199969 c -0.0973,-0.024 -0.2,-0.04 -0.30533,-0.04 h -15.476 c -0.63734,0 -1.156,0.517333 -1.156,1.154666 0,0.09867 0.012,0.198667 0.0413,0.301334 1.07333,3.989333 4.71333,6.783999 8.848,6.787999 4.14,-0.0027 7.78133,-2.795999 8.85733,-6.787999 0.0813,-0.297334 0.04,-0.610667 -0.11333,-0.877334 -0.15333,-0.265333 -0.40267,-0.457333 -0.696,-0.538666 m -8.048,7.122666 c -3.64667,-0.004 -6.85733,-2.468 -7.80933,-6.008 0,-0.04267 0.0333,-0.07467 0.076,-0.07467 l 15.54933,0.09333 c -0.952,3.524 -4.164,5.988 -7.816,5.989333"
       style="fill:#231f20;fill-opacity:1;fill-rule:nonzero;stroke:none;stroke-width:1.33333" />
    <path
       id="path72"
       d="m 795.94726,63.473569 c -0.528,0 -0.95733,0.429333 -0.95733,0.957333 0,0.528 0.42933,0.954667 0.95733,0.954667 0.528,0 0.95733,-0.426667 0.95733,-0.954667 0,-0.528 -0.42933,-0.957333 -0.95733,-0.957333"
       style="fill:#231f20;fill-opacity:1;fill-rule:nonzero;stroke:none;stroke-width:1.33333" />
    <path
       id="path73"
       d="m 798.92313,62.265836 c 0.528,0 0.95733,-0.429334 0.95733,-0.957334 0,-0.528 -0.42933,-0.956 -0.95733,-0.956 -0.528,0 -0.95733,0.428 -0.95733,0.956 0,0.528 0.42933,0.957334 0.95733,0.957334"
       style="fill:#231f20;fill-opacity:1;fill-rule:nonzero;stroke:none;stroke-width:1.33333" />
    <path
       id="path74"
       d="m 793.23033,62.265836 c 0.528,0 0.95733,-0.429334 0.95733,-0.957334 0,-0.528 -0.42933,-0.956 -0.95733,-0.956 -0.528,0 -0.95733,0.428 -0.95733,0.956 0,0.528 0.42933,0.957334 0.95733,0.957334"
       style="fill:#231f20;fill-opacity:1;fill-rule:nonzero;stroke:none;stroke-width:1.33333" />
    <path
       id="path75"
       d="m 783.28299,140.5941 c 0.10133,0.0267 0.20267,0.04 0.3,0.04 0.51067,0 0.97867,-0.34 1.116,-0.85067 0.0267,-0.0973 0.04,-0.20266 0.04,-0.30666 V 123.7621 c 0,-0.62933 -0.49867,-1.14133 -1.12,-1.15867 -0.024,-0.003 -0.0467,-0.003 -0.0747,-0.003 -0.0973,0.004 -0.19066,0.02 -0.26133,0.0453 -4.04667,1.088 -6.876,4.776 -6.88267,8.96933 0.003,4.19467 2.83067,7.88667 6.88267,8.97867 m 0.0933,-16.87067 c 0.0947,0.0507 0.19334,0.0773 0.29867,0.0387 l -10e-4,15.73333 c 0,0.003 -0.11334,0.0693 -0.11334,0.0707 -3.58666,-0.96933 -6.09333,-4.236 -6.096,-7.952 0.007,-3.64 2.41734,-6.852 5.912,-7.89067"
       style="fill:#231f20;fill-opacity:1;fill-rule:nonzero;stroke:none;stroke-width:1.33333" />
    <path
       id="path76"
       d="m 804.09206,139.02824 c -1.09067,-4.05067 -4.78267,-6.88 -8.97867,-6.88267 -4.192,0 -7.88,2.83067 -8.96933,6.88267 -0.0813,0.29733 -0.0427,0.60933 0.11333,0.87867 0.15334,0.26666 0.40267,0.46 0.716,0.544 0.0973,0.0213 0.19334,0.0333 0.28667,0.0333 h 15.71467 c 0.64,0 1.15733,-0.51733 1.15733,-1.15467 0,-0.10266 -0.0133,-0.208 -0.04,-0.30133 m -1.11733,0.392 h -15.71467 l -0.0907,-0.11333 c 0.96667,-3.588 4.23467,-6.09734 7.944,-6.09734 v -0.532 0.532 c 3.71734,0.003 6.984,2.50934 7.95067,6.09734 0,0 -0.0893,0.112 -0.0893,0.11333"
       style="fill:#231f20;fill-opacity:1;fill-rule:nonzero;stroke:none;stroke-width:1.33333" />
    <path
       id="path77"
       d="m 787.70939,141.88677 c -0.12,-0.032 -0.23467,-0.0347 -0.35467,-0.04 -0.62,0.028 -1.10533,0.536 -1.10533,1.15733 v 15.716 c 0,0.63733 0.51733,1.156 1.156,1.156 0.10533,0 0.20667,-0.012 0.3,-0.0413 4.052,-1.088 6.88267,-4.78 6.88267,-8.976 0,-4.192 -2.83067,-7.88 -6.87867,-8.972 m -0.28267,16.92266 -0.11333,-0.0893 v -15.716 c 0,-0.0507 0.0373,-0.0893 0.088,-0.092 l -0.02,-0.53333 0.0493,0.536 c 3.58667,0.96667 6.09334,4.232 6.09334,7.944 -0.003,3.71467 -2.50667,6.98533 -6.09734,7.95066"
       style="fill:#231f20;fill-opacity:1;fill-rule:nonzero;stroke:none;stroke-width:1.33333" />
    <path
       id="path78"
       d="m 784.03566,142.0345 c -0.10133,-0.0267 -0.204,-0.0427 -0.30533,-0.0427 h -15.71734 c -0.63733,0 -1.15733,0.52 -1.15733,1.16 0,0.0987 0.0147,0.2 0.0413,0.30134 1.08934,4.04533 4.78,6.876 8.972,6.88 4.19334,0 7.88534,-2.83067 8.97734,-6.88267 0.16666,-0.61467 -0.20134,-1.252 -0.81067,-1.416 m -8.16667,7.232 c -3.712,-0.004 -6.98,-2.508 -7.94666,-6.11467 0,-0.0533 0.04,-0.0933 0.0907,-0.0933 l 15.736,0.004 c 10e-4,0 0.068,0.11067 0.0707,0.11067 -0.968,3.58933 -4.23733,6.09333 -7.95067,6.09333"
       style="fill:#231f20;fill-opacity:1;fill-rule:nonzero;stroke:none;stroke-width:1.33333" />
    <path
       id="path79"
       d="m 795.34246,127.06397 c 0.536,0 0.97067,-0.43467 0.97067,-0.97067 0,-0.536 -0.43467,-0.972 -0.97067,-0.972 -0.536,0 -0.97067,0.436 -0.97067,0.972 0,0.536 0.43467,0.97067 0.97067,0.97067"
       style="fill:#231f20;fill-opacity:1;fill-rule:nonzero;stroke:none;stroke-width:1.33333" />
    <path
       id="path80"
       d="m 700.25526,122.62344 c -4.264,-0.3 -8.05333,2.496 -9.03333,6.61333 -0.11734,0.396 -0.0373,0.832 0.24933,1.204 0.18,0.192 0.412,0.33734 0.66933,0.416 0.804,0.24267 1.64934,-0.216 1.89734,-1.036 0.67066,-2.548 2.97466,-4.324 5.61466,-4.324 h 0.024 c 0.476,-0.0253 0.83734,0.044 1.24,0.13067 0.88267,0.19467 1.716,0.59733 2.41334,1.164 2.48266,2.016 2.86133,5.676 0.844,8.16 -1.09867,1.364 -2.72934,2.14666 -4.47867,2.14666 h -0.02 c -4.78267,0 -8.676,3.892 -8.676,8.67334 v 12.668 c 0,0.79333 0.64533,1.436 1.43733,1.436 h 14.476 c 0.79334,0 1.43734,-0.64267 1.43734,-1.436 v -26.824 c 0.092,-4.64267 -3.46,-8.59333 -8.09467,-8.992 m 7.03067,35.816 c 0,0.20666 -0.16667,0.372 -0.37334,0.372 h -14.476 c -0.20533,0 -0.372,-0.16534 -0.372,-0.372 v -12.668 c 0,-4.196 3.41467,-7.60934 7.608,-7.60934 h 0.024 c 2.072,0 4.00534,-0.924 5.30534,-2.53999 2.38666,-2.93867 1.93733,-7.272 -1.00134,-9.65867 -0.82666,-0.672 -1.81066,-1.14667 -2.85466,-1.376 -0.46934,-0.10267 -0.956,-0.156 -1.43734,-0.156 h -0.0627 c -3.11734,0 -5.844,2.10267 -6.63067,5.10133 -0.0707,0.23867 -0.32667,0.37734 -0.56267,0.30667 -0.0787,-0.024 -0.14933,-0.0707 -0.17066,-0.0867 -0.0453,-0.0613 -0.06,-0.14 -0.032,-0.24133 0.86666,-3.63733 4.21066,-6.09067 7.92266,-5.828 4.07067,0.352 7.19334,3.82533 7.11334,7.92267 z"
       style="fill:#231f20;fill-opacity:1;fill-rule:nonzero;stroke:none;stroke-width:1.33333" />
    <path
       id="path81"
       d="m 699.94379,147.4077 c -1.01333,0 -1.83333,0.82133 -1.83333,1.83333 0,1.01334 0.82,1.83467 1.83333,1.83467 1.01333,0 1.83333,-0.82133 1.83333,-1.83467 0,-1.012 -0.82,-1.83333 -1.83333,-1.83333"
       style="fill:#231f20;fill-opacity:1;fill-rule:nonzero;stroke:none;stroke-width:1.33333" />
    <path
       id="path82"
       d="m 716.09779,78.767836 c -0.19867,-0.242667 -0.50133,-0.382667 -0.82933,-0.382667 h -15.36134 c -0.31066,0 -0.6,0.129333 -0.80933,0.36 -0.228,0.249333 -0.32133,0.590667 -0.25467,0.876 l 2.05334,13.332 c 0.15733,1.068 1.06266,1.846666 2.148,1.846666 h 9.08666 c 1.084,0 1.988,-0.774666 2.14934,-1.844 l 1.14133,-7.384 v -0.0027 l 0.912,-5.953333 c 0.0427,-0.304 -0.044,-0.613334 -0.236,-0.848 m -2.868,14.027999 c -0.084,0.544 -0.54533,0.94 -1.09867,0.94 h -9.08666 c -0.55334,0 -1.01467,-0.396 -1.096,-0.942666 l -2.04134,-13.344 15.37334,0.01067 z"
       style="fill:#231f20;fill-opacity:1;fill-rule:nonzero;stroke:none;stroke-width:1.33333" />
    <path
       id="path83"
       d="m 697.84593,84.296769 c 0,-0.03467 -0.0307,-0.05467 -0.036,-0.08667 l -0.184,-1.845333 c -0.184,-1.876 -1.736,-3.406667 -3.476,-3.442667 h -0.0267 -2.19866 V 58.606103 c 0,-0.606667 -0.476,-1.08 -1.08267,-1.08 -0.60667,0 -1.08267,0.473333 -1.08267,1.08 v 20.315999 h -1.65066 c -2.192,0 -3.872,1.413333 -4.084,3.44 l -1.00934,10.045333 c -0.0573,0.6 0.14267,1.209333 0.55067,1.678667 0.41067,0.456 0.99867,0.714666 1.61333,0.714666 h 11.29067 c 0.61467,0 1.204,-0.258666 1.61067,-0.714666 0.41066,-0.450667 0.61066,-1.064 0.552,-1.682667 l -0.80934,-8.054666 c 0.003,-0.02 0.0227,-0.032 0.0227,-0.052 m -9.73733,-4.309334 h 2.18266 c 0.296,0 0.532,-0.24 0.532,-0.533333 l 0.0347,-20.847999 v 20.847999 c 0,0.293333 0.23867,0.533333 0.532,0.533333 h 2.69867 c 1.07866,0 2.33066,0.997334 2.47733,2.484 l 0.12933,1.293334 H 684.9526 l 0.12933,-1.290667 c 0.15467,-1.465333 1.39867,-2.486667 3.02667,-2.486667 m 9.18266,13.386667 c -0.204,0.226666 -0.512,0.362666 -0.82133,0.362666 h -11.29067 c -0.31066,0 -0.61866,-0.136 -0.81733,-0.356 -0.212,-0.242666 -0.31733,-0.561333 -0.28667,-0.870666 l 0.77067,-7.681333 h 11.956 l 0.77067,7.677333 c 0.0307,0.321333 -0.0707,0.636 -0.28134,0.868"
       style="fill:#231f20;fill-opacity:1;fill-rule:nonzero;stroke:none;stroke-width:1.33333" />
    <path
       id="path84"
       d="m 708.54579,76.924902 c 0.48133,0 0.872,-0.390667 0.872,-0.872 0,-0.481334 -0.39067,-0.872 -0.872,-0.872 -0.48133,0 -0.872,0.390666 -0.872,0.872 0,0.481333 0.39067,0.872 0.872,0.872"
       style="fill:#231f20;fill-opacity:1;fill-rule:nonzero;stroke:none;stroke-width:1.33333" />
    <path
       id="path85"
       d="m 710.56873,73.991436 c 0.48133,0 0.872,-0.390667 0.872,-0.872 0,-0.481334 -0.39067,-0.872 -0.872,-0.872 -0.48133,0 -0.872,0.390666 -0.872,0.872 0,0.481333 0.39067,0.872 0.872,0.872"
       style="fill:#231f20;fill-opacity:1;fill-rule:nonzero;stroke:none;stroke-width:1.33333" />
    <path
       id="path86"
       d="m 714.14553,77.104902 c 0.48133,0 0.872,-0.390667 0.872,-0.872 0,-0.481334 -0.39067,-0.872 -0.872,-0.872 -0.48133,0 -0.872,0.390666 -0.872,0.872 0,0.481333 0.39067,0.872 0.872,0.872"
       style="fill:#231f20;fill-opacity:1;fill-rule:nonzero;stroke:none;stroke-width:1.33333" />
    <path
       id="path87"
       d="m 373.01379,208.28517 h -3.08667 -30.036 -3.088 c -0.29333,0 -0.532,0.23867 -0.532,0.532 0,0.29333 0.23867,0.532 0.532,0.532 h 2.55467 v 24.10266 c 0,3.27067 2.66267,5.93334 5.93467,5.93334 h 19.232 c 3.272,0 5.93466,-2.66267 5.93466,-5.93334 v -24.10266 h 2.55467 c 0.296,0 0.532,-0.23867 0.532,-0.532 0,-0.29333 -0.236,-0.532 -0.532,-0.532 m -8.48933,30.036 h -19.232 c -2.68534,0 -4.86934,-2.18667 -4.86934,-4.86934 V 213.2625 h 28.972 v 20.18933 c 0,2.68267 -2.18533,4.86934 -4.87066,4.86934 m 4.87066,-26.124 h -28.97066 v -2.848 h 28.97066 z"
       style="fill:#231f20;fill-opacity:1;fill-rule:nonzero;stroke:none;stroke-width:1.33333" />
    <path
       id="path88"
       d="m 354.91566,214.42917 c -0.53467,0 -0.96933,0.43333 -0.96933,0.96933 0,0.53334 0.43466,0.96667 0.96933,0.96667 0.53467,0 0.96933,-0.43333 0.96933,-0.96667 0,-0.536 -0.43466,-0.96933 -0.96933,-0.96933"
       style="fill:#231f20;fill-opacity:1;fill-rule:nonzero;stroke:none;stroke-width:1.33333" />
    <path
       id="path89"
       d="m 373.01379,271.3385 h -3.08667 -30.036 -3.088 c -0.29333,0 -0.532,0.23867 -0.532,0.532 0,0.29333 0.23867,0.532 0.532,0.532 h 2.55467 v 24.10266 c 0,1.03334 0.28933,1.99067 0.75733,2.83867 0.016,0.0213 0.0187,0.052 0.0387,0.072 1.02133,1.79467 2.92933,3.02267 5.13867,3.02267 h 19.232 c 2.20933,0 4.11733,-1.228 5.13866,-3.02267 0.0213,-0.02 0.0227,-0.0507 0.0387,-0.072 0.468,-0.848 0.75733,-1.80533 0.75733,-2.83867 V 272.4025 h 2.55467 c 0.296,0 0.532,-0.23867 0.532,-0.532 0,-0.29333 -0.236,-0.532 -0.532,-0.532 m -3.61867,25.16666 c 0,0.712 -0.164,1.38534 -0.44133,1.99734 h -28.09067 c -0.27733,-0.612 -0.44,-1.28534 -0.44,-1.99734 v -4.16933 h 28.972 z m -28.972,-12.28133 h 28.96934 v 7.048 h -28.96934 z m 28.972,-1.06533 h -28.97066 v -6.84133 h 28.97066 z m -4.87066,18.216 h -19.232 c -1.52,0 -2.86134,-0.71334 -3.75334,-1.808 h 26.73867 c -0.892,1.09466 -2.23333,1.808 -3.75333,1.808 m 4.87066,-26.124 h -28.97066 v -2.848 h 28.97066 z"
       style="fill:#231f20;fill-opacity:1;fill-rule:nonzero;stroke:none;stroke-width:1.33333" />
    <path
       id="path90"
       d="m 355.54073,297.63837 c 0.53467,0 0.96933,-0.43333 0.96933,-0.96933 0,-0.53334 -0.43466,-0.96667 -0.96933,-0.96667 -0.53467,0 -0.96933,0.43333 -0.96933,0.96667 0,0.536 0.43466,0.96933 0.96933,0.96933"
       style="fill:#231f20;fill-opacity:1;fill-rule:nonzero;stroke:none;stroke-width:1.33333" />
    <path
       id="path91"
       d="m 188.02259,234.1429 c -0.79733,-1.11067 -1.24667,-1.61867 -1.544,-1.952 -0.27867,-0.316 -0.39467,-0.44533 -0.576,-0.824 -0.56667,-1.16667 -0.704,-2.55067 -0.41333,-4.112 0.0547,-0.29333 -0.13734,-0.57733 -0.432,-0.632 -0.28534,-0.0547 -0.57467,0.14 -0.62934,0.43333 -0.336,1.79467 -0.16666,3.40534 0.50134,4.78267 0.24933,0.512 0.44533,0.732 0.74266,1.068 0.28267,0.32 0.708,0.79867 1.472,1.86533 1.49334,2.07734 1.892,3.08134 2.076,4.11467 0.0773,0.44133 0.1,0.81067 0.10534,1.05867 0.007,0.29333 0.24666,0.528 0.54,0.528 h 0.012 c 0.3,-0.007 0.53466,-0.256 0.528,-0.55334 -0.009,-0.412 -0.0507,-0.82266 -0.12267,-1.224 -0.24533,-1.38133 -0.83733,-2.57333 -2.26,-4.55333"
       style="fill:#231f20;fill-opacity:1;fill-rule:nonzero;stroke:none;stroke-width:1.33333" />
    <path
       id="path92"
       d="m 193.34726,233.37517 c -1.008,-1.40667 -1.576,-2.04533 -1.952,-2.47067 -0.35467,-0.396 -0.516,-0.576 -0.75733,-1.07733 -0.732,-1.50933 -0.912,-3.3 -0.536,-5.31867 0.0547,-0.29333 -0.13734,-0.57733 -0.43067,-0.632 -0.29333,-0.052 -0.57467,0.13867 -0.62933,0.43334 -0.42,2.24933 -0.21067,4.26666 0.62533,5.99066 0.30533,0.63067 0.536,0.892 0.92,1.32267 0.36,0.40667 0.90667,1.02 1.88133,2.38133 1.68934,2.35467 2.388,3.74 2.66267,5.292 0.0813,0.45067 0.128,0.91067 0.13733,1.36534 0.007,0.29333 0.248,0.528 0.54134,0.528 h 0.009 c 0.3,-0.005 0.536,-0.252 0.53067,-0.552 -0.012,-0.50934 -0.0627,-1.02534 -0.15467,-1.532 -0.30667,-1.72934 -1.052,-3.228 -2.848,-5.73067"
       style="fill:#231f20;fill-opacity:1;fill-rule:nonzero;stroke:none;stroke-width:1.33333" />
    <path
       id="path93"
       d="m 199.03006,233.1285 c -0.79733,-1.11067 -1.248,-1.61867 -1.54533,-1.952 -0.27734,-0.31333 -0.39334,-0.44267 -0.57467,-0.82133 -0.56667,-1.16934 -0.70667,-2.55334 -0.41333,-4.11467 0.0547,-0.29333 -0.13734,-0.57733 -0.43067,-0.632 -0.28267,-0.056 -0.57467,0.14 -0.62933,0.43333 -0.336,1.792 -0.168,3.40534 0.5,4.78667 0.24933,0.50933 0.44266,0.73067 0.74266,1.064 0.28134,0.31733 0.708,0.79867 1.472,1.86533 1.496,2.084 1.89467,3.08534 2.076,4.11467 0.0787,0.44267 0.10134,0.81067 0.10534,1.05867 0.008,0.29333 0.24933,0.528 0.54,0.528 h 0.012 c 0.3,-0.007 0.536,-0.256 0.528,-0.55334 -0.008,-0.41066 -0.0507,-0.82266 -0.12267,-1.224 -0.24267,-1.37466 -0.836,-2.56933 -2.26,-4.55333"
       style="fill:#231f20;fill-opacity:1;fill-rule:nonzero;stroke:none;stroke-width:1.33333" />
    <path
       id="path94"
       d="m 201.38286,219.87984 c -0.0853,-2.23733 -1.20133,-4.29733 -3.07467,-5.54133 l -11,-7.336 c -0.80933,-0.54 -1.644,-0.904 -2.488,-1.084 -1.964,-0.404 -3.79466,-0.016 -5.35066,1.016 l -11.10534,7.40666 c -1.944,1.29067 -3.10533,3.45734 -3.10533,5.79734 v 15.38533 c 0,3.52 2.86533,6.38533 6.38533,6.38533 h 11.69334 c 0.29866,0 0.54,-0.24267 0.54,-0.54 0,-0.29733 -0.24134,-0.54133 -0.54,-0.54133 h -11.69334 c -2.92533,0 -5.304,-2.37867 -5.304,-5.304 v -15.38533 c 0,-1.97867 0.97867,-3.80934 2.624,-4.9 l 11.10534,-7.404 c 1.316,-0.876 2.85333,-1.20134 4.53066,-0.86 0.704,0.15066 1.41334,0.464 2.108,0.92666 l 11.00534,7.33734 c 1.572,1.044 2.512,2.77466 2.59066,4.65333 -0.63333,0.23467 -1.09066,0.832 -1.09066,1.54533 0,0.91734 0.74533,1.65867 1.66133,1.65867 0.91467,0 1.65867,-0.74133 1.65867,-1.65867 0,-0.736 -0.48667,-1.33866 -1.15067,-1.55733"
       style="fill:#231f20;fill-opacity:1;fill-rule:nonzero;stroke:none;stroke-width:1.33333" />
    <path
       id="path95"
       d="m 184.33459,301.56904 c -0.78933,0 -1.416,0.58267 -1.54933,1.33333 -0.0187,-0.003 -0.0307,-0.0187 -0.0493,-0.0187 h -11.296 c -2.82,0 -5.116,-2.296 -5.116,-5.11734 V 282.901 c 0,-1.90667 0.94667,-3.672 2.53067,-4.724 l 10.72933,-7.16 c 1.26534,-0.84 2.716,-1.15867 4.37067,-0.82533 0.68,0.144 1.36533,0.44533 2.03467,0.892 l 10.63333,7.09333 c 1.584,1.052 2.52933,2.81733 2.52933,4.724 0,0.29333 0.236,0.532 0.532,0.532 0.29334,0 0.532,-0.23867 0.532,-0.532 0,-2.264 -1.12266,-4.36 -3.00666,-5.612 l -10.63067,-7.08933 c -0.78133,-0.52134 -1.59067,-0.876 -2.408,-1.04934 -1.96,-0.39333 -3.68,-0.0147 -5.17733,0.98267 l -10.72934,7.15733 c -1.88133,1.25067 -3.004,3.34667 -3.004,5.61067 v 14.86533 c 0,3.408 2.77334,6.18134 6.18,6.18134 h 11.296 c 0.0667,0 0.11334,-0.048 0.172,-0.0707 0.264,0.528 0.79734,0.90267 1.42667,0.90267 0.884,0 1.604,-0.72 1.604,-1.60667 0,-0.884 -0.72,-1.604 -1.604,-1.604"
       style="fill:#231f20;fill-opacity:1;fill-rule:nonzero;stroke:none;stroke-width:1.33333" />
    <path
       id="path96"
       d="m 202.00179,291.64744 h -2.928 l 1.63067,-1.96 c 0.18933,-0.22667 0.15866,-0.56267 -0.068,-0.75067 -0.22267,-0.188 -0.55867,-0.156 -0.75067,0.068 l -2.19733,2.64267 h -3.32 c 0.008,-0.0347 0.0387,-0.056 0.0387,-0.0907 v -3.812 l 2.64267,-2.19866 c 0.22667,-0.19067 0.256,-0.524 0.068,-0.75067 -0.188,-0.228 -0.524,-0.25733 -0.75067,-0.0693 l -1.96,1.63066 v -2.92666 c 0,-0.29334 -0.236,-0.532 -0.532,-0.532 -0.29333,0 -0.532,0.23866 -0.532,0.532 v 2.92666 l -1.96,-1.63066 c -0.22266,-0.188 -0.56,-0.15867 -0.75066,0.0693 -0.18667,0.22667 -0.156,0.56 0.0707,0.75067 l 2.64,2.19466 v 3.816 c 0,0.0347 0.0307,0.056 0.0387,0.0907 h -3.31733 l -2.2,-2.64267 c -0.18934,-0.224 -0.524,-0.256 -0.748,-0.068 -0.22667,0.188 -0.25734,0.524 -0.0693,0.75067 l 1.63067,1.96 h -2.92667 c -0.296,0 -0.532,0.23867 -0.532,0.532 0,0.29333 0.236,0.532 0.532,0.532 h 2.92667 l -1.63067,1.96 c -0.188,0.22667 -0.15733,0.56267 0.0693,0.75067 0.0987,0.0827 0.21866,0.124 0.34,0.124 0.15333,0 0.30266,-0.0653 0.408,-0.192 l 2.2,-2.64267 h 3.27866 v 3.28 l -2.64266,2.19867 c -0.224,0.19066 -0.25467,0.524 -0.068,0.75066 0.10666,0.12667 0.25733,0.192 0.41066,0.192 0.11867,0 0.24,-0.04 0.34,-0.124 l 1.96,-1.63066 v 2.92533 c 0,0.29333 0.23867,0.53467 0.532,0.53467 0.296,0 0.532,-0.24134 0.532,-0.53467 v -2.92667 l 1.96267,1.632 c 0.0987,0.084 0.21867,0.124 0.34,0.124 0.152,0 0.30267,-0.0653 0.408,-0.192 0.188,-0.22666 0.15867,-0.56 -0.068,-0.75066 l -2.64267,-2.19734 v -3.28133 h 3.28134 l 2.19733,2.64267 c 0.10667,0.12666 0.25733,0.192 0.41067,0.192 0.11866,0 0.24,-0.0413 0.34,-0.124 0.22666,-0.188 0.25733,-0.524 0.068,-0.75067 l -1.63067,-1.96 h 2.928 c 0.296,0 0.532,-0.23867 0.532,-0.532 0,-0.29333 -0.236,-0.532 -0.532,-0.532"
       style="fill:#231f20;fill-opacity:1;fill-rule:nonzero;stroke:none;stroke-width:1.33333" />
    <path
       id="path97"
       d="m 286.04113,218.04917 c -0.504,0.26533 -0.85733,0.77733 -0.85733,1.38533 0,0.876 0.70933,1.58667 1.584,1.58667 0.876,0 1.58533,-0.71067 1.58533,-1.58667 0,-0.74266 -0.52133,-1.33733 -1.20933,-1.50933 -0.42267,-1.65067 -1.43867,-3.10533 -2.89334,-4.072 l -11.044,-7.36533 c -0.81066,-0.54267 -1.652,-0.90934 -2.496,-1.08934 -1.96666,-0.404 -3.80133,-0.0173 -5.36933,1.02 l -11.14667,7.43734 c -1.952,1.29466 -3.116,3.46666 -3.116,5.81333 v 15.444 c 0,3.53466 2.87467,6.40933 6.408,6.40933 h 11.73467 c 0.3,0 0.54,-0.24267 0.54,-0.54 0,-0.29733 -0.24,-0.54 -0.54,-0.54 h -11.73467 c -2.93866,0 -5.32666,-2.38933 -5.32666,-5.32933 v -15.444 c 0,-1.984 0.98266,-3.82133 2.632,-4.916 l 11.148,-7.436 c 1.32533,-0.87867 2.86933,-1.204 4.55066,-0.86267 0.70534,0.15067 1.41734,0.46534 2.11734,0.93067 l 11.04666,7.368 c 1.18267,0.788 2.00667,1.96267 2.38667,3.296"
       style="fill:#231f20;fill-opacity:1;fill-rule:nonzero;stroke:none;stroke-width:1.33333" />
    <path
       id="path98"
       d="m 287.39859,231.0265 c -0.003,-0.003 -0.004,-0.003 -0.007,-0.004 -0.33066,-0.148 -2.23733,-1.092 -2.82,-1.38133 -0.23466,-0.50267 -0.928,-1.99067 -1.32,-2.87734 -0.30266,-0.67733 -0.62,-1.14266 -1.08533,-1.392 0.0933,0.0107 0.176,0.0547 0.27333,0.0547 1.416,0 2.568,-1.15067 2.568,-2.56667 0,-1.416 -1.152,-2.568 -2.568,-2.568 -1.416,0 -2.56666,1.152 -2.56666,2.568 0,1.01867 0.608,1.88534 1.472,2.3 -10e-4,0 -0.004,-0.003 -0.005,-0.003 h -0.98933 c -0.57333,0 -0.88667,0.19333 -1.13867,0.348 l -2.83333,2.372 c -0.34533,0.196 -0.588,0.50933 -0.74,1.00933 l -0.576,3.86133 c -0.10533,0.79334 0.30133,1.40267 1.03333,1.548 0.32134,0.0747 0.67734,0 0.95867,-0.18266 0.26667,-0.172 0.45067,-0.44 0.51867,-0.75867 0.06,-0.29867 0.456,-2.60133 0.58,-3.31333 l 0.42133,-0.32134 c -0.172,0.83067 -0.31867,1.55734 -0.37867,1.87867 -0.184,0.94667 0.2,1.66533 0.536,2.188 -0.11733,-0.12667 -0.27866,-0.20533 -0.45733,-0.184 -0.212,0.032 -0.38667,0.184 -0.44533,0.388 l -0.78267,2.76133 c -0.28533,0.412 -1.68533,2.436 -2.10533,3.04667 -0.88267,1.292 -0.31467,2.01733 0.10666,2.332 0.28267,0.21733 0.55467,0.29733 0.80534,0.29733 0.68133,0 1.224,-0.612 1.49066,-0.91733 0.204,-0.23067 0.72,-0.93067 1.22,-1.60933 0.33334,-0.45334 0.644,-0.87334 0.79734,-1.06534 0.244,-0.31333 0.416,-0.612 0.56666,-0.976 0.0667,-0.17733 0.24667,-0.66133 0.41867,-1.13466 0.056,-0.15334 0.0387,-0.32534 -0.0493,-0.46667 l -0.51734,-0.83733 c 1.69867,2.65733 3.524,5.504 3.888,5.98 0.23467,0.30533 0.76534,0.99333 1.568,0.99333 0.25467,0 0.536,-0.0707 0.844,-0.24133 0.336,-0.188 0.564,-0.48 0.66267,-0.84134 0.13067,-0.47733 0.0253,-1.06 -0.28667,-1.592 -0.308,-0.52666 -3.544,-5.792 -4.216,-6.88666 l 0.34134,-1.46667 v 0.001 c 0.19466,0.296 0.41066,0.41334 0.73866,0.59334 0.45334,0.24933 2.71334,1.27066 2.74,1.28 0.89734,0.39866 1.664,0.26 2.00667,-0.356 0.168,-0.29734 0.20133,-0.65067 0.0933,-0.98667 -0.12,-0.37867 -0.41333,-0.712 -0.76133,-0.872 m -4.95867,-9.65333 c 0.82,0 1.48667,0.66533 1.48667,1.48666 0,0.82134 -0.66667,1.48667 -1.48667,1.48667 -0.81866,0 -1.48666,-0.66533 -1.48666,-1.48667 0,-0.82133 0.668,-1.48666 1.48666,-1.48666 m -3.51733,16.088 c -0.08,0.19466 -0.18267,0.41333 -0.40933,0.70266 -0.156,0.196 -0.47467,0.63067 -0.81867,1.096 -0.44,0.59734 -0.988,1.34 -1.19867,1.57867 -0.52,0.588 -0.63466,0.556 -0.79866,0.43333 -0.11867,-0.092 -0.3,-0.22533 0.136,-0.86 0.46666,-0.68266 2.152,-3.11733 2.152,-3.11733 0.0347,-0.0493 0.0613,-0.104 0.0773,-0.16267 l 0.47333,-1.66933 0.70534,1.14133 c -0.13867,0.376 -0.26667,0.72267 -0.31867,0.85734 m 8.19467,-5.09734 c -0.0307,0.0227 -0.24667,0.0547 -0.61867,-0.10666 -0.72667,-0.33067 -2.33467,-1.06534 -2.65867,-1.24267 -0.29466,-0.16133 -0.31733,-0.18267 -0.34933,-0.23333 -0.24267,-0.38 -0.71467,-1.052 -0.71467,-1.052 -0.124,-0.17334 -0.328,-0.25867 -0.54666,-0.22 -0.208,0.04 -0.37334,0.2 -0.42267,0.40933 l -0.66667,2.888 c -0.0333,0.14 -0.0107,0.28533 0.064,0.40533 0.04,0.064 3.98934,6.488 4.31867,7.052 0.16,0.27334 0.23067,0.572 0.17867,0.76267 -0.0227,0.0827 -0.0667,0.13733 -0.148,0.184 -0.29734,0.16533 -0.49067,0.22667 -1.02934,-0.46933 -0.368,-0.48 -2.65866,-4.06 -3.88666,-5.984 -0.45467,-0.71067 -0.78667,-1.228 -0.868,-1.352 -0.29867,-0.44934 -0.63867,-0.956 -0.51334,-1.60134 0.0947,-0.496 0.38667,-1.95733 0.676,-3.28933 0.048,-0.22133 -0.0493,-0.44933 -0.23866,-0.56933 -0.0893,-0.056 -0.188,-0.0853 -0.28934,-0.0853 -0.116,0 -0.23333,0.0387 -0.33066,0.112 l -1.74534,1.34134 c -0.10666,0.0827 -0.18,0.20266 -0.204,0.33733 0,0 -0.53866,3.14267 -0.656,3.55733 -0.048,0.032 -0.11866,0.0413 -0.15333,0.032 -0.12,-0.024 -0.22267,-0.044 -0.184,-0.34 l 0.556,-3.76933 c 0.0627,-0.2 0.152,-0.27333 0.30933,-0.37333 l 2.592,-2.21734 0.18934,-0.11333 c 0.20266,-0.124 0.30666,-0.188 0.57333,-0.188 h 0.98933 c 0.30934,0 0.49734,0 0.924,0.964 0.48,1.08533 1.41067,3.068 1.41067,3.068 0.052,0.108 0.13867,0.2 0.248,0.252 0,0 2.608,1.29733 3.02267,1.48533 0.0667,0.028 0.15333,0.11467 0.18666,0.21867 z"
       style="fill:#231f20;fill-opacity:1;fill-rule:nonzero;stroke:none;stroke-width:1.33333" />
    <path
       id="path99"
       d="m 285.16113,277.1073 -11.36133,-7.576 -0.10534,-0.0707 c -0.71866,-0.47733 -1.49066,-0.80133 -2.30666,-0.99733 -0.0507,-0.012 -0.0987,-0.0387 -0.14934,-0.0493 -0.004,0 -0.008,0 -0.012,-0.001 -0.44666,-0.096 -0.90666,-0.14133 -1.38133,-0.148 -0.0347,0 -0.0707,-0.008 -0.108,-0.0107 -0.13867,0.003 -0.28933,0.0333 -0.432,0.0413 -0.36133,0.02 -0.72133,0.0427 -1.06667,0.11467 -0.0187,0.004 -0.0347,0.003 -0.0547,0.007 -0.168,0.036 -0.33334,0.11334 -0.50134,0.16134 -0.25733,0.0787 -0.52,0.144 -0.76666,0.24933 -0.128,0.056 -0.24934,0.13867 -0.37734,0.20133 -0.268,0.136 -0.544,0.26 -0.8,0.432 l -0.0973,0.064 -0.012,0.007 c 0,0 0,10e-4 -0.003,10e-4 l -11.35466,7.57467 c -2.00134,1.32933 -3.19467,3.55867 -3.19467,5.964 v 15.88533 c 0,3.61867 2.94667,6.564 6.568,6.564 h 24.14133 c 3.62,0 6.56667,-2.94533 6.56667,-6.564 V 283.0713 c 0,-2.40533 -1.19333,-4.63467 -3.192,-5.964 m 2.12667,21.84933 c 0,3.032 -2.468,5.5 -5.50134,5.5 h -24.14133 c -3.036,0 -5.50267,-2.468 -5.50267,-5.5 V 283.0713 c 0,-2.04933 1.016,-3.94667 2.71734,-5.07733 l 11.36133,-7.57734 h 0.003 c 0.28133,-0.18933 0.56666,-0.33333 0.85333,-0.47333 0.0853,-0.0427 0.164,-0.0973 0.24933,-0.13333 0.22,-0.0973 0.44,-0.152 0.66134,-0.216 0.15333,-0.0467 0.30266,-0.108 0.46266,-0.14134 0.35067,-0.0667 0.688,-0.096 1.02134,-0.10933 0.0813,-0.004 0.15866,-0.0227 0.24133,-0.0227 0.12,0 0.228,0.024 0.34533,0.0307 0.304,0.0173 0.60934,0.0387 0.92534,0.10133 0.13333,0.028 0.25866,0.08 0.39066,0.11867 0.24667,0.0707 0.49334,0.13333 0.74,0.24133 0.044,0.02 0.0853,0.0507 0.12934,0.0707 0.324,0.14933 0.648,0.32 0.96533,0.53333 l 11.36133,7.57734 c 1.704,1.13066 2.71734,3.028 2.71734,5.07733 z"
       style="fill:#231f20;fill-opacity:1;fill-rule:nonzero;stroke:none;stroke-width:1.33333" />
    <path
       id="path100"
       d="m 273.06126,281.65037 c -0.524,-0.22 -1.07867,-0.33333 -1.65067,-0.33333 h -1.11866 c 1.368,-0.29334 2.39733,-1.50934 2.39733,-2.96667 0,-1.672 -1.36133,-3.036 -3.03733,-3.036 -1.67467,0 -3.036,1.364 -3.036,3.036 0,1.45733 1.02933,2.67333 2.39466,2.96667 h -0.73333 c -0.57333,0 -1.128,0.11333 -1.65067,0.33333 -0.116,0.048 -0.19466,0.14133 -0.252,0.24933 -0.35733,0.388 -1.81866,2.04667 -1.81866,3.44267 v 4.91867 c 0,0.772 0.632,1.404 1.404,1.404 0.12,0 0.22933,-0.0413 0.34266,-0.0693 v 7.95467 c 0,1.00266 0.81734,1.82 1.82,1.82 0.82534,0 1.49734,-0.56 1.72,-1.312 0.224,0.752 0.896,1.312 1.72,1.312 1.00534,0 1.82267,-0.81734 1.82267,-1.82 v -7.95333 c 0.12533,0.0373 0.248,0.0773 0.38267,0.0773 0.77466,0 1.404,-0.63067 1.404,-1.40533 v -4.916 c 0,-1.39067 -1.47734,-3.03867 -1.856,-3.44 -0.0547,-0.11334 -0.13467,-0.212 -0.25467,-0.26267 m -5.38133,-3.3 c 0,-1.088 0.884,-1.97067 1.972,-1.97067 1.08666,0 1.97333,0.88267 1.97333,1.97067 0,1.08667 -0.88667,1.97333 -1.97333,1.97333 -1.088,0 -1.972,-0.88666 -1.972,-1.97333 m -1.72,12.248 c -0.18534,0 -0.33734,-0.152 -0.33734,-0.33733 v -4.91867 c 0,-0.45067 0.304,-1.06267 0.68,-1.628 v 6.57867 c 0,0.144 -0.14533,0.30533 -0.34266,0.30533 m 5.60266,9.708 c -0.41866,0 -0.75733,-0.33734 -0.75733,-0.756 v -7.752 c 0,-0.53067 -0.432,-0.95867 -0.96267,-0.95867 -0.53066,0 -0.96133,0.428 -0.96133,0.95867 v 7.752 c 0,0.41866 -0.34,0.756 -0.75867,0.756 -0.41866,0 -0.756,-0.33734 -0.756,-0.756 v -9.25733 -7.77867 c 0.29334,-0.0893 0.59867,-0.132 0.91067,-0.132 h 3.13333 c 0.312,0 0.61734,0.0427 0.91067,0.132 v 17.036 c 0,0.41866 -0.34,0.756 -0.75867,0.756 m 2.544,-10.03733 c 0,0.188 -0.15066,0.34133 -0.33866,0.34133 -0.19734,0 -0.36534,-0.172 -0.38267,-0.34133 v -6.57734 c 0.38267,0.552 0.72133,1.18134 0.72133,1.66134 z"
       style="fill:#231f20;fill-opacity:1;fill-rule:nonzero;stroke:none;stroke-width:1.33333" />
    <path
       id="path101"
       d="m 459.45846,208.28517 h -3.08667 -30.036 -3.088 c -0.29333,0 -0.532,0.23867 -0.532,0.532 0,0.29333 0.23867,0.532 0.532,0.532 h 2.556 v 24.1 c 0,3.10133 2.396,5.62533 5.43067,5.884 0.0307,0.005 0.0507,0.0347 0.0813,0.0347 0.02,0 0.032,-0.0187 0.0507,-0.0213 0.12533,0.008 0.24267,0.0373 0.37067,0.0373 h 19.232 c 3.272,0 5.93466,-2.66133 5.93466,-5.93466 v -24.1 h 2.55467 c 0.296,0 0.532,-0.23867 0.532,-0.532 0,-0.29333 -0.236,-0.532 -0.532,-0.532 m -32.59067,25.164 v -24.1 h 3.916 v 28.87466 c -2.22933,-0.44533 -3.916,-2.41466 -3.916,-4.77466 m 28.972,0 c 0,2.68533 -2.18533,4.87066 -4.87066,4.87066 h -19.11867 v -28.97066 h 23.98933 z"
       style="fill:#231f20;fill-opacity:1;fill-rule:nonzero;stroke:none;stroke-width:1.33333" />
    <path
       id="path102"
       d="m 433.61606,224.61064 c 0.53467,0 0.96933,-0.43333 0.96933,-0.96933 0,-0.53334 -0.43466,-0.96667 -0.96933,-0.96667 -0.53467,0 -0.96933,0.43333 -0.96933,0.96667 0,0.536 0.43466,0.96933 0.96933,0.96933"
       style="fill:#231f20;fill-opacity:1;fill-rule:nonzero;stroke:none;stroke-width:1.33333" />
    <path
       id="path103"
       d="m 459.45846,271.3385 h -3.08667 -30.036 -3.088 c -0.29333,0 -0.532,0.23867 -0.532,0.532 0,0.29333 0.23867,0.532 0.532,0.532 h 2.556 v 24.10266 c 0,3.27067 2.66134,5.93334 5.93334,5.93334 h 19.232 c 0.128,0 0.24533,-0.0307 0.37066,-0.0387 0.0187,0.003 0.0307,0.0227 0.0507,0.0227 0.032,0 0.0533,-0.0307 0.0827,-0.0347 3.03333,-0.26 5.43066,-2.784 5.43066,-5.88267 V 272.4025 h 2.55467 c 0.296,0 0.532,-0.23867 0.532,-0.532 0,-0.29333 -0.236,-0.532 -0.532,-0.532 m -32.59067,25.16666 V 272.4025 h 23.99067 v 28.972 h -19.12133 c -2.68534,0 -4.86934,-2.18667 -4.86934,-4.86934 m 28.972,0 c 0,2.35734 -1.688,4.32667 -3.91733,4.772 V 272.4025 h 3.91733 z"
       style="fill:#231f20;fill-opacity:1;fill-rule:nonzero;stroke:none;stroke-width:1.33333" />
    <path
       id="path104"
       d="m 449.09033,285.72744 c -0.53467,0 -0.96933,0.43333 -0.96933,0.96933 0,0.53334 0.43466,0.96667 0.96933,0.96667 0.53467,0 0.96933,-0.43333 0.96933,-0.96667 0,-0.536 -0.43466,-0.96933 -0.96933,-0.96933"
       style="fill:#231f20;fill-opacity:1;fill-rule:nonzero;stroke:none;stroke-width:1.33333" />
    <path
       id="path105"
       d="m 546.28753,271.3385 h -3.08667 -30.036 -3.088 c -0.29333,0 -0.532,0.23867 -0.532,0.532 0,0.29333 0.23867,0.532 0.532,0.532 h 2.556 v 24.10266 c 0,3.27067 2.66134,5.93334 5.93334,5.93334 h 19.232 c 3.272,0 5.93466,-2.66267 5.93466,-5.93334 V 272.4025 h 2.55467 c 0.29333,0 0.532,-0.23867 0.532,-0.532 0,-0.29333 -0.23867,-0.532 -0.532,-0.532 m -3.61867,25.16666 c 0,2.68267 -2.18533,4.86934 -4.87066,4.86934 h -19.232 c -2.68534,0 -4.86934,-2.18667 -4.86934,-4.86934 V 272.4025 h 28.972 z"
       style="fill:#231f20;fill-opacity:1;fill-rule:nonzero;stroke:none;stroke-width:1.33333" />
    <path
       id="path106"
       d="m 528.07606,298.65384 c -0.53467,0 -0.96933,0.43333 -0.96933,0.96933 0,0.53334 0.43466,0.96667 0.96933,0.96667 0.53467,0 0.96933,-0.43333 0.96933,-0.96667 0,-0.536 -0.43466,-0.96933 -0.96933,-0.96933"
       style="fill:#231f20;fill-opacity:1;fill-rule:nonzero;stroke:none;stroke-width:1.33333" />
    <path
       id="path107"
       d="m 514.88579,278.31197 h 26.648 c 0.29333,0 0.532,-0.23867 0.532,-0.532 v -2.97333 c 0,-0.29334 -0.23867,-0.53334 -0.532,-0.53334 h -26.648 c -0.29333,0 -0.532,0.24 -0.532,0.53334 v 2.97333 c 0,0.29333 0.23867,0.532 0.532,0.532 m 0.532,-2.97333 h 25.584 v 1.908 h -25.584 z"
       style="fill:#231f20;fill-opacity:1;fill-rule:nonzero;stroke:none;stroke-width:1.33333" />
    <path
       id="path108"
       d="m 514.88579,282.83837 h 26.648 c 0.29333,0 0.532,-0.23867 0.532,-0.532 v -2.976 c 0,-0.29333 -0.23867,-0.532 -0.532,-0.532 h -26.648 c -0.29333,0 -0.532,0.23867 -0.532,0.532 v 2.976 c 0,0.29333 0.23867,0.532 0.532,0.532 m 0.532,-2.976 h 25.584 v 1.912 h -25.584 z"
       style="fill:#231f20;fill-opacity:1;fill-rule:nonzero;stroke:none;stroke-width:1.33333" />
    <path
       id="path109"
       d="m 514.88579,287.87997 h 26.648 c 0.29333,0 0.532,-0.23867 0.532,-0.532 v -2.97333 c 0,-0.29334 -0.23867,-0.532 -0.532,-0.532 h -26.648 c -0.29333,0 -0.532,0.23866 -0.532,0.532 v 2.97333 c 0,0.29333 0.23867,0.532 0.532,0.532 m 0.532,-2.97333 h 25.584 v 1.908 h -25.584 z"
       style="fill:#231f20;fill-opacity:1;fill-rule:nonzero;stroke:none;stroke-width:1.33333" />
    <path
       id="path110"
       d="m 514.88579,292.4065 h 26.648 c 0.29333,0 0.532,-0.23867 0.532,-0.532 v -2.976 c 0,-0.29333 -0.23867,-0.532 -0.532,-0.532 h -26.648 c -0.29333,0 -0.532,0.23867 -0.532,0.532 v 2.976 c 0,0.29333 0.23867,0.532 0.532,0.532 m 0.532,-2.976 h 25.584 v 1.912 h -25.584 z"
       style="fill:#231f20;fill-opacity:1;fill-rule:nonzero;stroke:none;stroke-width:1.33333" />
    <path
       id="path111"
       d="m 514.88579,297.45277 h 26.648 c 0.29333,0 0.532,-0.23867 0.532,-0.532 v -2.976 c 0,-0.29333 -0.23867,-0.532 -0.532,-0.532 h -26.648 c -0.29333,0 -0.532,0.23867 -0.532,0.532 v 2.976 c 0,0.29333 0.23867,0.532 0.532,0.532 m 0.532,-2.976 h 25.584 v 1.90933 h -25.584 z"
       style="fill:#231f20;fill-opacity:1;fill-rule:nonzero;stroke:none;stroke-width:1.33333" />
    <path
       id="path112"
       d="m 546.28753,208.28517 h -3.08667 -30.036 -3.088 c -0.29333,0 -0.532,0.23867 -0.532,0.532 0,0.29333 0.23867,0.532 0.532,0.532 h 2.556 v 24.10266 c 0,3.27067 2.66134,5.93334 5.93334,5.93334 h 19.232 c 3.272,0 5.93466,-2.66267 5.93466,-5.93334 v -24.10266 h 2.55467 c 0.29333,0 0.532,-0.23867 0.532,-0.532 0,-0.29333 -0.23867,-0.532 -0.532,-0.532 m -8.48933,30.036 h -19.232 c -1.66,0 -3.124,-0.84 -4.004,-2.10934 0.0907,0.072 0.196,0.13334 0.324,0.13334 h 26.64533 c 0.0947,0 0.16533,-0.0573 0.24267,-0.10134 -0.88267,1.252 -2.33067,2.07734 -3.976,2.07734 m -22.38,-3.392 h 25.58133 v 0.352 H 515.4182 Z m 27.25066,-1.47734 c 0,0.836 -0.23333,1.61067 -0.60533,2.29867 v -1.35333 c 0,-0.29334 -0.23733,-0.532 -0.532,-0.532 H 514.8862 c -0.296,0 -0.53467,0.23866 -0.53467,0.532 v 1.416 c 0,0.0547 0.0453,0.0907 0.0587,0.13866 -0.44267,-0.73333 -0.71334,-1.584 -0.71334,-2.5 v -24.10266 h 28.972 z"
       style="fill:#231f20;fill-opacity:1;fill-rule:nonzero;stroke:none;stroke-width:1.33333" />
    <path
       id="path113"
       d="m 528.07606,212.72104 c 0.53467,0 0.96933,-0.43333 0.96933,-0.96933 0,-0.53334 -0.43466,-0.96667 -0.96933,-0.96667 -0.53467,0 -0.96933,0.43333 -0.96933,0.96667 0,0.536 0.43466,0.96933 0.96933,0.96933"
       style="fill:#231f20;fill-opacity:1;fill-rule:nonzero;stroke:none;stroke-width:1.33333" />
    <path
       id="path114"
       d="m 514.88579,216.0113 h 26.648 c 0.29333,0 0.532,-0.23867 0.532,-0.532 v -1.416 c 0,-0.29333 -0.23867,-0.532 -0.532,-0.532 h -26.648 c -0.29333,0 -0.532,0.23867 -0.532,0.532 v 1.416 c 0,0.29333 0.23867,0.532 0.532,0.532 m 0.532,-1.416 h 25.58133 v 0.352 h -25.58133 z"
       style="fill:#231f20;fill-opacity:1;fill-rule:nonzero;stroke:none;stroke-width:1.33333" />
    <path
       id="path115"
       d="m 514.88579,220.9369 h 26.648 c 0.29333,0 0.532,-0.23867 0.532,-0.532 v -1.416 c 0,-0.29333 -0.23867,-0.532 -0.532,-0.532 h -26.648 c -0.29333,0 -0.532,0.23867 -0.532,0.532 v 1.416 c 0,0.29333 0.23867,0.532 0.532,0.532 m 0.532,-1.416 h 25.58133 v 0.352 h -25.58133 z"
       style="fill:#231f20;fill-opacity:1;fill-rule:nonzero;stroke:none;stroke-width:1.33333" />
    <path
       id="path116"
       d="m 514.88579,226.00584 h 26.648 c 0.29333,0 0.532,-0.23867 0.532,-0.532 v -1.416 c 0,-0.29333 -0.23867,-0.532 -0.532,-0.532 h -26.648 c -0.29333,0 -0.532,0.23867 -0.532,0.532 v 1.416 c 0,0.29333 0.23867,0.532 0.532,0.532 m 0.532,-1.416 h 25.58133 v 0.352 h -25.58133 z"
       style="fill:#231f20;fill-opacity:1;fill-rule:nonzero;stroke:none;stroke-width:1.33333" />
    <path
       id="path117"
       d="m 514.88579,230.93357 h 26.648 c 0.29333,0 0.532,-0.23867 0.532,-0.532 v -1.416 c 0,-0.29333 -0.23867,-0.532 -0.532,-0.532 h -26.648 c -0.29333,0 -0.532,0.23867 -0.532,0.532 v 1.416 c 0,0.29333 0.23867,0.532 0.532,0.532 m 0.532,-1.416 h 25.58133 v 0.352 h -25.58133 z"
       style="fill:#231f20;fill-opacity:1;fill-rule:nonzero;stroke:none;stroke-width:1.33333" />
    <path
       id="path118"
       d="m 616.29499,268.51477 c -0.28667,-0.0733 -0.57467,0.10667 -0.64133,0.39467 -0.0693,0.28533 0.10666,0.572 0.39466,0.64133 7.94,1.89333 13.48534,8.92133 13.48534,17.09066 0,9.688 -7.884,17.572 -17.57467,17.572 -9.688,0 -17.572,-7.884 -17.572,-17.572 0,-8.16933 5.54533,-15.19733 13.48667,-17.09066 0.284,-0.0693 0.46266,-0.356 0.39333,-0.64133 -0.068,-0.288 -0.34933,-0.468 -0.64133,-0.39467 -8.42134,2.00933 -14.30267,9.46133 -14.30267,18.12666 0,10.27734 8.36,18.636 18.636,18.636 10.27733,0 18.63867,-8.35866 18.63867,-18.636 0,-8.66533 -5.88267,-16.11733 -14.30267,-18.12666"
       style="fill:#231f20;fill-opacity:1;fill-rule:nonzero;stroke:none;stroke-width:1.33333" />
    <path
       id="path119"
       d="m 611.95953,286.4153 c 1.28,0 2.31867,-1.03733 2.31867,-2.31867 0,-1.092 -0.77067,-1.964 -1.78667,-2.21066 v -12.852 c 0,-0.29467 -0.23867,-0.53467 -0.532,-0.53467 -0.29467,0 -0.532,0.24 -0.532,0.53467 v 12.852 c -1.016,0.24666 -1.78667,1.11866 -1.78667,2.21066 0,1.28134 1.03867,2.31867 2.31867,2.31867"
       style="fill:#231f20;fill-opacity:1;fill-rule:nonzero;stroke:none;stroke-width:1.33333" />
    <path
       id="path120"
       d="m 614.80606,233.09064 c 0,-1.29867 -1.05333,-2.35333 -2.35333,-2.35333 -1.29867,0 -2.352,1.05466 -2.352,2.35333 0,1.29867 1.05333,2.35333 2.352,2.35333 1.3,0 2.35333,-1.05466 2.35333,-2.35333"
       style="fill:#231f20;fill-opacity:1;fill-rule:nonzero;stroke:none;stroke-width:1.33333" />
    <path
       id="path121"
       d="m 624.93326,218.7837 c 1.08267,0 1.96,0.88 1.96,1.96267 v 18.75333 c 0,1.08266 -0.87733,1.96266 -1.96,1.96266 h -24.96 c -1.08,0 -1.96,-0.88 -1.96,-1.96266 v -20.716 z m 0,-1.012 h -27.932 v 21.728 c 0,1.64266 1.33067,2.97333 2.972,2.97333 h 24.96 c 1.64267,0 2.972,-1.33067 2.972,-2.97333 v -18.75333 c 0,-1.64267 -1.32933,-2.97467 -2.972,-2.97467"
       style="fill:#231f20;fill-opacity:1;fill-rule:nonzero;stroke:none;stroke-width:1.33333" />
    <path
       id="path122"
       d="m 624.09979,206.20944 c 0.66133,0 1.228,0.47333 1.34933,1.12533 l 0.688,3.72134 c 0.13734,0.74666 -0.356,1.46533 -1.1,1.60266 l -27.05066,5.00267 -0.93867,-5.076 c -0.0667,-0.36 0.009,-0.72533 0.21867,-1.02667 0.208,-0.304 0.52133,-0.50666 0.88133,-0.57333 l 25.69867,-4.752 c 0.0853,-0.016 0.17066,-0.024 0.25333,-0.024 m 0,-1.012 c -0.144,0 -0.28933,0.012 -0.43733,0.0413 l -25.69867,4.752 c -1.29467,0.24 -2.15067,1.484 -1.912,2.78 l 1.12267,6.068 28.044,-5.184 c 1.29733,-0.24133 2.152,-1.48533 1.91333,-2.78 l -0.68933,-3.724 c -0.212,-1.14933 -1.216,-1.95333 -2.34267,-1.95333"
       style="fill:#231f20;fill-opacity:1;fill-rule:nonzero;stroke:none;stroke-width:1.33333" />
    <path
       id="path123"
       d="m 596.99858,226.42517 h 30.90666 v -1.00933 h -30.90666 z"
       style="fill:#231f20;fill-opacity:1;fill-rule:nonzero;stroke:none;stroke-width:1.33333" />
    <path
       id="path124"
       d="m 858.60713,226.50957 c -1.08667,0 -1.97067,0.884 -1.97067,1.97067 0,1.084 0.884,1.968 1.97067,1.968 1.08667,0 1.97067,-0.884 1.97067,-1.968 0,-1.08667 -0.884,-1.97067 -1.97067,-1.97067"
       style="fill:#231f20;fill-opacity:1;fill-rule:nonzero;stroke:none;stroke-width:1.33333" />
    <path
       id="path125"
       d="m 861.93899,222.29877 c -1.08667,0 -1.97067,0.884 -1.97067,1.97067 0,1.08666 0.884,1.97066 1.97067,1.97066 1.08667,0 1.97067,-0.884 1.97067,-1.97066 0,-1.08667 -0.884,-1.97067 -1.97067,-1.97067"
       style="fill:#231f20;fill-opacity:1;fill-rule:nonzero;stroke:none;stroke-width:1.33333" />
    <path
       id="path126"
       d="m 865.11513,217.9605 c -1.08667,0 -1.97067,0.884 -1.97067,1.97067 0,1.08666 0.884,1.97066 1.97067,1.97066 1.08667,0 1.97067,-0.884 1.97067,-1.97066 0,-1.08667 -0.884,-1.97067 -1.97067,-1.97067"
       style="fill:#231f20;fill-opacity:1;fill-rule:nonzero;stroke:none;stroke-width:1.33333" />
    <path
       id="path127"
       d="m 878.75033,226.50957 c -1.08667,0 -1.97067,0.884 -1.97067,1.97067 0,1.084 0.884,1.968 1.97067,1.968 1.08667,0 1.97067,-0.884 1.97067,-1.968 0,-1.08667 -0.884,-1.97067 -1.97067,-1.97067"
       style="fill:#231f20;fill-opacity:1;fill-rule:nonzero;stroke:none;stroke-width:1.33333" />
    <path
       id="path128"
       d="m 877.39086,224.26984 c 0,-1.08667 -0.884,-1.97067 -1.97067,-1.97067 -1.08666,0 -1.97066,0.884 -1.97066,1.97067 0,1.08667 0.884,1.97067 1.97066,1.97067 1.08667,0 1.97067,-0.884 1.97067,-1.97067"
       style="fill:#231f20;fill-opacity:1;fill-rule:nonzero;stroke:none;stroke-width:1.33333" />
    <path
       id="path129"
       d="m 874.21273,219.93024 c 0,-1.08667 -0.884,-1.97067 -1.97067,-1.97067 -1.08666,0 -1.97066,0.884 -1.97066,1.97067 0,1.08667 0.884,1.97067 1.97066,1.97067 1.08667,0 1.97067,-0.884 1.97067,-1.97067"
       style="fill:#231f20;fill-opacity:1;fill-rule:nonzero;stroke:none;stroke-width:1.33333" />
    <path
       id="path130"
       d="m 868.36819,214.08637 c -1.08667,0 -1.97067,0.884 -1.97067,1.97067 0,1.08666 0.884,1.97066 1.97067,1.97066 1.08667,0 1.97067,-0.884 1.97067,-1.97066 0,-1.08667 -0.884,-1.97067 -1.97067,-1.97067"
       style="fill:#231f20;fill-opacity:1;fill-rule:nonzero;stroke:none;stroke-width:1.33333" />
    <path
       id="path131"
       d="m 878.75246,279.16224 c -1.08667,0 -1.97067,0.884 -1.97067,1.97067 0,1.08666 0.884,1.97066 1.97067,1.97066 1.08667,0 1.97067,-0.884 1.97067,-1.97066 0,-1.08667 -0.884,-1.97067 -1.97067,-1.97067"
       style="fill:#231f20;fill-opacity:1;fill-rule:nonzero;stroke:none;stroke-width:1.33333" />
    <path
       id="path132"
       d="m 875.42046,283.37224 c -1.08667,0 -1.97067,0.884 -1.97067,1.97067 0,1.08666 0.884,1.97066 1.97067,1.97066 1.08667,0 1.97067,-0.884 1.97067,-1.97066 0,-1.08667 -0.884,-1.97067 -1.97067,-1.97067"
       style="fill:#231f20;fill-opacity:1;fill-rule:nonzero;stroke:none;stroke-width:1.33333" />
    <path
       id="path133"
       d="m 872.24233,287.7121 c -1.08667,0 -1.97067,0.884 -1.97067,1.97067 0,1.08666 0.884,1.97066 1.97067,1.97066 1.08667,0 1.97067,-0.884 1.97067,-1.97066 0,-1.08667 -0.884,-1.97067 -1.97067,-1.97067"
       style="fill:#231f20;fill-opacity:1;fill-rule:nonzero;stroke:none;stroke-width:1.33333" />
    <path
       id="path134"
       d="m 860.57739,281.13224 c 0,-1.08667 -0.884,-1.97067 -1.97067,-1.97067 -1.08666,0 -1.97066,0.884 -1.97066,1.97067 0,1.08667 0.884,1.97067 1.97066,1.97067 1.08667,0 1.97067,-0.884 1.97067,-1.97067"
       style="fill:#231f20;fill-opacity:1;fill-rule:nonzero;stroke:none;stroke-width:1.33333" />
    <path
       id="path135"
       d="m 863.90739,285.3433 c 0,-1.08667 -0.884,-1.97067 -1.97067,-1.97067 -1.08666,0 -1.968,0.884 -1.968,1.97067 0,1.08667 0.88134,1.97067 1.968,1.97067 1.08667,0 1.97067,-0.884 1.97067,-1.97067"
       style="fill:#231f20;fill-opacity:1;fill-rule:nonzero;stroke:none;stroke-width:1.33333" />
    <path
       id="path136"
       d="m 865.11513,287.7121 c -1.08667,0 -1.97067,0.884 -1.97067,1.97067 0,1.08666 0.884,1.97066 1.97067,1.97066 1.08667,0 1.97067,-0.884 1.97067,-1.97066 0,-1.08667 -0.884,-1.97067 -1.97067,-1.97067"
       style="fill:#231f20;fill-opacity:1;fill-rule:nonzero;stroke:none;stroke-width:1.33333" />
    <path
       id="path137"
       d="m 868.98926,291.58597 c -1.08667,0 -1.97067,0.884 -1.97067,1.97067 0,1.08666 0.884,1.968 1.97067,1.968 1.08667,0 1.97067,-0.88134 1.97067,-1.968 0,-1.08667 -0.884,-1.97067 -1.97067,-1.97067"
       style="fill:#231f20;fill-opacity:1;fill-rule:nonzero;stroke:none;stroke-width:1.33333" />
    <path
       id="path138"
       d="m 778.69073,275.30144 c -1.08667,0 -1.97067,0.884 -1.97067,1.97067 0,1.08666 0.884,1.968 1.97067,1.968 1.08667,0 1.97067,-0.88134 1.97067,-1.968 0,-1.08667 -0.884,-1.97067 -1.97067,-1.97067"
       style="fill:#231f20;fill-opacity:1;fill-rule:nonzero;stroke:none;stroke-width:1.33333" />
    <path
       id="path139"
       d="m 782.90073,278.63304 c -1.08667,0 -1.97067,0.884 -1.97067,1.97067 0,1.08666 0.884,1.97066 1.97067,1.97066 1.08667,0 1.97067,-0.884 1.97067,-1.97066 0,-1.08667 -0.884,-1.97067 -1.97067,-1.97067"
       style="fill:#231f20;fill-opacity:1;fill-rule:nonzero;stroke:none;stroke-width:1.33333" />
    <path
       id="path140"
       d="m 787.24006,285.7509 c 1.08667,0 1.97067,-0.884 1.97067,-1.97067 0,-1.08666 -0.884,-1.97066 -1.97067,-1.97066 -1.08667,0 -1.97067,0.884 -1.97067,1.97066 0,1.08667 0.884,1.97067 1.97067,1.97067"
       style="fill:#231f20;fill-opacity:1;fill-rule:nonzero;stroke:none;stroke-width:1.33333" />
    <path
       id="path141"
       d="m 778.69073,295.44597 c -1.08667,0 -1.97067,0.884 -1.97067,1.97067 0,1.08666 0.884,1.97066 1.97067,1.97066 1.08667,0 1.97067,-0.884 1.97067,-1.97066 0,-1.08667 -0.884,-1.97067 -1.97067,-1.97067"
       style="fill:#231f20;fill-opacity:1;fill-rule:nonzero;stroke:none;stroke-width:1.33333" />
    <path
       id="path142"
       d="m 782.90073,292.11397 c -1.08667,0 -1.97067,0.884 -1.97067,1.97067 0,1.08666 0.884,1.97066 1.97067,1.97066 1.08667,0 1.97067,-0.884 1.97067,-1.97066 0,-1.08667 -0.884,-1.97067 -1.97067,-1.97067"
       style="fill:#231f20;fill-opacity:1;fill-rule:nonzero;stroke:none;stroke-width:1.33333" />
    <path
       id="path143"
       d="m 787.24006,288.93744 c -1.08667,0 -1.97067,0.884 -1.97067,1.97067 0,1.08666 0.884,1.97066 1.97067,1.97066 1.08667,0 1.97067,-0.884 1.97067,-1.97066 0,-1.08667 -0.884,-1.97067 -1.97067,-1.97067"
       style="fill:#231f20;fill-opacity:1;fill-rule:nonzero;stroke:none;stroke-width:1.33333" />
    <path
       id="path144"
       d="m 791.11419,285.06344 c -1.08667,0 -1.97067,0.884 -1.97067,1.97067 0,1.08666 0.884,1.97066 1.97067,1.97066 1.08667,0 1.97067,-0.884 1.97067,-1.97066 0,-1.08667 -0.884,-1.97067 -1.97067,-1.97067"
       style="fill:#231f20;fill-opacity:1;fill-rule:nonzero;stroke:none;stroke-width:1.33333" />
    <path
       id="path145"
       d="m 791.11419,230.3697 c -1.08667,0 -1.97067,0.884 -1.97067,1.97067 0,1.08666 0.884,1.97066 1.97067,1.97066 1.08667,0 1.97067,-0.884 1.97067,-1.97066 0,-1.08667 -0.884,-1.97067 -1.97067,-1.97067"
       style="fill:#231f20;fill-opacity:1;fill-rule:nonzero;stroke:none;stroke-width:1.33333" />
    <path
       id="path146"
       d="m 786.90433,227.03797 c -1.08667,0 -1.97067,0.884 -1.97067,1.97067 0,1.08666 0.884,1.97066 1.97067,1.97066 1.08667,0 1.97067,-0.884 1.97067,-1.97066 0,-1.08667 -0.884,-1.97067 -1.97067,-1.97067"
       style="fill:#231f20;fill-opacity:1;fill-rule:nonzero;stroke:none;stroke-width:1.33333" />
    <path
       id="path147"
       d="m 782.56486,223.8613 c -1.08667,0 -1.97067,0.884 -1.97067,1.97067 0,1.08666 0.884,1.97066 1.97067,1.97066 1.08667,0 1.97067,-0.884 1.97067,-1.97066 0,-1.08667 -0.884,-1.97067 -1.97067,-1.97067"
       style="fill:#231f20;fill-opacity:1;fill-rule:nonzero;stroke:none;stroke-width:1.33333" />
    <path
       id="path148"
       d="m 791.11419,210.22517 c -1.08667,0 -1.97067,0.884 -1.97067,1.97067 0,1.08666 0.884,1.97066 1.97067,1.97066 1.08667,0 1.97067,-0.884 1.97067,-1.97066 0,-1.08667 -0.884,-1.97067 -1.97067,-1.97067"
       style="fill:#231f20;fill-opacity:1;fill-rule:nonzero;stroke:none;stroke-width:1.33333" />
    <path
       id="path149"
       d="m 786.90433,213.55664 c -1.08667,0 -1.97067,0.884 -1.97067,1.97067 0,1.08666 0.884,1.97066 1.97067,1.97066 1.08667,0 1.97067,-0.884 1.97067,-1.97066 0,-1.08667 -0.884,-1.97067 -1.97067,-1.97067"
       style="fill:#231f20;fill-opacity:1;fill-rule:nonzero;stroke:none;stroke-width:1.33333" />
    <path
       id="path150"
       d="m 782.56486,216.7333 c -1.08667,0 -1.97067,0.884 -1.97067,1.97067 0,1.08666 0.884,1.97066 1.97067,1.97066 1.08667,0 1.97067,-0.884 1.97067,-1.97066 0,-1.08667 -0.884,-1.97067 -1.97067,-1.97067"
       style="fill:#231f20;fill-opacity:1;fill-rule:nonzero;stroke:none;stroke-width:1.33333" />
    <path
       id="path151"
       d="m 778.69073,220.6077 c -1.08667,0 -1.97067,0.884 -1.97067,1.97067 0,1.084 0.884,1.968 1.97067,1.968 1.08667,0 1.97067,-0.884 1.97067,-1.968 0,-1.08667 -0.884,-1.97067 -1.97067,-1.97067"
       style="fill:#231f20;fill-opacity:1;fill-rule:nonzero;stroke:none;stroke-width:1.33333" />
    <path
       id="path152"
       d="m 707.04059,214.3985 c -1.02933,0 -1.86533,0.83733 -1.86533,1.86667 0,1.03066 0.836,1.868 1.86533,1.868 1.02933,0 1.86667,-0.83734 1.86667,-1.868 0,-1.02934 -0.83734,-1.86667 -1.86667,-1.86667"
       style="fill:#231f20;fill-opacity:1;fill-rule:nonzero;stroke:none;stroke-width:1.33333" />
    <path
       id="path153"
       d="m 711.16353,221.1505 c 1.028,0 1.86533,-0.83733 1.86533,-1.86667 0,-1.03066 -0.83733,-1.868 -1.86533,-1.868 -1.02933,0 -1.86667,0.83734 -1.86667,1.868 0,1.02934 0.83734,1.86667 1.86667,1.86667"
       style="fill:#231f20;fill-opacity:1;fill-rule:nonzero;stroke:none;stroke-width:1.33333" />
    <path
       id="path154"
       d="m 707.04059,227.2053 c -1.02933,0 -1.86533,0.83733 -1.86533,1.86667 0,1.03066 0.836,1.868 1.86533,1.868 1.02933,0 1.86667,-0.83734 1.86667,-1.868 0,-1.02934 -0.83734,-1.86667 -1.86667,-1.86667"
       style="fill:#231f20;fill-opacity:1;fill-rule:nonzero;stroke:none;stroke-width:1.33333" />
    <path
       id="path155"
       d="m 711.16353,224.18744 c -1.02933,0 -1.86667,0.83733 -1.86667,1.86667 0,1.03066 0.83734,1.868 1.86667,1.868 1.028,0 1.86533,-0.83734 1.86533,-1.868 0,-1.02934 -0.83733,-1.86667 -1.86533,-1.86667"
       style="fill:#231f20;fill-opacity:1;fill-rule:nonzero;stroke:none;stroke-width:1.33333" />
    <path
       id="path156"
       d="m 714.84339,220.5077 c -1.02933,0 -1.86667,0.83733 -1.86667,1.86667 0,1.028 0.83734,1.86533 1.86667,1.86533 1.02933,0 1.868,-0.83733 1.868,-1.86533 0,-1.02934 -0.83867,-1.86667 -1.868,-1.86667"
       style="fill:#231f20;fill-opacity:1;fill-rule:nonzero;stroke:none;stroke-width:1.33333" />
    <path
       id="path157"
       d="m 689.07593,214.3985 c -1.028,0 -1.86533,0.83733 -1.86533,1.86667 0,1.03066 0.83733,1.868 1.86533,1.868 1.02933,0 1.86667,-0.83734 1.86667,-1.868 0,-1.02934 -0.83734,-1.86667 -1.86667,-1.86667"
       style="fill:#231f20;fill-opacity:1;fill-rule:nonzero;stroke:none;stroke-width:1.33333" />
    <path
       id="path158"
       d="m 684.95499,217.44304 c -1.016,0 -1.84133,0.824 -1.84133,1.84133 0,1.01467 0.82533,1.83867 1.84133,1.83867 1.016,0 1.84133,-0.824 1.84133,-1.83867 0,-1.01733 -0.82533,-1.84133 -1.84133,-1.84133"
       style="fill:#231f20;fill-opacity:1;fill-rule:nonzero;stroke:none;stroke-width:1.33333" />
    <path
       id="path159"
       d="m 689.07593,227.2053 c -1.028,0 -1.86533,0.83733 -1.86533,1.86667 0,1.03066 0.83733,1.868 1.86533,1.868 1.02933,0 1.86667,-0.83734 1.86667,-1.868 0,-1.02934 -0.83734,-1.86667 -1.86667,-1.86667"
       style="fill:#231f20;fill-opacity:1;fill-rule:nonzero;stroke:none;stroke-width:1.33333" />
    <path
       id="path160"
       d="m 684.95499,224.21464 c -1.016,0 -1.84133,0.824 -1.84133,1.83867 0,1.01733 0.82533,1.84133 1.84133,1.84133 1.016,0 1.84133,-0.824 1.84133,-1.84133 0,-1.01467 -0.82533,-1.83867 -1.84133,-1.83867"
       style="fill:#231f20;fill-opacity:1;fill-rule:nonzero;stroke:none;stroke-width:1.33333" />
    <path
       id="path161"
       d="m 681.27513,220.53424 c -1.016,0 -1.84133,0.824 -1.84133,1.84133 0,1.01467 0.82533,1.83867 1.84133,1.83867 1.016,0 1.84133,-0.824 1.84133,-1.83867 0,-1.01733 -0.82533,-1.84133 -1.84133,-1.84133"
       style="fill:#231f20;fill-opacity:1;fill-rule:nonzero;stroke:none;stroke-width:1.33333" />
    <path
       id="path162"
       d="m 697.35019,206.31264 c -0.30133,0 -0.548,0.24667 -0.548,0.548 v 30.81466 c 0,0.30267 0.24667,0.54667 0.548,0.54667 0.30133,0 0.548,-0.244 0.548,-0.54667 v -30.81466 c 0,-0.30133 -0.24667,-0.548 -0.548,-0.548"
       style="fill:#231f20;fill-opacity:1;fill-rule:nonzero;stroke:none;stroke-width:1.33333" />
    <path
       id="path163"
       d="m 681.40659,279.0313 c -1.088,0 -1.972,0.884 -1.972,1.972 0,1.08933 0.884,1.97333 1.972,1.97333 1.088,0 1.972,-0.884 1.972,-1.97333 0,-1.088 -0.884,-1.972 -1.972,-1.972"
       style="fill:#231f20;fill-opacity:1;fill-rule:nonzero;stroke:none;stroke-width:1.33333" />
    <path
       id="path164"
       d="m 681.40659,292.55744 c -1.088,0 -1.972,0.884 -1.972,1.972 0,1.08933 0.884,1.97333 1.972,1.97333 1.088,0 1.972,-0.884 1.972,-1.97333 0,-1.088 -0.884,-1.972 -1.972,-1.972"
       style="fill:#231f20;fill-opacity:1;fill-rule:nonzero;stroke:none;stroke-width:1.33333" />
    <path
       id="path165"
       d="m 685.76019,286.16237 c 1.088,0 1.972,-0.884 1.972,-1.97067 0,-1.088 -0.884,-1.972 -1.972,-1.972 -1.088,0 -1.972,0.884 -1.972,1.972 0,1.08667 0.884,1.97067 1.972,1.97067"
       style="fill:#231f20;fill-opacity:1;fill-rule:nonzero;stroke:none;stroke-width:1.33333" />
    <path
       id="path166"
       d="m 685.76019,289.3701 c -1.088,0 -1.972,0.884 -1.972,1.972 0,1.08933 0.884,1.97333 1.972,1.97333 1.088,0 1.972,-0.884 1.972,-1.97333 0,-1.088 -0.884,-1.972 -1.972,-1.972"
       style="fill:#231f20;fill-opacity:1;fill-rule:nonzero;stroke:none;stroke-width:1.33333" />
    <path
       id="path167"
       d="m 689.64646,285.48304 c -1.088,0 -1.972,0.884 -1.972,1.972 0,1.08933 0.884,1.97333 1.972,1.97333 1.088,0 1.972,-0.884 1.972,-1.97333 0,-1.088 -0.884,-1.972 -1.972,-1.972"
       style="fill:#231f20;fill-opacity:1;fill-rule:nonzero;stroke:none;stroke-width:1.33333" />
    <path
       id="path168"
       d="m 714.73819,282.97637 c 1.08667,0 1.972,-0.884 1.972,-1.972 0,-1.08933 -0.88533,-1.97333 -1.972,-1.97333 -1.088,0 -1.972,0.884 -1.972,1.97333 0,1.088 0.884,1.972 1.972,1.972"
       style="fill:#231f20;fill-opacity:1;fill-rule:nonzero;stroke:none;stroke-width:1.33333" />
    <path
       id="path169"
       d="m 710.38473,282.2189 c -1.08667,0 -1.97067,0.884 -1.97067,1.972 0,1.08667 0.884,1.97067 1.97067,1.97067 1.088,0 1.972,-0.884 1.972,-1.97067 0,-1.088 -0.884,-1.972 -1.972,-1.972"
       style="fill:#231f20;fill-opacity:1;fill-rule:nonzero;stroke:none;stroke-width:1.33333" />
    <path
       id="path170"
       d="m 714.73819,292.55744 c -1.088,0 -1.972,0.884 -1.972,1.972 0,1.08933 0.884,1.97333 1.972,1.97333 1.08667,0 1.972,-0.884 1.972,-1.97333 0,-1.088 -0.88533,-1.972 -1.972,-1.972"
       style="fill:#231f20;fill-opacity:1;fill-rule:nonzero;stroke:none;stroke-width:1.33333" />
    <path
       id="path171"
       d="m 710.38473,289.3701 c -1.08667,0 -1.97067,0.884 -1.97067,1.972 0,1.08933 0.884,1.97333 1.97067,1.97333 1.088,0 1.972,-0.884 1.972,-1.97333 0,-1.088 -0.884,-1.972 -1.972,-1.972"
       style="fill:#231f20;fill-opacity:1;fill-rule:nonzero;stroke:none;stroke-width:1.33333" />
    <path
       id="path172"
       d="m 706.49833,285.48304 c -1.088,0 -1.972,0.884 -1.972,1.972 0,1.08933 0.884,1.97333 1.972,1.97333 1.088,0 1.972,-0.884 1.972,-1.97333 0,-1.088 -0.884,-1.972 -1.972,-1.972"
       style="fill:#231f20;fill-opacity:1;fill-rule:nonzero;stroke:none;stroke-width:1.33333" />
    <path
       id="path173"
       d="m 698.00566,270.5253 c -0.30133,0 -0.548,0.24533 -0.548,0.54667 v 32.54399 c 0,0.30134 0.24667,0.54667 0.548,0.54667 0.30133,0 0.54667,-0.24533 0.54667,-0.54667 v -32.54399 c 0,-0.30134 -0.24534,-0.54667 -0.54667,-0.54667"
       style="fill:#231f20;fill-opacity:1;fill-rule:nonzero;stroke:none;stroke-width:1.33333" />
    <path
       id="path174"
       d="m 115.89299,213.7957 v 79.42933 c 0,18.11333 15.40533,32.79733 34.408,32.79733 h 736.30932 c 19.00266,0 34.40533,-14.684 34.40533,-32.79733 V 70.077036 c 0,-18.113333 -15.40267,-32.796 -34.40533,-32.796 H 150.30099 c -19.00267,0 -34.408,14.682667 -34.408,32.796 v 71.151994"
       style="fill:none;stroke:#231f20;stroke-width:0.809333;stroke-linecap:butt;stroke-linejoin:miter;stroke-miterlimit:4;stroke-dasharray:none;stroke-opacity:1" />
  </g>
</svg>
