<?xml version="1.0" encoding="utf-8"?>
<!-- Generator: Adobe Illustrator 27.9.6, SVG Export Plug-In . SVG Version: 9.03 Build 54986)  -->
<svg version="1.1" id="Layer_1" xmlns="http://www.w3.org/2000/svg" xmlns:xlink="http://www.w3.org/1999/xlink" x="0px" y="0px"
	 viewBox="0 0 48.19 48.19" style="enable-background:new 0 0 48.19 48.19;" xml:space="preserve">
<path d="M29.44,26.15c-0.78,0.62-1.22,1.56-1.22,2.58l0,1.86c0,0.51-0.42,0.93-0.93,0.93h-6.4c-0.51,0-0.93-0.42-0.93-0.93v-1.86
	c0-1.01-0.45-1.96-1.24-2.6c-2.17-1.75-3.33-4.36-3.18-7.14c0.24-4.32,3.81-7.86,8.13-8.07c0.14-0.01,0.28-0.01,0.42-0.01
	c2.21,0,4.3,0.83,5.91,2.37c1.71,1.63,2.65,3.83,2.65,6.19C32.66,22.08,31.49,24.52,29.44,26.15 M27.31,32.31v1.75
	c0,1.77-1.44,3.21-3.21,3.21c-1.59,0-2.9-1.16-3.16-2.67h3.16c0.22,0,0.4-0.18,0.4-0.4c0-0.22-0.18-0.4-0.4-0.4h-3.21v-1.49h0.01
	h6.4H27.31z M30.55,12.71c-1.87-1.78-4.32-2.72-6.91-2.58c-4.73,0.22-8.63,4.1-8.89,8.82c-0.17,3.04,1.1,5.89,3.47,7.8
	c0.6,0.49,0.95,1.21,0.95,1.98v1.86c0,0.65,0.38,1.2,0.91,1.49v1.98c0,2.21,1.8,4.01,4.01,4.01c2.21,0,4.01-1.8,4.01-4.01v-1.98
	c0.54-0.29,0.91-0.84,0.91-1.49l0-1.86c0-0.77,0.34-1.49,0.92-1.96c2.23-1.79,3.51-4.45,3.51-7.3
	C33.45,16.9,32.42,14.49,30.55,12.71"/>
</svg>
