<?xml version="1.0" encoding="utf-8"?>
<!-- Generator: Adobe Illustrator 27.9.6, SVG Export Plug-In . SVG Version: 9.03 Build 54986)  -->
<svg version="1.1" id="Layer_1" xmlns="http://www.w3.org/2000/svg" xmlns:xlink="http://www.w3.org/1999/xlink" x="0px" y="0px"
	 viewBox="0 0 48.19 48.19" style="enable-background:new 0 0 48.19 48.19;" xml:space="preserve">
<style type="text/css">
	.st0{fill:#231F20;}
</style>
<g>
	<path class="st0" d="M21.47,13.86c-2.69,1.26-3.27,3.48-3.29,3.57c-0.05,0.21,0.08,0.43,0.29,0.48c0.03,0.01,0.07,0.01,0.1,0.01
		c0.18,0,0.34-0.12,0.39-0.3c0.02-0.08,0.52-1.95,2.85-3.04c0.2-0.09,0.29-0.33,0.19-0.53C21.91,13.85,21.67,13.77,21.47,13.86"/>
	<path class="st0" d="M29.44,26.15c-0.78,0.62-1.22,1.56-1.22,2.58v1.86c0,0.51-0.42,0.93-0.93,0.93h-6.4
		c-0.51,0-0.93-0.42-0.93-0.93v-1.86c0-1.01-0.45-1.96-1.25-2.6c-2.17-1.75-3.33-4.35-3.18-7.14c0.24-4.32,3.81-7.86,8.14-8.07
		c0.14-0.01,0.28-0.01,0.42-0.01c2.21,0,4.3,0.83,5.91,2.37c1.71,1.63,2.65,3.83,2.65,6.2C32.66,22.09,31.49,24.52,29.44,26.15
		 M27.31,32.31v1.75c0,1.77-1.44,3.21-3.21,3.21c-1.59,0-2.9-1.16-3.16-2.67h3.16c0.22,0,0.4-0.18,0.4-0.4c0-0.22-0.18-0.4-0.4-0.4
		h-3.21v-1.49h0.01h6.4H27.31z M30.56,12.71c-1.87-1.78-4.33-2.71-6.91-2.58c-4.72,0.22-8.63,4.1-8.89,8.82
		c-0.17,3.05,1.1,5.89,3.47,7.8c0.6,0.49,0.95,1.21,0.95,1.98v1.86c0,0.65,0.38,1.2,0.91,1.49v1.98c0,2.21,1.8,4.01,4.01,4.01
		c2.21,0,4.01-1.8,4.01-4.01v-1.98c0.54-0.29,0.91-0.84,0.91-1.49v-1.86c0-0.77,0.34-1.49,0.92-1.96c2.23-1.79,3.51-4.45,3.51-7.3
		C33.45,16.89,32.42,14.49,30.56,12.71"/>
</g>
</svg>
