<?xml version="1.0" encoding="utf-8"?>
<!-- Generator: Adobe Illustrator 27.9.6, SVG Export Plug-In . SVG Version: 9.03 Build 54986)  -->
<svg version="1.1" id="Layer_1" xmlns="http://www.w3.org/2000/svg" xmlns:xlink="http://www.w3.org/1999/xlink" x="0px" y="0px"
	 viewBox="0 0 48.19 48.19" style="enable-background:new 0 0 48.19 48.19;" xml:space="preserve">
<style type="text/css">
	.st0{fill:#231F20;}
</style>
<g>
	<path class="st0" d="M37.27,30.78h-9.32c-0.2,0-0.36,0.14-0.39,0.34c-0.27,1.72-1.73,2.97-3.46,2.97s-3.19-1.25-3.46-2.97
		c-0.03-0.19-0.2-0.34-0.39-0.34h-9.32v-0.21c0-5.52,4.49-10.01,10.01-10.01h3.06c0.04,0.01,0.06,0.04,0.1,0.04
		c0.04,0,0.07-0.03,0.1-0.04h3.06c5.52,0,10.01,4.49,10.01,10.01V30.78z M27.26,19.76h-2.77V13.7c0-0.22-0.18-0.4-0.4-0.4
		c-0.22,0-0.4,0.18-0.4,0.4v6.06h-2.77c-5.96,0-10.81,4.85-10.81,10.81v0.61c0,0.22,0.18,0.4,0.4,0.4h9.4
		c0.46,1.94,2.17,3.31,4.19,3.31s3.72-1.37,4.18-3.31h9.39c0.22,0,0.4-0.18,0.4-0.4v-0.61C38.07,24.61,33.22,19.76,27.26,19.76"/>
	<path class="st0" d="M24.01,31.01c-0.53,0-0.96,0.43-0.96,0.96c0,0.53,0.43,0.96,0.96,0.96c0.53,0,0.96-0.43,0.96-0.96
		C24.97,31.44,24.54,31.01,24.01,31.01"/>
</g>
</svg>
