<?xml version="1.0" encoding="utf-8"?>
<!-- Generator: Adobe Illustrator 27.9.6, SVG Export Plug-In . SVG Version: 9.03 Build 54986)  -->
<svg version="1.1" id="Layer_1" xmlns="http://www.w3.org/2000/svg" xmlns:xlink="http://www.w3.org/1999/xlink" x="0px" y="0px"
	 viewBox="0 0 48.19 48.19" style="enable-background:new 0 0 48.19 48.19;" xml:space="preserve">
<style type="text/css">
	.st0{fill:#231F20;}
</style>
<g>
	<path class="st0" d="M29.8,37c0,0.15-0.12,0.28-0.28,0.28H18.67c-0.15,0-0.28-0.12-0.28-0.28v-9.5c0-3.15,2.56-5.71,5.71-5.71h0.02
		c1.55,0,3-0.69,3.98-1.91c1.79-2.2,1.45-5.45-0.75-7.24c-0.62-0.5-1.36-0.86-2.14-1.03c-0.35-0.08-0.72-0.12-1.08-0.12h-0.05
		c-2.34,0-4.38,1.58-4.97,3.83c-0.05,0.18-0.24,0.28-0.42,0.23c-0.06-0.02-0.11-0.05-0.13-0.07c-0.03-0.05-0.05-0.1-0.02-0.18
		c0.65-2.73,3.16-4.57,5.94-4.37c3.05,0.26,5.4,2.87,5.33,5.94V37z M24.53,10.13c-3.2-0.22-6.04,1.87-6.77,4.96
		c-0.09,0.3-0.03,0.62,0.19,0.9c0.14,0.14,0.31,0.25,0.5,0.31c0.6,0.18,1.24-0.16,1.42-0.78c0.5-1.91,2.23-3.24,4.21-3.24h0.02
		c0.36-0.02,0.63,0.03,0.93,0.1c0.66,0.15,1.29,0.45,1.81,0.87c1.86,1.51,2.15,4.26,0.63,6.12c-0.82,1.02-2.05,1.61-3.36,1.61h-0.02
		c-3.59,0-6.51,2.92-6.51,6.5V37c0,0.59,0.48,1.08,1.08,1.08h10.86c0.59,0,1.08-0.48,1.08-1.08V16.88
		C30.67,13.4,28.01,10.43,24.53,10.13"/>
	<path class="st0" d="M24.3,28.72c-0.76,0-1.37,0.62-1.37,1.37c0,0.76,0.61,1.38,1.37,1.38s1.37-0.62,1.37-1.38
		C25.67,29.34,25.06,28.72,24.3,28.72"/>
</g>
</svg>
