<?xml version="1.0" encoding="utf-8"?>
<!-- Generator: Adobe Illustrator 27.9.6, SVG Export Plug-In . SVG Version: 9.03 Build 54986)  -->
<svg version="1.1" id="Layer_1" xmlns="http://www.w3.org/2000/svg" xmlns:xlink="http://www.w3.org/1999/xlink" x="0px" y="0px"
	 viewBox="0 0 48.19 48.19" style="enable-background:new 0 0 48.19 48.19;" xml:space="preserve">
<style type="text/css">
	.st0{fill:#231F20;}
</style>
<g>
	<path class="st0" d="M22.51,10.96c0.07,0.04,0.15,0.06,0.22,0.03l0,11.8c0,0-0.08,0.05-0.08,0.05c-2.69-0.73-4.57-3.18-4.57-5.96
		C18.08,14.15,19.89,11.74,22.51,10.96 M22.44,23.61c0.08,0.02,0.15,0.03,0.22,0.03c0.38,0,0.73-0.25,0.84-0.64
		c0.02-0.07,0.03-0.15,0.03-0.23V10.99c0-0.47-0.37-0.86-0.84-0.87c-0.02,0-0.03,0-0.06,0c-0.07,0-0.14,0.02-0.2,0.03
		c-3.03,0.82-5.16,3.58-5.16,6.73C17.28,20.02,19.4,22.79,22.44,23.61"/>
	<path class="st0" d="M37.21,22.73H25.42l-0.07-0.08c0.73-2.69,3.18-4.57,5.96-4.57v-0.4v0.4c2.79,0,5.24,1.88,5.96,4.57
		C37.27,22.65,37.21,22.73,37.21,22.73 M38.04,22.44c-0.82-3.04-3.59-5.16-6.73-5.16c-3.14,0-5.91,2.12-6.73,5.16
		c-0.06,0.22-0.03,0.46,0.08,0.66c0.12,0.2,0.3,0.35,0.54,0.41c0.07,0.02,0.15,0.03,0.22,0.03h11.79c0.48,0,0.87-0.39,0.87-0.87
		C38.07,22.59,38.06,22.51,38.04,22.44"/>
	<path class="st0" d="M25.54,37.27l-0.08-0.07V25.42c0-0.04,0.03-0.07,0.07-0.07l-0.02-0.4l0.04,0.4c2.69,0.73,4.57,3.17,4.57,5.96
		C30.12,34.1,28.24,36.55,25.54,37.27 M25.76,24.58c-0.09-0.02-0.18-0.03-0.27-0.03c-0.47,0.02-0.83,0.4-0.83,0.87v11.79
		c0,0.48,0.39,0.87,0.87,0.87c0.08,0,0.15-0.01,0.22-0.03c3.04-0.82,5.16-3.59,5.16-6.73C30.92,28.17,28.79,25.4,25.76,24.58"/>
	<path class="st0" d="M16.88,30.12c-2.78,0-5.23-1.88-5.96-4.59c0-0.04,0.03-0.07,0.07-0.07l11.8,0c0,0,0.05,0.08,0.05,0.08
		C22.11,28.24,19.66,30.12,16.88,30.12 M23,24.69c-0.08-0.02-0.15-0.03-0.23-0.03H10.98c-0.48,0-0.87,0.39-0.87,0.87
		c0,0.07,0.01,0.15,0.03,0.23c0.82,3.03,3.59,5.16,6.73,5.16c3.15,0,5.91-2.12,6.73-5.16C23.73,25.29,23.46,24.81,23,24.69"/>
	<path class="st0" d="M31.48,13.46c0.4,0,0.73-0.33,0.73-0.73c0-0.4-0.33-0.73-0.73-0.73c-0.4,0-0.73,0.33-0.73,0.73
		C30.75,13.14,31.08,13.46,31.48,13.46"/>
</g>
</svg>
