<?xml version="1.0" encoding="utf-8"?>
<!-- Generator: Adobe Illustrator 27.9.6, SVG Export Plug-In . SVG Version: 9.03 Build 54986)  -->
<svg version="1.1" id="Layer_1" xmlns="http://www.w3.org/2000/svg" xmlns:xlink="http://www.w3.org/1999/xlink" x="0px" y="0px"
	 viewBox="0 0 48.19 48.19" style="enable-background:new 0 0 48.19 48.19;" xml:space="preserve">
<style type="text/css">
	.st0{fill:#231F20;}
</style>
<g>
	<path class="st0" d="M16.79,25.93c-0.25,0-0.46,0.21-0.46,0.46c0,0.25,0.21,0.46,0.46,0.46c0.25,0,0.46-0.21,0.46-0.46
		C17.26,26.14,17.05,25.93,16.79,25.93"/>
	<path class="st0" d="M17.79,25.2c-0.25,0-0.46,0.21-0.46,0.46c0,0.25,0.21,0.46,0.46,0.46c0.25,0,0.46-0.21,0.46-0.46
		C18.25,25.41,18.04,25.2,17.79,25.2"/>
	<path class="st0" d="M16.79,22.85c-0.25,0-0.46,0.21-0.46,0.46c0,0.25,0.21,0.46,0.46,0.46c0.25,0,0.46-0.21,0.46-0.46
		C17.26,23.05,17.05,22.85,16.79,22.85"/>
	<path class="st0" d="M17.79,24.5c0.25,0,0.46-0.21,0.46-0.46c0-0.25-0.21-0.46-0.46-0.46c-0.25,0-0.46,0.21-0.46,0.46
		C17.32,24.29,17.53,24.5,17.79,24.5"/>
	<path class="st0" d="M18.67,24.46c-0.25,0-0.46,0.21-0.46,0.46c0,0.25,0.21,0.46,0.46,0.46c0.25,0,0.46-0.21,0.46-0.46
		C19.13,24.67,18.93,24.46,18.67,24.46"/>
	<path class="st0" d="M31.4,25.93c-0.25,0-0.46,0.21-0.46,0.46c0,0.25,0.21,0.46,0.46,0.46c0.25,0,0.46-0.21,0.46-0.46
		C31.86,26.14,31.65,25.93,31.4,25.93"/>
	<path class="st0" d="M30.4,25.2c-0.25,0-0.46,0.21-0.46,0.46c0,0.25,0.21,0.46,0.46,0.46c0.25,0,0.46-0.21,0.46-0.46
		C30.87,25.41,30.66,25.2,30.4,25.2"/>
	<path class="st0" d="M30.4,23.57c-0.25,0-0.46,0.21-0.46,0.46c0,0.25,0.21,0.46,0.46,0.46c0.25,0,0.46-0.21,0.46-0.46
		C30.87,23.78,30.66,23.57,30.4,23.57"/>
	<path class="st0" d="M29.52,24.46c-0.25,0-0.46,0.21-0.46,0.46c0,0.25,0.21,0.46,0.46,0.46c0.25,0,0.46-0.21,0.46-0.46
		C29.98,24.67,29.77,24.46,29.52,24.46"/>
	<path class="st0" d="M31.4,22.85c-0.25,0-0.46,0.21-0.46,0.46c0,0.25,0.21,0.46,0.46,0.46c0.25,0,0.46-0.21,0.46-0.46
		C31.86,23.05,31.65,22.85,31.4,22.85"/>
	<path class="st0" d="M34.96,31.31c0,1.76-1.26,3.24-2.92,3.57c0,0,0,0,0,0c0,0,0,0-0.01,0c0,0,0,0-0.01,0
		c-0.32,0.08-0.74,0.07-0.8,0.07v0h-5.27V13.23h5.08v0h1.16v0h2.78V31.31z M16.16,34.89c-1.67-0.34-2.93-1.81-2.93-3.58V13.23h2.78
		h0.15h0.8h0.21h5.06v21.73h-5.27C16.96,34.96,16.54,34.98,16.16,34.89 M25.15,34.96h-2.12V13.23h2.12V34.96z M37.67,12.43h-2.32
		H12.83h-2.32c-0.22,0-0.4,0.18-0.4,0.4s0.18,0.4,0.4,0.4h1.92v18.08c0,2.32,1.79,4.21,4.07,4.41c0.02,0,0.04,0.03,0.06,0.03
		c0.02,0,0.02-0.02,0.04-0.02c0.1,0.01,0.19,0.03,0.28,0.03h14.42c0.1,0,0.18-0.02,0.28-0.03c0.01,0,0.02,0.02,0.04,0.02
		c0.02,0,0.04-0.02,0.06-0.03c2.27-0.2,4.07-2.09,4.07-4.41V13.23h1.92c0.22,0,0.4-0.18,0.4-0.4S37.89,12.43,37.67,12.43"/>
</g>
</svg>
