<?xml version="1.0" encoding="utf-8"?>
<!-- Generator: Adobe Illustrator 27.9.6, SVG Export Plug-In . SVG Version: 9.03 Build 54986)  -->
<svg version="1.1" id="Layer_1" xmlns="http://www.w3.org/2000/svg" xmlns:xlink="http://www.w3.org/1999/xlink" x="0px" y="0px"
	 viewBox="0 0 48.19 48.19" style="enable-background:new 0 0 48.19 48.19;" xml:space="preserve">
<style type="text/css">
	.st0{fill:#231F20;}
</style>
<g>
	<path class="st0" d="M27.19,31.83c-0.6-0.83-0.93-1.21-1.16-1.46c-0.21-0.24-0.3-0.33-0.43-0.62c-0.42-0.88-0.53-1.91-0.31-3.08
		c0.04-0.22-0.1-0.43-0.32-0.47c-0.21-0.04-0.43,0.1-0.47,0.32c-0.25,1.35-0.12,2.55,0.38,3.59c0.19,0.38,0.33,0.55,0.56,0.8
		c0.21,0.24,0.53,0.6,1.1,1.4c1.12,1.56,1.42,2.31,1.56,3.09c0.06,0.33,0.07,0.61,0.08,0.79c0,0.22,0.19,0.4,0.41,0.4h0.01
		c0.22,0,0.4-0.19,0.4-0.41c-0.01-0.31-0.04-0.62-0.09-0.92C28.7,34.2,28.26,33.31,27.19,31.83"/>
	<path class="st0" d="M31.18,31.25c-0.76-1.05-1.18-1.53-1.46-1.85c-0.27-0.3-0.39-0.43-0.57-0.81c-0.55-1.13-0.68-2.47-0.4-3.99
		c0.04-0.22-0.1-0.43-0.32-0.47c-0.22-0.04-0.43,0.1-0.47,0.32c-0.32,1.69-0.16,3.2,0.47,4.49c0.23,0.47,0.4,0.67,0.69,0.99
		c0.27,0.3,0.68,0.76,1.41,1.79c1.27,1.77,1.79,2.81,2,3.97c0.06,0.34,0.1,0.68,0.1,1.02c0,0.22,0.19,0.4,0.41,0.4h0.01
		c0.22,0,0.4-0.19,0.4-0.41c-0.01-0.38-0.05-0.77-0.12-1.15C33.09,34.25,32.53,33.13,31.18,31.25"/>
	<path class="st0" d="M35.45,31.07c-0.6-0.83-0.94-1.21-1.16-1.46c-0.21-0.24-0.29-0.33-0.43-0.62c-0.42-0.88-0.53-1.91-0.31-3.09
		c0.04-0.22-0.1-0.43-0.32-0.47c-0.21-0.04-0.43,0.1-0.47,0.32c-0.25,1.34-0.13,2.55,0.37,3.59c0.19,0.38,0.33,0.55,0.56,0.8
		c0.21,0.24,0.53,0.6,1.1,1.4c1.12,1.56,1.42,2.31,1.56,3.09c0.06,0.33,0.08,0.61,0.08,0.79c0.01,0.22,0.19,0.4,0.41,0.4h0.01
		c0.22,0,0.4-0.19,0.4-0.41c-0.01-0.31-0.04-0.62-0.09-0.92C36.96,33.45,36.51,32.55,35.45,31.07"/>
	<path class="st0" d="M37.21,21.13c-0.06-1.68-0.9-3.22-2.31-4.16l-8.25-5.5c-0.61-0.41-1.23-0.68-1.87-0.81
		c-1.47-0.3-2.85-0.01-4.01,0.76l-8.33,5.55c-1.46,0.97-2.33,2.59-2.33,4.35v11.54c0,2.64,2.15,4.79,4.79,4.79h8.77
		c0.22,0,0.41-0.18,0.41-0.41c0-0.22-0.18-0.41-0.41-0.41h-8.77c-2.19,0-3.98-1.78-3.98-3.98V21.32c0-1.48,0.73-2.86,1.97-3.67
		l8.33-5.55c0.99-0.66,2.14-0.9,3.4-0.64c0.53,0.11,1.06,0.35,1.58,0.69l8.25,5.5c1.18,0.78,1.88,2.08,1.94,3.49
		c-0.47,0.18-0.82,0.62-0.82,1.16c0,0.69,0.56,1.24,1.25,1.24c0.69,0,1.24-0.56,1.24-1.24C38.07,21.74,37.71,21.29,37.21,21.13"/>
</g>
</svg>
