<?xml version="1.0" encoding="utf-8"?>
<!-- Generator: Adobe Illustrator 27.9.6, SVG Export Plug-In . SVG Version: 9.03 Build 54986)  -->
<svg version="1.1" id="Layer_1" xmlns="http://www.w3.org/2000/svg" xmlns:xlink="http://www.w3.org/1999/xlink" x="0px" y="0px"
	 viewBox="0 0 48.19 48.19" style="enable-background:new 0 0 48.19 48.19;" xml:space="preserve">
<style type="text/css">
	.st0{fill:#231F20;}
</style>
<g>
	<path class="st0" d="M36.34,19.76c-0.38,0.2-0.64,0.58-0.64,1.04c0,0.66,0.53,1.19,1.19,1.19c0.66,0,1.19-0.53,1.19-1.19
		c0-0.56-0.39-1-0.91-1.13c-0.32-1.24-1.08-2.33-2.17-3.05l-8.28-5.52c-0.61-0.41-1.24-0.68-1.87-0.82
		c-1.47-0.3-2.85-0.01-4.03,0.76l-8.36,5.58c-1.46,0.97-2.34,2.6-2.34,4.36v11.58c0,2.65,2.16,4.81,4.81,4.81h8.8
		c0.22,0,0.41-0.18,0.41-0.41c0-0.22-0.18-0.41-0.41-0.41h-8.8c-2.2,0-3.99-1.79-3.99-4V20.97c0-1.49,0.74-2.87,1.97-3.69l8.36-5.58
		c0.99-0.66,2.15-0.9,3.41-0.65c0.53,0.11,1.06,0.35,1.59,0.7l8.28,5.53C35.44,17.87,36.05,18.76,36.34,19.76"/>
	<path class="st0" d="M37.15,30.49c-0.02,0.02-0.19,0.04-0.46-0.08c-0.54-0.25-1.75-0.8-1.99-0.93c-0.22-0.12-0.24-0.14-0.26-0.17
		c-0.18-0.29-0.54-0.79-0.54-0.79c-0.09-0.13-0.25-0.19-0.41-0.17c-0.16,0.03-0.28,0.15-0.32,0.31l-0.5,2.17
		c-0.02,0.1-0.01,0.21,0.05,0.3c0.03,0.05,2.99,4.87,3.24,5.29c0.12,0.2,0.17,0.43,0.13,0.57c-0.02,0.06-0.05,0.1-0.11,0.14
		c-0.22,0.12-0.37,0.17-0.77-0.35c-0.28-0.36-1.99-3.05-2.91-4.49c-0.34-0.53-0.59-0.92-0.65-1.01c-0.22-0.34-0.48-0.72-0.39-1.2
		c0.07-0.37,0.29-1.47,0.51-2.47c0.04-0.17-0.04-0.34-0.18-0.43c-0.07-0.04-0.14-0.06-0.22-0.06c-0.09,0-0.17,0.03-0.25,0.08
		L29.8,28.2c-0.08,0.06-0.14,0.15-0.15,0.25c0,0-0.4,2.36-0.49,2.67c-0.04,0.02-0.09,0.03-0.12,0.02c-0.09-0.02-0.17-0.03-0.14-0.25
		l0.42-2.83c0.05-0.15,0.11-0.2,0.23-0.28l1.94-1.66l0.14-0.08c0.15-0.09,0.23-0.14,0.43-0.14h0.74c0.23,0,0.37,0,0.69,0.72
		c0.36,0.81,1.06,2.3,1.06,2.3c0.04,0.08,0.1,0.15,0.19,0.19c0,0,1.96,0.97,2.27,1.11c0.05,0.02,0.12,0.09,0.14,0.16L37.15,30.49z
		 M31,34.32c-0.06,0.15-0.14,0.31-0.31,0.53c-0.12,0.15-0.36,0.47-0.61,0.82c-0.33,0.45-0.74,1-0.9,1.18
		c-0.39,0.44-0.48,0.42-0.6,0.32c-0.09-0.07-0.22-0.17,0.1-0.64c0.35-0.51,1.61-2.34,1.61-2.34c0.03-0.04,0.05-0.08,0.06-0.12
		l0.36-1.25l0.53,0.86C31.13,33.95,31.04,34.21,31,34.32 M33.64,22.25c0.61,0,1.12,0.5,1.12,1.12c0,0.62-0.5,1.12-1.12,1.12
		c-0.61,0-1.12-0.5-1.12-1.12C32.52,22.75,33.02,22.25,33.64,22.25 M37.36,29.49C37.36,29.49,37.35,29.49,37.36,29.49
		c-0.25-0.11-1.68-0.82-2.12-1.04c-0.18-0.38-0.7-1.49-0.99-2.16c-0.23-0.51-0.46-0.86-0.81-1.04c0.07,0.01,0.13,0.04,0.2,0.04
		c1.06,0,1.93-0.86,1.93-1.93c0-1.06-0.86-1.93-1.93-1.93c-1.06,0-1.93,0.86-1.93,1.93c0,0.76,0.46,1.41,1.1,1.73c0,0,0,0,0,0h-0.74
		c-0.43,0-0.66,0.14-0.85,0.26l-2.12,1.78c-0.26,0.15-0.44,0.38-0.56,0.76l-0.43,2.9c-0.08,0.59,0.23,1.05,0.78,1.16
		c0.24,0.06,0.51,0,0.72-0.14c0.2-0.13,0.34-0.33,0.39-0.57c0.05-0.22,0.34-1.95,0.44-2.49l0.32-0.24
		c-0.13,0.62-0.24,1.17-0.28,1.41c-0.14,0.71,0.15,1.25,0.4,1.64c-0.09-0.09-0.21-0.15-0.34-0.14c-0.16,0.02-0.29,0.14-0.33,0.29
		l-0.59,2.07c-0.21,0.31-1.26,1.83-1.58,2.29c-0.66,0.97-0.24,1.51,0.08,1.75c0.21,0.16,0.42,0.22,0.6,0.22
		c0.51,0,0.92-0.46,1.12-0.69c0.15-0.17,0.54-0.7,0.91-1.21c0.25-0.34,0.48-0.66,0.6-0.8c0.18-0.24,0.31-0.46,0.42-0.73
		c0.05-0.13,0.19-0.5,0.31-0.85c0.04-0.12,0.03-0.24-0.04-0.35l-0.39-0.63c1.27,1.99,2.64,4.13,2.92,4.49
		c0.18,0.23,0.57,0.74,1.18,0.74c0.19,0,0.4-0.05,0.63-0.18c0.25-0.14,0.42-0.36,0.5-0.63c0.1-0.36,0.02-0.8-0.22-1.19
		c-0.23-0.39-2.66-4.34-3.16-5.16l0.26-1.1v0c0.15,0.22,0.31,0.31,0.55,0.44c0.34,0.19,2.03,0.95,2.05,0.96
		c0.67,0.3,1.25,0.19,1.51-0.27c0.13-0.22,0.15-0.49,0.07-0.74C37.84,29.86,37.62,29.61,37.36,29.49"/>
</g>
</svg>
