<?xml version="1.0" encoding="utf-8"?>
<!-- Generator: Adobe Illustrator 27.9.6, SVG Export Plug-In . SVG Version: 9.03 Build 54986)  -->
<svg version="1.1" id="Layer_1" xmlns="http://www.w3.org/2000/svg" xmlns:xlink="http://www.w3.org/1999/xlink" x="0px" y="0px"
	 viewBox="0 0 48.19 48.19" style="enable-background:new 0 0 48.19 48.19;" xml:space="preserve">
<style type="text/css">
	.st0{fill:#231F20;}
</style>
<g>
	<path class="st0" d="M34.96,15.37H13.23v-2.14h21.73V15.37z M31.31,34.96H16.88c-2.01,0-3.65-1.64-3.65-3.65V16.16h21.73v15.14
		C34.96,33.32,33.32,34.96,31.31,34.96 M37.67,12.43h-2.32H12.83h-2.32c-0.22,0-0.4,0.18-0.4,0.4c0,0.22,0.18,0.4,0.4,0.4h1.92
		v18.08c0,2.45,2,4.45,4.45,4.45h14.42c2.45,0,4.45-2,4.45-4.45V13.23h1.92c0.22,0,0.4-0.18,0.4-0.4
		C38.07,12.61,37.9,12.43,37.67,12.43"/>
	<path class="st0" d="M24.1,17.04c-0.4,0-0.73,0.32-0.73,0.73c0,0.4,0.33,0.73,0.73,0.73c0.4,0,0.73-0.32,0.73-0.73
		C24.83,17.37,24.5,17.04,24.1,17.04"/>
</g>
</svg>
