<?xml version="1.0" encoding="utf-8"?>
<!-- Generator: Adobe Illustrator 27.9.6, SVG Export Plug-In . SVG Version: 9.03 Build 54986)  -->
<svg version="1.1" id="Layer_1" xmlns="http://www.w3.org/2000/svg" xmlns:xlink="http://www.w3.org/1999/xlink" x="0px" y="0px"
	 viewBox="0 0 48.19 48.19" style="enable-background:new 0 0 48.19 48.19;" xml:space="preserve">
<style type="text/css">
	.st0{fill:#231F20;}
</style>
<g>
	<path class="st0" d="M34.96,31.31c0,2.01-1.64,3.65-3.65,3.65H16.97V13.23h17.99V31.31z M13.23,31.31V13.23h2.94v21.66
		C14.5,34.55,13.23,33.08,13.23,31.31 M37.67,12.43h-2.32H12.83h-2.32c-0.22,0-0.4,0.18-0.4,0.4c0,0.22,0.18,0.4,0.4,0.4h1.92v18.08
		c0,2.33,1.8,4.22,4.07,4.41c0.02,0,0.04,0.03,0.06,0.03c0.02,0,0.02-0.01,0.04-0.02c0.09,0.01,0.18,0.03,0.28,0.03h14.42
		c2.45,0,4.45-2,4.45-4.45V13.23h1.92c0.22,0,0.4-0.18,0.4-0.4C38.07,12.61,37.9,12.43,37.67,12.43"/>
	<path class="st0" d="M18.29,24.68c0.4,0,0.73-0.32,0.73-0.73c0-0.4-0.33-0.73-0.73-0.73c-0.4,0-0.73,0.32-0.73,0.73
		C17.57,24.35,17.89,24.68,18.29,24.68"/>
</g>
</svg>
