<?xml version="1.0" encoding="utf-8"?>
<!-- Generator: Adobe Illustrator 27.9.6, SVG Export Plug-In . SVG Version: 9.03 Build 54986)  -->
<svg version="1.1" id="Layer_1" xmlns="http://www.w3.org/2000/svg" xmlns:xlink="http://www.w3.org/1999/xlink" x="0px" y="0px"
	 viewBox="0 0 48.19 48.19" style="enable-background:new 0 0 48.19 48.19;" xml:space="preserve">
<style type="text/css">
	.st0{fill:#231F20;}
</style>
<g>
	<path class="st0" d="M34.96,31.31c0,0.63-0.17,1.21-0.45,1.72v-1.02c0-0.22-0.18-0.4-0.4-0.4H14.12c-0.22,0-0.4,0.18-0.4,0.4v1.06
		c0,0.04,0.03,0.07,0.04,0.1c-0.33-0.55-0.54-1.19-0.54-1.88V13.23h21.73V31.31z M14.52,32.42h19.19v0.26H14.52V32.42z M31.31,34.96
		H16.88c-1.24,0-2.34-0.63-3-1.58c0.07,0.05,0.15,0.1,0.24,0.1h19.98c0.07,0,0.12-0.04,0.18-0.08
		C33.63,34.34,32.54,34.96,31.31,34.96 M37.67,12.43h-2.32H12.83h-2.32c-0.22,0-0.4,0.18-0.4,0.4c0,0.22,0.18,0.4,0.4,0.4h1.92
		v18.08c0,2.45,2,4.45,4.45,4.45h14.42c2.45,0,4.45-2,4.45-4.45V13.23h1.92c0.22,0,0.4-0.18,0.4-0.4
		C38.07,12.61,37.89,12.43,37.67,12.43"/>
	<path class="st0" d="M24.02,15.76c0.4,0,0.73-0.32,0.73-0.73c0-0.4-0.33-0.73-0.73-0.73c-0.4,0-0.73,0.32-0.73,0.73
		C23.29,15.43,23.61,15.76,24.02,15.76"/>
	<path class="st0" d="M14.52,17.16h19.19v0.26H14.52V17.16z M14.12,18.23h19.99c0.22,0,0.4-0.18,0.4-0.4v-1.06
		c0-0.22-0.18-0.4-0.4-0.4H14.12c-0.22,0-0.4,0.18-0.4,0.4v1.06C13.72,18.05,13.9,18.23,14.12,18.23"/>
	<path class="st0" d="M14.52,20.86h19.19v0.26H14.52V20.86z M14.12,21.92h19.99c0.22,0,0.4-0.18,0.4-0.4v-1.06
		c0-0.22-0.18-0.4-0.4-0.4H14.12c-0.22,0-0.4,0.18-0.4,0.4v1.06C13.72,21.74,13.9,21.92,14.12,21.92"/>
	<path class="st0" d="M14.52,24.66h19.19v0.26H14.52V24.66z M14.12,25.72h19.99c0.22,0,0.4-0.18,0.4-0.4v-1.06
		c0-0.22-0.18-0.4-0.4-0.4H14.12c-0.22,0-0.4,0.18-0.4,0.4v1.06C13.72,25.54,13.9,25.72,14.12,25.72"/>
	<path class="st0" d="M14.52,28.36h19.19v0.26H14.52V28.36z M14.12,29.42h19.99c0.22,0,0.4-0.18,0.4-0.4v-1.06
		c0-0.22-0.18-0.4-0.4-0.4H14.12c-0.22,0-0.4,0.18-0.4,0.4v1.06C13.72,29.24,13.9,29.42,14.12,29.42"/>
</g>
</svg>
