<?xml version="1.0" encoding="utf-8"?>
<!-- Generator: Adobe Illustrator 27.9.6, SVG Export Plug-In . SVG Version: 9.03 Build 54986)  -->
<svg version="1.1" id="Layer_1" xmlns="http://www.w3.org/2000/svg" xmlns:xlink="http://www.w3.org/1999/xlink" x="0px" y="0px"
	 viewBox="0 0 48.19 48.19" style="enable-background:new 0 0 48.19 48.19;" xml:space="preserve">
<style type="text/css">
	.st0{fill:#231F20;}
</style>
<g>
	<path class="st0" d="M26.23,31.04c0-0.97-0.79-1.76-1.76-1.76c-0.97,0-1.76,0.79-1.76,1.76c0,0.97,0.79,1.76,1.76,1.76
		C25.44,32.8,26.23,32.01,26.23,31.04"/>
	<path class="st0" d="M33.83,19.55H12.88v16.3c0,1.23,1,2.23,2.23,2.23h18.72c1.23,0,2.23-1,2.23-2.23V21.78
		C36.05,20.55,35.06,19.55,33.83,19.55 M33.83,20.31c0.81,0,1.47,0.66,1.47,1.47v14.07c0,0.81-0.66,1.47-1.47,1.47H15.11
		c-0.81,0-1.47-0.66-1.47-1.47V20.31H33.83z"/>
	<path class="st0" d="M33.2,10.12c-0.11,0-0.22,0.01-0.33,0.03L13.6,13.71c-0.97,0.18-1.61,1.11-1.43,2.08l0.84,4.55l21.03-3.89
		c0.97-0.18,1.61-1.11,1.44-2.08l-0.52-2.79C34.8,10.72,34.05,10.12,33.2,10.12 M33.2,10.88c0.5,0,0.92,0.36,1.01,0.84l0.52,2.79
		c0.1,0.56-0.27,1.1-0.83,1.2l-20.29,3.75l-0.7-3.81c-0.05-0.27,0.01-0.54,0.16-0.77c0.16-0.23,0.39-0.38,0.66-0.43l19.27-3.56
		C33.07,10.88,33.14,10.88,33.2,10.88"/>
	<rect x="12.88" y="25.28" class="st0" width="23.18" height="0.76"/>
</g>
</svg>
