<?xml version="1.0" encoding="utf-8"?>
<!-- Generator: Adobe Illustrator 27.9.6, SVG Export Plug-In . SVG Version: 9.03 Build 54986)  -->
<svg version="1.1" id="Layer_1" xmlns="http://www.w3.org/2000/svg" xmlns:xlink="http://www.w3.org/1999/xlink" x="0px" y="0px"
	 viewBox="0 0 48.19 48.19" style="enable-background:new 0 0 48.19 48.19;" xml:space="preserve">
<style type="text/css">
	.st0{fill:#231F20;}
</style>
<g>
	<path class="st0" d="M30.82,18.19c-0.77,0-1.4,0.63-1.4,1.4c0,0.77,0.63,1.4,1.4,1.4s1.4-0.63,1.4-1.4
		C32.22,18.82,31.59,18.19,30.82,18.19"/>
	<path class="st0" d="M33.91,23.26c0.77,0,1.4-0.63,1.4-1.4c0-0.77-0.63-1.4-1.4-1.4c-0.77,0-1.4,0.63-1.4,1.4
		C32.51,22.63,33.14,23.26,33.91,23.26"/>
	<path class="st0" d="M30.82,27.8c-0.77,0-1.4,0.63-1.4,1.4c0,0.77,0.63,1.4,1.4,1.4s1.4-0.63,1.4-1.4
		C32.22,28.43,31.59,27.8,30.82,27.8"/>
	<path class="st0" d="M33.91,25.54c-0.77,0-1.4,0.63-1.4,1.4c0,0.77,0.63,1.4,1.4,1.4c0.77,0,1.4-0.63,1.4-1.4
		C35.31,26.16,34.68,25.54,33.91,25.54"/>
	<path class="st0" d="M36.67,22.78c-0.77,0-1.4,0.63-1.4,1.4c0,0.77,0.63,1.4,1.4,1.4s1.4-0.63,1.4-1.4
		C38.07,23.4,37.45,22.78,36.67,22.78"/>
	<path class="st0" d="M17.35,18.19c-0.77,0-1.4,0.63-1.4,1.4c0,0.77,0.63,1.4,1.4,1.4c0.77,0,1.4-0.63,1.4-1.4
		C18.75,18.82,18.12,18.19,17.35,18.19"/>
	<path class="st0" d="M14.26,20.48c-0.76,0-1.38,0.62-1.38,1.38c0,0.76,0.62,1.38,1.38,1.38c0.76,0,1.38-0.62,1.38-1.38
		C15.64,21.09,15.02,20.48,14.26,20.48"/>
	<path class="st0" d="M17.35,27.8c-0.77,0-1.4,0.63-1.4,1.4c0,0.77,0.63,1.4,1.4,1.4c0.77,0,1.4-0.63,1.4-1.4
		C18.75,28.43,18.12,27.8,17.35,27.8"/>
	<path class="st0" d="M14.26,25.56c-0.76,0-1.38,0.62-1.38,1.38c0,0.76,0.62,1.38,1.38,1.38c0.76,0,1.38-0.62,1.38-1.38
		C15.64,26.17,15.02,25.56,14.26,25.56"/>
	<path class="st0" d="M11.5,22.8c-0.76,0-1.38,0.62-1.38,1.38c0,0.76,0.62,1.38,1.38,1.38c0.76,0,1.38-0.62,1.38-1.38
		C12.88,23.41,12.26,22.8,11.5,22.8"/>
	<path class="st0" d="M23.55,12.13c-0.23,0-0.41,0.19-0.41,0.41v23.11c0,0.23,0.19,0.41,0.41,0.41s0.41-0.18,0.41-0.41V12.54
		C23.96,12.31,23.78,12.13,23.55,12.13"/>
</g>
</svg>
