<?xml version="1.0" encoding="utf-8"?>
<!-- Generator: Adobe Illustrator 27.9.6, SVG Export Plug-In . SVG Version: 9.03 Build 54986)  -->
<svg version="1.1" id="Layer_1" xmlns="http://www.w3.org/2000/svg" xmlns:xlink="http://www.w3.org/1999/xlink" x="0px" y="0px"
	 viewBox="0 0 48.19 48.19" style="enable-background:new 0 0 48.19 48.19;" xml:space="preserve">
<style type="text/css">
	.st0{fill:#231F20;}
</style>
<g>
	<path class="st0" d="M28.75,30.17c-0.81,0-1.48,0.66-1.48,1.48c0,0.81,0.66,1.48,1.48,1.48c0.81,0,1.48-0.66,1.48-1.48
		C30.23,30.83,29.57,30.17,28.75,30.17"/>
	<path class="st0" d="M25.6,27.67c-0.81,0-1.48,0.66-1.48,1.48c0,0.81,0.66,1.48,1.48,1.48s1.48-0.66,1.48-1.48
		C27.07,28.34,26.41,27.67,25.6,27.67"/>
	<path class="st0" d="M22.34,25.29c-0.81,0-1.48,0.66-1.48,1.48s0.66,1.48,1.48,1.48c0.81,0,1.48-0.66,1.48-1.48
		S23.16,25.29,22.34,25.29"/>
	<path class="st0" d="M28.75,15.06c-0.81,0-1.48,0.66-1.48,1.48s0.66,1.48,1.48,1.48c0.81,0,1.48-0.66,1.48-1.48
		S29.57,15.06,28.75,15.06"/>
	<path class="st0" d="M25.6,17.56c-0.81,0-1.48,0.66-1.48,1.48s0.66,1.48,1.48,1.48s1.48-0.66,1.48-1.48S26.41,17.56,25.6,17.56"/>
	<path class="st0" d="M22.34,19.94c-0.81,0-1.48,0.66-1.48,1.48c0,0.81,0.66,1.48,1.48,1.48c0.81,0,1.48-0.66,1.48-1.48
		C23.82,20.61,23.16,19.94,22.34,19.94"/>
	<path class="st0" d="M19.44,22.85c-0.81,0-1.48,0.66-1.48,1.48c0,0.81,0.66,1.48,1.48,1.48c0.81,0,1.48-0.66,1.48-1.48
		C20.91,23.51,20.25,22.85,19.44,22.85"/>
</g>
</svg>
