<?xml version="1.0" encoding="utf-8"?>
<!-- Generator: Adobe Illustrator 27.9.6, SVG Export Plug-In . SVG Version: 9.03 Build 54986)  -->
<svg version="1.1" id="Layer_1" xmlns="http://www.w3.org/2000/svg" xmlns:xlink="http://www.w3.org/1999/xlink" x="0px" y="0px"
	 viewBox="0 0 48.19 48.19" style="enable-background:new 0 0 48.19 48.19;" xml:space="preserve">
<style type="text/css">
	.st0{fill:#231F20;}
</style>
<g>
	<path class="st0" d="M16.54,27.28c-0.81,0-1.48,0.66-1.48,1.48c0,0.81,0.66,1.48,1.48,1.48c0.81,0,1.48-0.66,1.48-1.48
		C18.02,27.94,17.36,27.28,16.54,27.28"/>
	<path class="st0" d="M19.04,24.12c-0.81,0-1.48,0.66-1.48,1.48s0.66,1.48,1.48,1.48c0.81,0,1.48-0.66,1.48-1.48
		S19.85,24.12,19.04,24.12"/>
	<path class="st0" d="M21.42,20.86c-0.81,0-1.48,0.66-1.48,1.48s0.66,1.48,1.48,1.48c0.81,0,1.48-0.66,1.48-1.48
		S22.24,20.86,21.42,20.86"/>
	<path class="st0" d="M31.65,27.28c-0.81,0-1.48,0.66-1.48,1.48c0,0.81,0.66,1.48,1.48,1.48s1.48-0.66,1.48-1.48
		C33.13,27.94,32.46,27.28,31.65,27.28"/>
	<path class="st0" d="M30.63,25.6c0-0.81-0.66-1.48-1.48-1.48c-0.81,0-1.48,0.66-1.48,1.48s0.66,1.48,1.48,1.48
		C29.97,27.07,30.63,26.41,30.63,25.6"/>
	<path class="st0" d="M28.25,22.34c0-0.81-0.66-1.48-1.48-1.48c-0.81,0-1.48,0.66-1.48,1.48c0,0.81,0.66,1.48,1.48,1.48
		C27.58,23.82,28.25,23.16,28.25,22.34"/>
	<path class="st0" d="M23.86,17.96c-0.81,0-1.48,0.66-1.48,1.48s0.66,1.48,1.48,1.48c0.81,0,1.48-0.66,1.48-1.48
		S24.68,17.96,23.86,17.96"/>
</g>
</svg>
