<?xml version="1.0" encoding="utf-8"?>
<!-- Generator: Adobe Illustrator 27.9.6, SVG Export Plug-In . SVG Version: 9.03 Build 54986)  -->
<svg version="1.1" id="Layer_1" xmlns="http://www.w3.org/2000/svg" xmlns:xlink="http://www.w3.org/1999/xlink" x="0px" y="0px"
	 viewBox="0 0 48.19 48.19" style="enable-background:new 0 0 48.19 48.19;" xml:space="preserve">
<style type="text/css">
	.st0{fill:#231F20;}
</style>
<g>
	<path class="st0" d="M24.42,35.11c-0.59,0-1.06,0.44-1.16,1c-0.01,0-0.02-0.01-0.04-0.01h-8.47c-2.12,0-3.84-1.72-3.84-3.84V21.1
		c0-1.43,0.71-2.75,1.9-3.54l8.05-5.37c0.95-0.63,2.04-0.87,3.28-0.62c0.51,0.11,1.02,0.33,1.53,0.67l7.97,5.32
		c1.19,0.79,1.9,2.11,1.9,3.54c0,0.22,0.18,0.4,0.4,0.4c0.22,0,0.4-0.18,0.4-0.4c0-1.7-0.84-3.27-2.25-4.21l-7.97-5.32
		c-0.59-0.39-1.19-0.66-1.81-0.79c-1.47-0.29-2.76-0.01-3.88,0.74l-8.05,5.37c-1.41,0.94-2.25,2.51-2.25,4.21v11.15
		c0,2.56,2.08,4.64,4.64,4.64h8.47c0.05,0,0.08-0.04,0.13-0.05c0.2,0.4,0.6,0.68,1.07,0.68c0.66,0,1.2-0.54,1.2-1.2
		C25.63,35.65,25.09,35.11,24.42,35.11"/>
	<path class="st0" d="M37.67,27.66h-2.2l1.22-1.47c0.14-0.17,0.12-0.42-0.05-0.56c-0.17-0.14-0.42-0.12-0.56,0.05l-1.65,1.98h-2.49
		c0.01-0.03,0.03-0.04,0.03-0.07v-2.86l1.98-1.65c0.17-0.14,0.19-0.39,0.05-0.56c-0.14-0.17-0.39-0.19-0.56-0.05l-1.47,1.22v-2.2
		c0-0.22-0.18-0.4-0.4-0.4c-0.22,0-0.4,0.18-0.4,0.4v2.2l-1.47-1.22c-0.17-0.14-0.42-0.12-0.56,0.05c-0.14,0.17-0.12,0.42,0.05,0.56
		l1.98,1.65v2.86c0,0.03,0.02,0.04,0.03,0.07h-2.49l-1.65-1.98c-0.14-0.17-0.39-0.19-0.56-0.05c-0.17,0.14-0.19,0.39-0.05,0.56
		l1.22,1.47h-2.2c-0.22,0-0.4,0.18-0.4,0.4s0.18,0.4,0.4,0.4h2.2l-1.22,1.47c-0.14,0.17-0.12,0.42,0.05,0.56
		c0.07,0.06,0.16,0.09,0.25,0.09c0.12,0,0.23-0.05,0.31-0.14l1.65-1.98h2.46v2.46l-1.98,1.65c-0.17,0.14-0.19,0.39-0.05,0.56
		c0.08,0.1,0.19,0.14,0.31,0.14c0.09,0,0.18-0.03,0.25-0.09l1.47-1.22v2.19c0,0.22,0.18,0.4,0.4,0.4c0.22,0,0.4-0.18,0.4-0.4v-2.2
		l1.47,1.22c0.07,0.06,0.16,0.09,0.25,0.09c0.11,0,0.23-0.05,0.31-0.14c0.14-0.17,0.12-0.42-0.05-0.56l-1.98-1.65v-2.46h2.46
		l1.65,1.98c0.08,0.1,0.19,0.14,0.31,0.14c0.09,0,0.18-0.03,0.25-0.09c0.17-0.14,0.19-0.39,0.05-0.56l-1.22-1.47h2.2
		c0.22,0,0.4-0.18,0.4-0.4S37.9,27.66,37.67,27.66"/>
</g>
</svg>
