<?xml version="1.0" encoding="utf-8"?>
<!-- Generator: Adobe Illustrator 27.9.6, SVG Export Plug-In . SVG Version: 9.03 Build 54986)  -->
<svg version="1.1" id="Layer_1" xmlns="http://www.w3.org/2000/svg" xmlns:xlink="http://www.w3.org/1999/xlink" x="0px" y="0px"
	 viewBox="0 0 48.19 48.19" style="enable-background:new 0 0 48.19 48.19;" xml:space="preserve">
<style type="text/css">
	.st0{fill:#231F20;}
</style>
<g>
	<path class="st0" d="M37.27,33.15c0,2.27-1.85,4.13-4.13,4.13H15.04c-2.28,0-4.13-1.85-4.13-4.13V21.23c0-1.54,0.76-2.96,2.04-3.81
		l8.52-5.68h0c0.21-0.14,0.42-0.25,0.64-0.36c0.06-0.03,0.12-0.07,0.19-0.1c0.17-0.07,0.33-0.11,0.5-0.16
		c0.12-0.03,0.23-0.08,0.35-0.11c0.26-0.05,0.52-0.07,0.77-0.08c0.06,0,0.12-0.02,0.18-0.02c0.09,0,0.17,0.02,0.26,0.02
		c0.23,0.01,0.46,0.03,0.69,0.08c0.1,0.02,0.19,0.06,0.29,0.09c0.19,0.05,0.37,0.1,0.56,0.18c0.03,0.02,0.06,0.04,0.1,0.05
		c0.24,0.11,0.49,0.24,0.72,0.4l8.52,5.68c1.28,0.85,2.04,2.27,2.04,3.81V33.15z M35.68,16.76l-8.52-5.68l-0.08-0.05
		c-0.54-0.36-1.12-0.6-1.73-0.75c-0.04-0.01-0.07-0.03-0.11-0.04c0,0-0.01,0-0.01,0c-0.34-0.07-0.68-0.11-1.04-0.11
		c-0.03,0-0.05-0.01-0.08-0.01c-0.1,0-0.22,0.02-0.32,0.03c-0.27,0.02-0.54,0.03-0.8,0.09c-0.01,0-0.03,0-0.04,0
		c-0.13,0.03-0.25,0.08-0.38,0.12c-0.19,0.06-0.39,0.11-0.58,0.19c-0.1,0.04-0.19,0.1-0.28,0.15c-0.2,0.1-0.41,0.19-0.6,0.32
		l-0.07,0.05c0,0-0.01,0-0.01,0c0,0,0,0,0,0l-8.52,5.68c-1.5,1-2.4,2.67-2.4,4.47v11.91c0,2.71,2.21,4.92,4.93,4.92h18.11
		c2.71,0,4.93-2.21,4.93-4.92V21.23C38.07,19.43,37.18,17.76,35.68,16.76"/>
	<path class="st0" d="M27.39,26.63c0,0.14-0.11,0.26-0.25,0.26c-0.15,0-0.27-0.13-0.29-0.26V21.7c0.29,0.41,0.54,0.89,0.54,1.25
		V26.63z M25.48,34.16c-0.31,0-0.57-0.25-0.57-0.57v-5.81c0-0.4-0.32-0.72-0.72-0.72c-0.4,0-0.72,0.32-0.72,0.72v5.81
		c0,0.31-0.25,0.57-0.57,0.57s-0.57-0.25-0.57-0.57v-6.94v-5.83c0.22-0.07,0.45-0.1,0.68-0.1h2.35c0.23,0,0.46,0.03,0.68,0.1v12.78
		C26.05,33.91,25.79,34.16,25.48,34.16 M21.28,26.88c-0.14,0-0.25-0.11-0.25-0.25v-3.69c0-0.34,0.23-0.8,0.51-1.22v4.93
		C21.54,26.76,21.43,26.88,21.28,26.88 M22.57,17.69c0-0.82,0.66-1.48,1.48-1.48c0.81,0,1.48,0.66,1.48,1.48
		c0,0.81-0.66,1.48-1.48,1.48C23.23,19.17,22.57,18.51,22.57,17.69 M26.6,20.17c-0.39-0.17-0.81-0.25-1.24-0.25h-0.84
		c1.03-0.22,1.8-1.13,1.8-2.22c0-1.25-1.02-2.28-2.28-2.28s-2.28,1.02-2.28,2.28c0,1.09,0.77,2,1.8,2.22h-0.55
		c-0.43,0-0.85,0.08-1.24,0.25c-0.09,0.04-0.15,0.11-0.19,0.19c-0.27,0.29-1.36,1.54-1.36,2.58v3.69c0,0.58,0.47,1.05,1.05,1.05
		c0.09,0,0.17-0.03,0.26-0.05v5.97c0,0.75,0.61,1.37,1.37,1.37c0.62,0,1.12-0.42,1.29-0.98c0.17,0.56,0.67,0.98,1.29,0.98
		c0.75,0,1.37-0.61,1.37-1.37v-5.96c0.09,0.03,0.19,0.06,0.29,0.06c0.58,0,1.05-0.47,1.05-1.05v-3.69c0-1.04-1.11-2.28-1.39-2.58
		C26.75,20.28,26.69,20.2,26.6,20.17"/>
</g>
</svg>
