<?xml version="1.0" encoding="utf-8"?>
<!-- Generator: Adobe Illustrator 27.9.6, SVG Export Plug-In . SVG Version: 9.03 Build 54986)  -->
<svg version="1.1" id="Layer_1" xmlns="http://www.w3.org/2000/svg" xmlns:xlink="http://www.w3.org/1999/xlink" x="0px" y="0px"
	 viewBox="0 0 48.19 48.19" style="enable-background:new 0 0 48.19 48.19;" xml:space="preserve">
<g>
	<path d="M24.1,28.85c0.68,0,1.32,0.27,1.81,0.75c0.48,0.48,0.75,1.12,0.75,1.81c0,0.68-0.27,1.32-0.75,1.81
		c-0.97,0.96-2.65,0.96-3.61,0c-0.48-0.48-0.75-1.13-0.75-1.81c0-0.68,0.27-1.32,0.75-1.81C22.77,29.11,23.41,28.85,24.1,28.85
		 M22.92,13.1c-0.22,0-0.4,0.18-0.4,0.4v14.97c-0.29,0.15-0.56,0.32-0.8,0.56c-0.63,0.64-0.98,1.48-0.98,2.37
		c0,0.9,0.35,1.74,0.98,2.37c0.63,0.63,1.48,0.98,2.37,0.98c0.9,0,1.74-0.35,2.37-0.98c0.63-0.63,0.98-1.47,0.98-2.37
		c0-0.9-0.35-1.74-0.98-2.37c-0.83-0.83-2.04-1.1-3.15-0.86V13.5C23.32,13.28,23.14,13.1,22.92,13.1"/>
	<path d="M29.8,27.96c-0.53-0.87-1.25-1.62-2.11-2.17v-4.51c0-0.22-0.18-0.4-0.4-0.4c-0.22,0-0.4,0.18-0.4,0.4v4.73
		c0,0.14,0.07,0.27,0.2,0.34c0.83,0.49,1.53,1.19,2.03,2.01c0.55,0.91,0.84,1.96,0.84,3.03c0,1.57-0.61,3.04-1.72,4.15
		c-1.11,1.11-2.58,1.72-4.15,1.72c-1.57,0-3.04-0.61-4.15-1.72c-1.11-1.11-1.72-2.58-1.72-4.15c0-1.07,0.29-2.12,0.84-3.03
		c0.5-0.83,1.2-1.52,2.03-2.01c0.12-0.07,0.2-0.2,0.2-0.34V13.68c0-0.74,0.29-1.45,0.82-1.98c1.06-1.06,2.89-1.06,3.95,0
		c0.53,0.53,0.82,1.23,0.82,1.98v0.79c0,0.22,0.18,0.4,0.4,0.4c0.22,0,0.4-0.18,0.4-0.4v-0.79c0-0.96-0.37-1.86-1.06-2.54
		c-1.36-1.36-3.71-1.36-5.08,0c-0.68,0.68-1.06,1.58-1.06,2.54v12.11c-0.86,0.55-1.59,1.3-2.11,2.17c-0.63,1.04-0.96,2.23-0.96,3.45
		c0,1.78,0.69,3.46,1.95,4.72c1.26,1.26,2.93,1.95,4.72,1.95s3.46-0.69,4.71-1.95c1.26-1.26,1.95-2.94,1.95-4.72
		C30.76,30.19,30.43,28.99,29.8,27.96"/>
	<path d="M26.61,15.66c0,0.37,0.3,0.68,0.68,0.68c0.37,0,0.68-0.3,0.68-0.68c0-0.37-0.3-0.68-0.68-0.68
		C26.91,14.98,26.61,15.29,26.61,15.66"/>
	<path d="M27.98,19.87c0-0.37-0.3-0.68-0.68-0.68c-0.37,0-0.68,0.3-0.68,0.68s0.3,0.68,0.68,0.68
		C27.68,20.54,27.98,20.24,27.98,19.87"/>
	<path d="M29.15,18.34c0.37,0,0.68-0.3,0.68-0.68s-0.3-0.68-0.68-0.68s-0.68,0.3-0.68,0.68S28.78,18.34,29.15,18.34"/>
	<path d="M26.06,17.66c0-0.37-0.3-0.68-0.68-0.68c-0.37,0-0.68,0.3-0.68,0.68s0.3,0.68,0.68,0.68
		C25.76,18.34,26.06,18.03,26.06,17.66"/>
</g>
</svg>
