<?xml version="1.0" encoding="utf-8"?>
<!-- Generator: Adobe Illustrator 27.9.6, SVG Export Plug-In . SVG Version: 9.03 Build 54986)  -->
<svg version="1.1" id="Layer_1" xmlns="http://www.w3.org/2000/svg" xmlns:xlink="http://www.w3.org/1999/xlink" x="0px" y="0px"
	 viewBox="0 0 48.19 48.19" style="enable-background:new 0 0 48.19 48.19;" xml:space="preserve">
<style type="text/css">
	.st0{fill:#231F20;}
</style>
<g>
	<path class="st0" d="M34.96,15.37H13.23v-2.14h21.73V15.37z M31.31,34.96H16.88c-1.14,0-2.15-0.54-2.81-1.36h20.05
		C33.45,34.42,32.45,34.96,31.31,34.96 M34.96,21.3H13.23v-5.13h21.73V21.3z M13.23,22.1h21.73v5.29H13.23V22.1z M34.96,31.31
		c0,0.53-0.12,1.04-0.33,1.5H13.56c-0.21-0.46-0.33-0.96-0.33-1.5v-3.13h21.73V31.31z M37.67,12.43h-2.32H12.83h-2.32
		c-0.22,0-0.4,0.18-0.4,0.4c0,0.22,0.18,0.4,0.4,0.4h1.92v18.08c0,0.78,0.22,1.49,0.57,2.13c0.01,0.02,0.01,0.04,0.03,0.05
		c0.77,1.35,2.2,2.27,3.85,2.27h14.42c1.66,0,3.09-0.92,3.85-2.27c0.02-0.02,0.02-0.04,0.03-0.05c0.35-0.64,0.57-1.35,0.57-2.13
		V13.23h1.92c0.22,0,0.4-0.18,0.4-0.4C38.07,12.61,37.9,12.43,37.67,12.43"/>
	<path class="st0" d="M24.57,32.16c0.4,0,0.73-0.32,0.73-0.73c0-0.4-0.33-0.73-0.73-0.73c-0.4,0-0.73,0.32-0.73,0.73
		C23.84,31.83,24.17,32.16,24.57,32.16"/>
</g>
</svg>
