<?xml version="1.0" encoding="utf-8"?>
<!-- Generator: Adobe Illustrator 27.9.6, SVG Export Plug-In . SVG Version: 9.03 Build 54986)  -->
<svg version="1.1" id="Layer_1" xmlns="http://www.w3.org/2000/svg" xmlns:xlink="http://www.w3.org/1999/xlink" x="0px" y="0px"
	 viewBox="0 0 48.19 48.19" style="enable-background:new 0 0 48.19 48.19;" xml:space="preserve">
<style type="text/css">
	.st0{fill:#231F20;}
</style>
<g>
	<path class="st0" d="M34.96,31.31c0,1.77-1.27,3.25-2.94,3.58V13.23h2.94V31.31z M13.23,31.31V13.23h17.99v21.73H16.88
		C14.87,34.96,13.23,33.32,13.23,31.31 M37.67,12.43h-2.32H12.83h-2.32c-0.22,0-0.4,0.18-0.4,0.4c0,0.22,0.18,0.4,0.4,0.4h1.92
		v18.08c0,2.45,2,4.45,4.45,4.45h14.42c0.1,0,0.18-0.02,0.28-0.03c0.01,0,0.02,0.02,0.04,0.02c0.02,0,0.04-0.02,0.06-0.03
		c2.27-0.2,4.07-2.09,4.07-4.41V13.23h1.92c0.22,0,0.4-0.18,0.4-0.4C38.07,12.61,37.9,12.43,37.67,12.43"/>
	<path class="st0" d="M29.9,23.22c-0.4,0-0.73,0.32-0.73,0.73c0,0.4,0.33,0.73,0.73,0.73c0.4,0,0.73-0.32,0.73-0.73
		C30.62,23.55,30.3,23.22,29.9,23.22"/>
</g>
</svg>
