<?xml version="1.0" encoding="utf-8"?>
<!-- Generator: Adobe Illustrator 27.9.6, SVG Export Plug-In . SVG Version: 9.03 Build 54986)  -->
<svg version="1.1" id="Layer_1" xmlns="http://www.w3.org/2000/svg" xmlns:xlink="http://www.w3.org/1999/xlink" x="0px" y="0px"
	 viewBox="0 0 48.19 48.19" style="enable-background:new 0 0 48.19 48.19;" xml:space="preserve">
<style type="text/css">
	.st0{fill:#231F20;}
</style>
<g>
	<path class="st0" d="M34.96,31.31c0,2.01-1.64,3.65-3.65,3.65H16.88c-2.01,0-3.65-1.64-3.65-3.65V13.23h21.73V31.31z M37.67,12.43
		h-2.32H12.83h-2.32c-0.22,0-0.4,0.18-0.4,0.4c0,0.22,0.18,0.4,0.4,0.4h1.92v18.08c0,2.45,2,4.45,4.45,4.45h14.42
		c2.45,0,4.45-2,4.45-4.45V13.23h1.92c0.22,0,0.4-0.18,0.4-0.4C38.07,12.61,37.89,12.43,37.67,12.43"/>
	<path class="st0" d="M24.02,32.92c-0.4,0-0.73,0.32-0.73,0.73c0,0.4,0.33,0.73,0.73,0.73c0.4,0,0.73-0.32,0.73-0.73
		C24.74,33.24,24.42,32.92,24.02,32.92"/>
	<path class="st0" d="M14.52,15.43h19.19v1.43H14.52V15.43z M14.12,17.66h19.99c0.22,0,0.4-0.18,0.4-0.4v-2.23
		c0-0.22-0.18-0.4-0.4-0.4H14.12c-0.22,0-0.4,0.18-0.4,0.4v2.23C13.72,17.48,13.9,17.66,14.12,17.66"/>
	<path class="st0" d="M14.52,18.83h19.19v1.43H14.52V18.83z M14.12,21.06h19.99c0.22,0,0.4-0.18,0.4-0.4v-2.23
		c0-0.22-0.18-0.4-0.4-0.4H14.12c-0.22,0-0.4,0.18-0.4,0.4v2.23C13.72,20.88,13.9,21.06,14.12,21.06"/>
	<path class="st0" d="M14.52,22.61h19.19v1.43H14.52V22.61z M14.12,24.84h19.99c0.22,0,0.4-0.18,0.4-0.4v-2.23
		c0-0.22-0.18-0.4-0.4-0.4H14.12c-0.22,0-0.4,0.18-0.4,0.4v2.23C13.72,24.66,13.9,24.84,14.12,24.84"/>
	<path class="st0" d="M14.52,26h19.19v1.43H14.52V26z M14.12,28.23h19.99c0.22,0,0.4-0.18,0.4-0.4V25.6c0-0.22-0.18-0.4-0.4-0.4
		H14.12c-0.22,0-0.4,0.18-0.4,0.4v2.23C13.72,28.05,13.9,28.23,14.12,28.23"/>
	<path class="st0" d="M14.52,29.79h19.19v1.43H14.52V29.79z M14.12,32.02h19.99c0.22,0,0.4-0.18,0.4-0.4v-2.23
		c0-0.22-0.18-0.4-0.4-0.4H14.12c-0.22,0-0.4,0.18-0.4,0.4v2.23C13.72,31.84,13.9,32.02,14.12,32.02"/>
</g>
</svg>
