<?xml version="1.0" encoding="utf-8"?>
<!-- Generator: Adobe Illustrator 27.9.6, SVG Export Plug-In . SVG Version: 9.03 Build 54986)  -->
<svg version="1.1" id="Layer_1" xmlns="http://www.w3.org/2000/svg" xmlns:xlink="http://www.w3.org/1999/xlink" x="0px" y="0px"
	 viewBox="0 0 48.19 48.19" style="enable-background:new 0 0 48.19 48.19;" xml:space="preserve">
<style type="text/css">
	.st0{fill:#231F20;}
</style>
<g>
	<path class="st0" d="M27.35,10.32c-0.22-0.05-0.43,0.08-0.48,0.3c-0.05,0.21,0.08,0.43,0.3,0.48c5.96,1.42,10.11,6.69,10.11,12.82
		c0,7.27-5.91,13.18-13.18,13.18c-7.27,0-13.18-5.91-13.18-13.18c0-6.13,4.16-11.4,10.11-12.82c0.21-0.05,0.35-0.27,0.3-0.48
		c-0.05-0.22-0.26-0.35-0.48-0.3c-6.32,1.51-10.73,7.1-10.73,13.59c0,7.71,6.27,13.98,13.98,13.98c7.71,0,13.98-6.27,13.98-13.98
		C38.07,17.41,33.66,11.82,27.35,10.32"/>
	<path class="st0" d="M24.09,23.74c0.96,0,1.74-0.78,1.74-1.74c0-0.82-0.58-1.47-1.34-1.66V10.7c0-0.22-0.18-0.4-0.4-0.4
		c-0.22,0-0.4,0.18-0.4,0.4v9.64c-0.76,0.19-1.34,0.84-1.34,1.66C22.36,22.96,23.13,23.74,24.09,23.74"/>
</g>
</svg>
