<?xml version="1.0" encoding="utf-8"?>
<!-- Generator: Adobe Illustrator 27.9.6, SVG Export Plug-In . SVG Version: 9.03 Build 54986)  -->
<svg version="1.1" id="Layer_1" xmlns="http://www.w3.org/2000/svg" xmlns:xlink="http://www.w3.org/1999/xlink" x="0px" y="0px"
	 viewBox="0 0 48.19 48.19" style="enable-background:new 0 0 48.19 48.19;" xml:space="preserve">
<style type="text/css">
	.st0{fill:#231F20;}
</style>
<g>
	<path class="st0" d="M11.6,17.86c-0.82,0-1.48,0.66-1.48,1.48s0.66,1.48,1.48,1.48c0.82,0,1.48-0.66,1.48-1.48
		S12.41,17.86,11.6,17.86"/>
	<path class="st0" d="M11.6,28.01c-0.82,0-1.48,0.66-1.48,1.48c0,0.82,0.66,1.48,1.48,1.48c0.82,0,1.48-0.66,1.48-1.48
		C13.07,28.67,12.41,28.01,11.6,28.01"/>
	<path class="st0" d="M14.86,23.21c0.82,0,1.48-0.66,1.48-1.48c0-0.82-0.66-1.48-1.48-1.48c-0.82,0-1.48,0.66-1.48,1.48
		C13.38,22.55,14.04,23.21,14.86,23.21"/>
	<path class="st0" d="M14.86,25.61c-0.82,0-1.48,0.66-1.48,1.48c0,0.82,0.66,1.48,1.48,1.48c0.82,0,1.48-0.66,1.48-1.48
		C16.34,26.28,15.68,25.61,14.86,25.61"/>
	<path class="st0" d="M17.78,22.7c-0.82,0-1.48,0.66-1.48,1.48c0,0.82,0.66,1.48,1.48,1.48s1.48-0.66,1.48-1.48
		C19.25,23.36,18.59,22.7,17.78,22.7"/>
	<path class="st0" d="M36.59,20.82c0.81,0,1.48-0.66,1.48-1.48s-0.66-1.48-1.48-1.48c-0.82,0-1.48,0.66-1.48,1.48
		S35.78,20.82,36.59,20.82"/>
	<path class="st0" d="M33.33,20.25c-0.81,0-1.48,0.66-1.48,1.48c0,0.81,0.66,1.48,1.48,1.48c0.82,0,1.48-0.66,1.48-1.48
		C34.81,20.91,34.15,20.25,33.33,20.25"/>
	<path class="st0" d="M36.59,28.01c-0.82,0-1.48,0.66-1.48,1.48c0,0.82,0.66,1.48,1.48,1.48c0.81,0,1.48-0.66,1.48-1.48
		C38.07,28.67,37.41,28.01,36.59,28.01"/>
	<path class="st0" d="M33.33,25.61c-0.81,0-1.48,0.66-1.48,1.48c0,0.82,0.66,1.48,1.48,1.48c0.82,0,1.48-0.66,1.48-1.48
		C34.81,26.28,34.15,25.61,33.33,25.61"/>
	<path class="st0" d="M30.41,22.7c-0.82,0-1.48,0.66-1.48,1.48c0,0.82,0.66,1.48,1.48,1.48s1.48-0.66,1.48-1.48
		C31.89,23.36,31.23,22.7,30.41,22.7"/>
	<path class="st0" d="M24.04,11.48c-0.23,0-0.41,0.18-0.41,0.41V36.3c0,0.23,0.19,0.41,0.41,0.41s0.41-0.18,0.41-0.41V11.89
		C24.45,11.66,24.27,11.48,24.04,11.48"/>
</g>
</svg>
