<?xml version="1.0" encoding="utf-8"?>
<!-- Generator: Adobe Illustrator 27.9.6, SVG Export Plug-In . SVG Version: 9.03 Build 54986)  -->
<svg version="1.1" id="Layer_1" xmlns="http://www.w3.org/2000/svg" xmlns:xlink="http://www.w3.org/1999/xlink" x="0px" y="0px"
	 viewBox="0 0 48.19 48.19" style="enable-background:new 0 0 48.19 48.19;" xml:space="preserve">
<style type="text/css">
	.st0{fill:#231F20;}
</style>
<g>
	<path class="st0" d="M19.44,15.06c-0.81,0-1.48,0.66-1.48,1.48s0.66,1.48,1.48,1.48c0.81,0,1.48-0.66,1.48-1.48
		S20.25,15.06,19.44,15.06"/>
	<path class="st0" d="M22.59,17.56c-0.81,0-1.48,0.66-1.48,1.48s0.66,1.48,1.48,1.48s1.48-0.66,1.48-1.48S23.41,17.56,22.59,17.56"
		/>
	<path class="st0" d="M25.85,22.9c0.81,0,1.48-0.66,1.48-1.48c0-0.81-0.66-1.48-1.48-1.48s-1.48,0.66-1.48,1.48
		C24.37,22.24,25.03,22.9,25.85,22.9"/>
	<path class="st0" d="M19.44,30.17c-0.81,0-1.48,0.66-1.48,1.48c0,0.81,0.66,1.48,1.48,1.48c0.81,0,1.48-0.66,1.48-1.48
		C20.91,30.83,20.25,30.17,19.44,30.17"/>
	<path class="st0" d="M22.59,27.67c-0.81,0-1.48,0.66-1.48,1.48c0,0.81,0.66,1.48,1.48,1.48s1.48-0.66,1.48-1.48
		C24.07,28.34,23.41,27.67,22.59,27.67"/>
	<path class="st0" d="M25.85,25.29c-0.81,0-1.48,0.66-1.48,1.48c0,0.81,0.66,1.48,1.48,1.48s1.48-0.66,1.48-1.48
		C27.33,25.95,26.66,25.29,25.85,25.29"/>
	<path class="st0" d="M28.75,22.38c-0.81,0-1.48,0.66-1.48,1.48c0,0.81,0.66,1.48,1.48,1.48c0.81,0,1.48-0.66,1.48-1.48
		C30.23,23.05,29.57,22.38,28.75,22.38"/>
</g>
</svg>
