<?xml version="1.0" encoding="utf-8"?>
<!-- Generator: Adobe Illustrator 27.9.6, SVG Export Plug-In . SVG Version: 9.03 Build 54986)  -->
<svg version="1.1" id="Layer_1" xmlns="http://www.w3.org/2000/svg" xmlns:xlink="http://www.w3.org/1999/xlink" x="0px" y="0px"
	 viewBox="0 0 48.19 48.19" style="enable-background:new 0 0 48.19 48.19;" xml:space="preserve">
<style type="text/css">
	.st0{fill:#231F20;}
</style>
<g>
	<path class="st0" d="M31.65,17.96c-0.81,0-1.48,0.66-1.48,1.48s0.66,1.48,1.48,1.48c0.81,0,1.48-0.66,1.48-1.48
		S32.46,17.96,31.65,17.96"/>
	<path class="st0" d="M29.15,21.12c-0.81,0-1.48,0.66-1.48,1.48c0,0.81,0.66,1.48,1.48,1.48c0.81,0,1.48-0.66,1.48-1.48
		C30.63,21.78,29.97,21.12,29.15,21.12"/>
	<path class="st0" d="M26.77,24.37c-0.81,0-1.48,0.66-1.48,1.48c0,0.81,0.66,1.48,1.48,1.48c0.81,0,1.48-0.66,1.48-1.48
		C28.24,25.03,27.58,24.37,26.77,24.37"/>
	<path class="st0" d="M18.02,19.44c0-0.81-0.66-1.48-1.48-1.48c-0.81,0-1.48,0.66-1.48,1.48s0.66,1.48,1.48,1.48
		C17.36,20.91,18.02,20.25,18.02,19.44"/>
	<path class="st0" d="M20.52,22.59c0-0.81-0.66-1.48-1.48-1.48s-1.48,0.66-1.48,1.48s0.66,1.48,1.48,1.48S20.52,23.41,20.52,22.59"
		/>
	<path class="st0" d="M21.42,24.37c-0.81,0-1.48,0.66-1.48,1.48c0,0.81,0.66,1.48,1.48,1.48s1.48-0.66,1.48-1.48
		C22.9,25.03,22.24,24.37,21.42,24.37"/>
	<path class="st0" d="M24.33,27.28c-0.81,0-1.48,0.66-1.48,1.48c0,0.81,0.66,1.48,1.48,1.48c0.81,0,1.48-0.66,1.48-1.48
		C25.8,27.94,25.14,27.28,24.33,27.28"/>
</g>
</svg>
