<?xml version="1.0" encoding="utf-8"?>
<!-- Generator: Adobe Illustrator 27.9.6, SVG Export Plug-In . SVG Version: 9.03 Build 54986)  -->
<svg version="1.1" id="Layer_1" xmlns="http://www.w3.org/2000/svg" xmlns:xlink="http://www.w3.org/1999/xlink" x="0px" y="0px"
	 viewBox="0 0 48.19 48.19" style="enable-background:new 0 0 48.19 48.19;" xml:space="preserve">
<g>
	<path d="M23.89,37.27h-0.31c-1.96-0.1-3.71-1.17-4.7-2.87c-1.6-2.76-0.66-6.3,2.09-7.9c0.12-0.07,0.2-0.2,0.2-0.34V13.63
		c0-1.5,1.22-2.72,2.72-2.72v-0.4l0.01,0.4c0.73,0,1.41,0.29,1.92,0.8c0.51,0.51,0.79,1.2,0.79,1.92v12.52
		c0,0.14,0.08,0.27,0.2,0.34c1.77,1.03,2.86,2.94,2.86,4.99C29.66,34.68,27.07,37.27,23.89,37.27 M27.4,25.94v-12.3
		c0-0.94-0.36-1.82-1.02-2.49c-0.66-0.67-1.55-1.03-2.49-1.03h-0.01c-1.94,0-3.52,1.58-3.52,3.52v12.3
		c-2.98,1.87-3.97,5.8-2.19,8.87c1.12,1.93,3.12,3.15,5.37,3.26h0.33c3.63,0,6.58-2.95,6.58-6.58C30.46,29.24,29.3,27.14,27.4,25.94
		"/>
	<path d="M24.28,30.09V13.48c0-0.22-0.18-0.4-0.4-0.4c-0.22,0-0.4,0.18-0.4,0.4v16.61c-0.84,0.19-1.47,0.9-1.47,1.79
		c0,1.03,0.84,1.87,1.87,1.87c1.03,0,1.87-0.84,1.87-1.87C25.75,30.99,25.11,30.28,24.28,30.09"/>
	<path d="M30.13,12.99c-0.42,0-0.76,0.34-0.76,0.76s0.34,0.76,0.76,0.76s0.76-0.34,0.76-0.76S30.55,12.99,30.13,12.99"/>
</g>
</svg>
