<?xml version="1.0" encoding="utf-8"?>
<!-- Generator: Adobe Illustrator 27.9.6, SVG Export Plug-In . SVG Version: 9.03 Build 54986)  -->
<svg version="1.1" id="Layer_1" xmlns="http://www.w3.org/2000/svg" xmlns:xlink="http://www.w3.org/1999/xlink" x="0px" y="0px"
	 viewBox="0 0 48.19 48.19" style="enable-background:new 0 0 48.19 48.19;" xml:space="preserve">
<g>
	<path d="M37.27,30.78h-9.32c-0.2,0-0.36,0.14-0.39,0.34c-0.27,1.72-1.73,2.97-3.46,2.97c-1.74,0-3.19-1.25-3.46-2.97
		c-0.03-0.19-0.2-0.34-0.39-0.34h-9.33v-0.21c0-5.52,4.49-10.01,10.01-10.01h3.06c0.04,0.01,0.06,0.04,0.1,0.04
		c0.04,0,0.07-0.03,0.1-0.04h3.06c5.52,0,10.01,4.49,10.01,10.01V30.78z M27.26,19.76h-2.77V13.7c0-0.22-0.18-0.4-0.4-0.4
		c-0.22,0-0.4,0.18-0.4,0.4v6.06h-2.77c-5.96,0-10.81,4.85-10.81,10.81v0.61c0,0.22,0.18,0.4,0.4,0.4h9.4
		c0.46,1.94,2.17,3.31,4.18,3.31c2.01,0,3.72-1.37,4.18-3.31h9.39c0.22,0,0.4-0.18,0.4-0.4v-0.61
		C38.07,24.61,33.22,19.76,27.26,19.76"/>
	<path d="M23.56,32.83c-0.01,0-0.95-0.23-1.36-1.29c-0.08-0.21-0.31-0.31-0.51-0.23c-0.21,0.08-0.31,0.31-0.23,0.52
		c0.56,1.46,1.88,1.77,1.93,1.78c0.03,0.01,0.06,0.01,0.09,0.01c0.18,0,0.35-0.13,0.39-0.31C23.91,33.1,23.77,32.88,23.56,32.83"/>
</g>
</svg>
