<?xml version="1.0" encoding="utf-8"?>
<!-- Generator: Adobe Illustrator 27.9.6, SVG Export Plug-In . SVG Version: 9.03 Build 54986)  -->
<svg version="1.1" id="Layer_1" xmlns="http://www.w3.org/2000/svg" xmlns:xlink="http://www.w3.org/1999/xlink" x="0px" y="0px"
	 viewBox="0 0 48.19 48.19" style="enable-background:new 0 0 48.19 48.19;" xml:space="preserve">
<g>
	<path d="M37.27,29.5h-9.32c-0.2,0-0.36,0.14-0.39,0.34c-0.27,1.72-1.73,2.97-3.46,2.97c-1.73,0-3.19-1.25-3.46-2.97
		c-0.03-0.19-0.2-0.34-0.39-0.34l-9.32,0v-0.21c0-5.52,4.49-10.01,10.01-10.01h0.25h2.82c0.04,0.01,0.06,0.04,0.1,0.04
		c0.04,0,0.06-0.03,0.1-0.04l3.07,0c5.52,0,10.01,4.49,10.01,10.01V29.5z M27.26,18.48h-2.77v-6.06c0-0.22-0.18-0.4-0.4-0.4
		s-0.4,0.18-0.4,0.4v6.06h-2.77c-5.96,0-10.81,4.85-10.81,10.81v0.61c0,0.11,0.04,0.21,0.12,0.28c0.08,0.08,0.18,0.12,0.28,0.12
		l9.4,0c0.46,1.94,2.17,3.31,4.18,3.31c2.02,0,3.72-1.37,4.18-3.31h9.39c0.22,0,0.4-0.18,0.4-0.4v-0.61
		C38.07,23.32,33.22,18.48,27.26,18.48"/>
	<path d="M19.19,31.83c-0.53,0-0.96,0.43-0.96,0.96c0,0.53,0.43,0.96,0.96,0.96c0.53,0,0.96-0.43,0.96-0.96
		C20.14,32.26,19.72,31.83,19.19,31.83"/>
	<path d="M24.17,34.26c-0.53,0-0.96,0.43-0.96,0.96c0,0.53,0.43,0.96,0.96,0.96c0.53,0,0.96-0.43,0.96-0.96
		C25.13,34.69,24.7,34.26,24.17,34.26"/>
	<path d="M28.71,32.16c-0.53,0-0.96,0.43-0.96,0.96c0,0.53,0.43,0.96,0.96,0.96c0.53,0,0.96-0.43,0.96-0.96
		C29.66,32.59,29.23,32.16,28.71,32.16"/>
</g>
</svg>
