<?xml version="1.0" encoding="utf-8"?>
<!-- Generator: Adobe Illustrator 27.9.6, SVG Export Plug-In . SVG Version: 9.03 Build 54986)  -->
<svg version="1.1" id="Layer_1" xmlns="http://www.w3.org/2000/svg" xmlns:xlink="http://www.w3.org/1999/xlink" x="0px" y="0px"
	 viewBox="0 0 48.19 48.19" style="enable-background:new 0 0 48.19 48.19;" xml:space="preserve">
<g>
	<path d="M34.26,36.57c-0.06,0.41-0.41,0.71-0.82,0.71h-6.81c-0.42,0-0.76-0.3-0.82-0.71l-1.53-10.01l11.53,0.01L34.26,36.57z
		 M36.41,26.05c-0.15-0.18-0.38-0.29-0.62-0.29H24.27c-0.23,0-0.45,0.1-0.61,0.27c-0.17,0.19-0.24,0.44-0.19,0.66l1.54,10
		c0.12,0.8,0.8,1.39,1.61,1.39h6.81c0.81,0,1.49-0.58,1.61-1.38l0.86-5.54v0l0.68-4.47C36.62,26.46,36.56,26.22,36.41,26.05"/>
	<path d="M22.31,37c-0.15,0.17-0.38,0.27-0.62,0.27h-8.47c-0.23,0-0.46-0.1-0.61-0.27c-0.16-0.18-0.24-0.42-0.22-0.65l0.58-5.76
		h8.97l0.58,5.76C22.54,36.59,22.46,36.83,22.31,37 M15.42,26.96h1.64c0.22,0,0.4-0.18,0.4-0.4l0.03-15.64v15.64
		c0,0.22,0.18,0.4,0.4,0.4h2.02c0.81,0,1.75,0.75,1.86,1.86l0.1,0.97h-8.81l0.1-0.97C13.27,27.73,14.2,26.96,15.42,26.96
		 M22.72,30.19c0-0.03-0.02-0.04-0.03-0.07l-0.14-1.38c-0.14-1.41-1.3-2.56-2.61-2.58h-0.02h-1.65V10.93c0-0.46-0.36-0.81-0.81-0.81
		c-0.46,0-0.81,0.36-0.81,0.81v15.24h-1.24c-1.64,0-2.9,1.06-3.06,2.58l-0.76,7.53c-0.04,0.45,0.11,0.91,0.41,1.26
		c0.31,0.34,0.75,0.54,1.21,0.54h8.47c0.46,0,0.9-0.19,1.21-0.54c0.31-0.34,0.46-0.8,0.41-1.26l-0.61-6.04
		C22.71,30.22,22.72,30.21,22.72,30.19"/>
	<path d="M30.75,24.67c0.36,0,0.65-0.29,0.65-0.65c0-0.36-0.29-0.65-0.65-0.65c-0.36,0-0.65,0.29-0.65,0.65
		C30.09,24.37,30.39,24.67,30.75,24.67"/>
	<path d="M32.26,22.47c0.36,0,0.65-0.29,0.65-0.65c0-0.36-0.29-0.65-0.65-0.65c-0.36,0-0.65,0.29-0.65,0.65
		C31.61,22.17,31.9,22.47,32.26,22.47"/>
	<path d="M34.95,24.8c0.36,0,0.65-0.29,0.65-0.65c0-0.36-0.29-0.65-0.65-0.65s-0.65,0.29-0.65,0.65
		C34.29,24.51,34.59,24.8,34.95,24.8"/>
</g>
</svg>
