<?xml version="1.0" encoding="utf-8"?>
<!-- Generator: Adobe Illustrator 27.9.6, SVG Export Plug-In . SVG Version: 9.03 Build 54986)  -->
<svg version="1.1" id="Layer_1" xmlns="http://www.w3.org/2000/svg" xmlns:xlink="http://www.w3.org/1999/xlink" x="0px" y="0px"
	 viewBox="0 0 48.19 48.19" style="enable-background:new 0 0 48.19 48.19;" xml:space="preserve">
<g>
	<path d="M22.67,11.13c0.01,0,0.02,0,0.02,0l-0.02-0.4l0.07,0.46l-0.07,11.66c-2.64-0.71-4.49-3.12-4.49-5.86
		C18.18,14.25,20.03,11.84,22.67,11.13 M22.46,23.63c0.08,0.02,0.15,0.03,0.23,0.03c0.15,0,0.3-0.04,0.43-0.12
		c0.2-0.12,0.34-0.3,0.4-0.52c0.02-0.07,0.03-0.15,0.03-0.23V11.19c0-0.47-0.37-0.85-0.84-0.87c-0.02,0-0.04,0-0.06,0
		c-0.06,0-0.13,0.02-0.19,0.03c-3,0.81-5.09,3.53-5.09,6.64C17.37,20.09,19.46,22.82,22.46,23.63"/>
	<path d="M25.34,22.67c0.71-2.65,3.12-4.49,5.86-4.49c2.74,0,5.15,1.85,5.81,4.56L25.34,22.67z M37.84,22.46
		c-0.81-3-3.54-5.09-6.64-5.09c-3.1,0-5.83,2.09-6.64,5.09c-0.12,0.46,0.15,0.94,0.62,1.07c0.07,0.02,0.15,0.03,0.21,0.03H37
		c0.48,0,0.87-0.39,0.87-0.87C37.87,22.6,37.86,22.52,37.84,22.46"/>
	<path d="M25.45,37V25.4c0-0.03,0.02-0.06,0.05-0.06l-0.02-0.41l0.03,0.41c2.64,0.71,4.49,3.12,4.49,5.86
		C30.01,33.94,28.16,36.35,25.45,37 M25.74,24.56c-0.08-0.02-0.17-0.03-0.26-0.03h0c-0.47,0.02-0.83,0.4-0.83,0.87V37
		c0,0.48,0.39,0.87,0.87,0.87c0.08,0,0.16-0.01,0.22-0.03c3-0.81,5.09-3.54,5.09-6.64C30.82,28.1,28.73,25.37,25.74,24.56"/>
	<path d="M16.99,30.01c-2.74,0-5.14-1.85-5.86-4.51c0-0.03,0.02-0.06,0.06-0.06l11.66,0.07C22.13,28.16,19.72,30.01,16.99,30.01
		 M23.02,24.67c-0.07-0.02-0.15-0.03-0.23-0.03H11.18c-0.48,0-0.87,0.39-0.87,0.87c0,0.07,0.01,0.15,0.03,0.23
		c0.81,2.99,3.54,5.09,6.64,5.09c3.1,0,5.84-2.1,6.64-5.09c0.06-0.22,0.03-0.46-0.08-0.66C23.43,24.88,23.24,24.73,23.02,24.67"/>
	<path d="M31.93,14.38c-0.4,0-0.72,0.32-0.72,0.72c0,0.4,0.32,0.72,0.72,0.72c0.4,0,0.72-0.32,0.72-0.72
		C32.65,14.7,32.33,14.38,31.93,14.38"/>
	<path d="M34.17,13.47c0.4,0,0.72-0.32,0.72-0.72c0-0.4-0.32-0.72-0.72-0.72c-0.4,0-0.72,0.32-0.72,0.72
		C33.45,13.15,33.77,13.47,34.17,13.47"/>
	<path d="M29.9,13.47c0.4,0,0.72-0.32,0.72-0.72c0-0.4-0.32-0.72-0.72-0.72c-0.4,0-0.72,0.32-0.72,0.72
		C29.18,13.15,29.5,13.47,29.9,13.47"/>
</g>
</svg>
