<?xml version="1.0" encoding="utf-8"?>
<!-- Generator: Adobe Illustrator 27.9.6, SVG Export Plug-In . SVG Version: 9.03 Build 54986)  -->
<svg version="1.1" id="Layer_1" xmlns="http://www.w3.org/2000/svg" xmlns:xlink="http://www.w3.org/1999/xlink" x="0px" y="0px"
	 viewBox="0 0 48.19 48.19" style="enable-background:new 0 0 48.19 48.19;" xml:space="preserve">
<g>
	<path d="M34.96,31.31c0,1.77-1.27,3.25-2.94,3.58V13.23h2.94V31.31z M13.23,31.31V13.23h2.93v21.66
		C14.49,34.55,13.23,33.07,13.23,31.31 M31.22,34.96H16.96V13.23h14.26V34.96z M37.67,12.43h-2.32H12.83h-2.32
		c-0.22,0-0.4,0.18-0.4,0.4s0.18,0.4,0.4,0.4h1.92v18.08c0,2.32,1.79,4.21,4.07,4.41c0.02,0,0.04,0.03,0.06,0.03
		c0.02,0,0.02-0.02,0.04-0.02c0.1,0.01,0.19,0.03,0.28,0.03h14.42c0.09,0,0.18-0.02,0.28-0.03c0.01,0,0.02,0.02,0.04,0.02
		c0.02,0,0.04-0.02,0.06-0.03c2.27-0.2,4.07-2.09,4.07-4.41V13.23h1.92c0.22,0,0.4-0.18,0.4-0.4S37.89,12.43,37.67,12.43"/>
	<path d="M27.89,23.77c0.25,0,0.46-0.21,0.46-0.46c0-0.25-0.21-0.46-0.46-0.46c-0.25,0-0.46,0.21-0.46,0.46
		C27.43,23.56,27.64,23.77,27.89,23.77"/>
	<path d="M28.89,24.5c0.25,0,0.46-0.21,0.46-0.46c0-0.25-0.21-0.46-0.46-0.46c-0.25,0-0.46,0.21-0.46,0.46
		C28.42,24.29,28.63,24.5,28.89,24.5"/>
	<path d="M28.89,26.13c0.25,0,0.46-0.21,0.46-0.46c0-0.25-0.21-0.46-0.46-0.46c-0.25,0-0.46,0.21-0.46,0.46
		C28.42,25.92,28.63,26.13,28.89,26.13"/>
	<path d="M29.77,25.24c0.25,0,0.46-0.21,0.46-0.46c0-0.25-0.21-0.46-0.46-0.46c-0.25,0-0.46,0.21-0.46,0.46
		C29.31,25.03,29.52,25.24,29.77,25.24"/>
	<path d="M20.37,23.77c0.25,0,0.46-0.21,0.46-0.46c0-0.25-0.21-0.46-0.46-0.46c-0.25,0-0.46,0.21-0.46,0.46
		C19.91,23.56,20.12,23.77,20.37,23.77"/>
	<path d="M19.38,24.5c0.25,0,0.46-0.21,0.46-0.46c0-0.25-0.21-0.46-0.46-0.46c-0.25,0-0.46,0.21-0.46,0.46
		C18.92,24.29,19.12,24.5,19.38,24.5"/>
	<path d="M20.37,26.86c0.25,0,0.46-0.21,0.46-0.46c0-0.25-0.21-0.46-0.46-0.46c-0.25,0-0.46,0.21-0.46,0.46
		C19.91,26.65,20.12,26.86,20.37,26.86"/>
	<path d="M19.38,25.2c-0.25,0-0.46,0.21-0.46,0.46c0,0.25,0.21,0.46,0.46,0.46c0.25,0,0.46-0.21,0.46-0.46
		C19.84,25.41,19.63,25.2,19.38,25.2"/>
	<path d="M18.49,25.24c0.25,0,0.46-0.21,0.46-0.46c0-0.25-0.21-0.46-0.46-0.46c-0.25,0-0.46,0.21-0.46,0.46
		C18.03,25.03,18.24,25.24,18.49,25.24"/>
	<path d="M27.89,26.86c0.25,0,0.46-0.21,0.46-0.46c0-0.25-0.21-0.46-0.46-0.46c-0.25,0-0.46,0.21-0.46,0.46
		C27.43,26.65,27.64,26.86,27.89,26.86"/>
</g>
</svg>
