<?xml version="1.0" encoding="UTF-8"?>
<svg id="Layer_2" data-name="Layer 2" xmlns="http://www.w3.org/2000/svg" viewBox="0 0 111.35 72.49">
  <defs>
    <style>
      .cls-1 {
        fill: none;
        stroke: #000;
        stroke-linecap: round;
        stroke-linejoin: round;
        stroke-width: 2.5px;
      }
    </style>
  </defs>
  <g id="Layer_1-2" data-name="Layer 1">
    <g>
      <path class="cls-1" d="M1.25,25.21l11.79-3.52-3.28-10.83M29.28,31.07L5.28,17.21M9.51,53.11l2.84-11.97-11.02-2.57M29.33,31.09l-24.74,14.53M38.28,4.38l-8.95,8.45-7.74-8.25M38.28,60.09l-8.95-8.45-7.74,8.25M29.33,2.77v57.83"/>
      <path class="cls-1" d="M41.8,56.99c0,2.02,1.8,3.65,4.01,3.65s4.01-1.64,4.01-3.65-1.96-2.92-4.01-3.66c-2.19-.79-4.01-1.64-4.01-3.65s1.8-3.66,4.01-3.66,4.01,1.64,4.01,3.66M54.01,37.25v23.74M95.59,48.16v23.08M89.81,57.96c-1.33,1.61-3.33,2.64-5.58,2.64-3.99,0-7.23-3.24-7.23-7.23s3.24-7.23,7.23-7.23,7.23,3.21,7.23,7.2h-10.56M71.22,57.96c-1.33,1.61-3.33,2.64-5.58,2.64-3.99,0-7.23-3.24-7.23-7.23s3.24-7.23,7.23-7.23,7.23,3.21,7.23,7.2h-10.56M102.88,46.14c3.99,0,7.23,3.24,7.23,7.23s-3.24,7.23-7.23,7.23-7.23-3.24-7.23-7.23,3.24-7.23,7.23-7.23Z"/>
      <polygon points="75.11 32.3 78.89 29.94 82.99 31.7 81.9 27.37 84.85 24.02 80.39 23.72 78.12 19.88 76.45 24.02 72.1 25 75.52 27.86 75.11 32.3"/>
      <polygon points="60.73 19.43 63.33 17.81 66.13 19.02 65.39 16.05 67.41 13.76 64.35 13.56 62.8 10.92 61.66 13.76 58.68 14.43 61.02 16.39 60.73 19.43"/>
      <polygon points="74.41 11.81 77.42 9.92 80.68 11.33 79.81 7.89 82.16 5.21 78.61 4.98 76.8 1.92 75.48 5.21 72.01 5.99 74.74 8.28 74.41 11.81"/>
      <path class="cls-1" d="M56.23,1.25c-2.71,2.41-4.64,5.73-5.24,9.59-1.38,8.83,4.65,17.11,13.47,18.49.77.12,1.52.17,2.27.18-3.49,3.09-8.28,4.66-13.24,3.88-8.82-1.38-14.86-9.66-13.48-18.49,1.26-8.07,8.29-13.77,16.21-13.65Z"/>
    </g>
  </g>
</svg>