<?xml version="1.0" encoding="UTF-8"?>
<svg id="Layer_2" data-name="Layer 2" xmlns="http://www.w3.org/2000/svg" viewBox="0 0 42.35 68">
  <defs>
    <style>
      .cls-1 {
        fill-rule: evenodd;
      }

      .cls-2 {
        fill: none;
        stroke: #000;
        stroke-linecap: round;
        stroke-linejoin: round;
        stroke-width: 2.5px;
      }
    </style>
  </defs>
  <g id="Layer_1-2" data-name="Layer 1">
    <g>
      <path class="cls-1" d="M25.04,48.91c1.14.58,1.26,2.61.28,4.53-.98,1.92-2.7,3.01-3.84,2.43-1.14-.58-1.26-2.61-.28-4.53.98-1.92,2.7-3.01,3.83-2.43M24.42,45.16V10.51c0-1.93,1.58-3.51,3.51-3.51s3.51,1.58,3.51,3.51v34.67c3.26,1.38,5.55,4.61,5.55,8.38,0,5.02-4.07,9.09-9.09,9.09s-9.09-4.07-9.09-9.09c0-3.79,2.31-7.03,5.6-8.4Z"/>
      <path class="cls-2" d="M23.11,11.47h-2.82M35.43,42.73c3.43,2.38,5.67,6.35,5.67,10.84,0,7.28-5.9,13.19-13.19,13.19s-13.19-5.9-13.19-13.19c0-4.44,2.2-8.37,5.56-10.76V8.82c0-4.16,3.41-7.57,7.57-7.57s7.57,3.41,7.57,7.57v33.91ZM23.11,20.61h-2.82M23.11,29.65h-2.82M23.11,38.7h-2.82"/>
      <path class="cls-2" d="M1.25,14.67h15.07M8.72,21.87V7"/>
    </g>
  </g>
</svg>