<?xml version="1.0" encoding="UTF-8"?>
<svg id="Layer_2" data-name="Layer 2" xmlns="http://www.w3.org/2000/svg" viewBox="0 0 89.49 59.67">
  <defs>
    <style>
      .cls-1 {
        stroke-miterlimit: 10;
        stroke-width: 2.5px;
      }

      .cls-1, .cls-2 {
        fill: none;
        stroke: #000;
      }

      .cls-2 {
        stroke-linecap: round;
        stroke-miterlimit: 22.93;
        stroke-width: 2.5px;
      }
    </style>
  </defs>
  <g id="Layer_1-2" data-name="Layer 1">
    <g>
      <path class="cls-1" d="M84.96,1.25H4.53c-1.81,0-3.28,1.47-3.28,3.28v21.53c0,1.81,1.47,3.28,3.28,3.28h.92v-9.05h78.58v9.05h.92c1.81,0,3.28-1.47,3.28-3.28V4.53c0-1.81-1.47-3.28-3.28-3.28Z"/>
      <path class="cls-1" d="M82.11,27.62H7.38c-.32,0-.58.26-.58.58v6.89c0,.32.26.58.58.58h74.73c.32,0,.58-.26.58-.58v-6.89c0-.32-.26-.58-.58-.58Z"/>
      <path class="cls-2" d="M77.95,40.31c-.68.8-2.54,3.84-1.41,6.73,1.13,2.89,2.89,4.05,3.03,6.36.13,2.31-.81,4.06-1.62,5.02M65.11,40.31c-.68.8-2.54,3.84-1.41,6.73,1.13,2.89,2.89,4.05,3.03,6.36.13,2.31-.81,4.06-1.62,5.02M52.28,40.31c-.68.8-2.54,3.84-1.41,6.73,1.13,2.89,2.89,4.05,3.03,6.36.14,2.31-.81,4.06-1.62,5.02M39.44,40.31c-.68.8-2.54,3.84-1.41,6.73,1.13,2.89,2.89,4.05,3.03,6.36.13,2.31-.81,4.06-1.62,5.02M26.61,40.31c-.68.8-2.54,3.84-1.41,6.73,1.13,2.89,2.89,4.05,3.03,6.36.13,2.31-.81,4.06-1.62,5.02M13.9,40.31c-.68.8-2.54,3.84-1.41,6.73,1.13,2.89,2.89,4.05,3.03,6.36.13,2.31-.81,4.06-1.62,5.02"/>
    </g>
  </g>
</svg>