<?xml version="1.0" encoding="UTF-8"?>
<svg id="Layer_2" data-name="Layer 2" xmlns="http://www.w3.org/2000/svg" viewBox="0 0 65.33 61.19">
  <defs>
    <style>
      .cls-1 {
        stroke-miterlimit: 22.93;
        stroke-width: .72px;
      }

      .cls-1, .cls-2 {
        fill: none;
        stroke: #000;
        stroke-linecap: round;
      }

      .cls-3 {
        fill-rule: evenodd;
      }

      .cls-2 {
        stroke-linejoin: round;
        stroke-width: 2.5px;
      }
    </style>
  </defs>
  <g id="Layer_1-2" data-name="Layer 1">
    <g>
      <path class="cls-3" d="M58.25,36.37c5.86-3.27,8.97-14.1,4.42-21.67C56.81,4.94,46.84.44,46.84.44c0,0-6.56,7.82-6.8,20.3-.16,8.51,8.5,18.68,15.94,16.37-8.69-14.08-5.89-22.77-5.89-22.77.95,10.2,4.82,17.75,8.15,22.03"/>
      <path class="cls-2" d="M49.83,52.36l-2.86-12.06M1.25,24.31l11.87-3.55-3.3-10.9M55.74,45.36L5.31,16.25M9.56,52.4l2.86-12.06-11.09-2.59M29.53,30.23l-24.91,14.62M38.54,3.34l-9.01,8.51-7.79-8.31M38.54,59.43l-9.01-8.51-7.79,8.31M29.53,1.71v58.23"/>
      <path class="cls-1" d="M50.11,14.34s-.6,15.31,14.86,29.71M54.08,37.01c-6.96-.28-14.19-7.76-14.02-16.27.24-12.48,6.8-20.3,6.8-20.3,0,0,9.97,4.5,15.83,14.25,4.55,7.57,1.44,18.4-4.42,21.68"/>
    </g>
  </g>
</svg>