<?xml version="1.0" encoding="UTF-8"?>
<svg id="Layer_2" data-name="Layer 2" xmlns="http://www.w3.org/2000/svg" viewBox="0 0 81.34 60.73">
  <defs>
    <style>
      .cls-1 {
        fill: none;
        stroke: #000;
        stroke-linecap: round;
        stroke-linejoin: round;
        stroke-width: 2.5px;
      }
    </style>
  </defs>
  <g id="Layer_1-2" data-name="Layer 1">
    <g>
      <path class="cls-1" d="M49.83,51.89l-2.86-12.06M1.25,23.84l11.87-3.55-3.3-10.9M55.74,44.9L5.31,15.79M9.56,51.94l2.86-12.06-11.09-2.59M29.53,29.77l-24.91,14.62M38.54,2.87l-9.01,8.51-7.79-8.31M38.54,58.97l-9.01-8.51-7.79,8.31M29.53,1.25v58.23"/>
      <path d="M72.24,34.9l3.53-2.21,3.83,1.65-1.02-4.04,2.75-3.13-4.16-.27-2.12-3.59-1.56,3.86-4.06.91,3.2,2.68-.39,4.14ZM58.83,22.88l2.42-1.51,2.62,1.13-.69-2.77,1.88-2.14-2.85-.18-1.45-2.46-1.06,2.65-2.78.62,2.19,1.83-.27,2.83ZM71.59,15.77l2.81-1.76,3.04,1.31-.81-3.22,2.19-2.49-3.31-.22-1.69-2.86-1.24,3.07-3.23.73,2.54,2.13-.31,3.3ZM54.62,5.91c-2.53,2.25-4.33,5.35-4.89,8.95-1.29,8.24,4.34,15.97,12.58,17.25.72.11,1.42.16,2.12.17-3.26,2.89-7.73,4.35-12.36,3.62-8.24-1.29-13.87-9.02-12.58-17.26,1.18-7.53,7.73-12.85,15.13-12.74Z"/>
    </g>
  </g>
</svg>