<?xml version="1.0" encoding="UTF-8"?>
<svg id="Layer_2" data-name="Layer 2" xmlns="http://www.w3.org/2000/svg" viewBox="0 0 66.42 63.62">
  <defs>
    <style>
      .cls-1 {
        stroke-width: 1.2px;
      }

      .cls-1, .cls-2 {
        fill: none;
        stroke: #000;
        stroke-linecap: round;
        stroke-linejoin: round;
      }

      .cls-2 {
        stroke-width: 2.5px;
      }
    </style>
  </defs>
  <g id="Layer_1-2" data-name="Layer 1">
    <g>
      <path class="cls-2" d="M38.77,58.11l-1.61-6.77,6.23-1.46M11.49,42.35l6.67-1.99-1.85-6.12M42.09,54.18l-28.32-16.35M43.44,42.38l-6.67-1.99,1.86-6.12M16.16,58.13l1.61-6.77-6.23-1.46M41.7,37.54l-28.32,16.35M32.43,30.58l-5.06,4.78-4.38-4.67M32.43,62.08l-5.06-4.78-4.38,4.67M27.37,29.67v32.7"/>
      <path class="cls-1" d="M55.54,34.35l-.85-3.6,3.31-.77M41.04,25.99l3.54-1.06-.99-3.25M57.3,32.27l-15.04-8.69M58.02,26l-3.54-1.06.99-3.25M43.52,34.37l.85-3.6-3.31-.77M57.09,23.43l-15.04,8.69M52.17,19.73l-2.69,2.54-2.32-2.48M52.17,36.47l-2.69-2.54-2.32,2.48M49.48,19.25v17.37"/>
      <path class="cls-1" d="M34.62,22.37l-.62-2.63,2.42-.57M24.02,16.25l2.59-.77-.72-2.38M35.91,20.85l-11-6.35M36.44,16.26l-2.59-.77.72-2.38M25.84,22.38l.62-2.63-2.42-.57M35.76,14.38l-11,6.35M32.16,11.68l-1.97,1.86-1.7-1.81M32.16,23.92l-1.97-1.86-1.7,1.81M30.19,11.32v12.71"/>
      <path class="cls-2" d="M1.25,35.83l5.38,3.23,3.71-5.07M6.63,39.05c-2.79-10.03-.24-21.21,7.64-29.07,11.64-11.65,30.53-11.64,42.17,0,11.64,11.64,11.65,30.53,0,42.17"/>
    </g>
  </g>
</svg>