<?xml version="1.0" encoding="UTF-8"?>
<svg id="Layer_2" data-name="Layer 2" xmlns="http://www.w3.org/2000/svg" viewBox="0 0 55.67 63.65">
  <defs>
    <style>
      .cls-1 {
        fill: none;
        stroke: #000;
        stroke-linecap: round;
        stroke-linejoin: round;
        stroke-width: 2.5px;
      }
    </style>
  </defs>
  <g id="Layer_1-2" data-name="Layer 1">
    <path class="cls-1" d="M40.44,29.97l-3.96-3.08-.73-5.16M35.61,41.87l.69-4.96,4.11-3.21M23.05,43.7l4.63-1.92,4.85,1.92M19.48,41.88l-.62-4.97-4.06-3.27M14.81,29.68l4-3.03.8-5.15M23.05,19.59l4.63,1.92,4.85-1.92M50.17,29.95l-8.05-6.27-1.32-10.22M40.49,50.29l1.4-10.1,8.19-6.25M18.26,52.16l9.42-3.9,9.53,3.9M14.49,50.23l-1.27-10.12-8.1-6.36M5.08,29.53l8.13-6.16,1.46-10.2M18.26,11.12l9.42,3.9,9.53-3.9M47.1,14.36l.54,6.18,4.99,3.56M52.45,39.84l-5.08,3.56-.59,6.1M33.32,57.2l-5.64-2.58-5.56,2.58M2.67,39.62l5.03,3.63.51,6.11M8.36,13.99l-.63,6.17-5.04,3.49M33.32,6.09l-5.64,2.58-5.56-2.58M1.25,46.91l53.16-30.22M1.34,16.41l52.75,30.93M27.68,1.25v61.15"/>
  </g>
</svg>