<?xml version="1.0" encoding="UTF-8"?>
<svg id="Layer_2" data-name="Layer 2" xmlns="http://www.w3.org/2000/svg" viewBox="0 0 74.02 64.34">
  <defs>
    <style>
      .cls-1 {
        fill: none;
        stroke: #000;
        stroke-linecap: round;
        stroke-linejoin: round;
        stroke-width: 2.4px;
      }
    </style>
  </defs>
  <g id="Layer_1-2" data-name="Layer 1">
    <path class="cls-1" d="M61.87,57.49v-4.19M14.46,57.49v-4.19M1.2,63.14h71.62M1.2,57.74h71.62M70.07,48.76h-3.35M6.19,48.76h3.35M70.07,7.2h-3.35M6.19,7.2h3.35M59.13,1.2h4.05c1.92,0,3.49,1.57,3.49,3.49v44.92c0,1.92-1.57,3.49-3.49,3.49h-4.05c-.35,0-.63-.29-.63-.63V1.83c0-.35.29-.63.63-.63ZM52.51,1.2h-.6c-1.4,0-2.54,1.14-2.54,2.54v46.82c0,1.4,1.14,2.54,2.54,2.54h.6c1.4,0,2.54-1.14,2.54-2.54V3.74c0-1.4-1.14-2.54-2.54-2.54ZM43.15,1.2h-.6c-1.4,0-2.54,1.14-2.54,2.54v46.82c0,1.4,1.14,2.54,2.54,2.54h.6c1.4,0,2.54-1.14,2.54-2.54V3.74c0-1.4-1.14-2.54-2.54-2.54ZM33.64,1.2h-.6c-1.4,0-2.54,1.14-2.54,2.54v46.82c0,1.4,1.14,2.54,2.54,2.54h.6c1.4,0,2.54-1.14,2.54-2.54V3.74c0-1.4-1.14-2.54-2.54-2.54ZM24.28,1.2h-.6c-1.4,0-2.54,1.14-2.54,2.54v46.82c0,1.4,1.14,2.54,2.54,2.54h.6c1.4,0,2.54-1.14,2.54-2.54V3.74c0-1.4-1.14-2.54-2.54-2.54ZM17.08,1.2h-4.05c-1.92,0-3.49,1.57-3.49,3.49v44.92c0,1.92,1.57,3.49,3.49,3.49h4.05c.35,0,.63-.29.63-.63V1.83c0-.35-.29-.63-.63-.63Z"/>
  </g>
</svg>