<?xml version="1.0" encoding="UTF-8"?>
<svg id="Layer_2" data-name="Layer 2" xmlns="http://www.w3.org/2000/svg" viewBox="0 0 58.5 58.51">
  <defs>
    <style>
      .cls-1 {
        stroke-miterlimit: 22.93;
      }

      .cls-1, .cls-2 {
        fill: none;
        stroke: #000;
        stroke-linecap: round;
        stroke-width: 1.2px;
      }

      .cls-3 {
        fill-rule: evenodd;
      }

      .cls-2 {
        stroke-linejoin: round;
      }
    </style>
  </defs>
  <g id="Layer_1-2" data-name="Layer 1">
    <g>
      <path class="cls-2" d="M47.66,11.55c4.41,4.59,7.13,10.83,7.13,17.7,0,.24,0,.47,0,.71M10.82,11.56c4.65-4.84,11.18-7.85,18.42-7.85M11.54,47.67c-4.67-4.49-7.64-10.74-7.84-17.69M46.94,47.68c-4.59,4.41-10.83,7.12-17.69,7.12"/>
      <path class="cls-2" d="M49.15,49.86c-5.15,4.98-12.17,8.04-19.91,8.04M49.9,9.4c4.95,5.15,7.99,12.15,7.99,19.85,0,.24,0,.49,0,.73M8.63,9.35C13.84,3.95,21.15.66,29.24.6M9.33,49.86C4.1,44.8.79,37.78.6,29.98"/>
      <path class="cls-1" d="M29.25,25.13c2.28,0,4.13,1.85,4.13,4.13s-1.85,4.13-4.13,4.13-4.13-1.85-4.13-4.13,1.85-4.13,4.13-4.13ZM23.55,30.34c-3.92.55-8.13.52-10.42-.24-4.34-1.45-6.79-6.6-4.59-11.09,2.81-5.64,12.15-7.95,14.23,1.81M26.49,24.16c-1.51-3.3-2.98-7.4-2.96-9.82.04-4.58,4.43-8.52,9.17-7.89,6.05.89,11.38,9.13,2.72,14.14M33.33,25.13c2.79-2.77,6.11-5.43,8.41-6.15,4.36-1.38,9.59,1.36,10.31,6.39.9,5.82-4.36,13.46-12.59,6.87M34.46,31.79c3.48,2,7.29,4.21,8.69,6.18,2.66,3.72,1.84,9.66-3.47,12.12-6.01,2.64-13.35-1.5-9.81-10.22M28.48,35c-.75,3.59-1.89,7.76-3.27,9.74-2.91,4.15-8.81,4.94-12.48.99-4.41-4.34-3.17-13.74,6.57-12.67"/>
      <path class="cls-3" d="M29.25,26.06c1.76,0,3.19,1.43,3.19,3.19s-1.43,3.19-3.19,3.19-3.19-1.43-3.19-3.19,1.43-3.19,3.19-3.19"/>
    </g>
  </g>
</svg>