<?xml version="1.0" encoding="UTF-8"?>
<svg id="Layer_2" data-name="Layer 2" xmlns="http://www.w3.org/2000/svg" viewBox="0 0 45.58 45.69">
  <defs>
    <style>
      .cls-1 {
        stroke-width: 1.68px;
      }

      .cls-1, .cls-2 {
        fill: none;
        stroke: #000;
        stroke-miterlimit: 22.93;
      }

      .cls-2 {
        stroke-linecap: round;
        stroke-width: 1.2px;
      }

      .cls-3 {
        fill-rule: evenodd;
      }
    </style>
  </defs>
  <g id="Layer_1-2" data-name="Layer 1">
    <g>
      <path class="cls-2" d="M22.08,19.34c2.28,0,4.13,1.85,4.13,4.13s-1.85,4.13-4.13,4.13-4.13-1.85-4.13-4.13,1.85-4.13,4.13-4.13ZM19.32,18.37c-1.51-3.3-2.98-7.4-2.96-9.82.04-4.58,4.43-8.52,9.17-7.89,6.05.89,11.38,9.13,2.72,14.14M26.15,19.35c2.79-2.77,6.11-5.43,8.41-6.15,4.36-1.38,9.59,1.36,10.31,6.39.9,5.82-4.36,13.46-12.59,6.87M27.29,26.01c3.48,2,7.29,4.21,8.69,6.18,2.66,3.72,1.84,9.66-3.47,12.12-6.01,2.64-13.35-1.5-9.81-10.22M21.31,29.22c-.75,3.59-1.89,7.76-3.27,9.74-2.91,4.15-8.81,4.94-12.48.99-4.41-4.34-3.17-13.74,6.57-12.67"/>
      <path class="cls-3" d="M17.4,24.13c-2.93.4-6.68.81-10.02.25-5.61-.93-7.97-7-5.68-11.11,3.46-6.23,10.96-5.63,12.67-.76,1.54,4.41,2.22,6.54,3.81,8.27-.53.76-.84,1.69-.84,2.69,0,.23.02.45.05.66Z"/>
      <path class="cls-1" d="M17.4,24.13c-2.93.4-6.68.81-10.02.25-5.61-.93-7.97-7-5.68-11.11,3.46-6.23,10.96-5.63,12.67-.76,1.54,4.41,2.22,6.54,3.81,8.27-.53.76-.84,1.69-.84,2.69,0,.23.02.45.05.66Z"/>
      <path class="cls-3" d="M22.08,20.28c1.76,0,3.19,1.43,3.19,3.19s-1.43,3.19-3.19,3.19-3.19-1.43-3.19-3.19,1.43-3.19,3.19-3.19"/>
    </g>
  </g>
</svg>