<?xml version="1.0" encoding="UTF-8"?>
<svg id="Layer_2" data-name="Layer 2" xmlns="http://www.w3.org/2000/svg" viewBox="0 0 45.51 45.45">
  <defs>
    <style>
      .cls-1 {
        fill: none;
        stroke: #000;
        stroke-miterlimit: 22.93;
        stroke-width: 1.68px;
      }

      .cls-2 {
        fill-rule: evenodd;
      }
    </style>
  </defs>
  <g id="Layer_1-2" data-name="Layer 1">
    <g>
      <path class="cls-2" d="M17.4,24.03c-2.93.4-6.68.81-10.02.25-5.61-.93-7.97-7-5.68-11.11,3.46-6.23,10.96-5.63,12.67-.76,1.54,4.41,2.22,6.54,3.81,8.27-.53.76-.84,1.69-.84,2.69,0,.23.02.45.05.66ZM20.08,19.09c-1.28-2.64-2.77-5.93-3.28-9.27C15.93,4.2,20.96.07,25.59.96c7,1.35,8.77,8.66,4.67,11.8-3.71,2.84-5.5,4.1-6.64,6.14-.48-.17-1-.26-1.55-.26-.71,0-1.39.16-2,.44ZM25.57,20.18c2.08-2.08,4.74-4.57,7.72-6.16,5.02-2.68,10.58.7,11.27,5.36,1.05,7.05-5.27,11.15-9.59,8.32-3.91-2.56-5.84-3.77-8.17-4.17,0-.06,0-.11,0-.17,0-1.23-.47-2.34-1.23-3.18ZM26.17,25.72c2.66,1.31,6.04,3.11,8.5,5.43,4.14,3.91,2.71,10.25-1.49,12.39-6.35,3.24-12.24-1.44-10.94-6.44,1.18-4.52,1.63-6.86,1.25-9.22,1.14-.36,2.09-1.14,2.68-2.16ZM21.2,28.01c-.51,2.93-1.3,6.76-2.83,9.78-2.57,5.07-9.06,5.5-12.3,2.08-4.91-5.17-2.09-12.15,3.07-12.31,4.67-.15,7.03-.3,9.18-1.33.69.91,1.71,1.56,2.88,1.78Z"/>
      <path class="cls-1" d="M17.4,24.03c-2.93.4-6.68.81-10.02.25-5.61-.93-7.97-7-5.68-11.11,3.46-6.23,10.96-5.63,12.67-.76,1.54,4.41,2.22,6.54,3.81,8.27-.53.76-.84,1.69-.84,2.69,0,.23.02.45.05.66ZM20.08,19.09c-1.28-2.64-2.77-5.93-3.28-9.27C15.93,4.2,20.96.07,25.59.96c7,1.35,8.77,8.66,4.67,11.8-3.71,2.84-5.5,4.1-6.64,6.14-.48-.17-1-.26-1.55-.26-.71,0-1.39.16-2,.44ZM25.57,20.18c2.08-2.08,4.74-4.57,7.72-6.16,5.02-2.68,10.58.7,11.27,5.36,1.05,7.05-5.27,11.15-9.59,8.32-3.91-2.56-5.84-3.77-8.17-4.17,0-.06,0-.11,0-.17,0-1.23-.47-2.34-1.23-3.18ZM26.17,25.72c2.66,1.31,6.04,3.11,8.5,5.43,4.14,3.91,2.71,10.25-1.49,12.39-6.35,3.24-12.24-1.44-10.94-6.44,1.18-4.52,1.63-6.86,1.25-9.22,1.14-.36,2.09-1.14,2.68-2.16ZM21.2,28.01c-.51,2.93-1.3,6.76-2.83,9.78-2.57,5.07-9.06,5.5-12.3,2.08-4.91-5.17-2.09-12.15,3.07-12.31,4.67-.15,7.03-.3,9.18-1.33.69.91,1.71,1.56,2.88,1.78Z"/>
      <path class="cls-2" d="M22.08,20.18c1.76,0,3.19,1.43,3.19,3.19s-1.43,3.19-3.19,3.19-3.19-1.43-3.19-3.19,1.43-3.19,3.19-3.19"/>
    </g>
  </g>
</svg>