<?xml version="1.0" encoding="UTF-8"?>
<svg id="Layer_2" data-name="Layer 2" xmlns="http://www.w3.org/2000/svg" viewBox="0 0 86.89 62.17">
  <defs>
    <style>
      .cls-1 {
        stroke-width: 1.8px;
      }

      .cls-1, .cls-2 {
        stroke-miterlimit: 10;
      }

      .cls-1, .cls-2, .cls-3, .cls-4 {
        fill: none;
        stroke: #000;
      }

      .cls-1, .cls-3 {
        stroke-linecap: round;
      }

      .cls-2, .cls-3, .cls-4 {
        stroke-width: 2.25px;
      }

      .cls-3, .cls-4 {
        stroke-linejoin: round;
      }
    </style>
  </defs>
  <g id="Layer_1-2" data-name="Layer 1">
    <g>
      <path class="cls-1" d="M15.2,51.95c0,1.29,1.15,2.34,2.56,2.34s2.56-1.05,2.56-2.34-1.25-1.87-2.56-2.34c-1.4-.5-2.56-1.05-2.56-2.34s1.15-2.34,2.56-2.34,2.56,1.05,2.56,2.34M22.4,39.33v15.18M46.82,46.3v12.94M43.76,52.58c-.85,1.03-2.13,1.69-3.57,1.69-2.55,0-4.62-2.07-4.62-4.62s2.07-4.62,4.62-4.62,4.62,2.05,4.62,4.61h-6.75M32.51,52.58c-.85,1.03-2.13,1.69-3.57,1.69-2.55,0-4.62-2.07-4.62-4.62s2.07-4.62,4.62-4.62,4.62,2.05,4.62,4.61h-6.75M51.48,45.02c2.55,0,4.62,2.07,4.62,4.62s-2.07,4.62-4.62,4.62-4.62-2.07-4.62-4.62,2.07-4.62,4.62-4.62Z"/>
      <polygon points="80.09 37.18 82.83 34.14 86.89 34.67 84.84 31.13 86.61 27.43 82.6 28.29 79.64 25.47 79.2 29.53 75.61 31.49 79.34 33.16 80.09 37.18"/>
      <polygon points="64.2 29.42 66.08 27.34 68.85 27.7 67.46 25.28 68.66 22.75 65.92 23.34 63.89 21.4 63.6 24.19 61.13 25.53 63.69 26.67 64.2 29.42"/>
      <polygon points="74.35 19.28 76.53 16.87 79.76 17.29 78.13 14.47 79.53 11.53 76.35 12.21 73.99 9.97 73.64 13.2 70.78 14.75 73.75 16.09 74.35 19.28"/>
      <path class="cls-3" d="M55.68,14.52c-1.79,2.8-2.65,6.21-2.23,9.77.99,8.13,8.38,13.92,16.5,12.93.71-.09,1.38-.23,2.05-.41-2.3,3.6-6.13,6.18-10.71,6.73-8.13.99-15.52-4.8-16.5-12.93-.9-7.43,3.86-14.21,10.88-16.09Z"/>
      <path class="cls-4" d="M45.03,20.26l-9.57-8.32-24.09,21.57v27.53h48.18v-12.3"/>
      <polyline class="cls-2" points=".74 31.71 11.57 22.22 11.57 6.6 19.11 6.6 19.11 15.67 35.36 1.49 46.58 11.09"/>
    </g>
  </g>
</svg>