<?xml version="1.0" encoding="UTF-8"?>
<svg id="Layer_2" data-name="Layer 2" xmlns="http://www.w3.org/2000/svg" viewBox="0 0 48.39 68.54">
  <defs>
    <style>
      .cls-1 {
        fill: none;
        stroke: #000;
        stroke-miterlimit: 10;
        stroke-width: 2.5px;
      }

      .cls-2 {
        fill-rule: evenodd;
      }
    </style>
  </defs>
  <g id="Layer_1-2" data-name="Layer 1">
    <g>
      <polyline class="cls-1" points="23.01 14.76 23.01 67.29 5.14 67.29 5.14 10.98 13.93 11"/>
      <polyline class="cls-1" points="35.17 10.98 43 10.98 43 67.29 24.02 67.29 24.02 14.76"/>
      <path class="cls-1" d="M12.74,7.05H1.25v60.24M35.64,7.05h11.49v60.24"/>
      <path class="cls-2" d="M20.6.46c.31.4,3.36,3.94,3.67,4.26.31.32.09.68-.38.68h-2.15s-.1,4.52-.1,4.88-.1.59-.41.59h-2.58c-.33,0-.27-.53-.27-.53l-.06-5.03s-1.56.04-2.17.04-.37-.57-.37-.57L19.47.37c.44-.55.67-.47,1.13.09"/>
      <path class="cls-2" d="M29.02,15.61c.31-.4,3.36-3.94,3.67-4.26.31-.32.09-.68-.38-.68h-2.15s-.1-4.52-.1-4.88-.1-.59-.41-.59h-2.58c-.33,0-.27.53-.27.53l-.06,5.03s-1.56-.04-2.17-.04-.37.57-.37.57l3.68,4.42c.44.55.67.47,1.13-.09"/>
    </g>
  </g>
</svg>