<?xml version="1.0" encoding="UTF-8"?>
<svg id="Layer_2" data-name="Layer 2" xmlns="http://www.w3.org/2000/svg" viewBox="0 0 57.24 64.54">
  <defs>
    <style>
      .cls-1 {
        stroke-miterlimit: 22.93;
      }

      .cls-1, .cls-2 {
        fill: none;
        stroke: #141313;
        stroke-width: 2.5px;
      }

      .cls-2 {
        stroke-miterlimit: 10;
      }

      .cls-3 {
        fill: #141313;
      }
    </style>
  </defs>
  <g id="Layer_1-2" data-name="Layer 1">
    <g>
      <path class="cls-3" d="M51.19,4.22c0,.43-.35.78-.78.78s-.78-.35-.78-.78.35-.78.78-.78.78.35.78.78Z"/>
      <path class="cls-1" d="M51.19,4.22c0,.43-.35.78-.78.78s-.78-.35-.78-.78.35-.78.78-.78.78.35.78.78Z"/>
      <path class="cls-3" d="M44.89,2.28c0,.57-.46,1.03-1.03,1.03s-1.03-.46-1.03-1.03.46-1.03,1.03-1.03,1.03.46,1.03,1.03Z"/>
      <path class="cls-1" d="M44.89,2.28c0,.57-.46,1.03-1.03,1.03s-1.03-.46-1.03-1.03.46-1.03,1.03-1.03,1.03.46,1.03,1.03Z"/>
      <path class="cls-3" d="M37.8,2.85c0,.85-.68,1.53-1.53,1.53s-1.53-.68-1.53-1.53.69-1.53,1.53-1.53,1.53.68,1.53,1.53Z"/>
      <path class="cls-1" d="M37.8,2.85c0,.85-.68,1.53-1.53,1.53s-1.53-.68-1.53-1.53.69-1.53,1.53-1.53,1.53.68,1.53,1.53Z"/>
      <path class="cls-3" d="M55.99,8.2c0,.43-.35.78-.78.78s-.78-.35-.78-.78.35-.78.78-.78.78.35.78.78Z"/>
      <path class="cls-1" d="M55.99,8.2c0,.43-.35.78-.78.78s-.78-.35-.78-.78.35-.78.78-.78.78.35.78.78Z"/>
      <path class="cls-3" d="M6.05,23.6c0,.43.35.78.78.78s.78-.35.78-.78-.35-.78-.78-.78-.78.35-.78.78Z"/>
      <path class="cls-1" d="M6.05,23.6c0,.43.35.78.78.78s.78-.35.78-.78-.35-.78-.78-.78-.78.35-.78.78Z"/>
      <path class="cls-3" d="M12.35,21.65c0,.57.46,1.03,1.03,1.03s1.03-.46,1.03-1.03-.46-1.03-1.03-1.03-1.03.46-1.03,1.03Z"/>
      <path class="cls-1" d="M12.35,21.65c0,.57.46,1.03,1.03,1.03s1.03-.46,1.03-1.03-.46-1.03-1.03-1.03-1.03.46-1.03,1.03Z"/>
      <path class="cls-3" d="M19.44,22.23c0,.85.68,1.53,1.53,1.53s1.53-.68,1.53-1.53-.69-1.53-1.53-1.53-1.53.68-1.53,1.53Z"/>
      <path class="cls-1" d="M19.44,22.23c0,.85.68,1.53,1.53,1.53s1.53-.68,1.53-1.53-.69-1.53-1.53-1.53-1.53.68-1.53,1.53Z"/>
      <path class="cls-3" d="M1.25,27.57c0,.43.35.78.78.78s.78-.35.78-.78-.35-.78-.78-.78-.78.35-.78.78Z"/>
      <path class="cls-1" d="M1.25,27.57c0,.43.35.78.78.78s.78-.35.78-.78-.35-.78-.78-.78-.78.35-.78.78Z"/>
      <path class="cls-2" d="M38.58,9.24c-6.15,2.1-6.04,7.75-3,11.47,4.44,5.43-.01,9.37-2.14,12.77-4.59,7.33,4.57,10.1,4.57,10.1,8.88,2.31,15.57-16.98,15.57-16.98,3.59-13.58-5.02-16.88-5.48-17.09-3.62-1.7-8.26-.69-9.53-.26Z"/>
      <path class="cls-2" d="M9.24,29.02c-.46.22-9.07,3.51-5.48,17.09,0,0,6.7,19.29,15.57,16.98,0,0,9.17-2.77,4.57-10.1-2.13-3.4-6.58-7.34-2.14-12.77,3.04-3.72,3.15-9.37-3-11.47-1.26-.43-5.91-1.44-9.53.26Z"/>
    </g>
  </g>
</svg>