<?xml version="1.0" encoding="UTF-8"?>
<svg id="Layer_2" data-name="Layer 2" xmlns="http://www.w3.org/2000/svg" viewBox="0 0 59.49 59.49">
  <defs>
    <style>
      .cls-1 {
        stroke-linecap: round;
      }

      .cls-1, .cls-2 {
        fill: none;
        stroke: #141313;
        stroke-miterlimit: 10;
        stroke-width: 2.5px;
      }
    </style>
  </defs>
  <g id="Layer_1-2" data-name="Layer 1">
    <g>
      <path class="cls-2" d="M24.69,39.13c-4.21,6.74-9.12,14.33-10.91,16.12-3.38,3.38-8.25,3.98-10.89,1.34-2.64-2.64-2.04-7.51,1.34-10.89,1.79-1.79,9.37-6.69,16.09-10.9"/>
      <path class="cls-2" d="M30.42,4.72c4.08-1.27,8.49-1.16,12.52.32"/>
      <path class="cls-2" d="M38.91,42.54c-5.84.82-11.97-1.02-16.46-5.5-4.5-4.5-6.33-10.64-5.5-16.48"/>
      <path class="cls-2" d="M54.38,16.38c1.55,4.1,1.67,8.61.36,12.77"/>
      <path class="cls-2" d="M52.58,45.53c-3.3,3.3-8.64,3.3-11.94,0-3.3-3.3-3.3-8.64,0-11.94,3.3-3.3,8.64-3.3,11.94,0,3.3,3.29,3.3,8.64,0,11.94Z"/>
      <path class="cls-1" d="M44.41,37.34c.58-.58,1.33-.86,2.08-.86"/>
      <path class="cls-2" d="M55.77,15.66c-3.3,3.3-8.64,3.3-11.94,0-3.3-3.3-3.3-8.64,0-11.94,3.3-3.3,8.64-3.3,11.94,0,3.3,3.3,3.3,8.64,0,11.94Z"/>
      <path class="cls-1" d="M47.63,7.38c.58-.57,1.33-.86,2.08-.86"/>
      <path class="cls-2" d="M25.9,18.86c-3.3,3.3-8.64,3.3-11.94,0-3.3-3.3-3.3-8.64,0-11.94,3.3-3.3,8.64-3.3,11.94,0,3.3,3.3,3.3,8.64,0,11.94Z"/>
      <path class="cls-1" d="M17.71,10.58c.58-.58,1.33-.86,2.08-.86"/>
    </g>
  </g>
</svg>