<?xml version="1.0" encoding="UTF-8"?>
<svg id="Layer_2" data-name="Layer 2" xmlns="http://www.w3.org/2000/svg" viewBox="0 0 73.7 68.22">
  <defs>
    <style>
      .cls-1 {
        stroke-miterlimit: 10;
      }

      .cls-1, .cls-2, .cls-3, .cls-4 {
        fill: none;
        stroke: #141313;
        stroke-width: 2.5px;
      }

      .cls-1, .cls-3 {
        stroke-linecap: round;
      }

      .cls-5 {
        fill: #fff;
      }

      .cls-2 {
        stroke-miterlimit: 22.93;
      }

      .cls-6 {
        fill: #141313;
      }

      .cls-3, .cls-4 {
        stroke-linejoin: round;
      }
    </style>
  </defs>
  <g id="Layer_1-2" data-name="Layer 1">
    <g>
      <path class="cls-3" d="M1.25,39.04c6.63-9.7,20.08-16.34,35.61-16.34s28.96,6.64,35.6,16.34"/>
      <line class="cls-3" x1="27.7" y1="50.4" x2="27.7" y2="24.07"/>
      <path class="cls-6" d="M27.7,49.36h0c-1.08,0-2.04.7-2.38,1.73l-1.16,3.57h-3.75c-1.08,0-2.04.7-2.38,1.73-.33,1.03.03,2.16.91,2.79l3.03,2.2-1.16,3.57c-.33,1.03.03,2.16.91,2.79.44.32.95.48,1.47.48s1.03-.16,1.47-.48l3.03-2.2,3.03,2.2c.44.32.95.48,1.47.48s1.03-.16,1.47-.48c.88-.64,1.24-1.76.91-2.79l-1.16-3.57,2.99-2.17c.65-.45,1.08-1.2,1.08-2.06,0-1.38-1.12-2.5-2.5-2.5h-3.75l-1.16-3.56c-.33-1.03-1.29-1.73-2.38-1.73M34.99,57.15h0,0ZM27.7,51.86l1.72,5.29h5.57l-4.5,3.27,1.72,5.29-4.5-3.27-4.5,3.27,1.72-5.29-4.5-3.27h5.57l1.72-5.29Z"/>
      <path class="cls-5" d="M31.7,35.4c0,2.21-1.79,4-4,4s-4-1.79-4-4,1.79-4,4-4,4,1.79,4,4Z"/>
      <path class="cls-4" d="M31.7,35.4c0,2.21-1.79,4-4,4s-4-1.79-4-4,1.79-4,4-4,4,1.79,4,4Z"/>
      <line class="cls-3" x1="45.41" y1="46.7" x2="45.41" y2="23.7"/>
      <path class="cls-5" d="M50.41,48.07c0,2.76-2.24,5-5,5s-5-2.24-5-5,2.24-5,5-5,5,2.24,5,5Z"/>
      <path class="cls-4" d="M50.41,48.07c0,2.76-2.24,5-5,5s-5-2.24-5-5,2.24-5,5-5,5,2.24,5,5Z"/>
      <line class="cls-3" x1="11.29" y1="48.07" x2="11.29" y2="30.04"/>
      <path class="cls-5" d="M15.62,47.28c0,2.39-1.94,4.33-4.33,4.33s-4.33-1.94-4.33-4.33,1.94-4.33,4.33-4.33,4.33,1.94,4.33,4.33Z"/>
      <path class="cls-4" d="M15.62,47.28c0,2.39-1.94,4.33-4.33,4.33s-4.33-1.94-4.33-4.33,1.94-4.33,4.33-4.33,4.33,1.94,4.33,4.33Z"/>
      <line class="cls-3" x1="61.83" y1="46.38" x2="61.83" y2="29.46"/>
      <path class="cls-3" d="M67.45,48.14c-1.07-.78-2.38-1.24-3.78-1.24-3.68,0-6.66,3.13-6.66,7s2.98,7,6.66,7c1.4,0,2.71-.46,3.78-1.24"/>
      <path class="cls-3" d="M67.45,48.14c-1.74,1.26-3.88,3.37-3.88,5.76s2.14,4.5,3.88,5.76"/>
      <path class="cls-6" d="M38.39,2.78c0,.85-.69,1.53-1.53,1.53s-1.53-.68-1.53-1.53.69-1.53,1.53-1.53,1.53.69,1.53,1.53Z"/>
      <path class="cls-2" d="M38.39,2.78c0,.85-.69,1.53-1.53,1.53s-1.53-.68-1.53-1.53.69-1.53,1.53-1.53,1.53.69,1.53,1.53Z"/>
      <line class="cls-1" x1="32.85" y1="16.72" x2="40.85" y2="16.72"/>
      <line class="cls-3" x1="36.85" y1="16.32" x2="36.85" y2="3.32"/>
    </g>
  </g>
</svg>