<?xml version="1.0" encoding="UTF-8"?>
<svg id="Layer_2" data-name="Layer 2" xmlns="http://www.w3.org/2000/svg" viewBox="0 0 62.77 65.92">
  <defs>
    <style>
      .cls-1, .cls-2 {
        stroke-miterlimit: 10;
      }

      .cls-1, .cls-2, .cls-3 {
        fill: none;
        stroke: #141313;
        stroke-width: 2.5px;
      }

      .cls-1, .cls-3 {
        stroke-linecap: round;
      }

      .cls-3 {
        stroke-linejoin: round;
      }
    </style>
  </defs>
  <g id="Layer_1-2" data-name="Layer 1">
    <g>
      <path class="cls-3" d="M60.14,39c-.17,1.09-1.2,1.98-2.3,1.98"/>
      <line class="cls-3" x1="57.84" y1="40.97" x2="17.25" y2="40.97"/>
      <path class="cls-3" d="M17.25,40.97c-1.1,0-2.14-.89-2.3-1.98"/>
      <line class="cls-3" x1="14.94" y1="39" x2="13.59" y2="30.19"/>
      <path class="cls-3" d="M13.59,30.19c-.17-1.09.6-1.98,1.7-1.98"/>
      <line class="cls-3" x1="15.29" y1="28.21" x2="59.8" y2="28.21"/>
      <path class="cls-3" d="M59.8,28.21c1.1,0,1.86.89,1.7,1.98"/>
      <line class="cls-3" x1="61.49" y1="30.19" x2="60.14" y2="39"/>
      <path class="cls-2" d="M35.56,28.16L29.95,2.65c4.32,1.37,8.25,1.18,11.23.58"/>
      <line class="cls-1" x1="36.73" y1="28.16" x2="46.85" y2="1.25"/>
      <line class="cls-1" x1="36.73" y1="28.16" x2="59.86" y2="12.01"/>
      <path class="cls-2" d="M54.54,10.12c-2.53-1.47-5.63-4.34-7.68-8.87"/>
      <path class="cls-1" d="M61.35,29.1s-4.72-7.61-1.31-16.89"/>
      <path class="cls-1" d="M13.53,29.81s-1.27-11.9-12.28-11.9"/>
      <path class="cls-2" d="M57.81,60.32c0,2.4-1.95,4.35-4.35,4.35s-4.35-1.95-4.35-4.35,1.95-4.35,4.35-4.35,4.35,1.95,4.35,4.35Z"/>
      <path class="cls-2" d="M25.16,60.32c0,2.4-1.95,4.35-4.35,4.35s-4.35-1.95-4.35-4.35,1.95-4.35,4.35-4.35,4.35,1.95,4.35,4.35Z"/>
      <line class="cls-2" x1="51.12" y1="41" x2="27" y2="54.79"/>
      <line class="cls-2" x1="23.15" y1="41" x2="47.26" y2="54.79"/>
    </g>
  </g>
</svg>