<?xml version="1.0" encoding="UTF-8"?>
<svg id="Layer_2" data-name="Layer 2" xmlns="http://www.w3.org/2000/svg" viewBox="0 0 41.94 71.68">
  <defs>
    <style>
      .cls-1, .cls-2, .cls-3, .cls-4 {
        fill: none;
        stroke: #141313;
        stroke-width: 2.5px;
      }

      .cls-1, .cls-3 {
        stroke-miterlimit: 10;
      }

      .cls-1, .cls-4 {
        stroke-linecap: round;
      }

      .cls-2 {
        stroke-miterlimit: 22.93;
      }

      .cls-5 {
        fill: #141313;
      }

      .cls-4 {
        stroke-linejoin: round;
      }
    </style>
  </defs>
  <g id="Layer_1-2" data-name="Layer 1">
    <g>
      <line class="cls-3" x1="9.97" y1="4.23" x2="9.97" y2="11.91"/>
      <line class="cls-1" x1="9.97" y1="1.25" x2="9.97" y2="8.56"/>
      <rect class="cls-4" x="13.31" y="23.52" width="15.32" height="8.79"/>
      <path class="cls-3" d="M35.5,33.26c.48-1.49.75-3.07.75-4.72,0-8.44-6.84-15.28-15.28-15.28s-15.28,6.84-15.28,15.28c0,1.65.27,3.23.75,4.72-3.22,6.13-5.19,13.25-5.19,18.2,0,10.48,8.83,18.98,19.72,18.98s19.72-8.5,19.72-18.98c0-4.95-1.97-12.06-5.19-18.2Z"/>
      <path class="cls-5" d="M22.19,51.7c0,.67-.55,1.22-1.22,1.22s-1.22-.55-1.22-1.22.55-1.22,1.22-1.22,1.22.55,1.22,1.22Z"/>
      <path class="cls-2" d="M22.19,51.7c0,.67-.55,1.22-1.22,1.22s-1.22-.55-1.22-1.22.55-1.22,1.22-1.22,1.22.55,1.22,1.22Z"/>
      <path class="cls-5" d="M21.75,42.14c0,.43-.35.78-.78.78s-.78-.35-.78-.78.35-.78.78-.78.78.35.78.78Z"/>
      <path class="cls-2" d="M21.75,42.14c0,.43-.35.78-.78.78s-.78-.35-.78-.78.35-.78.78-.78.78.35.78.78Z"/>
      <path class="cls-5" d="M21.75,61.27c0,.43-.35.78-.78.78s-.78-.35-.78-.78.35-.78.78-.78.78.35.78.78Z"/>
      <path class="cls-2" d="M21.75,61.27c0,.43-.35.78-.78.78s-.78-.35-.78-.78.35-.78.78-.78.78.35.78.78Z"/>
      <path class="cls-5" d="M30.53,52.48c-.43,0-.78-.35-.78-.78s.35-.78.78-.78.78.35.78.78-.35.78-.78.78Z"/>
      <path class="cls-2" d="M30.53,52.48c-.43,0-.78-.35-.78-.78s.35-.78.78-.78.78.35.78.78-.35.78-.78.78Z"/>
      <path class="cls-5" d="M11.41,52.48c-.43,0-.78-.35-.78-.78s.35-.78.78-.78.78.35.78.78-.35.78-.78.78Z"/>
      <path class="cls-2" d="M11.41,52.48c-.43,0-.78-.35-.78-.78s.35-.78.78-.78.78.35.78.78-.35.78-.78.78Z"/>
      <path class="cls-5" d="M27.18,59.01c-.3-.31-.31-.8,0-1.1.3-.3.8-.3,1.1,0,.3.31.3.8,0,1.1-.31.3-.8.3-1.1,0Z"/>
      <path class="cls-2" d="M27.18,59.01c-.3-.31-.31-.8,0-1.1.3-.3.8-.3,1.1,0,.3.31.3.8,0,1.1-.31.3-.8.3-1.1,0Z"/>
      <path class="cls-5" d="M13.66,45.49c-.3-.31-.31-.8,0-1.1.3-.3.8-.31,1.1,0,.31.3.3.8,0,1.1-.3.31-.8.3-1.1,0Z"/>
      <path class="cls-2" d="M13.66,45.49c-.3-.31-.31-.8,0-1.1.3-.3.8-.31,1.1,0,.31.3.3.8,0,1.1-.3.31-.8.3-1.1,0Z"/>
      <path class="cls-5" d="M13.66,57.91c.31-.3.8-.3,1.1,0,.3.3.31.8,0,1.1-.3.3-.8.3-1.1,0-.31-.31-.3-.8,0-1.1Z"/>
      <path class="cls-2" d="M13.66,57.91c.31-.3.8-.3,1.1,0,.3.3.31.8,0,1.1-.3.3-.8.3-1.1,0-.31-.31-.3-.8,0-1.1Z"/>
      <path class="cls-5" d="M27.18,44.39c.31-.31.8-.31,1.1,0,.3.3.3.8,0,1.1-.31.31-.8.3-1.1,0-.31-.31-.3-.8,0-1.1Z"/>
      <path class="cls-2" d="M27.18,44.39c.31-.31.8-.31,1.1,0,.3.3.3.8,0,1.1-.31.31-.8.3-1.1,0-.31-.31-.3-.8,0-1.1Z"/>
    </g>
  </g>
</svg>