<?xml version="1.0" encoding="UTF-8"?>
<svg id="Layer_2" data-name="Layer 2" xmlns="http://www.w3.org/2000/svg" viewBox="0 0 62.43 64.29">
  <defs>
    <style>
      .cls-1, .cls-2, .cls-3 {
        fill: none;
        stroke: #000;
        stroke-width: 2.5px;
      }

      .cls-1, .cls-3 {
        stroke-linejoin: round;
      }

      .cls-2 {
        stroke-miterlimit: 10;
      }

      .cls-3 {
        stroke-linecap: round;
      }
    </style>
  </defs>
  <g id="Layer_1-2" data-name="Layer 1">
    <g>
      <line class="cls-2" x1="55.5" y1="46.14" x2="52.82" y2="60.25"/>
      <path class="cls-2" d="M52.82,60.25c-.29,1.53-1.81,2.78-3.37,2.78"/>
      <line class="cls-2" x1="49.45" y1="63.04" x2="13.08" y2="63.04"/>
      <path class="cls-2" d="M13.08,63.04c-1.56,0-3.08-1.25-3.37-2.78"/>
      <line class="cls-2" x1="9.71" y1="60.26" x2="7.9" y2="50.87"/>
      <path class="cls-3" d="M55.22,40.19c1.41-1.94.83-4.59.83-4.59-.27-2.28-2.46-3.89-4.9-3.6-.81.1-1.54.4-2.15.83.46-.91.67-1.95.55-3.02-.36-3.08-3.33-5.27-6.65-4.88-3.11.36-5.41,2.87-5.38,5.73-.74-1.93-2.82-3.2-5.12-2.93-2.68.31-4.55,2.88-4.26,5.37-.92-1.29-2.5-1.78-4.29-1.58-1.94.22-3.46,1.53-3.95,3.19-.41-3.53-3.86-6.05-7.7-5.6-3.84.45-6.62,3.67-6.21,7.21,0,0,.19,2.25.91,3.79"/>
      <line class="cls-3" x1="13.08" y1="46.23" x2="3.97" y2="46.23"/>
      <path class="cls-3" d="M3.97,46.23c-1.5,0-2.72-1.26-2.72-2.79"/>
      <line class="cls-3" x1="1.25" y1="43.44" x2="1.25" y2="42.98"/>
      <path class="cls-3" d="M1.25,42.98c0-1.53,1.22-2.79,2.72-2.79"/>
      <line class="cls-3" x1="3.97" y1="40.19" x2="58.47" y2="40.19"/>
      <path class="cls-3" d="M58.47,40.19c1.49,0,2.72,1.25,2.72,2.79"/>
      <line class="cls-3" x1="61.18" y1="42.98" x2="61.18" y2="43.44"/>
      <path class="cls-3" d="M61.18,43.44c0,1.53-1.22,2.79-2.72,2.79"/>
      <line class="cls-3" x1="58.47" y1="46.23" x2="24.22" y2="46.23"/>
      <line class="cls-3" x1="17.2" y1="18.07" x2="18.28" y2="11.86"/>
      <path class="cls-1" d="M17.2,25.05v-6.98l-10.32-2.55L13.31,3.82l10.42-2.57s1.32,4.98,7.39,4.98,7.47-4.98,7.47-4.98l10.42,2.57,6.43,11.7-10.32,2.55v7.06"/>
      <line class="cls-3" x1="45.12" y1="18.07" x2="44.04" y2="11.86"/>
    </g>
  </g>
</svg>