<?xml version="1.0" encoding="UTF-8"?>
<svg id="Layer_2" data-name="Layer 2" xmlns="http://www.w3.org/2000/svg" viewBox="0 0 57.6 62.85">
  <defs>
    <style>
      .cls-1, .cls-2 {
        stroke-linejoin: round;
      }

      .cls-1, .cls-2, .cls-3 {
        fill: none;
        stroke: #000;
        stroke-width: 2.5px;
      }

      .cls-2 {
        stroke-linecap: round;
      }

      .cls-3 {
        stroke-miterlimit: 22.93;
      }
    </style>
  </defs>
  <g id="Layer_1-2" data-name="Layer 1">
    <g>
      <path class="cls-2" d="M46.27,29.89c8.5-4.61,9.18-14.65,1.51-22.31"/>
      <line class="cls-2" x1="47.78" y1="7.57" x2="46.74" y2="6.53"/>
      <path class="cls-2" d="M46.74,6.53C39.07-1.13,27.97-.28,24.3,7.96c0,0-3.27,7.61-6.24,10.58-2.91,2.91-9.88,5.74-9.88,5.74C-.57,28.5-.99,38.93,6.67,46.6"/>
      <line class="cls-2" x1="6.67" y1="46.6" x2="7.71" y2="47.64"/>
      <path class="cls-2" d="M7.71,47.64c7.66,7.66,17.76,7.02,22.44-1.43"/>
      <line class="cls-2" x1="30.15" y1="46.21" x2="30.14" y2="46.2"/>
      <path class="cls-2" d="M30.14,46.2s3.27-7.61,6.24-10.58c2.91-2.91,9.87-5.74,9.87-5.74"/>
      <line class="cls-2" x1="46.26" y1="29.88" x2="46.27" y2="29.89"/>
      <line class="cls-1" x1="52.08" y1="13.82" x2="55.79" y2="23.49"/>
      <path class="cls-1" d="M55.79,23.49c1.73,5.94-.53,11.36-6.32,14.5"/>
      <line class="cls-1" x1="49.47" y1="37.99" x2="49.46" y2="37.98"/>
      <path class="cls-1" d="M49.46,37.98s-6.96,2.82-9.88,5.74c-2.97,2.97-6.24,10.58-6.24,10.58"/>
      <line class="cls-1" x1="33.35" y1="54.3" x2="33.36" y2="54.31"/>
      <path class="cls-1" d="M33.36,54.31c-4.54,8.19-14.99,10.23-21.8,2.23"/>
      <path d="M39.66,10.35c0,.43-.35.78-.78.78s-.78-.35-.78-.78.35-.78.78-.78.78.35.78.78Z"/>
      <path class="cls-3" d="M39.66,10.35c0,.43-.35.78-.78.78s-.78-.35-.78-.78.35-.78.78-.78.78.35.78.78Z"/>
      <path d="M29.37,24.1c0,.43-.35.78-.78.78s-.78-.35-.78-.78.35-.78.78-.78.78.35.78.78Z"/>
      <path class="cls-3" d="M29.37,24.1c0,.43-.35.78-.78.78s-.78-.35-.78-.78.35-.78.78-.78.78.35.78.78Z"/>
      <path d="M27.86,33.65c0,.43-.35.78-.78.78s-.78-.35-.78-.78.35-.78.78-.78.78.35.78.78Z"/>
      <path class="cls-3" d="M27.86,33.65c0,.43-.35.78-.78.78s-.78-.35-.78-.78.35-.78.78-.78.78.35.78.78Z"/>
      <path d="M10.53,32.98c0,.43-.35.78-.78.78s-.78-.35-.78-.78.35-.78.78-.78.78.35.78.78Z"/>
      <path class="cls-3" d="M10.53,32.98c0,.43-.35.78-.78.78s-.78-.35-.78-.78.35-.78.78-.78.78.35.78.78Z"/>
      <path d="M20.56,29.01c0,.43-.35.78-.78.78s-.78-.35-.78-.78.35-.78.78-.78.78.35.78.78Z"/>
      <path class="cls-3" d="M20.56,29.01c0,.43-.35.78-.78.78s-.78-.35-.78-.78.35-.78.78-.78.78.35.78.78Z"/>
      <path d="M38.08,25.85c0,.43-.35.78-.78.78s-.78-.35-.78-.78.35-.78.78-.78.78.35.78.78Z"/>
      <path class="cls-3" d="M38.08,25.85c0,.43-.35.78-.78.78s-.78-.35-.78-.78.35-.78.78-.78.78.35.78.78Z"/>
      <path d="M32.17,15.53c0,.71-.57,1.28-1.28,1.28s-1.28-.57-1.28-1.28.58-1.28,1.28-1.28,1.28.57,1.28,1.28Z"/>
      <path class="cls-3" d="M32.17,15.53c0,.71-.57,1.28-1.28,1.28s-1.28-.57-1.28-1.28.58-1.28,1.28-1.28,1.28.57,1.28,1.28Z"/>
      <path d="M45.5,19.78c0,.75-.61,1.36-1.36,1.36s-1.36-.61-1.36-1.36.61-1.36,1.36-1.36,1.36.61,1.36,1.36Z"/>
      <path class="cls-3" d="M45.5,19.78c0,.75-.61,1.36-1.36,1.36s-1.36-.61-1.36-1.36.61-1.36,1.36-1.36,1.36.61,1.36,1.36Z"/>
      <path d="M19.4,41.08c0,.75-.61,1.36-1.36,1.36s-1.36-.61-1.36-1.36.61-1.36,1.36-1.36,1.36.61,1.36,1.36Z"/>
      <path class="cls-3" d="M19.4,41.08c0,.75-.61,1.36-1.36,1.36s-1.36-.61-1.36-1.36.61-1.36,1.36-1.36,1.36.61,1.36,1.36Z"/>
    </g>
  </g>
</svg>