<?xml version="1.0" encoding="UTF-8"?>
<svg id="Layer_2" data-name="Layer 2" xmlns="http://www.w3.org/2000/svg" viewBox="0 0 73.82 65.8">
  <defs>
    <style>
      .cls-1, .cls-2 {
        fill: none;
        stroke: #000;
        stroke-linejoin: round;
        stroke-width: 2.5px;
      }

      .cls-2 {
        stroke-linecap: round;
      }
    </style>
  </defs>
  <g id="Layer_1-2" data-name="Layer 1">
    <g>
      <line class="cls-1" x1="46.95" y1="26.12" x2="61.42" y2="15.33"/>
      <path class="cls-1" d="M61.42,15.33c1.24-.94,1.5-2.72.56-3.97"/>
      <line class="cls-1" x1="61.98" y1="11.36" x2="61.26" y2="10.41"/>
      <path class="cls-1" d="M61.26,10.41c-.94-1.25-2.72-1.5-3.97-.56"/>
      <line class="cls-1" x1="57.3" y1="9.85" x2="46.82" y2="17.68"/>
      <line class="cls-1" x1="50.96" y1="31.75" x2="69.83" y2="17.57"/>
      <path class="cls-1" d="M69.83,17.57c1.25-.94,1.5-2.72.56-3.97"/>
      <line class="cls-1" x1="70.39" y1="13.6" x2="69.67" y2="12.66"/>
      <path class="cls-1" d="M69.67,12.66c-.94-1.25-2.72-1.5-3.97-.56"/>
      <line class="cls-1" x1="65.7" y1="12.1" x2="46.95" y2="26.12"/>
      <line class="cls-1" x1="55.03" y1="37.26" x2="71.45" y2="24.94"/>
      <path class="cls-1" d="M71.45,24.94c1.24-.94,1.5-2.72.56-3.97"/>
      <line class="cls-1" x1="72" y1="20.97" x2="71.29" y2="20.02"/>
      <path class="cls-1" d="M71.29,20.02c-.94-1.24-2.72-1.5-3.97-.56"/>
      <line class="cls-1" x1="67.32" y1="19.46" x2="50.96" y2="31.76"/>
      <line class="cls-1" x1="46.58" y1="52.2" x2="71.15" y2="33.74"/>
      <path class="cls-1" d="M71.15,33.74c1.25-.94,1.5-2.72.56-3.97"/>
      <line class="cls-1" x1="71.71" y1="29.77" x2="70.99" y2="28.82"/>
      <path class="cls-1" d="M70.99,28.82c-.94-1.25-2.72-1.5-3.97-.56"/>
      <line class="cls-1" x1="67.02" y1="28.27" x2="55.03" y2="37.27"/>
      <line class="cls-1" x1="21.47" y1="28.18" x2="21.47" y2="9.45"/>
      <path class="cls-1" d="M21.47,9.45c0-1.56-1.27-2.83-2.83-2.83"/>
      <line class="cls-1" x1="18.63" y1="6.61" x2="17.45" y2="6.61"/>
      <path class="cls-1" d="M17.45,6.61c-1.56,0-2.83,1.28-2.83,2.83"/>
      <line class="cls-1" x1="14.61" y1="9.45" x2="14.61" y2="32.49"/>
      <line class="cls-1" x1="28.32" y1="28.18" x2="28.32" y2="4.08"/>
      <path class="cls-1" d="M28.32,4.08c0-1.56-1.27-2.83-2.83-2.83"/>
      <line class="cls-1" x1="25.49" y1="1.25" x2="24.3" y2="1.25"/>
      <path class="cls-1" d="M24.3,1.25c-1.56,0-2.84,1.27-2.84,2.83"/>
      <line class="cls-1" x1="21.47" y1="4.08" x2="21.47" y2="28.18"/>
      <line class="cls-1" x1="35.18" y1="28.18" x2="35.18" y2="7.22"/>
      <path class="cls-1" d="M35.18,7.22c0-1.56-1.27-2.83-2.83-2.83"/>
      <line class="cls-1" x1="32.34" y1="4.39" x2="31.16" y2="4.39"/>
      <path class="cls-1" d="M31.16,4.39c-1.56,0-2.84,1.28-2.84,2.83"/>
      <line class="cls-1" x1="28.32" y1="7.22" x2="28.32" y2="28.18"/>
      <line class="cls-2" x1="18.08" y1="36.37" x2="7.83" y2="25.08"/>
      <path class="cls-2" d="M7.83,25.08c-1.26-1.38-3.62-1.51-5.12-.38-1.49,1.13-1.95,3.39-.87,4.93"/>
      <polyline class="cls-2" points="1.84 29.63 13.49 46.24 13.54 46.31"/>
      <path class="cls-2" d="M13.54,46.31s0,1.4,0,5.58-1.06,12.67-1.06,12.67"/>
      <line class="cls-2" x1="12.48" y1="64.55" x2="42.49" y2="64.55"/>
      <path class="cls-2" d="M42.49,64.55s-1.08-13.06-1.08-20.57.35-20.87.35-20.87"/>
      <line class="cls-2" x1="41.76" y1="23.11" x2="42.03" y2="12.7"/>
      <path class="cls-2" d="M42.03,12.7c0-1.53-1.25-2.78-2.78-2.78"/>
      <line class="cls-2" x1="39.25" y1="9.92" x2="37.95" y2="9.92"/>
      <path class="cls-2" d="M37.95,9.92c-1.53,0-2.78,1.25-2.78,2.78"/>
      <line class="cls-2" x1="35.18" y1="12.7" x2="35.18" y2="17.07"/>
    </g>
  </g>
</svg>