<?xml version="1.0" encoding="UTF-8"?>
<svg id="Layer_2" data-name="Layer 2" xmlns="http://www.w3.org/2000/svg" viewBox="0 0 63.25 67.85">
  <defs>
    <style>
      .cls-1, .cls-2 {
        fill: none;
        stroke: #000;
        stroke-linejoin: round;
        stroke-width: 2.5px;
      }

      .cls-2 {
        stroke-linecap: round;
      }
    </style>
  </defs>
  <g id="Layer_1-2" data-name="Layer 1">
    <g>
      <path class="cls-2" d="M23.51,66.57v-13.26c0-3.94-1.97-4.64-3.83-4.64H6.58c-5.16,0-5.33-8.35-5.33-8.35"/>
      <line class="cls-2" x1="1.25" y1="40.32" x2="1.25" y2="6.51"/>
      <path class="cls-2" d="M1.25,6.51C1.25,3.62,3.62,1.25,6.51,1.25"/>
      <line class="cls-2" x1="6.51" y1="1.25" x2="11.99" y2="1.25"/>
      <path class="cls-2" d="M11.99,1.25c2.89,0,5.26,2.37,5.26,5.26"/>
      <line class="cls-2" x1="17.25" y1="6.51" x2="17.25" y2="40.09"/>
      <line class="cls-2" x1="40.66" y1="66.6" x2="40.66" y2="63.23"/>
      <line class="cls-1" x1="40.66" y1="64.4" x2="40.66" y2="60.39"/>
      <line class="cls-2" x1="34.49" y1="56.25" x2="42.12" y2="56.25"/>
      <path class="cls-2" d="M42.12,56.25c8.81,0,16.12-6.76,17-15.35"/>
      <line class="cls-2" x1="23.75" y1="34.62" x2="59.37" y2="34.62"/>
      <path class="cls-2" d="M59.37,34.62c1.45,0,2.63,1.18,2.63,2.63"/>
      <line class="cls-2" x1="62" y1="37.25" x2="62" y2="37.94"/>
      <path class="cls-2" d="M62,37.94c0,1.44-1.18,2.63-2.63,2.63"/>
      <line class="cls-2" x1="59.37" y1="40.57" x2="2.87" y2="40.57"/>
    </g>
  </g>
</svg>