<?xml version="1.0" encoding="UTF-8"?>
<svg id="Layer_2" data-name="Layer 2" xmlns="http://www.w3.org/2000/svg" viewBox="0 0 81.7 65.33">
  <defs>
    <style>
      .cls-1, .cls-2 {
        fill: none;
        stroke: #000;
        stroke-miterlimit: 10;
        stroke-width: 2.5px;
      }

      .cls-2 {
        stroke-linecap: round;
      }
    </style>
  </defs>
  <g id="Layer_1-2" data-name="Layer 1">
    <g>
      <line class="cls-1" x1="4.22" y1="46.78" x2="4.22" y2="43.7"/>
      <path class="cls-1" d="M4.22,43.7c0-7.57,6.03-12.34,13.4-10.58"/>
      <line class="cls-1" x1="17.61" y1="33.11" x2="37.82" y2="38.64"/>
      <path class="cls-1" d="M37.82,38.64c7.66,2.04,13.4,7.72,13.4,16.47,0,6.07-4.57,7.53-12.14,7.53"/>
      <line class="cls-1" x1="39.08" y1="62.64" x2="23.29" y2="62.64"/>
      <line class="cls-1" x1="26.04" y1="54.54" x2="50.72" y2="54.54"/>
      <line class="cls-1" x1="40.13" y1="34.39" x2="41.28" y2="30.02"/>
      <path class="cls-1" d="M41.28,30.02s3.08-9.08-7.33-10.17c0,0-16.8-1.42-5.15-14.29,0,0,10.13-11.67,16.76,3.4"/>
      <line class="cls-1" x1="45.56" y1="8.96" x2="62.16" y2="54.5"/>
      <line class="cls-2" x1="76.48" y1="56.81" x2="62.22" y2="54.86"/>
      <path class="cls-2" d="M62.22,54.86c-2.27,0-3.88,2.23-3.88,4.5"/>
      <polyline class="cls-2" points="58.34 59.36 58.34 61.91 80.45 61.91 80.45 60.54"/>
      <path class="cls-1" d="M21.34,54.03c0,5.55-4.5,10.04-10.05,10.04S1.25,59.58,1.25,54.03s4.5-10.05,10.05-10.05,10.05,4.5,10.05,10.05Z"/>
      <path class="cls-1" d="M15.29,54.03c0,2.21-1.79,3.99-3.99,3.99s-3.99-1.78-3.99-3.99,1.79-3.99,3.99-3.99,3.99,1.79,3.99,3.99Z"/>
    </g>
  </g>
</svg>