<?xml version="1.0" encoding="UTF-8"?>
<svg id="Layer_2" data-name="Layer 2" xmlns="http://www.w3.org/2000/svg" viewBox="0 0 66.97 61.78">
  <defs>
    <style>
      .cls-1, .cls-2, .cls-3, .cls-4 {
        fill: none;
        stroke: #000;
        stroke-width: 2.5px;
      }

      .cls-1, .cls-3 {
        stroke-miterlimit: 10;
      }

      .cls-2 {
        stroke-linejoin: round;
      }

      .cls-2, .cls-3 {
        stroke-linecap: round;
      }

      .cls-4 {
        stroke-miterlimit: 22.93;
      }
    </style>
  </defs>
  <g id="Layer_1-2" data-name="Layer 1">
    <g>
      <path class="cls-1" d="M31.34,58.31c-1.58.31-3.21.47-4.88.47-13.92,0-25.22-11.29-25.22-25.21S12.54,8.35,26.47,8.35c5.2,0,10.02,1.57,14.04,4.26"/>
      <path class="cls-1" d="M29.89,47.13c-1.09.27-2.24.42-3.42.42-7.73,0-13.99-6.26-13.99-13.99s6.26-13.99,13.99-13.99c1.93,0,3.77.39,5.45,1.1"/>
      <polyline class="cls-1" points="46.5 15.35 46.5 7.38 54.1 7.38 54.1 15.35"/>
      <line class="cls-1" x1="50.3" y1="7.36" x2="50.3" y2="1.54"/>
      <line class="cls-3" x1="46.61" y1="1.25" x2="53.98" y2="1.25"/>
      <path class="cls-1" d="M42.99,60.53c-7.8,0-8-7.2-8-7.2-.3-3.3-.03-6.59,1.2-9.2,2.4-5.1,2.89-9.91,1.9-12.1-2.5-5.57-1.7-8.9-1.7-8.9.5-3.7,9-7.6,9-7.6h9.82s8.5,3.9,9,7.6c0,0,.8,3.33-1.7,8.9-.99,2.19-.5,7,1.9,12.1,1.23,2.61,1.5,5.9,1.2,9.2,0,0-.2,7.2-8,7.2"/>
      <line class="cls-1" x1="42.99" y1="60.53" x2="57.61" y2="60.53"/>
      <line class="cls-2" x1="37.37" y1="25.69" x2="56.92" y2="25.69"/>
      <path d="M49.67,37.07c0,.43-.35.78-.78.78s-.78-.35-.78-.78.35-.78.78-.78.78.35.78.78Z"/>
      <path class="cls-4" d="M49.67,37.07c0,.43-.35.78-.78.78s-.78-.35-.78-.78.35-.78.78-.78.78.35.78.78Z"/>
      <path d="M55.77,42.31c0,.54-.43.97-.97.97s-.97-.43-.97-.97.43-.97.97-.97.97.43.97.97Z"/>
      <path class="cls-4" d="M55.77,42.31c0,.54-.43.97-.97.97s-.97-.43-.97-.97.43-.97.97-.97.97.43.97.97Z"/>
      <path d="M46.9,48.88c0,.53-.43.97-.97.97s-.97-.43-.97-.97.43-.97.97-.97.97.43.97.97Z"/>
      <path class="cls-4" d="M46.9,48.88c0,.53-.43.97-.97.97s-.97-.43-.97-.97.43-.97.97-.97.97.43.97.97Z"/>
    </g>
  </g>
</svg>