<?xml version="1.0" encoding="UTF-8"?>
<svg id="Layer_2" data-name="Layer 2" xmlns="http://www.w3.org/2000/svg" viewBox="0 0 73.82 69.21">
  <defs>
    <style>
      .cls-1 {
        stroke-miterlimit: 10;
      }

      .cls-1, .cls-2 {
        fill: none;
        stroke: #000;
        stroke-width: 2.5px;
      }

      .cls-2 {
        stroke-linecap: round;
        stroke-linejoin: round;
      }
    </style>
  </defs>
  <g id="Layer_1-2" data-name="Layer 1">
    <g>
      <path class="cls-1" d="M7.45,43.23c-3.45.18-6.2,2.44-6.2,6.42,0,3.14,2.99,6.12,6.64,6.12"/>
      <line class="cls-1" x1="7.89" y1="55.77" x2="19.57" y2="55.77"/>
      <path class="cls-1" d="M19.57,55.77c3.65,0,5.97,1.33,6.64,3.21.59,1.66,2.99,3.21,6.64,3.21"/>
      <line class="cls-1" x1="32.85" y1="62.19" x2="60.85" y2="62.19"/>
      <path class="cls-1" d="M60.85,62.19c9.84,0,11.72-4.64,11.72-9.75"/>
      <path class="cls-1" d="M72.57,52.44c0-5.52-1.08-8.5-7.33-9.35"/>
      <path class="cls-1" d="M21.33,64.73c0,1.78-1.66,3.23-3.68,3.23"/>
      <path class="cls-1" d="M15.18,67.96c-2.03,0-3.69-1.45-3.69-3.23s1.66-3.23,3.69-3.23"/>
      <line class="cls-1" x1="15.18" y1="61.5" x2="17.64" y2="61.5"/>
      <path class="cls-1" d="M17.64,61.5c2.03,0,3.68,1.45,3.68,3.23"/>
      <path class="cls-2" d="M34.94,19.19s-21.2,9.2-14.72,24.73c0,0,2.75,5.24,11.33,4.41"/>
      <path class="cls-2" d="M38.63,23.25c-6.07,3.55-13.15,13.96-8.68,23.01,0,0,4.4,6.22,14.34,3.83,6.07-1.46,8.99-2.33,14.45,2.36"/>
      <line class="cls-2" x1="40.87" y1="14.52" x2="54.09" y2="1.25"/>
      <polygon class="cls-2" points="33.44 17.05 42.48 26.09 45.3 18.96 40.59 14.25 33.44 17.05"/>
      <path class="cls-2" d="M40.12,24.6s-5.9,11.4,3.81,16.25c0,0,3.02,1.07,8.66.81,3.22-.15,7,1.69,9.3,5.81"/>
      <path class="cls-2" d="M34.94,19.19S6.95,30.65,13.42,46.18c0,0,2.1,5.46,13.63,2.26"/>
      <line class="cls-2" x1="45.08" y1="18.73" x2="58.3" y2="5.46"/>
    </g>
  </g>
</svg>