<?xml version="1.0" encoding="UTF-8"?>
<svg id="Layer_2" data-name="Layer 2" xmlns="http://www.w3.org/2000/svg" viewBox="0 0 62.52 73.98">
  <defs>
    <style>
      .cls-1 {
        stroke-linejoin: round;
      }

      .cls-1, .cls-2, .cls-3 {
        fill: none;
        stroke: #000;
        stroke-width: 2.5px;
      }

      .cls-2 {
        stroke-miterlimit: 10;
      }

      .cls-3 {
        stroke-miterlimit: 22.93;
      }
    </style>
  </defs>
  <g id="Layer_1-2" data-name="Layer 1">
    <g>
      <path d="M52.33,71.07c0,.43-.35.78-.78.78s-.78-.35-.78-.78.35-.78.78-.78.78.35.78.78Z"/>
      <path class="cls-3" d="M52.33,71.07c0,.43-.35.78-.78.78s-.78-.35-.78-.78.35-.78.78-.78.78.35.78.78Z"/>
      <path d="M52.31,62.98c0,.61-.5,1.11-1.11,1.11s-1.11-.5-1.11-1.11.5-1.11,1.11-1.11,1.11.5,1.11,1.11Z"/>
      <path class="cls-3" d="M52.31,62.98c0,.61-.5,1.11-1.11,1.11s-1.11-.5-1.11-1.11.5-1.11,1.11-1.11,1.11.5,1.11,1.11Z"/>
      <path d="M61.27,64.27c0,.43-.35.78-.78.78s-.78-.35-.78-.78.35-.78.78-.78.78.35.78.78Z"/>
      <path class="cls-3" d="M61.27,64.27c0,.43-.35.78-.78.78s-.78-.35-.78-.78.35-.78.78-.78.78.35.78.78Z"/>
      <polyline class="cls-2" points="16.39 59.18 14.62 67.4 28.11 69.93 30.18 58.01"/>
      <path class="cls-2" d="M35.41,27.57c6.56,3.03,10.96,10.38,10.1,17.75"/>
      <polyline class="cls-2" points="45.51 45.33 41.87 72.51 34.86 71.2 36.41 61.23"/>
      <line class="cls-2" x1="1.22" y1="66.05" x2="7.79" y2="38.26"/>
      <path class="cls-2" d="M7.79,38.26c1.88-7.24,8.54-12.54,15.81-12.92"/>
      <line class="cls-1" x1="10.08" y1="33.04" x2="45.16" y2="39.61"/>
      <line class="cls-1" x1="7.58" y1="38.82" x2="45.42" y2="45.91"/>
      <line class="cls-1" x1="36.97" y1="1.25" x2="33.37" y2="20.49"/>
      <line class="cls-1" x1="27.93" y1="19.47" x2="31.53" y2=".23"/>
      <polygon class="cls-2" points="23.55 25.35 35.36 27.56 33.77 20.54 27.61 19.39 23.55 25.35"/>
      <line class="cls-2" x1="24.35" y1="53.04" x2="21.45" y2="68.5"/>
      <line class="cls-2" x1="11.19" y1="52.99" x2="7.82" y2="67.47"/>
    </g>
  </g>
</svg>