<?xml version="1.0" encoding="UTF-8"?>
<svg id="Layer_2" data-name="Layer 2" xmlns="http://www.w3.org/2000/svg" viewBox="0 0 83.32 66.49">
  <defs>
    <style>
      .cls-1 {
        fill: none;
        stroke: #000;
        stroke-linecap: round;
        stroke-miterlimit: 10;
        stroke-width: 2.18px;
      }
    </style>
  </defs>
  <g id="Layer_1-2" data-name="Layer 1">
    <path class="cls-1" d="M1.09,65.4v-33.2M15.63,12.15h49.52c.44,0,11.74-4.48,13.18-5.03.27-.1,3.28-3.33,3.74-3.81.15-.16.2-.39.11-.6-.09-.2-.29-.33-.51-.33H15.63M13.69,1.09h-.31c-1.19,0-2.15.97-2.15,2.15v8.35c0,.3.25.55.55.55h3.52c.3,0,.55-.25.55-.55V3.25c0-1.19-.97-2.15-2.15-2.15ZM15.3,12.15h-3.52c-.3,0-.55.23-.55.51v13.09c0,1.11.97,2.01,2.15,2.01h.31c1.19,0,2.15-.9,2.15-2.01v-13.09c0-.28-.25-.51-.55-.51ZM65.16,12.15H16.38c-.3,0-.54.23-.54.51v13.21c0,.28.24.51.54.51h48.77c.3,0,.54-.23.54-.51v-13.21c0-.28-.24-.51-.54-.51ZM38.25,29.56c-.49,0-.88-.4-.88-.88s.4-.88.88-.88.88.39.88.88-.39.88-.88.88ZM32.23,29.26l-2.6,2.84c-.45.49-.56,1.17-.3,1.77.27.61.84.98,1.5.98h14.83c.66,0,1.24-.38,1.5-.98.27-.61.15-1.29-.3-1.77l-2.63-2.82M46.06,27.33l-3.36,3.62h-8.9l-3.36-3.62c-.22-.24-.13-.51-.1-.58.03-.08.17-.32.5-.32h14.83c.33,0,.46.25.5.32.03.08.12.34-.1.58ZM32.08,34.86v4.25c0,2.24,1.82,4.06,4.06,4.06h4.22c2.24,0,4.06-1.82,4.06-4.06v-4.25M35.38,43.13c-.27,2.38-2.29,4.24-4.74,4.24h-13.85M16.78,52.78h14.86c5.15,0,9.34-4.19,9.34-9.34v-.31M1.09,59.96h8.68c3.87,0,7.02-3.15,7.02-7.02v-7.54c0-3.87-3.15-7.02-7.02-7.02H1.09"/>
  </g>
</svg>