<?xml version="1.0" encoding="UTF-8"?>
<svg id="Layer_2" data-name="Layer 2" xmlns="http://www.w3.org/2000/svg" viewBox="0 0 92.87 67.76">
  <defs>
    <style>
      .cls-1 {
        fill: none;
        stroke: #000;
        stroke-linecap: round;
        stroke-miterlimit: 10;
        stroke-width: 2.18px;
      }
    </style>
  </defs>
  <g id="Layer_1-2" data-name="Layer 1">
    <g>
      <path class="cls-1" d="M33.5,47.92H3.82v10.93c7.91-3.56,19.29-4.2,29.68-3.97v-6.95Z"/>
      <rect class="cls-1" x="33.5" y="46.18" width="9.19" height="9.81"/>
      <path class="cls-1" d="M34.74,59.71c1.89,1.09,4.59,1.15,6.58,0v-3.73h-6.58v3.73Z"/>
      <path class="cls-1" d="M41.2,42.28v3.73h-6.58v-3.73"/>
      <path class="cls-1" d="M28.37,24.46s-3.97-.62-5.34,3.73c-1.37,4.35-.62,11.67-3.85,13.41-3.23,1.74-5.96,1.49-9.31,1.86-3.35.37-6.05,4.46-6.05,4.46"/>
      <path class="cls-1" d="M37.9,38c-.55,0-.99.44-.99.99s.44.99.99.99.99-.44.99-.99-.44-.99-.99-.99Z"/>
      <path class="cls-1" d="M37.9,34.27c-2.6,0-4.71,2.11-4.71,4.71s2.11,4.71,4.71,4.71,4.71-2.11,4.71-4.71-2.11-4.71-4.71-4.71Z"/>
      <path class="cls-1" d="M52.26,35.4c-.05,4.52-6.65-.19-9.99,5.2M31.26,23.15l-1.17,4.15c-.54-.12-1.08-.24-1.61-.36-.3-.08-.43-.6-.34-.93.27-1.01.43-1.59.7-2.6.13-.55.72-.63,1.01-.56l1.41.3ZM70.29,29.99l-3.13,9.85M74.2,31.14l-2.68,8.96s-.19.93-1.99.43c-1.58-.43-28.62-8.6-35.61-10.69-1.13-.34-4.22-.79-3.88-2.35.31-1.43,2.5-8.68,2.5-8.68M91.14,18.87L32.6,1.36l-4.72,16.08,53.64,15.86,9.62-14.43ZM39.43,31.49c.5,1.79-1.16,2.33-3.73,3.39"/>
      <polygon class="cls-1" points="3.94 29.77 1.09 29.77 1.09 66.67 3.69 66.67 3.94 29.77"/>
    </g>
  </g>
</svg>