<?xml version="1.0" encoding="UTF-8"?>
<svg id="Layer_2" data-name="Layer 2" xmlns="http://www.w3.org/2000/svg" viewBox="0 0 69.06 68.28">
  <defs>
    <style>
      .cls-1 {
        fill: none;
        stroke: #000;
        stroke-miterlimit: 22.93;
        stroke-width: 2.5px;
      }
    </style>
  </defs>
  <g id="Layer_1-2" data-name="Layer 1">
    <path class="cls-1" d="M37.28,1.25v37.44M31.95,1.25v37.44M43.79,1.25v29.6M25.43,1.25v29.6M51.07,1.25v23.01M18.15,1.25v22.08M59.18,1.25v15.43M10.04,1.25v14.21M67.81,12.51V1.25H1.25v10.99l8.44,2.87s1.36,1.73-.09,2.89c-1.45,1.16-2.13,2.32-1.55,3.28.58.97,7.63,1.35,9.27,1.64,1.64.29,1.55,2.51.48,3-1.06.48-3.29,2.13-1.74,3.19,1.55,1.06,6.96,1.64,8.98,1.74,2.03.1-.39,2.42-1.35,3.38-.97.97-1,1.81,1.32,2.47,2.32.66,7.07,1.99,7.07,1.99,0,0,.83.99-.5,1.99-1.33.99-3.15,2.43-3.76,2.93-.61.5.17,1.33,1.22,2.15,1.05.83,5.86,4.53,5.86,4.53,0,0,4.64-3.59,5.86-4.7,1.22-1.1.83-1.88-.17-2.76-.99-.88-2.82-1.82-3.31-2.26-.5-.44-.66-1.6.44-1.77,1.1-.17,6.12-1.78,8.05-2.17,1.93-.39,1.49-1.77.17-2.6-1.33-.83-3.59-1.82-2.38-2.82,1.22-.99,7.46-1.77,9.34-1.93,1.88-.17,1.82-1.66.77-2.32-1.05-.66-3.42-1.6-2.76-2.71.66-1.1,1.48-.95,3.21-1.19,1.73-.24,5.62-.96,6.92-1.2,1.3-.24,1.83-1.68.67-2.5-1.15-.82-3.12-1.3-2.59-2.69.53-1.39,1.32-1.59,2.61-1.93,1.3-.34,6.08-2.25,6.08-2.25ZM62.97,24.45l-.43,37.57H6.56l.43-37.84M1.25,17.24v49.78h66.56V16.97"/>
  </g>
</svg>