<?xml version="1.0" encoding="UTF-8"?>
<svg id="Layer_2" data-name="Layer 2" xmlns="http://www.w3.org/2000/svg" viewBox="0 0 67.89 68.13">
  <defs>
    <style>
      .cls-1 {
        fill: none;
        stroke: #000;
        stroke-linecap: round;
        stroke-linejoin: round;
        stroke-width: 2.5px;
      }
    </style>
  </defs>
  <g id="Layer_1-2" data-name="Layer 1">
    <path class="cls-1" d="M61.38,52.51v9.19H5.94v-9.67M1.25,55.2v11.68h65.39v-11.49M61.53,12.02l-.46,29.34M54.99,17.07v17.38M49.45,19.19l-.18,7.08M18.75,18.79l-.16,7.43M13.21,16.8v17.1M6.76,12.03v29.34M66.52,1.45c.04,6.53-9.97,17.89-22.24,17.86-3.64,0-7.08-.73-10.11-1.98M29.97,6.56c-.95-1.55-1.48-3.29-1.48-5.11M59.92,1.45c0,6.66-7.04,12.05-15.71,12.05-1.32,0-2.61-.13-3.83-.36M39.18,1.45c0,6.66-7.04,12.05-15.71,12.05S7.75,8.1,7.75,1.45M32.78,1.45c0,3.94-4.17,7.14-9.31,7.14S14.15,5.39,14.15,1.45l-12.81-.19M42.69,19.35s-.1,1.82.67,3.73c.77,1.91,5.17.86,5.84,2.78.67,1.91-3.92,3.45-3.25,5.55.67,2.11,7.94.38,8.71,2.49.77,2.11-3.92,3.25-2.39,4.98,1.53,1.72,8.04.29,8.81,2.49.77,2.2-4.5,4.12-2.11,5.36s7.56,3.25,7.56,3.25V1.45l-13.01-.19c0,3.95-4.47,7.33-9.62,7.33M24.23,8.57c-1.21-2.2-2.16-4.78-2.16-7.32l23.67.2c0,9.86-9.94,17.86-22.2,17.86S1.97,9.3,1.34,1.26v48.72s5.17-2.01,7.56-3.25c2.39-1.24-2.91-3.16-2.14-5.36.77-2.2,7.31-.77,8.84-2.49,1.53-1.72-3.16-2.87-2.39-4.98.77-2.11,8.04-.38,8.71-2.49.67-2.11-3.92-3.64-3.25-5.55.67-1.91,5.07-.86,5.84-2.78.77-1.91.67-3.73.67-3.73"/>
  </g>
</svg>