<?xml version="1.0" encoding="UTF-8"?>
<svg id="Layer_2" data-name="Layer 2" xmlns="http://www.w3.org/2000/svg" viewBox="0 0 67.38 67.78">
  <defs>
    <style>
      .cls-1 {
        fill: none;
        stroke: #000;
        stroke-linecap: round;
        stroke-linejoin: round;
        stroke-width: 2.5px;
      }
    </style>
  </defs>
  <g id="Layer_1-2" data-name="Layer 1">
    <path class="cls-1" d="M66.13,1.25c-4.2,13.38-15.6,14.31-21.03,12.79-5.43-1.52-10.69-6.79-11.33-12.79M1.25,1.25c4.2,13.38,15.6,14.45,21.03,12.93,5.43-1.52,10.02-6.93,10.66-12.93M45.55,1.25c-.11,3.51-3.36,4.7-5.47,4.86-2.12.17-5.24-1.16-6.31-4.86M21.15,1.25c.11,3.51,3.36,4.7,5.47,4.86,2.12.17,5.24-1.16,6.31-4.86M57.1,1.25c-1.14,3.23-6.08,9.96-13.38,8.51-7.29-1.46-8.88-4.8-9.95-8.51M9.61,1.25c1.14,3.23,6.08,9.96,13.37,8.51,7.29-1.46,8.88-4.8,9.95-8.51M66.13,1.25c-2.35,14.42-8.91,23.44-18.58,25.04-9.67,1.61-13.47,1.2-12.24-.11,1.23-1.31,4.12-3.38,1.44-4.15-2.67-.78-5.96-.58-7.15.43s2.26,2.98,1.93,3.97c-.33.99-1.23.9-5.18.9s-9.03-.23-15.12-5.18C5.16,17.21,1.68,6.54,1.25,1.25M33.64,1.96l3.66,20.62M32.71,1.83l-3.11,20.62M1.25,50.85V1.25h64.88v49.6M60.75,50.91v10.3H5.86v-10.97M1.33,55.88v10.65h64.53v-10.32M1.51,50.85s3.78-4.11,3.78-6.32-3.45-1.31-3.45-3.78,4.6-1.4,4.6-3.86-3.12-1.72-3.12-4.6,4.85-1.48,4.6-3.61C7.67,26.54,1.25,2.16,1.25,2.16M65.87,50.85s-3.78-4.11-3.78-6.32,3.45-1.31,3.45-3.78-4.6-1.4-4.6-3.86,3.12-1.72,3.12-4.6-4.85-1.48-4.6-3.61c.25-2.14,6.66-26.51,6.66-26.51"/>
  </g>
</svg>