<?xml version="1.0" encoding="UTF-8"?>
<svg id="Layer_2" data-name="Layer 2" xmlns="http://www.w3.org/2000/svg" viewBox="0 0 69.31 68.52">
  <defs>
    <style>
      .cls-1 {
        fill: none;
        stroke: #000;
        stroke-miterlimit: 22.93;
        stroke-width: 2.5px;
      }
    </style>
  </defs>
  <g id="Layer_1-2" data-name="Layer 1">
    <path class="cls-1" d="M35.43,1.25c.54,7.02.69,15.1,6.62,19.21M34.23,1.25c-.54,7.02-.69,15.1-6.62,19.21M31.9,1.25c-.54,7.02-8.2,14.58-14.56,13.06M37.08,1.25c.54,7.02,8.2,14.58,14.56,13.06M38.88,1.25c4.16,5.15,11.28,7.61,17.64,6.09M68.07,1.25c-.45,3.93-.55,10.5-6.38,15.56M1.25,1.25c.45,3.93.55,10.5,6.38,15.56M65.55,1.25c-.45,3.93-4.98,12.11-11.34,10.59M3.77,1.25c.45,3.93,4.98,12.11,11.34,10.59M29.94,1.25c-4.64,5.97-11.28,7.61-17.64,6.09M58.99,1.71c-4.36,11.21-10.95,19.66-24.46,19.66S13.15,12.05,10.07,1.71M62.68,22.19v40.36H6.57V21.76M15.09,11.71c-2.66,5.37-13.84,6.45-13.84,6.45V1.25h66.72v17.07s-9.29-.88-14.13-6.2M1.25,21.96v45.31h66.72V21.54"/>
  </g>
</svg>