<?xml version="1.0" encoding="UTF-8"?>
<svg id="Layer_2" data-name="Layer 2" xmlns="http://www.w3.org/2000/svg" viewBox="0 0 67.81 67.45">
  <defs>
    <style>
      .cls-1 {
        fill: none;
        stroke: #000;
        stroke-linecap: round;
        stroke-linejoin: round;
        stroke-width: 2.5px;
      }
    </style>
  </defs>
  <g id="Layer_1-2" data-name="Layer 1">
    <path class="cls-1" d="M11.52,65.8h44.2M15.69,60.69h36.14M29.59,6.44h8.39M30.53,1.28h6.46M66.56,29.35c-.39.39-2.21,2.28-4.66,4.04-2.46,1.77-4.75,1.6-4.75,1.6M66.56,34.71s-1.88,2.11-4.01,3.14c-2.13,1.03-4.02,1.04-4.02,1.04M60.79,63.6l1.96-25.95M53.71,1.25c.55,6.97,3.5,22.33,9.31,30.96M60.11,1.26c.55,6.97,1.72,20.31,5.41,28.9M47.52,1.26c.95,14.26,5.03,22.43,12.54,33.05M66.56,65.86V1.26h-26.84s1.63,12.67,7.15,21.2c5.52,8.53,10.29,12.54,10.29,12.54l1.38,3.89-2.89,22.2s.63,1.63,2.26,2.26c1.63.63,2.89.25,2.89.25,0,0,1,2.01,2.45,2.45,1.44.44,3.32-.19,3.32-.19ZM1.25,29.35c.39.39,2.21,2.28,4.66,4.04,2.46,1.77,4.75,1.6,4.75,1.6M1.25,34.71s1.88,2.11,4.01,3.14c2.13,1.03,4.02,1.04,4.02,1.04M7.02,63.6l-1.96-25.95M14.1,1.25c-.55,6.97-3.5,22.33-9.31,30.96M7.69,1.26c-.55,6.97-1.72,20.31-5.41,28.9M20.28,1.26c-.95,14.26-5.03,22.43-12.54,33.05M1.25,65.86V1.26h26.84s-1.63,12.67-7.15,21.2c-5.52,8.53-10.29,12.54-10.29,12.54l-1.38,3.89,2.89,22.2s-.63,1.63-2.26,2.26c-1.63.63-2.89.25-2.89.25,0,0-1,2.01-2.45,2.45-1.44.44-3.32-.19-3.32-.19Z"/>
  </g>
</svg>