<?xml version="1.0" encoding="UTF-8"?>
<svg id="Layer_2" data-name="Layer 2" xmlns="http://www.w3.org/2000/svg" viewBox="0 0 70.07 69.04">
  <defs>
    <style>
      .cls-1 {
        fill: none;
        stroke: #000;
        stroke-linecap: round;
        stroke-linejoin: round;
        stroke-width: 2.5px;
      }
    </style>
  </defs>
  <g id="Layer_1-2" data-name="Layer 1">
    <path class="cls-1" d="M60.8,31.88h8.02M1.3,31.88h7.08M28.01,31.88h13.66M60.74,36.7h8.02M1.25,36.7h7.08M27.91,36.7h13.66M68.82,67.78V1.27M35.11,36.95v25.79M35.11,5.81v25.79M61.36,58.86l4.2-21.69M8.21,58.86l-4.2-21.69M41.68,58.86l-4.2-21.69M27.54,58.86l4.2-21.69M61.31,9.91l4.2,21.69M8.25,9.91l-4.2,21.69M41.73,9.91l-4.2,21.69M27.49,9.91l4.2,21.69M17.59,1.33l-8.86,30.11v5.11l8.79,31.03M50.53,1.33l-8.86,30.11v5.11l8.79,31.03M51.94,1.39l8.86,30.11v5.11l-8.79,31.03M19.14,1.39l8.86,30.11v5.11l-8.79,31.03M1.74,67.79c.75,0,1.5-1.94,2.24-1.94,1.2,0,2.4,1.94,3.59,1.94,1.83,0,3.66-1.94,5.49-1.94,1.72,0,3.43,1.94,5.15,1.94,1.94,0,3.89-1.94,5.83-1.94s3.72,1.94,5.59,1.94c1.75,0,3.5-1.94,5.26-1.94,1.78,0,3.55,1.94,5.33,1.94,1.88,0,3.76-1.94,5.64-1.94s3.82,1.94,5.72,1.94c1.76,0,3.53-1.94,5.29-1.94s3.45,1.94,5.18,1.94c1.25,0,2.5-1.94,3.75-1.94,1.01,0,2.02,1.94,3.02,1.94M68.82,1.27c-1.01,0-2.02,1.94-3.02,1.94-1.25,0-2.5-1.94-3.75-1.94-1.73,0-3.45,1.94-5.18,1.94s-3.53-1.94-5.29-1.94c-1.91,0-3.82,1.94-5.72,1.94s-3.76-1.94-5.64-1.94c-1.78,0-3.55,1.94-5.33,1.94-1.75,0-3.5-1.94-5.26-1.95-1.86,0-3.72,1.94-5.59,1.94s-3.89-1.94-5.83-1.94c-1.72,0-3.43,1.94-5.15,1.94-1.83,0-3.66-1.94-5.49-1.94-1.2,0-2.4,1.94-3.59,1.94-.75,0-1.77-1.94-2.51-1.94-.02.62-.16,66.54-.16,66.54"/>
  </g>
</svg>