<?xml version="1.0" encoding="UTF-8"?>
<svg id="Layer_2" data-name="Layer 2" xmlns="http://www.w3.org/2000/svg" viewBox="0 0 67.61 67.9">
  <defs>
    <style>
      .cls-1 {
        fill: none;
        stroke: #000;
        stroke-linecap: round;
        stroke-linejoin: round;
        stroke-width: 2.5px;
      }
    </style>
  </defs>
  <g id="Layer_1-2" data-name="Layer 1">
    <path class="cls-1" d="M1.25,25.73s1.34-2.62,3.86-2.62,4.27,2.37,4.27,2.37c0,0,1.63-2.32,4.02-2.32s3.91,2.57,3.91,2.57c0,0,1.46-2.77,4.03-2.77s4.27,2.77,4.27,2.77c0,0,1.64-2.31,4-2.31s4.08,2.31,4.08,2.31c0,0,.72-2.24,3.88-2.24s4.04,2.24,4.04,2.24c0,0,.9-2.82,3.86-2.82s4.21,2.82,4.21,2.82c0,0,1.39-2.44,4.23-2.44s3.7,2.44,3.7,2.44c0,0,1.66-2.44,4.23-2.44s4.5,2.44,4.5,2.44M66.36,25.73v-13.36M57.62,25.73v-13.36M49.7,25.73v-13.36M41.62,25.73v-13.36M33.69,25.73v-13.36M25.61,25.73v-13.36M17.31,25.73v-13.36M9.38,25.43v-13.06M1.25,25.73v-13.36M61.02,32.22v29.49H6v-28.59M1.26,29.2v37.46h65.1V28.63M1.26,1.25h65.1v11.12H1.26V1.25Z"/>
  </g>
</svg>