<?xml version="1.0" encoding="UTF-8"?>
<svg id="Layer_2" data-name="Layer 2" xmlns="http://www.w3.org/2000/svg" viewBox="0 0 69.61 69.4">
  <defs>
    <style>
      .cls-1 {
        fill: none;
        stroke: #000;
        stroke-linecap: round;
        stroke-miterlimit: 22.93;
        stroke-width: 2.5px;
      }
    </style>
  </defs>
  <g id="Layer_1-2" data-name="Layer 1">
    <path class="cls-1" d="M50.28,19.86v14.42M19.23,19.5v14.77M56.45,16.31v25.06M13.76,16.16v25.22M62.83,10.43v38.35M7.45,10.44v38.33M43.75,21.99v7.73c0,2.24,5.39.92,6.41,3.36,1.02,2.44-3.25,2.34-3.36,4.78-.1,2.44,9.03.56,9.64,2.59.61,2.03-4.05,3.2-3.95,5.34.1,2.14,9.72-.36,10.33,2.69.61,3.05-4.23,2.54-4.03,4.78.2,2.24,9.15,4.32,9.15,4.32M25.7,21.92v7.8c0,2.24-5.39.92-6.41,3.36-1.02,2.44,3.25,2.34,3.36,4.78.1,2.44-8.34.41-8.95,2.44-.61,2.03,3.36,3.35,3.25,5.49-.1,2.14-8.9-.66-9.51,2.39-.61,3.05,3.41,2.85,3.2,5.08-.2,2.24-9.1,4.73-9.1,4.73M13.76,1.25c2.44,4.27,11.29,11.29,20.69,11.29S53.61,7.35,55.95,1.25M8.06,1.25c1.02,2.95,9.71,16.52,26.38,16.52S59.61,7.35,61.95,1.25M1.25,1.25c1.02,2.95,12.2,22.42,34.21,21.76,22.01-.66,30.15-15.66,32.49-21.76M20.42,1.25c4.02,3.81,8.74,6,14.24,6s10.68-2.24,14.84-6M1.66,62.66v5.49h66.7v-5.49M6.94,60.22v3.25h56.12v-3.86M1.55,57.98V1.25h66.39v56.33"/>
  </g>
</svg>