<?xml version="1.0" encoding="UTF-8"?>
<svg id="Layer_2" data-name="Layer 2" xmlns="http://www.w3.org/2000/svg" viewBox="0 0 68.79 68.27">
  <defs>
    <style>
      .cls-1 {
        fill: none;
        stroke: #000;
        stroke-linecap: round;
        stroke-miterlimit: 22.93;
        stroke-width: 2.5px;
      }
    </style>
  </defs>
  <g id="Layer_1-2" data-name="Layer 1">
    <g>
      <polyline class="cls-1" points="1.25 31.8 1.25 67.02 67.44 67.02 67.44 31.8"/>
      <polyline class="cls-1" points="6.28 35.11 6.28 61.79 62.21 61.79 62.21 33.31"/>
      <path class="cls-1" d="M1.35,26.67V1.77s14.25,5.02,32.64,5.02S67.54,1.76,67.54,1.76v24.61"/>
      <path class="cls-1" d="M67.54,7.16v19.21s-11.29,6.94-33.04,6.94S1.35,26.67,1.35,26.67V7.17"/>
      <path class="cls-1" d="M1.37,6.46c.88.28,15.24,5.66,32.52,5.66s31.81-5.25,33.53-5.76"/>
      <path class="cls-1" d="M1.37,21.97c.88.28,15.24,5.66,32.52,5.66s31.81-5.25,33.53-5.76"/>
      <path class="cls-1" d="M1.37,11.48c.88.28,15.24,5.81,32.52,5.81s31.81-5.4,33.53-5.91"/>
      <path class="cls-1" d="M1.37,16.61c.88.28,15.24,5.96,32.52,5.96s31.81-5.55,33.53-6.06"/>
    </g>
  </g>
</svg>