<?xml version="1.0" encoding="UTF-8"?>
<svg id="Layer_2" data-name="Layer 2" xmlns="http://www.w3.org/2000/svg" viewBox="0 0 69.87 69.59">
  <defs>
    <style>
      .cls-1 {
        fill: none;
        stroke: #000;
        stroke-linecap: round;
        stroke-miterlimit: 22.93;
        stroke-width: 2.5px;
      }
    </style>
  </defs>
  <g id="Layer_1-2" data-name="Layer 1">
    <path class="cls-1" d="M62.71,10.5v37.29M56.39,16.24v29.98c3.39,2.4,5.32-.56,6.32,1.57,1.01,2.15-1.78,1.33-1.58,3.57.17,1.86,3.73,1.59,5.47,1.87,1.64.27,4.76,2.07-3.49,5.13M68.62,54.82V1.29M7.47,10.46v37.29M13.79,16.2v29.98c-3.39,2.4-5.32-.56-6.32,1.57-1.01,2.15,1.78,1.33,1.58,3.57-.17,1.86-3.73,1.59-5.47,1.87-1.64.27-4.76,2.07,3.49,5.13M13.79,1.25c2.45,4.28,11.32,11.32,20.75,11.32S53.76,7.37,56.1,1.25M8.08,1.25c1.02,2.96,9.73,16.56,26.46,16.56S59.77,7.37,62.12,1.25M1.25,1.25c1.02,2.96,12.23,22.48,34.31,21.82,22.07-.66,30.23-15.7,32.58-21.82M20.47,1.25c4.03,3.82,8.77,6.02,14.27,6.02s10.71-2.24,14.89-6.02M1.66,60.52v7.82h66.88v-7.82M6.96,63.15h56.28M1.56,54.78V1.25h66.58"/>
  </g>
</svg>