<?xml version="1.0" encoding="UTF-8"?>
<svg id="Layer_2" data-name="Layer 2" xmlns="http://www.w3.org/2000/svg" viewBox="0 0 68.89 69.05">
  <defs>
    <style>
      .cls-1 {
        fill: none;
        stroke: #000;
        stroke-linecap: round;
        stroke-miterlimit: 22.93;
        stroke-width: 2.5px;
      }
    </style>
  </defs>
  <g id="Layer_1-2" data-name="Layer 1">
    <path class="cls-1" d="M44.52,67.4V1.35h23.12v66.18c-3.3-.05-3.55-3.85-5.98-3.85s-2.79,3.9-5.38,3.9-3.35-3.9-5.93-3.9-3.25,3.72-5.83,3.72ZM27.38,67.17h14.1M27.73,62.21h13.39M61.76,48.03V1.48M18.64,47.8V1.25M56.08,58.07V1.48M12.96,57.84V1.25M50.19,48.34V1.48M7.08,48.11V1.25M1.25,67.78V1.25h22.72v65.92c-2.69.1-2.03-3.83-5.48-3.83s-2.07,4.14-5.32,4.14-3.05-4.14-6.14-4.14-2.53,4.4-5.78,4.45ZM27.12,6.32h14.6M27.22,1.37h14.4"/>
  </g>
</svg>