<?xml version="1.0" encoding="UTF-8"?>
<svg id="Layer_2" data-name="Layer 2" xmlns="http://www.w3.org/2000/svg" viewBox="0 0 72.09 66.44">
  <defs>
    <style>
      .cls-1 {
        fill: none;
        stroke: #000;
        stroke-linecap: round;
        stroke-linejoin: round;
        stroke-width: 2.5px;
      }
    </style>
  </defs>
  <g id="Layer_1-2" data-name="Layer 1">
    <path class="cls-1" d="M66.84,61.62v-16.27M5.46,61.62v-16.3M30.97,45.33l-21.74,9.1M18.11,45.33l-8.87,3.71M34.19,45.33v8.54c0,.53-.44.97-.97.97H10.21c-.53,0-.97-.45-.97-.97v-8.54M1.25,61.67h69.59v3.52H1.25v-3.52ZM59.8,45.35l-21.7,9.08M63.05,45.33v8.54c0,.53-.44.97-.97.97h-23.01c-.53,0-.97-.45-.97-.97v-8.55M3.14,39.71h65.77M3.14,34.13h65.77M3.14,28.66l65.81-.02M3.14,22.97h65.77M3.14,17.58h65.77s0,27.11,0,27.11c0,.33-.29.62-.62.62H3.76c-.33,0-.62-.28-.62-.62v-27.11ZM3.14,12.25h65.77M3.14,6.67h65.77M3.14,17.57V1.26h65.77s0,16.31,0,16.31"/>
  </g>
</svg>