<?xml version="1.0" encoding="UTF-8"?>
<svg id="Layer_2" data-name="Layer 2" xmlns="http://www.w3.org/2000/svg" viewBox="0 0 68.81 67.97">
  <defs>
    <style>
      .cls-1 {
        fill: none;
        stroke: #000;
        stroke-miterlimit: 22.93;
        stroke-width: 2.5px;
      }
    </style>
  </defs>
  <g id="Layer_1-2" data-name="Layer 1">
    <path class="cls-1" d="M1.25,6.71h66.31M67.56,24.13c0,2.1-1.71,3.82-3.8,3.82H5.05c-2.09,0-3.8-1.72-3.8-3.82M67.56,29.93c0,2.1-1.71,3.82-3.8,3.82H5.05c-2.09,0-3.8-1.72-3.8-3.82M67.56,35.44c0,2.1-1.71,3.82-3.8,3.82H5.05c-2.09,0-3.8-1.72-3.8-3.82M2.01,1.25h64.78c.42,0,.76.34.76.76v39.08c0,2.1-1.72,3.82-3.82,3.82H5.07c-2.1,0-3.82-1.72-3.82-3.82V2.01c0-.42.34-.76.76-.76ZM6.51,48.12v13.95h56v-15.16M1.25,48.12v18.6h66.31v-19"/>
  </g>
</svg>