<?xml version="1.0" encoding="UTF-8"?>
<svg id="Layer_2" data-name="Layer 2" xmlns="http://www.w3.org/2000/svg" viewBox="0 0 69.94 69.25">
  <defs>
    <style>
      .cls-1 {
        fill: none;
        stroke: #000;
        stroke-linecap: round;
        stroke-miterlimit: 22.93;
        stroke-width: 2.5px;
      }
    </style>
  </defs>
  <g id="Layer_1-2" data-name="Layer 1">
    <g>
      <polyline class="cls-1" points="1.25 37.47 1.25 1.25 68.61 1.25 68.61 38.69"/>
      <polyline class="cls-1" points="1.45 45.25 1.45 68 68.4 68 68.4 45.25"/>
      <polyline class="cls-1" points="6.54 50.9 6.54 63.52 62.71 63.52 62.71 51.11"/>
      <path class="cls-1" d="M1.25,1.25c3.62,12.02,17.65,13.33,22.58.73.03,0,.03,0,.06,0,2.8,10.46,16.99,11.05,22.33,0,.01,0,.03,0,.04,0,3.35,12.46,19.13,11.54,22.34-.73"/>
      <path class="cls-1" d="M1.25,8.63c3.64,12.07,17.76,13.5,22.64.73,4.71,11.16,17.43,10.49,22.33,0,3.31,12.52,19.17,11.56,22.38-.73"/>
      <path class="cls-1" d="M1.25,15.48c3.64,12.07,17.76,13.5,22.64.73,5.63,13.35,15.77,13.59,22.33,0,3.31,12.52,19.17,11.56,22.38-.73"/>
      <path class="cls-1" d="M1.25,22.09c3.64,12.07,17.76,13.49,22.64.73,4.8,11.37,17.29,10.44,22.33,0,3.31,12.52,19.17,11.56,22.38-.73"/>
      <path class="cls-1" d="M1.25,29.48c3.64,12.07,17.76,13.49,22.64.73,4.71,11.16,16.96,11.13,22.33,0,3.31,12.52,19.17,11.56,22.38-.73"/>
      <path class="cls-1" d="M1.25,37.09c0,9.73,17.76,13.49,22.64.73,3.2,11.94,17.26,10.51,22.33,0,3.34,12.47,22.46,9.41,22.46.12"/>
      <line class="cls-1" x1="24.02" y1="1.25" x2="24.02" y2="37.82"/>
      <line class="cls-1" x1="46.2" y1="1.25" x2="46.2" y2="37.82"/>
    </g>
  </g>
</svg>