<?xml version="1.0" encoding="UTF-8"?>
<svg id="Layer_2" data-name="Layer 2" xmlns="http://www.w3.org/2000/svg" viewBox="0 0 69.59 68.36">
  <defs>
    <style>
      .cls-1 {
        fill: none;
        stroke: #000;
        stroke-linecap: round;
        stroke-miterlimit: 22.93;
        stroke-width: 2.5px;
      }
    </style>
  </defs>
  <g id="Layer_1-2" data-name="Layer 1">
    <path class="cls-1" d="M16.8,1.32c4.28,1.66,10.18,3.17,17.49,3.17s13.18-1.53,17.66-3.24M8.78,2.9s9.29,7.45,25.51,7.45,26.53-7.85,26.53-7.85M8.78,8.15s9.29,7.45,25.51,7.45,26.53-7.85,26.53-7.85M8.78,13.86s9.29,7.45,25.51,7.45,26.53-7.85,26.53-7.85M8.78,19.8s9.29,7.45,25.51,7.45,26.53-7.85,26.53-7.85M6.45,31.21v31.26h55.87v-31.81M1.92,30.03v37.07h65.93V29.76M60.82,1.47v21.05l3.6,3.83,3.45-4.33V1.27M1.73,1.47v21.05l3.52,3.83,3.53-4.33V1.27M1.25,1.27h67.09"/>
  </g>
</svg>