<?xml version="1.0" encoding="UTF-8"?>
<svg id="Layer_2" data-name="Layer 2" xmlns="http://www.w3.org/2000/svg" viewBox="0 0 67.86 68.9">
  <defs>
    <style>
      .cls-1 {
        fill: none;
        stroke: #000;
        stroke-linecap: round;
        stroke-miterlimit: 22.93;
        stroke-width: 2.5px;
      }
    </style>
  </defs>
  <g id="Layer_1-2" data-name="Layer 1">
    <path class="cls-1" d="M5.66,1.35c.65,2.96,6.12,12.27,14.2,11.82,8.07-.45,11.58-7.26,12.58-8.31M32.69,1.25s2.71.15,5.82,3.76c3.11,3.61,6.12,9.03,12.64,8.62,6.52-.4,10.33-7.92,11.74-12.39M28.13,1.25c3.11,1,6.87,6.57,10.08,10.68,3.21,4.11,7.17,7.12,14.94,6.12,7.77-1,13.01-13.38,13.39-14.14M1.45,1.88c.88,2.19,5.97,16.47,16.9,16.32,10.93-.15,16.99-8.35,17.33-9.55M7.16,46.15V12.31M60.93,46.15V13.26M12.48,17.34v26.74c0,2.91-3.01.47-5.32,2.08-2.31,1.6,1.91,3.44,1.6,4.84-.3,1.4-6.71.45-7.31,1.63M55.61,17.34v26.74c0,2.91,3.01.47,5.32,2.08,2.31,1.6-1.91,3.44-1.6,4.84.3,1.4,6.55,1.02,7.2,2.01M1.45,52.63V1.35h10.63s2.31,6.12,8.73,6.12,7.32-6.22,7.32-6.22h12.14s3.81,6.42,9.33,6.42,6.82-6.42,6.82-6.42h10.13v51.66M5.6,56.31v5.73h56.67v-5.59M1.25,56.86v10.79h65.36v-10.63"/>
  </g>
</svg>