<?xml version="1.0" encoding="UTF-8"?>
<svg id="Layer_2" data-name="Layer 2" xmlns="http://www.w3.org/2000/svg" viewBox="0 0 68.16 68.6">
  <defs>
    <style>
      .cls-1 {
        fill: none;
        stroke: #000;
        stroke-linecap: round;
        stroke-miterlimit: 22.93;
        stroke-width: 2.5px;
      }
    </style>
  </defs>
  <g id="Layer_1-2" data-name="Layer 1">
    <path class="cls-1" d="M1.25,54.88c1.14-.2,9.5-.27,10.36-2.74.87-2.47-4.48-1.1-2.81-3.31,1.88-2.48,10.62.79,10.77-2.71.07-1.6-4.48-1-3.08-2.81,2.34-3,11.06.65,11.84-3.21.27-1.34-4.95-1.47-3.01-3.01,2.43-1.93,11.48.67,12.64-3.08.53-1.74-4.81-1.81-4.35-3.88.71-3.15,10.36.63,10.9-2.74.27-1.67-5.02-2.67-3.01-3.54,3.85-1.67,10.14.46,11.1-1.94.8-2.01-4.35-1.54-2.94-3.68,2.22-3.38,8.94,2.28,11.17-1.87,1-1.87-3.94-1.4-2.34-3.48,2.61-3.38,8.3-1.24,8.43-3.74M58.49,12.89V1.25M49.66,18.23V1.25M41.5,23.85V1.25M33.61,30.14V1.25M25.32,37.09V1.25M17.03,42.84V1.25M8.61,49.26V1.25M1.25,54.88V1.25h65.66v7.89M66.91,14.66v52.69H1.38v-6.95M6.33,59.16v3.21h55.23V21.04"/>
  </g>
</svg>