<?xml version="1.0" encoding="UTF-8"?>
<svg id="Layer_2" data-name="Layer 2" xmlns="http://www.w3.org/2000/svg" viewBox="0 0 69.17 68.31">
  <defs>
    <style>
      .cls-1 {
        fill: none;
        stroke: #000;
        stroke-linecap: round;
        stroke-miterlimit: 22.93;
        stroke-width: 2.5px;
      }
    </style>
  </defs>
  <g id="Layer_1-2" data-name="Layer 1">
    <path class="cls-1" d="M62.98,57.93v-7.98M59.14,57.19v-7.94M54.34,56.04v-7.96M45.77,55.91v-7.93M41.38,57.8v-8.71M36.93,58.2v-8.48M32.07,58v-7.93M27.82,57.26v-7.85M23.63,56.11v-8.18M14.66,56.11v-7.61M10.54,57.26v-7.74M6.29,58.06v-8.18M19.11,53.95v-7.9M50.09,53.47v-7.85M6.24,60.67v1.26l56.43.13.02-1.55M1.25,56.09v10.98h66.67v-11.24M1.28,49.76V1.25h66.62v47.84M1.28,49.76c4.37.62,14.08-.12,17.8-4.1,2.35,1.31,6.33,4.03,15.44,4.03s12.87-2.72,15.48-4.39c2.78,2.17,10.42,5.47,17.89,4.05"/>
  </g>
</svg>