<?xml version="1.0" encoding="UTF-8"?>
<svg id="Layer_2" data-name="Layer 2" xmlns="http://www.w3.org/2000/svg" viewBox="0 0 69.17 68.31">
  <defs>
    <style>
      .cls-1 {
        fill: none;
        stroke: #000;
        stroke-linecap: round;
        stroke-miterlimit: 22.93;
        stroke-width: 2.5px;
      }
    </style>
  </defs>
  <g id="Layer_1-2" data-name="Layer 1">
    <path class="cls-1" d="M62.98,45.46v-7.98M59.14,44.71v-7.94M54.34,43.57v-7.96M45.77,43.43v-7.93M41.38,45.32v-8.71M36.93,45.73v-8.48M32.07,45.52v-7.93M27.82,44.78v-7.85M23.63,43.63v-8.18M14.66,43.63v-7.61M10.54,44.78v-7.74M6.29,45.59v-8.18M19.11,41.47v-7.9M50.09,41v-7.85M6.24,50.34v11.59l56.43.13.02-11.88M1.25,42.15v24.91h66.67v-25.5M1.28,37.59V1.25h66.62v35.83M1.28,37.29c4.37.62,14.08-.12,17.8-4.1,2.35,1.31,6.33,4.03,15.44,4.03s12.87-2.72,15.48-4.39c2.78,2.17,10.42,5.47,17.89,4.05"/>
  </g>
</svg>