<?xml version="1.0" encoding="UTF-8"?>
<svg id="Layer_2" data-name="Layer 2" xmlns="http://www.w3.org/2000/svg" viewBox="0 0 63.18 69.11">
  <defs>
    <style>
      .cls-1 {
        fill: none;
        stroke: #000;
        stroke-linecap: round;
        stroke-linejoin: round;
        stroke-width: 2.5px;
      }
    </style>
  </defs>
  <g id="Layer_1-2" data-name="Layer 1">
    <path class="cls-1" d="M14.77,1.25h33.36M46.69,16.49c-.58,8.92,4.6,17.83,10.64,22.72l-5.18.29M17.07,16.49c-.86,8.63-4.03,17.54-11.5,22.72h5.46M4.49,62.51c1.15,8.05,7.24,5.27,8.27,1.44,1.15,5.18,6.07,5.26,7.48,0,1.44,4.6,5.75,5.46,7.76,0,1.15,4.89,6.04,5.46,7.48,0,1.44,5.18,5.46,4.6,7.76,0,.58,4.89,6.04,5.46,7.19,0,2.3,6.04,6.54,3.45,8.27-.86M10.17,56.76h6.04c-.29-5.75-1.73-12.37-5.18-17.54,13.8-4.6,20.56-19.56,20.56-34.51.43,13.8,4.17,28.18,20.56,34.8-3.18,5.5-4.89,11.22-4.89,17.26h7.12M55.61,43.81l-1.73,19.27h8.05V4.7H1.25M1.25,4.7v57.81h8.05l-1.73-18.98"/>
  </g>
</svg>