<?xml version="1.0" encoding="UTF-8"?>
<svg id="Layer_2" data-name="Layer 2" xmlns="http://www.w3.org/2000/svg" viewBox="0 0 67.23 67.55">
  <defs>
    <style>
      .cls-1 {
        fill: none;
        stroke: #000;
        stroke-linecap: round;
        stroke-linejoin: round;
        stroke-width: 2.5px;
      }
    </style>
  </defs>
  <g id="Layer_1-2" data-name="Layer 1">
    <path class="cls-1" d="M17.85,19.42V1.29M49.56,19.42V1.29M1.25,29.1V1.29h64.73v28M6.1,32.58v28.1h54.75v-28.88M1.25,33.94v32.36h64.63v-32.65M1.25,29.1c6.43.61,13.21-5.43,16.6-9.84,8.14,13.95,25.29,12.5,31.69-.39,3.29,6.88,12.31,10.81,16.44,10.42M1.25,22.91c6.43.61,13.47-3.71,16.6-9.4,7.46,12.5,24.9,11.82,31.69-.39,3.29,6.88,9.69,9.98,15.99,9.59M1.25,16.86c6.43.61,13.47-3.71,16.6-9.4,7.46,12.5,24.9,11.82,31.69-.39,3.29,6.88,9.69,9.98,15.99,9.59M1.25,11.04c6.43.61,13.47-3.71,16.6-9.4,7.46,12.5,24.9,11.82,31.69-.39,3.29,6.88,9.69,9.98,15.99,9.59"/>
  </g>
</svg>