<?xml version="1.0" encoding="UTF-8"?>
<svg id="Layer_2" data-name="Layer 2" xmlns="http://www.w3.org/2000/svg" viewBox="0 0 67.95 68.32">
  <defs>
    <style>
      .cls-1 {
        fill: none;
        stroke: #000;
        stroke-linecap: round;
        stroke-linejoin: round;
        stroke-width: 2.5px;
      }
    </style>
  </defs>
  <g id="Layer_1-2" data-name="Layer 1">
    <path class="cls-1" d="M61.64,44.99v16.9H6.29v-16.76M1.26,44.85v22.22h65.41v-22.22M1.28,7.37l4.26,6.39-4.28,5.59,4.22,5.19-4.18,5.59,4.31,5.59-4.12,5.19M66.69,7.37l-4.28,6.39,4.29,5.56-4.29,5.21,4.27,5.59-4.27,5.59,4.29,5.19M1.47,40.9h65.19M5.6,35.71h56.81M1.47,30.12h64.79M5.47,24.53h56.94M1.74,19.34h63.99M5.53,13.76h56.87M1.28,1.25h65.41v6.12H1.28V1.25Z"/>
  </g>
</svg>