<?xml version="1.0" encoding="UTF-8"?>
<svg id="Layer_2" data-name="Layer 2" xmlns="http://www.w3.org/2000/svg" viewBox="0 0 67.64 67.69">
  <defs>
    <style>
      .cls-1 {
        fill: none;
        stroke: #000;
        stroke-linecap: round;
        stroke-miterlimit: 22.93;
        stroke-width: 2.5px;
      }
    </style>
  </defs>
  <g id="Layer_1-2" data-name="Layer 1">
    <path class="cls-1" d="M49.62,11.83V1.25M17.15,11.83V1.25M5.9,44.24v17.28h55.7v-16.48M59.11,21.81V1.48M41.75,21.81V1.48M33.5,21.81V1.48M26.4,21.81V1.48M44.96,36.77v-7.96M40.6,39.42v-8.45M35.98,40.67v-8.57M31.24,40.51v-8.29M26.62,39.05v-8.2M22.07,36.82v-8.15M49.78,33.46v-8.85M17.34,33.46v-8.85M53.74,36.99v-8.85M13.76,36.21v-8.07M57.6,39.07v-8.59M10.12,38.61v-8.18M61.54,40.35v-8.36M6.19,40.35v-8.7M8.01,21.81V1.48M1.25,32.39c1.03,0,7.51-.76,11-3.05,3.49-2.29,7.42-7.53,7.42-7.53l-2.49-10.69h-.06l-2.15,10.25s6,10.8,18.55,10.8,18.66-10.58,18.66-10.58l-2.45-10.47h-.09l-2.26,10.79s9.53,12,19,10.25M1.25,40.35V1.25h65.14v40.03M1.25,47.46v18.98h65.14v-19.91"/>
  </g>
</svg>