<?xml version="1.0" encoding="UTF-8"?>
<svg id="Layer_2" data-name="Layer 2" xmlns="http://www.w3.org/2000/svg" viewBox="0 0 78.16 68.11">
  <defs>
    <style>
      .cls-1 {
        fill: none;
        stroke: #000;
        stroke-linecap: round;
        stroke-miterlimit: 22.93;
        stroke-width: 2.5px;
      }
    </style>
  </defs>
  <g id="Layer_1-2" data-name="Layer 1">
    <path class="cls-1" d="M55.95,7.68c.34,4.3,2.72,7.26,5.51,7.74M21.95,6.63c-.34,4.3-2.2,8.18-4.99,8.66M57.95,4.07c.34,4.3,5.49,8.27,8.63,7.27M20.28,3.24c-.34,4.3-5.81,8.6-8.6,7.96M59.97,1.26c.34,4.3,7.53,5.09,10.62,3.8M17.87,1.26c-.34,4.3-7.66,4.66-10.3,3.92M72.08,1.26c-3.73,11.83-13.39,19.28-22.71,13.59M72.45,1.25l4.39,31.32s-2.85,2.85-3.99,1.66c-1.14-1.2,1.87-2.68,3.1-3.39-.3-.66-5.95.26-6.24-1.29-.29-1.54,5.74-2.23,5.73-3.26-.21-1.66-5.33-.73-5.28-2.56.06-1.83,4.36-.97,4.48-2.8.11-1.83-5.1-1.31-4.88-3.59.22-2.17,2.33-14.81,2.55-16.08.02,0,.12,0,.14,0ZM5.76,1.26L1.33,32.73s2.85,2.85,3.99,1.65c1.14-1.2-1.87-2.68-3.1-3.39.3-.66,5.96.26,6.24-1.29.29-1.54-5.74-2.23-5.73-3.26.21-1.66,5.33-.73,5.28-2.56s-4.36-.97-4.48-2.8c-.11-1.83,5.1-1.31,4.88-3.59-.23-2.24-2.54-15.73-2.62-16.24,0,0-.02,0-.02,0ZM72.69,40.23c-.63,0-1.14.51-1.14,1.14s.51,1.14,1.14,1.14,1.14-.51,1.14-1.14-.51-1.14-1.14-1.14ZM5.47,40.4c.63,0,1.14.51,1.14,1.14s-.51,1.14-1.14,1.14-1.14-.51-1.14-1.14.51-1.14,1.14-1.14ZM72.61,42.6c-.86,0-1.56,1.75-1.56,2.61v2.67h3.12v-2.67c0-.86-.7-2.61-1.56-2.61ZM5.56,42.76c.86,0,1.56,1.75,1.56,2.61v2.67h-3.12v-2.67c0-.86.7-2.61,1.56-2.61ZM72.84,40.71v-10.25M5.32,40.88v-10.19M39.56,1.26c.39,5.1.84,13.36,5.15,16.34M38.69,1.26c-.39,5.1-1.01,12.86-5.31,15.84M37,1.26c-.39,5.1-6.62,11.6-11.24,10.49M40.76,1.26c.39,5.1,7.22,11.85,11.84,10.75M43.55,1.26c3.02,3.74,8.96,5.52,13.58,4.42M34.61,1.26c-3.37,4.33-8.49,5.68-13.11,4.58M59.03,1.59c-3.17,8.13-9.97,16.67-19.78,16.67S21.81,8.77,19.58,1.26M72.48,1.26c-22.26,0-44.2,0-66.46,0,3.73,11.83,13.77,18.91,23.09,13.22M67.04,18.75v43.38H10.9V18.33M5.58,52.97v13.9h66.75v-14.02"/>
  </g>
</svg>