<?xml version="1.0" encoding="UTF-8"?>
<svg id="Layer_2" data-name="Layer 2" xmlns="http://www.w3.org/2000/svg" viewBox="0 0 60.66 65.54">
  <defs>
    <style>
      .cls-1 {
        stroke-miterlimit: 10;
      }

      .cls-1, .cls-2, .cls-3 {
        fill: none;
        stroke: #141313;
        stroke-width: 2.5px;
      }

      .cls-2 {
        stroke-linecap: round;
      }

      .cls-2, .cls-3 {
        stroke-linejoin: round;
      }
    </style>
  </defs>
  <g id="Layer_1-2" data-name="Layer 1">
    <g>
      <line class="cls-1" x1="1.78" y1="64.29" x2="47.48" y2="64.29"/>
      <polyline class="cls-3" points="26.38 23.79 1.25 23.79 1.25 37.92"/>
      <path class="cls-3" d="M1.25,37.92c0,11,9,20,20,20"/>
      <line class="cls-3" x1="21.25" y1="57.92" x2="28" y2="57.92"/>
      <path class="cls-3" d="M28,57.92c11,0,20-9,20-20"/>
      <polyline class="cls-3" points="48 37.92 48.01 23.79 39.89 23.79"/>
      <line class="cls-2" x1="8.25" y1="31.16" x2="8.25" y2="37.92"/>
      <path class="cls-2" d="M8.25,37.92c0,2.69.82,5.19,2.22,7.26"/>
      <polyline class="cls-1" points="40.41 23.79 31.63 23.79 31.63 33.22"/>
      <path class="cls-1" d="M26.55,35.91c0-1.1.9-2,2-2"/>
      <line class="cls-1" x1="28.55" y1="33.91" x2="34.57" y2="33.91"/>
      <path class="cls-1" d="M34.57,33.91c1.1,0,2,.9,2,2"/>
      <polyline class="cls-1" points="36.57 35.91 36.57 46.43 26.55 46.43 26.55 35.91"/>
      <path class="cls-1" d="M48.14,28.38c.85-.08,2.14-.09,3.05-.09,4.77,0,8.56,3.73,8.19,8.18-.46,5.56-9.1,10.55-13.84,11.09"/>
      <line class="cls-2" x1="34.54" y1="1.25" x2="18.45" y2="1.25"/>
      <path class="cls-2" d="M18.45,1.25c-2.05,0-3.73,1.84-3.73,3.89s1.68,3.89,3.73,3.89"/>
      <line class="cls-2" x1="18.45" y1="9.03" x2="25.66" y2="9.03"/>
      <path class="cls-2" d="M25.66,9.03c1.6,0,2.9,1.39,2.9,2.99s-1.31,3-2.9,3"/>
      <line class="cls-2" x1="25.66" y1="15.02" x2="22.5" y2="15.02"/>
      <path class="cls-2" d="M22.5,15.02c-1.6,0-2.91,1.31-2.91,2.9"/>
      <line class="cls-2" x1="19.59" y1="17.92" x2="19.59" y2="18.41"/>
    </g>
  </g>
</svg>