<?xml version="1.0" encoding="UTF-8"?>
<svg id="Layer_2" data-name="Layer 2" xmlns="http://www.w3.org/2000/svg" viewBox="0 0 56.07 71.99">
  <defs>
    <style>
      .cls-1, .cls-2 {
        stroke-miterlimit: 10;
      }

      .cls-1, .cls-2, .cls-3 {
        fill: none;
        stroke: #141313;
        stroke-width: 2.5px;
      }

      .cls-1, .cls-3 {
        stroke-linecap: round;
      }

      .cls-3 {
        stroke-linejoin: round;
      }
    </style>
  </defs>
  <g id="Layer_1-2" data-name="Layer 1">
    <g>
      <path class="cls-2" d="M12.89,31.71c-1.34-.11-2.69-.44-4-1C2.47,27.93-.48,20.48,2.29,14.06c2.78-6.42,10.23-9.38,16.65-6.6,3.81,1.65,6.4,4.95,7.3,8.7"/>
      <line class="cls-2" x1="23.39" y1="11.77" x2="17.27" y2="16.49"/>
      <line class="cls-2" x1="9.76" y1="19.8" x2="2.19" y2="21.12"/>
      <line class="cls-2" x1="11.76" y1="22.7" x2="7.84" y2="29.25"/>
      <line class="cls-2" x1="10.68" y1="16.34" x2="4.89" y2="11.44"/>
      <line class="cls-2" x1="13.96" y1="14.82" x2="14.03" y2="7.24"/>
      <polyline class="cls-3" points="53 20.93 52.09 44.12 49.22 49.55 47.79 70.74 22.58 70.74 21.15 49.55 18.29 44.12 17.37 20.93"/>
      <line class="cls-2" x1="18.08" y1="35.32" x2="52.29" y2="35.32"/>
      <polyline class="cls-3" points="40.72 34.87 40.72 6.66 51.18 1.25"/>
      <line class="cls-1" x1="28.69" y1="64.68" x2="28.11" y2="46.35"/>
      <line class="cls-1" x1="41.68" y1="64.68" x2="42.27" y2="46.35"/>
      <line class="cls-1" x1="35.19" y1="46.27" x2="35.19" y2="64.66"/>
      <line class="cls-1" x1="40.82" y1="20.91" x2="54.82" y2="20.91"/>
      <line class="cls-2" x1="15.48" y1="20.91" x2="35.89" y2="20.91"/>
      <line class="cls-1" x1="15.48" y1="20.91" x2="30.01" y2="20.91"/>
    </g>
  </g>
</svg>