<?xml version="1.0" encoding="UTF-8"?>
<svg id="Layer_2" data-name="Layer 2" xmlns="http://www.w3.org/2000/svg" viewBox="0 0 46.6 59.55">
  <defs>
    <style>
      .cls-1 {
        stroke-miterlimit: 10;
      }

      .cls-1, .cls-2, .cls-3 {
        fill: none;
        stroke: #141313;
        stroke-width: 2.5px;
      }

      .cls-2 {
        stroke-linecap: round;
      }

      .cls-2, .cls-3 {
        stroke-linejoin: round;
      }
    </style>
  </defs>
  <g id="Layer_1-2" data-name="Layer 1">
    <g>
      <line class="cls-2" x1="23.3" y1="44.86" x2="23.3" y2="58.16"/>
      <line class="cls-2" x1="35.06" y1="58.3" x2="11.54" y2="58.3"/>
      <line class="cls-3" x1="2.21" y1="18.91" x2="20.18" y2="18.91"/>
      <line class="cls-3" x1="35.96" y1="18.91" x2="44.4" y2="18.91"/>
      <rect class="cls-2" x="26.31" y="17.8" width="11.25" height="11.25" transform="translate(-7.32 18.14) rotate(-28.59)"/>
      <rect class="cls-2" x="15.07" y="25.52" width="11.25" height="11.25" transform="translate(-12.6 48.19) rotate(-83.5)"/>
      <line class="cls-1" x1="22.45" y1="44.52" x2="24.15" y2="44.52"/>
      <path class="cls-1" d="M24.15,44.52c3.6-.11,6.71-1.16,8.12-1.75,13.15-5.5,13.05-13.89,13.05-13.89.58-13.18-6.87-27.63-6.87-27.63H8.15S.71,15.7,1.28,28.88c0,0-.11,8.39,13.05,13.89,1.41.59,4.52,1.64,8.12,1.75"/>
    </g>
  </g>
</svg>