<?xml version="1.0" encoding="UTF-8"?>
<svg id="Layer_2" data-name="Layer 2" xmlns="http://www.w3.org/2000/svg" viewBox="0 0 61.57 59.99">
  <defs>
    <style>
      .cls-1 {
        fill: none;
        stroke: #151414;
        stroke-linecap: round;
        stroke-linejoin: round;
        stroke-width: 2.5px;
      }
    </style>
  </defs>
  <g id="Layer_1-2" data-name="Layer 1">
    <g>
      <path class="cls-1" d="M15.03,14.85c-6.28,4.98-13.03,12.21-13.66,19.11-1.51,16.36,11.14,24.78,25.29,24.78"/>
      <line class="cls-1" x1="26.66" y1="58.74" x2="27.17" y2="58.74"/>
      <path class="cls-1" d="M27.17,58.74c14.15,0,26.8-8.42,25.29-24.78-.64-6.91-7.4-14.14-13.68-19.11"/>
      <line class="cls-1" x1="38.78" y1="14.85" x2="15.03" y2="14.85"/>
      <line class="cls-1" x1="52.03" y1="34.62" x2="8.24" y2="34.62"/>
      <path class="cls-1" d="M8.24,34.62s-1.72,14.8,15.41,17.58"/>
      <polyline class="cls-1" points="38.23 14.28 38.23 8.14 8.62 2.63 15.49 14.3"/>
      <path class="cls-1" d="M38.35,7.88S43.12.3,49.09,1.35c0,0,5.62.53,5.44,6.32"/>
      <polyline class="cls-1" points="54.53 7.67 54.53 16.27 60.32 24.87"/>
    </g>
  </g>
</svg>