<?xml version="1.0" encoding="UTF-8"?>
<svg id="Layer_2" data-name="Layer 2" xmlns="http://www.w3.org/2000/svg" viewBox="0 0 43.11 68.75">
  <defs>
    <style>
      .cls-1 {
        stroke-linecap: round;
      }

      .cls-1, .cls-2, .cls-3 {
        fill: none;
        stroke: #141313;
        stroke-width: 2.5px;
      }

      .cls-1, .cls-3 {
        stroke-miterlimit: 10;
      }

      .cls-2 {
        stroke-miterlimit: 22.93;
      }

      .cls-4 {
        fill: #141313;
      }
    </style>
  </defs>
  <g id="Layer_1-2" data-name="Layer 1">
    <g>
      <polyline class="cls-3" points="16.67 11.96 5.86 11.96 5.86 21.08 1.25 31.3 1.25 67.5 41.86 67.5 41.86 31.3 37.25 21.08 37.25 11.96 21.64 11.96"/>
      <line class="cls-3" x1="5.92" y1="20.6" x2="16.67" y2="20.6"/>
      <line class="cls-3" x1="21.79" y1="20.6" x2="36.89" y2="20.6"/>
      <line class="cls-3" x1="1.45" y1="31.28" x2="41.64" y2="31.28"/>
      <polyline class="cls-1" points="21.56 24.99 21.56 3.93 30.56 1.25"/>
      <path class="cls-4" d="M23.39,25.87c0,.24-.9.44-2,.44s-2-.2-2-.44.9-.44,2-.44,2,.2,2,.44Z"/>
      <path class="cls-2" d="M23.39,25.87c0,.24-.9.44-2,.44s-2-.2-2-.44.9-.44,2-.44,2,.2,2,.44Z"/>
    </g>
  </g>
</svg>