<?xml version="1.0" encoding="UTF-8"?>
<svg id="Layer_2" data-name="Layer 2" xmlns="http://www.w3.org/2000/svg" viewBox="0 0 30.96 71.36">
  <defs>
    <style>
      .cls-1 {
        stroke-linecap: round;
      }

      .cls-1, .cls-2 {
        fill: none;
        stroke: #141313;
        stroke-linejoin: round;
        stroke-width: 2.5px;
      }
    </style>
  </defs>
  <g id="Layer_1-2" data-name="Layer 1">
    <g>
      <line class="cls-2" x1="10.54" y1="8.13" x2="10.54" y2="3.25"/>
      <path class="cls-2" d="M10.54,3.25c0-1.1.9-2,2-2"/>
      <line class="cls-2" x1="12.54" y1="1.25" x2="18.42" y2="1.25"/>
      <path class="cls-2" d="M18.42,1.25c1.1,0,2,.9,2,2"/>
      <line class="cls-2" x1="20.42" y1="3.25" x2="20.42" y2="8.13"/>
      <line class="cls-1" x1="7.07" y1="12.45" x2="23.89" y2="12.45"/>
      <path class="cls-2" d="M23.67,51.39c3.3,0,6,2.75,6,6.05"/>
      <line class="cls-2" x1="29.67" y1="57.44" x2="29.67" y2="64.11"/>
      <path class="cls-2" d="M29.67,64.11c0,3.3-2.7,6-6,6"/>
      <line class="cls-2" x1="23.67" y1="70.11" x2="7.25" y2="70.11"/>
      <path class="cls-2" d="M7.25,70.11c-3.3,0-6-2.7-6-6"/>
      <line class="cls-2" x1="1.25" y1="64.11" x2="1.25" y2="57.44"/>
      <path class="cls-2" d="M1.25,57.44c0-3.3,2.7-6.05,6-6.05"/>
      <line class="cls-1" x1="8.18" y1="43.23" x2="4.49" y2="43.23"/>
      <path class="cls-1" d="M4.49,43.23c-1.78,0-3.24-1.46-3.24-3.23"/>
      <line class="cls-1" x1="1.25" y1="40" x2="1.25" y2="38.32"/>
      <path class="cls-1" d="M1.25,38.32c0-1.78,1.46-3.24,3.24-3.24"/>
      <line class="cls-1" x1="4.49" y1="35.08" x2="8.26" y2="35.08"/>
      <path class="cls-1" d="M4.49,35.08c-1.78,0-3.24-1.48-3.24-3.26"/>
      <line class="cls-1" x1="1.25" y1="31.82" x2="1.25" y2="29.45"/>
      <path class="cls-1" d="M1.25,29.45s-.07-4.37,10.09-16.42"/>
      <path class="cls-1" d="M26.47,35.09c1.78,0,3.24-1.48,3.24-3.26"/>
      <line class="cls-1" x1="29.71" y1="31.82" x2="29.71" y2="29.45"/>
      <path class="cls-1" d="M29.71,29.45s.07-4.37-10.09-16.42"/>
      <line class="cls-1" x1="17.36" y1="43.23" x2="26.43" y2="43.23"/>
      <path class="cls-1" d="M26.43,43.23c1.78,0,3.24,1.46,3.24,3.24"/>
      <line class="cls-1" x1="29.67" y1="46.47" x2="29.67" y2="48.15"/>
      <path class="cls-1" d="M29.67,48.15c0,1.78-1.45,3.24-3.24,3.24"/>
      <line class="cls-1" x1="26.43" y1="51.39" x2="17.27" y2="51.39"/>
      <line class="cls-1" x1="8.24" y1="51.39" x2="4.49" y2="51.39"/>
      <path class="cls-1" d="M4.49,51.39c-1.78,0-3.24-1.46-3.24-3.24"/>
      <line class="cls-1" x1="1.25" y1="48.15" x2="1.25" y2="46.47"/>
      <path class="cls-1" d="M1.25,46.47c0-1.78,1.46-3.24,3.24-3.24"/>
      <line class="cls-1" x1="4.49" y1="43.23" x2="8.24" y2="43.23"/>
      <line class="cls-1" x1="17.27" y1="35.09" x2="26.43" y2="35.09"/>
      <path class="cls-1" d="M26.43,35.09c1.78,0,3.24,1.46,3.24,3.24"/>
      <line class="cls-1" x1="29.67" y1="38.32" x2="29.67" y2="40"/>
      <path class="cls-1" d="M29.67,40c0,1.78-1.45,3.23-3.24,3.23"/>
      <line class="cls-1" x1="26.43" y1="43.23" x2="17.36" y2="43.23"/>
    </g>
  </g>
</svg>