<?xml version="1.0" encoding="UTF-8"?>
<svg id="Layer_2" data-name="Layer 2" xmlns="http://www.w3.org/2000/svg" viewBox="0 0 45.46 69.57">
  <defs>
    <style>
      .cls-1 {
        stroke-miterlimit: 22.93;
      }

      .cls-1, .cls-2, .cls-3 {
        fill: none;
        stroke: #141313;
        stroke-width: 2.5px;
      }

      .cls-2 {
        stroke-miterlimit: 10;
      }

      .cls-4 {
        fill: #141313;
      }

      .cls-3 {
        stroke-linecap: round;
        stroke-linejoin: round;
      }
    </style>
  </defs>
  <g id="Layer_1-2" data-name="Layer 1">
    <g>
      <line class="cls-2" x1="2.54" y1="34.49" x2="19.16" y2="34.49"/>
      <line class="cls-2" x1="23.95" y1="34.49" x2="35.64" y2="34.49"/>
      <polyline class="cls-3" points="18.41 57.72 30.92 5.94 44.21 1.25"/>
      <path class="cls-3" d="M33.86,63.33c-.18,2.74-2.58,4.99-5.33,4.99"/>
      <line class="cls-3" x1="28.53" y1="68.32" x2="9.53" y2="68.32"/>
      <path class="cls-3" d="M9.53,68.32c-2.75,0-5.15-2.24-5.33-4.99"/>
      <polyline class="cls-3" points="4.2 63.33 1.25 19.04 36.81 19.04 33.86 63.33"/>
      <path class="cls-4" d="M27.53,56.36c0,.43-.35.78-.78.78s-.78-.35-.78-.78.35-.78.78-.78.78.35.78.78Z"/>
      <path class="cls-1" d="M27.53,56.36c0,.43-.35.78-.78.78s-.78-.35-.78-.78.35-.78.78-.78.78.35.78.78Z"/>
      <path class="cls-4" d="M29.2,45.61c0,.43-.35.78-.78.78s-.78-.35-.78-.78.35-.78.78-.78.78.35.78.78Z"/>
      <path class="cls-1" d="M29.2,45.61c0,.43-.35.78-.78.78s-.78-.35-.78-.78.35-.78.78-.78.78.35.78.78Z"/>
      <path class="cls-4" d="M12.95,41.74c0,.43-.35.78-.78.78s-.78-.35-.78-.78.35-.78.78-.78.78.35.78.78Z"/>
      <path class="cls-1" d="M12.95,41.74c0,.43-.35.78-.78.78s-.78-.35-.78-.78.35-.78.78-.78.78.35.78.78Z"/>
      <path class="cls-4" d="M11.45,50.49c0,.43-.35.78-.78.78s-.78-.35-.78-.78.35-.78.78-.78.78.35.78.78Z"/>
      <path class="cls-1" d="M11.45,50.49c0,.43-.35.78-.78.78s-.78-.35-.78-.78.35-.78.78-.78.78.35.78.78Z"/>
      <path class="cls-4" d="M12.95,61.07c0,.43-.35.78-.78.78s-.78-.35-.78-.78.35-.78.78-.78.78.35.78.78Z"/>
      <path class="cls-1" d="M12.95,61.07c0,.43-.35.78-.78.78s-.78-.35-.78-.78.35-.78.78-.78.78.35.78.78Z"/>
    </g>
  </g>
</svg>