<?xml version="1.0" encoding="UTF-8"?>
<svg id="Layer_2" data-name="Layer 2" xmlns="http://www.w3.org/2000/svg" viewBox="0 0 32.03 75.53">
  <defs>
    <style>
      .cls-1 {
        stroke-miterlimit: 10;
      }

      .cls-1, .cls-2 {
        stroke-linecap: round;
      }

      .cls-1, .cls-2, .cls-3 {
        fill: none;
        stroke: #141313;
        stroke-width: 2.5px;
      }

      .cls-2, .cls-3 {
        stroke-linejoin: round;
      }
    </style>
  </defs>
  <g id="Layer_1-2" data-name="Layer 1">
    <g>
      <line class="cls-3" x1="19.22" y1="34.62" x2="25.88" y2="8.85"/>
      <line class="cls-2" x1="10.45" y1="68.27" x2="13.02" y2="58.44"/>
      <path class="cls-1" d="M30.78,67.28c0,3.85-3.15,7-7,7"/>
      <line class="cls-1" x1="23.78" y1="74.28" x2="8.25" y2="74.28"/>
      <path class="cls-1" d="M8.25,74.28c-3.85,0-7-3.15-7-7"/>
      <polyline class="cls-1" points="1.25 67.28 1.25 18.65 30.78 18.65 30.78 67.28"/>
      <line class="cls-3" x1="24.35" y1="35.76" x2="30.58" y2="35.76"/>
      <line class="cls-3" x1="1.34" y1="35.76" x2="9.11" y2="35.76"/>
      <rect class="cls-2" x="10.93" y="48.19" width="11.25" height="11.25" transform="translate(-38.5 42.03) rotate(-60.82)"/>
      <path class="cls-2" d="M30.6,4.99c.05,2.12-1.62,3.87-3.74,3.92-2.12.05-3.87-1.62-3.93-3.74-.05-2.12,1.62-3.88,3.74-3.93,2.12-.05,3.87,1.62,3.92,3.74Z"/>
      <rect class="cls-2" x="14.65" y="34.85" width="11.25" height="11.25" transform="translate(-16.9 14.64) rotate(-28.59)"/>
    </g>
  </g>
</svg>