<?xml version="1.0" encoding="UTF-8"?>
<svg id="Layer_2" data-name="Layer 2" xmlns="http://www.w3.org/2000/svg" viewBox="0 0 58.54 69.18">
  <defs>
    <style>
      .cls-1 {
        stroke-linecap: round;
      }

      .cls-1, .cls-2 {
        fill: none;
        stroke: #141313;
        stroke-linejoin: round;
        stroke-width: 2.5px;
      }
    </style>
  </defs>
  <g id="Layer_1-2" data-name="Layer 1">
    <g>
      <polygon class="cls-1" points="38.33 39.96 15.74 39.96 11.56 15.82 42.52 15.82 38.33 39.96"/>
      <line class="cls-2" x1="21.73" y1="20.48" x2="22.62" y2="39.73"/>
      <line class="cls-2" x1="32.35" y1="20.48" x2="31.45" y2="39.73"/>
      <polyline class="cls-2" points="22.23 51.48 20.74 67.91 11.04 67.91 15.22 46.39 38.86 46.39 43.04 67.91 37.74 67.91"/>
      <polyline class="cls-1" points="13.5 28.65 1.25 15.82 11.43 15.82"/>
      <polyline class="cls-1" points="11.52 15.8 24.62 8.48 29.6 8.48 42.56 15.78"/>
      <polyline class="cls-2" points="24.75 8.29 24.02 1.25 30.06 1.25 29.43 8.29"/>
      <polyline class="cls-1" points="48.07 13.86 56.06 12.57 57.29 17.38 53.17 37.41 47.75 36.09 51.04 19.42 41.76 21.33"/>
      <line class="cls-2" x1="19.43" y1="40.11" x2="19.43" y2="46.01"/>
      <line class="cls-2" x1="34.65" y1="40.29" x2="34.65" y2="46.19"/>
      <polyline class="cls-2" points="25.11 67.93 33.22 67.93 31.73 51.48"/>
    </g>
  </g>
</svg>