<?xml version="1.0" encoding="UTF-8"?>
<svg id="Layer_2" data-name="Layer 2" xmlns="http://www.w3.org/2000/svg" viewBox="0 0 53.95 69.8">
  <defs>
    <style>
      .cls-1, .cls-2 {
        fill: none;
        stroke: #000;
        stroke-linejoin: round;
        stroke-width: 2.5px;
      }

      .cls-2 {
        stroke-linecap: round;
      }
    </style>
  </defs>
  <g id="Layer_1-2" data-name="Layer 1">
    <g>
      <path class="cls-2" d="M49.04,59.03c-3.01-3.53-3.29-4.81-3.31-4.99"/>
      <line class="cls-2" x1="45.73" y1="54.04" x2="45.72" y2="54.04"/>
      <path class="cls-2" d="M45.72,54.04c-.02.18-.3,1.45-3.31,4.99-3.51,4.12-1.52,9.51,3.29,9.53"/>
      <path class="cls-2" d="M45.75,68.55c4.78-.01,6.8-5.4,3.29-9.53"/>
      <line class="cls-2" x1="1.25" y1="41.69" x2="16.08" y2="41.69"/>
      <path class="cls-2" d="M16.08,41.69c1.96,2.69,5.12,4.45,8.7,4.45s6.75-1.76,8.7-4.45"/>
      <line class="cls-2" x1="33.49" y1="41.69" x2="35.54" y2="41.69"/>
      <path class="cls-2" d="M35.54,41.69s4.71-.38,4.71,5.97"/>
      <path class="cls-1" d="M50.5,47.65s1.79-16.07-17.13-18.06"/>
      <polyline class="cls-1" points="33.37 29.6 33.19 29.54 33.19 21.37 17.39 21.37 17.39 29.34 5.97 29.34"/>
      <polyline class="cls-2" points="20.37 15.48 30.2 15.48 30.2 21.26"/>
      <line class="cls-1" x1="28.65" y1="7.9" x2="39.69" y2="9.21"/>
      <path class="cls-1" d="M39.69,9.21c2.04.19,3.7-1.33,3.7-3.37"/>
      <line class="cls-1" x1="43.39" y1="5.84" x2="43.39" y2="5.05"/>
      <path class="cls-1" d="M43.39,5.05c0-2.04-1.66-3.56-3.7-3.37"/>
      <line class="cls-1" x1="39.69" y1="1.68" x2="28.65" y2="2.99"/>
      <line class="cls-1" x1="22.03" y1="2.99" x2="10.99" y2="1.68"/>
      <path class="cls-1" d="M10.99,1.68c-2.04-.19-3.7,1.33-3.7,3.37"/>
      <line class="cls-1" x1="7.29" y1="5.05" x2="7.29" y2="5.84"/>
      <path class="cls-1" d="M7.29,5.84c0,2.04,1.67,3.56,3.7,3.37"/>
      <line class="cls-1" x1="10.99" y1="9.21" x2="22.03" y2="7.9"/>
      <line class="cls-2" x1="38.2" y1="47.87" x2="52.7" y2="47.87"/>
      <line class="cls-1" x1="25.34" y1="9.74" x2="25.34" y2="15.24"/>
      <path class="cls-1" d="M29.48,5.39c0,2.29-1.85,4.14-4.14,4.14s-4.14-1.85-4.14-4.14,1.85-4.14,4.14-4.14,4.14,1.85,4.14,4.14Z"/>
      <line class="cls-2" x1="1.25" y1="27.23" x2="1.25" y2="44.46"/>
    </g>
  </g>
</svg>