<?xml version="1.0" encoding="UTF-8"?>
<svg id="Layer_2" data-name="Layer 2" xmlns="http://www.w3.org/2000/svg" viewBox="0 0 61.02 72.51">
  <defs>
    <style>
      .cls-1, .cls-2, .cls-3, .cls-4 {
        fill: none;
        stroke: #000;
        stroke-width: 2.5px;
      }

      .cls-1, .cls-3 {
        stroke-linejoin: round;
      }

      .cls-2, .cls-4 {
        stroke-miterlimit: 10;
      }

      .cls-3, .cls-4 {
        stroke-linecap: round;
      }
    </style>
  </defs>
  <g id="Layer_1-2" data-name="Layer 1">
    <g>
      <line class="cls-3" x1="46.75" y1="46.23" x2="5.39" y2="46.23"/>
      <polyline class="cls-3" points="25.48 46.63 25.48 54.18 38.56 69.64"/>
      <path class="cls-1" d="M20.99,17.93c2.08,3.25,4.49,9.19,4.49,19.26"/>
      <line class="cls-1" x1="25.48" y1="37.2" x2="25.48" y2="41.49"/>
      <path class="cls-1" d="M17.19,26.38s5.25.12,7.63,2.63"/>
      <path class="cls-2" d="M21.3,18.41c-2.85,1.72-7.91-1.8-9.38-6.49-1.89-6.05-.45-10.4-.45-10.4,0,0,4.81,1.32,8.77,5.54,3.36,3.58,3.59,9.83,1.06,11.35Z"/>
      <path class="cls-2" d="M17.09,26.74c.31,2.61-3.87,5.11-7.73,4.64-4.98-.61-7.64-3.06-7.64-3.06,0,0,2.52-3.03,6.84-4.52,3.67-1.26,8.25.61,8.52,2.93Z"/>
      <path class="cls-4" d="M48.95,29.52c-7.33,6.11-13.8,2.4-16.53-2.58-2.72-4.99-2.05-12.49,5.96-15.53,6.05-2.3,20.93.1,20.93.1,0,0-5.05,13.58-10.37,18.01Z"/>
      <line class="cls-3" x1="37.85" y1="23.99" x2="43.42" y2="27.01"/>
      <line class="cls-3" x1="42.77" y1="20.56" x2="43.05" y2="16.27"/>
      <line class="cls-3" x1="50.48" y1="16.57" x2="31.79" y2="27.28"/>
      <path class="cls-3" d="M31.79,27.28s-4.56,2.97-6.39,6.33"/>
      <line class="cls-3" x1="34.06" y1="64.06" x2="41.48" y2="62.89"/>
      <line class="cls-3" x1="29.36" y1="59.13" x2="28.48" y2="66.28"/>
      <line class="cls-3" x1="14.94" y1="56.6" x2="21.02" y2="58.87"/>
      <line class="cls-3" x1="17.2" y1="64.04" x2="18.44" y2="70.64"/>
      <line class="cls-3" x1="25.48" y1="54.18" x2="10.56" y2="71.26"/>
    </g>
  </g>
</svg>