<?xml version="1.0" encoding="UTF-8"?>
<svg id="Layer_2" data-name="Layer 2" xmlns="http://www.w3.org/2000/svg" viewBox="0 0 63.89 64.34">
  <defs>
    <style>
      .cls-1 {
        stroke-miterlimit: 10;
      }

      .cls-1, .cls-2 {
        fill: none;
        stroke: #000;
        stroke-width: 2.5px;
      }

      .cls-2 {
        stroke-linecap: round;
        stroke-linejoin: round;
      }
    </style>
  </defs>
  <g id="Layer_1-2" data-name="Layer 1">
    <g>
      <path class="cls-2" d="M24.92,42.65s-4.3,1.19-6.54,5.32"/>
      <path class="cls-1" d="M25.12,42.5c.86,2.83,6.29,3.52,10.04,1.3,4.85-2.87,6.48-6.59,6.48-6.59,0,0-3.96-1.99-9.08-1.56-4.35.36-8.21,4.35-7.45,6.86Z"/>
      <path class="cls-2" d="M41.66,62.69c-.74-2.66-3.04-4.73-5.95-5.04-2.86-.31-5.51,1.26-6.83,3.63"/>
      <line class="cls-2" x1="28.88" y1="61.27" x2="28.89" y2="61.26"/>
      <path class="cls-2" d="M28.89,61.26c-1.81-3.45-5.59-5.63-9.7-5.21-4.04.42-7.24,3.38-8.36,7.04"/>
      <path class="cls-2" d="M15.09,42.46c2.43,3.7,4.56,7.37,4.74,13.43"/>
      <polygon class="cls-2" points="48.5 13.07 43.47 18.04 39.62 18.04 39.62 1.25 43.47 1.25 48.49 6.23 48.5 13.07"/>
      <path class="cls-2" d="M33.95,3.17c-9.69,0-17.55,7.86-17.55,17.55"/>
      <line class="cls-2" x1="16.4" y1="20.72" x2="16.4" y2="27.65"/>
      <path class="cls-2" d="M33.95,9.9c-5.96,0-10.82,4.85-10.82,10.82"/>
      <line class="cls-2" x1="23.13" y1="20.72" x2="23.13" y2="27.66"/>
      <path class="cls-2" d="M33.98,16.63c-2.25,0-4.09,1.83-4.09,4.09"/>
      <line class="cls-2" x1="29.89" y1="20.72" x2="29.89" y2="27.65"/>
      <line class="cls-2" x1="48.83" y1="6.5" x2="62.64" y2="6.5"/>
      <line class="cls-2" x1="48.83" y1="12.8" x2="62.64" y2="12.8"/>
      <path class="cls-1" d="M15.25,41.77c-1.73,2.39-7.09,1.28-9.92-2.04-3.65-4.29-3.98-8.34-3.98-8.34,0,0,4.39-.59,9.09,1.47,4,1.75,6.35,6.78,4.81,8.91Z"/>
    </g>
  </g>
</svg>