<?xml version="1.0" encoding="UTF-8"?>
<svg id="Layer_2" data-name="Layer 2" xmlns="http://www.w3.org/2000/svg" viewBox="0 0 61.17 63.96">
  <defs>
    <style>
      .cls-1 {
        fill: none;
        stroke: #000;
        stroke-linecap: round;
        stroke-miterlimit: 4;
        stroke-width: 2.5px;
      }
    </style>
  </defs>
  <g id="Layer_1-2" data-name="Layer 1">
    <g>
      <line class="cls-1" x1="44.91" y1="41.71" x2="47.01" y2="41.71"/>
      <path class="cls-1" d="M47.01,41.71c7.1,0,12.9-5.81,12.9-12.9"/>
      <line class="cls-1" x1="59.92" y1="28.81" x2="59.92" y2="28.31"/>
      <path class="cls-1" d="M59.92,28.31c0-7.1-5.81-12.9-12.9-12.9"/>
      <polyline class="cls-1" points="47.01 15.41 43.73 15.41 43.73 14.4"/>
      <path class="cls-1" d="M43.73,14.4c0-7.26-5.89-13.15-13.15-13.15s-13.15,5.89-13.15,13.15"/>
      <line class="cls-1" x1="17.44" y1="14.4" x2="17.44" y2="15.23"/>
      <path class="cls-1" d="M23.11,19.43c-2.74-2.85-5.11-4.01-9.22-4.01"/>
      <line class="cls-1" x1="13.89" y1="15.42" x2="13.25" y2="15.44"/>
      <path class="cls-1" d="M13.25,15.44c-6.68.47-12,6.08-12,12.87"/>
      <line class="cls-1" x1="1.25" y1="28.31" x2="1.25" y2="28.81"/>
      <path class="cls-1" d="M1.25,28.81c0,6.72,5.21,12.29,11.79,12.86"/>
      <line class="cls-1" x1="32.8" y1="33.64" x2="19.03" y2="62.71"/>
      <line class="cls-1" x1="23.59" y1="33.64" x2="13.46" y2="55.03"/>
      <line class="cls-1" x1="41.99" y1="33.64" x2="31.86" y2="55.03"/>
    </g>
  </g>
</svg>