<?xml version="1.0" encoding="UTF-8"?>
<svg id="Layer_2" data-name="Layer 2" xmlns="http://www.w3.org/2000/svg" viewBox="0 0 74.32 54.67">
  <defs>
    <style>
      .cls-1, .cls-2 {
        fill: none;
        stroke: #000;
        stroke-miterlimit: 10;
        stroke-width: 2.5px;
      }

      .cls-2 {
        stroke-linecap: round;
      }
    </style>
  </defs>
  <g id="Layer_1-2" data-name="Layer 1">
    <g>
      <line class="cls-1" x1="20.79" y1="16.37" x2="53.53" y2="16.37"/>
      <polygon class="cls-1" points="37.13 1.39 1.69 18.7 4.43 24.12 37.13 8.35 69.89 24.15 72.63 18.73 37.13 1.39"/>
      <line class="cls-2" x1="35.03" y1="36.75" x2="35.03" y2="40.78"/>
      <line class="cls-1" x1="9.29" y1="23.79" x2="24.77" y2="23.79"/>
      <line class="cls-1" x1="9.37" y1="46.05" x2="24.77" y2="46.05"/>
      <line class="cls-1" x1="9.37" y1="38.63" x2="24.77" y2="38.63"/>
      <line class="cls-1" x1="9.37" y1="31.21" x2="24.77" y2="31.21"/>
      <line class="cls-1" x1="44.93" y1="46.05" x2="64.78" y2="46.05"/>
      <line class="cls-1" x1="44.93" y1="38.63" x2="64.78" y2="38.63"/>
      <line class="cls-1" x1="44.93" y1="31.21" x2="64.78" y2="31.21"/>
      <line class="cls-1" x1="64.89" y1="21.86" x2="64.89" y2="53.26"/>
      <line class="cls-1" x1="9.28" y1="21.86" x2="9.28" y2="53.26"/>
      <polyline class="cls-1" points="2 53.42 29.48 53.42 29.48 23.79 64.83 23.79"/>
      <polyline class="cls-1" points="72.32 53.42 44.84 53.42 44.84 23.93"/>
    </g>
  </g>
</svg>