<?xml version="1.0" encoding="UTF-8"?>
<svg id="Layer_2" data-name="Layer 2" xmlns="http://www.w3.org/2000/svg" viewBox="0 0 52.04 67.67">
  <defs>
    <style>
      .cls-1, .cls-2, .cls-3, .cls-4 {
        fill: none;
        stroke: #000;
        stroke-width: 2.5px;
      }

      .cls-1, .cls-3 {
        stroke-linejoin: round;
      }

      .cls-2 {
        stroke-miterlimit: 10;
      }

      .cls-3 {
        stroke-linecap: round;
      }

      .cls-4 {
        stroke-miterlimit: 22.93;
      }
    </style>
  </defs>
  <g id="Layer_1-2" data-name="Layer 1">
    <g>
      <polyline class="cls-3" points="50.79 26 26.02 1.25 1.25 26"/>
      <line class="cls-1" x1="8.26" y1="25.71" x2="11.39" y2="47.98"/>
      <line class="cls-3" x1="44.53" y1="20.63" x2="40.04" y2="51.98"/>
      <path class="cls-3" d="M32.66,27c0,3.67-2.98,6.65-6.65,6.65s-6.65-2.98-6.65-6.65,2.98-6.65,6.65-6.65,6.65,2.97,6.65,6.65Z"/>
      <line class="cls-3" x1="5.89" y1="52.5" x2="46.14" y2="52.5"/>
      <line class="cls-2" x1="22.18" y1="52.8" x2="22.18" y2="67.67"/>
      <line class="cls-2" x1="29.85" y1="52.8" x2="29.85" y2="67.67"/>
      <path d="M25.47,42.37c-.3.3-.31.79,0,1.1.3.3.8.3,1.1,0,.3-.31.3-.8,0-1.1-.3-.3-.8-.3-1.1,0Z"/>
      <path class="cls-4" d="M25.47,42.37c-.3.3-.31.79,0,1.1.3.3.8.3,1.1,0,.3-.31.3-.8,0-1.1-.3-.3-.8-.3-1.1,0Z"/>
    </g>
  </g>
</svg>