<?xml version="1.0" encoding="UTF-8"?>
<svg id="Layer_2" data-name="Layer 2" xmlns="http://www.w3.org/2000/svg" viewBox="0 0 45.06 70.9">
  <defs>
    <style>
      .cls-1, .cls-2, .cls-3 {
        fill: none;
        stroke: #000;
        stroke-width: 2.5px;
      }

      .cls-1, .cls-3 {
        stroke-miterlimit: 10;
      }

      .cls-2 {
        stroke-linejoin: round;
      }

      .cls-2, .cls-3 {
        stroke-linecap: round;
      }
    </style>
  </defs>
  <g id="Layer_1-2" data-name="Layer 1">
    <g>
      <path class="cls-1" d="M17.03,49.65c-.91,2.64-6.07,3.1-9.55.86-4.48-2.89-5.89-6.47-5.89-6.47,0,0,3.81-1.73,8.64-1.15,4.1.5,7.61,4.41,6.79,6.76Z"/>
      <path class="cls-1" d="M28.28,59.22c-1.11-2.56,2.39-6.38,6.46-7.08,5.26-.9,8.71.79,8.71.79,0,0-1.64,3.86-5.59,6.68-3.36,2.4-8.59,1.89-9.57-.39Z"/>
      <path class="cls-2" d="M17.14,9.63c-5.85-1.91-11.26-2.39-11.26-2.39,0,0,3.1,2.51,3.3,8.75.12,3.65.25,2.19-.4,8.04-.83,7.5,5.67,11.33,12.35,11.57"/>
      <polyline class="cls-2" points="21.13 35.6 22.52 35.63 23.91 35.6"/>
      <path class="cls-2" d="M23.91,35.6c6.68-.24,13.18-4.07,12.35-11.57-.65-5.86-.52-4.4-.4-8.04.2-6.25,3.3-8.74,3.3-8.74,0,0-23.69,2.32-23.69,16.65"/>
      <line class="cls-2" x1="22.52" y1="69.65" x2="22.52" y2="35.83"/>
      <line class="cls-3" x1="22.93" y1="41.89" x2="27.05" y2="41.89"/>
      <line class="cls-3" x1="22.93" y1="49.86" x2="27.05" y2="49.86"/>
      <line class="cls-3" x1="22.93" y1="65.35" x2="27.05" y2="65.35"/>
      <line class="cls-3" x1="18" y1="57.49" x2="22.11" y2="57.49"/>
      <path class="cls-2" d="M15.93,3.69c2.82-1.45,5.7-2.44,5.7-2.44,0,0,8.04,3.13,11.49,6.69"/>
    </g>
  </g>
</svg>