<?xml version="1.0" encoding="UTF-8"?>
<svg id="Layer_2" data-name="Layer 2" xmlns="http://www.w3.org/2000/svg" viewBox="0 0 67.89 62.61">
  <defs>
    <style>
      .cls-1 {
        stroke-linejoin: round;
      }

      .cls-1, .cls-2, .cls-3, .cls-4 {
        fill: none;
        stroke: #000;
        stroke-width: 2.5px;
      }

      .cls-2, .cls-4 {
        stroke-miterlimit: 10;
      }

      .cls-3 {
        stroke-miterlimit: 4;
      }

      .cls-3, .cls-4 {
        stroke-linecap: round;
      }
    </style>
  </defs>
  <g id="Layer_1-2" data-name="Layer 1">
    <g>
      <path class="cls-1" d="M27.07,53.09c1.16,2.26,1.43,3.4,1.43,8.22"/>
      <path class="cls-2" d="M27.32,53.38c-1.98,1.55-6.11-.63-7.64-4.01-1.98-4.38-1.3-7.78-1.3-7.78,0,0,3.74.55,7.1,3.35,2.86,2.38,3.6,7.06,1.84,8.44Z"/>
      <path class="cls-1" d="M38.89,49.19c-.74,3.81-1.16,7.98-1.16,11.91"/>
      <path class="cls-2" d="M38.84,49.43c1.53.66,5.7-1.82,6.37-5.83.8-4.74-.72-7.85-.72-7.85,0,0-3.47,1.48-6.02,5.05-2.16,3.03-1.69,7.74.37,8.63Z"/>
      <line class="cls-4" x1="1.25" y1="61.36" x2="66.64" y2="61.36"/>
      <polyline class="cls-2" points="60.75 61.11 60.75 35.6 33.91 20.09 7.13 35.4 7.13 56.64"/>
      <path class="cls-3" d="M50.21,11.75c.01,2.36,1.94,4.28,4.31,4.27,2.37-.01,4.28-1.94,4.27-4.31-.01-2.36-1.94-4.28-4.31-4.27-2.37,0-4.28,1.94-4.27,4.31Z"/>
      <line class="cls-3" x1="50.22" y1="22.19" x2="51.16" y2="19.96"/>
      <line class="cls-3" x1="57.87" y1="3.48" x2="58.81" y2="1.25"/>
      <line class="cls-3" x1="44.08" y1="16.09" x2="46.32" y2="15.17"/>
      <line class="cls-3" x1="62.71" y1="8.27" x2="64.95" y2="7.35"/>
      <line class="cls-3" x1="44.05" y1="7.43" x2="46.28" y2="8.36"/>
      <line class="cls-3" x1="62.75" y1="15.08" x2="64.99" y2="16.01"/>
      <line class="cls-3" x1="58.88" y1="22.16" x2="57.97" y2="19.92"/>
      <line class="cls-3" x1="51.06" y1="3.52" x2="50.15" y2="1.28"/>
    </g>
  </g>
</svg>