<?xml version="1.0" encoding="UTF-8"?>
<svg id="Layer_2" data-name="Layer 2" xmlns="http://www.w3.org/2000/svg" viewBox="0 0 66.26 67.87">
  <defs>
    <style>
      .cls-1 {
        stroke-linejoin: round;
      }

      .cls-1, .cls-2, .cls-3 {
        fill: none;
        stroke: #000;
        stroke-width: 2.5px;
      }

      .cls-2 {
        stroke-miterlimit: 10;
      }

      .cls-3 {
        stroke-miterlimit: 22.93;
      }
    </style>
  </defs>
  <g id="Layer_1-2" data-name="Layer 1">
    <g>
      <line class="cls-2" x1="44.37" y1="66.62" x2="5.27" y2="66.62"/>
      <path class="cls-2" d="M5.27,66.62c-2.22,0-4.02-1.8-4.02-4.02s1.8-4.02,4.02-4.02"/>
      <line class="cls-2" x1="5.27" y1="58.58" x2="44.37" y2="58.58"/>
      <path class="cls-2" d="M44.37,58.58c2.22,0,4.02,1.8,4.02,4.02s-1.8,4.02-4.02,4.02"/>
      <path class="cls-1" d="M5.27,58.58c-2.22,0-4.02-1.8-4.02-4.02s1.8-4.02,4.02-4.02"/>
      <line class="cls-1" x1="5.27" y1="50.54" x2="44.37" y2="50.54"/>
      <path class="cls-1" d="M44.37,50.54c2.22,0,4.02,1.8,4.02,4.02s-1.8,4.02-4.02,4.02"/>
      <path class="cls-1" d="M19.32,19.02c-6.9,2.87-13.13,7.46-13.86,12.73-.5,3.62,2.01,9.81,4.32,14.12"/>
      <path class="cls-1" d="M18.72,45.84c-2.8-3.99-5.92-9.85-5.38-12.63.64-3.33,4.81-5.71,12.38-8.74"/>
      <path class="cls-1" d="M43.01,12.12c-.16-.5-.7-.77-1.19-.6"/>
      <line class="cls-1" x1="41.82" y1="11.52" x2="31.61" y2="13.94"/>
      <path class="cls-1" d="M31.61,13.94c-.49.16-1.04-.11-1.21-.6"/>
      <line class="cls-1" x1="30.4" y1="13.34" x2="29.99" y2="12.15"/>
      <path class="cls-1" d="M29.99,12.15c-.17-.49-.71-.76-1.21-.6"/>
      <line class="cls-1" x1="28.79" y1="11.55" x2="23.49" y2="13.24"/>
      <path class="cls-1" d="M23.49,13.24c-.5.17-.77.7-.6,1.19"/>
      <line class="cls-1" x1="22.89" y1="14.44" x2="26.66" y2="26.08"/>
      <path class="cls-1" d="M26.66,26.08c.16.49.7.77,1.19.6"/>
      <line class="cls-1" x1="27.85" y1="26.68" x2="33.18" y2="24.98"/>
      <path class="cls-1" d="M33.18,24.98c.49-.16.77-.7.62-1.2"/>
      <line class="cls-1" x1="33.79" y1="23.78" x2="33.36" y2="22.4"/>
      <path class="cls-1" d="M33.36,22.4c-.16-.5.12-1.04.62-1.2"/>
      <line class="cls-1" x1="33.97" y1="21.2" x2="43.67" y2="17.15"/>
      <path class="cls-1" d="M43.67,17.15c.49-.16.77-.7.61-1.19"/>
      <line class="cls-1" x1="44.27" y1="15.96" x2="43.01" y2="12.12"/>
      <path d="M50.84,12c0,.43-.35.78-.78.78s-.78-.35-.78-.78.35-.78.78-.78.78.35.78.78Z"/>
      <path class="cls-3" d="M50.84,12c0,.43-.35.78-.78.78s-.78-.35-.78-.78.35-.78.78-.78.78.35.78.78Z"/>
      <path d="M55.89,6.98c0,.43-.35.78-.78.78s-.78-.35-.78-.78.35-.78.78-.78.78.35.78.78Z"/>
      <path class="cls-3" d="M55.89,6.98c0,.43-.35.78-.78.78s-.78-.35-.78-.78.35-.78.78-.78.78.35.78.78Z"/>
      <path d="M60.96,2.03c0,.43-.35.78-.78.78s-.78-.35-.78-.78.35-.78.78-.78.78.35.78.78Z"/>
      <path class="cls-3" d="M60.96,2.03c0,.43-.35.78-.78.78s-.78-.35-.78-.78.35-.78.78-.78.78.35.78.78Z"/>
      <path d="M62.94,7.95c0,.43-.35.78-.78.78s-.78-.35-.78-.78.35-.78.78-.78.78.35.78.78Z"/>
      <path class="cls-3" d="M62.94,7.95c0,.43-.35.78-.78.78s-.78-.35-.78-.78.35-.78.78-.78.78.35.78.78Z"/>
      <path d="M57.98,13.22c0,.43-.35.78-.78.78s-.78-.35-.78-.78.35-.78.78-.78.78.35.78.78Z"/>
      <path class="cls-3" d="M57.98,13.22c0,.43-.35.78-.78.78s-.78-.35-.78-.78.35-.78.78-.78.78.35.78.78Z"/>
      <path d="M65.01,14.12c0,.43-.35.78-.78.78s-.78-.35-.78-.78.35-.78.78-.78.78.35.78.78Z"/>
      <path class="cls-3" d="M65.01,14.12c0,.43-.35.78-.78.78s-.78-.35-.78-.78.35-.78.78-.78.78.35.78.78Z"/>
    </g>
  </g>
</svg>