<?xml version="1.0" encoding="UTF-8"?>
<svg id="Layer_2" data-name="Layer 2" xmlns="http://www.w3.org/2000/svg" viewBox="0 0 78.44 45.36">
  <defs>
    <style>
      .cls-1 {
        fill: none;
        stroke: #000;
        stroke-linecap: round;
        stroke-linejoin: round;
        stroke-width: 2.5px;
      }
    </style>
  </defs>
  <g id="Layer_1-2" data-name="Layer 1">
    <g>
      <path class="cls-1" d="M77.19,3.83s-4.97.6-10.21,2.78"/>
      <line class="cls-1" x1="1.25" y1="44.11" x2="58.27" y2="44.11"/>
      <line class="cls-1" x1="41.73" y1="17.95" x2="51.02" y2="17.29"/>
      <line class="cls-1" x1="54.73" y1="22.43" x2="24.15" y2="24.55"/>
      <path class="cls-1" d="M24.15,24.55c4.26-10.13,20.93-15.11,20.93-15.11,11.79-2.98,12.25,1.16,12.25,1.16,3.15,12.01-2.6,11.83-2.6,11.83"/>
      <path class="cls-1" d="M70.03,25.91s-10.56,6.31-65.44,6.31"/>
      <line class="cls-1" x1="71.57" y1="30.46" x2="65.65" y2="3.15"/>
      <path class="cls-1" d="M65.65,3.15c-.15-.62-.67-1.08-1.3-1.16-3.66-.49-7.27-.8-10.72-.73-11.91.24-22.04,3.49-27.71,6.39C9.65,15.98,2.52,35.78,2.45,35.99c-.19.47-.13,1.01.16,1.43.29.42.76.68,1.27.68"/>
      <line class="cls-1" x1="3.88" y1="38.1" x2="57.96" y2="38.1"/>
      <path class="cls-1" d="M57.96,38.1s0-.05,0-.05c.23,0,2.66-2.15,6.1-3.7,3.27-1.47,6.67-2.1,6.67-2.1.67-.32,1.02-1.06.85-1.78"/>
    </g>
  </g>
</svg>