<?xml version="1.0" encoding="UTF-8"?>
<svg id="Layer_2" data-name="Layer 2" xmlns="http://www.w3.org/2000/svg" viewBox="0 0 70.39 57.28">
  <defs>
    <style>
      .cls-1, .cls-2 {
        fill: none;
        stroke: #000;
        stroke-linejoin: round;
        stroke-width: 2.5px;
      }

      .cls-2 {
        stroke-linecap: round;
      }
    </style>
  </defs>
  <g id="Layer_1-2" data-name="Layer 1">
    <g>
      <line class="cls-1" x1="27.4" y1="7.75" x2="28.37" y2="3.38"/>
      <path class="cls-1" d="M28.37,3.38c.2-1.17,1.35-2.13,2.55-2.13"/>
      <line class="cls-1" x1="30.92" y1="1.25" x2="39.46" y2="1.25"/>
      <path class="cls-1" d="M39.46,1.25c1.21,0,2.36.96,2.56,2.13"/>
      <line class="cls-1" x1="42.02" y1="3.38" x2="42.99" y2="7.75"/>
      <line class="cls-2" x1="7.73" y1="38.12" x2="21.07" y2="38.12"/>
      <path class="cls-2" d="M21.07,38.12s-.54-5.84-4.12-5.84"/>
      <line class="cls-2" x1="16.95" y1="32.27" x2="13.41" y2="32.27"/>
      <line class="cls-2" x1="62.66" y1="38.12" x2="49.32" y2="38.12"/>
      <path class="cls-2" d="M49.32,38.12s.53-5.84,4.12-5.84"/>
      <line class="cls-2" x1="53.44" y1="32.27" x2="57" y2="32.27"/>
      <line class="cls-2" x1="17.69" y1="22.21" x2="52.58" y2="22.21"/>
      <path class="cls-2" d="M52.58,22.21s3.46.15,4.84-1.85"/>
      <line class="cls-2" x1="15.89" y1="49.59" x2="54.49" y2="49.59"/>
      <line class="cls-1" x1="20.46" y1="49.64" x2="20.46" y2="54.89"/>
      <path class="cls-1" d="M20.46,54.89c0,.63-.51,1.14-1.14,1.14"/>
      <line class="cls-1" x1="19.32" y1="56.03" x2="10.28" y2="56.03"/>
      <path class="cls-1" d="M10.28,56.03c-.63,0-1.14-.51-1.14-1.14"/>
      <line class="cls-1" x1="9.14" y1="54.89" x2="9.14" y2="49.4"/>
      <path class="cls-1" d="M9.14,49.4c-1.03-.41-1.8-1.42-1.8-2.59"/>
      <line class="cls-1" x1="7.34" y1="46.8" x2="7.34" y2="33.28"/>
      <path class="cls-1" d="M7.34,33.28s.14-1.33.62-2.97"/>
      <polyline class="cls-1" points="7.96 30.31 12.11 21.28 14.55 13.68"/>
      <path class="cls-1" d="M14.55,13.68c.68-3.78,5.73-5.81,7.99-5.81h25.31c2.26,0,7.31,2.03,7.99,5.81"/>
      <polyline class="cls-1" points="55.84 13.68 58.28 21.28 62.43 30.31"/>
      <path class="cls-1" d="M62.43,30.31c.48,1.64.62,2.97.62,2.97"/>
      <line class="cls-1" x1="63.05" y1="33.28" x2="63.05" y2="46.8"/>
      <path class="cls-1" d="M63.05,46.8c0,1.17-.76,2.19-1.79,2.59"/>
      <line class="cls-1" x1="61.26" y1="49.39" x2="61.26" y2="54.89"/>
      <path class="cls-1" d="M61.26,54.89c0,.63-.51,1.14-1.14,1.14"/>
      <line class="cls-1" x1="60.12" y1="56.03" x2="51.08" y2="56.03"/>
      <path class="cls-1" d="M51.08,56.03c-.63,0-1.14-.51-1.14-1.14"/>
      <line class="cls-1" x1="49.94" y1="54.89" x2="49.94" y2="49.64"/>
      <path class="cls-2" d="M7.92,19.25h-3.18c-3.13,0-3.49,4.69-3.49,4.69"/>
      <line class="cls-2" x1="1.25" y1="23.94" x2="10.13" y2="24.73"/>
      <line class="cls-2" x1="60.26" y1="24.73" x2="69.14" y2="23.94"/>
      <path class="cls-2" d="M69.14,23.94s-.36-4.69-3.49-4.69h-3.18"/>
      <polyline class="cls-1" points="25.06 49.57 25.06 43.73 45.33 43.73 45.33 49.57"/>
    </g>
  </g>
</svg>