<?xml version="1.0" encoding="UTF-8"?>
<svg id="Layer_2" data-name="Layer 2" xmlns="http://www.w3.org/2000/svg" viewBox="0 0 67.08 49.36">
  <defs>
    <style>
      .cls-1 {
        fill: none;
        stroke: #000;
        stroke-miterlimit: 10;
        stroke-width: 2.5px;
      }
    </style>
  </defs>
  <g id="Layer_1-2" data-name="Layer 1">
    <g>
      <line class="cls-1" x1="5.16" y1="19.56" x2="5.16" y2="8.3"/>
      <path class="cls-1" d="M5.16,8.3c0-3.88,3.17-7.05,7.05-7.05"/>
      <line class="cls-1" x1="12.21" y1="1.25" x2="54.87" y2="1.25"/>
      <path class="cls-1" d="M54.87,1.25c3.88,0,7.05,3.18,7.05,7.05"/>
      <line class="cls-1" x1="61.93" y1="8.3" x2="61.93" y2="19.56"/>
      <line class="cls-1" x1="1.25" y1="49.36" x2="1.25" y2="29.4"/>
      <path class="cls-1" d="M1.25,29.4c0-2.77,2.27-5.04,5.04-5.04"/>
      <line class="cls-1" x1="6.29" y1="24.36" x2="60.79" y2="24.36"/>
      <path class="cls-1" d="M60.79,24.36c2.77,0,5.04,2.27,5.04,5.04"/>
      <line class="cls-1" x1="65.83" y1="29.4" x2="65.83" y2="49.36"/>
      <line class="cls-1" x1="13.99" y1="19.56" x2="13.99" y2="11.97"/>
      <path class="cls-1" d="M13.99,11.97c0-1.66,1.36-3.02,3.02-3.02"/>
      <line class="cls-1" x1="17.01" y1="8.95" x2="26.42" y2="8.95"/>
      <path class="cls-1" d="M26.42,8.95c1.66,0,3.02,1.36,3.02,3.02"/>
      <line class="cls-1" x1="29.44" y1="11.97" x2="29.44" y2="19.56"/>
      <line class="cls-1" x1="37.64" y1="19.56" x2="37.64" y2="11.97"/>
      <path class="cls-1" d="M37.64,11.97c0-1.66,1.36-3.02,3.02-3.02"/>
      <line class="cls-1" x1="40.67" y1="8.95" x2="50.07" y2="8.95"/>
      <path class="cls-1" d="M50.07,8.95c1.66,0,3.02,1.36,3.02,3.02"/>
      <line class="cls-1" x1="53.1" y1="11.97" x2="53.1" y2="19.56"/>
      <line class="cls-1" x1="1.61" y1="41.13" x2="65.48" y2="41.13"/>
    </g>
  </g>
</svg>