<?xml version="1.0" encoding="UTF-8"?>
<svg id="Layer_2" data-name="Layer 2" xmlns="http://www.w3.org/2000/svg" viewBox="0 0 65.01 65.34">
  <defs>
    <style>
      .cls-1 {
        fill-rule: evenodd;
      }

      .cls-1, .cls-2 {
        fill: none;
        stroke: #000;
        stroke-linecap: round;
        stroke-linejoin: round;
        stroke-width: 2.5px;
      }
    </style>
  </defs>
  <g id="Layer_1-2" data-name="Layer 1">
    <g>
      <path class="cls-1" d="M10.87,6.84s6.96,6.18,10.22,6.18,5.89-2.64,5.89-5.89-2.64-5.89-5.89-5.89-10.22,5.59-10.22,5.59Z"/>
      <path class="cls-1" d="M57.24,51.96c-4.34.01-12.57-.76-18.95-6.06-.28-.23-.69-.21-.93.06l-1.6,1.81c-.23.26-.22.66.02.91l3.19,3.27s.59,8.96,7.56,11.71c.72.29,1.56.11,2.11-.44l9.4-9.28c.74-.73.23-2-.81-2Z"/>
      <path class="cls-1" d="M51.93,60.01s-4.57-1.07-6.74-4.17"/>
      <line class="cls-2" x1="41.91" y1="48.36" x2="38.99" y2="51.96"/>
      <line class="cls-2" x1="28.26" y1="39.23" x2="4.73" y2="17.89"/>
      <line class="cls-2" x1="36.62" y1="46.81" x2="33.69" y2="44.16"/>
      <path class="cls-2" d="M20.68,47.59h4.91v15.64c0,.48-.39.86-.86.86h-3.18c-.48,0-.86-.39-.86-.86v-15.64h0Z"/>
      <path class="cls-2" d="M15.77,47.59h4.91v15.64c0,.48-.39.86-.86.86h-3.18c-.48,0-.86-.39-.86-.86v-15.64h0Z"/>
      <polyline class="cls-1" points="26.05 28.69 30.67 47.59 7.77 47.59 14.04 26.89"/>
      <path class="cls-1" d="M29.92,44.51h2.11c1.32,0,2.32-1.19,2.08-2.49l-3.55-19.64c-.55-3.06-3.21-5.28-6.32-5.28h-7.68c-.52,0-1.02.2-1.4.55l-5.28,4.93"/>
      <path class="cls-1" d="M12.28,30.99h0c-1.06.61-2.41.25-3.02-.81L1.55,17.97c-.61-1.06-.25-2.41.81-3.02h0c1.06-.61,2.41-.25,3.02.81l3.4,5.38"/>
      <circle class="cls-2" cx="61.24" cy="41.99" r="2.52"/>
      <circle class="cls-2" cx="52.65" cy="45.21" r="1.06"/>
    </g>
  </g>
</svg>