<?xml version="1.0" encoding="UTF-8"?>
<svg id="Layer_2" data-name="Layer 2" xmlns="http://www.w3.org/2000/svg" viewBox="0 0 47.48 62.35">
  <defs>
    <style>
      .cls-1, .cls-2, .cls-3, .cls-4 {
        fill: none;
        stroke: #141313;
        stroke-width: 2.5px;
      }

      .cls-1, .cls-3 {
        stroke-miterlimit: 10;
      }

      .cls-1, .cls-4 {
        stroke-linecap: round;
      }

      .cls-2 {
        stroke-miterlimit: 22.93;
      }

      .cls-5 {
        fill: #141313;
      }

      .cls-4 {
        stroke-linejoin: round;
      }
    </style>
  </defs>
  <g id="Layer_1-2" data-name="Layer 1">
    <g>
      <line class="cls-3" x1="7.56" y1="22.65" x2="7.57" y2="16.34"/>
      <path class="cls-3" d="M7.57,16.34c-.05-8.25,6.67-15.05,14.92-15.09"/>
      <line class="cls-3" x1="22.49" y1="1.25" x2="24.8" y2="1.25"/>
      <path class="cls-3" d="M24.8,1.25c8.25-.04,15.04,6.67,15.08,14.92"/>
      <line class="cls-3" x1="39.88" y1="16.17" x2="39.88" y2="22.65"/>
      <line class="cls-3" x1="14.28" y1="22.65" x2="14.28" y2="17.09"/>
      <path class="cls-3" d="M14.28,17.09c0-4.95,4.05-9,9-9"/>
      <line class="cls-3" x1="23.28" y1="8.09" x2="24.19" y2="8.09"/>
      <path class="cls-3" d="M24.19,8.09c4.95,0,9,4.05,9,9"/>
      <line class="cls-3" x1="33.19" y1="17.09" x2="33.19" y2="22.65"/>
      <path class="cls-4" d="M1.25,49.7c0,6.27,5.4,11.4,12,11.4"/>
      <line class="cls-4" x1="13.25" y1="61.1" x2="34.23" y2="61.1"/>
      <path class="cls-4" d="M34.23,61.1c6.6,0,12-5.13,12-11.4"/>
      <line class="cls-4" x1="46.23" y1="49.7" x2="46.23" y2="29"/>
      <path class="cls-4" d="M46.23,29c0-1.1-.9-2-2-2"/>
      <line class="cls-4" x1="44.23" y1="26.99" x2="3.25" y2="26.99"/>
      <path class="cls-4" d="M3.25,26.99c-1.1,0-2,.9-2,2"/>
      <line class="cls-4" x1="1.25" y1="29" x2="1.25" y2="49.7"/>
      <line class="cls-1" x1="23.74" y1="40.57" x2="23.74" y2="49.11"/>
      <path class="cls-5" d="M25.37,40.01c0,.91-.73,1.63-1.63,1.63s-1.63-.73-1.63-1.63.73-1.63,1.63-1.63,1.63.73,1.63,1.63Z"/>
      <path class="cls-2" d="M25.37,40.01c0,.91-.73,1.63-1.63,1.63s-1.63-.73-1.63-1.63.73-1.63,1.63-1.63,1.63.73,1.63,1.63Z"/>
    </g>
  </g>
</svg>