<?xml version="1.0" encoding="UTF-8"?>
<svg id="Layer_2" data-name="Layer 2" xmlns="http://www.w3.org/2000/svg" viewBox="0 0 49.5 67.49">
  <defs>
    <style>
      .cls-1 {
        fill: none;
        stroke: #141313;
        stroke-linecap: round;
        stroke-linejoin: round;
        stroke-width: 2.5px;
      }
    </style>
  </defs>
  <g id="Layer_1-2" data-name="Layer 1">
    <g>
      <line class="cls-1" x1="19.99" y1="66.24" x2="2.5" y2="48.72"/>
      <path class="cls-1" d="M2.5,48.72c-1.68-1.7-1.67-4.47.03-6.15"/>
      <line class="cls-1" x1="2.54" y1="42.57" x2="3.01" y2="42.1"/>
      <path class="cls-1" d="M3.01,42.1c1.7-1.68,4.47-1.67,6.15.03"/>
      <polyline class="cls-1" points="9.16 42.13 17.1 50.06 17.1 39.7 17.1 18.33"/>
      <path class="cls-1" d="M17.1,18.33c0-2.39,1.96-4.35,4.35-4.35"/>
      <line class="cls-1" x1="21.44" y1="13.98" x2="21.81" y2="13.98"/>
      <path class="cls-1" d="M21.81,13.98c2.39,0,4.35,1.96,4.35,4.35"/>
      <polyline class="cls-1" points="26.15 18.33 26.15 34.65 42.82 37.41"/>
      <path class="cls-1" d="M42.82,37.41s5.43,1.09,5.43,8.21"/>
      <line class="cls-1" x1="48.25" y1="45.62" x2="46.66" y2="65.54"/>
      <path class="cls-1" d="M12.4,21.8c-.73-1.41-1.14-3.01-1.14-4.71,0-5.67,4.59-10.26,10.26-10.26s10.26,4.59,10.26,10.26c0,1.68-.4,3.27-1.12,4.67"/>
      <path class="cls-1" d="M7.34,24.16c-1.06-2.13-1.66-4.53-1.66-7.07C5.68,8.34,12.77,1.25,21.52,1.25s15.84,7.09,15.84,15.84c0,2.53-.59,4.92-1.64,7.03"/>
    </g>
  </g>
</svg>