<?xml version="1.0" encoding="UTF-8"?>
<svg id="Layer_2" data-name="Layer 2" xmlns="http://www.w3.org/2000/svg" viewBox="0 0 59.43 63.19">
  <defs>
    <style>
      .cls-1 {
        stroke-miterlimit: 22.93;
      }

      .cls-1, .cls-2, .cls-3 {
        fill: none;
        stroke: #141313;
        stroke-width: 2.5px;
      }

      .cls-4 {
        fill: #141313;
      }

      .cls-2 {
        stroke-linecap: round;
      }

      .cls-2, .cls-3 {
        stroke-linejoin: round;
      }
    </style>
  </defs>
  <g id="Layer_1-2" data-name="Layer 1">
    <g>
      <rect class="cls-2" x="3.6" y="54.77" width="52.24" height="7.17"/>
      <line class="cls-3" x1="7.44" y1="27.97" x2="9.37" y2="54.64"/>
      <line class="cls-3" x1="52.33" y1="23.3" x2="50.05" y2="54.64"/>
      <path class="cls-2" d="M1.25,12.26C1.25,6.21,6.48,1.25,12.86,1.25"/>
      <line class="cls-2" x1="12.86" y1="1.25" x2="46.57" y2="1.25"/>
      <path class="cls-2" d="M46.57,1.25c6.39,0,11.61,4.96,11.61,11.01"/>
      <polyline class="cls-2" points="58.18 12.26 58.18 23.28 1.25 23.28 1.25 12.26"/>
      <path class="cls-2" d="M34.33,12.26c0,2.55-2.06,4.61-4.61,4.61s-4.61-2.06-4.61-4.61,2.06-4.61,4.61-4.61,4.61,2.06,4.61,4.61Z"/>
      <line class="cls-2" x1="34.49" y1="31.68" x2="44.25" y2="31.68"/>
      <polyline class="cls-2" points="37.04 23.54 37.04 29.46 22.39 29.46 22.39 23.54"/>
      <polyline class="cls-2" points="34.41 29.69 34.41 35.72 25.02 35.72 25.02 29.69"/>
      <polyline class="cls-2" points="22.42 48.26 22.42 42.05 37.02 42.05 37.02 48.26"/>
      <path class="cls-2" d="M37.02,48.26c0,3.42-3.28,6.21-7.3,6.21s-7.3-2.79-7.3-6.21"/>
      <line class="cls-2" x1="37.05" y1="45.17" x2="41.39" y2="45.17"/>
      <path class="cls-4" d="M43.04,12.26c0,.43-.35.78-.78.78s-.78-.35-.78-.78.35-.78.78-.78.78.35.78.78Z"/>
      <path class="cls-1" d="M43.04,12.26c0,.43-.35.78-.78.78s-.78-.35-.78-.78.35-.78.78-.78.78.35.78.78Z"/>
      <path class="cls-4" d="M49.83,12.26c0,.43-.35.78-.78.78s-.78-.35-.78-.78.35-.78.78-.78.78.35.78.78Z"/>
      <path class="cls-1" d="M49.83,12.26c0,.43-.35.78-.78.78s-.78-.35-.78-.78.35-.78.78-.78.78.35.78.78Z"/>
      <path class="cls-4" d="M11.16,12.26c0,.43-.35.78-.78.78s-.78-.35-.78-.78.35-.78.78-.78.78.35.78.78Z"/>
      <path class="cls-1" d="M11.16,12.26c0,.43-.35.78-.78.78s-.78-.35-.78-.78.35-.78.78-.78.78.35.78.78Z"/>
      <path class="cls-4" d="M17.95,12.26c0,.43-.35.78-.78.78s-.78-.35-.78-.78.35-.78.78-.78.78.35.78.78Z"/>
      <path class="cls-1" d="M17.95,12.26c0,.43-.35.78-.78.78s-.78-.35-.78-.78.35-.78.78-.78.78.35.78.78Z"/>
    </g>
  </g>
</svg>