<?xml version="1.0" encoding="UTF-8"?>
<svg id="Layer_2" data-name="Layer 2" xmlns="http://www.w3.org/2000/svg" viewBox="0 0 51.27 68.8">
  <defs>
    <style>
      .cls-1 {
        stroke-miterlimit: 22.93;
      }

      .cls-1, .cls-2, .cls-3, .cls-4 {
        fill: none;
        stroke: #141313;
        stroke-width: 2.5px;
      }

      .cls-2 {
        stroke-miterlimit: 10;
      }

      .cls-5 {
        fill: #141313;
      }

      .cls-3 {
        stroke-linecap: round;
      }

      .cls-3, .cls-4 {
        stroke-linejoin: round;
      }
    </style>
  </defs>
  <g id="Layer_1-2" data-name="Layer 1">
    <g>
      <path class="cls-5" d="M17.53,52.21c0,.39-.31.7-.7.7s-.7-.31-.7-.7.31-.7.7-.7.7.31.7.7Z"/>
      <path class="cls-1" d="M17.53,52.21c0,.39-.31.7-.7.7s-.7-.31-.7-.7.31-.7.7-.7.7.31.7.7Z"/>
      <path class="cls-5" d="M27.69,52.62c0,.39-.31.7-.7.7s-.7-.31-.7-.7.31-.7.7-.7.7.31.7.7Z"/>
      <path class="cls-1" d="M27.69,52.62c0,.39-.31.7-.7.7s-.7-.31-.7-.7.31-.7.7-.7.7.31.7.7Z"/>
      <path class="cls-5" d="M35.32,54.62c0,.39-.31.7-.7.7s-.7-.31-.7-.7.31-.7.7-.7.7.31.7.7Z"/>
      <path class="cls-1" d="M35.32,54.62c0,.39-.31.7-.7.7s-.7-.31-.7-.7.31-.7.7-.7.7.31.7.7Z"/>
      <path class="cls-5" d="M33.38,61.93c0,.39-.31.7-.7.7s-.7-.31-.7-.7.31-.7.7-.7.7.31.7.7Z"/>
      <path class="cls-1" d="M33.38,61.93c0,.39-.31.7-.7.7s-.7-.31-.7-.7.31-.7.7-.7.7.31.7.7Z"/>
      <path class="cls-5" d="M24.35,58.92c0,.39-.31.7-.7.7s-.7-.31-.7-.7.31-.7.7-.7.7.31.7.7Z"/>
      <path class="cls-1" d="M24.35,58.92c0,.39-.31.7-.7.7s-.7-.31-.7-.7.31-.7.7-.7.7.31.7.7Z"/>
      <line class="cls-2" x1="40.76" y1="30.47" x2="45.02" y2="30.47"/>
      <path class="cls-2" d="M45.02,30.47c2.75,0,5,2.25,5,5"/>
      <line class="cls-2" x1="50.02" y1="35.47" x2="50.02" y2="52.8"/>
      <path class="cls-2" d="M50.02,52.8c0,2.75-2.25,5-5,5"/>
      <line class="cls-2" x1="45.02" y1="57.8" x2="40.93" y2="57.8"/>
      <line class="cls-2" x1="24.9" y1="25.76" x2="24.9" y2="46.2"/>
      <polyline class="cls-4" points="9.66 27.53 1.25 27.53 9.17 36.26 9.17 62.92"/>
      <path class="cls-4" d="M9.17,62.92c0,2.55,2.08,4.63,4.63,4.63"/>
      <line class="cls-4" x1="13.8" y1="67.55" x2="36.02" y2="67.55"/>
      <path class="cls-4" d="M36.02,67.55c2.55,0,4.63-2.08,4.63-4.63"/>
      <line class="cls-4" x1="40.65" y1="62.92" x2="40.65" y2="25.76"/>
      <line class="cls-3" x1="14.73" y1="46.11" x2="35.09" y2="46.11"/>
      <path class="cls-3" d="M40.55,21.58c-.35-5.59-7.22-10.31-15.65-10.31s-15.33,4.71-15.65,10.31"/>
      <line class="cls-3" x1="9.25" y1="21.58" x2="40.55" y2="21.58"/>
      <path class="cls-5" d="M17.07,61.62c0,.39-.31.7-.7.7s-.7-.31-.7-.7.31-.7.7-.7.7.31.7.7Z"/>
      <path class="cls-1" d="M17.07,61.62c0,.39-.31.7-.7.7s-.7-.31-.7-.7.31-.7.7-.7.7.31.7.7Z"/>
      <line class="cls-3" x1="24.9" y1="11.2" x2="24.9" y2="3.74"/>
      <path d="M26.06,2.41c0,.64-.52,1.16-1.16,1.16s-1.16-.52-1.16-1.16.52-1.16,1.16-1.16,1.16.52,1.16,1.16Z"/>
      <path class="cls-1" d="M26.06,2.41c0,.64-.52,1.16-1.16,1.16s-1.16-.52-1.16-1.16.52-1.16,1.16-1.16,1.16.52,1.16,1.16Z"/>
    </g>
  </g>
</svg>