<?xml version="1.0" encoding="UTF-8"?>
<svg id="Layer_2" data-name="Layer 2" xmlns="http://www.w3.org/2000/svg" viewBox="0 0 55.09 65.05">
  <defs>
    <style>
      .cls-1 {
        stroke-miterlimit: 22.93;
      }

      .cls-1, .cls-2, .cls-3, .cls-4 {
        fill: none;
        stroke: #141313;
        stroke-width: 2.5px;
      }

      .cls-2 {
        stroke-miterlimit: 10;
      }

      .cls-5 {
        fill: #141313;
      }

      .cls-3 {
        stroke-linecap: round;
      }

      .cls-3, .cls-4 {
        stroke-linejoin: round;
      }
    </style>
  </defs>
  <g id="Layer_1-2" data-name="Layer 1">
    <g>
      <line class="cls-4" x1="4.42" y1="1.46" x2="4.42" y2="2.61"/>
      <path class="cls-4" d="M4.42,2.61c0,3.07,2.51,5.58,5.58,5.58"/>
      <line class="cls-4" x1="10" y1="8.19" x2="36.27" y2="8.19"/>
      <path class="cls-4" d="M36.27,8.19c3.07,0,5.58-2.51,5.58-5.58"/>
      <line class="cls-4" x1="41.85" y1="2.61" x2="41.85" y2="1.46"/>
      <line class="cls-3" x1="1.25" y1="1.25" x2="45.02" y2="1.25"/>
      <path class="cls-2" d="M39.4,49.26c0,2.09,1.7,3.79,3.79,3.79s3.79-1.7,3.79-3.79-1.7-3.79-3.79-3.79-3.79,1.7-3.79,3.79Z"/>
      <line class="cls-3" x1="47.65" y1="63.8" x2="47.65" y2="60.79"/>
      <line class="cls-3" x1="19.96" y1="63.8" x2="19.96" y2="60.79"/>
      <line class="cls-4" x1="29.67" y1="32.24" x2="14.67" y2="32.24"/>
      <polyline class="cls-4" points="16.93 12.72 16.93 22.66 14.63 22.66"/>
      <polyline class="cls-4" points="23.94 8.17 23.94 22.66 29.69 22.66"/>
      <path class="cls-3" d="M8.12,19.85c-.78,0-1.42.64-1.42,1.42"/>
      <line class="cls-3" x1="6.7" y1="21.27" x2="6.7" y2="33.43"/>
      <path class="cls-3" d="M6.7,33.43c0,.78.64,1.42,1.42,1.42"/>
      <polyline class="cls-3" points="8.12 34.85 14.53 34.85 14.53 19.85 8.12 19.85"/>
      <path class="cls-3" d="M51.01,60.55c1.56,0,2.83-1.27,2.83-2.83"/>
      <line class="cls-3" x1="53.84" y1="57.72" x2="53.84" y2="21.72"/>
      <path class="cls-3" d="M53.84,21.72c0-1.56-1.28-2.83-2.83-2.83"/>
      <line class="cls-3" x1="51.01" y1="18.89" x2="29.76" y2="18.89"/>
      <path class="cls-3" d="M29.76,18.89v16.67c0,1.14.2,9.33-8.67,9.33"/>
      <line class="cls-3" x1="21.09" y1="44.89" x2="16.63" y2="44.89"/>
      <path class="cls-3" d="M16.63,44.89c-1.56,0-2.83,1.27-2.83,2.83"/>
      <line class="cls-3" x1="13.8" y1="47.72" x2="13.8" y2="57.72"/>
      <path class="cls-3" d="M13.8,57.72c0,1.56,1.28,2.83,2.83,2.83"/>
      <line class="cls-3" x1="16.63" y1="60.55" x2="51.01" y2="60.55"/>
      <path class="cls-5" d="M43.94,39.55c0,.39-.31.7-.7.7s-.7-.31-.7-.7.31-.7.7-.7.7.31.7.7Z"/>
      <path class="cls-1" d="M43.94,39.55c0,.39-.31.7-.7.7s-.7-.31-.7-.7.31-.7.7-.7.7.31.7.7Z"/>
      <path class="cls-5" d="M36.95,42.47c0,.39-.31.7-.7.7s-.7-.31-.7-.7.31-.7.7-.7.7.31.7.7Z"/>
      <path class="cls-1" d="M36.95,42.47c0,.39-.31.7-.7.7s-.7-.31-.7-.7.31-.7.7-.7.7.31.7.7Z"/>
      <path class="cls-5" d="M34.25,49.26c0,.39-.31.7-.7.7s-.7-.31-.7-.7.31-.7.7-.7.7.31.7.7Z"/>
      <path class="cls-1" d="M34.25,49.26c0,.39-.31.7-.7.7s-.7-.31-.7-.7.31-.7.7-.7.7.31.7.7Z"/>
    </g>
  </g>
</svg>