<?xml version="1.0" encoding="UTF-8"?>
<svg id="Layer_2" data-name="Layer 2" xmlns="http://www.w3.org/2000/svg" viewBox="0 0 66.34 66.65">
  <defs>
    <style>
      .cls-1 {
        fill: none;
        stroke: #000;
        stroke-linecap: round;
        stroke-miterlimit: 22.93;
        stroke-width: 2.5px;
      }
    </style>
  </defs>
  <g id="Layer_1-2" data-name="Layer 1">
    <g>
      <path class="cls-1" d="M36.41,36.14c2.78,1.17,4.72,3.91,4.72,7.11,0,4.26-3.45,7.72-7.72,7.72s-7.72-3.46-7.72-7.72c0-3.15,1.88-5.85,4.59-7.05.98-.02,4.94-.12,6.12-.06Z"/>
      <polyline class="cls-1" points="29.5 36.14 29.5 28.1 37.22 28.1 37.22 36.14"/>
      <line class="cls-1" x1="33.26" y1="27.64" x2="33.26" y2="7.06"/>
      <polyline class="cls-1" points="24.73 1.25 42.23 1.25 42.23 1.25"/>
      <path class="cls-1" d="M42.23,1.25c0,2.96-2.42,5.39-5.39,5.39"/>
      <line class="cls-1" x1="36.84" y1="6.64" x2="30.11" y2="6.64"/>
      <path class="cls-1" d="M30.11,6.64c-2.96,0-5.39-2.42-5.39-5.39"/>
      <line class="cls-1" x1="24.73" y1="1.25" x2="24.73" y2="1.25"/>
      <line class="cls-1" x1="30.19" y1="53.89" x2="28.58" y2="64.01"/>
      <path class="cls-1" d="M28.58,64.01c-.12.75.62,1.39,1.39,1.39"/>
      <line class="cls-1" x1="29.97" y1="65.4" x2="36.49" y2="65.4"/>
      <path class="cls-1" d="M36.49,65.4c.76,0,1.49-.63,1.39-1.39"/>
      <line class="cls-1" x1="37.88" y1="64.01" x2="36.47" y2="53.65"/>
      <line class="cls-1" x1="43.24" y1="38.7" x2="63.7" y2="40.5"/>
      <path class="cls-1" d="M63.7,40.5c.76.07,1.39-.62,1.39-1.39"/>
      <line class="cls-1" x1="65.09" y1="39.11" x2="65.09" y2="34.3"/>
      <path class="cls-1" d="M65.09,34.3c0-.76-.63-1.46-1.39-1.39"/>
      <line class="cls-1" x1="63.7" y1="32.91" x2="41.89" y2="34.87"/>
      <line class="cls-1" x1="23.1" y1="38.7" x2="2.64" y2="40.5"/>
      <path class="cls-1" d="M2.64,40.5c-.76.07-1.39-.62-1.39-1.39"/>
      <line class="cls-1" x1="1.25" y1="39.11" x2="1.25" y2="34.3"/>
      <path class="cls-1" d="M1.25,34.3c0-.76.63-1.46,1.39-1.39"/>
      <line class="cls-1" x1="2.64" y1="32.91" x2="24.45" y2="34.87"/>
      <line class="cls-1" x1="25.4" y1="32.2" x2="8.77" y2="20.38"/>
      <path class="cls-1" d="M8.77,20.38c-.62-.44-.55-1.44,0-1.96"/>
      <line class="cls-1" x1="8.77" y1="18.41" x2="12.57" y2="14.79"/>
      <path class="cls-1" d="M12.57,14.79c.55-.53,1.45-.56,1.96,0"/>
      <line class="cls-1" x1="14.54" y1="14.79" x2="26.12" y2="27.56"/>
      <line class="cls-1" x1="23.21" y1="42.66" x2="8.77" y2="52.93"/>
      <path class="cls-1" d="M8.77,52.93c-.62.44-.55,1.44,0,1.96"/>
      <line class="cls-1" x1="8.77" y1="54.89" x2="12.57" y2="58.51"/>
      <path class="cls-1" d="M12.57,58.51c.55.53,1.45.56,1.96,0"/>
      <line class="cls-1" x1="14.54" y1="58.51" x2="23.9" y2="48.19"/>
      <line class="cls-1" x1="43.34" y1="42.66" x2="57.78" y2="52.93"/>
      <path class="cls-1" d="M57.78,52.93c.62.44.55,1.44,0,1.96"/>
      <line class="cls-1" x1="57.78" y1="54.89" x2="53.97" y2="58.51"/>
      <path class="cls-1" d="M53.97,58.51c-.55.53-1.45.56-1.96,0"/>
      <line class="cls-1" x1="52.01" y1="58.51" x2="42.64" y2="48.19"/>
      <line class="cls-1" x1="41.03" y1="32.2" x2="57.66" y2="20.38"/>
      <path class="cls-1" d="M57.66,20.38c.62-.44.55-1.44,0-1.96"/>
      <line class="cls-1" x1="57.66" y1="18.41" x2="53.86" y2="14.79"/>
      <path class="cls-1" d="M53.86,14.79c-.55-.53-1.45-.56-1.96,0"/>
      <line class="cls-1" x1="51.9" y1="14.79" x2="40.31" y2="27.56"/>
    </g>
  </g>
</svg>