<?xml version="1.0" encoding="UTF-8"?>
<svg id="Layer_2" data-name="Layer 2" xmlns="http://www.w3.org/2000/svg" viewBox="0 0 83.02 68.2">
  <defs>
    <style>
      .cls-1 {
        fill: none;
        stroke: #000;
        stroke-linecap: round;
        stroke-miterlimit: 22.93;
        stroke-width: 2.5px;
      }
    </style>
  </defs>
  <g id="Layer_1-2" data-name="Layer 1">
    <g>
      <path class="cls-1" d="M45.26,48.19c3.51,1.48,5.97,4.95,5.97,9,0,5.39-4.37,9.76-9.76,9.76s-9.76-4.37-9.76-9.76c0-3.98,2.38-7.4,5.8-8.92,1.24-.03,6.25-.15,7.75-.08Z"/>
      <polyline class="cls-1" points="36.52 48.19 36.52 38.01 46.28 38.01 46.28 48.19"/>
      <path class="cls-1" d="M20.05,41.33c1.44,3.53.72,7.73-2.14,10.59-3.81,3.81-9.99,3.81-13.8,0-3.81-3.81-3.81-9.99,0-13.8,2.81-2.82,6.92-3.55,10.41-2.21.9.86,4.52,4.32,5.53,5.42Z"/>
      <polyline class="cls-1" points="13.88 35.15 21.07 27.96 27.97 34.85 20.77 42.05"/>
      <path class="cls-1" d="M62.97,41.33c-1.44,3.53-.72,7.73,2.14,10.59,3.81,3.81,9.99,3.81,13.8,0,3.81-3.81,3.81-9.99,0-13.8-2.81-2.82-6.92-3.55-10.41-2.21-.9.86-4.52,4.32-5.53,5.42Z"/>
      <polyline class="cls-1" points="69.14 35.15 61.95 27.96 55.05 34.85 62.24 42.05"/>
      <line class="cls-1" x1="30.33" y1="1.25" x2="52.47" y2="1.25"/>
      <path class="cls-1" d="M52.47,1.25c0,3.75-3.07,6.81-6.81,6.81"/>
      <line class="cls-1" x1="45.66" y1="8.06" x2="37.14" y2="8.06"/>
      <path class="cls-1" d="M37.14,8.06c-3.75,0-6.81-3.06-6.81-6.81"/>
      <line class="cls-1" x1="41.4" y1="38.01" x2="41.4" y2="8.06"/>
      <path class="cls-1" d="M35.37,7.83c-1.8,8.57-5.53,16.17-10.85,23.58"/>
      <path class="cls-1" d="M46.95,8.04c1.54,9.42,5.09,16.79,10.96,23.95"/>
    </g>
  </g>
</svg>