<?xml version="1.0" encoding="UTF-8"?>
<svg id="Layer_2" data-name="Layer 2" xmlns="http://www.w3.org/2000/svg" viewBox="0 0 60.16 66.96">
  <defs>
    <style>
      .cls-1 {
        fill: none;
        stroke: #000;
        stroke-linecap: round;
        stroke-miterlimit: 22.93;
        stroke-width: 2.5px;
      }
    </style>
  </defs>
  <g id="Layer_1-2" data-name="Layer 1">
    <path class="cls-1" d="M36.36,37.39h22.56v22.56h-22.56v-22.56ZM47.7,65.71c-3.09,0-5.62-2.53-5.62-5.62M53.32,60.09c0,3.09-2.53,5.62-5.62,5.62M1.25,37.39h22.56v22.56H1.25v-22.56ZM12.6,65.71c-3.09,0-5.62-2.53-5.62-5.62M18.22,60.09c0,3.09-2.53,5.62-5.62,5.62M54.09,41.88v14.46M19.32,41.88v14.46M48.34,34.25v3.14M43.78,29.7c2.5,0,4.55,2.05,4.55,4.55M16.88,29.7h26.9M12.33,34.25c0-2.5,2.05-4.55,4.55-4.55M12.33,37.39v-3.14M30.4,30.1V7.07M26.65,7.14c-3.24,0-5.89-2.65-5.89-5.89M34.01,7.14h-7.36M39.9,1.25c0,3.24-2.65,5.89-5.89,5.89M20.76,1.25h19.14"/>
  </g>
</svg>