<?xml version="1.0" encoding="UTF-8"?>
<svg id="Layer_2" data-name="Layer 2" xmlns="http://www.w3.org/2000/svg" viewBox="0 0 78.18 67.38">
  <defs>
    <style>
      .cls-1 {
        fill: none;
        stroke: #000;
        stroke-miterlimit: 22.93;
        stroke-width: 2.5px;
      }
    </style>
  </defs>
  <g id="Layer_1-2" data-name="Layer 1">
    <path class="cls-1" d="M47.86,46.01v1.96M43.08,41.23c2.63,0,4.78,2.15,4.78,4.78M36.78,41.23h6.29M32,46.01c0-2.63,2.15-4.78,4.78-4.78M32,47.97v-1.96M40.05,41.23V7.91M53.07,59.77v-.61M59.42,66.13c-3.5,0-6.36-2.86-6.36-6.36M59.43,66.13h0M65.78,59.77c0,3.5-2.86,6.36-6.36,6.36M53.07,59.16h12.71v.61M12.97,59.77v-.61M19.33,66.13c-3.5,0-6.36-2.86-6.36-6.36M19.33,66.13h0M25.68,59.77c0,3.5-2.86,6.36-6.36,6.36M12.97,59.16h12.71v.61M46.71,59.16h25.35v-5.13h-25.35v5.13ZM6.92,59.16h25.35v-5.13H6.92v5.13ZM1.25,49.43c0-.8.66-1.46,1.46-1.46M1.25,52.56v-3.13M2.71,54.02c-.8,0-1.46-.66-1.46-1.46M75.47,54.02H2.71M76.93,52.56c0,.8-.66,1.46-1.46,1.46M76.93,49.43v3.13M75.47,47.97c.8,0,1.46.66,1.46,1.46M2.71,47.97h72.76M44.18,7.99h-8.43c-3.71,0-6.74-3.03-6.74-6.74h21.91c0,3.71-3.03,6.74-6.74,6.74Z"/>
  </g>
</svg>