<?xml version="1.0" encoding="UTF-8"?>
<svg id="Layer_2" data-name="Layer 2" xmlns="http://www.w3.org/2000/svg" viewBox="0 0 42.08 65.45">
  <defs>
    <style>
      .cls-1 {
        fill: none;
        stroke: #000;
        stroke-linecap: round;
        stroke-miterlimit: 22.93;
        stroke-width: 2.5px;
      }
    </style>
  </defs>
  <g id="Layer_1-2" data-name="Layer 1">
    <path class="cls-1" d="M39.72,9.47l-6.68,4.05M33.37,3.22l-3.62,6.85M24.82,1.25v7.34M16.6,3l3.67,6.68M10.52,9.36l6.19,3.83M34.24,20.4c0,3.56-1.31,6.08-4.44,8.44M2.83,55.22h-1.58v-15.23M6.32,51.74c0,1.92-1.57,3.48-3.48,3.48M6.32,43.48v8.26M2.83,39.99c1.92,0,3.48,1.57,3.48,3.48M1.25,39.99h1.58M1.25,10.03v54.17M24.68,11.49c3.06,0,5.57,2.51,5.57,5.57M19.11,17.06c0-3.06,2.51-5.57,5.57-5.57M29.91,32.28c4-.04,10.89-8.51,10.92-14.98M19.94,32.37l9.97-.09M9.08,17.3c-.34,6.06,6.79,15.1,10.86,15.07M40.83,17.3H9.08M19.79,33.81v-1.34M24.68,37.57c-2.4,0-4.89-1.67-4.89-3.76M25.06,37.57h-.38M29.43,33.77c0,2.09-1.97,3.8-4.37,3.8M29.43,32.43v1.34M24.87,37.57c.13,3.11-1.86,9.84-9.17,9.81-3.85-.02-6.83-.05-9.08.01"/>
  </g>
</svg>