<?xml version="1.0" encoding="UTF-8"?>
<svg id="Layer_2" data-name="Layer 2" xmlns="http://www.w3.org/2000/svg" viewBox="0 0 69.75 66.42">
  <defs>
    <style>
      .cls-1 {
        fill: none;
        stroke: #000;
        stroke-linecap: round;
        stroke-miterlimit: 22.93;
        stroke-width: 2.5px;
      }
    </style>
  </defs>
  <g id="Layer_1-2" data-name="Layer 1">
    <path class="cls-1" d="M1.25,31.9c0-.69.57-1.26,1.26-1.26M1.25,34.16v-2.26M2.51,35.42c-.69,0-1.26-.57-1.26-1.26M67.24,35.42H2.51M68.5,34.16c0,.69-.57,1.26-1.26,1.26M68.5,31.9v2.26M67.24,30.64c.69,0,1.26.57,1.26,1.26M2.51,30.64h64.72M7.65,35.16h56M35.26,59.09c9.31,0,18.82-4,22.7-18.62M7.65,37.17v-2M35.65,65.17c-15.4,0-28-12.6-28-28M35.65,65.17h0M63.65,37.17c0,15.4-12.6,28-28,28M63.65,35.16v2M26.18,1.25h0M31.86,6.94c-3.13,0-5.69-2.56-5.69-5.69M38.98,6.94h-7.11M44.67,1.25c0,3.13-2.56,5.69-5.69,5.69M26.18,1.25h18.49M35.36,30.09V7.59"/>
  </g>
</svg>