<?xml version="1.0" encoding="UTF-8"?>
<svg id="Layer_2" data-name="Layer 2" xmlns="http://www.w3.org/2000/svg" viewBox="0 0 56.26 65.74">
  <defs>
    <style>
      .cls-1 {
        fill: none;
        stroke: #000;
        stroke-miterlimit: 22.93;
        stroke-width: 2.5px;
      }
    </style>
  </defs>
  <g id="Layer_1-2" data-name="Layer 1">
    <g>
      <path class="cls-1" d="M5.69,32.39c2.45,0,4.44,1.92,4.44,4.3s-1.99,4.3-4.44,4.3-4.44-1.92-4.44-4.3,1.99-4.3,4.44-4.3Z"/>
      <path class="cls-1" d="M30.85,56.9h11.76c1.73,0,3.14,1.24,3.14,2.75v2.08c0,1.51-1.41,2.75-3.14,2.75H9.81c-1.73,0-3.14-1.24-3.14-2.75v-2.08c0-1.51,1.41-2.75,3.14-2.75h12.11c0-2.37,2.05-4.02,4.5-4.02s4.44,1.64,4.44,4.02Z"/>
      <line class="cls-1" x1="25.17" y1="17.8" x2="8.91" y2="33.73"/>
      <line class="cls-1" x1="23.03" y1="53.78" x2="8.88" y2="39.67"/>
      <path class="cls-1" d="M54.63,13.23s-2.77-3.88-9.01-4.44c-6.24-.55-8.73.55-8.73.55,0,0-5.44-5.82-6.55-6.93-1.11-1.11-3.1-1.68-4.23-.55-1.13,1.13-4.82,4.82-6.17,6.17-1.35,1.35-1.39,2.7,0,4.09,1.39,1.39,7.76,7.17,7.76,7.17,0,0-4.44,10.88,3.64,17.22l23.29-23.29Z"/>
      <path class="cls-1" d="M48.19,19.6c1.09,1.3,1.75,3.02,1.75,4.89,0,4.08-3.12,7.38-6.97,7.38-1.9,0-3.63-.81-4.88-2.12"/>
    </g>
  </g>
</svg>