<?xml version="1.0" encoding="UTF-8"?>
<svg id="Layer_2" data-name="Layer 2" xmlns="http://www.w3.org/2000/svg" viewBox="0 0 59.93 66.45">
  <defs>
    <style>
      .cls-1 {
        fill: none;
        stroke: #000;
        stroke-linecap: round;
        stroke-miterlimit: 22.93;
        stroke-width: 2.5px;
      }
    </style>
  </defs>
  <g id="Layer_1-2" data-name="Layer 1">
    <path class="cls-1" d="M50.37,48.79l8.31.28M46.85,54.56l5.14,6.55M40.08,56.67v8.52M32.97,45.83c4.22.28,8.17-4.16,7.32-8.8M29.38,38.36c5.92-7.25,12.47-8.94,15.42-6.55,2.96,2.39,1.55,10.07-3.8,15.28-5.35,5.21-9.65,6.55-12.89,4.44-3.24-2.11-2.25-7.89-1.13-9.23M16,26.95V1.25M20.01,30.97c-2.21,0-4.01-1.81-4.01-4.01M24.03,26.95c0,2.21-1.81,4.01-4.01,4.01M24.03,1.25v25.7M24.31,15.34l19.3,16.2M1.35,28.43l26.76,23.1M15.72,9.98C6.7,12.1.37,19.98,1.35,28.43M2.62,1.25h36.34"/>
  </g>
</svg>