<?xml version="1.0" encoding="UTF-8"?>
<svg id="Layer_2" data-name="Layer 2" xmlns="http://www.w3.org/2000/svg" viewBox="0 0 76.44 65.64">
  <defs>
    <style>
      .cls-1 {
        fill: none;
        stroke: #000;
        stroke-linecap: round;
        stroke-miterlimit: 22.93;
        stroke-width: 2.5px;
      }
    </style>
  </defs>
  <g id="Layer_1-2" data-name="Layer 1">
    <g>
      <line class="cls-1" x1="24.88" y1="1.25" x2="51.59" y2="1.25"/>
      <g>
        <polyline class="cls-1" points="14.25 21.74 27.3 21.74 30.64 40.86 25.03 40.86"/>
        <polyline class="cls-1" points="52.2 40.56 45.82 40.56 49.61 21.59 63.12 21.59"/>
        <line class="cls-1" x1="38.38" y1="10.96" x2="38.38" y2="57.1"/>
        <path class="cls-1" d="M51.59,1.25c0,5.34-4.37,9.71-9.71,9.71"/>
        <line class="cls-1" x1="41.87" y1="10.96" x2="34.59" y2="10.96"/>
        <path class="cls-1" d="M34.59,10.96c-5.34,0-9.71-4.37-9.71-9.71"/>
        <polygon class="cls-1" points="5.07 27.77 18.28 27.77 21.23 46.93 1.5 47.24 5.07 27.77"/>
        <polygon class="cls-1" points="58.79 27.77 71.66 27.77 74.96 46.93 55.23 47.24 58.79 27.77"/>
        <path class="cls-1" d="M11.52,55.28c0,8.35,20.79,14.57,26.86,1.82"/>
        <path class="cls-1" d="M65.21,55.13c0,10.78-21.22,13.05-26.83,1.97"/>
        <path class="cls-1" d="M22.3,51.03c2.43,2.73,3.64,5.01,9.87,5.01"/>
        <path class="cls-1" d="M43.7,56.19c5.16.3,9.26-2.88,10.78-4.4"/>
        <line class="cls-1" x1="16.38" y1="47.01" x2="16.38" y2="53.41"/>
        <path class="cls-1" d="M16.38,53.41c0,.95-.77,1.72-1.72,1.72"/>
        <line class="cls-1" x1="14.66" y1="55.13" x2="8.76" y2="55.13"/>
        <path class="cls-1" d="M8.76,55.13c-.95,0-1.72-.77-1.72-1.72"/>
        <line class="cls-1" x1="7.04" y1="53.41" x2="7.04" y2="47.68"/>
        <line class="cls-1" x1="70.06" y1="47.01" x2="70.06" y2="53.41"/>
        <path class="cls-1" d="M70.06,53.41c0,.95-.77,1.72-1.72,1.72"/>
        <line class="cls-1" x1="68.34" y1="55.13" x2="62.45" y2="55.13"/>
        <path class="cls-1" d="M62.45,55.13c-.95,0-1.72-.77-1.72-1.72"/>
        <line class="cls-1" x1="60.73" y1="53.41" x2="60.73" y2="47.15"/>
      </g>
    </g>
  </g>
</svg>