<?xml version="1.0" encoding="UTF-8"?>
<svg id="Layer_2" data-name="Layer 2" xmlns="http://www.w3.org/2000/svg" viewBox="0 0 39.15 66.37">
  <defs>
    <style>
      .cls-1 {
        fill: none;
        stroke: #000;
        stroke-linecap: round;
        stroke-miterlimit: 22.93;
        stroke-width: 2.5px;
      }
    </style>
  </defs>
  <g id="Layer_1-2" data-name="Layer 1">
    <g>
      <line class="cls-1" x1="1.25" y1="33.15" x2="37.9" y2="33.15"/>
      <path class="cls-1" d="M37.9,33.15s-3.56-7.38-5.27-17.27c-1.71-9.89-1.98-14.63-1.98-14.63"/>
      <path class="cls-1" d="M7.97,1.38s-.66,7.51-2.37,15.56c-1.71,8.04-4.35,16.21-4.35,16.21"/>
      <line class="cls-1" x1="19.44" y1="52.93" x2="19.44" y2="33.15"/>
      <line class="cls-1" x1="28.93" y1="44.88" x2="28.93" y2="33.15"/>
      <polyline class="cls-1" points="5.14 65.12 33.28 65.12 33.28 62.36"/>
      <path class="cls-1" d="M33.28,62.36c0-1.51-1.23-2.74-2.74-2.74"/>
      <line class="cls-1" x1="30.54" y1="59.61" x2="7.88" y2="59.61"/>
      <path class="cls-1" d="M7.88,59.61c-1.51,0-2.74,1.23-2.74,2.74"/>
      <line class="cls-1" x1="5.14" y1="62.36" x2="5.14" y2="65.12"/>
      <line class="cls-1" x1="13.81" y1="59.39" x2="13.81" y2="58.3"/>
      <path class="cls-1" d="M13.81,58.3c0-3.04,2.49-5.54,5.54-5.54"/>
      <line class="cls-1" x1="19.34" y1="52.76" x2="19.34" y2="52.76"/>
      <path class="cls-1" d="M19.34,52.76c3.04,0,5.54,2.49,5.54,5.54"/>
      <line class="cls-1" x1="24.88" y1="58.3" x2="24.88" y2="59.39"/>
    </g>
  </g>
</svg>