<?xml version="1.0" encoding="UTF-8"?>
<svg id="Layer_2" data-name="Layer 2" xmlns="http://www.w3.org/2000/svg" viewBox="0 0 72.98 56.21">
  <defs>
    <style>
      .cls-1 {
        fill: none;
        stroke: #000;
        stroke-miterlimit: 22.93;
        stroke-width: 2.5px;
      }
    </style>
  </defs>
  <g id="Layer_1-2" data-name="Layer 1">
    <g>
      <path class="cls-1" d="M1.47,24.99s.08-2.13.08-10.04S22.09,1.25,39.51,1.25c15.21,0,31.34,7.42,31.95,12.6.61,5.17,0,9.62,0,9.62"/>
      <path class="cls-1" d="M48.34,10.49C33.12,7.45-1.87,12.2,1.47,24.99c3.35,12.78,30.12,14,38.19,13.69,8.06-.3,31.51-5.42,31.68-14.21.17-8.8-14.33-11.81-14.33-11.81"/>
      <path class="cls-1" d="M43.47,16.54c-11.72-1.14-27.31.68-26.85,7.76.46,7.07,18.03,7.38,22.9,7.15,4.87-.23,16.51-.91,18.11-6.47,1.6-5.55-8.44-7.3-8.44-7.3"/>
      <line class="cls-1" x1="28.02" y1="45.52" x2="22.09" y2="51.61"/>
      <line class="cls-1" x1="36.7" y1="47.81" x2="36.7" y2="56.21"/>
      <line class="cls-1" x1="45.67" y1="45.3" x2="52.08" y2="51.71"/>
    </g>
  </g>
</svg>