<?xml version="1.0" encoding="UTF-8"?>
<svg id="Layer_2" data-name="Layer 2" xmlns="http://www.w3.org/2000/svg" viewBox="0 0 95.25 66.16">
  <defs>
    <style>
      .cls-1 {
        fill: none;
        stroke: #000;
        stroke-linecap: round;
        stroke-miterlimit: 22.93;
        stroke-width: 2.5px;
      }
    </style>
  </defs>
  <g id="Layer_1-2" data-name="Layer 1">
    <path class="cls-1" d="M73.74,40.04v-3M78.17,44.47c-2.44,0-4.43-2-4.43-4.43M82.4,44.47h-4.23M86.84,40.04c0,2.44-2,4.43-4.43,4.43M86.84,37.04v3M8.82,40.04v-3M13.26,44.47c-2.44,0-4.43-2-4.43-4.43M17.49,44.47h-4.23M21.92,40.04c0,2.44-2,4.43-4.43,4.43M21.92,37.04v3M53.19,51.31c7.78,6.49,27.18,9.05,27.18-6.84M42.26,51.31c-7.78,6.49-27.18,9.05-27.18-6.84M36.59,59.43v5.47h21.31l.2-5.87M36.59,46.04v-14.47h21.31l.2,14.86M70.02,1.46l-4.5,34.8,28.35-.2-3.32-34.8-20.53.2ZM5.3,1.26L1.39,37.04h28.15L25.83,1.26H5.3Z"/>
  </g>
</svg>