<?xml version="1.0" encoding="UTF-8"?>
<svg id="Layer_2" data-name="Layer 2" xmlns="http://www.w3.org/2000/svg" viewBox="0 0 112.39 66.67">
  <defs>
    <style>
      .cls-1 {
        fill: none;
        stroke: #000;
        stroke-miterlimit: 22.93;
        stroke-width: 2.5px;
      }
    </style>
  </defs>
  <g id="Layer_1-2" data-name="Layer 1">
    <path class="cls-1" d="M21.87,19.41v10.57M90.33,19.41v10.57M59.32,19.41v11.43M27.98,19.41v13.27M84.22,19.41v13.27M53.2,19.41v11.43M18.47,60.32l.61-1.68M12.26,63.22c2.5.91,5.3-.39,6.21-2.9M12.26,63.22h0M9.36,57.01c-.91,2.5.39,5.3,2.9,6.21M9.97,55.33l-.61,1.68M24.85,44.57l1.83,17.06L2.37,52.78l12.89-11.7M28.43,34.76c.44-1.2-.19-2.53-1.38-2.97M18.84,31.27l-3.57,9.81,9.59,3.49,3.57-9.81M21.8,29.89c-1.2-.43-2.53.19-2.97,1.38M27.04,31.8l-5.24-1.91M93.92,60.32l-.61-1.68M100.13,63.22c-2.5.91-5.3-.39-6.21-2.9M100.13,63.22h0M103.02,57.01c.91,2.5-.39,5.3-2.9,6.21M102.41,55.33l.61,1.68M87.53,44.57l-1.83,17.06,24.31-8.85-12.89-11.7M83.96,34.76c-.44-1.2.19-2.53,1.38-2.97M93.55,31.27l3.57,9.81-9.59,3.49-3.57-9.81M90.58,29.89c1.2-.43,2.53.19,2.97,1.38M85.34,31.8l5.24-1.91M51.42,60.58v-1.79M56.26,65.42c-2.66,0-4.85-2.18-4.85-4.85M56.26,65.42h0M61.11,60.58c0,2.66-2.18,4.85-4.85,4.85M61.11,58.79v1.79M50.8,43.59l-7.55,15.41h25.87l-8.11-15.41M50.8,33.15c0-1.27,1.04-2.31,2.31-2.31M61.01,33.15v10.44h-10.2v-10.44M58.69,30.84c1.27,0,2.31,1.04,2.31,2.31M53.12,30.84h5.58M6.73,19.41h98.65v-7.14H6.73v7.14ZM45.6,3.3c0-1.13.92-2.05,2.05-2.05M67.23,3.3v8.97h-21.63V3.3M65.18,1.25c1.13,0,2.05.92,2.05,2.05M47.65,1.25h17.53"/>
  </g>
</svg>