<?xml version="1.0" encoding="UTF-8"?>
<svg id="Layer_2" data-name="Layer 2" xmlns="http://www.w3.org/2000/svg" viewBox="0 0 38.38 66.72">
  <defs>
    <style>
      .cls-1 {
        fill: none;
        stroke: #000;
        stroke-linecap: round;
        stroke-linejoin: round;
        stroke-width: 2.5px;
      }
    </style>
  </defs>
  <g id="Layer_1-2" data-name="Layer 1">
    <g>
      <path class="cls-1" d="M19.09,1.25c1.42,0,2.57,1.15,2.57,2.57s-1.15,2.57-2.57,2.57-2.57-1.15-2.57-2.57,1.15-2.57,2.57-2.57Z"/>
      <line class="cls-1" x1="19.04" y1="6.3" x2="19.04" y2="11.95"/>
      <path class="cls-1" d="M10.27,61.65c0-1.95,1.59-3.54,3.54-3.54"/>
      <polyline class="cls-1" points="27.61 61.65 27.61 65.47 10.27 65.47 10.27 61.65"/>
      <path class="cls-1" d="M24.08,58.11c1.95,0,3.54,1.59,3.54,3.54"/>
      <line class="cls-1" x1="13.81" y1="58.11" x2="24.08" y2="58.11"/>
      <line class="cls-1" x1="19.07" y1="58.12" x2="19.08" y2="49.09"/>
      <polyline class="cls-1" points="20.38 12.39 26.18 28.42 21.37 49.1"/>
      <polyline class="cls-1" points="17.63 12.7 12.08 28.42 16.63 49.09"/>
      <path class="cls-1" d="M33.32,28.42l-8.45,20.69-11.57-.03c-.37-.78-8.46-20.65-8.46-20.65l11.33-16.47h5.55c.87,0,11.61,16.47,11.61,16.47Z"/>
      <line class="cls-1" x1="1.25" y1="28.42" x2="37.13" y2="28.42"/>
    </g>
  </g>
</svg>