<?xml version="1.0" encoding="UTF-8"?>
<svg id="Layer_2" data-name="Layer 2" xmlns="http://www.w3.org/2000/svg" viewBox="0 0 92.08 66.5">
  <defs>
    <style>
      .cls-1 {
        fill: none;
        stroke: #000;
        stroke-miterlimit: 22.93;
        stroke-width: 2.5px;
      }
    </style>
  </defs>
  <g id="Layer_1-2" data-name="Layer 1">
    <g>
      <line class="cls-1" x1="78.91" y1="37.55" x2="78.91" y2="12.36"/>
      <line class="cls-1" x1="13.38" y1="37.55" x2="13.38" y2="12.36"/>
      <line class="cls-1" x1="45.9" y1="37.55" x2="45.9" y2="12.36"/>
      <path class="cls-1" d="M3.28,2.29c0-.57.47-1.04,1.04-1.04"/>
      <line class="cls-1" x1="3.28" y1="11.32" x2="3.28" y2="2.29"/>
      <path class="cls-1" d="M4.32,12.36c-.57,0-1.04-.47-1.04-1.04"/>
      <line class="cls-1" x1="87.32" y1="12.36" x2="4.32" y2="12.36"/>
      <path class="cls-1" d="M88.36,11.32c0,.57-.47,1.04-1.04,1.04"/>
      <line class="cls-1" x1="88.36" y1="2.29" x2="88.36" y2="11.32"/>
      <path class="cls-1" d="M87.32,1.25c.57,0,1.04.47,1.04,1.04"/>
      <line class="cls-1" x1="4.32" y1="1.25" x2="87.32" y2="1.25"/>
      <line class="cls-1" x1="83.84" y1="38.59" x2="83.84" y2="42.14"/>
      <path class="cls-1" d="M82.8,37.55c.57,0,1.04.47,1.04,1.04"/>
      <line class="cls-1" x1="75.02" y1="37.55" x2="82.8" y2="37.55"/>
      <path class="cls-1" d="M73.98,38.59c0-.57.47-1.04,1.04-1.04"/>
      <line class="cls-1" x1="73.98" y1="42.14" x2="73.98" y2="38.59"/>
      <line class="cls-1" x1="18.31" y1="38.59" x2="18.31" y2="42.14"/>
      <path class="cls-1" d="M17.27,37.55c.57,0,1.04.47,1.04,1.04"/>
      <line class="cls-1" x1="9.49" y1="37.55" x2="17.27" y2="37.55"/>
      <path class="cls-1" d="M8.44,38.59c0-.57.47-1.04,1.04-1.04"/>
      <line class="cls-1" x1="8.44" y1="42.14" x2="8.44" y2="38.59"/>
      <line class="cls-1" x1="50.84" y1="38.59" x2="50.84" y2="42.14"/>
      <path class="cls-1" d="M49.8,37.55c.57,0,1.04.47,1.04,1.04"/>
      <line class="cls-1" x1="42.01" y1="37.55" x2="49.8" y2="37.55"/>
      <path class="cls-1" d="M40.97,38.59c0-.57.47-1.04,1.04-1.04"/>
      <line class="cls-1" x1="40.97" y1="42.14" x2="40.97" y2="38.59"/>
      <path class="cls-1" d="M78.81,41.21c6.64,0,12.02,5.38,12.02,12.02s-5.38,12.02-12.02,12.02-12.02-5.38-12.02-12.02,5.38-12.02,12.02-12.02Z"/>
      <path class="cls-1" d="M13.27,41.21c6.64,0,12.02,5.38,12.02,12.02s-5.38,12.02-12.02,12.02S1.25,59.87,1.25,53.23s5.38-12.02,12.02-12.02Z"/>
      <path class="cls-1" d="M45.8,41.21c6.64,0,12.02,5.38,12.02,12.02s-5.38,12.02-12.02,12.02-12.02-5.38-12.02-12.02,5.38-12.02,12.02-12.02Z"/>
    </g>
  </g>
</svg>