<?xml version="1.0" encoding="UTF-8"?>
<svg id="Layer_2" data-name="Layer 2" xmlns="http://www.w3.org/2000/svg" viewBox="0 0 60.25 68.05">
  <defs>
    <style>
      .cls-1 {
        fill: none;
        stroke: #000;
        stroke-miterlimit: 22.93;
        stroke-width: 2.5px;
      }
    </style>
  </defs>
  <g id="Layer_1-2" data-name="Layer 1">
    <path class="cls-1" d="M41.42,17.05V6.43M36.62,17.05V6.43M39.04,1.25c1.75,0,3.17,1.45,3.17,3.24s-1.42,3.24-3.17,3.24-3.17-1.45-3.17-3.24,1.42-3.24,3.17-3.24ZM34.22,21.47v-1.93c0-1.33,1.09-2.42,2.42-2.42h4.24c1.33,0,2.42,1.09,2.42,2.42v1.93M9.34,10.88v17.64c0,3.1-2.54,5.46-5.64,5.46H1.25V5.23h2.44c3.1,0,5.64,2.54,5.64,5.64ZM36.62,14.81s-9.99-.37-15.84,1.62c-5.85,1.99-11.32,6.35-11.32,6.35M9.34,10.46h27.28M35.11,62.07h6.88M31.57,57.97c3.2-.83,10.13-.86,13.71-.16M40.43,57.18l2.8-20.13v-3.95M36.33,57.18l-2.49-20.13v-3.95M41.99,62.04l3.86-4.23,6.22-20.78v-3.92M35.11,62.02c.01.71-.28,4.72,3.52,4.78,3.55,0,3.37-3.38,3.37-4.77M25.31,33.1v3.92l6.28,21.03,3.51,3.97M28.07,27.23l20.31-.26M30.03,21.85l-1.7,5.41-8.38,5.85h36.55l-8.12-6.1-1.85-5.28-16.49.12Z"/>
  </g>
</svg>