<?xml version="1.0" encoding="UTF-8"?>
<svg id="Layer_2" data-name="Layer 2" xmlns="http://www.w3.org/2000/svg" viewBox="0 0 48.62 68.55">
  <defs>
    <style>
      .cls-1 {
        fill: none;
        stroke: #000;
        stroke-linecap: round;
        stroke-miterlimit: 22.93;
        stroke-width: 2.5px;
      }
    </style>
  </defs>
  <g id="Layer_1-2" data-name="Layer 1">
    <path class="cls-1" d="M29.32,24.08v1.79M26.25,21.01c1.69,0,3.07,1.38,3.07,3.07M22.34,21.01h3.91M19.27,24.08c0-1.69,1.38-3.07,3.07-3.07M19.27,25.87v-1.79M26.6,29.51c.31.98.83,5.01.93,10.1.1,5.09-.25,10.17-.81,12.21M22.02,29.51c-.31.98-.83,5.01-.93,10.1-.1,5.09.25,10.17.81,12.21M30.36,29.51c1.49,1.18,3.64,5.52,3.64,11.16s-.54,8.99-4.02,11.16M18.21,29.51c-1.49,1.18-3.64,5.52-3.64,11.16s.54,8.99,4.02,11.16M34.86,29.51c1.49,1.18,5.89,5.52,5.89,11.16s-2.23,8.99-5.7,11.16M13.65,29.51c-1.49,1.18-5.83,5.52-5.83,11.16s2.23,8.99,5.7,11.16M1.25,40.54c0-6.07,4.97-11.03,11.04-11.03M1.25,40.79v-.25M12.29,51.82c-6.07,0-11.04-4.96-11.04-11.04M36.34,51.82H12.29M47.37,40.79c0,6.07-4.97,11.04-11.03,11.04M47.37,40.54v.25M36.34,29.51c6.07,0,11.03,4.96,11.03,11.03M12.29,29.51h24.05M20.56,60.53v2.89c0,1.58,3.81,3.69,3.81,3.69,0,0,3.97-2.45,3.97-3.94v-2.5M17.4,58.5v-2.77M19.57,60.67c-1.19,0-2.17-.98-2.17-2.17M29.24,60.67h-9.67M31.41,58.5c0,1.19-.98,2.17-2.17,2.17M31.41,55.73v2.77M15.54,54.41v-2.8M16.84,55.71c-.72,0-1.3-.59-1.3-1.3M32.59,55.71h-15.75M33.89,54.41c0,.71-.59,1.3-1.3,1.3M33.89,51.61v2.8M15.35,25.83h18.29v3.67H15.35v-3.67ZM24.34,1.25v19.47"/>
  </g>
</svg>