<?xml version="1.0" encoding="UTF-8"?>
<svg id="Layer_2" data-name="Layer 2" xmlns="http://www.w3.org/2000/svg" viewBox="0 0 46.8 67.63">
  <defs>
    <style>
      .cls-1 {
        fill: none;
        stroke: #000;
        stroke-linecap: round;
        stroke-miterlimit: 22.93;
        stroke-width: 2.5px;
      }
    </style>
  </defs>
  <g id="Layer_1-2" data-name="Layer 1">
    <path class="cls-1" d="M20.18,61.25h6.76M23.62,11.91c1.64,0,2.97,1.33,2.97,2.97s-1.33,2.97-2.97,2.97-2.97-1.33-2.97-2.97,1.33-2.97,2.97-2.97ZM16.4,56.87c3.43-.88,10.83-.92,14.66-.17M28.86,34.51l-2.99,21.52M18.82,34.51l2.66,21.52M26.94,61.22l4.12-4.52,6.65-22.22M20.18,61.2s.21,5.18,3.37,5.18,3.39-3.17,3.39-5.16M9.71,34.48l6.72,22.48,3.75,4.24M12.66,28.23l21.72-.28M14.75,22.47l-1.82,5.78-8.96,6.25h39.07l-8.68-6.52-1.98-5.65-17.64.13ZM23.59,17.73v4.67M23.59,1.25v10.35"/>
  </g>
</svg>