<?xml version="1.0" encoding="UTF-8"?>
<svg id="Layer_2" data-name="Layer 2" xmlns="http://www.w3.org/2000/svg" viewBox="0 0 66.49 66.23">
  <defs>
    <style>
      .cls-1 {
        fill: none;
        stroke: #000;
        stroke-miterlimit: 22.93;
        stroke-width: 2.5px;
      }
    </style>
  </defs>
  <g id="Layer_1-2" data-name="Layer 1">
    <path class="cls-1" d="M40.49,31.64l1.44-5.4h4.11l1.71,5.35M40.12,60.9v-5.2M44.19,64.98c-2.24,0-4.08-1.83-4.08-4.08M48.27,60.9c0,2.24-1.84,4.08-4.08,4.08M48.27,55.71v5.2M25.54,56.08h37.37s-6.7-5.34-8.52-11c-1.83-5.67-3.47-13.49-6.32-13.49s-3.37.05-7.26.05-3.84,6.13-6.27,12.13c-2.43,5.99-8.99,12.32-8.99,12.32ZM5.7,41.89C5.7,26.02,5.46,1.25,26.16,1.25s17.79,24.72,17.79,24.72M1.25,44.61c0-1.49,1.22-2.72,2.72-2.72M1.25,59.41v-14.8M3.97,62.12c-1.49,0-2.72-1.22-2.72-2.72M8.93,62.12H3.97M11.65,59.41c0,1.49-1.22,2.72-2.72,2.72M11.65,44.61v14.8M8.93,41.89c1.49,0,2.72,1.22,2.72,2.72M3.97,41.89h4.96"/>
  </g>
</svg>