<?xml version="1.0" encoding="UTF-8"?>
<svg id="Layer_2" data-name="Layer 2" xmlns="http://www.w3.org/2000/svg" viewBox="0 0 41.68 66.18">
  <defs>
    <style>
      .cls-1 {
        fill: none;
        stroke: #000;
        stroke-linecap: round;
        stroke-miterlimit: 22.93;
        stroke-width: 2.5px;
      }
    </style>
  </defs>
  <g id="Layer_1-2" data-name="Layer 1">
    <path class="cls-1" d="M15.56,61.46v-2.53M19.04,64.93c-1.91,0-3.47-1.56-3.47-3.47M22.43,64.93h-3.4M25.91,61.46c0,1.91-1.56,3.47-3.47,3.47M25.91,58.94v2.53M12.31,37.13S3.3,54.08,2.47,55.53c-.84,1.45-2.37,3.43.23,3.43,1.01,0,6.39.02,12.71.05,9.9.04,22.12.1,23.47.1,2.21,0,1.6-1.38.92-2.52-.69-1.15-10.53-19.47-10.53-19.47M20.85,12.24v19.08M12.31,37.13h16.95v-5.8H12.31v5.8ZM20.77,23.24c6.05,0,10.99-4.94,10.99-10.99S26.82,1.25,20.77,1.25s-10.99,4.94-10.99,10.99,4.94,10.99,10.99,10.99Z"/>
  </g>
</svg>