<?xml version="1.0" encoding="UTF-8"?>
<svg id="Layer_2" data-name="Layer 2" xmlns="http://www.w3.org/2000/svg" viewBox="0 0 73.04 68.04">
  <defs>
    <style>
      .cls-1 {
        fill: none;
        stroke: #000;
        stroke-miterlimit: 22.93;
        stroke-width: 2.5px;
      }
    </style>
  </defs>
  <g id="Layer_1-2" data-name="Layer 1">
    <path class="cls-1" d="M4.56,4.94h63.68V1.25H4.56v3.69ZM64.09,4.64v46.77M45.79,4.64v46.77M27.48,4.64v46.77M9.18,4.64v46.77M64.09,66.79c4.24,0,7.69-3.46,7.69-7.69s-3.46-7.69-7.69-7.69-7.69,3.46-7.69,7.69,3.45,7.69,7.69,7.69ZM45.63,66.79c4.24,0,7.69-3.46,7.69-7.69s-3.45-7.69-7.69-7.69-7.69,3.46-7.69,7.69,3.45,7.69,7.69,7.69ZM27.33,66.79c4.24,0,7.69-3.46,7.69-7.69s-3.46-7.69-7.69-7.69-7.69,3.46-7.69,7.69,3.45,7.69,7.69,7.69ZM8.94,66.79c4.24,0,7.69-3.46,7.69-7.69s-3.45-7.69-7.69-7.69-7.69,3.46-7.69,7.69,3.45,7.69,7.69,7.69Z"/>
  </g>
</svg>