<?xml version="1.0" encoding="UTF-8"?>
<svg id="Layer_2" data-name="Layer 2" xmlns="http://www.w3.org/2000/svg" viewBox="0 0 190.05 46.49">
  <defs>
    <style>
      .cls-1 {
        fill: none;
        stroke: #000;
        stroke-linecap: round;
        stroke-miterlimit: 22.93;
        stroke-width: 2.5px;
      }
    </style>
  </defs>
  <g id="Layer_1-2" data-name="Layer 1">
    <g>
      <polygon class="cls-1" points="1.26 1.25 188.8 1.25 188.8 11.58 169.36 11.58 1.35 11.58 1.26 1.25"/>
      <path class="cls-1" d="M136.32,45.24c1.06-.67,15.04-23.41,15.04-23.41M169.74,21.92l13.22,22.83M104.27,21.92l13.22,22.83M71.62,45.24c1.06-.67,15.04-23.41,15.04-23.41M39.32,21.92l13.22,22.83M5.9,45.24c1.06-.67,15.04-23.41,15.04-23.41"/>
      <line class="cls-1" x1="38.56" y1="12.68" x2="38.56" y2="15.77"/>
      <path class="cls-1" d="M38.56,15.77c0,.74-.61,1.35-1.35,1.35"/>
      <line class="cls-1" x1="37.22" y1="17.12" x2="22.9" y2="17.12"/>
      <path class="cls-1" d="M22.9,17.12c-.74,0-1.35-.61-1.35-1.35"/>
      <line class="cls-1" x1="21.55" y1="15.77" x2="21.55" y2="12.68"/>
      <line class="cls-1" x1="103.84" y1="12.68" x2="103.84" y2="15.77"/>
      <path class="cls-1" d="M103.84,15.77c0,.74-.61,1.35-1.35,1.35"/>
      <line class="cls-1" x1="102.5" y1="17.12" x2="88.18" y2="17.12"/>
      <path class="cls-1" d="M88.18,17.12c-.74,0-1.35-.61-1.35-1.35"/>
      <line class="cls-1" x1="86.83" y1="15.77" x2="86.83" y2="12.68"/>
      <line class="cls-1" x1="169.13" y1="12.68" x2="169.13" y2="15.77"/>
      <path class="cls-1" d="M169.13,15.77c0,.74-.61,1.35-1.35,1.35"/>
      <line class="cls-1" x1="167.79" y1="17.12" x2="153.47" y2="17.12"/>
      <path class="cls-1" d="M153.47,17.12c-.74,0-1.35-.61-1.35-1.35"/>
      <line class="cls-1" x1="152.12" y1="15.77" x2="152.12" y2="12.68"/>
    </g>
  </g>
</svg>