<?xml version="1.0" encoding="UTF-8"?>
<svg id="Layer_2" data-name="Layer 2" xmlns="http://www.w3.org/2000/svg" viewBox="0 0 66.53 67.77">
  <defs>
    <style>
      .cls-1 {
        fill: none;
        stroke: #000;
        stroke-linecap: round;
        stroke-miterlimit: 22.93;
        stroke-width: 2.5px;
      }
    </style>
  </defs>
  <g id="Layer_1-2" data-name="Layer 1">
    <g>
      <line class="cls-1" x1="4.37" y1="34.44" x2="4.37" y2="29.82"/>
      <line class="cls-1" x1="4.37" y1="45.44" x2="4.37" y2="40.49"/>
      <line class="cls-1" x1="4.37" y1="56.43" x2="4.37" y2="51.53"/>
      <line class="cls-1" x1="4.37" y1="66.51" x2="4.37" y2="62.57"/>
      <path d="M4.37,56.51c1.65,0,2.98,1.33,2.98,2.98s-1.33,2.98-2.98,2.98-2.98-1.33-2.98-2.98,1.33-2.98,2.98-2.98Z"/>
      <path d="M4.37,45.48c1.65,0,2.98,1.33,2.98,2.98s-1.33,2.98-2.98,2.98-2.98-1.33-2.98-2.98,1.33-2.98,2.98-2.98Z"/>
      <path d="M4.37,34.44c1.65,0,2.98,1.33,2.98,2.98s-1.33,2.98-2.98,2.98-2.98-1.33-2.98-2.98,1.33-2.98,2.98-2.98Z"/>
      <line class="cls-1" x1="14.25" y1="39.62" x2="14.25" y2="29.82"/>
      <line class="cls-1" x1="14.25" y1="51.37" x2="14.25" y2="45.56"/>
      <line class="cls-1" x1="14.25" y1="66.51" x2="14.25" y2="57.72"/>
      <path d="M14.26,51.45c1.65,0,2.98,1.33,2.98,2.98s-1.33,2.98-2.98,2.98-2.98-1.33-2.98-2.98,1.33-2.98,2.98-2.98Z"/>
      <path d="M14.26,39.73c1.65,0,2.98,1.33,2.98,2.98s-1.33,2.98-2.98,2.98-2.98-1.33-2.98-2.98,1.33-2.98,2.98-2.98Z"/>
      <line class="cls-1" x1="23.67" y1="34.44" x2="23.67" y2="29.82"/>
      <line class="cls-1" x1="23.67" y1="45.44" x2="23.67" y2="40.49"/>
      <line class="cls-1" x1="23.67" y1="56.43" x2="23.67" y2="51.53"/>
      <line class="cls-1" x1="23.67" y1="66.51" x2="23.67" y2="62.57"/>
      <path d="M23.68,56.51c1.65,0,2.98,1.33,2.98,2.98s-1.33,2.98-2.98,2.98-2.98-1.33-2.98-2.98,1.33-2.98,2.98-2.98Z"/>
      <path d="M23.68,45.48c1.65,0,2.98,1.33,2.98,2.98s-1.33,2.98-2.98,2.98-2.98-1.33-2.98-2.98,1.33-2.98,2.98-2.98Z"/>
      <path d="M23.68,34.44c1.65,0,2.98,1.33,2.98,2.98s-1.33,2.98-2.98,2.98-2.98-1.33-2.98-2.98,1.33-2.98,2.98-2.98Z"/>
      <line class="cls-1" x1="33.79" y1="39.62" x2="33.79" y2="29.82"/>
      <line class="cls-1" x1="33.79" y1="51.37" x2="33.79" y2="45.72"/>
      <line class="cls-1" x1="33.79" y1="66.51" x2="33.79" y2="57.55"/>
      <path d="M33.79,51.45c1.65,0,2.98,1.33,2.98,2.98s-1.33,2.98-2.98,2.98-2.98-1.33-2.98-2.98,1.33-2.98,2.98-2.98Z"/>
      <path d="M33.79,39.73c1.65,0,2.98,1.33,2.98,2.98s-1.33,2.98-2.98,2.98-2.98-1.33-2.98-2.98,1.33-2.98,2.98-2.98Z"/>
      <line class="cls-1" x1="43.9" y1="34.44" x2="43.9" y2="29.82"/>
      <line class="cls-1" x1="43.9" y1="45.44" x2="43.9" y2="40.49"/>
      <line class="cls-1" x1="43.9" y1="56.43" x2="43.9" y2="51.53"/>
      <line class="cls-1" x1="43.9" y1="66.51" x2="43.9" y2="62.57"/>
      <path d="M43.91,56.51c1.65,0,2.98,1.33,2.98,2.98s-1.33,2.98-2.98,2.98-2.98-1.33-2.98-2.98,1.33-2.98,2.98-2.98Z"/>
      <path d="M43.91,45.48c1.65,0,2.98,1.33,2.98,2.98s-1.33,2.98-2.98,2.98-2.98-1.33-2.98-2.98,1.33-2.98,2.98-2.98Z"/>
      <path d="M43.91,34.44c1.65,0,2.98,1.33,2.98,2.98s-1.33,2.98-2.98,2.98-2.98-1.33-2.98-2.98,1.33-2.98,2.98-2.98Z"/>
      <line class="cls-1" x1="53.32" y1="39.62" x2="53.32" y2="29.82"/>
      <line class="cls-1" x1="53.32" y1="51.37" x2="53.32" y2="46.22"/>
      <line class="cls-1" x1="53.32" y1="66.51" x2="53.32" y2="57.72"/>
      <path d="M53.33,51.45c1.65,0,2.98,1.33,2.98,2.98s-1.33,2.98-2.98,2.98-2.98-1.33-2.98-2.98,1.33-2.98,2.98-2.98Z"/>
      <path d="M53.33,39.73c1.65,0,2.98,1.33,2.98,2.98s-1.33,2.98-2.98,2.98-2.98-1.33-2.98-2.98,1.33-2.98,2.98-2.98Z"/>
      <line class="cls-1" x1="63.21" y1="34.44" x2="63.21" y2="29.82"/>
      <line class="cls-1" x1="63.21" y1="45.44" x2="63.21" y2="40.49"/>
      <line class="cls-1" x1="63.21" y1="56.43" x2="63.21" y2="51.53"/>
      <line class="cls-1" x1="63.21" y1="66.51" x2="63.21" y2="62.57"/>
      <path d="M63.21,56.51c1.65,0,2.98,1.33,2.98,2.98s-1.33,2.98-2.98,2.98-2.98-1.33-2.98-2.98,1.33-2.98,2.98-2.98Z"/>
      <path d="M63.21,45.48c1.65,0,2.98,1.33,2.98,2.98s-1.33,2.98-2.98,2.98-2.98-1.33-2.98-2.98,1.33-2.98,2.98-2.98Z"/>
      <path d="M63.21,34.44c1.65,0,2.98,1.33,2.98,2.98s-1.33,2.98-2.98,2.98-2.98-1.33-2.98-2.98,1.33-2.98,2.98-2.98Z"/>
      <rect x="0" y="24.35" width="66.53" height="5.47" rx="1.22" ry="1.22"/>
      <line class="cls-1" x1="33.24" y1="24.35" x2="33.3" y2="1.25"/>
      <path class="cls-1" d="M39.45,1.25h-12.38"/>
    </g>
  </g>
</svg>