<?xml version="1.0" encoding="UTF-8"?>
<svg id="Layer_2" data-name="Layer 2" xmlns="http://www.w3.org/2000/svg" viewBox="0 0 110.89 67.54">
  <defs>
    <style>
      .cls-1 {
        fill: none;
        stroke: #000;
        stroke-linecap: round;
        stroke-miterlimit: 22.93;
        stroke-width: 2px;
      }
    </style>
  </defs>
  <g id="Layer_1-2" data-name="Layer 1">
    <path class="cls-1" d="M6.47,34.21h9.36l4.49,16.77H1.35l5.12-16.77ZM27.47,34.21h9.36l4.49,16.77h-18.98l5.12-16.77ZM51.08,34.21h9.36l4.49,16.77h-18.98l5.12-16.77ZM74.63,34.21h9.36l4.49,16.77h-18.98l5.12-16.77ZM95.73,34.21h9.36l4.49,16.77h-18.98l5.12-16.77ZM10.88,51.22c0,21.04,17.38,19.87,17.38-.24M47.42,40.87c-6.63,0-1.24,25.46-9.88,25.46-7.11,0-5.72-11.62-5.72-15.35M55.52,66.5v-15.51M63.78,41.02c6.48,0,1.4,25.3,9.48,25.3,6.8,0,5.6-11.12,5.58-15.19M82.31,51.22c-.48,20.08,17.64,20.34,17.38-.24M55.49,30.99l.06-29.99M61.82,1h-12.61"/>
  </g>
</svg>