<?xml version="1.0" encoding="UTF-8"?>
<svg id="Layer_2" data-name="Layer 2" xmlns="http://www.w3.org/2000/svg" viewBox="0 0 61.36 67.4">
  <defs>
    <style>
      .cls-1 {
        stroke-width: 2.5px;
      }

      .cls-1, .cls-2 {
        fill: none;
        stroke: #000;
        stroke-linecap: round;
        stroke-miterlimit: 22.93;
      }
    </style>
  </defs>
  <g id="Layer_1-2" data-name="Layer 1">
    <g>
      <path class="cls-1" d="M37.33,1.25h-12.9"/>
      <line class="cls-1" x1="30.98" y1="1.82" x2="30.98" y2="15.32"/>
      <path d="M16.71,57.92c.59,0,1.93,2.57,1.93,5.03s-.3,4.45-1.93,4.45-1.93-1.99-1.93-4.45,1.34-5.03,1.93-5.03Z"/>
      <line class="cls-2" x1="16.71" y1="56.16" x2="16.71" y2="58.07"/>
      <path d="M23.67,57.92c.59,0,1.93,2.57,1.93,5.03s-.3,4.45-1.93,4.45-1.93-1.99-1.93-4.45,1.34-5.03,1.93-5.03Z"/>
      <line class="cls-2" x1="23.67" y1="56.16" x2="23.67" y2="58.07"/>
      <path d="M30.68,57.92c.59,0,1.93,2.57,1.93,5.03s-.3,4.45-1.93,4.45-1.93-1.99-1.93-4.45,1.34-5.03,1.93-5.03Z"/>
      <line class="cls-2" x1="30.68" y1="56.16" x2="30.68" y2="58.07"/>
      <path d="M37.65,57.92c.59,0,1.93,2.57,1.93,5.03s-.3,4.45-1.93,4.45-1.93-1.99-1.93-4.45,1.34-5.03,1.93-5.03Z"/>
      <line class="cls-2" x1="37.65" y1="56.16" x2="37.65" y2="58.07"/>
      <path d="M44.76,57.92c.59,0,1.93,2.57,1.93,5.03s-.3,4.45-1.93,4.45-1.93-1.99-1.93-4.45,1.34-5.03,1.93-5.03Z"/>
      <line class="cls-2" x1="44.76" y1="56.16" x2="44.76" y2="58.07"/>
      <rect x="13.8" y="52.44" width="33.22" height="3.67"/>
      <path d="M9.45,39.64c.59,0,1.93,2.57,1.93,5.03s-.3,4.45-1.93,4.45-1.93-1.99-1.93-4.45,1.34-5.03,1.93-5.03Z"/>
      <line class="cls-2" x1="9.45" y1="37.88" x2="9.45" y2="39.78"/>
      <path d="M16.71,39.64c.59,0,1.93,2.57,1.93,5.03s-.3,4.45-1.93,4.45-1.93-1.99-1.93-4.45,1.34-5.03,1.93-5.03Z"/>
      <line class="cls-2" x1="16.71" y1="37.88" x2="16.71" y2="39.78"/>
      <path d="M23.67,39.64c.59,0,1.93,2.57,1.93,5.03s-.3,4.45-1.93,4.45-1.93-1.99-1.93-4.45,1.34-5.03,1.93-5.03Z"/>
      <line class="cls-2" x1="23.67" y1="37.88" x2="23.67" y2="39.78"/>
      <path d="M30.68,39.64c.59,0,1.93,2.57,1.93,5.03s-.3,4.45-1.93,4.45-1.93-1.99-1.93-4.45,1.34-5.03,1.93-5.03Z"/>
      <line class="cls-2" x1="30.68" y1="37.88" x2="30.68" y2="39.78"/>
      <path d="M37.65,39.64c.59,0,1.93,2.57,1.93,5.03s-.3,4.45-1.93,4.45-1.93-1.99-1.93-4.45,1.34-5.03,1.93-5.03Z"/>
      <line class="cls-2" x1="37.65" y1="37.88" x2="37.65" y2="39.78"/>
      <path d="M44.76,39.64c.59,0,1.93,2.57,1.93,5.03s-.3,4.45-1.93,4.45-1.93-1.99-1.93-4.45,1.34-5.03,1.93-5.03Z"/>
      <line class="cls-2" x1="44.76" y1="37.88" x2="44.76" y2="39.78"/>
      <path d="M51.87,39.64c.59,0,1.93,2.57,1.93,5.03s-.3,4.45-1.93,4.45-1.93-1.99-1.93-4.45,1.34-5.03,1.93-5.03Z"/>
      <line class="cls-2" x1="51.87" y1="37.88" x2="51.87" y2="39.78"/>
      <rect x="6.72" y="33.92" width="47.56" height="3.67"/>
      <path d="M9.45,21.06c.59,0,1.93,2.57,1.93,5.03s-.3,4.45-1.93,4.45-1.93-1.99-1.93-4.45,1.34-5.03,1.93-5.03Z"/>
      <line class="cls-2" x1="9.45" y1="19.3" x2="9.45" y2="21.21"/>
      <path d="M16.71,21.06c.59,0,1.93,2.57,1.93,5.03s-.3,4.45-1.93,4.45-1.93-1.99-1.93-4.45,1.34-5.03,1.93-5.03Z"/>
      <line class="cls-2" x1="16.71" y1="19.3" x2="16.71" y2="21.21"/>
      <path d="M23.67,21.06c.59,0,1.93,2.57,1.93,5.03s-.3,4.45-1.93,4.45-1.93-1.99-1.93-4.45,1.34-5.03,1.93-5.03Z"/>
      <line class="cls-2" x1="23.67" y1="19.3" x2="23.67" y2="21.21"/>
      <path d="M30.68,21.06c.59,0,1.93,2.57,1.93,5.03s-.3,4.45-1.93,4.45-1.93-1.99-1.93-4.45,1.34-5.03,1.93-5.03Z"/>
      <line class="cls-2" x1="30.68" y1="19.3" x2="30.68" y2="21.21"/>
      <path d="M37.65,21.06c.59,0,1.93,2.57,1.93,5.03s-.3,4.45-1.93,4.45-1.93-1.99-1.93-4.45,1.34-5.03,1.93-5.03Z"/>
      <line class="cls-2" x1="37.65" y1="19.3" x2="37.65" y2="21.21"/>
      <path d="M44.76,21.06c.59,0,1.93,2.57,1.93,5.03s-.3,4.45-1.93,4.45-1.93-1.99-1.93-4.45,1.34-5.03,1.93-5.03Z"/>
      <line class="cls-2" x1="44.76" y1="19.3" x2="44.76" y2="21.21"/>
      <path d="M51.87,21.06c.59,0,1.93,2.57,1.93,5.03s-.3,4.45-1.93,4.45-1.93-1.99-1.93-4.45,1.34-5.03,1.93-5.03Z"/>
      <line class="cls-2" x1="51.87" y1="19.3" x2="51.87" y2="21.21"/>
      <path d="M58.83,21.06c.59,0,1.93,2.57,1.93,5.03s-.3,4.45-1.93,4.45-1.93-1.99-1.93-4.45,1.34-5.03,1.93-5.03Z"/>
      <line class="cls-2" x1="58.83" y1="19.3" x2="58.83" y2="21.21"/>
      <path d="M2.49,21.06c.59,0,1.93,2.57,1.93,5.03s-.3,4.45-1.93,4.45-1.93-1.99-1.93-4.45,1.34-5.03,1.93-5.03Z"/>
      <line class="cls-2" x1="2.49" y1="19.3" x2="2.49" y2="21.21"/>
      <rect y="15.37" width="61.36" height="3.6"/>
    </g>
  </g>
</svg>