<?xml version="1.0" encoding="UTF-8"?>
<svg id="Layer_2" data-name="Layer 2" xmlns="http://www.w3.org/2000/svg" viewBox="0 0 41.26 57.81">
  <defs>
    <style>
      .cls-1 {
        fill: none;
        stroke: #000;
        stroke-linecap: round;
        stroke-linejoin: round;
        stroke-width: 2.5px;
      }
    </style>
  </defs>
  <g id="Layer_1-2" data-name="Layer 1">
    <path class="cls-1" d="M14.65,20.7h11.74M11.95,49.02h17.3M24.59,54.33h2.54M16.62,54.33c.64.88,2.03,2.23,3.99,2.23s3.34-1.35,3.98-2.23M14.08,54.33h2.54M13.29,43.26h14.62M27.9,43.26c.97-6.47,4.47-8.18,8.38-12.37,9.4-11.1-.14-29.63-15.68-29.63S-4.33,19.49,4.89,30.84c3.89,4.21,7.42,5.94,8.4,12.41M20.61,43.26v-16.55l5.83-5.86M20.51,26.72l-5.84-5.86"/>
  </g>
</svg>