<?xml version="1.0" encoding="UTF-8"?>
<svg id="Layer_2" data-name="Layer 2" xmlns="http://www.w3.org/2000/svg" viewBox="0 0 44.39 70.27">
  <defs>
    <style>
      .cls-1 {
        fill: none;
        stroke: #000;
        stroke-linecap: round;
        stroke-linejoin: round;
        stroke-width: 2.5px;
      }
    </style>
  </defs>
  <g id="Layer_1-2" data-name="Layer 1">
    <path class="cls-1" d="M11.34,29.42c0-.18-.01-.36-.01-.54,0-4.1,2.14-7.7,5.37-9.75M12.02,39.29c-2.6-2.7-4.19-6.37-4.19-10.42,0-8.3,6.73-15.03,15.03-15.03s15.03,6.73,15.03,15.03c0,4.05-1.6,7.72-4.21,10.43M12.01,44.91v-5.65M15.41,48.31c-1.87,0-3.4-1.53-3.4-3.4M30.3,48.31h-14.89M33.69,44.91c0,1.87-1.53,3.4-3.4,3.4M12.01,39.27h21.68v5.65M2.49,69.01h-1.24v-23.54M5.2,66.3c0,1.49-1.22,2.72-2.72,2.72M5.2,48.2v18.1M2.49,45.48c1.49,0,2.72,1.22,2.72,2.72M1.25,45.48h1.24M24.76,55.41v-7.07M24.76,64.44v-5.3M22.9,66.31c1.03,0,1.86-.84,1.86-1.86M22.9,66.31h0M21.02,64.43c0,1.02.85,1.88,1.88,1.88M21.02,59.14v5.29M21.02,48.32v7.07M26.79,59.13H5.2v-3.73M28.66,57.26c0,1.02-.84,1.86-1.86,1.86M28.66,57.26h0M26.79,55.4c1.03,0,1.86.84,1.86,1.86M5.2,55.4h21.59M22.85,4.94V1.25M2.57,9.94l2.98,3M40.15,12.94l2.99-3"/>
  </g>
</svg>