<?xml version="1.0" encoding="UTF-8"?>
<svg id="Layer_2" data-name="Layer 2" xmlns="http://www.w3.org/2000/svg" viewBox="0 0 90.87 53.74">
  <defs>
    <style>
      .cls-1 {
        fill: none;
        stroke: #000;
        stroke-linejoin: bevel;
        stroke-width: 2.5px;
      }

      .cls-2 {
        fill-rule: evenodd;
      }
    </style>
  </defs>
  <g id="Layer_1-2" data-name="Layer 1">
    <g>
      <path class="cls-1" d="M87.59,39.33l-84.31-.05c-1.12,0-2.03-.92-2.03-2.03v-.78c0-1.12.92-2.03,2.03-2.03l84.31.05c1.12,0,2.03.92,2.03,2.03v.78c0,1.12-.92,2.03-2.03,2.03ZM82.81,45.45l4.76,7.63M70.04,45.33l3.44,7.29M57.75,44.96l1.56,8.07M45.44,45.24l.3,7.36M33.18,45.31l-1.55,7.64M21.07,45.36l-3.64,7.42M8.56,45.87l-5.98,6.87"/>
      <path class="cls-2" d="M23.67,15.83V0h-2.03v17.75h9.82v-1.93h-7.79M47.7,1.95V0h-12.06v17.75h12.39v-1.93h-10.36v-6.09h8.96v-1.95h-8.96V1.95h10.03ZM54.92,1.95h5.1c3.99,0,7.13,2.97,7.13,6.95s-3.1,6.92-7.06,6.92h-5.18V1.95ZM52.89,0v17.75h7.11c5.23,0,9.21-3.83,9.21-8.88S65.25,0,60.07,0h-7.18Z"/>
    </g>
  </g>
</svg>