<?xml version="1.0" encoding="UTF-8"?>
<svg id="Layer_2" data-name="Layer 2" xmlns="http://www.w3.org/2000/svg" viewBox="0 0 50.37 68.61">
  <defs>
    <style>
      .cls-1 {
        fill: none;
        stroke: #000;
        stroke-linecap: round;
        stroke-linejoin: round;
        stroke-width: 2.5px;
      }
    </style>
  </defs>
  <g id="Layer_1-2" data-name="Layer 1">
    <path class="cls-1" d="M1.25,11.51l3.52,3.54M25.18,5.6V1.25M45.6,15.05l3.52-3.54M16.58,59.82h17.3M29.22,65.13h2.53M21.25,65.13c.64.88,2.03,2.23,3.99,2.23s3.34-1.35,3.98-2.23M18.71,65.13h2.54M17.92,54.06h14.62M32.54,54.06c.97-6.47,4.47-8.18,8.38-12.37,9.4-11.1-.14-29.63-15.68-29.63S.3,30.3,9.52,41.65c3.89,4.21,7.42,5.94,8.4,12.41M19.29,31.51h11.74M25.24,54.07v-16.55l5.83-5.86M25.24,37.52l-5.94-5.86"/>
  </g>
</svg>