<?xml version="1.0" encoding="UTF-8"?>
<svg id="Layer_2" data-name="Layer 2" xmlns="http://www.w3.org/2000/svg" viewBox="0 0 40.39 58.4">
  <defs>
    <style>
      .cls-1 {
        fill: none;
        stroke: #000;
        stroke-linecap: round;
        stroke-linejoin: round;
        stroke-width: 2.5px;
      }
    </style>
  </defs>
  <g id="Layer_1-2" data-name="Layer 1">
    <g>
      <path class="cls-1" d="M13.6,54.98h2.47M23.85,54.98h2.47M16.07,54.98c.62.86,1.98,2.17,3.89,2.17s3.26-1.31,3.89-2.17M11.52,49.81h16.87M12.83,44.19h14.25M19.96,44.19v-16.13l5.69-5.72M1.59,26.07c.54,2.11,1.54,4.16,3.05,6.01,3.79,4.1,7.23,5.79,8.19,12.1M27.08,44.19c.95-6.31,4.36-7.98,8.17-12.07,2.13-2.51,3.26-5.42,3.55-8.4M14.16,22.19h11.45M19.87,28.06l-5.7-5.72"/>
      <path class="cls-1" d="M1.25,20.62s.06-.01.06-.01c4.16-22.96,31.46-16.46,31.37,0h6.45c.71-24.5-36.46-27.09-37.88.01Z"/>
    </g>
  </g>
</svg>