<?xml version="1.0" encoding="UTF-8"?>
<svg id="Layer_2" data-name="Layer 2" xmlns="http://www.w3.org/2000/svg" viewBox="0 0 61.56 66.96">
  <defs>
    <style>
      .cls-1 {
        fill-rule: evenodd;
        stroke-miterlimit: 10;
      }

      .cls-1, .cls-2 {
        stroke: #000;
      }

      .cls-2 {
        fill: none;
        stroke-linecap: round;
        stroke-linejoin: round;
        stroke-width: 2.5px;
      }
    </style>
  </defs>
  <g id="Layer_1-2" data-name="Layer 1">
    <g>
      <path class="cls-2" d="M24.25,63.54h2.47M34.5,63.54h2.47M26.73,63.54c.62.86,1.98,2.17,3.89,2.17s3.26-1.31,3.89-2.17M22.18,58.36h16.87M23.48,52.74h14.25M30.61,52.75v-16.14l5.69-5.72M12.24,34.63c.54,2.11,1.54,4.16,3.05,6.01,3.79,4.1,7.23,5.79,8.19,12.1M37.73,52.74c.95-6.31,4.36-7.98,8.17-12.06,2.13-2.51,3.26-5.42,3.55-8.4M24.81,30.75h11.45M30.52,36.62l-5.7-5.72"/>
      <path class="cls-2" d="M7.22,11.25l3.43,3.45M30.56,5.5V1.25M50.46,14.7l3.44-3.45"/>
      <line class="cls-2" x1="1.25" y1="30.14" x2="6.12" y2="30.15"/>
      <line class="cls-2" x1="55.44" y1="30.14" x2="60.31" y2="30.15"/>
      <path class="cls-2" d="M11.9,29.18s.06-.01.06-.01c4.16-22.96,31.46-16.46,31.37,0h6.45c.71-24.5-36.46-27.09-37.88.01Z"/>
      <path class="cls-1" d="M11.9,29.18s.06-.01.06-.01c3.24-17.89,20.52-17.9,27.96-9.25,1.8-1.03,4.73-2.58,6-3.19C36.49,4.88,13.02,7.75,11.9,29.18Z"/>
      <path class="cls-2" d="M11.9,29.18s.06-.01.06-.01c3.24-17.89,20.52-17.9,27.96-9.25,1.8-1.03,4.73-2.58,6-3.19C36.49,4.88,13.02,7.75,11.9,29.18Z"/>
    </g>
  </g>
</svg>