<?xml version="1.0" encoding="UTF-8"?>
<svg id="Layer_2" data-name="Layer 2" xmlns="http://www.w3.org/2000/svg" viewBox="0 0 67.08 54.29">
  <defs>
    <style>
      .cls-1, .cls-2 {
        stroke-miterlimit: 10;
      }

      .cls-1, .cls-2, .cls-3, .cls-4 {
        fill: none;
        stroke: #141313;
        stroke-width: 2.5px;
      }

      .cls-1, .cls-3 {
        stroke-linecap: round;
      }

      .cls-3, .cls-4 {
        stroke-linejoin: round;
      }
    </style>
  </defs>
  <g id="Layer_1-2" data-name="Layer 1">
    <g>
      <line class="cls-1" x1="5.74" y1="9.68" x2="5.74" y2="48.5"/>
      <line class="cls-1" x1="61.34" y1="9.68" x2="61.34" y2="48.5"/>
      <line class="cls-1" x1="3.05" y1="14.14" x2="12.42" y2="14.14"/>
      <line class="cls-1" x1="54.66" y1="14.14" x2="64.03" y2="14.14"/>
      <line class="cls-1" x1="19.87" y1="14.14" x2="29.87" y2="14.14"/>
      <line class="cls-1" x1="37.2" y1="14.14" x2="47.2" y2="14.14"/>
      <line class="cls-3" x1="10.32" y1="1.25" x2="22.16" y2="1.25"/>
      <line class="cls-2" x1="12.66" y1="5.37" x2="12.66" y2="38.66"/>
      <path class="cls-2" d="M12.66,38.66c0,1.8,1.7,3.28,3.58,3.28s3.58-1.47,3.58-3.28"/>
      <line class="cls-2" x1="19.82" y1="38.66" x2="19.82" y2="1.46"/>
      <line class="cls-2" x1="12.72" y1="20.01" x2="19.75" y2="20.01"/>
      <line class="cls-3" x1="27.62" y1="1.25" x2="39.46" y2="1.25"/>
      <line class="cls-2" x1="29.96" y1="5.37" x2="29.96" y2="38.66"/>
      <path class="cls-2" d="M29.96,38.66c0,1.8,1.7,3.28,3.58,3.28s3.58-1.47,3.58-3.28"/>
      <line class="cls-2" x1="37.12" y1="38.66" x2="37.12" y2="1.46"/>
      <line class="cls-2" x1="30.03" y1="20.01" x2="37.06" y2="20.01"/>
      <line class="cls-3" x1="44.93" y1="1.25" x2="56.77" y2="1.25"/>
      <line class="cls-2" x1="47.27" y1="5.37" x2="47.27" y2="38.66"/>
      <path class="cls-2" d="M47.27,38.66c0,1.8,1.7,3.28,3.58,3.28s3.58-1.47,3.58-3.28"/>
      <line class="cls-2" x1="54.43" y1="38.66" x2="54.43" y2="1.46"/>
      <line class="cls-2" x1="47.33" y1="20.01" x2="54.36" y2="20.01"/>
      <polyline class="cls-4" points="1.25 54.29 1.25 48.75 65.84 48.75 65.84 54.29"/>
    </g>
  </g>
</svg>