<?xml version="1.0" encoding="UTF-8"?>
<svg id="Layer_2" data-name="Layer 2" xmlns="http://www.w3.org/2000/svg" viewBox="0 0 70.33 52.62">
  <defs>
    <style>
      .cls-1 {
        stroke-miterlimit: 22.93;
      }

      .cls-1, .cls-2, .cls-3 {
        fill: none;
        stroke: #141313;
        stroke-width: 2.5px;
      }

      .cls-4 {
        fill: #141313;
      }

      .cls-2 {
        stroke-linecap: round;
      }

      .cls-2, .cls-3 {
        stroke-linejoin: round;
      }
    </style>
  </defs>
  <g id="Layer_1-2" data-name="Layer 1">
    <g>
      <path class="cls-4" d="M36.07,30.6c0,.39-.31.7-.7.7s-.7-.31-.7-.7.31-.7.7-.7.7.31.7.7Z"/>
      <path class="cls-1" d="M36.07,30.6c0,.39-.31.7-.7.7s-.7-.31-.7-.7.31-.7.7-.7.7.31.7.7Z"/>
      <path class="cls-4" d="M31.51,37.59c0,.39-.31.7-.7.7s-.7-.31-.7-.7.31-.7.7-.7.7.31.7.7Z"/>
      <path class="cls-1" d="M31.51,37.59c0,.39-.31.7-.7.7s-.7-.31-.7-.7.31-.7.7-.7.7.31.7.7Z"/>
      <path class="cls-4" d="M39.37,39.63c0,.39-.31.7-.7.7s-.7-.31-.7-.7.31-.7.7-.7.7.31.7.7Z"/>
      <path class="cls-1" d="M39.37,39.63c0,.39-.31.7-.7.7s-.7-.31-.7-.7.31-.7.7-.7.7.31.7.7Z"/>
      <path class="cls-4" d="M30.47,43.67c0,.39-.31.7-.7.7s-.7-.31-.7-.7.31-.7.7-.7.7.31.7.7Z"/>
      <path class="cls-1" d="M30.47,43.67c0,.39-.31.7-.7.7s-.7-.31-.7-.7.31-.7.7-.7.7.31.7.7Z"/>
      <path class="cls-4" d="M25.07,47.18c0,.39-.31.7-.7.7s-.7-.31-.7-.7.31-.7.7-.7.7.31.7.7Z"/>
      <path class="cls-1" d="M25.07,47.18c0,.39-.31.7-.7.7s-.7-.31-.7-.7.31-.7.7-.7.7.31.7.7Z"/>
      <path class="cls-4" d="M32.71,50.67c0,.39-.31.7-.7.7s-.7-.31-.7-.7.31-.7.7-.7.7.31.7.7Z"/>
      <path class="cls-1" d="M32.71,50.67c0,.39-.31.7-.7.7s-.7-.31-.7-.7.31-.7.7-.7.7.31.7.7Z"/>
      <path class="cls-4" d="M47.07,47.63c0,.39-.31.7-.7.7s-.7-.31-.7-.7.31-.7.7-.7.7.31.7.7Z"/>
      <path class="cls-1" d="M47.07,47.63c0,.39-.31.7-.7.7s-.7-.31-.7-.7.31-.7.7-.7.7.31.7.7Z"/>
      <path class="cls-4" d="M38.57,47.1c0,.39-.31.7-.7.7s-.7-.31-.7-.7.31-.7.7-.7.7.31.7.7Z"/>
      <path class="cls-1" d="M38.57,47.1c0,.39-.31.7-.7.7s-.7-.31-.7-.7.31-.7.7-.7.7.31.7.7Z"/>
      <polyline class="cls-3" points="18.5 32.63 32.65 18.45 18.47 4.31"/>
      <path class="cls-3" d="M18.47,4.31C14.46.3,8,.22,4.11,4.12c-3.89,3.9-3.79,10.37.22,14.37"/>
      <line class="cls-3" x1="4.32" y1="18.49" x2="18.5" y2="32.63"/>
      <polyline class="cls-3" points="51.83 32.63 37.68 18.45 51.86 4.31"/>
      <path class="cls-3" d="M51.86,4.31c4.01-4,10.48-4.09,14.37-.18,3.89,3.9,3.79,10.37-.22,14.37"/>
      <line class="cls-3" x1="66.01" y1="18.49" x2="51.83" y2="32.63"/>
      <path class="cls-2" d="M8.21,14.6c-1.87-1.87-1.97-4.82-.21-6.59"/>
    </g>
  </g>
</svg>