<?xml version="1.0" encoding="UTF-8"?>
<svg id="Layer_2" data-name="Layer 2" xmlns="http://www.w3.org/2000/svg" viewBox="0 0 59.33 65.5">
  <defs>
    <style>
      .cls-1, .cls-2, .cls-3, .cls-4 {
        fill: none;
        stroke: #141313;
        stroke-width: 2.5px;
      }

      .cls-1, .cls-3 {
        stroke-miterlimit: 10;
      }

      .cls-1, .cls-4 {
        stroke-linecap: round;
      }

      .cls-2 {
        stroke-miterlimit: 22.93;
      }

      .cls-5 {
        fill: #141313;
      }

      .cls-4 {
        stroke-linejoin: round;
      }
    </style>
  </defs>
  <g id="Layer_1-2" data-name="Layer 1">
    <g>
      <path class="cls-1" d="M11.58,38.01s23.32.3,28.79-11.17"/>
      <path class="cls-1" d="M37.51,30.88s3.03,5.68,10.15,7.68"/>
      <path class="cls-5" d="M22.97,43.74c0,.43-.35.78-.78.78s-.78-.35-.78-.78.35-.78.78-.78.78.35.78.78Z"/>
      <path class="cls-2" d="M22.97,43.74c0,.43-.35.78-.78.78s-.78-.35-.78-.78.35-.78.78-.78.78.35.78.78Z"/>
      <path class="cls-5" d="M37.92,43.74c0,.43-.35.78-.78.78s-.78-.35-.78-.78.35-.78.78-.78.78.35.78.78Z"/>
      <path class="cls-2" d="M37.92,43.74c0,.43-.35.78-.78.78s-.78-.35-.78-.78.35-.78.78-.78.78.35.78.78Z"/>
      <path class="cls-4" d="M10.43,20.63c-4.31,3.89-7.23,9.93-6.05,19.33.93,4.49,1.24,5.18,1.09,8.35-.14,3.02.3,5.45-4.22,9.39,0,0,2.9,4.52,9.31.93"/>
      <path class="cls-4" d="M48.9,20.63c4.31,3.89,7.23,9.93,6.05,19.33-.93,4.49-1.24,5.18-1.09,8.35.14,3.02-.3,5.45,4.22,9.39,0,0-2.9,4.52-9.31.93"/>
      <path class="cls-4" d="M46.47,29c-17.09-7.69-29.84-2.08-33.62,0"/>
      <line class="cls-4" x1="12.86" y1="29" x2="8.59" y2="12.35"/>
      <path class="cls-4" d="M8.59,12.35S15.2,1.53,29.61,1.25"/>
      <line class="cls-4" x1="29.61" y1="1.25" x2="29.73" y2="1.25"/>
      <path class="cls-4" d="M29.73,1.25c14.4.28,21.02,11.1,21.02,11.1"/>
      <line class="cls-4" x1="50.74" y1="12.35" x2="46.47" y2="29"/>
      <line class="cls-3" x1="29.67" y1="7.23" x2="29.67" y2="19.31"/>
      <line class="cls-3" x1="35.71" y1="13.27" x2="23.62" y2="13.27"/>
      <path class="cls-4" d="M25.99,54.53c.87.49,2.08.74,3.68.74s2.81-.25,3.68-.74"/>
      <path class="cls-4" d="M12.55,45.06s2.69,19.19,16.73,19.19,17.5-19.19,17.5-19.19"/>
    </g>
  </g>
</svg>