<?xml version="1.0" encoding="UTF-8"?>
<svg id="Layer_2" data-name="Layer 2" xmlns="http://www.w3.org/2000/svg" viewBox="0 0 62.39 63.54">
  <defs>
    <style>
      .cls-1 {
        stroke-miterlimit: 22.93;
      }

      .cls-1, .cls-2, .cls-3 {
        fill: none;
        stroke: #141313;
        stroke-width: 2.5px;
      }

      .cls-2 {
        stroke-miterlimit: 10;
      }

      .cls-4 {
        fill: #141313;
      }

      .cls-3 {
        stroke-linecap: round;
        stroke-linejoin: round;
      }
    </style>
  </defs>
  <g id="Layer_1-2" data-name="Layer 1">
    <g>
      <line class="cls-2" x1="26.97" y1="4.51" x2="33.17" y2="4.51"/>
      <path class="cls-2" d="M33.17,4.51c3.02,0,5.48,2.47,5.48,5.48"/>
      <line class="cls-2" x1="38.65" y1="9.99" x2="38.65" y2="22.85"/>
      <path class="cls-2" d="M38.65,22.85c0,3.71-1.33,6.55-4.47,8.65"/>
      <line class="cls-2" x1="34.17" y1="31.5" x2="19.95" y2="41.31"/>
      <line class="cls-3" x1="26.91" y1="1.25" x2="26.91" y2="7.81"/>
      <line class="cls-2" x1="12.93" y1="4.51" x2="6.73" y2="4.51"/>
      <path class="cls-2" d="M6.73,4.51c-3.02,0-5.48,2.47-5.48,5.48"/>
      <line class="cls-2" x1="1.25" y1="9.99" x2="1.25" y2="22.85"/>
      <path class="cls-2" d="M1.25,22.85c0,3.71,1.33,6.55,4.47,8.65"/>
      <line class="cls-2" x1="5.72" y1="31.5" x2="19.95" y2="41.31"/>
      <line class="cls-3" x1="12.98" y1="1.25" x2="12.98" y2="7.81"/>
      <path class="cls-4" d="M55.63,53.12c0,.42-.34.76-.76.76s-.76-.34-.76-.76.34-.76.76-.76.76.34.76.76Z"/>
      <path class="cls-1" d="M55.63,53.12c0,.42-.34.76-.76.76s-.76-.34-.76-.76.34-.76.76-.76.76.34.76.76Z"/>
      <line class="cls-2" x1="20.01" y1="40.88" x2="20.01" y2="53.09"/>
      <path class="cls-2" d="M20.01,53.09c0,5.06,4.14,9.2,9.2,9.2s9.2-4.14,9.2-9.2"/>
      <line class="cls-2" x1="38.41" y1="53.09" x2="38.41" y2="42.67"/>
      <path class="cls-2" d="M38.41,42.67c0-4.76,3.71-8.66,8.25-8.66s8.26,3.9,8.26,8.66"/>
      <line class="cls-2" x1="54.92" y1="42.67" x2="54.92" y2="46.6"/>
      <path class="cls-2" d="M61.14,53.12c0,3.46-2.81,6.27-6.27,6.27s-6.27-2.81-6.27-6.27,2.81-6.27,6.27-6.27,6.27,2.81,6.27,6.27Z"/>
    </g>
  </g>
</svg>