<?xml version="1.0" encoding="UTF-8"?>
<svg id="Layer_2" data-name="Layer 2" xmlns="http://www.w3.org/2000/svg" viewBox="0 0 66.5 61.66">
  <defs>
    <style>
      .cls-1 {
        stroke-miterlimit: 10;
      }

      .cls-1, .cls-2, .cls-3 {
        fill: none;
        stroke: #141313;
        stroke-width: 2.5px;
      }

      .cls-2 {
        stroke-linecap: round;
      }

      .cls-2, .cls-3 {
        stroke-linejoin: round;
      }
    </style>
  </defs>
  <g id="Layer_1-2" data-name="Layer 1">
    <g>
      <line class="cls-1" x1="21.23" y1="26.53" x2="21.23" y2="41.28"/>
      <line class="cls-1" x1="28.61" y1="33.91" x2="13.86" y2="33.91"/>
      <line class="cls-2" x1="8.6" y1="54.38" x2="5.25" y2="54.38"/>
      <path class="cls-2" d="M5.25,54.38c-2.2,0-4-1.8-4-4"/>
      <line class="cls-2" x1="1.25" y1="50.38" x2="1.25" y2="23.58"/>
      <path class="cls-2" d="M1.25,23.58c0-2.2,1.8-4,4-4"/>
      <line class="cls-2" x1="5.25" y1="19.58" x2="40.71" y2="19.58"/>
      <path class="cls-2" d="M40.71,19.58s12.41-.88,24.54,22.46"/>
      <line class="cls-2" x1="65.25" y1="42.04" x2="65.25" y2="50.38"/>
      <path class="cls-2" d="M65.25,50.38c0,2.2-1.8,4-4,4"/>
      <line class="cls-2" x1="61.25" y1="54.38" x2="57.25" y2="54.38"/>
      <line class="cls-3" x1="41.05" y1="54.38" x2="24.66" y2="54.38"/>
      <path class="cls-1" d="M57.11,54.41c0,3.32-2.69,6-6.01,6s-6.01-2.69-6.01-6,2.69-6.01,6.01-6.01,6.01,2.69,6.01,6.01Z"/>
      <path class="cls-1" d="M20.75,54.41c0,3.32-2.69,6-6.01,6s-6.01-2.69-6.01-6,2.69-6.01,6.01-6.01,6.01,2.69,6.01,6.01Z"/>
      <line class="cls-2" x1="41.48" y1="24.66" x2="41.48" y2="32.65"/>
      <path class="cls-2" d="M41.48,32.65s0,4.97,4.73,4.97"/>
      <line class="cls-2" x1="46.21" y1="37.62" x2="56.37" y2="37.62"/>
      <line class="cls-3" x1="32.45" y1="15.49" x2="32.45" y2="12.78"/>
      <path class="cls-3" d="M32.45,12.78c0-1.65,1.35-3,3-3"/>
      <line class="cls-3" x1="35.45" y1="9.78" x2="36.58" y2="9.78"/>
      <path class="cls-3" d="M36.58,9.78c1.65,0,3,1.35,3,3"/>
      <line class="cls-3" x1="39.58" y1="12.78" x2="39.58" y2="15.49"/>
      <line class="cls-2" x1="36.02" y1="4.87" x2="36.02" y2="1.25"/>
      <line class="cls-2" x1="40.64" y1="6.04" x2="43.23" y2="3.5"/>
      <line class="cls-2" x1="31.39" y1="6.04" x2="28.8" y2="3.5"/>
    </g>
  </g>
</svg>