<?xml version="1.0" encoding="UTF-8"?>
<svg id="Layer_2" data-name="Layer 2" xmlns="http://www.w3.org/2000/svg" viewBox="0 0 75.5 53.61">
  <defs>
    <style>
      .cls-1 {
        stroke-linecap: round;
      }

      .cls-1, .cls-2 {
        fill: none;
        stroke: #141313;
        stroke-miterlimit: 10;
        stroke-width: 2.5px;
      }
    </style>
  </defs>
  <g id="Layer_1-2" data-name="Layer 1">
    <g>
      <line class="cls-2" x1="12.81" y1="44.79" x2="12.81" y2="41.69"/>
      <path class="cls-2" d="M12.81,41.69c0-1.1.9-2,2-2"/>
      <line class="cls-2" x1="14.81" y1="39.69" x2="60.68" y2="39.69"/>
      <path class="cls-2" d="M60.68,39.69c1.1,0,2,.9,2,2"/>
      <line class="cls-2" x1="62.68" y1="41.69" x2="62.68" y2="44.79"/>
      <path class="cls-2" d="M16.49,48.68c0,2.03-1.65,3.67-3.67,3.67s-3.67-1.64-3.67-3.67,1.64-3.68,3.67-3.68,3.67,1.65,3.67,3.68Z"/>
      <path class="cls-2" d="M66.36,48.68c0,2.03-1.65,3.67-3.67,3.67s-3.67-1.64-3.67-3.67,1.64-3.68,3.67-3.68,3.67,1.65,3.67,3.68Z"/>
      <line class="cls-1" x1="32.91" y1="32.38" x2="22.29" y2="39.46"/>
      <line class="cls-1" x1="53.28" y1="18.79" x2="38.16" y2="28.88"/>
      <line class="cls-1" x1="1.25" y1="18.56" x2="74.25" y2="18.56"/>
      <line class="cls-2" x1="70.81" y1="17.78" x2="70.81" y2="13.81"/>
      <path class="cls-2" d="M70.81,13.81c0-.77-.69-1.64-1.65-1.64"/>
      <polyline class="cls-2" points="69.17 12.18 23.69 12.18 7.47 1.49"/>
      <path class="cls-2" d="M7.47,1.49c-.42-.36-1.05-.31-1.41.1"/>
      <line class="cls-2" x1="6.06" y1="1.6" x2="3.48" y2="5.07"/>
      <path class="cls-2" d="M3.48,5.07c-.36.42-.31,1.05.1,1.41"/>
      <line class="cls-2" x1="3.58" y1="6.48" x2="53.75" y2="39.81"/>
    </g>
  </g>
</svg>