<?xml version="1.0" encoding="UTF-8"?>
<svg id="Layer_2" data-name="Layer 2" xmlns="http://www.w3.org/2000/svg" viewBox="0 0 79.78 65.94">
  <defs>
    <style>
      .cls-1, .cls-2, .cls-3, .cls-4, .cls-5 {
        fill: none;
        stroke: #141313;
        stroke-width: 2.5px;
      }

      .cls-1, .cls-3 {
        stroke-miterlimit: 10;
      }

      .cls-1, .cls-4 {
        stroke-linecap: round;
      }

      .cls-2 {
        stroke-miterlimit: 22.93;
      }

      .cls-6 {
        fill: #141313;
      }

      .cls-4, .cls-5 {
        stroke-linejoin: round;
      }
    </style>
  </defs>
  <g id="Layer_1-2" data-name="Layer 1">
    <g>
      <path class="cls-4" d="M59.04,51.85c3.55,0,6.42,2.87,6.42,6.42s-2.87,6.42-6.42,6.42-6.42-2.87-6.42-6.42c0-1.82.76-3.47,1.98-4.64"/>
      <path class="cls-5" d="M45.93,45.61c0,10.54-8.54,19.08-19.09,19.08S7.77,56.15,7.77,45.61s8.54-19.08,19.08-19.08,19.09,8.54,19.09,19.08Z"/>
      <path class="cls-4" d="M26.85,32.19c7.41,0,13.42,6,13.42,13.41s-6.01,13.41-13.42,13.41-13.42-6-13.42-13.41c0-2.51.69-4.86,1.89-6.87"/>
      <path class="cls-6" d="M25.98,45.61c0,.48.39.87.87.87s.88-.39.88-.87-.4-.87-.88-.87-.87.39-.87.87Z"/>
      <path class="cls-2" d="M25.98,45.61c0,.48.39.87.87.87s.88-.39.88-.87-.4-.87-.88-.87-.87.39-.87.87Z"/>
      <path class="cls-1" d="M36.61,28.87h14.86c1.45,0,7.56.11,7.56,8v21.58"/>
      <line class="cls-3" x1="22.68" y1="26.88" x2="19.08" y2="6.61"/>
      <path class="cls-3" d="M19.08,6.61s-.96-3.5-4.62-3.5"/>
      <line class="cls-3" x1="14.45" y1="3.11" x2="12.7" y2="3.29"/>
      <line class="cls-1" x1="21.72" y1="18.35" x2="50.6" y2="18.35"/>
      <line class="cls-3" x1="42.73" y1="18.55" x2="42.73" y2="28.76"/>
      <path class="cls-3" d="M1.32,4.88c.14,1.16,1.21,2,2.37,1.86"/>
      <line class="cls-3" x1="3.68" y1="6.74" x2="10.71" y2="5.88"/>
      <path class="cls-3" d="M10.71,5.88c1.16-.14,2-1.21,1.86-2.37"/>
      <line class="cls-3" x1="12.57" y1="3.52" x2="12.52" y2="3.12"/>
      <path class="cls-3" d="M12.52,3.12c-.14-1.16-1.21-2-2.37-1.85"/>
      <line class="cls-3" x1="10.15" y1="1.27" x2="3.12" y2="2.12"/>
      <path class="cls-3" d="M3.12,2.12c-1.16.14-2,1.21-1.86,2.37"/>
      <line class="cls-3" x1="1.27" y1="4.48" x2="1.32" y2="4.88"/>
      <line class="cls-3" x1="55.15" y1="36.95" x2="44.04" y2="36.95"/>
      <line class="cls-3" x1="79.43" y1="53.64" x2="74.16" y2="55.16"/>
      <path class="cls-3" d="M74.16,55.16c-3.25.67-4.16-2.02-4.16-2.02"/>
      <line class="cls-3" x1="70" y1="53.14" x2="64" y2="39.39"/>
      <path class="cls-3" d="M64,39.39c-1.33-2.76-4.66-2.43-4.66-2.43"/>
    </g>
  </g>
</svg>