<?xml version="1.0" encoding="UTF-8"?>
<svg id="Layer_2" data-name="Layer 2" xmlns="http://www.w3.org/2000/svg" viewBox="0 0 86 39.38">
  <defs>
    <style>
      .cls-1 {
        stroke-linejoin: round;
      }

      .cls-1, .cls-2 {
        fill: none;
        stroke: #000;
        stroke-width: 2.5px;
      }

      .cls-2 {
        stroke-miterlimit: 22.93;
      }
    </style>
  </defs>
  <g id="Layer_1-2" data-name="Layer 1">
    <g>
      <path d="M51.33,8.5h-16.59c-2.75,0-5,2.25-5,5v20.88c0,2.75,2.25,5,5,5h16.59c2.75,0,5-2.25,5-5V13.5c0-2.75-2.25-5-5-5M51.33,11c1.38,0,2.5,1.12,2.5,2.5v20.88c0,1.38-1.12,2.5-2.5,2.5h-16.59c-1.38,0-2.5-1.12-2.5-2.5V13.5c0-1.38,1.12-2.5,2.5-2.5h16.59Z"/>
      <path class="cls-1" d="M47.04,26.82c0,2.21-1.8,4.01-4.01,4.01s-4.01-1.79-4.01-4.01,1.8-4.01,4.01-4.01,4.01,1.79,4.01,4.01Z"/>
      <line class="cls-1" x1="36.17" y1="16.42" x2="49.89" y2="16.42"/>
      <path d="M21.59,0H5C2.25,0,0,2.25,0,5v29.38c0,2.75,2.25,5,5,5h16.59c2.75,0,5-2.25,5-5V5c0-2.75-2.25-5-5-5M21.59,2.5c1.38,0,2.5,1.12,2.5,2.5v29.38c0,1.38-1.12,2.5-2.5,2.5H5c-1.38,0-2.5-1.12-2.5-2.5V5c0-1.38,1.12-2.5,2.5-2.5h16.59Z"/>
      <path d="M14.07,9.31c0,.43-.35.78-.78.78s-.78-.35-.78-.78.35-.78.78-.78.78.35.78.78Z"/>
      <path class="cls-2" d="M14.07,9.31c0,.43-.35.78-.78.78s-.78-.35-.78-.78.35-.78.78-.78.78.35.78.78Z"/>
      <path class="cls-1" d="M19.39,24.67c0,3.36-2.73,6.09-6.09,6.09s-6.09-2.73-6.09-6.09,2.73-6.09,6.09-6.09,6.09,2.73,6.09,6.09Z"/>
      <path d="M14.07,24.67c0,.43-.35.78-.78.78s-.78-.35-.78-.78.35-.78.78-.78.78.35.78.78Z"/>
      <path class="cls-2" d="M14.07,24.67c0,.43-.35.78-.78.78s-.78-.35-.78-.78.35-.78.78-.78.78.35.78.78Z"/>
      <path d="M81,0h-16.59c-2.75,0-5,2.25-5,5v29.38c0,2.75,2.25,5,5,5h16.59c2.75,0,5-2.25,5-5V5c0-2.75-2.25-5-5-5M81,2.5c1.38,0,2.5,1.12,2.5,2.5v29.38c0,1.38-1.12,2.5-2.5,2.5h-16.59c-1.38,0-2.5-1.12-2.5-2.5V5c0-1.38,1.12-2.5,2.5-2.5h16.59Z"/>
      <path d="M73.49,9.31c0,.43-.35.78-.78.78s-.78-.35-.78-.78.35-.78.78-.78.78.35.78.78Z"/>
      <path class="cls-2" d="M73.49,9.31c0,.43-.35.78-.78.78s-.78-.35-.78-.78.35-.78.78-.78.78.35.78.78Z"/>
      <path class="cls-1" d="M78.8,24.67c0,3.36-2.73,6.09-6.09,6.09s-6.09-2.73-6.09-6.09,2.73-6.09,6.09-6.09,6.09,2.73,6.09,6.09Z"/>
      <path d="M73.49,24.67c0,.43-.35.78-.78.78s-.78-.35-.78-.78.35-.78.78-.78.78.35.78.78Z"/>
      <path class="cls-2" d="M73.49,24.67c0,.43-.35.78-.78.78s-.78-.35-.78-.78.35-.78.78-.78.78.35.78.78Z"/>
    </g>
  </g>
</svg>