<?xml version="1.0" encoding="UTF-8"?>
<svg id="Layer_2" data-name="Layer 2" xmlns="http://www.w3.org/2000/svg" viewBox="0 0 58.43 55.06">
  <defs>
    <style>
      .cls-1 {
        stroke-linejoin: round;
      }

      .cls-1, .cls-2 {
        fill: none;
        stroke: #000;
        stroke-width: 2.5px;
      }

      .cls-2 {
        stroke-miterlimit: 10;
      }
    </style>
  </defs>
  <g id="Layer_1-2" data-name="Layer 1">
    <g>
      <line class="cls-1" x1="11.95" y1="6.26" x2="12.14" y2="7.41"/>
      <path class="cls-1" d="M12.14,7.41c1.06,5.5,5.11,4.82,7.33,3.49,1.14-.69,2.44-1.15,2.44-1.15,2.12-.71,4.56-1.12,7.31-1.12s5.19.41,7.31,1.12c0,0,1.29.46,2.44,1.15,2.22,1.33,6.27,2.01,7.33-3.49"/>
      <line class="cls-1" x1="46.3" y1="7.41" x2="46.48" y2="6.32"/>
      <path class="cls-1" d="M55.11,29.64c.15-15.18-5.51-28.39-25.89-28.39S3.18,14.45,3.33,29.64"/>
      <line class="cls-2" x1="15.02" y1="29.37" x2="11.42" y2="29.85"/>
      <path class="cls-2" d="M11.42,29.85c-2.73.36-4.66,2.89-4.3,5.61"/>
      <line class="cls-2" x1="7.12" y1="35.46" x2="8.97" y2="49.46"/>
      <path class="cls-2" d="M8.97,49.46c.36,2.73,2.89,4.66,5.61,4.3"/>
      <polyline class="cls-2" points="14.59 53.77 18.18 53.29 15.02 29.37"/>
      <line class="cls-2" x1="7.54" y1="33.32" x2="4.7" y2="33.68"/>
      <path class="cls-2" d="M4.7,33.68c-2.16.27-3.69,2.26-3.42,4.41"/>
      <line class="cls-2" x1="1.28" y1="38.09" x2="2.68" y2="49.16"/>
      <path class="cls-2" d="M2.68,49.16c.27,2.15,2.26,3.69,4.41,3.42"/>
      <line class="cls-2" x1="7.1" y1="52.58" x2="9.94" y2="52.22"/>
      <line class="cls-2" x1="40.25" y1="53.29" x2="43.85" y2="53.77"/>
      <path class="cls-2" d="M43.85,53.77c2.73.36,5.25-1.57,5.61-4.3"/>
      <line class="cls-2" x1="49.46" y1="49.46" x2="51.31" y2="35.46"/>
      <path class="cls-2" d="M51.31,35.46c.36-2.72-1.57-5.25-4.3-5.61"/>
      <polyline class="cls-2" points="47.01 29.85 43.42 29.37 40.25 53.29"/>
      <line class="cls-2" x1="48.49" y1="52.22" x2="51.33" y2="52.58"/>
      <path class="cls-2" d="M51.33,52.58c2.15.27,4.14-1.27,4.41-3.42"/>
      <line class="cls-2" x1="55.75" y1="49.16" x2="57.15" y2="38.09"/>
      <path class="cls-2" d="M57.15,38.09c.27-2.15-1.27-4.14-3.42-4.41"/>
      <line class="cls-2" x1="53.73" y1="33.68" x2="50.89" y2="33.32"/>
    </g>
  </g>
</svg>