<?xml version="1.0" encoding="UTF-8"?>
<svg id="Layer_2" data-name="Layer 2" xmlns="http://www.w3.org/2000/svg" viewBox="0 0 58.35 58.33">
  <defs>
    <style>
      .cls-1 {
        fill: none;
        stroke: #000;
        stroke-linejoin: round;
        stroke-width: 2.5px;
      }
    </style>
  </defs>
  <g id="Layer_1-2" data-name="Layer 1">
    <g>
      <path d="M29.18,0h0C13.06,0,0,13.06,0,29.17s13.06,29.17,29.18,29.17,29.16-13.06,29.16-29.17S45.29,0,29.18,0M29.18,2.5c14.7,0,26.66,11.96,26.66,26.67s-11.96,26.67-26.66,26.67S2.5,43.87,2.5,29.17,14.47,2.5,29.18,2.5Z"/>
      <path d="M29.18,21.33h0c-4.33,0-7.85,3.51-7.85,7.83s3.52,7.83,7.85,7.83,7.83-3.51,7.83-7.83-3.51-7.83-7.83-7.83M29.18,23.83c2.94,0,5.33,2.39,5.33,5.33s-2.39,5.33-5.33,5.33-5.35-2.39-5.35-5.33,2.4-5.33,5.35-5.33Z"/>
      <path class="cls-1" d="M29.06,8.84s.08,0,.12,0c9.21,0,16.98,6.12,19.48,14.52"/>
      <path class="cls-1" d="M42.04,25.36c-1.64-5.55-6.78-9.61-12.86-9.61-.04,0-.08,0-.11,0"/>
    </g>
  </g>
</svg>