<?xml version="1.0" encoding="UTF-8"?>
<svg id="Layer_2" data-name="Layer 2" xmlns="http://www.w3.org/2000/svg" viewBox="0 0 76.64 60.56">
  <defs>
    <style>
      .cls-1 {
        stroke-linejoin: round;
      }

      .cls-1, .cls-2, .cls-3 {
        fill: none;
        stroke: #000;
        stroke-width: 2.5px;
      }

      .cls-2 {
        stroke-miterlimit: 10;
      }

      .cls-3 {
        stroke-miterlimit: 22.93;
      }
    </style>
  </defs>
  <g id="Layer_1-2" data-name="Layer 1">
    <g>
      <line class="cls-1" x1="27.06" y1="27.58" x2="27.06" y2="4.25"/>
      <path class="cls-1" d="M27.06,4.25c0-1.65,1.35-3,3-3"/>
      <line class="cls-1" x1="30.06" y1="1.25" x2="46.59" y2="1.25"/>
      <path class="cls-1" d="M46.59,1.25c1.65,0,3,1.35,3,3"/>
      <line class="cls-1" x1="49.59" y1="4.25" x2="49.59" y2="27.58"/>
      <line class="cls-1" x1="27.25" y1="7.1" x2="49.39" y2="7.1"/>
      <path d="M71.64,30.52H5c-2.75,0-5,2.25-5,5v20.04c0,2.75,2.25,5,5,5h66.64c2.75,0,5-2.25,5-5v-20.04c0-2.75-2.25-5-5-5M71.64,33.02c1.38,0,2.5,1.12,2.5,2.5v20.04c0,1.38-1.12,2.5-2.5,2.5H5c-1.38,0-2.5-1.12-2.5-2.5v-20.04c0-1.38,1.12-2.5,2.5-2.5h66.64Z"/>
      <rect class="cls-1" x="28.09" y="38.14" width="20.47" height="14.8"/>
      <line class="cls-1" x1="33.33" y1="49.27" x2="33.33" y2="43.14"/>
      <line class="cls-1" x1="38.32" y1="49.27" x2="38.32" y2="41.81"/>
      <line class="cls-1" x1="43.31" y1="49.27" x2="43.31" y2="44.56"/>
      <path class="cls-1" d="M21.41,45.85c0,3.59-2.91,6.5-6.5,6.5s-6.51-2.91-6.51-6.5,2.91-6.51,6.51-6.51,6.5,2.91,6.5,6.51Z"/>
      <path d="M15.69,45.85c0,.43-.35.78-.78.78s-.78-.35-.78-.78.35-.78.78-.78.78.35.78.78Z"/>
      <path class="cls-3" d="M15.69,45.85c0,.43-.35.78-.78.78s-.78-.35-.78-.78.35-.78.78-.78.78.35.78.78Z"/>
      <path class="cls-1" d="M68.24,45.85c0,3.59-2.91,6.5-6.5,6.5s-6.51-2.91-6.51-6.5,2.91-6.51,6.51-6.51,6.5,2.91,6.5,6.51Z"/>
      <path d="M62.51,45.85c0,.43-.35.78-.78.78s-.78-.35-.78-.78.35-.78.78-.78.78.35.78.78Z"/>
      <path class="cls-3" d="M62.51,45.85c0,.43-.35.78-.78.78s-.78-.35-.78-.78.35-.78.78-.78.78.35.78.78Z"/>
      <polyline class="cls-2" points="39.06 23.39 37.25 14.3 42.29 14.55"/>
      <path d="M37.03,24.57c-.76,0-1.29-.33-1.34-.63-.04-.22.16-.47.25-.56.29-.32.75-.55,1.27-.65.17-.03.34-.05.51-.05.75,0,1.28.33,1.34.63.04.22-.16.47-.25.57-.29.32-.75.55-1.27.65-.17.03-.35.05-.51.05Z"/>
      <path class="cls-3" d="M37.03,24.57c-.76,0-1.29-.33-1.34-.63-.04-.22.16-.47.25-.56.29-.32.75-.55,1.27-.65.17-.03.34-.05.51-.05.75,0,1.28.33,1.34.63.04.22-.16.47-.25.57-.29.32-.75.55-1.27.65-.17.03-.35.05-.51.05Z"/>
    </g>
  </g>
</svg>