<?xml version="1.0" encoding="UTF-8"?>
<svg id="Layer_2" data-name="Layer 2" xmlns="http://www.w3.org/2000/svg" viewBox="0 0 52.1 63.56">
  <defs>
    <style>
      .cls-1, .cls-2 {
        stroke-linejoin: round;
      }

      .cls-1, .cls-2, .cls-3 {
        fill: none;
        stroke: #000;
        stroke-width: 2.5px;
      }

      .cls-2 {
        stroke-linecap: round;
      }

      .cls-3 {
        stroke-miterlimit: 22.93;
      }
    </style>
  </defs>
  <g id="Layer_1-2" data-name="Layer 1">
    <g>
      <path class="cls-1" d="M14.58,38.74c-3.36-3.09-5.46-7.53-5.46-12.45,0-9.35,7.58-16.93,16.93-16.93s16.93,7.58,16.93,16.93-7.58,16.93-16.93,16.93c-.3,0-.6,0-.9-.02"/>
      <path class="cls-1" d="M32.13,26.28c0,3.36-2.73,6.08-6.08,6.08s-6.08-2.72-6.08-6.08,2.72-6.08,6.08-6.08,6.08,2.72,6.08,6.08Z"/>
      <path d="M26.83,26.28c0,.43-.35.78-.78.78s-.78-.35-.78-.78.35-.78.78-.78.78.35.78.78Z"/>
      <path class="cls-3" d="M26.83,26.28c0,.43-.35.78-.78.78s-.78-.35-.78-.78.35-.78.78-.78.78.35.78.78Z"/>
      <path d="M47.1,0H5C2.25,0,0,2.25,0,5v53.56c0,2.75,2.25,5,5,5h42.1c2.75,0,5-2.25,5-5V5c0-2.75-2.25-5-5-5M47.1,2.5c1.38,0,2.5,1.12,2.5,2.5v53.56c0,1.38-1.12,2.5-2.5,2.5H5c-1.38,0-2.5-1.12-2.5-2.5V5c0-1.38,1.12-2.5,2.5-2.5h42.1Z"/>
      <polygon class="cls-2" points="7.36 51.63 22.85 37.56 13.05 56.08 7.36 51.63"/>
      <path d="M8.87,7.88c0,.43-.35.78-.78.78s-.78-.35-.78-.78.35-.78.78-.78.78.35.78.78Z"/>
      <path class="cls-3" d="M8.87,7.88c0,.43-.35.78-.78.78s-.78-.35-.78-.78.35-.78.78-.78.78.35.78.78Z"/>
      <path d="M44.79,7.88c0,.43-.35.78-.78.78s-.78-.35-.78-.78.35-.78.78-.78.78.35.78.78Z"/>
      <path class="cls-3" d="M44.79,7.88c0,.43-.35.78-.78.78s-.78-.35-.78-.78.35-.78.78-.78.78.35.78.78Z"/>
      <path d="M44.79,55.65c0,.43-.35.78-.78.78s-.78-.35-.78-.78.35-.78.78-.78.78.35.78.78Z"/>
      <path class="cls-3" d="M44.79,55.65c0,.43-.35.78-.78.78s-.78-.35-.78-.78.35-.78.78-.78.78.35.78.78Z"/>
    </g>
  </g>
</svg>