<?xml version="1.0" encoding="UTF-8"?>
<svg id="Layer_2" data-name="Layer 2" xmlns="http://www.w3.org/2000/svg" viewBox="0 0 56.88 61.12">
  <defs>
    <style>
      .cls-1 {
        stroke-linejoin: round;
      }

      .cls-1, .cls-2 {
        fill: none;
        stroke: #000;
        stroke-width: 2.5px;
      }

      .cls-2 {
        stroke-miterlimit: 22.93;
      }
    </style>
  </defs>
  <g id="Layer_1-2" data-name="Layer 1">
    <g>
      <path class="cls-1" d="M9.63,44.57C5.41,49.25.28,55.78,1.41,58.63c0,0,.47,1.94,4.17.97,0,0,11.19-4.35,22.86-4.43,11.67.08,22.86,4.43,22.86,4.43,3.7.97,4.17-.97,4.17-.97,1.13-2.85-3.99-9.35-8.21-14.04"/>
      <path d="M35.01,27.18c0,.93-.75,1.68-1.68,1.68s-1.67-.75-1.67-1.68.75-1.68,1.67-1.68,1.68.75,1.68,1.68Z"/>
      <path class="cls-2" d="M35.01,27.18c0,.93-.75,1.68-1.68,1.68s-1.67-.75-1.67-1.68.75-1.68,1.67-1.68,1.68.75,1.68,1.68Z"/>
      <path class="cls-1" d="M51.3,24.11c0,12.62-10.24,22.86-22.86,22.86S5.58,36.73,5.58,24.11,15.81,1.25,28.44,1.25s22.86,10.23,22.86,22.86Z"/>
      <path class="cls-1" d="M42.36,26.69c0,5.73-4.64,10.36-10.36,10.36s-10.36-4.63-10.36-10.36,4.64-10.36,10.36-10.36,10.36,4.64,10.36,10.36Z"/>
    </g>
  </g>
</svg>