<?xml version="1.0" encoding="UTF-8"?>
<svg id="Layer_2" data-name="Layer 2" xmlns="http://www.w3.org/2000/svg" viewBox="0 0 65.67 49.12">
  <defs>
    <style>
      .cls-1, .cls-2, .cls-3 {
        stroke-linejoin: round;
      }

      .cls-1, .cls-2, .cls-3, .cls-4 {
        fill: none;
        stroke: #000;
      }

      .cls-1, .cls-3, .cls-4 {
        stroke-width: 2.5px;
      }

      .cls-2 {
        stroke-width: 2.47px;
      }

      .cls-3 {
        stroke-linecap: round;
      }

      .cls-4 {
        stroke-miterlimit: 22.93;
      }
    </style>
  </defs>
  <g id="Layer_1-2" data-name="Layer 1">
    <g>
      <line class="cls-2" x1="5.87" y1="14.49" x2="59.8" y2="14.49"/>
      <polygon class="cls-3" points="26.39 22.16 41.84 31.1 26.39 40.02 26.39 22.16"/>
      <path d="M10.38,8.2c0,.43-.35.78-.78.78s-.78-.35-.78-.78.35-.78.78-.78.78.35.78.78Z"/>
      <path class="cls-4" d="M10.38,8.2c0,.43-.35.78-.78.78s-.78-.35-.78-.78.35-.78.78-.78.78.35.78.78Z"/>
      <path d="M17.41,8.2c0,.43-.35.78-.78.78s-.78-.35-.78-.78.35-.78.78-.78.78.35.78.78Z"/>
      <path class="cls-4" d="M17.41,8.2c0,.43-.35.78-.78.78s-.78-.35-.78-.78.35-.78.78-.78.78.35.78.78Z"/>
      <path d="M24.44,8.2c0,.43-.35.78-.78.78s-.78-.35-.78-.78.35-.78.78-.78.78.35.78.78Z"/>
      <path class="cls-4" d="M24.44,8.2c0,.43-.35.78-.78.78s-.78-.35-.78-.78.35-.78.78-.78.78.35.78.78Z"/>
      <path class="cls-1" d="M1.25,5.25C1.25,3.05,3.05,1.25,5.25,1.25"/>
      <line class="cls-1" x1="5.25" y1="1.25" x2="60.42" y2="1.25"/>
      <path class="cls-1" d="M60.42,1.25c2.2,0,4,1.8,4,4"/>
      <line class="cls-1" x1="64.42" y1="5.25" x2="64.42" y2="43.87"/>
      <path class="cls-1" d="M64.42,43.87c0,2.2-1.8,4-4,4"/>
      <line class="cls-1" x1="60.42" y1="47.87" x2="5.25" y2="47.87"/>
      <path class="cls-1" d="M5.25,47.87c-2.2,0-4-1.8-4-4"/>
      <line class="cls-1" x1="1.25" y1="43.87" x2="1.25" y2="5.25"/>
    </g>
  </g>
</svg>