<?xml version="1.0" encoding="UTF-8"?>
<svg id="Layer_2" data-name="Layer 2" xmlns="http://www.w3.org/2000/svg" viewBox="0 0 52.93 62.21">
  <defs>
    <style>
      .cls-1, .cls-2 {
        fill: none;
        stroke: #000;
        stroke-linejoin: round;
        stroke-width: 2.5px;
      }

      .cls-2 {
        stroke-linecap: round;
      }
    </style>
  </defs>
  <g id="Layer_1-2" data-name="Layer 1">
    <g>
      <path class="cls-1" d="M24.57,16.02c-.33-3.91,1.02-7.93,4.04-10.89C33.96-.12,42.56-.03,47.8,5.32c5.25,5.35,5.16,13.94-.19,19.19-2.95,2.89-6.87,4.17-10.67,3.85"/>
      <path class="cls-1" d="M11.12,44.63c1.95,1.94,4.48,2.73,6.59.96"/>
      <polyline class="cls-1" points="17.71 45.59 37.76 28.88 24.08 15.21 7.38 35.25"/>
      <path class="cls-1" d="M7.38,35.25c-1.77,2.1-.98,4.64.96,6.59"/>
      <line class="cls-1" x1="8.34" y1="41.84" x2="11.12" y2="44.63"/>
      <line class="cls-1" x1="27.23" y1="7.72" x2="45.21" y2="25.7"/>
      <line class="cls-2" x1="21.13" y1="31.83" x2="17.65" y2="35.32"/>
      <path class="cls-2" d="M25.56,55.07c-2.55-2.53-6.81-2.43-9.44.23"/>
      <line class="cls-2" x1="16.12" y1="55.3" x2="12.55" y2="58.89"/>
      <path class="cls-2" d="M12.55,58.89c-2.64,2.66-6.88,2.77-9.43.24-2.55-2.53-2.48-6.77.16-9.43"/>
      <line class="cls-2" x1="3.28" y1="49.7" x2="6.5" y2="46.45"/>
    </g>
  </g>
</svg>