<?xml version="1.0" encoding="UTF-8"?>
<svg id="Layer_2" data-name="Layer 2" xmlns="http://www.w3.org/2000/svg" viewBox="0 0 43.89 65.53">
  <defs>
    <style>
      .cls-1 {
        stroke-linejoin: round;
      }

      .cls-1, .cls-2, .cls-3 {
        fill: none;
        stroke: #000;
        stroke-width: 2.5px;
      }

      .cls-2 {
        stroke-miterlimit: 10;
      }

      .cls-3 {
        stroke-miterlimit: 22.93;
      }
    </style>
  </defs>
  <g id="Layer_1-2" data-name="Layer 1">
    <g>
      <path d="M38.89,0H5C2.25,0,0,2.25,0,5v55.53c0,2.75,2.25,5,5,5h33.89c2.75,0,5-2.25,5-5V5c0-2.75-2.25-5-5-5M38.89,2.5c1.38,0,2.5,1.12,2.5,2.5v55.53c0,1.38-1.12,2.5-2.5,2.5H5c-1.38,0-2.5-1.12-2.5-2.5V5c0-1.38,1.12-2.5,2.5-2.5h33.89Z"/>
      <path class="cls-1" d="M33.75,41.75c0,6.54-5.29,11.84-11.8,11.84s-11.8-5.31-11.8-11.84,5.28-11.8,11.8-11.8,11.8,5.29,11.8,11.8Z"/>
      <path class="cls-2" d="M27.19,16.3c0,2.9-2.35,5.25-5.25,5.25s-5.25-2.35-5.25-5.25,2.35-5.25,5.25-5.25,5.25,2.35,5.25,5.25Z"/>
      <path d="M23.05,41.77c0,.62-.49,1.11-1.11,1.11s-1.11-.5-1.11-1.11.5-1.11,1.11-1.11,1.11.5,1.11,1.11Z"/>
      <path class="cls-3" d="M23.05,41.77c0,.62-.49,1.11-1.11,1.11s-1.11-.5-1.11-1.11.5-1.11,1.11-1.11,1.11.5,1.11,1.11Z"/>
    </g>
  </g>
</svg>