<?xml version="1.0" encoding="UTF-8"?>
<svg id="Layer_2" data-name="Layer 2" xmlns="http://www.w3.org/2000/svg" viewBox="0 0 57.37 56.82">
  <defs>
    <style>
      .cls-1, .cls-2 {
        fill: none;
        stroke: #000;
        stroke-linejoin: round;
        stroke-width: 2.5px;
      }

      .cls-2 {
        stroke-linecap: round;
      }
    </style>
  </defs>
  <g id="Layer_1-2" data-name="Layer 1">
    <g>
      <polyline class="cls-2" points="28.66 15.85 28.66 28.94 21.32 33.75"/>
      <path class="cls-1" d="M28.69,5.63c12.87,0,23.3,10.43,23.3,23.31s-10.43,23.3-23.3,23.3S5.38,41.81,5.38,28.94,15.81,5.63,28.69,5.63Z"/>
      <line class="cls-1" x1="16.23" y1="49.26" x2="12.22" y2="54.39"/>
      <path class="cls-1" d="M12.22,54.39c-.81,1.04-2.26,1.48-3.22.97-.96-.51-1.41-1.95-1-3.21"/>
      <line class="cls-1" x1="8.01" y1="52.15" x2="8.95" y2="49.26"/>
      <line class="cls-1" x1="43.7" y1="52.32" x2="45.15" y2="54.39"/>
      <path class="cls-1" d="M45.15,54.39c.81,1.04,2.26,1.48,3.22.97.95-.51,1.4-1.95,1-3.21"/>
      <line class="cls-1" x1="49.36" y1="52.15" x2="46.64" y2="43.48"/>
      <path class="cls-1" d="M3.52,15.46C.34,12.05.52,6.71,3.93,3.52,7.34.34,12.69.52,15.87,3.93"/>
      <path class="cls-1" d="M53.85,15.46c3.18-3.41,3-8.75-.41-11.94-3.41-3.18-8.75-3-11.94.41"/>
    </g>
  </g>
</svg>