<?xml version="1.0" encoding="UTF-8"?>
<svg id="Layer_2" data-name="Layer 2" xmlns="http://www.w3.org/2000/svg" viewBox="0 0 47.53 56.94">
  <defs>
    <style>
      .cls-1, .cls-2, .cls-3 {
        fill: none;
        stroke: #000;
        stroke-width: 2.5px;
      }

      .cls-1, .cls-3 {
        stroke-linejoin: round;
      }

      .cls-2 {
        stroke-miterlimit: 10;
      }

      .cls-3 {
        stroke-linecap: round;
      }
    </style>
  </defs>
  <g id="Layer_1-2" data-name="Layer 1">
    <g>
      <line class="cls-1" x1="14.74" y1="9.53" x2="14.74" y2="4.75"/>
      <path class="cls-1" d="M14.74,4.75c0-1.92,1.58-3.5,3.5-3.5"/>
      <line class="cls-1" x1="18.23" y1="1.25" x2="29.29" y2="1.25"/>
      <path class="cls-1" d="M29.29,1.25c1.93,0,3.5,1.58,3.5,3.5"/>
      <line class="cls-1" x1="32.79" y1="4.75" x2="32.79" y2="9.53"/>
      <line class="cls-1" x1="42.49" y1="15.08" x2="41.08" y2="51.69"/>
      <path class="cls-1" d="M41.08,51.69c-.08,2.2-1.95,4-4.15,4"/>
      <line class="cls-1" x1="36.93" y1="55.69" x2="11.43" y2="55.69"/>
      <path class="cls-1" d="M11.43,55.69c-2.2,0-4.11-1.8-4.23-3.99"/>
      <line class="cls-1" x1="7.2" y1="51.7" x2="5.04" y2="15.08"/>
      <line class="cls-3" x1="1.25" y1="9.74" x2="46.28" y2="9.74"/>
      <line class="cls-2" x1="23.76" y1="49.79" x2="23.76" y2="14.98"/>
      <line class="cls-2" x1="31.75" y1="49.79" x2="32.7" y2="14.95"/>
      <line class="cls-2" x1="14.82" y1="14.99" x2="15.81" y2="49.79"/>
    </g>
  </g>
</svg>