<?xml version="1.0" encoding="UTF-8"?>
<svg id="Layer_2" data-name="Layer 2" xmlns="http://www.w3.org/2000/svg" viewBox="0 0 56.09 54.51">
  <defs>
    <style>
      .cls-1, .cls-2 {
        fill: none;
        stroke: #000;
        stroke-miterlimit: 10;
        stroke-width: 2.5px;
      }

      .cls-2 {
        stroke-linecap: round;
      }
    </style>
  </defs>
  <g id="Layer_1-2" data-name="Layer 1">
    <g>
      <path class="cls-1" d="M50.28,47.8c-.56,1.24-1.89,3.22-4.78,3.22"/>
      <line class="cls-1" x1="45.5" y1="51.02" x2="14.63" y2="51.02"/>
      <path class="cls-1" d="M52.12,19.51h-16.79c2.8-5.6,1.79-14.15,1.79-14.15-.47-4.9-4.35-4.05-4.35-4.05-3.57,0-3.83,3.24-3.83,3.24,0,12.76-11.02,16.87-13.96,17.75"/>
      <path class="cls-1" d="M52.12,19.51s1.65-.27,2.46,1.91"/>
      <polyline class="cls-1" points=".81 21.38 9.18 21.38 9.18 53.26 0 53.26"/>
      <line class="cls-2" x1="49.04" y1="27.75" x2="50.58" y2="27.75"/>
      <path class="cls-1" d="M54.86,24.24c-.3,1.64-1.51,3.55-4.46,3.51"/>
      <line class="cls-2" x1="48.11" y1="35.6" x2="49.65" y2="35.6"/>
      <path class="cls-1" d="M53.93,32.09c-.3,1.64-1.51,3.55-4.46,3.51"/>
      <line class="cls-2" x1="46.18" y1="43.53" x2="47.72" y2="43.53"/>
      <path class="cls-1" d="M52,40.02c-.3,1.64-1.51,3.55-4.46,3.51"/>
    </g>
  </g>
</svg>