<?xml version="1.0" encoding="UTF-8"?>
<svg id="Layer_2" data-name="Layer 2" xmlns="http://www.w3.org/2000/svg" viewBox="0 0 42.79 53.65">
  <defs>
    <style>
      .cls-1, .cls-2 {
        fill: none;
        stroke: #000;
        stroke-linejoin: round;
        stroke-width: 2.5px;
      }

      .cls-2 {
        stroke-linecap: round;
      }
    </style>
  </defs>
  <g id="Layer_1-2" data-name="Layer 1">
    <g>
      <path class="cls-1" d="M11.71,52.3c-.07-6.91,6.02-13.12,9.55-13.12s9.74,6.22,9.81,13.12"/>
      <line class="cls-2" x1="1.25" y1="1.25" x2="41.54" y2="1.25"/>
      <line class="cls-2" x1="1.25" y1="52.4" x2="41.54" y2="52.4"/>
      <path class="cls-2" d="M12.42,15.48s6.96,4.3,8.9,4.3,9.05-4.33,9.05-4.33"/>
      <path class="cls-2" d="M5.45,2.01v14.18c0,5.83,10.57,7.56,10.57,9.78"/>
      <line class="cls-2" x1="16.03" y1="25.96" x2="16.03" y2="27.9"/>
      <path class="cls-2" d="M16.03,27.9c0,2.22-10.57,3.95-10.57,9.78v14.44"/>
      <path class="cls-2" d="M37.34,2.01v14.18c0,5.83-10.57,7.56-10.57,9.78"/>
      <line class="cls-2" x1="26.76" y1="25.96" x2="26.76" y2="27.9"/>
      <path class="cls-2" d="M26.76,27.9c0,2.22,10.57,3.95,10.57,9.78v13.81"/>
    </g>
  </g>
</svg>