<?xml version="1.0" encoding="UTF-8"?>
<svg id="Layer_2" data-name="Layer 2" xmlns="http://www.w3.org/2000/svg" viewBox="0 0 65.1 59.83">
  <defs>
    <style>
      .cls-1, .cls-2, .cls-3 {
        fill: none;
        stroke: #000;
        stroke-width: 2.5px;
      }

      .cls-1, .cls-3 {
        stroke-linejoin: round;
      }

      .cls-2 {
        stroke-miterlimit: 10;
      }

      .cls-3 {
        stroke-linecap: round;
      }
    </style>
  </defs>
  <g id="Layer_1-2" data-name="Layer 1">
    <g>
      <line class="cls-1" x1="42.36" y1="24.81" x2="41.8" y2="19.52"/>
      <path class="cls-1" d="M41.8,19.52c-.21-2.49-2.11-3.81-4.21-3.81"/>
      <line class="cls-1" x1="37.59" y1="15.71" x2="27.5" y2="15.71"/>
      <path class="cls-1" d="M27.5,15.71c-2.11,0-4.01,1.32-4.21,3.81"/>
      <line class="cls-1" x1="23.29" y1="19.52" x2="22.74" y2="24.81"/>
      <path class="cls-3" d="M28.95,2.94c-1.68,1.99-1.43,4.96.55,6.63,1.99,1.68,4.95,1.43,6.63-.55,1.68-1.98,1.43-4.95-.55-6.63-1.98-1.68-4.95-1.43-6.63.55Z"/>
      <line class="cls-1" x1="10.14" y1="32.55" x2="54.95" y2="32.55"/>
      <line class="cls-2" x1="32.55" y1="32.46" x2="32.55" y2="58.52"/>
      <polyline class="cls-2" points="22.31 59.54 18.35 42.86 5.55 42.86"/>
      <path class="cls-3" d="M19.06,2.91c1.68,1.98,1.43,4.95-.55,6.62-1.98,1.68-4.95,1.43-6.62-.55-1.68-1.98-1.43-4.95.55-6.62,1.98-1.67,4.95-1.43,6.62.55Z"/>
      <polyline class="cls-1" points="11.09 28.23 10.02 35.08 21.32 37.01"/>
      <path class="cls-1" d="M21.32,37.01s2.14.48,2.66,2.81"/>
      <line class="cls-1" x1="23.98" y1="39.82" x2="27.22" y2="58.8"/>
      <line class="cls-3" x1="9.54" y1="23.19" x2="12.34" y2="31.97"/>
      <polyline class="cls-2" points="42.79 59.54 46.75 42.86 59.54 42.86"/>
      <path class="cls-2" d="M59.54,42.86c5.2-.71,4.37-6.13,4.06-8.61-.61-5.01-1.47-14.62-2.84-16.78-2.37-3.75-6.75-3.68-7.61-2.99-2,1.61-2.27,4.38-4.34,12.82l-12.25,2.96h-8.06l-12.25-2.96c-2.07-8.43-2.34-11.21-4.34-12.82-.86-.69-5.24-.75-7.61,2.99-1.37,2.16-2.23,11.76-2.84,16.78-.3,2.48-1.14,7.9,4.06,8.61"/>
      <path class="cls-3" d="M46.03,2.91c-1.68,1.98-1.43,4.95.55,6.62,1.98,1.68,4.95,1.43,6.62-.55,1.68-1.98,1.43-4.95-.55-6.62-1.98-1.67-4.95-1.43-6.62.55Z"/>
      <polyline class="cls-1" points="54 28.23 55.07 35.08 43.77 37.01"/>
      <path class="cls-1" d="M43.77,37.01s-2.14.48-2.66,2.81"/>
      <line class="cls-1" x1="41.11" y1="39.82" x2="37.87" y2="58.8"/>
      <line class="cls-3" x1="55.55" y1="23.19" x2="52.76" y2="31.97"/>
    </g>
  </g>
</svg>