<?xml version="1.0" encoding="UTF-8"?>
<svg id="Layer_2" data-name="Layer 2" xmlns="http://www.w3.org/2000/svg" viewBox="0 0 51.45 63.87">
  <defs>
    <style>
      .cls-1, .cls-2, .cls-3 {
        fill: none;
        stroke: #000;
        stroke-width: 2.5px;
      }

      .cls-1, .cls-3 {
        stroke-linejoin: round;
      }

      .cls-2 {
        stroke-miterlimit: 10;
      }

      .cls-3 {
        stroke-linecap: round;
      }
    </style>
  </defs>
  <g id="Layer_1-2" data-name="Layer 1">
    <g>
      <line class="cls-3" x1="17.86" y1="9.43" x2="17.86" y2="5.25"/>
      <path class="cls-3" d="M17.86,5.25c0-2.2,1.8-4,4-4"/>
      <line class="cls-3" x1="21.87" y1="1.25" x2="29.59" y2="1.25"/>
      <path class="cls-3" d="M29.59,1.25c2.2,0,4,1.8,4,4"/>
      <line class="cls-3" x1="33.59" y1="5.25" x2="33.59" y2="9.43"/>
      <path class="cls-1" d="M42.68,11.96c2.85,1.86,5.38,4.17,7.49,6.83"/>
      <line class="cls-3" x1="25.73" y1="21.31" x2="25.73" y2="32.64"/>
      <line class="cls-3" x1="25.73" y1="43.47" x2="25.73" y2="47.72"/>
      <line class="cls-3" x1="49.45" y1="38.12" x2="44.43" y2="38.12"/>
      <line class="cls-3" x1="7.02" y1="38.12" x2="2.01" y2="38.12"/>
      <line class="cls-2" x1="25.73" y1="6.79" x2="25.73" y2="13.82"/>
      <path class="cls-3" d="M50.2,38.14c0,13.52-10.96,24.48-24.48,24.48S1.25,51.66,1.25,38.14,12.21,13.67,25.73,13.67s24.48,10.96,24.48,24.48Z"/>
      <line class="cls-3" x1="42.5" y1="54.89" x2="38.95" y2="51.35"/>
      <line class="cls-3" x1="12.5" y1="24.89" x2="8.96" y2="21.35"/>
      <line class="cls-3" x1="8.96" y1="54.89" x2="12.5" y2="51.35"/>
      <line class="cls-3" x1="38.96" y1="24.89" x2="42.5" y2="21.35"/>
      <line class="cls-3" x1="25.73" y1="61.84" x2="25.73" y2="56.83"/>
      <path class="cls-3" d="M30.89,38.14c0,2.85-2.31,5.16-5.17,5.16s-5.17-2.31-5.17-5.16,2.31-5.17,5.17-5.17,5.17,2.31,5.17,5.17Z"/>
    </g>
  </g>
</svg>