<?xml version="1.0" encoding="UTF-8"?>
<svg id="Layer_2" data-name="Layer 2" xmlns="http://www.w3.org/2000/svg" viewBox="0 0 62.09 66.38">
  <defs>
    <style>
      .cls-1, .cls-2, .cls-3 {
        fill: none;
        stroke: #000;
        stroke-width: 2.5px;
      }

      .cls-1, .cls-3 {
        stroke-linejoin: round;
      }

      .cls-2 {
        stroke-miterlimit: 10;
      }

      .cls-3 {
        stroke-linecap: round;
      }
    </style>
  </defs>
  <g id="Layer_1-2" data-name="Layer 1">
    <g>
      <line class="cls-2" x1="11.96" y1="47.56" x2="10.32" y2="47.53"/>
      <path class="cls-2" d="M10.32,47.53c-4.99,0-9.07-3.96-9.07-8.95"/>
      <line class="cls-2" x1="1.25" y1="38.58" x2="1.25" y2="18.41"/>
      <polyline class="cls-2" points="28.87 66.09 24.44 47.53 10.13 47.53"/>
      <path class="cls-2" d="M36.21,33.95l-14.09-3.56c-2.31-9.43-2.61-12.53-4.85-14.33-.96-.77-5.85-.84-8.51,3.35-1.53,2.41-2.49,12.9-3.17,18.5-.34,2.78-1.27,8.83,4.54,9.63"/>
      <path class="cls-3" d="M25.24,3.11c1.88,2.22,1.6,5.54-.62,7.41-2.22,1.88-5.53,1.6-7.41-.62-1.88-2.22-1.6-5.53.62-7.41,2.21-1.87,5.53-1.6,7.41.62Z"/>
      <polyline class="cls-1" points="16.32 31.42 15.13 39.09 27.76 41.25"/>
      <path class="cls-1" d="M27.76,41.25s2.39.54,2.98,3.14"/>
      <line class="cls-1" x1="30.74" y1="44.39" x2="34.37" y2="65.27"/>
      <line class="cls-3" x1="14.59" y1="25.8" x2="17.72" y2="35.62"/>
      <line class="cls-1" x1="15.21" y1="36.21" x2="62.09" y2="36.21"/>
      <line class="cls-2" x1="56.07" y1="36.11" x2="56.07" y2="65.74"/>
      <polyline class="cls-1" points="29.55 27.49 32.64 19.03 56.41 19.03 50.55 35.68"/>
      <line class="cls-2" x1="12.03" y1="48.07" x2="12.03" y2="65.74"/>
    </g>
  </g>
</svg>