<?xml version="1.0" encoding="UTF-8"?>
<svg id="Layer_2" data-name="Layer 2" xmlns="http://www.w3.org/2000/svg" viewBox="0 0 59.78 70.06">
  <defs>
    <style>
      .cls-1 {
        stroke-linejoin: round;
      }

      .cls-1, .cls-2, .cls-3 {
        fill: none;
        stroke: #000;
        stroke-width: 2.5px;
      }

      .cls-2, .cls-3 {
        stroke-miterlimit: 10;
      }

      .cls-3 {
        stroke-linecap: round;
      }
    </style>
  </defs>
  <g id="Layer_1-2" data-name="Layer 1">
    <g>
      <line class="cls-2" x1="25.56" y1="25.94" x2="40.2" y2="25.94"/>
      <line class="cls-2" x1="25.56" y1="33.07" x2="40.2" y2="33.07"/>
      <line class="cls-2" x1="25.56" y1="40.2" x2="40.2" y2="40.2"/>
      <line class="cls-2" x1="25.56" y1="54.45" x2="40.2" y2="54.45"/>
      <line class="cls-2" x1="25.56" y1="61.58" x2="40.2" y2="61.58"/>
      <line class="cls-2" x1="25.56" y1="47.32" x2="40.2" y2="47.32"/>
      <line class="cls-2" x1="25.56" y1="68.71" x2="40.2" y2="68.71"/>
      <line class="cls-3" x1="32.88" y1="1.25" x2="32.88" y2="7.08"/>
      <polyline class="cls-2" points="20.3 70.06 20.3 18.72 45.46 18.72 45.46 70.06"/>
      <polyline class="cls-2" points="24.8 18.54 24.8 12.6 40.96 12.6 40.96 18.54"/>
      <polyline class="cls-3" points="28.3 7.27 37.46 7.27 37.46 12.46"/>
      <polyline class="cls-2" points="1.25 70.06 1.25 39.77 15.2 39.77"/>
      <line class="cls-2" x1="13.92" y1="55.36" x2="13.92" y2="60.25"/>
      <line class="cls-2" x1="8.06" y1="55.36" x2="8.06" y2="60.25"/>
      <line class="cls-2" x1="13.92" y1="45.6" x2="13.92" y2="50.5"/>
      <line class="cls-2" x1="8.06" y1="45.6" x2="8.06" y2="50.5"/>
      <line class="cls-2" x1="13.92" y1="65.11" x2="13.92" y2="70"/>
      <line class="cls-2" x1="8.06" y1="65.11" x2="8.06" y2="70"/>
      <polyline class="cls-1" points="58.53 70.06 58.53 49.62 50.86 49.62"/>
      <line class="cls-2" x1="52.14" y1="55.36" x2="52.14" y2="60.25"/>
      <line class="cls-2" x1="52.14" y1="65.11" x2="52.14" y2="70"/>
    </g>
  </g>
</svg>