<?xml version="1.0" encoding="UTF-8"?>
<svg id="Layer_2" data-name="Layer 2" xmlns="http://www.w3.org/2000/svg" viewBox="0 0 48.57 65.29">
  <defs>
    <style>
      .cls-1, .cls-2 {
        fill: none;
        stroke: #000;
        stroke-linejoin: round;
        stroke-width: 2.5px;
      }

      .cls-2 {
        stroke-linecap: round;
      }
    </style>
  </defs>
  <g id="Layer_1-2" data-name="Layer 1">
    <g>
      <path class="cls-1" d="M31.68,57.75c-.58,3.56-3.67,6.28-7.4,6.28s-6.82-2.72-7.4-6.28"/>
      <path class="cls-1" d="M24.6,11.33c-2.46.02-4.4.42-5.51.78-8.4,2.75-8,12.63-8,12.63,0,14.32-9.82,19.41-9.82,19.41,0,5.03-.03,8.91-.03,8.91h46.07s-.03-3.88-.03-8.91c0,0-9.82-5.09-9.82-19.41,0,0,.4-9.88-8-12.63-1.1-.36-3.04-.77-5.51-.78"/>
      <path class="cls-2" d="M20.96,17.81c-3.85,1.26-3.88,6.19-3.87,6.75,0,.08,0,.1,0,.18"/>
      <path class="cls-1" d="M23.92,11.33h.03"/>
      <path class="cls-1" d="M29.32,6.29c0,2.78-2.26,5.04-5.04,5.04s-5.04-2.25-5.04-5.04,2.25-5.04,5.04-5.04,5.04,2.25,5.04,5.04Z"/>
    </g>
  </g>
</svg>