<?xml version="1.0" encoding="UTF-8"?>
<svg id="Layer_2" data-name="Layer 2" xmlns="http://www.w3.org/2000/svg" viewBox="0 0 56.12 66.78">
  <defs>
    <style>
      .cls-1, .cls-2 {
        stroke-linejoin: round;
      }

      .cls-1, .cls-2, .cls-3 {
        fill: none;
        stroke: #000;
        stroke-width: 2.5px;
      }

      .cls-2 {
        stroke-linecap: round;
      }

      .cls-3 {
        stroke-miterlimit: 22.93;
      }
    </style>
  </defs>
  <g id="Layer_1-2" data-name="Layer 1">
    <g>
      <polyline class="cls-2" points="31.62 11.3 41.05 15.95 26.1 23.87 26.1 20.1"/>
      <path class="cls-1" d="M15.71,44.59c3.7-.79,7.9-1.24,12.35-1.24,2.06,0,4.07.1,6,.28"/>
      <path class="cls-1" d="M50.89,48.62c2.53,1.69,3.98,3.69,3.98,5.82,0,6.13-12,11.09-26.81,11.09S1.25,60.57,1.25,54.44c0-3.34,3.56-6.33,9.21-8.37"/>
      <line class="cls-2" x1="15.41" y1="1.25" x2="15.41" y2="54.05"/>
      <path class="cls-1" d="M46.94,45.78c0,2.42-1.96,4.38-4.38,4.38s-4.38-1.96-4.38-4.38,1.96-4.38,4.38-4.38,4.38,1.96,4.38,4.38Z"/>
      <polyline class="cls-2" points="15.58 4.28 26.07 6.88 26.1 20.04 15.58 22.16"/>
      <path d="M15.67,55.77c-2.36,0-3.7-.95-3.74-1.27.03-.33,1.36-1.27,3.74-1.27s3.71.95,3.74,1.27c-.04.33-1.38,1.27-3.74,1.27Z"/>
      <path class="cls-3" d="M15.67,55.77c-2.36,0-3.7-.95-3.74-1.27.03-.33,1.36-1.27,3.74-1.27s3.71.95,3.74,1.27c-.04.33-1.38,1.27-3.74,1.27Z"/>
    </g>
  </g>
</svg>