<?xml version="1.0" encoding="UTF-8"?>
<svg id="Layer_2" data-name="Layer 2" xmlns="http://www.w3.org/2000/svg" viewBox="0 0 74.2 42.37">
  <defs>
    <style>
      .cls-1, .cls-2, .cls-3, .cls-4 {
        fill: none;
        stroke: #000;
        stroke-width: 2.5px;
      }

      .cls-1, .cls-3 {
        stroke-linejoin: round;
      }

      .cls-2, .cls-4 {
        stroke-miterlimit: 10;
      }

      .cls-3, .cls-4 {
        stroke-linecap: round;
      }
    </style>
  </defs>
  <g id="Layer_1-2" data-name="Layer 1">
    <g>
      <path class="cls-1" d="M71.5,34.73s1.76-9.48-9.91-12.33c0,0-6.98-1.35-9.84-3.49,0,0-15.55-9.28-19.6-13.09,0,0-10.69-13.63-9.52,6.19,0,0-5.36,4.28-12.14,1.67,0,0-1.49-2.98-2.62-5.24,0,0-2.86-4.76-4.76.95,0,0-3.14,11.59-1.28,20.83"/>
      <path class="cls-3" d="M2.41,35s-1.27,4.33-.24,6.13"/>
      <line class="cls-3" x1="2.17" y1="41.12" x2="72.62" y2="41.12"/>
      <path class="cls-3" d="M72.62,41.12s.87-2.92-.24-6.13"/>
      <line class="cls-3" x1="72.38" y1="35" x2="2.41" y2="35"/>
      <line class="cls-4" x1="26.61" y1="10.35" x2="21.45" y2="12.79"/>
      <line class="cls-2" x1="24.11" y1="34.75" x2="34.32" y2="21.71"/>
      <line class="cls-2" x1="32.61" y1="34.69" x2="40.11" y2="25.28"/>
      <line class="cls-3" x1="37.52" y1="10.93" x2="35.07" y2="14.03"/>
      <line class="cls-3" x1="42.97" y1="14.49" x2="40.52" y2="17.59"/>
      <line class="cls-3" x1="48.79" y1="17.64" x2="46.34" y2="20.74"/>
    </g>
  </g>
</svg>