<?xml version="1.0" encoding="UTF-8"?>
<svg id="Layer_2" data-name="Layer 2" xmlns="http://www.w3.org/2000/svg" viewBox="0 0 67.8 67.8">
  <defs>
    <style>
      .cls-1 {
        fill: none;
        stroke: #000;
        stroke-miterlimit: 10;
        stroke-width: 2.5px;
      }
    </style>
  </defs>
  <g id="Layer_1-2" data-name="Layer 1">
    <g>
      <path class="cls-1" d="M54.14,33.9c0,11.18-9.06,20.24-20.24,20.24s-20.24-9.06-20.24-20.24,9.06-20.24,20.24-20.24,20.24,9.06,20.24,20.24Z"/>
      <path class="cls-1" d="M66.55,33.9c0,18.03-14.62,32.65-32.65,32.65S1.25,51.93,1.25,33.9,15.87,1.25,33.9,1.25s32.65,14.62,32.65,32.65Z"/>
      <line class="cls-1" x1="65.58" y1="28.08" x2="52.54" y2="28.08"/>
      <line class="cls-1" x1="65.58" y1="39.7" x2="56.55" y2="39.7"/>
      <line class="cls-1" x1="11.26" y1="28.08" x2="2.22" y2="28.08"/>
      <line class="cls-1" x1="15.25" y1="39.7" x2="2.22" y2="39.7"/>
      <line class="cls-1" x1="39.71" y1="65.57" x2="39.71" y2="52.53"/>
      <line class="cls-1" x1="28.09" y1="65.57" x2="28.09" y2="56.54"/>
      <line class="cls-1" x1="39.71" y1="11.25" x2="39.71" y2="2.21"/>
      <line class="cls-1" x1="28.09" y1="15.24" x2="28.09" y2="2.21"/>
      <path class="cls-1" d="M63.4,12.61h0c1.07-1.07,1.07-2.79,0-3.86l-4.36-4.36c-1.06-1.07-2.79-1.07-3.86,0l-2.68,2.68"/>
      <path class="cls-1" d="M4.4,55.17h0c-1.07,1.06-1.07,2.79,0,3.86l4.36,4.36c1.06,1.07,2.79,1.07,3.86,0l2.68-2.68"/>
      <path class="cls-1" d="M55.18,63.39h0c1.06,1.07,2.79,1.07,3.86,0l4.36-4.36c1.07-1.06,1.07-2.79,0-3.86l-2.68-2.68"/>
      <path class="cls-1" d="M12.62,4.39h0c-1.07-1.07-2.79-1.07-3.86,0l-4.36,4.36c-1.07,1.07-1.07,2.79,0,3.86l2.68,2.68"/>
    </g>
  </g>
</svg>