<?xml version="1.0" encoding="UTF-8"?>
<svg id="Layer_2" data-name="Layer 2" xmlns="http://www.w3.org/2000/svg" viewBox="0 0 43.85 68.03">
  <defs>
    <style>
      .cls-1 {
        fill: none;
        stroke: #000;
        stroke-linecap: round;
        stroke-linejoin: round;
        stroke-width: 2px;
      }
    </style>
  </defs>
  <g id="Layer_1-2" data-name="Layer 1">
    <g>
      <rect class="cls-1" x="4.26" y="4.04" width="35.33" height="59.69" rx="7.96" ry="7.96"/>
      <rect class="cls-1" x="1" y="1" width="41.85" height="66.03" rx="9.43" ry="9.43"/>
      <path class="cls-1" d="M10.69,22.91h22.12c1.99,0,3.6,1.61,3.6,3.6v19.04c0,1.99-1.61,3.6-3.6,3.6H10.69c-1.99,0-3.6-1.61-3.6-3.6v-19.04c0-1.99,1.61-3.6,3.6-3.6Z"/>
      <path d="M13.81,14.85h16.12c.75,0,1.37.62,1.37,1.37s-.62,1.37-1.37,1.37H13.81c-.76,0-1.37-.62-1.37-1.37s.62-1.37,1.37-1.37Z"/>
    </g>
  </g>
</svg>