<?xml version="1.0" encoding="UTF-8"?>
<svg id="Layer_2" data-name="Layer 2" xmlns="http://www.w3.org/2000/svg" viewBox="0 0 48.41 68.5">
  <defs>
    <style>
      .cls-1 {
        fill: none;
        stroke: #000;
        stroke-linejoin: round;
        stroke-width: 2.5px;
      }
    </style>
  </defs>
  <g id="Layer_1-2" data-name="Layer 1">
    <path class="cls-1" d="M1.25,18.47h37.3c2.44,0,4.3,1.87,4.3,4.3s-1.87,4.3-4.3,4.3H1.25v-8.61ZM42.86,39.99c0-2.44-1.87-4.3-4.3-4.3s-4.3,1.87-4.3,4.3c0,1.29.57,2.44,1.43,3.16v6.89h5.74v-6.89c.86-.72,1.43-1.87,1.43-3.16ZM29.95,18.47V6.99h2.87c0-3.16,2.58-5.74,5.74-5.74s5.74,2.58,5.74,5.74h2.87v54.52h-2.87c0,3.16-2.58,5.74-5.74,5.74s-5.74-2.58-5.74-5.74h-2.87V27.08"/>
  </g>
</svg>