<?xml version="1.0" encoding="UTF-8"?>
<svg id="Layer_2" data-name="Layer 2" xmlns="http://www.w3.org/2000/svg" viewBox="0 0 40.93 67.53">
  <defs>
    <style>
      .cls-1 {
        fill: none;
        stroke: #000;
        stroke-linejoin: round;
        stroke-width: 2.5px;
      }
    </style>
  </defs>
  <g id="Layer_1-2" data-name="Layer 1">
    <path class="cls-1" d="M26.37,10.27v-4.58M20.46,10.27v-4.58M20.46,10.27c.44-.15,1.03-.15,1.48-.15h2.96c.44,0,1.03,0,1.48.15M13.07,60.37V18.98c0-4.43,3.25-7.98,7.39-8.72M33.76,60.37H13.07M33.76,60.37v5.91H13.07v-5.91M33.76,60.37V18.98c0-4.43-3.25-7.98-7.39-8.72M13.07,5.68h7.39M13.07,5.68l-2.96,2.96H1.25V2.73h8.87l2.96,2.96ZM23.42,5.68h2.96M23.42,5.68h-2.96M23.42,5.68V1.25h11.82M39.67,11.6c0-3.25-2.66-5.91-5.91-5.91h-7.39"/>
  </g>
</svg>