<?xml version="1.0" encoding="UTF-8"?>
<svg id="Layer_2" data-name="Layer 2" xmlns="http://www.w3.org/2000/svg" viewBox="0 0 54.06 68.1">
  <defs>
    <style>
      .cls-1 {
        fill: none;
        stroke: #000;
        stroke-linecap: round;
        stroke-linejoin: round;
        stroke-width: 2.5px;
      }
    </style>
  </defs>
  <g id="Layer_1-2" data-name="Layer 1">
    <g>
      <line class="cls-1" x1="34.45" y1="26.81" x2="19.6" y2="41.66"/>
      <line class="cls-1" x1="34.45" y1="41.66" x2="19.6" y2="26.81"/>
      <line class="cls-1" x1="52.78" y1="40.43" x2="52.78" y2="12.39"/>
      <path class="cls-1" d="M52.78,12.39C31.51,12.39,27.03,1.25,27.03,1.25c0,0-4.48,11.14-25.76,11.14"/>
      <line class="cls-1" x1="1.27" y1="12.39" x2="1.27" y2="40.43"/>
      <path class="cls-1" d="M1.27,40.43s-1.72,13.47,25.76,26.42c27.48-12.94,25.76-26.42,25.76-26.42"/>
      <path class="cls-1" d="M43.34,34.23c0,9.01-7.3,16.31-16.31,16.31s-16.31-7.3-16.31-16.31,7.3-16.31,16.31-16.31,16.31,7.3,16.31,16.31Z"/>
    </g>
  </g>
</svg>