<?xml version="1.0" encoding="UTF-8"?>
<svg id="Layer_2" data-name="Layer 2" xmlns="http://www.w3.org/2000/svg" viewBox="0 0 55.66 69.77">
  <defs>
    <style>
      .cls-1 {
        fill: none;
        stroke: #000;
        stroke-linecap: round;
        stroke-miterlimit: 10;
        stroke-width: 2.18px;
      }
    </style>
  </defs>
  <g id="Layer_1-2" data-name="Layer 1">
    <path class="cls-1" d="M47.59,19.12v20.98c0,3.79-1.55,7.47-4.25,10.08-3.76,3.64-12.33,8.61-15.5,10.39-3.17-1.78-11.75-6.77-15.51-10.4-2.7-2.62-4.25-6.29-4.25-10.08V14.64h1.65c5.47,0,10.87-1.2,15.63-3.46.85-.4,1.69-.83,2.48-1.29.79.45,1.63.89,2.5,1.3,4.74,2.26,10.14,3.45,15.61,3.45h1.65M45.94,7.66c-4.36,0-8.69-.91-12.62-2.79-1.89-.89-3.82-2.03-5.48-3.44-1.67,1.41-3.6,2.55-5.48,3.44-3.94,1.88-8.27,2.79-12.62,2.79H1.09v32.45c0,5.68,2.3,11.15,6.38,15.1,6,5.8,20.36,13.33,20.36,13.33,0,0,14.36-7.53,20.36-13.33,4.09-3.96,6.38-9.42,6.38-15.1V7.66h-8.63ZM34.91,28.56l-2.63,2.64-3.67,3.67-3.67,3.67-7.34-7.34-3.67,3.67,7.34,7.34,3.67,3.67,3.67-3.67,3.67-3.67,3.67-3.67,3.67-3.67,2.13-2.13-3.67-3.67"/>
  </g>
</svg>