<?xml version="1.0" encoding="UTF-8"?>
<svg id="Layer_2" data-name="Layer 2" xmlns="http://www.w3.org/2000/svg" viewBox="0 0 49.91 69.11">
  <defs>
    <style>
      .cls-1 {
        fill: none;
        stroke: #000;
        stroke-linecap: round;
        stroke-linejoin: round;
        stroke-width: 2px;
      }
    </style>
  </defs>
  <g id="Layer_1-2" data-name="Layer 1">
    <path class="cls-1" d="M4.89,64.91l-1.21.73M4.57,64.18l-1.21.73M8.48,59.13c2.17-.35,4.23,3.6,3.08,4.68M16.58,58.55c-.17-.57-.73-1.13-.86-1.26M10.76,58.34c1.28-.33,3.46,2.34,2.52,3.66M11.67,57.9c1.28-.33,3.32,2.2,2.38,3.52M12.84,57.33c1.08-.11,3.09,2.22,2.14,3.53M13.7,56.9c1.28-.06,2.65,1.88,2.1,3.45M2.9,63.81c.69-.35,1.57,0,1.96.79.39.78.14,1.7-.55,2.04-.69.35-1.57,0-1.96-.79-.39-.78-.14-1.7.55-2.04ZM3.61,64.83c.24,0,.43.18.43.4s-.19.4-.43.4-.43-.18-.43-.4.19-.4.43-.4ZM1.9,62.8c3.04-1.39,5.78,3.98,2.92,5.24M39.99,46.22s6.4.91,6.85,2.06c.46,1.14-4.8,3.08-5.82,3.2-1.03.11-3.31,1.26-5.37,1.6-2.06.34-5.6.34-8.79,1.03-3.2.69-4.23.46-7.54,1.71-3.31,1.26-3.6,1.48-3.6,1.48-.36-.3-1.18-.8-1.54-.63l-4.8,2.34s-.8,0-1.6.34l-.8.34-5.25,3.2s-1.46,1.77-.27,3.74c1.19,1.97,3.01,1.51,3.7,1.17.68-.34,6.4-4,6.4-4l.23-.46s-.24-.16.57-.8c.81-.64,1.48-1.03,2.4-1.6.91-.57,1.84-.91,1.94-1.37.12-.53-.03-.81-.11-1.03,0,0,2.17-1.26,3.77-1.6,1.6-.34,4-1.14,6.51-1.48,2.51-.34,5.48-.46,7.77-.69,2.28-.23,4-.91,6.17-1.6,2.17-.69,3.77-1.37,5.25-1.94,1.48-.57,2.97-1.83,2.85-2.85-.11-1.03-1.37-2.06-3.54-2.63-2.17-.57-5.42-1.31-5.42-1.31l.06,1.77ZM19.26,33.95h3.84M16.41,36.74h9.65M13.13,39.71h16.02M10.42,42.34h21.51M7.33,45.31h27.58M21.12,21.38c.43,0,.77.35.77.77s-.35.77-.77.77-.77-.35-.77-.77.35-.77.77-.77ZM21.12,18.96c.43,0,.77.35.77.77s-.35.77-.77.77-.77-.35-.77-.77.35-.77.77-.77ZM2.77,49.65l17.47-16.67v-13.47c0-.5.41-.91.91-.91s.91.41.91.91v13.47l17.59,16.67M21.21,1h0c10.14,0,18.44,8.3,18.44,18.44v30.2H2.77v-30.2C2.77,9.3,11.07,1,21.21,1Z"/>
  </g>
</svg>