<?xml version="1.0" encoding="UTF-8"?>
<svg id="Layer_2" data-name="Layer 2" xmlns="http://www.w3.org/2000/svg" viewBox="0 0 55.23 68.76">
  <defs>
    <style>
      .cls-1 {
        fill: none;
        stroke: #000;
        stroke-linecap: round;
        stroke-miterlimit: 10;
        stroke-width: 2.5px;
      }
    </style>
  </defs>
  <g id="Layer_1-2" data-name="Layer 1">
    <path class="cls-1" d="M1.25,60.87h47.42M30.68,32.9c0,1.69-1.37,3.06-3.07,3.06s-3.06-1.37-3.06-3.06,1.37-3.07,3.06-3.07,3.07,1.37,3.07,3.07ZM27.62,45.71v-9.74M43.26,6.33l-.61.83M52.93,19.64l-.98.32M1.25,35.91l1.03.02M53.98,35.91l-1.03.02M3.28,19.96l-.98-.32M12.58,7.17l-.61-.83M27.62,2.28v-1.03M9.84,51.15v-23.78c0-8.93,7.24-16.17,16.17-16.17h3.2c8.93,0,16.17,7.24,16.17,16.17v19.56M53.98,67.51H1.25v-6.64l5.12-9.72h42.48l5.12,9.72v6.64Z"/>
  </g>
</svg>