<?xml version="1.0" encoding="UTF-8"?>
<svg id="Layer_2" data-name="Layer 2" xmlns="http://www.w3.org/2000/svg" viewBox="0 0 55.14 66.22">
  <defs>
    <style>
      .cls-1 {
        fill: none;
        stroke: #000;
        stroke-linecap: round;
        stroke-linejoin: round;
        stroke-width: 2.5px;
      }
    </style>
  </defs>
  <g id="Layer_1-2" data-name="Layer 1">
    <path class="cls-1" d="M7.76,10.25C12.61,4.71,19.67,1.25,27.57,1.25s14.96,3.46,19.81,9M20.09,63.87c14.41-6.1,14.41-22.16,14.41-25.21,0-3.88-3.05-6.93-6.93-6.93s-6.93,3.05-6.93,6.93c0,3.05,0,14.82-11.08,19.12M27.57,64.97c8.17-4.29,12.47-17.73,12.47-26.32,0-6.93-5.54-12.47-12.47-12.47s-12.47,5.54-12.47,12.47c0,0,.97,11.22-9,15.24M36.71,63.31c5.4-4.57,8.87-13.99,8.87-24.66,0-9.97-8.03-18.01-18.01-18.01s-18.01,8.03-18.01,18.01c0,0,.97,6.79-5.82,11.22M48.35,54.86c1.52-4.02,2.77-9.42,2.77-16.21,0-13.02-10.53-23.55-23.55-23.55S4.02,25.63,4.02,38.65c0,2.63-.83,4.57-2.08,6.1M53.89,26.19c-4.71-9.84-14.68-16.62-26.32-16.62S5.96,16.35,1.25,26.19M27.57,38.65c0,10.39-5.54,17.59-13.3,22.72"/>
  </g>
</svg>