<?xml version="1.0" encoding="UTF-8" standalone="no"?>
<!-- Created with Inkscape (http://www.inkscape.org/) -->

<svg
   version="1.1"
   id="svg1"
   width="68.084862"
   height="76.734001"
   viewBox="0 0 75.649847 85.260003"
   sodipodi:docname="svg_01.svg"
   inkscape:version="1.4.3 (0d15f75, 2025-12-25)"
   xmlns:inkscape="http://www.inkscape.org/namespaces/inkscape"
   xmlns:sodipodi="http://sodipodi.sourceforge.net/DTD/sodipodi-0.dtd"
   xmlns="http://www.w3.org/2000/svg"
   xmlns:svg="http://www.w3.org/2000/svg">
  <defs
     id="defs1" />
  <sodipodi:namedview
     id="namedview1"
     pagecolor="#ffffff"
     bordercolor="#cccccc"
     borderopacity="1"
     inkscape:showpageshadow="0"
     inkscape:pageopacity="1"
     inkscape:pagecheckerboard="0"
     inkscape:deskcolor="#d1d1d1"
     inkscape:zoom="1.930139"
     inkscape:cx="336.7633"
     inkscape:cy="142.21773"
     inkscape:window-width="1920"
     inkscape:window-height="991"
     inkscape:window-x="-9"
     inkscape:window-y="-9"
     inkscape:window-maximized="1"
     inkscape:current-layer="layer-MC0">
    <inkscape:page
       x="0"
       y="0"
       inkscape:label="1"
       id="page1"
       width="75.649849"
       height="85.260002"
       margin="30.659866 25.143999 30.658667 25.547733"
       bleed="0" />
  </sodipodi:namedview>
  <g
     id="layer-MC0"
     inkscape:groupmode="layer"
     inkscape:label="Layer 1"
     transform="translate(-122.55589,-33.282143)">
    <path
       id="path1"
       d="m 52.875,140.501 h -1.188 v 9.206 h 1.188 z"
       style="fill:#231f20;fill-opacity:1;fill-rule:nonzero;stroke:none"
       transform="matrix(1.3333333,0,0,-1.3333333,0,350.86933)" />
    <path
       id="path2"
       d="m 0,0 c -0.314,-0.164 -1.011,-0.382 -1.899,-0.382 -1.994,0 -3.291,1.351 -3.291,3.374 0,2.034 1.392,3.51 3.55,3.51 0.711,0 1.339,-0.178 1.667,-0.341 L -0.246,5.232 c -0.287,0.163 -0.738,0.314 -1.394,0.314 -1.515,0 -2.335,-1.12 -2.335,-2.5 0,-1.53 0.983,-2.473 2.295,-2.473 0.683,0 1.133,0.178 1.475,0.328 z"
       style="fill:#231f20;fill-opacity:1;fill-rule:nonzero;stroke:none"
       transform="matrix(1.3333333,0,0,-1.3333333,79.496267,163.20613)" />
    <path
       id="path3"
       d="m 0,0 c 0,-1.448 0.833,-2.541 2.008,-2.541 1.147,0 2.007,1.079 2.007,2.568 0,1.12 -0.56,2.541 -1.98,2.541 C 0.614,2.568 0,1.257 0,0 m 5.245,0.068 c 0,-2.445 -1.694,-3.51 -3.292,-3.51 -1.789,0 -3.169,1.311 -3.169,3.401 0,2.212 1.448,3.51 3.279,3.51 1.898,0 3.182,-1.38 3.182,-3.401"
       style="fill:#231f20;fill-opacity:1;fill-rule:nonzero;stroke:none"
       transform="matrix(1.3333333,0,0,-1.3333333,82.354,159.14427)" />
    <path
       id="path4"
       d="M 0,0 C 0,0.683 -0.013,1.243 -0.055,1.79 H 1.011 L 1.079,0.696 H 1.106 C 1.434,1.325 2.199,1.94 3.292,1.94 4.207,1.94 5.628,1.394 5.628,-0.874 V -4.822 H 4.426 v 3.811 c 0,1.066 -0.396,1.953 -1.53,1.953 -0.793,0 -1.407,-0.56 -1.612,-1.228 C 1.229,-0.437 1.202,-0.642 1.202,-0.846 V -4.822 H 0 Z"
       style="fill:#231f20;fill-opacity:1;fill-rule:nonzero;stroke:none"
       transform="matrix(1.3333333,0,0,-1.3333333,91.365867,157.10547)" />
    <path
       id="path5"
       d="M 0,0 H -3.579 V -3.319 H 0.41 V -4.316 H -4.767 V 4.89 H 0.205 V 3.892 H -3.579 V 0.984 H 0 Z"
       style="fill:#231f20;fill-opacity:1;fill-rule:nonzero;stroke:none"
       transform="matrix(1.3333333,0,0,-1.3333333,31.9044,179.6296)" />
    <path
       id="path6"
       d="M 0,0 0.942,-1.421 C 1.188,-1.79 1.394,-2.131 1.611,-2.5 h 0.042 c 0.218,0.396 0.437,0.738 0.656,1.092 L 3.238,0 H 4.535 L 2.281,-3.196 4.603,-6.611 H 3.238 l -0.97,1.489 C 2.008,-4.74 1.789,-4.371 1.557,-3.975 H 1.53 C 1.311,-4.371 1.079,-4.727 0.833,-5.122 L -0.123,-6.611 H -1.448 L 0.902,-3.238 -1.339,0 Z"
       style="fill:#231f20;fill-opacity:1;fill-rule:nonzero;stroke:none"
       transform="matrix(1.3333333,0,0,-1.3333333,35.197733,176.56933)" />
    <path
       id="path7"
       d="m 0,0 c -1.311,0.027 -2.8,-0.204 -2.8,-1.489 0,-0.778 0.518,-1.147 1.133,-1.147 0.861,0 1.407,0.547 1.598,1.107 C -0.027,-1.408 0,-1.27 0,-1.147 Z m 0.177,-3.374 -0.096,0.833 h -0.04 c -0.369,-0.519 -1.08,-0.983 -2.022,-0.983 -1.339,0 -2.022,0.943 -2.022,1.899 0,1.598 1.421,2.473 3.976,2.458 v 0.138 c 0,0.545 -0.151,1.529 -1.504,1.529 -0.614,0 -1.256,-0.191 -1.721,-0.492 L -3.524,2.8 c 0.546,0.356 1.338,0.587 2.171,0.587 2.022,0 2.514,-1.379 2.514,-2.704 V -1.79 c 0,-0.573 0.027,-1.133 0.109,-1.584 z"
       style="fill:#231f20;fill-opacity:1;fill-rule:nonzero;stroke:none"
       transform="matrix(1.3333333,0,0,-1.3333333,47.3804,180.886)" />
    <path
       id="path8"
       d="M 0,0 C 0,0.683 -0.013,1.243 -0.055,1.79 H 0.997 L 1.052,0.725 H 1.093 C 1.462,1.353 2.076,1.94 3.169,1.94 4.07,1.94 4.753,1.394 5.04,0.615 H 5.067 C 5.273,0.984 5.532,1.271 5.805,1.476 6.202,1.777 6.639,1.94 7.267,1.94 8.141,1.94 9.439,1.366 9.439,-0.929 V -4.822 H 8.264 v 3.743 C 8.264,0.191 7.8,0.957 6.83,0.957 6.147,0.957 5.614,0.45 5.409,-0.136 5.354,-0.301 5.313,-0.519 5.313,-0.738 V -4.822 H 4.138 v 3.961 C 4.138,0.191 3.675,0.957 2.759,0.957 2.008,0.957 1.462,0.356 1.271,-0.246 1.202,-0.424 1.175,-0.628 1.175,-0.833 V -4.822 H 0 Z"
       style="fill:#231f20;fill-opacity:1;fill-rule:nonzero;stroke:none"
       transform="matrix(1.3333333,0,0,-1.3333333,51.511467,178.95587)" />
    <path
       id="path9"
       d="m 0,0 c 0,-0.178 0.027,-0.341 0.055,-0.492 0.218,-0.833 0.942,-1.406 1.803,-1.406 1.27,0 2.008,1.037 2.008,2.554 0,1.325 -0.697,2.459 -1.967,2.459 -0.82,0 -1.585,-0.587 -1.817,-1.49 C 0.041,1.476 0,1.298 0,1.134 Z m -1.188,1.762 c 0,0.847 -0.028,1.53 -0.055,2.159 h 1.079 L -0.11,2.787 h 0.028 c 0.492,0.806 1.27,1.283 2.35,1.283 1.598,0 2.799,-1.351 2.799,-3.36 0,-2.377 -1.447,-3.55 -3.004,-3.55 -0.875,0 -1.639,0.382 -2.036,1.037 H 0 v -3.592 h -1.188 z"
       style="fill:#231f20;fill-opacity:1;fill-rule:nonzero;stroke:none"
       transform="matrix(1.3333333,0,0,-1.3333333,68.280533,181.7968)" />
    <path
       id="path10"
       d="m 57.792,133.811 h 1.202 v -9.698 h -1.202 z"
       style="fill:#231f20;fill-opacity:1;fill-rule:nonzero;stroke:none"
       transform="matrix(1.3333333,0,0,-1.3333333,0,350.86933)" />
    <path
       id="path11"
       d="M 0,0 C 0.014,0.765 -0.314,1.954 -1.666,1.954 -2.882,1.954 -3.415,0.834 -3.51,0 Z m -3.524,-0.861 c 0.027,-1.625 1.066,-2.294 2.267,-2.294 0.861,0 1.38,0.15 1.831,0.341 l 0.205,-0.861 c -0.423,-0.191 -1.148,-0.409 -2.199,-0.409 -2.035,0 -3.251,1.338 -3.251,3.333 0,1.994 1.174,3.565 3.1,3.565 2.159,0 2.732,-1.898 2.732,-3.115 0,-0.246 -0.027,-0.437 -0.041,-0.56 z"
       style="fill:#231f20;fill-opacity:1;fill-rule:nonzero;stroke:none"
       transform="matrix(1.3333333,0,0,-1.3333333,86.9444,180.12147)" />
    <path
       id="path12"
       d="m 0,0 c 0.355,-0.233 0.983,-0.479 1.584,-0.479 0.874,0 1.285,0.438 1.285,0.984 0,0.574 -0.342,0.888 -1.23,1.215 C 0.45,2.144 -0.11,2.8 -0.11,3.592 c 0,1.065 0.861,1.939 2.281,1.939 0.67,0 1.257,-0.191 1.626,-0.409 L 3.497,4.248 C 3.237,4.411 2.759,4.63 2.144,4.63 1.434,4.63 1.038,4.22 1.038,3.728 1.038,3.183 1.434,2.937 2.294,2.608 3.442,2.171 4.03,1.597 4.03,0.615 c 0,-1.162 -0.902,-1.981 -2.473,-1.981 -0.724,0 -1.393,0.178 -1.858,0.45 z"
       style="fill:#231f20;fill-opacity:1;fill-rule:nonzero;stroke:none"
       transform="matrix(1.3333333,0,0,-1.3333333,90.256533,183.7448)" />
    <path
       id="path13"
       d="m 0,0 c -1.869,1.783 -4.335,2.708 -6.911,2.576 -4.727,-0.221 -8.634,-4.095 -8.895,-8.82 -0.168,-3.043 1.097,-5.888 3.472,-7.806 0.602,-0.486 0.948,-1.206 0.948,-1.977 v -1.856 c 0,-0.652 0.378,-1.201 0.915,-1.494 v -1.98 c 0,-2.211 1.8,-4.01 4.01,-4.01 2.213,0 4.012,1.799 4.012,4.01 v 1.98 c 0.536,0.293 0.914,0.842 0.914,1.494 v 1.856 c 0,0.774 0.336,1.487 0.924,1.957 2.23,1.789 3.511,4.447 3.511,7.297 C 2.9,-4.189 1.869,-1.784 0,0 m -3.249,-19.606 v -1.751 c 0,-1.772 -1.439,-3.212 -3.212,-3.212 -1.585,0 -2.898,1.156 -3.157,2.669 h 3.157 c 0.222,0 0.399,0.179 0.399,0.399 0,0.221 -0.177,0.399 -0.399,0.399 h -3.212 v 1.496 h 0.012 6.402 z m 2.138,6.16 c -0.778,-0.624 -1.223,-1.563 -1.223,-2.581 v -1.856 c 0,-0.511 -0.415,-0.925 -0.925,-0.925 h -6.402 c -0.511,0 -0.927,0.414 -0.927,0.925 v 1.856 c 0,1.013 -0.453,1.96 -1.244,2.599 -2.173,1.752 -3.33,4.356 -3.177,7.14 0.24,4.322 3.813,7.863 8.136,8.068 0.139,0.006 0.279,0.009 0.417,0.009 2.214,0 4.297,-0.833 5.905,-2.367 1.71,-1.631 2.652,-3.831 2.652,-6.195 0,-2.605 -1.171,-5.038 -3.212,-6.673"
       style="fill:#231f20;fill-opacity:1;fill-rule:nonzero;stroke:none"
       transform="matrix(1.3333333,0,0,-1.3333333,250.352,122.68373)" />
    <path
       id="path14"
       d="m 0,0 c -0.534,0 -0.97,-0.435 -0.97,-0.97 0,-0.534 0.436,-0.968 0.97,-0.968 0.534,0 0.97,0.434 0.97,0.968 C 0.97,-0.435 0.534,0 0,0"
       style="fill:#231f20;fill-opacity:1;fill-rule:nonzero;stroke:none"
       transform="matrix(1.3333333,0,0,-1.3333333,248.3148,129.75827)" />
    <path
       id="path15"
       d="m 0,0 c -1.869,1.783 -4.323,2.716 -6.91,2.576 -4.728,-0.221 -8.633,-4.095 -8.896,-8.82 -0.168,-3.043 1.097,-5.888 3.474,-7.805 0.602,-0.487 0.948,-1.207 0.948,-1.978 v -1.854 c 0,-0.653 0.378,-1.202 0.913,-1.495 v -1.98 c 0,-2.212 1.8,-4.011 4.012,-4.011 2.211,0 4.01,1.799 4.01,4.011 v 1.979 c 0.536,0.293 0.914,0.842 0.914,1.496 v 1.854 c 0,0.774 0.336,1.488 0.924,1.959 2.23,1.787 3.511,4.447 3.511,7.295 C 2.9,-4.189 1.869,-1.784 0,0 m -3.249,-19.606 v -1.75 c 0,-1.77 -1.439,-3.212 -3.21,-3.212 -1.586,0 -2.898,1.156 -3.159,2.669 h 3.159 c 0.22,0 0.399,0.179 0.399,0.399 0,0.22 -0.179,0.399 -0.399,0.399 h -3.214 v 1.495 h 0.012 6.402 z m 2.138,6.16 c -0.776,-0.622 -1.223,-1.563 -1.223,-2.581 v -1.854 c 0,-0.511 -0.415,-0.927 -0.925,-0.927 h -6.402 c -0.509,0 -0.925,0.416 -0.925,0.927 v 1.854 c 0,1.013 -0.455,1.96 -1.246,2.599 -2.173,1.754 -3.33,4.356 -3.175,7.142 0.238,4.32 3.811,7.862 8.134,8.064 0.139,0.008 0.279,0.011 0.417,0.011 2.214,0 4.297,-0.833 5.905,-2.367 1.71,-1.631 2.652,-3.831 2.652,-6.195 0,-2.605 -1.171,-5.038 -3.212,-6.673"
       style="fill:#231f20;fill-opacity:1;fill-rule:nonzero;stroke:none"
       transform="matrix(1.3333333,0,0,-1.3333333,250.352,57.608533)" />
    <path
       id="path16"
       d="m 0,0 c -0.534,0 -0.97,-0.435 -0.97,-0.97 0,-0.534 0.436,-0.968 0.97,-0.968 0.534,0 0.97,0.434 0.97,0.968 C 0.97,-0.435 0.534,0 0,0"
       style="fill:#231f20;fill-opacity:1;fill-rule:nonzero;stroke:none"
       transform="matrix(1.3333333,0,0,-1.3333333,243.37453,64.3736)" />
    <path
       id="path17"
       d="m 0,0 c -0.534,0 -0.97,-0.435 -0.97,-0.97 0,-0.534 0.436,-0.968 0.97,-0.968 0.534,0 0.97,0.434 0.97,0.968 C 0.97,-0.435 0.534,0 0,0"
       style="fill:#231f20;fill-opacity:1;fill-rule:nonzero;stroke:none"
       transform="matrix(1.3333333,0,0,-1.3333333,247.55613,61.939867)" />
    <path
       id="path18"
       d="m 0,0 c -0.534,0 -0.97,-0.435 -0.97,-0.97 0,-0.534 0.436,-0.968 0.97,-0.968 0.534,0 0.97,0.434 0.97,0.968 C 0.97,-0.435 0.534,0 0,0"
       style="fill:#231f20;fill-opacity:1;fill-rule:nonzero;stroke:none"
       transform="matrix(1.3333333,0,0,-1.3333333,247.55613,67.351467)" />
    <path
       id="path19"
       d="m 169.19541,67.395256 c -2.49067,-2.377334 -5.764,-3.622667 -9.21334,-3.434667 -6.30133,0.294667 -11.51066,5.46 -11.85866,11.76 -0.224,4.057333 1.46266,7.850666 4.62933,10.406666 0.80267,0.646667 1.264,1.608 1.264,2.636 v 2.473333 c 0,0.870667 0.504,1.602667 1.21733,1.993334 v 2.64 c 0,2.946666 2.4,5.346668 5.34934,5.346668 2.948,0 5.34666,-2.400002 5.34666,-5.346668 v -2.64 c 0.71467,-0.390667 1.21867,-1.122667 1.21867,-1.993334 l 0.001,-2.473333 c 0,-1.032 0.44934,-1.982667 1.23067,-2.610667 2.97467,-2.382666 4.68133,-5.929333 4.68133,-9.727999 0,-3.444 -1.37466,-6.650667 -3.86666,-9.029333 m -4.32934,26.141332 v 2.333334 c 0,2.36 -1.92133,4.282668 -4.28266,4.282668 -2.11467,0 -3.864,-1.544002 -4.212,-3.561335 h 4.212 c 0.29333,0 0.532,-0.236 0.532,-0.532 0,-0.293333 -0.23867,-0.532 -0.532,-0.532 h -4.28534 v -1.990667 h 0.016 8.536 z m 2.848,-8.214666 c -1.036,0.830666 -1.628,2.082666 -1.628,3.441333 l -0.003,2.473333 c 0,0.682667 -0.55334,1.236 -1.23334,1.236 h -8.536 c -0.67866,0 -1.23333,-0.553333 -1.23333,-1.236 v -2.473333 c 0,-1.352 -0.60533,-2.614667 -1.65867,-3.464 -2.89733,-2.338666 -4.44133,-5.808 -4.236,-9.522666 0.31867,-5.76 5.08267,-10.482667 10.84534,-10.754667 0.18533,-0.008 0.372,-0.012 0.556,-0.012 2.952,0 5.72933,1.109334 7.87333,3.156 2.28,2.174667 3.536,5.108 3.536,8.258667 0,3.474666 -1.55867,6.718666 -4.28267,8.897333"
       style="fill:#231f20;fill-opacity:1;fill-rule:nonzero;stroke:none;stroke-width:1.33333" />
    <path
       id="path20"
       d="m 0,0 c -2.692,-1.261 -3.267,-3.476 -3.289,-3.569 -0.054,-0.214 0.075,-0.429 0.289,-0.482 0.032,-0.009 0.066,-0.012 0.097,-0.012 0.179,0 0.34,0.121 0.387,0.3 0.02,0.079 0.522,1.947 2.854,3.039 0.199,0.094 0.286,0.333 0.193,0.531 C 0.437,0.009 0.199,0.094 0,0"
       style="fill:#231f20;fill-opacity:1;fill-rule:nonzero;stroke:none"
       transform="matrix(1.3333333,0,0,-1.3333333,152.42053,125.2064)" />
    <path
       id="path21"
       d="m 0,0 c -1.869,1.783 -4.329,2.71 -6.911,2.576 -4.725,-0.221 -8.632,-4.095 -8.895,-8.82 -0.168,-3.045 1.099,-5.89 3.472,-7.805 0.604,-0.487 0.948,-1.209 0.948,-1.978 v -1.856 c 0,-0.652 0.38,-1.201 0.915,-1.494 v -1.98 c 0,-2.211 1.8,-4.01 4.01,-4.01 2.213,0 4.011,1.799 4.011,4.01 v 1.98 c 0.537,0.293 0.915,0.842 0.915,1.494 v 1.856 c 0,0.774 0.336,1.487 0.924,1.957 C 1.62,-12.282 2.9,-9.623 2.9,-6.773 2.9,-4.189 1.869,-1.784 0,0 m -3.249,-19.608 v -1.749 c 0,-1.771 -1.439,-3.212 -3.212,-3.212 -1.585,0 -2.898,1.157 -3.157,2.669 h 3.157 c 0.222,0 0.399,0.179 0.399,0.399 0,0.221 -0.177,0.4 -0.399,0.4 h -3.212 v 1.493 h 0.012 6.402 z m 2.138,6.162 c -0.776,-0.624 -1.223,-1.564 -1.223,-2.581 v -1.856 c 0,-0.511 -0.415,-0.927 -0.925,-0.927 h -6.402 c -0.509,0 -0.925,0.416 -0.925,0.927 v 1.856 c 0,1.012 -0.454,1.96 -1.247,2.599 -2.172,1.752 -3.329,4.355 -3.176,7.14 0.24,4.322 3.813,7.863 8.136,8.066 0.139,0.008 0.277,0.011 0.417,0.011 2.214,0 4.297,-0.832 5.905,-2.367 1.71,-1.631 2.652,-3.831 2.652,-6.195 0,-2.607 -1.169,-5.039 -3.212,-6.673"
       style="fill:#231f20;fill-opacity:1;fill-rule:nonzero;stroke:none"
       transform="matrix(1.3333333,0,0,-1.3333333,164.53453,123.66293)" />
    <path
       id="path22"
       d="m 0,0 h -2.766 v 6.062 c 0,0.22 -0.179,0.399 -0.399,0.399 -0.222,0 -0.399,-0.179 -0.399,-0.399 V 0 h -2.768 c -5.961,0 -10.812,-4.851 -10.812,-10.812 v -0.607 c 0,-0.22 0.179,-0.399 0.399,-0.399 h 9.397 c 0.46,-1.938 2.17,-3.309 4.184,-3.309 2.015,0 3.724,1.371 4.185,3.309 h 9.392 c 0.222,0 0.399,0.179 0.399,0.399 v 0.608 C 10.812,-4.849 5.961,0 0,0 M 10.014,-11.02 H 0.693 c -0.197,0 -0.364,-0.144 -0.394,-0.337 -0.273,-1.722 -1.728,-2.972 -3.463,-2.972 -1.734,0 -3.19,1.25 -3.462,2.972 -0.032,0.193 -0.199,0.337 -0.395,0.337 h -9.325 v 0.208 c 0,5.521 4.493,10.014 10.014,10.014 h 3.065 c 0.037,-0.011 0.063,-0.043 0.102,-0.043 0.039,0 0.065,0.032 0.102,0.043 H 0 c 5.521,0 10.014,-4.491 10.014,-10.013 z"
       style="fill:#231f20;fill-opacity:1;fill-rule:nonzero;stroke:none"
       transform="matrix(1.3333333,0,0,-1.3333333,504.426,129.36587)" />
    <path
       id="path23"
       d="m 0,0 h -2.766 v 6.062 c 0,0.22 -0.179,0.399 -0.399,0.399 -0.222,0 -0.399,-0.179 -0.399,-0.399 V 0 h -2.768 c -5.961,0 -10.812,-4.851 -10.812,-10.812 v -0.607 c 0,-0.22 0.179,-0.399 0.399,-0.399 h 9.397 c 0.46,-1.938 2.168,-3.309 4.184,-3.309 2.015,0 3.724,1.371 4.185,3.309 h 9.392 c 0.222,0 0.399,0.179 0.399,0.399 v 0.608 C 10.812,-4.849 5.961,0 0,0 M 10.014,-11.02 H 0.693 c -0.197,0 -0.364,-0.144 -0.394,-0.337 -0.273,-1.722 -1.728,-2.972 -3.463,-2.972 -1.735,0 -3.192,1.25 -3.462,2.972 -0.03,0.193 -0.199,0.337 -0.395,0.337 h -9.325 v 0.208 c 0,5.521 4.493,10.014 10.014,10.014 h 3.065 c 0.037,-0.011 0.063,-0.043 0.102,-0.043 0.039,0 0.065,0.032 0.102,0.043 H 0 c 5.521,0 10.014,-4.491 10.014,-10.013 z"
       style="fill:#231f20;fill-opacity:1;fill-rule:nonzero;stroke:none"
       transform="matrix(1.3333333,0,0,-1.3333333,504.426,64.288533)" />
    <path
       id="path24"
       d="M 0,0 C -0.009,0.002 -0.954,0.226 -1.363,1.287 -1.44,1.493 -1.674,1.598 -1.877,1.516 -2.083,1.437 -2.186,1.205 -2.108,1 c 0.559,-1.455 1.877,-1.768 1.934,-1.78 0.028,-0.006 0.057,-0.009 0.088,-0.009 0.182,0 0.347,0.126 0.388,0.311 C 0.35,-0.262 0.215,-0.049 0,0"
       style="fill:#231f20;fill-opacity:1;fill-rule:nonzero;stroke:none"
       transform="matrix(1.3333333,0,0,-1.3333333,499.48787,81.717067)" />
    <path
       id="path25"
       d="m 0,0 h -2.766 v 6.062 c 0,0.22 -0.179,0.399 -0.399,0.399 -0.22,0 -0.399,-0.179 -0.399,-0.399 V 0 h -2.768 c -5.961,0 -10.812,-4.851 -10.812,-10.812 v -0.607 c 0,-0.22 0.179,-0.399 0.399,-0.399 h 9.395 c 0.462,-1.938 2.172,-3.309 4.186,-3.309 2.015,0 3.724,1.371 4.184,3.309 h 9.393 c 0.22,0 0.399,0.179 0.399,0.399 v 0.608 C 10.812,-4.849 5.961,0 0,0 M 10.014,-11.02 H 0.692 c -0.196,0 -0.363,-0.143 -0.395,-0.337 -0.271,-1.722 -1.726,-2.972 -3.461,-2.972 -1.734,0 -3.19,1.25 -3.464,2.972 -0.03,0.194 -0.197,0.337 -0.394,0.337 h -9.324 v 0.208 c 0,5.521 4.493,10.014 10.014,10.014 h 3.065 c 0.037,-0.011 0.063,-0.043 0.102,-0.043 0.039,0 0.065,0.032 0.1,0.043 H 0 c 5.521,0 10.014,-4.491 10.014,-10.013 z"
       style="fill:#231f20;fill-opacity:1;fill-rule:nonzero;stroke:none"
       transform="matrix(1.3333333,0,0,-1.3333333,588.2024,129.2444)" />
    <path
       id="path26"
       d="m 0,0 c -0.53,0 -0.957,-0.429 -0.957,-0.957 0,-0.528 0.427,-0.958 0.957,-0.958 0.528,0 0.957,0.43 0.957,0.958 C 0.957,-0.429 0.528,0 0,0"
       style="fill:#231f20;fill-opacity:1;fill-rule:nonzero;stroke:none"
       transform="matrix(1.3333333,0,0,-1.3333333,583.87107,144.2412)" />
    <path
       id="path27"
       d="m 0,0 h -2.766 v 6.062 c 0,0.22 -0.179,0.399 -0.399,0.399 -0.22,0 -0.399,-0.179 -0.399,-0.399 v -6.064 h -2.768 c -5.961,0 -10.812,-4.849 -10.812,-10.812 v -0.607 c 0,-0.106 0.043,-0.207 0.117,-0.282 0.076,-0.076 0.178,-0.117 0.282,-0.117 l 9.397,0.002 c 0.46,-1.938 2.17,-3.309 4.184,-3.309 2.017,0 3.725,1.371 4.185,3.309 h 9.392 c 0.22,0 0.401,0.179 0.401,0.399 v 0.608 C 10.814,-4.849 5.961,0 0,0 M 10.014,-11.02 H 0.693 c -0.195,0 -0.362,-0.144 -0.394,-0.337 -0.27,-1.722 -1.727,-2.972 -3.463,-2.972 -1.734,0 -3.19,1.25 -3.462,2.972 -0.03,0.193 -0.197,0.337 -0.395,0.337 l -9.323,-0.002 v 0.208 c 0,5.523 4.491,10.014 10.012,10.014 h 0.251 2.816 c 0.036,-0.01 0.061,-0.041 0.1,-0.041 0.038,0 0.064,0.031 0.099,0.041 L 0,-0.798 c 5.521,0 10.014,-4.491 10.014,-10.013 z"
       style="fill:#231f20;fill-opacity:1;fill-rule:nonzero;stroke:none"
       transform="matrix(1.3333333,0,0,-1.3333333,588.2024,62.4536)" />
    <path
       id="path28"
       d="m 0,0 c -0.53,0 -0.957,-0.428 -0.957,-0.957 0,-0.528 0.427,-0.958 0.957,-0.958 0.53,0 0.957,0.43 0.957,0.958 C 0.957,-0.428 0.53,0 0,0"
       style="fill:#231f20;fill-opacity:1;fill-rule:nonzero;stroke:none"
       transform="matrix(1.3333333,0,0,-1.3333333,577.43773,80.262533)" />
    <path
       id="path29"
       d="m 0,0 c -0.53,0 -0.957,-0.428 -0.957,-0.957 0,-0.528 0.427,-0.958 0.957,-0.958 0.528,0 0.957,0.43 0.957,0.958 C 0.957,-0.428 0.528,0 0,0"
       style="fill:#231f20;fill-opacity:1;fill-rule:nonzero;stroke:none"
       transform="matrix(1.3333333,0,0,-1.3333333,584.08947,83.499333)" />
    <path
       id="path30"
       d="m 0,0 c -0.53,0 -0.957,-0.428 -0.957,-0.957 0,-0.528 0.427,-0.958 0.957,-0.958 0.528,0 0.957,0.43 0.957,0.958 C 0.957,-0.428 0.528,0 0,0"
       style="fill:#231f20;fill-opacity:1;fill-rule:nonzero;stroke:none"
       transform="matrix(1.3333333,0,0,-1.3333333,590.13027,80.699467)" />
    <path
       id="path31"
       d="m 0,0 c -0.222,0 -0.399,-0.179 -0.399,-0.401 v -14.968 c -0.288,-0.147 -0.564,-0.324 -0.8,-0.559 -0.632,-0.636 -0.981,-1.477 -0.981,-2.372 0,-0.895 0.349,-1.736 0.983,-2.371 0.634,-0.635 1.476,-0.982 2.371,-0.982 0.896,0 1.738,0.347 2.372,0.982 0.633,0.634 0.982,1.474 0.982,2.371 0,0.895 -0.349,1.737 -0.982,2.372 -0.826,0.825 -2.044,1.103 -3.147,0.855 V -0.401 C 0.399,-0.179 0.222,0 0,0 m 1.174,-15.746 c 0.682,0 1.323,-0.266 1.806,-0.748 0.482,-0.481 0.748,-1.123 0.748,-1.806 0,-0.683 -0.266,-1.325 -0.748,-1.807 -0.967,-0.965 -2.646,-0.965 -3.611,0 -0.484,0.484 -0.75,1.126 -0.75,1.807 0,0.68 0.266,1.322 0.748,1.806 0.483,0.482 1.125,0.748 1.807,0.748"
       style="fill:#231f20;fill-opacity:1;fill-rule:nonzero;stroke:none"
       transform="matrix(1.3333333,0,0,-1.3333333,325.36853,59.1156)" />
    <path
       id="path32"
       d="m 0,0 c -0.526,0.872 -1.255,1.617 -2.114,2.168 v 4.507 c 0,0.22 -0.179,0.399 -0.4,0.399 -0.22,0 -0.399,-0.179 -0.399,-0.399 v -4.73 c 0,-0.139 0.074,-0.271 0.196,-0.343 0.831,-0.493 1.534,-1.189 2.033,-2.015 0.552,-0.913 0.843,-1.96 0.843,-3.033 0,-1.567 -0.61,-3.042 -1.719,-4.15 -1.107,-1.109 -2.581,-1.719 -4.15,-1.719 -1.568,0 -3.042,0.61 -4.151,1.719 -1.109,1.108 -1.719,2.583 -1.719,4.15 0,1.071 0.291,2.12 0.844,3.033 0.499,0.826 1.201,1.522 2.033,2.015 0.121,0.072 0.196,0.204 0.196,0.343 v 12.336 c 0,0.743 0.291,1.446 0.82,1.975 1.061,1.058 2.891,1.061 3.953,0 0.528,-0.529 0.821,-1.23 0.821,-1.975 v -0.788 c 0,-0.22 0.179,-0.4 0.399,-0.4 0.221,0 0.4,0.18 0.4,0.4 v 0.788 c 0,0.957 -0.374,1.86 -1.056,2.541 -1.359,1.358 -3.714,1.363 -5.081,0 -0.681,-0.681 -1.056,-1.584 -1.056,-2.541 V 2.168 C -10.166,1.617 -10.894,0.872 -11.421,0 c -0.626,-1.036 -0.959,-2.229 -0.959,-3.446 0,-1.781 0.694,-3.456 1.955,-4.715 1.259,-1.26 2.934,-1.953 4.715,-1.953 1.782,0 3.457,0.693 4.715,1.953 1.261,1.26 1.954,2.935 1.954,4.715 C 0.959,-2.227 0.627,-1.036 0,0"
       style="fill:#231f20;fill-opacity:1;fill-rule:nonzero;stroke:none"
       transform="matrix(1.3333333,0,0,-1.3333333,334.54707,78.925333)" />
    <path
       id="path33"
       d="M 0,0 C 0,-0.373 0.303,-0.677 0.677,-0.677 1.05,-0.677 1.352,-0.373 1.352,0 1.352,0.373 1.05,0.677 0.677,0.677 0.303,0.677 0,0.373 0,0"
       style="fill:#231f20;fill-opacity:1;fill-rule:nonzero;stroke:none"
       transform="matrix(1.3333333,0,0,-1.3333333,330.28853,62.528533)" />
    <path
       id="path34"
       d="M 0,0 C 0,0.373 -0.303,0.677 -0.677,0.677 -1.05,0.677 -1.352,0.373 -1.352,0 c 0,-0.373 0.302,-0.677 0.675,-0.677 C -0.303,-0.677 0,-0.373 0,0"
       style="fill:#231f20;fill-opacity:1;fill-rule:nonzero;stroke:none"
       transform="matrix(1.3333333,0,0,-1.3333333,332.11933,68.1344)" />
    <path
       id="path35"
       d="M 0,0 C 0.373,0 0.677,0.303 0.677,0.677 0.677,1.05 0.373,1.352 0,1.352 -0.373,1.352 -0.677,1.05 -0.677,0.677 -0.677,0.303 -0.373,0 0,0"
       style="fill:#231f20;fill-opacity:1;fill-rule:nonzero;stroke:none"
       transform="matrix(1.3333333,0,0,-1.3333333,333.6792,66.0952)" />
    <path
       id="path36"
       d="M 0,0 C 0,0.373 -0.302,0.677 -0.677,0.677 -1.05,0.677 -1.352,0.373 -1.352,0 c 0,-0.373 0.302,-0.677 0.675,-0.677 C -0.302,-0.677 0,-0.373 0,0"
       style="fill:#231f20;fill-opacity:1;fill-rule:nonzero;stroke:none"
       transform="matrix(1.3333333,0,0,-1.3333333,329.55827,65.192933)" />
    <path
       id="path37"
       d="m 0,0 c -0.222,0 -0.399,-0.179 -0.399,-0.399 v -4.93 c -0.288,-0.148 -0.563,-0.326 -0.798,-0.56 -0.634,-0.634 -0.983,-1.477 -0.983,-2.371 0,-0.895 0.349,-1.739 0.983,-2.373 0.633,-0.633 1.475,-0.982 2.371,-0.982 0.896,0 1.738,0.349 2.37,0.982 0.635,0.633 0.984,1.476 0.984,2.373 0,0.895 -0.349,1.737 -0.984,2.371 -0.822,0.824 -2.042,1.102 -3.145,0.855 v 4.635 C 0.399,-0.179 0.222,0 0,0 m 1.174,-5.706 c 0.682,0 1.323,-0.266 1.806,-0.749 0.482,-0.482 0.748,-1.124 0.748,-1.805 0,-0.683 -0.266,-1.325 -0.748,-1.807 -0.965,-0.965 -2.648,-0.965 -3.613,0 -0.482,0.482 -0.748,1.124 -0.748,1.807 0,0.681 0.266,1.323 0.748,1.805 0.483,0.483 1.125,0.749 1.807,0.749"
       style="fill:#231f20;fill-opacity:1;fill-rule:nonzero;stroke:none"
       transform="matrix(1.3333333,0,0,-1.3333333,325.36853,137.57933)" />
    <path
       id="path38"
       d="m 0,0 c -0.528,0.871 -1.255,1.616 -2.114,2.167 v 5.679 c 0,0.22 -0.179,0.399 -0.4,0.399 -0.22,0 -0.399,-0.179 -0.399,-0.399 V 1.944 c 0,-0.141 0.074,-0.272 0.196,-0.343 0.83,-0.495 1.534,-1.19 2.033,-2.015 0.552,-0.914 0.843,-1.961 0.843,-3.033 0,-1.568 -0.61,-3.042 -1.72,-4.15 -1.106,-1.109 -2.58,-1.719 -4.149,-1.719 -1.568,0 -3.042,0.61 -4.151,1.719 -1.109,1.108 -1.719,2.582 -1.719,4.15 0,1.071 0.291,2.119 0.844,3.033 0.499,0.825 1.201,1.52 2.033,2.015 0.121,0.071 0.196,0.202 0.196,0.343 v 12.335 c 0,0.744 0.291,1.446 0.82,1.976 1.061,1.057 2.891,1.06 3.953,0 0.528,-0.53 0.821,-1.231 0.821,-1.976 v -1.45 c 0,-0.22 0.179,-0.399 0.399,-0.399 0.221,0 0.4,0.179 0.4,0.399 v 1.45 c 0,0.958 -0.374,1.86 -1.056,2.542 -1.359,1.358 -3.714,1.362 -5.081,0 -0.681,-0.682 -1.056,-1.584 -1.056,-2.542 V 2.167 c -0.859,-0.551 -1.587,-1.296 -2.114,-2.169 -0.626,-1.036 -0.959,-2.23 -0.959,-3.445 0,-1.782 0.694,-3.457 1.955,-4.716 1.259,-1.259 2.934,-1.953 4.715,-1.953 1.782,0 3.457,0.694 4.715,1.953 1.259,1.261 1.954,2.936 1.954,4.716 C 0.959,-2.229 0.627,-1.038 0,0"
       style="fill:#231f20;fill-opacity:1;fill-rule:nonzero;stroke:none"
       transform="matrix(1.3333333,0,0,-1.3333333,334.54707,143.99853)" />
    <path
       id="path39"
       d="M 0,0 C 0,-0.373 0.303,-0.677 0.677,-0.677 1.05,-0.677 1.352,-0.373 1.352,0 1.352,0.373 1.05,0.677 0.677,0.677 0.303,0.677 0,0.373 0,0"
       style="fill:#231f20;fill-opacity:1;fill-rule:nonzero;stroke:none"
       transform="matrix(1.3333333,0,0,-1.3333333,330.28653,130.06373)" />
    <path
       id="path40"
       d="m 0,0 v 12.298 c 0.003,0.939 -0.361,1.823 -1.024,2.488 -0.663,0.666 -1.546,1.033 -2.485,1.035 h -0.008 c -1.938,0 -3.516,-1.578 -3.516,-3.522 L -7.033,0 c -2.983,-1.872 -3.967,-5.802 -2.186,-8.872 1.123,-1.928 3.121,-3.148 5.37,-3.263 h 0.332 c 3.628,0 6.577,2.951 6.577,6.577 C 3.06,-3.308 1.894,-1.199 0,0 M -3.517,-11.337 H -3.83 c -1.955,0.1 -3.712,1.173 -4.697,2.868 -1.601,2.755 -0.662,6.298 2.094,7.9 0.123,0.07 0.198,0.203 0.198,0.344 v 12.53 c 0,1.499 1.22,2.718 2.718,2.718 v 0.399 l 0.006,-0.399 c 0.725,-0.002 1.408,-0.286 1.921,-0.8 0.511,-0.514 0.793,-1.197 0.792,-1.924 V -0.225 c 0,-0.141 0.076,-0.273 0.197,-0.344 1.766,-1.032 2.863,-2.942 2.863,-4.989 0,-3.185 -2.591,-5.779 -5.779,-5.779"
       style="fill:#231f20;fill-opacity:1;fill-rule:nonzero;stroke:none"
       transform="matrix(1.3333333,0,0,-1.3333333,417.7852,75.251467)" />
    <path
       id="path41"
       d="m 0,0 v 16.611 c 0,0.22 -0.179,0.399 -0.399,0.399 -0.222,0 -0.399,-0.179 -0.399,-0.399 V 0 c -0.836,-0.188 -1.473,-0.9 -1.473,-1.79 0,-1.034 0.839,-1.874 1.872,-1.874 1.032,0 1.872,0.84 1.872,1.874 C 1.473,-0.901 0.834,-0.188 0,0"
       style="fill:#231f20;fill-opacity:1;fill-rule:nonzero;stroke:none"
       transform="matrix(1.3333333,0,0,-1.3333333,413.61973,80.786533)" />
    <path
       id="path42"
       d="m 0,0 c -0.422,0 -0.763,-0.341 -0.763,-0.763 0,-0.422 0.341,-0.763 0.763,-0.763 0.422,0 0.763,0.341 0.763,0.763 C 0.763,-0.341 0.422,0 0,0"
       style="fill:#231f20;fill-opacity:1;fill-rule:nonzero;stroke:none"
       transform="matrix(1.3333333,0,0,-1.3333333,421.42267,57.9928)" />
    <path
       id="path43"
       d="m 0,0 v 12.299 c 0.003,1.938 -1.57,3.519 -3.511,3.522 h -0.006 c -1.938,0 -3.516,-1.578 -3.516,-3.522 L -7.033,0 c -2.981,-1.872 -3.969,-5.802 -2.185,-8.872 1.122,-1.928 3.122,-3.148 5.367,-3.263 h 0.334 c 3.628,0 6.577,2.951 6.577,6.577 C 3.06,-3.306 1.894,-1.197 0,0 M -3.517,-11.337 H -3.83 c -1.955,0.1 -3.712,1.173 -4.699,2.868 -1.599,2.755 -0.66,6.298 2.097,7.9 0.122,0.07 0.197,0.203 0.197,0.344 v 12.53 c 0,1.499 1.22,2.718 2.718,2.718 v 0.399 l 0.006,-0.399 c 0.725,-0.002 1.407,-0.286 1.921,-0.8 0.511,-0.514 0.793,-1.197 0.792,-1.924 V -0.225 c 0,-0.141 0.074,-0.273 0.197,-0.344 1.766,-1.03 2.863,-2.942 2.863,-4.989 0,-3.185 -2.593,-5.779 -5.779,-5.779"
       style="fill:#231f20;fill-opacity:1;fill-rule:nonzero;stroke:none"
       transform="matrix(1.3333333,0,0,-1.3333333,417.854,140.32667)" />
    <path
       id="path44"
       d="m 0,0 v 3.784 c 0,0.22 -0.179,0.399 -0.399,0.399 -0.22,0 -0.399,-0.179 -0.399,-0.399 V 0 c -0.836,-0.187 -1.475,-0.9 -1.475,-1.79 0,-1.034 0.841,-1.874 1.872,-1.874 1.034,0 1.873,0.84 1.873,1.874 C 1.472,-0.901 0.835,-0.188 0,0"
       style="fill:#231f20;fill-opacity:1;fill-rule:nonzero;stroke:none"
       transform="matrix(1.3333333,0,0,-1.3333333,413.68853,145.86373)" />
    <path
       id="path45"
       d="m 0,0 c -0.422,0 -0.763,-0.341 -0.763,-0.763 0,-0.422 0.341,-0.763 0.763,-0.763 0.422,0 0.763,0.341 0.763,0.763 C 0.763,-0.341 0.422,0 0,0"
       style="fill:#231f20;fill-opacity:1;fill-rule:nonzero;stroke:none"
       transform="matrix(1.3333333,0,0,-1.3333333,421.35387,137.0676)" />
    <path
       id="path46"
       d="m 0,0 h -2.315 -22.527 -2.316 c -0.22,0 -0.399,-0.179 -0.399,-0.399 0,-0.22 0.179,-0.399 0.399,-0.399 h 1.916 v -18.077 c 0,-2.323 1.795,-4.213 4.067,-4.411 0.024,-0.004 0.039,-0.027 0.063,-0.027 0.016,0 0.025,0.015 0.038,0.017 0.096,-0.006 0.187,-0.029 0.283,-0.029 h 14.424 c 0.095,0 0.184,0.023 0.278,0.029 0.014,-0.002 0.023,-0.017 0.038,-0.017 0.024,0 0.04,0.023 0.062,0.026 2.275,0.195 4.073,2.088 4.073,4.412 V -0.798 H 0 c 0.22,0 0.399,0.179 0.399,0.399 C 0.399,-0.179 0.22,0 0,0 M -6.45,-22.527 H -20.713 V -0.8 H -6.45 Z m -17.993,3.652 v 18.077 h 2.932 v -21.656 c -1.67,0.335 -2.932,1.813 -2.932,3.579 m 21.729,0 c 0,-1.768 -1.266,-3.245 -2.938,-3.579 v 21.656 h 2.938 z"
       style="fill:#231f20;fill-opacity:1;fill-rule:nonzero;stroke:none"
       transform="matrix(1.3333333,0,0,-1.3333333,860.81573,54.395867)" />
    <path
       id="path47"
       d="M 0,0 C 0.255,0 0.463,0.208 0.463,0.464 0.463,0.719 0.255,0.927 0,0.927 -0.255,0.927 -0.463,0.719 -0.463,0.464 -0.463,0.208 -0.255,0 0,0"
       style="fill:#231f20;fill-opacity:1;fill-rule:nonzero;stroke:none"
       transform="matrix(1.3333333,0,0,-1.3333333,847.77707,69.516133)" />
    <path
       id="path48"
       d="M 0,0 C 0.255,0 0.463,0.208 0.463,0.464 0.463,0.719 0.255,0.927 0,0.927 -0.255,0.927 -0.463,0.719 -0.463,0.464 -0.463,0.208 -0.255,0 0,0"
       style="fill:#231f20;fill-opacity:1;fill-rule:nonzero;stroke:none"
       transform="matrix(1.3333333,0,0,-1.3333333,849.10013,70.483067)" />
    <path
       id="path49"
       d="M 0,0 C 0.255,0 0.463,0.208 0.463,0.464 0.463,0.719 0.255,0.927 0,0.927 -0.255,0.927 -0.463,0.719 -0.463,0.464 -0.463,0.208 -0.255,0 0,0"
       style="fill:#231f20;fill-opacity:1;fill-rule:nonzero;stroke:none"
       transform="matrix(1.3333333,0,0,-1.3333333,849.10013,72.655867)" />
    <path
       id="path50"
       d="M 0,0 C 0.255,0 0.463,0.208 0.463,0.464 0.463,0.719 0.255,0.927 0,0.927 -0.255,0.927 -0.463,0.719 -0.463,0.464 -0.463,0.208 -0.255,0 0,0"
       style="fill:#231f20;fill-opacity:1;fill-rule:nonzero;stroke:none"
       transform="matrix(1.3333333,0,0,-1.3333333,850.2816,71.4764)" />
    <path
       id="path51"
       d="M 0,0 C 0.255,0 0.463,0.208 0.463,0.464 0.463,0.719 0.255,0.927 0,0.927 -0.255,0.927 -0.463,0.719 -0.463,0.464 -0.463,0.208 -0.255,0 0,0"
       style="fill:#231f20;fill-opacity:1;fill-rule:nonzero;stroke:none"
       transform="matrix(1.3333333,0,0,-1.3333333,837.74467,69.516133)" />
    <path
       id="path52"
       d="M 0,0 C 0.255,0 0.463,0.208 0.463,0.464 0.463,0.719 0.255,0.927 0,0.927 -0.255,0.927 -0.463,0.719 -0.463,0.464 -0.463,0.208 -0.255,0 0,0"
       style="fill:#231f20;fill-opacity:1;fill-rule:nonzero;stroke:none"
       transform="matrix(1.3333333,0,0,-1.3333333,836.42387,70.483067)" />
    <path
       id="path53"
       d="M 0,0 C 0.255,0 0.463,0.208 0.463,0.464 0.463,0.719 0.255,0.927 0,0.927 -0.255,0.927 -0.463,0.719 -0.463,0.464 -0.463,0.208 -0.255,0 0,0"
       style="fill:#231f20;fill-opacity:1;fill-rule:nonzero;stroke:none"
       transform="matrix(1.3333333,0,0,-1.3333333,837.74467,73.626933)" />
    <path
       id="path54"
       d="m 0,0 c -0.255,0 -0.463,-0.208 -0.463,-0.464 0,-0.255 0.208,-0.463 0.463,-0.463 0.255,0 0.463,0.208 0.463,0.463 C 0.463,-0.208 0.255,0 0,0"
       style="fill:#231f20;fill-opacity:1;fill-rule:nonzero;stroke:none"
       transform="matrix(1.3333333,0,0,-1.3333333,836.42387,71.419867)" />
    <path
       id="path55"
       d="M 0,0 C 0.255,0 0.463,0.208 0.463,0.464 0.463,0.719 0.255,0.927 0,0.927 -0.255,0.927 -0.463,0.719 -0.463,0.464 -0.463,0.208 -0.255,0 0,0"
       style="fill:#231f20;fill-opacity:1;fill-rule:nonzero;stroke:none"
       transform="matrix(1.3333333,0,0,-1.3333333,835.24227,71.4764)" />
    <path
       id="path56"
       d="M 0,0 C 0.255,0 0.463,0.208 0.463,0.464 0.463,0.719 0.255,0.927 0,0.927 -0.255,0.927 -0.463,0.719 -0.463,0.464 -0.463,0.208 -0.255,0 0,0"
       style="fill:#231f20;fill-opacity:1;fill-rule:nonzero;stroke:none"
       transform="matrix(1.3333333,0,0,-1.3333333,847.77707,73.626933)" />
    <path
       id="path57"
       d="m 0,0 c -0.255,0 -0.463,-0.208 -0.463,-0.464 0,-0.255 0.208,-0.463 0.463,-0.463 0.255,0 0.463,0.208 0.463,0.463 C 0.463,-0.208 0.255,0 0,0"
       style="fill:#231f20;fill-opacity:1;fill-rule:nonzero;stroke:none"
       transform="matrix(1.3333333,0,0,-1.3333333,832.9744,137.46613)" />
    <path
       id="path58"
       d="m 0,0 c -0.255,0 -0.463,-0.208 -0.463,-0.464 0,-0.255 0.208,-0.463 0.463,-0.463 0.255,0 0.463,0.208 0.463,0.463 C 0.463,-0.208 0.255,0 0,0"
       style="fill:#231f20;fill-opacity:1;fill-rule:nonzero;stroke:none"
       transform="matrix(1.3333333,0,0,-1.3333333,834.29747,136.49907)" />
    <path
       id="path59"
       d="m 0,0 c -0.255,0 -0.463,-0.208 -0.463,-0.464 0,-0.255 0.208,-0.463 0.463,-0.463 0.255,0 0.463,0.208 0.463,0.463 C 0.463,-0.208 0.255,0 0,0"
       style="fill:#231f20;fill-opacity:1;fill-rule:nonzero;stroke:none"
       transform="matrix(1.3333333,0,0,-1.3333333,832.9744,133.35533)" />
    <path
       id="path60"
       d="M 0,0 C 0.255,0 0.463,0.208 0.463,0.464 0.463,0.719 0.255,0.927 0,0.927 -0.255,0.927 -0.463,0.719 -0.463,0.464 -0.463,0.208 -0.255,0 0,0"
       style="fill:#231f20;fill-opacity:1;fill-rule:nonzero;stroke:none"
       transform="matrix(1.3333333,0,0,-1.3333333,834.29747,135.5624)" />
    <path
       id="path61"
       d="m 0,0 c -0.255,0 -0.463,-0.208 -0.463,-0.464 0,-0.255 0.208,-0.463 0.463,-0.463 0.255,0 0.463,0.208 0.463,0.463 C 0.463,-0.208 0.255,0 0,0"
       style="fill:#231f20;fill-opacity:1;fill-rule:nonzero;stroke:none"
       transform="matrix(1.3333333,0,0,-1.3333333,835.47893,135.50573)" />
    <path
       id="path62"
       d="m 0,0 c -0.255,0 -0.463,-0.208 -0.463,-0.464 0,-0.255 0.208,-0.463 0.463,-0.463 0.255,0 0.463,0.208 0.463,0.463 C 0.463,-0.208 0.255,0 0,0"
       style="fill:#231f20;fill-opacity:1;fill-rule:nonzero;stroke:none"
       transform="matrix(1.3333333,0,0,-1.3333333,852.44427,137.46613)" />
    <path
       id="path63"
       d="m 0,0 c -0.255,0 -0.463,-0.208 -0.463,-0.464 0,-0.255 0.208,-0.463 0.463,-0.463 0.255,0 0.463,0.208 0.463,0.463 C 0.463,-0.208 0.255,0 0,0"
       style="fill:#231f20;fill-opacity:1;fill-rule:nonzero;stroke:none"
       transform="matrix(1.3333333,0,0,-1.3333333,851.12107,136.49907)" />
    <path
       id="path64"
       d="m 0,0 c -0.255,0 -0.463,-0.208 -0.463,-0.464 0,-0.255 0.208,-0.463 0.463,-0.463 0.255,0 0.463,0.208 0.463,0.463 C 0.463,-0.208 0.255,0 0,0"
       style="fill:#231f20;fill-opacity:1;fill-rule:nonzero;stroke:none"
       transform="matrix(1.3333333,0,0,-1.3333333,851.12107,134.32627)" />
    <path
       id="path65"
       d="m 0,0 c -0.255,0 -0.463,-0.208 -0.463,-0.464 0,-0.255 0.208,-0.463 0.463,-0.463 0.255,0 0.463,0.208 0.463,0.463 C 0.463,-0.208 0.255,0 0,0"
       style="fill:#231f20;fill-opacity:1;fill-rule:nonzero;stroke:none"
       transform="matrix(1.3333333,0,0,-1.3333333,849.93973,135.50573)" />
    <path
       id="path66"
       d="m 0,0 c -0.255,0 -0.463,-0.208 -0.463,-0.464 0,-0.255 0.208,-0.463 0.463,-0.463 0.255,0 0.463,0.208 0.463,0.463 C 0.463,-0.208 0.255,0 0,0"
       style="fill:#231f20;fill-opacity:1;fill-rule:nonzero;stroke:none"
       transform="matrix(1.3333333,0,0,-1.3333333,852.44427,133.35533)" />
    <path
       id="path67"
       d="m 0,0 h -2.315 -22.527 -2.316 c -0.22,0 -0.399,-0.179 -0.399,-0.399 0,-0.22 0.179,-0.399 0.399,-0.399 h 1.916 v -18.077 c 0,-2.323 1.795,-4.214 4.067,-4.411 0.024,-0.004 0.039,-0.027 0.063,-0.027 0.016,0 0.025,0.015 0.038,0.017 0.096,-0.006 0.187,-0.029 0.283,-0.029 h 14.424 c 0.096,0 0.184,0.023 0.278,0.029 0.014,-0.002 0.023,-0.017 0.038,-0.017 0.024,0 0.04,0.023 0.062,0.026 2.275,0.195 4.073,2.088 4.073,4.412 V -0.798 H 0 c 0.22,0 0.399,0.179 0.399,0.399 C 0.399,-0.179 0.22,0 0,0 m -12.521,-22.527 h -2.123 V -0.8 h 2.123 z m -8.99,0.073 c -1.67,0.335 -2.932,1.813 -2.932,3.579 v 18.077 h 2.782 0.15 0.799 0.207 5.064 v -21.729 h -5.271 c 0,0 -0.427,-0.023 -0.799,0.073 m 18.797,3.579 c 0,-1.763 -1.26,-3.236 -2.924,-3.575 0,-0.001 -0.002,-0.001 -0.002,-0.001 -0.001,0 -0.004,0 -0.006,-0.002 -0.001,0 -0.004,-0.001 -0.006,-0.001 -0.315,-0.082 -0.742,-0.072 -0.798,-0.07 v -0.003 h -5.271 v 21.729 h 5.075 v 0.001 h 1.156 v -0.001 h 2.776 z"
       style="fill:#231f20;fill-opacity:1;fill-rule:nonzero;stroke:none"
       transform="matrix(1.3333333,0,0,-1.3333333,860.81573,119.4712)" />
    <path
       id="path68"
       d="m 0,0 c 0.076,-0.021 0.152,-0.03 0.228,-0.03 0.148,0 0.297,0.039 0.43,0.115 C 0.859,0.2 1.001,0.388 1.059,0.602 1.08,0.675 1.091,0.754 1.091,0.835 v 11.608 c 0,0.469 -0.375,0.851 -0.839,0.867 -0.02,0.003 -0.04,10e-4 -0.059,10e-4 C 0.13,13.308 0.064,13.296 0,13.279 -2.995,12.474 -5.089,9.746 -5.092,6.643 -5.091,3.538 -2.997,0.807 0,0 m 0.212,12.498 c 0.013,0.003 0.017,0.003 0.017,0.003 L 0.211,12.904 0.281,12.443 0.211,0.781 c -2.645,0.712 -4.491,3.123 -4.493,5.862 0.003,2.737 1.85,5.143 4.494,5.855"
       style="fill:#231f20;fill-opacity:1;fill-rule:nonzero;stroke:none"
       transform="matrix(1.3333333,0,0,-1.3333333,755.33613,69.595067)" />
    <path
       id="path69"
       d="m 0,0 c -0.807,2.998 -3.538,5.09 -6.643,5.09 -3.099,0 -5.829,-2.092 -6.636,-5.09 -0.125,-0.46 0.148,-0.936 0.622,-1.065 0.074,-0.017 0.145,-0.026 0.214,-0.026 h 11.607 c 0.478,0 0.866,0.389 0.866,0.866 C 0.03,-0.144 0.02,-0.065 0,0 m -12.498,-0.212 c 0.713,2.646 3.121,4.492 5.855,4.492 2.739,0 5.148,-1.846 5.807,-4.562 z"
       style="fill:#231f20;fill-opacity:1;fill-rule:nonzero;stroke:none"
       transform="matrix(1.3333333,0,0,-1.3333333,775.84573,68.0332)" />
    <path
       id="path70"
       d="m 0,0 c -0.085,0.024 -0.17,0.032 -0.263,0.032 h -0.001 c -0.467,-0.02 -0.833,-0.399 -0.833,-0.868 v -11.606 c 0,-0.478 0.388,-0.866 0.866,-0.866 0.079,0 0.157,0.011 0.225,0.03 2.997,0.807 5.09,3.539 5.092,6.643 0,3.1 -2.094,5.828 -5.086,6.635 m -0.287,-12.442 v 11.606 c 0,0.03 0.024,0.056 0.055,0.058 l -0.017,0.406 0.032,-0.408 c 2.645,-0.713 4.493,-3.121 4.493,-5.857 -0.002,-2.737 -1.85,-5.148 -4.563,-5.805"
       style="fill:#231f20;fill-opacity:1;fill-rule:nonzero;stroke:none"
       transform="matrix(1.3333333,0,0,-1.3333333,759.70587,70.8392)" />
    <path
       id="path71"
       d="m 0,0 c -0.073,0.018 -0.15,0.03 -0.229,0.03 h -11.607 c -0.478,0 -0.867,-0.388 -0.867,-0.866 0,-0.074 0.009,-0.149 0.031,-0.226 0.805,-2.992 3.535,-5.088 6.636,-5.091 3.105,0.002 5.836,2.097 6.643,5.091 0.061,0.223 0.03,0.458 -0.085,0.658 C 0.407,-0.205 0.22,-0.061 0,0 m -6.036,-5.342 c -2.735,0.003 -5.143,1.851 -5.857,4.506 0,0.032 0.025,0.056 0.057,0.056 l 11.662,-0.07 c -0.714,-2.643 -3.123,-4.491 -5.862,-4.492"
       style="fill:#231f20;fill-opacity:1;fill-rule:nonzero;stroke:none"
       transform="matrix(1.3333333,0,0,-1.3333333,756.08667,70.9828)" />
    <path
       id="path72"
       d="m 0,0 c -0.396,0 -0.718,-0.322 -0.718,-0.718 0,-0.396 0.322,-0.716 0.718,-0.716 0.396,0 0.718,0.32 0.718,0.716 C 0.718,-0.322 0.396,0 0,0"
       style="fill:#231f20;fill-opacity:1;fill-rule:nonzero;stroke:none"
       transform="matrix(1.3333333,0,0,-1.3333333,767.97,57.2564)" />
    <path
       id="path73"
       d="M 0,0 C 0.396,0 0.718,0.322 0.718,0.718 0.718,1.114 0.396,1.435 0,1.435 -0.396,1.435 -0.718,1.114 -0.718,0.718 -0.718,0.322 -0.396,0 0,0"
       style="fill:#231f20;fill-opacity:1;fill-rule:nonzero;stroke:none"
       transform="matrix(1.3333333,0,0,-1.3333333,770.94587,56.048667)" />
    <path
       id="path74"
       d="M 0,0 C 0.396,0 0.718,0.322 0.718,0.718 0.718,1.114 0.396,1.435 0,1.435 -0.396,1.435 -0.718,1.114 -0.718,0.718 -0.718,0.322 -0.396,0 0,0"
       style="fill:#231f20;fill-opacity:1;fill-rule:nonzero;stroke:none"
       transform="matrix(1.3333333,0,0,-1.3333333,765.25307,56.048667)" />
    <path
       id="path75"
       d="m 0,0 c 0.076,-0.02 0.152,-0.03 0.225,-0.03 0.383,0 0.734,0.255 0.837,0.638 0.02,0.073 0.03,0.152 0.03,0.23 v 11.786 c 0,0.472 -0.374,0.856 -0.84,0.869 C 0.234,13.495 0.217,13.495 0.196,13.495 0.123,13.492 0.053,13.48 0,13.461 -3.035,12.645 -5.157,9.879 -5.162,6.734 -5.16,3.588 -3.039,0.819 0,0 M 0.07,12.653 C 0.141,12.615 0.215,12.595 0.294,12.624 L 0.293,0.824 c 0,-0.002 -0.085,-0.052 -0.085,-0.053 -2.69,0.727 -4.57,3.177 -4.572,5.964 0.005,2.73 1.813,5.139 4.434,5.918"
       style="fill:#231f20;fill-opacity:1;fill-rule:nonzero;stroke:none"
       transform="matrix(1.3333333,0,0,-1.3333333,755.30573,134.37693)" />
    <path
       id="path76"
       d="m 0,0 c -0.818,3.038 -3.587,5.16 -6.734,5.162 -3.144,0 -5.91,-2.123 -6.727,-5.162 -0.061,-0.223 -0.032,-0.457 0.085,-0.659 0.115,-0.2 0.302,-0.345 0.537,-0.408 0.073,-0.016 0.145,-0.025 0.215,-0.025 h 11.786 c 0.48,0 0.868,0.388 0.868,0.866 C 0.03,-0.149 0.02,-0.07 0,0 m -0.838,-0.294 h -11.786 l -0.068,0.085 c 0.725,2.691 3.176,4.573 5.958,4.573 V 4.763 4.364 c 2.788,-0.002 5.238,-1.882 5.963,-4.573 0,0 -0.067,-0.084 -0.067,-0.085"
       style="fill:#231f20;fill-opacity:1;fill-rule:nonzero;stroke:none"
       transform="matrix(1.3333333,0,0,-1.3333333,776.1148,132.81107)" />
    <path
       id="path77"
       d="M 0,0 C -0.09,0.024 -0.176,0.026 -0.266,0.03 -0.731,0.009 -1.095,-0.372 -1.095,-0.838 v -11.787 c 0,-0.478 0.388,-0.867 0.867,-0.867 0.079,0 0.155,0.009 0.225,0.031 3.039,0.816 5.162,3.585 5.162,6.732 C 5.159,-3.585 3.036,-0.819 0,0 m -0.212,-12.692 -0.085,0.067 v 11.787 c 0,0.038 0.028,0.067 0.066,0.069 l -0.015,0.4 0.037,-0.402 c 2.69,-0.725 4.57,-3.174 4.57,-5.958 -0.002,-2.786 -1.88,-5.239 -4.573,-5.963"
       style="fill:#231f20;fill-opacity:1;fill-rule:nonzero;stroke:none"
       transform="matrix(1.3333333,0,0,-1.3333333,759.73213,135.6696)" />
    <path
       id="path78"
       d="m 0,0 c -0.076,0.02 -0.153,0.032 -0.229,0.032 h -11.788 c -0.478,0 -0.868,-0.39 -0.868,-0.87 0,-0.074 0.011,-0.15 0.031,-0.226 0.817,-3.034 3.585,-5.157 6.729,-5.16 3.145,0 5.914,2.123 6.733,5.162 C 0.733,-0.601 0.457,-0.123 0,0 m -6.125,-5.424 c -2.784,0.003 -5.235,1.881 -5.96,4.586 0,0.04 0.03,0.07 0.068,0.07 l 11.802,-0.003 c 0.001,0 0.051,-0.083 0.053,-0.083 -0.726,-2.692 -3.178,-4.57 -5.963,-4.57"
       style="fill:#231f20;fill-opacity:1;fill-rule:nonzero;stroke:none"
       transform="matrix(1.3333333,0,0,-1.3333333,756.0584,135.81733)" />
    <path
       id="path79"
       d="M 0,0 C 0.402,0 0.728,0.326 0.728,0.728 0.728,1.13 0.402,1.457 0,1.457 -0.402,1.457 -0.728,1.13 -0.728,0.728 -0.728,0.326 -0.402,0 0,0"
       style="fill:#231f20;fill-opacity:1;fill-rule:nonzero;stroke:none"
       transform="matrix(1.3333333,0,0,-1.3333333,767.3652,120.8468)" />
    <path
       id="path80"
       d="m 0,0 c -3.198,0.225 -6.04,-1.872 -6.775,-4.96 -0.088,-0.297 -0.028,-0.624 0.187,-0.903 0.135,-0.144 0.309,-0.253 0.502,-0.312 0.603,-0.182 1.237,0.162 1.423,0.777 0.503,1.911 2.231,3.243 4.211,3.243 h 0.018 c 0.357,0.019 0.628,-0.033 0.93,-0.098 0.662,-0.146 1.287,-0.448 1.81,-0.873 1.862,-1.512 2.146,-4.257 0.633,-6.12 -0.824,-1.023 -2.047,-1.61 -3.359,-1.61 h -0.015 c -3.587,0 -6.507,-2.919 -6.507,-6.505 v -9.501 c 0,-0.595 0.484,-1.077 1.078,-1.077 H 4.993 c 0.595,0 1.078,0.482 1.078,1.077 V -6.744 C 6.14,-3.262 3.476,-0.299 0,0 m 5.273,-26.862 c 0,-0.155 -0.125,-0.279 -0.28,-0.279 H -5.864 c -0.154,0 -0.279,0.124 -0.279,0.279 v 9.501 c 0,3.147 2.561,5.707 5.706,5.707 h 0.018 c 1.554,0 3.004,0.693 3.979,1.905 1.79,2.204 1.453,5.454 -0.751,7.244 -0.62,0.504 -1.358,0.86 -2.141,1.032 -0.352,0.077 -0.717,0.117 -1.078,0.117 h -0.047 c -2.338,0 -4.383,-1.577 -4.973,-3.826 -0.053,-0.179 -0.245,-0.283 -0.422,-0.23 -0.059,0.018 -0.112,0.053 -0.128,0.065 -0.034,0.046 -0.045,0.105 -0.024,0.181 0.65,2.728 3.158,4.568 5.942,4.371 3.053,-0.264 5.395,-2.869 5.335,-5.942 z"
       style="fill:#231f20;fill-opacity:1;fill-rule:nonzero;stroke:none"
       transform="matrix(1.3333333,0,0,-1.3333333,672.278,116.40627)" />
    <path
       id="path81"
       d="m 0,0 c -0.76,0 -1.375,-0.616 -1.375,-1.375 0,-0.76 0.615,-1.376 1.375,-1.376 0.76,0 1.375,0.616 1.375,1.376 C 1.375,-0.616 0.76,0 0,0"
       style="fill:#231f20;fill-opacity:1;fill-rule:nonzero;stroke:none"
       transform="matrix(1.3333333,0,0,-1.3333333,671.96653,141.19053)" />
    <path
       id="path82"
       d="m 0,0 c -0.149,0.182 -0.376,0.287 -0.622,0.287 h -11.521 c -0.233,0 -0.45,-0.097 -0.607,-0.27 -0.171,-0.187 -0.241,-0.443 -0.191,-0.657 l 1.54,-9.999 c 0.118,-0.801 0.797,-1.385 1.611,-1.385 h 6.815 c 0.813,0 1.491,0.581 1.612,1.383 l 0.856,5.538 v 0.002 l 0.684,4.465 C 0.209,-0.408 0.144,-0.176 0,0 m -2.151,-10.521 c -0.063,-0.408 -0.409,-0.705 -0.824,-0.705 H -9.79 c -0.415,0 -0.761,0.297 -0.822,0.707 l -1.531,10.008 11.53,-0.008 z"
       style="fill:#231f20;fill-opacity:1;fill-rule:nonzero;stroke:none"
       transform="matrix(1.3333333,0,0,-1.3333333,688.12053,72.550667)" />
    <path
       id="path83"
       d="m 0,0 c 0,0.026 -0.023,0.041 -0.027,0.065 l -0.138,1.384 c -0.138,1.407 -1.302,2.555 -2.607,2.582 h -0.02 -1.649 v 15.237 c 0,0.455 -0.357,0.81 -0.812,0.81 -0.455,0 -0.812,-0.355 -0.812,-0.81 V 4.031 h -1.238 c -1.644,0 -2.904,-1.06 -3.063,-2.58 l -0.757,-7.534 c -0.043,-0.45 0.107,-0.907 0.413,-1.259 0.308,-0.342 0.749,-0.536 1.21,-0.536 h 8.468 c 0.461,0 0.903,0.194 1.208,0.536 0.308,0.338 0.458,0.798 0.414,1.262 l -0.607,6.041 C -0.015,-0.024 0,-0.015 0,0 m -7.303,3.232 h 1.637 c 0.222,0 0.399,0.18 0.399,0.4 l 0.026,15.636 V 3.632 c 0,-0.22 0.179,-0.4 0.399,-0.4 h 2.024 c 0.809,0 1.748,-0.748 1.858,-1.863 l 0.097,-0.97 H -9.67 l 0.097,0.968 c 0.116,1.099 1.049,1.865 2.27,1.865 m 6.887,-10.04 C -0.569,-6.978 -0.8,-7.08 -1.032,-7.08 H -9.5 c -0.233,0 -0.464,0.102 -0.613,0.267 -0.159,0.182 -0.238,0.421 -0.215,0.653 l 0.578,5.761 h 8.967 l 0.578,-5.758 c 0.023,-0.241 -0.053,-0.477 -0.211,-0.651"
       style="fill:#231f20;fill-opacity:1;fill-rule:nonzero;stroke:none"
       transform="matrix(1.3333333,0,0,-1.3333333,669.86867,78.0796)" />
    <path
       id="path84"
       d="M 0,0 C 0.361,0 0.654,0.293 0.654,0.654 0.654,1.015 0.361,1.308 0,1.308 -0.361,1.308 -0.654,1.015 -0.654,0.654 -0.654,0.293 -0.361,0 0,0"
       style="fill:#231f20;fill-opacity:1;fill-rule:nonzero;stroke:none"
       transform="matrix(1.3333333,0,0,-1.3333333,680.56853,70.707733)" />
    <path
       id="path85"
       d="M 0,0 C 0.361,0 0.654,0.293 0.654,0.654 0.654,1.015 0.361,1.308 0,1.308 -0.361,1.308 -0.654,1.015 -0.654,0.654 -0.654,0.293 -0.361,0 0,0"
       style="fill:#231f20;fill-opacity:1;fill-rule:nonzero;stroke:none"
       transform="matrix(1.3333333,0,0,-1.3333333,682.59147,67.774267)" />
    <path
       id="path86"
       d="M 0,0 C 0.361,0 0.654,0.293 0.654,0.654 0.654,1.015 0.361,1.308 0,1.308 -0.361,1.308 -0.654,1.015 -0.654,0.654 -0.654,0.293 -0.361,0 0,0"
       style="fill:#231f20;fill-opacity:1;fill-rule:nonzero;stroke:none"
       transform="matrix(1.3333333,0,0,-1.3333333,686.16827,70.887733)" />
    <path
       id="path87"
       d="m 0,0 h -2.315 -22.527 -2.316 c -0.22,0 -0.399,-0.179 -0.399,-0.399 0,-0.22 0.179,-0.399 0.399,-0.399 h 1.916 v -18.077 c 0,-2.453 1.997,-4.45 4.451,-4.45 h 14.424 c 2.454,0 4.451,1.997 4.451,4.45 V -0.798 H 0 c 0.222,0 0.399,0.179 0.399,0.399 C 0.399,-0.179 0.222,0 0,0 m -6.367,-22.527 h -14.424 c -2.014,0 -3.652,1.64 -3.652,3.652 v 15.142 h 21.729 v -15.142 c 0,-2.012 -1.639,-3.652 -3.653,-3.652 m 3.653,19.593 h -21.728 v 2.136 h 21.728 z"
       style="fill:#231f20;fill-opacity:1;fill-rule:nonzero;stroke:none"
       transform="matrix(1.3333333,0,0,-1.3333333,345.03653,202.068)" />
    <path
       id="path88"
       d="m 0,0 c -0.401,0 -0.727,-0.325 -0.727,-0.727 0,-0.4 0.326,-0.725 0.727,-0.725 0.401,0 0.727,0.325 0.727,0.725 C 0.727,-0.325 0.401,0 0,0"
       style="fill:#231f20;fill-opacity:1;fill-rule:nonzero;stroke:none"
       transform="matrix(1.3333333,0,0,-1.3333333,326.9384,208.212)" />
    <path
       id="path89"
       d="m 0,0 h -2.315 -22.527 -2.316 c -0.22,0 -0.399,-0.179 -0.399,-0.399 0,-0.22 0.179,-0.399 0.399,-0.399 h 1.916 v -18.077 c 0,-0.775 0.217,-1.493 0.568,-2.129 0.012,-0.016 0.014,-0.039 0.029,-0.054 0.766,-1.346 2.197,-2.267 3.854,-2.267 h 14.424 c 1.657,0 3.088,0.921 3.854,2.267 0.016,0.015 0.017,0.038 0.029,0.054 0.351,0.636 0.568,1.354 0.568,2.129 V -0.798 H 0 c 0.222,0 0.399,0.179 0.399,0.399 C 0.399,-0.179 0.222,0 0,0 m -2.714,-18.875 c 0,-0.534 -0.123,-1.039 -0.331,-1.498 h -21.068 c -0.208,0.459 -0.33,0.964 -0.33,1.498 v 3.127 h 21.729 z m -21.729,9.211 h 21.727 v -5.286 h -21.727 z m 21.729,0.799 h -21.728 v 5.131 h 21.728 z m -3.653,-13.662 h -14.424 c -1.14,0 -2.146,0.535 -2.815,1.356 h 20.054 c -0.669,-0.821 -1.675,-1.356 -2.815,-1.356 m 3.653,19.593 h -21.728 v 2.136 h 21.728 z"
       style="fill:#231f20;fill-opacity:1;fill-rule:nonzero;stroke:none"
       transform="matrix(1.3333333,0,0,-1.3333333,345.03653,265.12133)" />
    <path
       id="path90"
       d="M 0,0 C 0.401,0 0.727,0.325 0.727,0.727 0.727,1.127 0.401,1.452 0,1.452 -0.401,1.452 -0.727,1.127 -0.727,0.727 -0.727,0.325 -0.401,0 0,0"
       style="fill:#231f20;fill-opacity:1;fill-rule:nonzero;stroke:none"
       transform="matrix(1.3333333,0,0,-1.3333333,327.56347,291.4212)" />
    <path
       id="path91"
       d="M 0,0 C -0.598,0.833 -0.935,1.214 -1.158,1.464 -1.367,1.701 -1.454,1.798 -1.59,2.082 -2.015,2.957 -2.118,3.995 -1.9,5.166 -1.859,5.386 -2.003,5.599 -2.224,5.64 -2.438,5.681 -2.655,5.535 -2.696,5.315 -2.948,3.969 -2.821,2.761 -2.32,1.728 c 0.187,-0.384 0.334,-0.549 0.557,-0.801 0.212,-0.24 0.531,-0.599 1.104,-1.399 1.12,-1.558 1.419,-2.311 1.557,-3.086 0.058,-0.331 0.075,-0.608 0.079,-0.794 0.005,-0.22 0.185,-0.396 0.405,-0.396 h 0.009 c 0.225,0.005 0.401,0.192 0.396,0.415 C 1.78,-4.024 1.749,-3.716 1.695,-3.415 1.511,-2.379 1.067,-1.485 0,0"
       style="fill:#231f20;fill-opacity:1;fill-rule:nonzero;stroke:none"
       transform="matrix(1.3333333,0,0,-1.3333333,160.04533,227.92573)" />
    <path
       id="path92"
       d="M 0,0 C -0.756,1.055 -1.182,1.534 -1.464,1.853 -1.73,2.15 -1.851,2.285 -2.032,2.661 -2.581,3.793 -2.716,5.136 -2.434,6.65 -2.393,6.87 -2.537,7.083 -2.757,7.124 -2.977,7.163 -3.188,7.02 -3.229,6.799 -3.544,5.112 -3.387,3.599 -2.76,2.306 -2.531,1.833 -2.358,1.637 -2.07,1.314 -1.8,1.009 -1.39,0.549 -0.659,-0.472 0.608,-2.238 1.132,-3.277 1.338,-4.441 1.399,-4.779 1.434,-5.124 1.441,-5.465 1.446,-5.685 1.627,-5.861 1.847,-5.861 h 0.007 c 0.225,0.004 0.402,0.189 0.398,0.414 C 2.243,-5.065 2.205,-4.678 2.136,-4.298 1.906,-3.001 1.347,-1.877 0,0"
       style="fill:#231f20;fill-opacity:1;fill-rule:nonzero;stroke:none"
       transform="matrix(1.3333333,0,0,-1.3333333,165.37,227.158)" />
    <path
       id="path93"
       d="M 0,0 C -0.598,0.833 -0.936,1.214 -1.159,1.464 -1.367,1.699 -1.454,1.796 -1.59,2.08 -2.015,2.957 -2.12,3.995 -1.9,5.166 -1.859,5.386 -2.003,5.599 -2.223,5.64 -2.435,5.682 -2.654,5.535 -2.695,5.315 -2.947,3.971 -2.821,2.761 -2.32,1.725 -2.133,1.343 -1.988,1.177 -1.763,0.927 -1.552,0.689 -1.232,0.328 -0.659,-0.472 0.463,-2.035 0.762,-2.786 0.898,-3.558 0.957,-3.89 0.974,-4.166 0.977,-4.352 0.983,-4.572 1.164,-4.748 1.382,-4.748 h 0.009 c 0.225,0.005 0.402,0.192 0.396,0.415 C 1.781,-4.025 1.749,-3.716 1.695,-3.415 1.513,-2.384 1.068,-1.488 0,0"
       style="fill:#231f20;fill-opacity:1;fill-rule:nonzero;stroke:none"
       transform="matrix(1.3333333,0,0,-1.3333333,171.0528,226.91133)" />
    <path
       id="path94"
       d="m 0,0 c -0.064,1.678 -0.901,3.223 -2.306,4.156 l -8.25,5.502 c -0.607,0.405 -1.233,0.678 -1.866,0.813 -1.473,0.303 -2.846,0.012 -4.013,-0.762 l -8.329,-5.555 c -1.458,-0.968 -2.329,-2.593 -2.329,-4.348 v -11.539 c 0,-2.64 2.149,-4.789 4.789,-4.789 h 8.77 c 0.224,0 0.405,0.182 0.405,0.405 0,0.223 -0.181,0.406 -0.405,0.406 h -8.77 c -2.194,0 -3.978,1.784 -3.978,3.978 v 11.539 c 0,1.484 0.734,2.857 1.968,3.675 l 8.329,5.553 c 0.987,0.657 2.14,0.901 3.398,0.645 0.528,-0.113 1.06,-0.348 1.581,-0.695 l 8.254,-5.503 c 1.179,-0.783 1.884,-2.081 1.943,-3.49 -0.475,-0.176 -0.818,-0.624 -0.818,-1.159 0,-0.688 0.559,-1.244 1.246,-1.244 0.686,0 1.244,0.556 1.244,1.244 C 0.863,-0.616 0.498,-0.164 0,0"
       style="fill:#231f20;fill-opacity:1;fill-rule:nonzero;stroke:none"
       transform="matrix(1.3333333,0,0,-1.3333333,173.4056,213.66267)" />
    <path
       id="path95"
       d="m 0,0 c -0.592,0 -1.062,-0.437 -1.162,-1 -0.014,0.002 -0.023,0.014 -0.037,0.014 h -8.472 c -2.115,0 -3.837,1.722 -3.837,3.838 v 11.149 c 0,1.43 0.71,2.754 1.898,3.543 l 8.047,5.37 c 0.949,0.63 2.037,0.869 3.278,0.619 0.51,-0.108 1.024,-0.334 1.526,-0.669 l 7.975,-5.32 c 1.188,-0.789 1.897,-2.113 1.897,-3.543 0,-0.22 0.177,-0.399 0.399,-0.399 0.22,0 0.399,0.179 0.399,0.399 0,1.698 -0.842,3.27 -2.255,4.209 l -7.973,5.317 c -0.586,0.391 -1.193,0.657 -1.806,0.787 -1.47,0.295 -2.76,0.011 -3.883,-0.737 l -8.047,-5.368 c -1.411,-0.938 -2.253,-2.51 -2.253,-4.208 V 2.852 c 0,-2.556 2.08,-4.636 4.635,-4.636 h 8.472 c 0.05,0 0.085,0.036 0.129,0.053 0.198,-0.396 0.598,-0.677 1.07,-0.677 0.663,0 1.203,0.54 1.203,1.205 C 1.203,-0.54 0.663,0 0,0"
       style="fill:#231f20;fill-opacity:1;fill-rule:nonzero;stroke:none"
       transform="matrix(1.3333333,0,0,-1.3333333,156.35733,295.35187)" />
    <path
       id="path96"
       d="m 0,0 h -2.196 l 1.223,1.47 C -0.831,1.64 -0.854,1.892 -1.024,2.033 -1.191,2.174 -1.443,2.15 -1.587,1.982 L -3.235,0 h -2.49 c 0.006,0.026 0.029,0.042 0.029,0.068 v 2.859 l 1.982,1.649 c 0.17,0.143 0.192,0.393 0.051,0.563 -0.141,0.171 -0.393,0.193 -0.563,0.052 l -1.47,-1.223 v 2.195 c 0,0.22 -0.177,0.399 -0.399,0.399 -0.22,0 -0.399,-0.179 -0.399,-0.399 V 3.968 l -1.47,1.223 C -8.131,5.332 -8.384,5.31 -8.527,5.139 -8.667,4.969 -8.644,4.719 -8.474,4.576 L -6.494,2.93 V 0.068 c 0,-0.026 0.023,-0.042 0.029,-0.068 h -2.488 l -1.65,1.982 c -0.142,0.168 -0.393,0.192 -0.561,0.051 -0.17,-0.141 -0.193,-0.393 -0.052,-0.563 L -9.993,0 h -2.195 c -0.222,0 -0.399,-0.179 -0.399,-0.399 0,-0.22 0.177,-0.399 0.399,-0.399 h 2.195 l -1.223,-1.47 c -0.141,-0.17 -0.118,-0.422 0.052,-0.563 0.074,-0.062 0.164,-0.093 0.255,-0.093 0.115,0 0.227,0.049 0.306,0.144 l 1.65,1.982 h 2.459 v -2.46 L -8.476,-4.907 C -8.644,-5.05 -8.667,-5.3 -8.527,-5.47 c 0.08,-0.095 0.193,-0.144 0.308,-0.144 0.089,0 0.18,0.03 0.255,0.093 l 1.47,1.223 v -2.194 c 0,-0.22 0.179,-0.401 0.399,-0.401 0.222,0 0.399,0.181 0.399,0.401 v 2.195 l 1.472,-1.224 c 0.074,-0.063 0.164,-0.093 0.255,-0.093 0.114,0 0.227,0.049 0.306,0.144 0.141,0.17 0.119,0.42 -0.051,0.563 l -1.982,1.648 v 2.461 h 2.461 l 1.648,-1.982 c 0.08,-0.095 0.193,-0.144 0.308,-0.144 0.089,0 0.18,0.031 0.255,0.093 0.17,0.141 0.193,0.393 0.051,0.563 l -1.223,1.47 H 0 c 0.222,0 0.399,0.179 0.399,0.399 C 0.399,-0.179 0.222,0 0,0"
       style="fill:#231f20;fill-opacity:1;fill-rule:nonzero;stroke:none"
       transform="matrix(1.3333333,0,0,-1.3333333,174.02453,285.43027)" />
    <path
       id="path97"
       d="m 0,0 c -0.378,-0.199 -0.643,-0.583 -0.643,-1.039 0,-0.657 0.532,-1.19 1.188,-1.19 0.657,0 1.189,0.533 1.189,1.19 0,0.557 -0.391,1.003 -0.907,1.132 -0.317,1.238 -1.079,2.329 -2.17,3.054 l -8.283,5.524 c -0.608,0.407 -1.239,0.682 -1.872,0.817 -1.475,0.303 -2.851,0.013 -4.027,-0.765 l -8.36,-5.578 c -1.464,-0.971 -2.337,-2.6 -2.337,-4.36 v -11.583 c 0,-2.651 2.156,-4.807 4.806,-4.807 h 8.801 c 0.225,0 0.405,0.182 0.405,0.405 0,0.223 -0.18,0.405 -0.405,0.405 h -8.801 c -2.204,0 -3.995,1.792 -3.995,3.997 v 11.583 c 0,1.488 0.737,2.866 1.974,3.687 l 8.361,5.577 c 0.994,0.659 2.152,0.903 3.413,0.647 0.529,-0.113 1.063,-0.349 1.588,-0.698 L -1.79,2.472 C -0.903,1.881 -0.285,1 0,0"
       style="fill:#231f20;fill-opacity:1;fill-rule:nonzero;stroke:none"
       transform="matrix(1.3333333,0,0,-1.3333333,258.06387,211.832)" />
    <path
       id="path98"
       d="M 0,0 C -0.002,0.002 -0.003,0.002 -0.005,0.003 -0.253,0.114 -1.683,0.822 -2.12,1.039 -2.296,1.416 -2.816,2.532 -3.11,3.197 -3.337,3.705 -3.575,4.054 -3.924,4.241 -3.854,4.233 -3.792,4.2 -3.719,4.2 c 1.062,0 1.926,0.863 1.926,1.925 0,1.062 -0.864,1.926 -1.926,1.926 -1.062,0 -1.925,-0.864 -1.925,-1.926 0,-0.764 0.456,-1.414 1.104,-1.725 -0.001,0 -0.003,0.002 -0.004,0.002 h -0.742 c -0.43,0 -0.665,-0.145 -0.854,-0.261 L -8.265,2.362 C -8.524,2.215 -8.706,1.98 -8.82,1.605 l -0.432,-2.896 c -0.079,-0.595 0.226,-1.052 0.775,-1.161 0.241,-0.056 0.508,0 0.719,0.137 0.2,0.129 0.338,0.33 0.389,0.569 0.045,0.224 0.342,1.951 0.435,2.485 l 0.316,0.241 c -0.129,-0.623 -0.239,-1.168 -0.284,-1.409 -0.138,-0.71 0.15,-1.249 0.402,-1.641 -0.088,0.095 -0.209,0.154 -0.343,0.138 -0.159,-0.024 -0.29,-0.138 -0.334,-0.291 l -0.587,-2.071 c -0.214,-0.309 -1.264,-1.827 -1.579,-2.285 -0.662,-0.969 -0.236,-1.513 0.08,-1.749 0.212,-0.163 0.416,-0.223 0.604,-0.223 0.511,0 0.918,0.459 1.118,0.688 0.153,0.173 0.54,0.698 0.915,1.207 0.25,0.34 0.483,0.655 0.598,0.799 0.183,0.235 0.312,0.459 0.425,0.732 0.05,0.133 0.185,0.496 0.314,0.851 0.042,0.115 0.029,0.244 -0.037,0.35 l -0.388,0.628 c 1.274,-1.993 2.643,-4.128 2.916,-4.485 0.176,-0.229 0.574,-0.745 1.176,-0.745 0.191,0 0.402,0.053 0.633,0.181 0.252,0.141 0.423,0.36 0.497,0.631 0.098,0.358 0.019,0.795 -0.215,1.194 -0.231,0.395 -2.658,4.344 -3.162,5.165 l 0.256,1.1 v -0.001 c 0.146,-0.222 0.308,-0.31 0.554,-0.445 0.34,-0.187 2.035,-0.953 2.055,-0.96 0.673,-0.299 1.248,-0.195 1.505,0.267 0.126,0.223 0.151,0.488 0.07,0.74 C 0.481,-0.37 0.261,-0.12 0,0 m -3.719,7.24 c 0.615,0 1.115,-0.499 1.115,-1.115 0,-0.616 -0.5,-1.115 -1.115,-1.115 -0.614,0 -1.115,0.499 -1.115,1.115 0,0.616 0.501,1.115 1.115,1.115 M -6.357,-4.826 c -0.06,-0.146 -0.137,-0.31 -0.307,-0.527 -0.117,-0.147 -0.356,-0.473 -0.614,-0.822 -0.33,-0.448 -0.741,-1.005 -0.899,-1.184 -0.39,-0.441 -0.476,-0.417 -0.599,-0.325 -0.089,0.069 -0.225,0.169 0.102,0.645 0.35,0.512 1.614,2.338 1.614,2.338 0.026,0.037 0.046,0.078 0.058,0.122 l 0.355,1.252 0.529,-0.856 c -0.104,-0.282 -0.2,-0.542 -0.239,-0.643 m 6.146,3.823 c -0.023,-0.017 -0.185,-0.041 -0.464,0.08 -0.545,0.248 -1.751,0.799 -1.994,0.932 -0.221,0.121 -0.238,0.137 -0.262,0.175 -0.182,0.285 -0.536,0.789 -0.536,0.789 -0.093,0.13 -0.246,0.194 -0.41,0.165 -0.156,-0.03 -0.28,-0.15 -0.317,-0.307 l -0.5,-2.166 c -0.025,-0.105 -0.008,-0.214 0.048,-0.304 0.03,-0.048 2.992,-4.866 3.239,-5.289 0.12,-0.205 0.173,-0.429 0.134,-0.572 -0.017,-0.062 -0.05,-0.103 -0.111,-0.138 -0.223,-0.124 -0.368,-0.17 -0.772,0.352 -0.276,0.36 -1.994,3.045 -2.915,4.488 -0.341,0.533 -0.59,0.921 -0.651,1.014 -0.224,0.337 -0.479,0.717 -0.385,1.201 0.071,0.372 0.29,1.468 0.507,2.467 0.036,0.166 -0.037,0.337 -0.179,0.427 -0.067,0.042 -0.141,0.064 -0.217,0.064 -0.087,0 -0.175,-0.029 -0.248,-0.084 L -7.553,1.285 c -0.08,-0.062 -0.135,-0.152 -0.153,-0.253 0,0 -0.404,-2.357 -0.492,-2.668 -0.036,-0.024 -0.089,-0.031 -0.115,-0.024 -0.09,0.018 -0.167,0.033 -0.138,0.255 l 0.417,2.827 c 0.047,0.15 0.114,0.205 0.232,0.28 l 1.944,1.663 0.142,0.085 c 0.152,0.093 0.23,0.141 0.43,0.141 h 0.742 c 0.232,0 0.373,0 0.693,-0.723 0.36,-0.814 1.058,-2.301 1.058,-2.301 0.039,-0.081 0.104,-0.15 0.186,-0.189 0,0 1.956,-0.973 2.267,-1.114 0.05,-0.021 0.115,-0.086 0.14,-0.164 z"
       style="fill:#231f20;fill-opacity:1;fill-rule:nonzero;stroke:none"
       transform="matrix(1.3333333,0,0,-1.3333333,259.42133,224.80933)" />
    <path
       id="path99"
       d="M 0,0 -8.521,5.682 -8.6,5.735 c -0.539,0.358 -1.118,0.601 -1.73,0.748 -0.038,0.009 -0.074,0.029 -0.112,0.037 -0.003,0 -0.006,0 -0.009,0.001 -0.335,0.072 -0.68,0.106 -1.036,0.111 -0.026,0 -0.053,0.006 -0.081,0.008 -0.104,-0.002 -0.217,-0.025 -0.324,-0.031 -0.271,-0.015 -0.541,-0.032 -0.8,-0.086 -0.014,-0.003 -0.026,-0.002 -0.041,-0.005 -0.126,-0.027 -0.25,-0.085 -0.376,-0.121 -0.193,-0.059 -0.39,-0.108 -0.575,-0.187 -0.096,-0.042 -0.187,-0.104 -0.283,-0.151 -0.201,-0.102 -0.408,-0.195 -0.6,-0.324 L -14.64,5.687 -14.649,5.682 c 0,0 0,-0.001 -0.002,-0.001 L -23.167,0 c -1.501,-0.997 -2.396,-2.669 -2.396,-4.473 v -11.914 c 0,-2.714 2.21,-4.923 4.926,-4.923 h 18.106 c 2.715,0 4.925,2.209 4.925,4.923 V -4.473 C 2.394,-2.669 1.499,-0.997 0,0 m 1.595,-16.387 c 0,-2.274 -1.851,-4.125 -4.126,-4.125 h -18.106 c -2.277,0 -4.127,1.851 -4.127,4.125 v 11.914 c 0,1.537 0.762,2.96 2.038,3.808 l 8.521,5.683 h 0.002 c 0.211,0.142 0.425,0.25 0.64,0.355 0.064,0.032 0.123,0.073 0.187,0.1 0.165,0.073 0.33,0.114 0.496,0.162 0.115,0.035 0.227,0.081 0.347,0.106 0.263,0.05 0.516,0.072 0.766,0.082 0.061,0.003 0.119,0.017 0.181,0.017 0.09,0 0.171,-0.018 0.259,-0.023 0.228,-0.013 0.457,-0.029 0.694,-0.076 0.1,-0.021 0.194,-0.06 0.293,-0.089 0.185,-0.053 0.37,-0.1 0.555,-0.181 0.033,-0.015 0.064,-0.038 0.097,-0.053 0.243,-0.112 0.486,-0.24 0.724,-0.4 l 8.521,-5.683 c 1.278,-0.848 2.038,-2.271 2.038,-3.808 z"
       style="fill:#231f20;fill-opacity:1;fill-rule:nonzero;stroke:none"
       transform="matrix(1.3333333,0,0,-1.3333333,257.18387,270.89013)" />
    <path
       id="path100"
       d="m 0,0 c -0.393,0.165 -0.809,0.25 -1.238,0.25 h -0.839 c 1.026,0.22 1.798,1.132 1.798,2.225 0,1.254 -1.021,2.277 -2.278,2.277 -1.256,0 -2.277,-1.023 -2.277,-2.277 0,-1.093 0.772,-2.005 1.796,-2.225 h -0.55 C -4.018,0.25 -4.434,0.165 -4.826,0 -4.913,-0.036 -4.972,-0.106 -5.015,-0.187 -5.283,-0.478 -6.379,-1.722 -6.379,-2.769 v -3.689 c 0,-0.579 0.474,-1.053 1.053,-1.053 0.09,0 0.172,0.031 0.257,0.052 v -5.966 c 0,-0.752 0.613,-1.365 1.365,-1.365 0.619,0 1.123,0.42 1.29,0.984 0.168,-0.564 0.672,-0.984 1.29,-0.984 0.754,0 1.367,0.613 1.367,1.365 v 5.965 c 0.094,-0.028 0.186,-0.058 0.287,-0.058 0.581,0 1.053,0.473 1.053,1.054 v 3.687 c 0,1.043 -1.108,2.279 -1.392,2.58 C 0.15,-0.112 0.09,-0.038 0,0 m -4.036,2.475 c 0,0.816 0.663,1.478 1.479,1.478 0.815,0 1.48,-0.662 1.48,-1.478 0,-0.815 -0.665,-1.48 -1.48,-1.48 -0.816,0 -1.479,0.665 -1.479,1.48 m -1.29,-9.186 c -0.139,0 -0.253,0.114 -0.253,0.253 v 3.689 c 0,0.338 0.228,0.797 0.51,1.221 v -4.934 c 0,-0.108 -0.109,-0.229 -0.257,-0.229 m 4.202,-7.281 c -0.314,0 -0.568,0.253 -0.568,0.567 v 5.814 c 0,0.398 -0.324,0.719 -0.722,0.719 -0.398,0 -0.721,-0.321 -0.721,-0.719 v -5.814 c 0,-0.314 -0.255,-0.567 -0.569,-0.567 -0.314,0 -0.567,0.253 -0.567,0.567 v 6.943 5.834 c 0.22,0.067 0.449,0.099 0.683,0.099 h 2.35 c 0.234,0 0.463,-0.032 0.683,-0.099 v -12.777 c 0,-0.314 -0.255,-0.567 -0.569,-0.567 m 1.908,7.528 c 0,-0.141 -0.113,-0.256 -0.254,-0.256 -0.148,0 -0.274,0.129 -0.287,0.256 v 4.933 C 0.53,-1.945 0.784,-2.417 0.784,-2.777 Z"
       style="fill:#231f20;fill-opacity:1;fill-rule:nonzero;stroke:none"
       transform="matrix(1.3333333,0,0,-1.3333333,245.084,275.4332)" />
    <path
       id="path101"
       d="m 0,0 h -2.315 -22.527 -2.316 c -0.22,0 -0.399,-0.179 -0.399,-0.399 0,-0.22 0.179,-0.399 0.399,-0.399 h 1.917 v -18.075 c 0,-2.326 1.797,-4.219 4.073,-4.413 0.023,-0.004 0.038,-0.026 0.061,-0.026 0.015,0 0.024,0.014 0.038,0.016 0.094,-0.006 0.182,-0.028 0.278,-0.028 h 14.424 c 2.454,0 4.451,1.996 4.451,4.451 V -0.798 H 0 c 0.222,0 0.399,0.179 0.399,0.399 C 0.399,-0.179 0.222,0 0,0 m -24.443,-18.873 v 18.075 h 2.937 v -21.656 c -1.672,0.334 -2.937,1.811 -2.937,3.581 m 21.729,0 c 0,-2.014 -1.639,-3.653 -3.653,-3.653 h -14.339 v 21.728 h 17.992 z"
       style="fill:#231f20;fill-opacity:1;fill-rule:nonzero;stroke:none"
       transform="matrix(1.3333333,0,0,-1.3333333,431.4812,202.068)" />
    <path
       id="path102"
       d="M 0,0 C 0.401,0 0.727,0.325 0.727,0.727 0.727,1.127 0.401,1.452 0,1.452 -0.401,1.452 -0.727,1.127 -0.727,0.727 -0.727,0.325 -0.401,0 0,0"
       style="fill:#231f20;fill-opacity:1;fill-rule:nonzero;stroke:none"
       transform="matrix(1.3333333,0,0,-1.3333333,405.6388,218.39347)" />
    <path
       id="path103"
       d="m 0,0 h -2.315 -22.527 -2.316 c -0.22,0 -0.399,-0.179 -0.399,-0.399 0,-0.22 0.179,-0.399 0.399,-0.399 h 1.917 v -18.077 c 0,-2.453 1.996,-4.45 4.45,-4.45 h 14.424 c 0.096,0 0.184,0.023 0.278,0.029 0.014,-0.002 0.023,-0.017 0.038,-0.017 0.024,0 0.04,0.023 0.062,0.026 2.275,0.195 4.073,2.088 4.073,4.412 V -0.798 H 0 c 0.222,0 0.399,0.179 0.399,0.399 C 0.399,-0.179 0.222,0 0,0 M -24.443,-18.875 V -0.798 H -6.45 v -21.729 h -14.341 c -2.014,0 -3.652,1.64 -3.652,3.652 m 21.729,0 c 0,-1.768 -1.266,-3.245 -2.938,-3.579 v 21.656 h 2.938 z"
       style="fill:#231f20;fill-opacity:1;fill-rule:nonzero;stroke:none"
       transform="matrix(1.3333333,0,0,-1.3333333,431.4812,265.12133)" />
    <path
       id="path104"
       d="m 0,0 c -0.401,0 -0.727,-0.325 -0.727,-0.727 0,-0.4 0.326,-0.725 0.727,-0.725 0.401,0 0.727,0.325 0.727,0.725 C 0.727,-0.325 0.401,0 0,0"
       style="fill:#231f20;fill-opacity:1;fill-rule:nonzero;stroke:none"
       transform="matrix(1.3333333,0,0,-1.3333333,421.11307,279.51027)" />
    <path
       id="path105"
       d="m 0,0 h -2.315 -22.527 -2.316 c -0.22,0 -0.399,-0.179 -0.399,-0.399 0,-0.22 0.179,-0.399 0.399,-0.399 h 1.917 v -18.077 c 0,-2.453 1.996,-4.45 4.45,-4.45 h 14.424 c 2.454,0 4.451,1.997 4.451,4.45 V -0.798 H 0 c 0.22,0 0.399,0.179 0.399,0.399 C 0.399,-0.179 0.22,0 0,0 m -2.714,-18.875 c 0,-2.012 -1.639,-3.652 -3.653,-3.652 h -14.424 c -2.014,0 -3.652,1.64 -3.652,3.652 v 18.077 h 21.729 z"
       style="fill:#231f20;fill-opacity:1;fill-rule:nonzero;stroke:none"
       transform="matrix(1.3333333,0,0,-1.3333333,518.31027,265.12133)" />
    <path
       id="path106"
       d="m 0,0 c -0.401,0 -0.727,-0.325 -0.727,-0.727 0,-0.4 0.326,-0.725 0.727,-0.725 0.401,0 0.727,0.325 0.727,0.725 C 0.727,-0.325 0.401,0 0,0"
       style="fill:#231f20;fill-opacity:1;fill-rule:nonzero;stroke:none"
       transform="matrix(1.3333333,0,0,-1.3333333,500.0988,292.43667)" />
    <path
       id="path107"
       d="m 0,0 h 19.986 c 0.22,0 0.399,0.179 0.399,0.399 v 2.23 c 0,0.22 -0.179,0.4 -0.399,0.4 H 0 c -0.22,0 -0.399,-0.18 -0.399,-0.4 V 0.399 C -0.399,0.179 -0.22,0 0,0 M 0.399,2.23 H 19.587 V 0.799 H 0.399 Z"
       style="fill:#231f20;fill-opacity:1;fill-rule:nonzero;stroke:none"
       transform="matrix(1.3333333,0,0,-1.3333333,486.90853,272.0948)" />
    <path
       id="path108"
       d="m 0,0 h 19.986 c 0.22,0 0.399,0.179 0.399,0.399 v 2.232 c 0,0.22 -0.179,0.399 -0.399,0.399 L 0,3.03 c -0.22,0 -0.399,-0.179 -0.399,-0.399 V 0.399 C -0.399,0.179 -0.22,0 0,0 M 0.399,2.232 H 19.587 V 0.798 H 0.399 Z"
       style="fill:#231f20;fill-opacity:1;fill-rule:nonzero;stroke:none"
       transform="matrix(1.3333333,0,0,-1.3333333,486.90853,276.6212)" />
    <path
       id="path109"
       d="m 0,0 h 19.986 c 0.22,0 0.399,0.179 0.399,0.399 v 2.23 c 0,0.22 -0.179,0.399 -0.399,0.399 H 0 c -0.22,0 -0.399,-0.179 -0.399,-0.399 V 0.399 C -0.399,0.179 -0.22,0 0,0 M 0.399,2.23 H 19.587 V 0.799 H 0.399 Z"
       style="fill:#231f20;fill-opacity:1;fill-rule:nonzero;stroke:none"
       transform="matrix(1.3333333,0,0,-1.3333333,486.90853,281.6628)" />
    <path
       id="path110"
       d="m 0,0 h 19.986 c 0.22,0 0.399,0.179 0.399,0.399 v 2.232 c 0,0.22 -0.179,0.399 -0.399,0.399 L 0,3.03 c -0.22,0 -0.399,-0.179 -0.399,-0.399 V 0.399 C -0.399,0.179 -0.22,0 0,0 M 0.399,2.232 H 19.587 V 0.798 H 0.399 Z"
       style="fill:#231f20;fill-opacity:1;fill-rule:nonzero;stroke:none"
       transform="matrix(1.3333333,0,0,-1.3333333,486.90853,286.18933)" />
    <path
       id="path111"
       d="m 0,0 h 19.986 c 0.22,0 0.399,0.179 0.399,0.399 v 2.232 c 0,0.22 -0.179,0.399 -0.399,0.399 L 0,3.03 c -0.22,0 -0.399,-0.179 -0.399,-0.399 V 0.399 C -0.399,0.179 -0.22,0 0,0 M 0.399,2.232 H 19.587 V 0.8 H 0.399 Z"
       style="fill:#231f20;fill-opacity:1;fill-rule:nonzero;stroke:none"
       transform="matrix(1.3333333,0,0,-1.3333333,486.90853,291.2356)" />
    <path
       id="path112"
       d="m 0,0 h -2.315 -22.527 -2.316 c -0.22,0 -0.399,-0.179 -0.399,-0.399 0,-0.22 0.179,-0.399 0.399,-0.399 h 1.917 v -18.077 c 0,-2.453 1.996,-4.45 4.45,-4.45 h 14.424 c 2.454,0 4.451,1.997 4.451,4.45 V -0.798 H 0 c 0.22,0 0.399,0.179 0.399,0.399 C 0.399,-0.179 0.22,0 0,0 m -6.367,-22.527 h -14.424 c -1.245,0 -2.343,0.63 -3.003,1.582 0.068,-0.054 0.147,-0.1 0.243,-0.1 h 19.984 c 0.071,0 0.124,0.043 0.182,0.076 -0.662,-0.939 -1.748,-1.558 -2.982,-1.558 m -16.785,2.544 h 19.186 v -0.264 h -19.186 z m 20.438,1.108 c 0,-0.627 -0.175,-1.208 -0.454,-1.724 v 1.015 c 0,0.22 -0.178,0.399 -0.399,0.399 h -19.984 c -0.222,0 -0.401,-0.179 -0.401,-0.399 v -1.062 c 0,-0.041 0.034,-0.068 0.044,-0.104 -0.332,0.55 -0.535,1.188 -0.535,1.875 v 18.077 h 21.729 z"
       style="fill:#231f20;fill-opacity:1;fill-rule:nonzero;stroke:none"
       transform="matrix(1.3333333,0,0,-1.3333333,518.31027,202.068)" />
    <path
       id="path113"
       d="M 0,0 C 0.401,0 0.727,0.325 0.727,0.727 0.727,1.127 0.401,1.452 0,1.452 -0.401,1.452 -0.727,1.127 -0.727,0.727 -0.727,0.325 -0.401,0 0,0"
       style="fill:#231f20;fill-opacity:1;fill-rule:nonzero;stroke:none"
       transform="matrix(1.3333333,0,0,-1.3333333,500.0988,206.50387)" />
    <path
       id="path114"
       d="m 0,0 h 19.986 c 0.22,0 0.399,0.179 0.399,0.399 v 1.062 c 0,0.22 -0.179,0.399 -0.399,0.399 H 0 c -0.22,0 -0.399,-0.179 -0.399,-0.399 V 0.399 C -0.399,0.179 -0.22,0 0,0 M 0.399,1.062 H 19.585 V 0.798 H 0.399 Z"
       style="fill:#231f20;fill-opacity:1;fill-rule:nonzero;stroke:none"
       transform="matrix(1.3333333,0,0,-1.3333333,486.90853,209.79413)" />
    <path
       id="path115"
       d="m 0,0 h 19.986 c 0.22,0 0.399,0.179 0.399,0.399 v 1.062 c 0,0.22 -0.179,0.399 -0.399,0.399 H 0 c -0.22,0 -0.399,-0.179 -0.399,-0.399 V 0.399 C -0.399,0.179 -0.22,0 0,0 M 0.399,1.062 H 19.585 V 0.798 H 0.399 Z"
       style="fill:#231f20;fill-opacity:1;fill-rule:nonzero;stroke:none"
       transform="matrix(1.3333333,0,0,-1.3333333,486.90853,214.71973)" />
    <path
       id="path116"
       d="m 0,0 h 19.986 c 0.22,0 0.399,0.179 0.399,0.399 v 1.062 c 0,0.22 -0.179,0.399 -0.399,0.399 H 0 c -0.22,0 -0.399,-0.179 -0.399,-0.399 V 0.399 C -0.399,0.179 -0.22,0 0,0 M 0.399,1.062 H 19.585 V 0.798 H 0.399 Z"
       style="fill:#231f20;fill-opacity:1;fill-rule:nonzero;stroke:none"
       transform="matrix(1.3333333,0,0,-1.3333333,486.90853,219.78867)" />
    <path
       id="path117"
       d="m 0,0 h 19.986 c 0.22,0 0.399,0.179 0.399,0.399 v 1.062 c 0,0.22 -0.179,0.399 -0.399,0.399 H 0 c -0.22,0 -0.399,-0.179 -0.399,-0.399 V 0.399 C -0.399,0.179 -0.22,0 0,0 M 0.399,1.062 H 19.585 V 0.798 H 0.399 Z"
       style="fill:#231f20;fill-opacity:1;fill-rule:nonzero;stroke:none"
       transform="matrix(1.3333333,0,0,-1.3333333,486.90853,224.7164)" />
    <path
       id="path118"
       d="m 0,0 c -0.215,0.055 -0.431,-0.08 -0.481,-0.296 -0.052,-0.214 0.08,-0.429 0.296,-0.481 5.955,-1.42 10.114,-6.691 10.114,-12.818 0,-7.266 -5.913,-13.179 -13.181,-13.179 -7.266,0 -13.179,5.913 -13.179,13.179 0,6.127 4.159,11.398 10.115,12.818 0.213,0.052 0.347,0.267 0.295,0.481 -0.051,0.216 -0.262,0.351 -0.481,0.296 -6.316,-1.507 -10.727,-7.096 -10.727,-13.595 0,-7.708 6.27,-13.977 13.977,-13.977 7.708,0 13.979,6.269 13.979,13.977 C 10.727,-7.096 6.315,-1.507 0,0"
       style="fill:#231f20;fill-opacity:1;fill-rule:nonzero;stroke:none"
       transform="matrix(1.3333333,0,0,-1.3333333,588.31773,262.2976)" />
    <path
       id="path119"
       d="m 0,0 c 0.96,0 1.739,0.778 1.739,1.739 0,0.819 -0.578,1.473 -1.34,1.658 v 9.639 c 0,0.221 -0.179,0.401 -0.399,0.401 -0.221,0 -0.399,-0.18 -0.399,-0.401 V 3.397 C -1.161,3.212 -1.739,2.558 -1.739,1.739 -1.739,0.778 -0.96,0 0,0"
       style="fill:#231f20;fill-opacity:1;fill-rule:nonzero;stroke:none"
       transform="matrix(1.3333333,0,0,-1.3333333,583.98227,280.19813)" />
    <path
       id="path120"
       d="m 0,0 c 0,0.974 -0.79,1.765 -1.765,1.765 -0.974,0 -1.764,-0.791 -1.764,-1.765 0,-0.974 0.79,-1.765 1.764,-1.765 C -0.79,-1.765 0,-0.974 0,0"
       style="fill:#231f20;fill-opacity:1;fill-rule:nonzero;stroke:none"
       transform="matrix(1.3333333,0,0,-1.3333333,586.8288,226.87347)" />
    <path
       id="path121"
       d="m 0,0 c 0.812,0 1.47,-0.66 1.47,-1.472 v -14.065 c 0,-0.812 -0.658,-1.472 -1.47,-1.472 h -18.72 c -0.81,0 -1.47,0.66 -1.47,1.472 V 0 Z m 0,0.759 h -20.949 v -16.296 c 0,-1.232 0.998,-2.23 2.229,-2.23 H 0 c 1.232,0 2.229,0.998 2.229,2.23 V -1.472 C 2.229,-0.24 1.232,0.759 0,0.759"
       style="fill:#231f20;fill-opacity:1;fill-rule:nonzero;stroke:none"
       transform="matrix(1.3333333,0,0,-1.3333333,596.956,212.56653)" />
    <path
       id="path122"
       d="M 0,0 C 0.496,0 0.921,-0.355 1.012,-0.844 L 1.528,-3.635 C 1.631,-4.195 1.261,-4.734 0.703,-4.837 l -20.288,-3.752 -0.704,3.807 c -0.05,0.27 0.007,0.544 0.164,0.77 0.156,0.228 0.391,0.38 0.661,0.43 L -0.19,-0.018 C -0.126,-0.006 -0.062,0 0,0 m 0,0.759 c -0.108,0 -0.217,-0.009 -0.328,-0.031 l -19.274,-3.564 c -0.971,-0.18 -1.613,-1.113 -1.434,-2.085 l 0.842,-4.551 21.033,3.888 c 0.973,0.181 1.614,1.114 1.435,2.085 L 1.757,-0.706 C 1.598,0.156 0.845,0.759 0,0.759"
       style="fill:#231f20;fill-opacity:1;fill-rule:nonzero;stroke:none"
       transform="matrix(1.3333333,0,0,-1.3333333,596.12253,199.99227)" />
    <path
       id="path123"
       d="m 426.766,97.996 h 23.18 v 0.757 h -23.18 z"
       style="fill:#231f20;fill-opacity:1;fill-rule:nonzero;stroke:none"
       transform="matrix(1.3333333,0,0,-1.3333333,0,350.86933)" />
    <path
       id="path124"
       d="m 0,0 c -0.815,0 -1.478,-0.663 -1.478,-1.478 0,-0.813 0.663,-1.476 1.478,-1.476 0.815,0 1.478,0.663 1.478,1.476 C 1.478,-0.663 0.815,0 0,0"
       style="fill:#231f20;fill-opacity:1;fill-rule:nonzero;stroke:none"
       transform="matrix(1.3333333,0,0,-1.3333333,830.62987,220.2924)" />
    <path
       id="path125"
       d="m 0,0 c -0.815,0 -1.478,-0.663 -1.478,-1.478 0,-0.815 0.663,-1.478 1.478,-1.478 0.815,0 1.478,0.663 1.478,1.478 C 1.478,-0.663 0.815,0 0,0"
       style="fill:#231f20;fill-opacity:1;fill-rule:nonzero;stroke:none"
       transform="matrix(1.3333333,0,0,-1.3333333,833.96173,216.0816)" />
    <path
       id="path126"
       d="m 0,0 c -0.815,0 -1.478,-0.663 -1.478,-1.478 0,-0.815 0.663,-1.478 1.478,-1.478 0.815,0 1.478,0.663 1.478,1.478 C 1.478,-0.663 0.815,0 0,0"
       style="fill:#231f20;fill-opacity:1;fill-rule:nonzero;stroke:none"
       transform="matrix(1.3333333,0,0,-1.3333333,837.13787,211.74333)" />
    <path
       id="path127"
       d="m 0,0 c -0.815,0 -1.478,-0.663 -1.478,-1.478 0,-0.813 0.663,-1.476 1.478,-1.476 0.815,0 1.478,0.663 1.478,1.476 C 1.478,-0.663 0.815,0 0,0"
       style="fill:#231f20;fill-opacity:1;fill-rule:nonzero;stroke:none"
       transform="matrix(1.3333333,0,0,-1.3333333,850.77307,220.2924)" />
    <path
       id="path128"
       d="m 0,0 c 0,0.815 -0.663,1.478 -1.478,1.478 -0.815,0 -1.478,-0.663 -1.478,-1.478 0,-0.815 0.663,-1.478 1.478,-1.478 C -0.663,-1.478 0,-0.815 0,0"
       style="fill:#231f20;fill-opacity:1;fill-rule:nonzero;stroke:none"
       transform="matrix(1.3333333,0,0,-1.3333333,849.4136,218.05267)" />
    <path
       id="path129"
       d="m 0,0 c 0,0.815 -0.663,1.478 -1.478,1.478 -0.815,0 -1.478,-0.663 -1.478,-1.478 0,-0.815 0.663,-1.478 1.478,-1.478 C -0.663,-1.478 0,-0.815 0,0"
       style="fill:#231f20;fill-opacity:1;fill-rule:nonzero;stroke:none"
       transform="matrix(1.3333333,0,0,-1.3333333,846.23547,213.71307)" />
    <path
       id="path130"
       d="m 0,0 c -0.815,0 -1.478,-0.663 -1.478,-1.478 0,-0.815 0.663,-1.478 1.478,-1.478 0.815,0 1.478,0.663 1.478,1.478 C 1.478,-0.663 0.815,0 0,0"
       style="fill:#231f20;fill-opacity:1;fill-rule:nonzero;stroke:none"
       transform="matrix(1.3333333,0,0,-1.3333333,840.39093,207.8692)" />
    <path
       id="path131"
       d="m 0,0 c -0.815,0 -1.478,-0.663 -1.478,-1.478 0,-0.815 0.663,-1.478 1.478,-1.478 0.815,0 1.478,0.663 1.478,1.478 C 1.478,-0.663 0.815,0 0,0"
       style="fill:#231f20;fill-opacity:1;fill-rule:nonzero;stroke:none"
       transform="matrix(1.3333333,0,0,-1.3333333,850.7752,272.94507)" />
    <path
       id="path132"
       d="m 0,0 c -0.815,0 -1.478,-0.663 -1.478,-1.478 0,-0.815 0.663,-1.478 1.478,-1.478 0.815,0 1.478,0.663 1.478,1.478 C 1.478,-0.663 0.815,0 0,0"
       style="fill:#231f20;fill-opacity:1;fill-rule:nonzero;stroke:none"
       transform="matrix(1.3333333,0,0,-1.3333333,847.4432,277.15507)" />
    <path
       id="path133"
       d="m 0,0 c -0.815,0 -1.478,-0.663 -1.478,-1.478 0,-0.815 0.663,-1.478 1.478,-1.478 0.815,0 1.478,0.663 1.478,1.478 C 1.478,-0.663 0.815,0 0,0"
       style="fill:#231f20;fill-opacity:1;fill-rule:nonzero;stroke:none"
       transform="matrix(1.3333333,0,0,-1.3333333,844.26507,281.49493)" />
    <path
       id="path134"
       d="m 0,0 c 0,0.815 -0.663,1.478 -1.478,1.478 -0.815,0 -1.478,-0.663 -1.478,-1.478 0,-0.815 0.663,-1.478 1.478,-1.478 C -0.663,-1.478 0,-0.815 0,0"
       style="fill:#231f20;fill-opacity:1;fill-rule:nonzero;stroke:none"
       transform="matrix(1.3333333,0,0,-1.3333333,832.60013,274.91507)" />
    <path
       id="path135"
       d="m 0,0 c 0,0.815 -0.663,1.478 -1.478,1.478 -0.815,0 -1.476,-0.663 -1.476,-1.478 0,-0.815 0.661,-1.478 1.476,-1.478 C -0.663,-1.478 0,-0.815 0,0"
       style="fill:#231f20;fill-opacity:1;fill-rule:nonzero;stroke:none"
       transform="matrix(1.3333333,0,0,-1.3333333,835.93013,279.12613)" />
    <path
       id="path136"
       d="m 0,0 c -0.815,0 -1.478,-0.663 -1.478,-1.478 0,-0.815 0.663,-1.478 1.478,-1.478 0.815,0 1.478,0.663 1.478,1.478 C 1.478,-0.663 0.815,0 0,0"
       style="fill:#231f20;fill-opacity:1;fill-rule:nonzero;stroke:none"
       transform="matrix(1.3333333,0,0,-1.3333333,837.13787,281.49493)" />
    <path
       id="path137"
       d="m 0,0 c -0.815,0 -1.478,-0.663 -1.478,-1.478 0,-0.815 0.663,-1.476 1.478,-1.476 0.815,0 1.478,0.661 1.478,1.476 C 1.478,-0.663 0.815,0 0,0"
       style="fill:#231f20;fill-opacity:1;fill-rule:nonzero;stroke:none"
       transform="matrix(1.3333333,0,0,-1.3333333,841.012,285.3688)" />
    <path
       id="path138"
       d="m 0,0 c -0.815,0 -1.478,-0.663 -1.478,-1.478 0,-0.815 0.663,-1.476 1.478,-1.476 0.815,0 1.478,0.661 1.478,1.476 C 1.478,-0.663 0.815,0 0,0"
       style="fill:#231f20;fill-opacity:1;fill-rule:nonzero;stroke:none"
       transform="matrix(1.3333333,0,0,-1.3333333,750.71347,269.08427)" />
    <path
       id="path139"
       d="m 0,0 c -0.815,0 -1.478,-0.663 -1.478,-1.478 0,-0.815 0.663,-1.478 1.478,-1.478 0.815,0 1.478,0.663 1.478,1.478 C 1.478,-0.663 0.815,0 0,0"
       style="fill:#231f20;fill-opacity:1;fill-rule:nonzero;stroke:none"
       transform="matrix(1.3333333,0,0,-1.3333333,754.92347,272.41587)" />
    <path
       id="path140"
       d="M 0,0 C 0.815,0 1.478,0.663 1.478,1.478 1.478,2.293 0.815,2.956 0,2.956 -0.815,2.956 -1.478,2.293 -1.478,1.478 -1.478,0.663 -0.815,0 0,0"
       style="fill:#231f20;fill-opacity:1;fill-rule:nonzero;stroke:none"
       transform="matrix(1.3333333,0,0,-1.3333333,759.2628,279.53373)" />
    <path
       id="path141"
       d="m 0,0 c -0.815,0 -1.478,-0.663 -1.478,-1.478 0,-0.815 0.663,-1.478 1.478,-1.478 0.815,0 1.478,0.663 1.478,1.478 C 1.478,-0.663 0.815,0 0,0"
       style="fill:#231f20;fill-opacity:1;fill-rule:nonzero;stroke:none"
       transform="matrix(1.3333333,0,0,-1.3333333,750.71347,289.2288)" />
    <path
       id="path142"
       d="m 0,0 c -0.815,0 -1.478,-0.663 -1.478,-1.478 0,-0.815 0.663,-1.478 1.478,-1.478 0.815,0 1.478,0.663 1.478,1.478 C 1.478,-0.663 0.815,0 0,0"
       style="fill:#231f20;fill-opacity:1;fill-rule:nonzero;stroke:none"
       transform="matrix(1.3333333,0,0,-1.3333333,754.92347,285.8968)" />
    <path
       id="path143"
       d="m 0,0 c -0.815,0 -1.478,-0.663 -1.478,-1.478 0,-0.815 0.663,-1.478 1.478,-1.478 0.815,0 1.478,0.663 1.478,1.478 C 1.478,-0.663 0.815,0 0,0"
       style="fill:#231f20;fill-opacity:1;fill-rule:nonzero;stroke:none"
       transform="matrix(1.3333333,0,0,-1.3333333,759.2628,282.72027)" />
    <path
       id="path144"
       d="m 0,0 c -0.815,0 -1.478,-0.663 -1.478,-1.478 0,-0.815 0.663,-1.478 1.478,-1.478 0.815,0 1.478,0.663 1.478,1.478 C 1.478,-0.663 0.815,0 0,0"
       style="fill:#231f20;fill-opacity:1;fill-rule:nonzero;stroke:none"
       transform="matrix(1.3333333,0,0,-1.3333333,763.13693,278.84627)" />
    <path
       id="path145"
       d="m 0,0 c -0.815,0 -1.478,-0.663 -1.478,-1.478 0,-0.815 0.663,-1.478 1.478,-1.478 0.815,0 1.478,0.663 1.478,1.478 C 1.478,-0.663 0.815,0 0,0"
       style="fill:#231f20;fill-opacity:1;fill-rule:nonzero;stroke:none"
       transform="matrix(1.3333333,0,0,-1.3333333,763.13693,224.15253)" />
    <path
       id="path146"
       d="m 0,0 c -0.815,0 -1.478,-0.663 -1.478,-1.478 0,-0.815 0.663,-1.478 1.478,-1.478 0.815,0 1.478,0.663 1.478,1.478 C 1.478,-0.663 0.815,0 0,0"
       style="fill:#231f20;fill-opacity:1;fill-rule:nonzero;stroke:none"
       transform="matrix(1.3333333,0,0,-1.3333333,758.92707,220.8208)" />
    <path
       id="path147"
       d="m 0,0 c -0.815,0 -1.478,-0.663 -1.478,-1.478 0,-0.815 0.663,-1.478 1.478,-1.478 0.815,0 1.478,0.663 1.478,1.478 C 1.478,-0.663 0.815,0 0,0"
       style="fill:#231f20;fill-opacity:1;fill-rule:nonzero;stroke:none"
       transform="matrix(1.3333333,0,0,-1.3333333,754.5876,217.64413)" />
    <path
       id="path148"
       d="m 0,0 c -0.815,0 -1.478,-0.663 -1.478,-1.478 0,-0.815 0.663,-1.478 1.478,-1.478 0.815,0 1.478,0.663 1.478,1.478 C 1.478,-0.663 0.815,0 0,0"
       style="fill:#231f20;fill-opacity:1;fill-rule:nonzero;stroke:none"
       transform="matrix(1.3333333,0,0,-1.3333333,763.13693,204.008)" />
    <path
       id="path149"
       d="m 0,0 c -0.815,0 -1.478,-0.663 -1.478,-1.478 0,-0.815 0.663,-1.478 1.478,-1.478 0.815,0 1.478,0.663 1.478,1.478 C 1.478,-0.663 0.815,0 0,0"
       style="fill:#231f20;fill-opacity:1;fill-rule:nonzero;stroke:none"
       transform="matrix(1.3333333,0,0,-1.3333333,758.92707,207.33947)" />
    <path
       id="path150"
       d="m 0,0 c -0.815,0 -1.478,-0.663 -1.478,-1.478 0,-0.815 0.663,-1.478 1.478,-1.478 0.815,0 1.478,0.663 1.478,1.478 C 1.478,-0.663 0.815,0 0,0"
       style="fill:#231f20;fill-opacity:1;fill-rule:nonzero;stroke:none"
       transform="matrix(1.3333333,0,0,-1.3333333,754.5876,210.51613)" />
    <path
       id="path151"
       d="m 0,0 c -0.815,0 -1.478,-0.663 -1.478,-1.478 0,-0.813 0.663,-1.476 1.478,-1.476 0.815,0 1.478,0.663 1.478,1.476 C 1.478,-0.663 0.815,0 0,0"
       style="fill:#231f20;fill-opacity:1;fill-rule:nonzero;stroke:none"
       transform="matrix(1.3333333,0,0,-1.3333333,750.71347,214.39053)" />
    <path
       id="path152"
       d="m 0,0 c -0.772,0 -1.399,-0.628 -1.399,-1.4 0,-0.773 0.627,-1.401 1.399,-1.401 0.772,0 1.4,0.628 1.4,1.401 C 1.4,-0.628 0.772,0 0,0"
       style="fill:#231f20;fill-opacity:1;fill-rule:nonzero;stroke:none"
       transform="matrix(1.3333333,0,0,-1.3333333,679.06333,208.18133)" />
    <path
       id="path153"
       d="M 0,0 C 0.771,0 1.399,0.628 1.399,1.4 1.399,2.173 0.771,2.801 0,2.801 -0.772,2.801 -1.4,2.173 -1.4,1.4 -1.4,0.628 -0.772,0 0,0"
       style="fill:#231f20;fill-opacity:1;fill-rule:nonzero;stroke:none"
       transform="matrix(1.3333333,0,0,-1.3333333,683.18627,214.93333)" />
    <path
       id="path154"
       d="m 0,0 c -0.772,0 -1.399,-0.628 -1.399,-1.4 0,-0.773 0.627,-1.401 1.399,-1.401 0.772,0 1.4,0.628 1.4,1.401 C 1.4,-0.628 0.772,0 0,0"
       style="fill:#231f20;fill-opacity:1;fill-rule:nonzero;stroke:none"
       transform="matrix(1.3333333,0,0,-1.3333333,679.06333,220.98813)" />
    <path
       id="path155"
       d="m 0,0 c -0.772,0 -1.4,-0.628 -1.4,-1.4 0,-0.773 0.628,-1.401 1.4,-1.401 0.771,0 1.399,0.628 1.399,1.401 C 1.399,-0.628 0.771,0 0,0"
       style="fill:#231f20;fill-opacity:1;fill-rule:nonzero;stroke:none"
       transform="matrix(1.3333333,0,0,-1.3333333,683.18627,217.97027)" />
    <path
       id="path156"
       d="m 0,0 c -0.772,0 -1.4,-0.628 -1.4,-1.4 0,-0.771 0.628,-1.399 1.4,-1.399 0.772,0 1.401,0.628 1.401,1.399 C 1.401,-0.628 0.772,0 0,0"
       style="fill:#231f20;fill-opacity:1;fill-rule:nonzero;stroke:none"
       transform="matrix(1.3333333,0,0,-1.3333333,686.86613,214.29053)" />
    <path
       id="path157"
       d="m 0,0 c -0.771,0 -1.399,-0.628 -1.399,-1.4 0,-0.773 0.628,-1.401 1.399,-1.401 0.772,0 1.4,0.628 1.4,1.401 C 1.4,-0.628 0.772,0 0,0"
       style="fill:#231f20;fill-opacity:1;fill-rule:nonzero;stroke:none"
       transform="matrix(1.3333333,0,0,-1.3333333,661.09867,208.18133)" />
    <path
       id="path158"
       d="m 0,0 c -0.762,0 -1.381,-0.618 -1.381,-1.381 0,-0.761 0.619,-1.379 1.381,-1.379 0.762,0 1.381,0.618 1.381,1.379 C 1.381,-0.618 0.762,0 0,0"
       style="fill:#231f20;fill-opacity:1;fill-rule:nonzero;stroke:none"
       transform="matrix(1.3333333,0,0,-1.3333333,656.97773,211.22587)" />
    <path
       id="path159"
       d="m 0,0 c -0.771,0 -1.399,-0.628 -1.399,-1.4 0,-0.773 0.628,-1.401 1.399,-1.401 0.772,0 1.4,0.628 1.4,1.401 C 1.4,-0.628 0.772,0 0,0"
       style="fill:#231f20;fill-opacity:1;fill-rule:nonzero;stroke:none"
       transform="matrix(1.3333333,0,0,-1.3333333,661.09867,220.98813)" />
    <path
       id="path160"
       d="m 0,0 c -0.762,0 -1.381,-0.618 -1.381,-1.379 0,-0.763 0.619,-1.381 1.381,-1.381 0.762,0 1.381,0.618 1.381,1.381 C 1.381,-0.618 0.762,0 0,0"
       style="fill:#231f20;fill-opacity:1;fill-rule:nonzero;stroke:none"
       transform="matrix(1.3333333,0,0,-1.3333333,656.97773,217.99747)" />
    <path
       id="path161"
       d="m 0,0 c -0.762,0 -1.381,-0.618 -1.381,-1.381 0,-0.761 0.619,-1.379 1.381,-1.379 0.762,0 1.381,0.618 1.381,1.379 C 1.381,-0.618 0.762,0 0,0"
       style="fill:#231f20;fill-opacity:1;fill-rule:nonzero;stroke:none"
       transform="matrix(1.3333333,0,0,-1.3333333,653.29787,214.31707)" />
    <path
       id="path162"
       d="m 0,0 c -0.226,0 -0.411,-0.185 -0.411,-0.411 v -23.111 c 0,-0.227 0.185,-0.41 0.411,-0.41 0.226,0 0.411,0.183 0.411,0.41 V -0.411 C 0.411,-0.185 0.226,0 0,0"
       style="fill:#231f20;fill-opacity:1;fill-rule:nonzero;stroke:none"
       transform="matrix(1.3333333,0,0,-1.3333333,669.37293,200.09547)" />
    <path
       id="path163"
       d="m 0,0 c -0.816,0 -1.479,-0.663 -1.479,-1.479 0,-0.817 0.663,-1.48 1.479,-1.48 0.816,0 1.479,0.663 1.479,1.48 C 1.479,-0.663 0.816,0 0,0"
       style="fill:#231f20;fill-opacity:1;fill-rule:nonzero;stroke:none"
       transform="matrix(1.3333333,0,0,-1.3333333,653.42933,272.81413)" />
    <path
       id="path164"
       d="m 0,0 c -0.816,0 -1.479,-0.663 -1.479,-1.479 0,-0.817 0.663,-1.48 1.479,-1.48 0.816,0 1.479,0.663 1.479,1.48 C 1.479,-0.663 0.816,0 0,0"
       style="fill:#231f20;fill-opacity:1;fill-rule:nonzero;stroke:none"
       transform="matrix(1.3333333,0,0,-1.3333333,653.42933,286.34027)" />
    <path
       id="path165"
       d="M 0,0 C 0.816,0 1.479,0.663 1.479,1.478 1.479,2.294 0.816,2.957 0,2.957 -0.816,2.957 -1.479,2.294 -1.479,1.478 -1.479,0.663 -0.816,0 0,0"
       style="fill:#231f20;fill-opacity:1;fill-rule:nonzero;stroke:none"
       transform="matrix(1.3333333,0,0,-1.3333333,657.78293,279.9452)" />
    <path
       id="path166"
       d="m 0,0 c -0.816,0 -1.479,-0.663 -1.479,-1.479 0,-0.817 0.663,-1.48 1.479,-1.48 0.816,0 1.479,0.663 1.479,1.48 C 1.479,-0.663 0.816,0 0,0"
       style="fill:#231f20;fill-opacity:1;fill-rule:nonzero;stroke:none"
       transform="matrix(1.3333333,0,0,-1.3333333,657.78293,283.15293)" />
    <path
       id="path167"
       d="m 0,0 c -0.816,0 -1.479,-0.663 -1.479,-1.479 0,-0.817 0.663,-1.48 1.479,-1.48 0.816,0 1.479,0.663 1.479,1.48 C 1.479,-0.663 0.816,0 0,0"
       style="fill:#231f20;fill-opacity:1;fill-rule:nonzero;stroke:none"
       transform="matrix(1.3333333,0,0,-1.3333333,661.6692,279.26587)" />
    <path
       id="path168"
       d="m 0,0 c 0.815,0 1.479,0.663 1.479,1.479 0,0.817 -0.664,1.48 -1.479,1.48 -0.816,0 -1.479,-0.663 -1.479,-1.48 C -1.479,0.663 -0.816,0 0,0"
       style="fill:#231f20;fill-opacity:1;fill-rule:nonzero;stroke:none"
       transform="matrix(1.3333333,0,0,-1.3333333,686.76093,276.7592)" />
    <path
       id="path169"
       d="m 0,0 c -0.815,0 -1.478,-0.663 -1.478,-1.479 0,-0.815 0.663,-1.478 1.478,-1.478 0.816,0 1.479,0.663 1.479,1.478 C 1.479,-0.663 0.816,0 0,0"
       style="fill:#231f20;fill-opacity:1;fill-rule:nonzero;stroke:none"
       transform="matrix(1.3333333,0,0,-1.3333333,682.40747,276.00173)" />
    <path
       id="path170"
       d="m 0,0 c -0.816,0 -1.479,-0.663 -1.479,-1.479 0,-0.817 0.663,-1.48 1.479,-1.48 0.815,0 1.479,0.663 1.479,1.48 C 1.479,-0.663 0.815,0 0,0"
       style="fill:#231f20;fill-opacity:1;fill-rule:nonzero;stroke:none"
       transform="matrix(1.3333333,0,0,-1.3333333,686.76093,286.34027)" />
    <path
       id="path171"
       d="m 0,0 c -0.815,0 -1.478,-0.663 -1.478,-1.479 0,-0.817 0.663,-1.48 1.478,-1.48 0.816,0 1.479,0.663 1.479,1.48 C 1.479,-0.663 0.816,0 0,0"
       style="fill:#231f20;fill-opacity:1;fill-rule:nonzero;stroke:none"
       transform="matrix(1.3333333,0,0,-1.3333333,682.40747,283.15293)" />
    <path
       id="path172"
       d="m 0,0 c -0.816,0 -1.479,-0.663 -1.479,-1.479 0,-0.817 0.663,-1.48 1.479,-1.48 0.816,0 1.479,0.663 1.479,1.48 C 1.479,-0.663 0.816,0 0,0"
       style="fill:#231f20;fill-opacity:1;fill-rule:nonzero;stroke:none"
       transform="matrix(1.3333333,0,0,-1.3333333,678.52107,279.26587)" />
    <path
       id="path173"
       d="m 0,0 c -0.226,0 -0.411,-0.184 -0.411,-0.41 v -24.408 c 0,-0.226 0.185,-0.41 0.411,-0.41 0.226,0 0.41,0.184 0.41,0.41 V -0.41 C 0.41,-0.184 0.226,0 0,0"
       style="fill:#231f20;fill-opacity:1;fill-rule:nonzero;stroke:none"
       transform="matrix(1.3333333,0,0,-1.3333333,670.0284,264.30813)" />
    <path
       id="path174"
       d="M 0,0 V -59.572 C 0,-73.157 11.554,-84.17 25.806,-84.17 h 552.232 c 14.252,0 25.804,11.013 25.804,24.598 v 167.361 c 0,13.585 -11.552,24.597 -25.804,24.597 H 25.806 C 11.554,132.386 0,121.374 0,107.789 V 54.425"
       style="fill:none;stroke:#231f20;stroke-width:0.607;stroke-linecap:butt;stroke-linejoin:miter;stroke-miterlimit:4;stroke-dasharray:none;stroke-opacity:1"
       transform="matrix(1.3333333,0,0,-1.3333333,87.915733,207.57853)" />
  </g>
</svg>
