<?xml version="1.0" encoding="UTF-8"?>
<svg id="Layer_2" data-name="Layer 2" xmlns="http://www.w3.org/2000/svg" viewBox="0 0 83.24 62.35">
  <defs>
    <style>
      .cls-1 {
        fill: none;
        stroke: #000;
        stroke-linecap: round;
        stroke-linejoin: round;
        stroke-width: 2.5px;
      }
    </style>
  </defs>
  <g id="Layer_1-2" data-name="Layer 1">
    <path class="cls-1" d="M73.64,21.78c0,.35-.29.64-.64.64s-.64-.28-.64-.64.29-.64.64-.64.64.28.64.64ZM7.68,14.29h67.89M7.68,8.02h67.89M1.25,32.04V5.83c0-2.52,2.06-4.57,4.58-4.57h71.59c2.52,0,4.57,2.06,4.57,4.57v26.21c0,2.52-2.06,4.57-5.4,4.57h-7.68v-6.65c0-1.26-1.03-2.29-2.29-2.29H16.62c-1.26,0-2.29,1.03-2.29,2.29v6.65H5c-1.69,0-3.75-2.06-3.75-4.57ZM19.19,36.62h44.86M39.89,44.43l1.11,5.22c.22,1.05-.24,2.19-1.03,2.55-.78.36-1.22,1.5-.97,2.54l1.55,6.37M30.11,44.43l1.11,5.22c.22,1.05-.24,2.19-1.02,2.55-.79.36-1.22,1.5-.97,2.54l1.55,6.37M20.34,44.43l1.11,5.22c.22,1.05-.24,2.19-1.02,2.55-.79.36-1.22,1.5-.97,2.54l1.55,6.37M50.81,48.64l14.28,8.25M65.09,48.64l-14.28,8.25M57.95,44.52v16.49"/>
  </g>
</svg>