<?xml version="1.0" encoding="UTF-8"?>
<svg id="Layer_2" data-name="Layer 2" xmlns="http://www.w3.org/2000/svg" viewBox="0 0 91.89 68.24">
  <defs>
    <style>
      .cls-1 {
        fill: none;
        stroke: #000;
        stroke-linecap: round;
        stroke-linejoin: round;
        stroke-width: 2.5px;
      }
    </style>
  </defs>
  <g id="Layer_1-2" data-name="Layer 1">
    <g>
      <path class="cls-1" d="M46.65,47.48l11.02-2.57M1.25,31.59l11.79-3.52-3.28-10.83M55.37,52.51L5.28,23.59M9.51,59.5l2.84-11.97-11.02-2.57M29.33,37.48l-24.74,14.53M38.28,10.77l-8.95,8.45-7.74-8.25M38.28,66.48l-8.95-8.45-7.74,8.25M29.33,9.16v57.83"/>
      <path class="cls-1" d="M49.94,16.14s-.65,16.4,15.92,31.83M53.81,40.85c-7.46-.3-14.82-8.74-14.64-17.85.26-13.37,7.28-21.75,7.28-21.75,0,0,10.68,4.82,16.96,15.27,4.88,8.11,1.54,19.72-4.74,23.22"/>
      <path class="cls-1" d="M52.43,64.35c-1.33,1.61-3.33,2.64-5.58,2.64-3.99,0-7.23-3.24-7.23-7.23s3.24-7.23,7.23-7.23,7.23,3.21,7.23,7.2h-10.56M71.52,64.38c-1.33,1.59-3.32,2.6-5.56,2.6-3.99,0-7.23-3.24-7.23-7.23s3.24-7.23,7.23-7.23c2.17,0,4.12.96,5.45,2.48M83.41,52.53c3.99,0,7.23,3.24,7.23,7.23s-3.24,7.23-7.23,7.23-7.23-3.24-7.23-7.23,3.24-7.23,7.23-7.23Z"/>
    </g>
  </g>
</svg>