<?xml version="1.0" encoding="UTF-8"?>
<svg id="Layer_2" data-name="Layer 2" xmlns="http://www.w3.org/2000/svg" viewBox="0 0 73.95 61.84">
  <defs>
    <style>
      .cls-1 {
        fill: none;
        stroke: #000;
        stroke-linecap: round;
        stroke-linejoin: round;
        stroke-width: 2.5px;
      }
    </style>
  </defs>
  <g id="Layer_1-2" data-name="Layer 1">
    <path class="cls-1" d="M42.44,47.73c-9.29,0-16.82-7.53-16.82-16.82s7.53-16.82,16.82-16.82M30.66,60.29l3.21-7.71M26.27,47.33l-12.84,12.78M13.37,42.97l7.58-3.14M1.25,30.82h18.07M13.37,18.56l7.58,3.14M26.27,14.2L13.43,1.42M30.66,1.25l3.21,7.7M72.39,45.74l-20.33-11.72M72.4,16.13l-20.33,11.71M46.7,36.7c3.19,0,5.78-2.59,5.78-5.78s-2.59-5.78-5.78-5.78M46.7,60.59V1.27M47.01,47.69l8.24,8.32M61.06,39.57l3.09,11.29M61.37,39.03l11.32-2.98M61.38,22.83l11.32,2.99M61.07,22.29l3.1-11.29M47.14,14.22l8.11-8.37"/>
  </g>
</svg>