<?xml version="1.0" encoding="UTF-8"?>
<svg id="Layer_2" data-name="Layer 2" xmlns="http://www.w3.org/2000/svg" viewBox="0 0 69.5 68.64">
  <defs>
    <style>
      .cls-1 {
        fill: none;
        stroke: #000;
        stroke-linecap: round;
        stroke-linejoin: round;
        stroke-width: 2.5px;
      }
    </style>
  </defs>
  <g id="Layer_1-2" data-name="Layer 1">
    <path class="cls-1" d="M20.88,29.91v9.5M44.84,29.91v9.5M51.03,23.16H10.26c-5.21,0-6.52,9.35,0,9.35h47.02c12.11,0,11.83,18.4.66,18.4H9.96c-5.21,0-5.21,9.35,0,9.35h55.43c3.73,0,3.91,4.37,0,4.37H10.4c-12.24,0-10.87-18.3,0-18.3h46.24c6.52,0,7.45-9.31,0-9.31H10.28c-12.31,0-11.38-18.35-.44-18.35h35.36M20.88,43.87v9.5M44.84,43.87v9.5M20.88,57.89v9.5M44.84,57.89v9.5M44.84,18.42v6.6M20.88,15.96v9.5M58.34,11.8c.44,0,.8.36.8.8s-.36.8-.8.8-.8-.36-.8-.8.36-.8.8-.8ZM54.93,19.7c.44,0,.8.36.8.8s-.36.8-.8.8-.8-.36-.8-.8.36-.8.8-.8ZM61.69,22.91c.44,0,.8.36.8.8s-.36.8-.8.8-.8-.36-.8-.8.36-.8.8-.8ZM62.62,15.93c.44,0,.8.36.8.8s-.36.8-.8.8-.8-.36-.8-.8.36-.8.8-.8ZM62.62,7.83c.44,0,.8.36.8.8s-.36.8-.8.8-.8-.36-.8-.8.36-.8.8-.8ZM56.8,5.17c.44,0,.8.36.8.8s-.36.8-.8.8-.8-.36-.8-.8.36-.8.8-.8ZM51.33,9.38c.44,0,.8.36.8.8s-.36.8-.8.8-.8-.36-.8-.8.36-.8.8-.8ZM41.62,9.78c.44,0,.8.36.8.8s-.36.8-.8.8-.8-.36-.8-.8.36-.8.8-.8ZM49.53,15.6c.44,0,.8.36.8.8s-.36.8-.8.8-.8-.36-.8-.8.36-.8.8-.8ZM46.04,5.54c.44,0,.8.36.8.8s-.36.8-.8.8-.8-.36-.8-.8.36-.8.8-.8ZM36.5,5.17c.44,0,.8.36.8.8s-.36.8-.8.8-.8-.36-.8-.8.36-.8.8-.8ZM33.33,10.76c.44,0,.8.36.8.8s-.36.8-.8.8-.8-.36-.8-.8.36-.8.8-.8ZM23.7,9.77c.44,0,.8.36.8.8s-.36.8-.8.8-.8-.36-.8-.8.36-.8.8-.8ZM28.55,5.14c.44,0,.8.36.8.8s-.36.8-.8.8-.8-.36-.8-.8.36-.8.8-.8ZM18.42,4.77c.38,0,.69.31.69.69s-.31.69-.69.69-.69-.31-.69-.69.31-.69.69-.69ZM12.25,4.97c-3.08,0-6.17,0-9.25,0-2.23,0-2.42,4.47,0,4.47l11.34-.09M11.94,1.25h55.13v27.56s-8.57.19-14.53-4.47c-5.96-4.66-9.31-8.19-15.64-8.75-6.33-.56-13.68.09-17.73-2.65-4.06-2.75-7.22-3.86-7.22-11.69Z"/>
  </g>
</svg>