<?xml version="1.0" encoding="UTF-8"?>
<svg id="Layer_2" data-name="Layer 2" xmlns="http://www.w3.org/2000/svg" viewBox="0 0 81.08 62.51">
  <defs>
    <style>
      .cls-1 {
        stroke-width: 1.8px;
      }

      .cls-1, .cls-2 {
        stroke-miterlimit: 10;
      }

      .cls-1, .cls-2, .cls-3, .cls-4 {
        fill: none;
        stroke: #000;
      }

      .cls-1, .cls-3 {
        stroke-linecap: round;
      }

      .cls-2, .cls-3, .cls-4 {
        stroke-width: 2.25px;
      }

      .cls-3, .cls-4 {
        stroke-linejoin: round;
      }
    </style>
  </defs>
  <g id="Layer_1-2" data-name="Layer 1">
    <g>
      <path class="cls-1" d="M25.37,52.97c-.86,1.04-2.16,1.7-3.61,1.7-2.58,0-4.67-2.09-4.67-4.67s2.09-4.67,4.67-4.67,4.67,2.08,4.67,4.66h-6.83M37.72,52.99c-.86,1.03-2.15,1.68-3.59,1.68-2.58,0-4.67-2.09-4.67-4.67s2.09-4.67,4.67-4.67c1.41,0,2.67.62,3.52,1.6M45.4,45.32c2.58,0,4.67,2.09,4.67,4.67s-2.09,4.67-4.67,4.67-4.67-2.09-4.67-4.67,2.09-4.67,4.67-4.67Z"/>
      <path class="cls-4" d="M45.03,20.6l-9.57-8.32-24.09,21.57v27.53h48.18v-12.3"/>
      <polyline class="cls-2" points=".74 32.06 11.57 22.57 11.57 6.94 19.11 6.94 19.11 16.01 35.36 1.83 46.58 11.44"/>
      <path class="cls-3" d="M66.63,44.94c-8.25-.33-16.39-9.66-16.2-19.75.29-14.79,8.05-24.06,8.05-24.06,0,0,11.81,5.33,18.76,16.89,5.4,8.98,1.7,21.82-5.24,25.69"/>
      <path class="cls-3" d="M62.34,17.6s-.72,18.15,17.61,35.22"/>
    </g>
  </g>
</svg>