<?xml version="1.0" encoding="UTF-8"?>
<svg id="Layer_2" data-name="Layer 2" xmlns="http://www.w3.org/2000/svg" viewBox="0 0 52.8 70.57">
  <defs>
    <style>
      .cls-1 {
        stroke-miterlimit: 10;
      }

      .cls-1, .cls-2 {
        fill: none;
        stroke: #000;
        stroke-width: 2.5px;
      }

      .cls-2 {
        stroke-linecap: round;
        stroke-linejoin: round;
      }
    </style>
  </defs>
  <g id="Layer_1-2" data-name="Layer 1">
    <g>
      <path class="cls-1" d="M51.55,64.16c0,2.84-2.32,5.16-5.16,5.16"/>
      <line class="cls-1" x1="46.39" y1="69.32" x2="6.41" y2="69.32"/>
      <path class="cls-1" d="M6.41,69.32c-2.84,0-5.16-2.32-5.16-5.16"/>
      <g>
        <path class="cls-1" d="M18.42,24.18c0,2.17-1.76,3.93-3.93,3.93s-3.93-1.76-3.93-3.93,1.76-3.93,3.93-3.93,3.93,1.76,3.93,3.93Z"/>
        <line class="cls-2" x1="18.41" y1="63.05" x2="18.75" y2="49.06"/>
        <path class="cls-2" d="M18.75,49.06c1.31-.47,2.88-1.57,2.74-2.95"/>
        <line class="cls-2" x1="21.49" y1="46.11" x2="20.42" y2="35.46"/>
        <path class="cls-2" d="M20.42,35.46c-.14-1.38-1.39-2.51-2.78-2.51"/>
        <line class="cls-2" x1="17.65" y1="32.95" x2="11.34" y2="32.95"/>
        <path class="cls-2" d="M11.34,32.95c-1.39,0-2.64,1.13-2.77,2.51"/>
        <line class="cls-2" x1="8.57" y1="35.46" x2="7.49" y2="46.11"/>
        <path class="cls-2" d="M7.49,46.11c-.14,1.38,1.43,2.48,2.74,2.95"/>
        <line class="cls-2" x1="10.24" y1="49.06" x2="10.58" y2="63.05"/>
        <path class="cls-1" d="M40.52,24.24c0,2.17-1.76,3.93-3.93,3.93s-3.93-1.76-3.93-3.93,1.76-3.93,3.93-3.93,3.93,1.76,3.93,3.93Z"/>
        <polyline class="cls-2" points="39.53 63.05 40.24 51.14 45.32 51.14"/>
        <path class="cls-2" d="M45.32,51.14c-3.24-7.87-3.88-16.33-3.88-16.33-.38-1.2-1.24-1.86-2.62-1.86"/>
        <line class="cls-2" x1="38.81" y1="32.95" x2="34.37" y2="32.95"/>
        <path class="cls-2" d="M34.37,32.95c-1.39,0-2.24.65-2.62,1.86,0,0-.64,8.47-3.88,16.33"/>
        <polyline class="cls-2" points="27.86 51.14 32.94 51.14 33.65 63.05"/>
        <line class="cls-1" x1="1.25" y1="64.16" x2="1.25" y2="18.5"/>
        <path class="cls-1" d="M1.25,18.5c0-2.84,2.32-5.16,5.16-5.16"/>
        <line class="cls-1" x1="6.41" y1="13.34" x2="46.39" y2="13.34"/>
        <path class="cls-1" d="M46.39,13.34c2.84,0,5.16,2.32,5.16,5.16"/>
        <line class="cls-1" x1="51.55" y1="18.5" x2="51.55" y2="64.16"/>
        <polyline class="cls-2" points="23.73 6.93 17.28 1.25 10.81 6.93"/>
        <polyline class="cls-2" points="29.07 1.25 35.52 6.93 41.99 1.25"/>
      </g>
    </g>
  </g>
</svg>