<?xml version="1.0" encoding="UTF-8"?>
<svg id="Layer_2" data-name="Layer 2" xmlns="http://www.w3.org/2000/svg" viewBox="0 0 60.28 60.2">
  <defs>
    <style>
      .cls-1, .cls-2 {
        stroke-miterlimit: 10;
      }

      .cls-1, .cls-2, .cls-3 {
        fill: none;
        stroke: #141313;
        stroke-width: 2.5px;
      }

      .cls-1, .cls-3 {
        stroke-linecap: round;
      }

      .cls-3 {
        stroke-linejoin: round;
      }
    </style>
  </defs>
  <g id="Layer_1-2" data-name="Layer 1">
    <g>
      <path class="cls-3" d="M53.34,21.67c3.14-3.14,3.28-7.75,2.29-11.47.46-.24,1.04-.4,1.5-.7,2.5-1.67,2.43-4.84.42-6.85-2.01-2.01-5.2-1.86-6.78.5-.3.46-.53.97-.77,1.43-3.72-.98-7.74-1.43-11.82,2.65"/>
      <line class="cls-2" x1="30.98" y1="10.49" x2="34.75" y2="6.72"/>
      <path class="cls-2" d="M34.75,6.72c.78-.78,2.05-.78,2.83,0"/>
      <line class="cls-2" x1="37.57" y1="6.72" x2="53.49" y2="22.63"/>
      <path class="cls-2" d="M53.49,22.63c.78.78.78,2.05,0,2.83"/>
      <line class="cls-2" x1="53.49" y1="25.46" x2="49.76" y2="29.19"/>
      <path class="cls-2" d="M25.98,57.2c-2.33,2.33-6.15,2.34-8.49,0"/>
      <line class="cls-2" x1="17.5" y1="57.2" x2="3" y2="42.71"/>
      <path class="cls-2" d="M3,42.71c-2.33-2.33-2.33-6.15,0-8.49"/>
      <line class="cls-2" x1="3" y1="34.22" x2="21.86" y2="15.36"/>
      <path class="cls-2" d="M21.86,15.36c2.33-2.33,6.15-2.33,8.49,0"/>
      <line class="cls-2" x1="30.35" y1="15.36" x2="44.84" y2="29.85"/>
      <path class="cls-2" d="M44.84,29.85c2.33,2.33,2.33,6.15,0,8.48"/>
      <line class="cls-2" x1="44.84" y1="38.34" x2="25.98" y2="57.2"/>
      <line class="cls-1" x1="19.52" y1="19.52" x2="23.85" y2="23.85"/>
      <line class="cls-1" x1="13.29" y1="25.75" x2="17.62" y2="30.08"/>
      <line class="cls-1" x1="7.06" y1="31.98" x2="11.39" y2="36.31"/>
    </g>
  </g>
</svg>