<?xml version="1.0" encoding="UTF-8"?>
<svg id="Layer_2" data-name="Layer 2" xmlns="http://www.w3.org/2000/svg" viewBox="0 0 71.79 59.85">
  <defs>
    <style>
      .cls-1 {
        stroke-miterlimit: 22.93;
      }

      .cls-1, .cls-2, .cls-3, .cls-4 {
        fill: none;
        stroke: #141313;
        stroke-width: 2.5px;
      }

      .cls-2 {
        stroke-miterlimit: 10;
      }

      .cls-5 {
        fill: #141313;
      }

      .cls-3 {
        stroke-linecap: round;
      }

      .cls-3, .cls-4 {
        stroke-linejoin: round;
      }
    </style>
  </defs>
  <g id="Layer_1-2" data-name="Layer 1">
    <g>
      <line class="cls-2" x1="63.41" y1="38.23" x2="61.81" y2="48.72"/>
      <path class="cls-2" d="M61.81,48.72c-.84,5.44-6.02,9.88-11.52,9.88"/>
      <line class="cls-2" x1="50.29" y1="58.6" x2="21.62" y2="58.6"/>
      <path class="cls-2" d="M21.62,58.6c-5.5,0-10.7-4.45-11.55-9.88"/>
      <line class="cls-2" x1="10.07" y1="48.72" x2="8.43" y2="38.18"/>
      <path class="cls-4" d="M63.9,27.23c.24-.57.37-1.05.37-1.71,0-2.63-2.11-4.76-4.71-4.76-1.09,0-2.08.39-2.88,1.02.61-1.04.96-2.24.96-3.53,0-3.88-3.15-7.02-7.05-7.02s-7.05,3.14-7.05,7.02c0,.01,0,.02,0,.04-.68-1.74-2.35-2.97-4.32-2.97-1.82,0-3.37,1.06-4.14,2.59.03-.22.07-.44.07-.67,0-2.74-2.2-4.96-4.91-4.96-2.33,0-4.26,1.63-4.77,3.82-.3-3.1-2.89-5.52-6.04-5.52-3.36,0-6.08,2.74-6.08,6.13,0,1.17.33,2.27.9,3.2-.66-.39-1.42-.63-2.24-.63-2.47,0-4.48,2.02-4.48,4.52,0,1.25.5,2.38,1.31,3.2"/>
      <line class="cls-3" x1="61.84" y1="33.61" x2="4.21" y2="33.61"/>
      <path class="cls-3" d="M4.21,33.61c-1.63,0-2.96-1.37-2.96-3.04"/>
      <line class="cls-3" x1="1.25" y1="30.57" x2="1.25" y2="30.06"/>
      <path class="cls-3" d="M1.25,30.06c0-1.67,1.33-3.04,2.96-3.04"/>
      <line class="cls-3" x1="4.21" y1="27.02" x2="67.58" y2="27.02"/>
      <path class="cls-3" d="M67.58,27.02c1.63,0,2.96,1.37,2.96,3.04"/>
      <line class="cls-3" x1="70.54" y1="30.06" x2="70.54" y2="30.57"/>
      <path class="cls-3" d="M70.54,30.57c0,1.67-1.33,3.04-2.96,3.04"/>
      <line class="cls-3" x1="67.58" y1="33.61" x2="60.02" y2="33.61"/>
      <path class="cls-5" d="M34.61,2.03c0,.43-.35.78-.78.78s-.78-.35-.78-.78.35-.78.78-.78.78.35.78.78Z"/>
      <path class="cls-1" d="M34.61,2.03c0,.43-.35.78-.78.78s-.78-.35-.78-.78.35-.78.78-.78.78.35.78.78Z"/>
      <path class="cls-5" d="M40.81,7.55c0,.71-.57,1.28-1.28,1.28s-1.28-.57-1.28-1.28.57-1.28,1.28-1.28,1.28.57,1.28,1.28Z"/>
      <path class="cls-1" d="M40.81,7.55c0,.71-.57,1.28-1.28,1.28s-1.28-.57-1.28-1.28.57-1.28,1.28-1.28,1.28.57,1.28,1.28Z"/>
    </g>
  </g>
</svg>