<?xml version="1.0" encoding="UTF-8"?>
<svg id="Layer_2" data-name="Layer 2" xmlns="http://www.w3.org/2000/svg" viewBox="0 0 69.57 61.95">
  <defs>
    <style>
      .cls-1 {
        stroke-miterlimit: 22.93;
      }

      .cls-1, .cls-2, .cls-3, .cls-4 {
        fill: none;
        stroke: #141313;
        stroke-width: 2.5px;
      }

      .cls-2 {
        stroke-miterlimit: 10;
      }

      .cls-5 {
        fill: #141313;
      }

      .cls-3 {
        stroke-linecap: round;
      }

      .cls-3, .cls-4 {
        stroke-linejoin: round;
      }
    </style>
  </defs>
  <g id="Layer_1-2" data-name="Layer 1">
    <g>
      <path class="cls-2" d="M41.67,53.83c0,3.8-3.08,6.88-6.88,6.88s-6.88-3.08-6.88-6.88,3.08-6.88,6.88-6.88,6.88,3.08,6.88,6.88Z"/>
      <polyline class="cls-4" points="31.17 6.77 22.11 1.25 22.11 16.46 31.32 11.12"/>
      <polyline class="cls-4" points="38.44 7.04 47.46 1.54 47.46 16.75 38.16 11.37"/>
      <path class="cls-2" d="M38.66,8.84c0,2.75-1.75,5-3.9,5s-3.9-2.25-3.9-5"/>
      <line class="cls-2" x1="30.86" y1="8.84" x2="30.86" y2="8.74"/>
      <path class="cls-2" d="M30.86,8.74c0-2.75,1.75-5,3.9-5s3.9,2.25,3.9,5"/>
      <line class="cls-2" x1="38.66" y1="8.74" x2="38.66" y2="8.84"/>
      <path class="cls-3" d="M38.66,8.84c0,2.75-1.75,5-3.9,5s-3.9-2.25-3.9-5"/>
      <line class="cls-3" x1="30.86" y1="8.84" x2="30.86" y2="8.74"/>
      <path class="cls-3" d="M30.86,8.74c0-2.75,1.75-5,3.9-5s3.9,2.25,3.9,5"/>
      <line class="cls-3" x1="38.66" y1="8.74" x2="38.66" y2="8.84"/>
      <path class="cls-5" d="M27.2,33.61c0,.43-.35.78-.78.78s-.78-.35-.78-.78.35-.78.78-.78.78.35.78.78Z"/>
      <path class="cls-1" d="M27.2,33.61c0,.43-.35.78-.78.78s-.78-.35-.78-.78.35-.78.78-.78.78.35.78.78Z"/>
      <path class="cls-5" d="M43.93,33.61c0,.43-.35.78-.78.78s-.78-.35-.78-.78.35-.78.78-.78.78.35.78.78Z"/>
      <path class="cls-1" d="M43.93,33.61c0,.43-.35.78-.78.78s-.78-.35-.78-.78.35-.78.78-.78.78.35.78.78Z"/>
      <path class="cls-5" d="M34.79,46.57c-3.14,0-5.04-.52-5.57-.83.53-.31,2.42-.83,5.57-.83s5.04.52,5.57.83c-.53.31-2.42.83-5.57.83Z"/>
      <path class="cls-4" d="M34.79,46.57c-3.14,0-5.04-.52-5.57-.83.53-.31,2.42-.83,5.57-.83s5.04.52,5.57.83c-.53.31-2.42.83-5.57.83Z"/>
      <path class="cls-4" d="M17.26,13.85c-3.58,2.93-6.26,6.74-7.61,11.06l-.04.07c-.85-.64-1.83-.99-2.91-.99-3.01,0-5.44,2.88-5.44,6.42s2.44,6.42,5.44,6.42c.88,0,1.71-.25,2.45-.69h.04c1.63,7.2,6.88,13.21,13.96,16.4h23.3c7.08-3.19,12.33-9.2,13.95-16.41h.04c.74.45,1.57.7,2.45.7,3.01,0,5.44-2.88,5.44-6.42s-2.44-6.42-5.44-6.42c-1.08,0-2.06.34-2.91.99l-.04-.07c-1.36-4.32-4.03-8.14-7.61-11.06"/>
    </g>
  </g>
</svg>