<?xml version="1.0" encoding="UTF-8"?>
<svg id="Layer_2" data-name="Layer 2" xmlns="http://www.w3.org/2000/svg" viewBox="0 0 69.5 66.23">
  <defs>
    <style>
      .cls-1 {
        stroke-miterlimit: 22.93;
      }

      .cls-1, .cls-2, .cls-3, .cls-4 {
        fill: none;
        stroke: #141313;
        stroke-width: 2.5px;
      }

      .cls-2 {
        stroke-miterlimit: 10;
      }

      .cls-5 {
        fill: #141313;
      }

      .cls-3 {
        stroke-linecap: round;
      }

      .cls-3, .cls-4 {
        stroke-linejoin: round;
      }
    </style>
  </defs>
  <g id="Layer_1-2" data-name="Layer 1">
    <g>
      <path class="cls-3" d="M30.46,20.09c5.36.54,10.27-3.87,10.96-9.83.56-4.78-2.44-8.54-6.73-8.97-3.43-.34-6.6,2.03-7.04,5.84-.36,3.06,1.28,5.64,4.02,5.91,2.2.22,4.3-1.51,4.3-3.97"/>
      <path class="cls-2" d="M41.63,58.1c0,3.8-3.08,6.88-6.88,6.88s-6.88-3.08-6.88-6.88,3.08-6.88,6.88-6.88,6.88,3.08,6.88,6.88Z"/>
      <path class="cls-5" d="M27.16,37.89c0,.43-.35.78-.78.78s-.78-.35-.78-.78.35-.78.78-.78.78.35.78.78Z"/>
      <path class="cls-1" d="M27.16,37.89c0,.43-.35.78-.78.78s-.78-.35-.78-.78.35-.78.78-.78.78.35.78.78Z"/>
      <path class="cls-5" d="M43.9,37.89c0,.43-.35.78-.78.78s-.78-.35-.78-.78.35-.78.78-.78.78.35.78.78Z"/>
      <path class="cls-1" d="M43.9,37.89c0,.43-.35.78-.78.78s-.78-.35-.78-.78.35-.78.78-.78.78.35.78.78Z"/>
      <path class="cls-5" d="M34.75,50.84c-3.14,0-5.04-.52-5.57-.83.53-.31,2.42-.83,5.57-.83s5.04.52,5.57.83c-.53.31-2.42.83-5.57.83Z"/>
      <path class="cls-4" d="M34.75,50.84c-3.14,0-5.04-.52-5.57-.83.53-.31,2.42-.83,5.57-.83s5.04.52,5.57.83c-.53.31-2.42.83-5.57.83Z"/>
      <path class="cls-4" d="M23.14,56.83c-7.07-3.18-12.33-9.2-13.95-16.41h-.04c-.74.45-1.57.7-2.45.7-3.01,0-5.44-2.88-5.44-6.42s2.44-6.42,5.44-6.42c1.08,0,2.06.34,2.91.99l.04-.07c2.12-6.76,7.48-12.28,14.46-15.1h21.3c6.98,2.82,12.34,8.35,14.46,15.1l.04.07c.85-.64,1.83-.99,2.91-.99,3.01,0,5.44,2.88,5.44,6.42s-2.44,6.42-5.44,6.42c-.88,0-1.71-.25-2.45-.68h-.04c-1.63,7.2-6.88,13.21-13.95,16.39"/>
    </g>
  </g>
</svg>