<?xml version="1.0" encoding="UTF-8"?>
<svg id="Layer_2" data-name="Layer 2" xmlns="http://www.w3.org/2000/svg" viewBox="0 0 43.17 66.78">
  <defs>
    <style>
      .cls-1, .cls-2, .cls-3, .cls-4 {
        fill: none;
        stroke: #141313;
        stroke-width: 2.5px;
      }

      .cls-1, .cls-3 {
        stroke-miterlimit: 10;
      }

      .cls-1, .cls-4 {
        stroke-linecap: round;
      }

      .cls-2 {
        stroke-miterlimit: 22.93;
      }

      .cls-5 {
        fill: #141313;
      }

      .cls-4 {
        stroke-linejoin: round;
      }
    </style>
  </defs>
  <g id="Layer_1-2" data-name="Layer 1">
    <g>
      <path class="cls-3" d="M41.92,50.53c0,8.25-6.75,15-15,15"/>
      <line class="cls-3" x1="26.92" y1="65.53" x2="16.25" y2="65.53"/>
      <path class="cls-3" d="M16.25,65.53c-8.25,0-15-6.75-15-15"/>
      <line class="cls-3" x1="1.25" y1="50.53" x2="1.25" y2="16.25"/>
      <path class="cls-3" d="M1.25,16.25C1.25,8,8,1.25,16.25,1.25"/>
      <line class="cls-3" x1="16.25" y1="1.25" x2="26.92" y2="1.25"/>
      <path class="cls-3" d="M26.92,1.25c8.25,0,15,6.75,15,15"/>
      <line class="cls-3" x1="41.92" y1="16.25" x2="41.92" y2="50.53"/>
      <line class="cls-1" x1="1.32" y1="28.72" x2="31.23" y2="53.56"/>
      <line class="cls-3" x1="21.07" y1="45.09" x2="41.88" y2="29.07"/>
      <line class="cls-3" x1="12.86" y1="29.3" x2="7.82" y2="34.01"/>
      <line class="cls-3" x1="29.93" y1="29.43" x2="35.16" y2="34.3"/>
      <path class="cls-4" d="M24.53,7.39c4.46,1.08,8.03,4.48,9.3,8.84"/>
      <line class="cls-4" x1="33.83" y1="16.23" x2="33.8" y2="16.17"/>
      <path class="cls-4" d="M33.8,16.17c1.41-.05,2.61,1.27,2.68,2.97.07,1.7-1.03,3.12-2.44,3.17"/>
      <line class="cls-4" x1="34.04" y1="22.32" x2="34.05" y2="22.29"/>
      <path class="cls-4" d="M34.05,22.29c-1.14,5.89-6.33,10.31-12.56,10.31s-11.44-4.47-12.57-10.39"/>
      <line class="cls-4" x1="8.92" y1="22.22" x2="8.92" y2="22.26"/>
      <path class="cls-4" d="M8.92,22.26c-1.38-.09-2.45-1.44-2.38-3.11.07-1.7,1.27-3.03,2.68-2.97"/>
      <line class="cls-4" x1="9.22" y1="16.17" x2="9.23" y2="16.18"/>
      <path class="cls-4" d="M9.23,16.18c1.38-4.8,5.49-8.38,10.55-9.04"/>
      <line class="cls-4" x1="19.78" y1="7.14" x2="19.78" y2="7.16"/>
      <path class="cls-4" d="M19.78,7.16s0,3.66,2.84,4.91"/>
      <path class="cls-5" d="M17.17,18.01c0,.43-.35.78-.78.78s-.78-.35-.78-.78.35-.78.78-.78.78.35.78.78Z"/>
      <path class="cls-2" d="M17.17,18.01c0,.43-.35.78-.78.78s-.78-.35-.78-.78.35-.78.78-.78.78.35.78.78Z"/>
      <path class="cls-5" d="M27.39,18.01c0,.43-.35.78-.78.78s-.78-.35-.78-.78.35-.78.78-.78.78.35.78.78Z"/>
      <path class="cls-2" d="M27.39,18.01c0,.43-.35.78-.78.78s-.78-.35-.78-.78.35-.78.78-.78.78.35.78.78Z"/>
      <path class="cls-1" d="M18.37,25.32s2.69,1.7,6.23,0"/>
    </g>
  </g>
</svg>