<?xml version="1.0" encoding="UTF-8"?>
<svg id="Layer_2" data-name="Layer 2" xmlns="http://www.w3.org/2000/svg" viewBox="0 0 59.33 60.76">
  <defs>
    <style>
      .cls-1 {
        stroke-linecap: round;
      }

      .cls-1, .cls-2, .cls-3, .cls-4 {
        fill: none;
        stroke: #141313;
        stroke-width: 2.5px;
      }

      .cls-1, .cls-3 {
        stroke-miterlimit: 10;
      }

      .cls-2 {
        stroke-miterlimit: 22.93;
      }

      .cls-5 {
        fill: #141313;
      }

      .cls-4 {
        stroke-linejoin: round;
      }
    </style>
  </defs>
  <g id="Layer_1-2" data-name="Layer 1">
    <g>
      <line class="cls-3" x1="43.12" y1="59.51" x2="16.25" y2="59.51"/>
      <g>
        <line class="cls-3" x1="49.12" y1="23.46" x2="49.12" y2="53.51"/>
        <path class="cls-3" d="M49.12,53.51c0,3.3-2.7,6-6,6"/>
        <path class="cls-3" d="M16.25,59.51c-3.3,0-6-2.7-6-6"/>
        <line class="cls-3" x1="10.25" y1="53.51" x2="10.25" y2="23.46"/>
        <line class="cls-3" x1="10.27" y1="49.19" x2="5.25" y2="49.19"/>
        <path class="cls-3" d="M5.25,49.19c-2.2,0-4-1.8-4-4"/>
        <line class="cls-3" x1="1.25" y1="45.19" x2="1.25" y2="33.71"/>
        <path class="cls-3" d="M1.25,33.71c0-2.2,1.8-4,4-4"/>
        <line class="cls-3" x1="5.25" y1="29.71" x2="10.27" y2="29.71"/>
        <line class="cls-3" x1="49.07" y1="49.19" x2="54.08" y2="49.19"/>
        <path class="cls-3" d="M54.08,49.19c2.2,0,4-1.8,4-4"/>
        <line class="cls-3" x1="58.08" y1="45.19" x2="58.08" y2="33.71"/>
        <path class="cls-3" d="M58.08,33.71c0-2.2-1.8-4-4-4"/>
        <line class="cls-3" x1="54.08" y1="29.71" x2="49.07" y2="29.71"/>
        <path class="cls-1" d="M26.46,34.67c-.55-.7-.87-1.58-.87-2.53,0-2.27,1.84-4.11,4.11-4.11s4.11,1.84,4.11,4.11c0,.92-.3,1.76-.81,2.45"/>
        <path class="cls-1" d="M24.38,41.11c-.39.12-.8.19-1.22.19-2.27,0-4.11-1.84-4.11-4.11s1.84-4.1,4.11-4.1c1.33,0,2.51.63,3.26,1.61"/>
        <path class="cls-1" d="M33.05,34.61c.75-.93,1.9-1.52,3.19-1.52,2.27,0,4.11,1.84,4.11,4.1s-1.84,4.11-4.11,4.11c-.28,0-.56-.03-.83-.08"/>
        <path class="cls-1" d="M29.66,45.06c0,2.27-1.84,4.11-4.11,4.11s-4.11-1.84-4.11-4.11c0-1.84,1.21-3.4,2.89-3.92"/>
        <path class="cls-1" d="M35.4,41.25c1.47.62,2.51,2.08,2.51,3.78,0,2.27-1.84,4.11-4.11,4.11s-4.11-1.84-4.11-4.11"/>
        <polyline class="cls-3" points="10.2 13.77 10.2 18.83 49.13 18.83 49.13 13.1"/>
        <polyline class="cls-4" points="10.2 12.21 10.2 18.83 49.13 18.83 49.13 12.21"/>
        <path class="cls-4" d="M49.13,12.21c0-1.75-1.4-3.17-3.11-3.17h-5.27c-7,0-6.93-7.79-6.93-7.79h-8.31s.07,7.79-6.93,7.79h-1.4s-3.87,0-3.87,0c-1.71,0-3.11,1.43-3.11,3.17"/>
        <path class="cls-5" d="M30.48,39.16c0,.43-.35.78-.78.78s-.78-.35-.78-.78.35-.78.78-.78.78.35.78.78Z"/>
        <path class="cls-2" d="M30.48,39.16c0,.43-.35.78-.78.78s-.78-.35-.78-.78.35-.78.78-.78.78.35.78.78Z"/>
      </g>
    </g>
  </g>
</svg>