<?xml version="1.0" encoding="UTF-8"?>
<svg id="Layer_2" data-name="Layer 2" xmlns="http://www.w3.org/2000/svg" viewBox="0 0 63.09 53.69">
  <defs>
    <style>
      .cls-1 {
        stroke-linecap: round;
      }

      .cls-1, .cls-2, .cls-3 {
        fill: none;
        stroke: #141313;
        stroke-width: 2.5px;
      }

      .cls-1, .cls-3 {
        stroke-miterlimit: 10;
      }

      .cls-2 {
        stroke-miterlimit: 22.93;
      }

      .cls-4 {
        fill: #141313;
      }
    </style>
  </defs>
  <g id="Layer_1-2" data-name="Layer 1">
    <g>
      <line class="cls-3" x1="2.74" y1="17.93" x2="60.36" y2="17.93"/>
      <line class="cls-3" x1="2.74" y1="38.2" x2="60.36" y2="38.2"/>
      <line class="cls-3" x1="21.94" y1="17.99" x2="21.94" y2="38.22"/>
      <line class="cls-3" x1="31.55" y1="17.99" x2="31.55" y2="38.22"/>
      <line class="cls-3" x1="41.15" y1="17.99" x2="41.15" y2="38.22"/>
      <line class="cls-3" x1="50.75" y1="17.99" x2="50.75" y2="38.22"/>
      <line class="cls-3" x1="12.34" y1="17.99" x2="12.34" y2="38.22"/>
      <line class="cls-3" x1="2.74" y1="46.29" x2="60.36" y2="46.29"/>
      <line class="cls-3" x1="60.37" y1="31.27" x2="60.37" y2="8.09"/>
      <line class="cls-1" x1="60.37" y1="52.44" x2="60.37" y2="12.08"/>
      <path class="cls-4" d="M61.84,2.72c0,.81-.66,1.47-1.47,1.47s-1.47-.66-1.47-1.47.66-1.47,1.47-1.47,1.47.66,1.47,1.47Z"/>
      <path class="cls-2" d="M61.84,2.72c0,.81-.66,1.47-1.47,1.47s-1.47-.66-1.47-1.47.66-1.47,1.47-1.47,1.47.66,1.47,1.47Z"/>
      <line class="cls-3" x1="2.72" y1="31.27" x2="2.72" y2="8.09"/>
      <line class="cls-1" x1="2.72" y1="52.44" x2="2.72" y2="12.08"/>
      <path class="cls-4" d="M4.19,2.72c0,.81-.66,1.47-1.47,1.47s-1.47-.66-1.47-1.47.66-1.47,1.47-1.47,1.47.66,1.47,1.47Z"/>
      <path class="cls-2" d="M4.19,2.72c0,.81-.66,1.47-1.47,1.47s-1.47-.66-1.47-1.47.66-1.47,1.47-1.47,1.47.66,1.47,1.47Z"/>
    </g>
  </g>
</svg>