<?xml version="1.0" encoding="UTF-8"?>
<svg id="Layer_2" data-name="Layer 2" xmlns="http://www.w3.org/2000/svg" viewBox="0 0 70.04 60.54">
  <defs>
    <style>
      .cls-1 {
        stroke-miterlimit: 22.93;
      }

      .cls-1, .cls-2, .cls-3, .cls-4 {
        fill: none;
        stroke: #141313;
        stroke-width: 2.5px;
      }

      .cls-2 {
        stroke-miterlimit: 10;
      }

      .cls-5 {
        fill: #141313;
      }

      .cls-3 {
        stroke-linecap: round;
      }

      .cls-3, .cls-4 {
        stroke-linejoin: round;
      }
    </style>
  </defs>
  <g id="Layer_1-2" data-name="Layer 1">
    <g>
      <path class="cls-5" d="M67.45,18.36c-.22,0-1.07-.44-2.26-1.36,1.29-.89,2.1-1.24,2.34-1.24.71.02,1.28.62,1.26,1.33-.02.71-.59,1.27-1.3,1.27h-.04Z"/>
      <path class="cls-1" d="M67.45,18.36c-.22,0-1.07-.44-2.26-1.36,1.29-.89,2.1-1.24,2.34-1.24.71.02,1.28.62,1.26,1.33-.02.71-.59,1.27-1.3,1.27h-.04Z"/>
      <path class="cls-5" d="M59.53,11.2c-.17.14-1.09.37-2.59.47.38-1.52.76-2.32.93-2.47.54-.45,1.37-.38,1.83.17.46.55.4,1.34-.13,1.81l-.03.03Z"/>
      <path class="cls-1" d="M59.53,11.2c-.17.14-1.09.37-2.59.47.38-1.52.76-2.32.93-2.47.54-.45,1.37-.38,1.83.17.46.55.4,1.34-.13,1.81l-.03.03Z"/>
      <path class="cls-5" d="M2.59,18.36c.22,0,1.07-.44,2.26-1.36-1.29-.89-2.1-1.24-2.34-1.24-.71.02-1.28.62-1.26,1.33.02.71.59,1.27,1.29,1.27h.04Z"/>
      <path class="cls-1" d="M2.59,18.36c.22,0,1.07-.44,2.26-1.36-1.29-.89-2.1-1.24-2.34-1.24-.71.02-1.28.62-1.26,1.33.02.71.59,1.27,1.29,1.27h.04Z"/>
      <path class="cls-5" d="M10.51,11.2c.17.14,1.09.37,2.59.47-.38-1.52-.76-2.32-.93-2.47-.54-.45-1.37-.38-1.82.17-.46.55-.4,1.34.13,1.81l.03.03Z"/>
      <path class="cls-1" d="M10.51,11.2c.17.14,1.09.37,2.59.47-.38-1.52-.76-2.32-.93-2.47-.54-.45-1.37-.38-1.82.17-.46.55-.4,1.34.13,1.81l.03.03Z"/>
      <path class="cls-2" d="M47.19,44.99c0,4.17-5.45,7.55-12.17,7.55s-12.17-3.38-12.17-7.55,5.45-7.56,12.17-7.56,12.17,3.38,12.17,7.56Z"/>
      <polyline class="cls-3" points="23.63 27.35 28.08 31.14 28.06 31.22 22.35 32.5"/>
      <polyline class="cls-3" points="46.41 27.35 41.96 31.14 41.98 31.22 47.68 32.5"/>
      <path class="cls-3" d="M30.97,20.09c5.36.54,10.27-3.87,10.96-9.83.55-4.77-2.44-8.54-6.73-8.97-3.43-.34-6.6,2.03-7.04,5.84-.36,3.06,1.28,5.64,4.02,5.91,2.2.22,4.3-1.51,4.3-3.97"/>
      <line class="cls-4" x1="9.42" y1="40.44" x2="9.41" y2="40.43"/>
      <line class="cls-4" x1="9.88" y1="29.29" x2="9.92" y2="29.27"/>
      <path class="cls-3" d="M25.4,13.72c-7.52,2.72-13.31,8.38-15.48,15.55l-.04.02c-.85-.64-1.85-1.01-2.94-1.01-3.01,0-5.44,2.88-5.44,6.42s2.44,6.42,5.44,6.42c.89,0,1.72-.25,2.46-.69h0c2.34,10.88,12.96,18.86,25.65,18.86s23.04-8.04,25.52-18.76l.12-.06c.72.42,1.53.65,2.39.65,3.01,0,5.44-2.88,5.44-6.42s-2.44-6.42-5.44-6.42c-1.07,0-2.06.36-2.91.99l-.05-.09c-2.13-6.76-7.5-12.29-14.49-15.11"/>
    </g>
  </g>
</svg>