<?xml version="1.0" encoding="UTF-8"?>
<svg id="Layer_2" data-name="Layer 2" xmlns="http://www.w3.org/2000/svg" viewBox="0 0 62.89 62.19">
  <defs>
    <style>
      .cls-1, .cls-2, .cls-3, .cls-4 {
        fill: none;
        stroke: #000;
        stroke-width: 2.5px;
      }

      .cls-1, .cls-3 {
        stroke-linejoin: round;
      }

      .cls-2, .cls-4 {
        stroke-miterlimit: 10;
      }

      .cls-3, .cls-4 {
        stroke-linecap: round;
      }
    </style>
  </defs>
  <g id="Layer_1-2" data-name="Layer 1">
    <g>
      <line class="cls-2" x1="29.31" y1="53.27" x2="58.29" y2="53.27"/>
      <path class="cls-2" d="M58.29,53.27c1.84,0,3.35,1.51,3.35,3.35"/>
      <polyline class="cls-2" points="61.64 56.62 61.64 60.94 1.25 60.94 1.25 12.08"/>
      <path class="cls-2" d="M1.25,12.08C1.25,6.13,6.39,1.25,12.67,1.25"/>
      <polyline class="cls-2" points="12.67 1.25 24.52 1.25 24.52 60.73"/>
      <path class="cls-3" d="M17.36,42.95c0,2.51-2.03,4.54-4.53,4.54s-4.53-2.03-4.53-4.54,2.03-4.53,4.53-4.53,4.53,2.03,4.53,4.53Z"/>
      <polyline class="cls-1" points="46.14 20.62 46.14 26.67 40.19 26.67 40.19 20.62"/>
      <path class="cls-3" d="M51.44,46.27c0,3.77-3.62,6.86-8.06,6.86s-8.06-3.09-8.06-6.86"/>
      <polyline class="cls-3" points="35.32 46.27 35.32 39.41 51.44 39.41 51.44 46.27"/>
      <line class="cls-3" x1="51.51" y1="43.11" x2="56.55" y2="43.11"/>
      <line class="cls-2" x1="29.33" y1="5.84" x2="47.33" y2="5.84"/>
      <path class="cls-2" d="M47.33,5.84c3.07,0,5.58,2.51,5.58,5.58"/>
      <polyline class="cls-2" points="52.9 11.42 52.9 20.36 24.73 20.36"/>
      <line class="cls-4" x1="8.58" y1="10.31" x2="17.08" y2="10.31"/>
      <line class="cls-4" x1="8.58" y1="15.89" x2="17.08" y2="15.89"/>
    </g>
  </g>
</svg>