<?xml version="1.0" encoding="UTF-8"?>
<svg id="Layer_2" data-name="Layer 2" xmlns="http://www.w3.org/2000/svg" viewBox="0 0 61.5 63.75">
  <defs>
    <style>
      .cls-1 {
        fill: none;
        stroke: #000;
        stroke-linecap: round;
        stroke-linejoin: round;
        stroke-width: 2.5px;
      }
    </style>
  </defs>
  <g id="Layer_1-2" data-name="Layer 1">
    <g>
      <polyline class="cls-1" points="20.46 9.56 1.25 9.56 8.65 19.59 6.49 49.49"/>
      <path class="cls-1" d="M32,41.43c0,2.81-2.29,5.1-5.1,5.1"/>
      <line class="cls-1" x1="26.9" y1="46.53" x2="26.73" y2="46.53"/>
      <path class="cls-1" d="M26.73,46.53c-2.81,0-5.1-2.3-5.1-5.1"/>
      <line class="cls-1" x1="21.63" y1="41.43" x2="21.63" y2="25.45"/>
      <path class="cls-1" d="M21.63,25.45c0-2.81,2.3-5.1,5.1-5.1"/>
      <line class="cls-1" x1="26.73" y1="20.35" x2="26.9" y2="20.35"/>
      <path class="cls-1" d="M26.9,20.35c2.81,0,5.1,2.3,5.1,5.1"/>
      <line class="cls-1" x1="32" y1="25.45" x2="32" y2="41.43"/>
      <line class="cls-1" x1="22.22" y1="27.06" x2="25.81" y2="27.06"/>
      <line class="cls-1" x1="22.22" y1="33.44" x2="25.81" y2="33.44"/>
      <line class="cls-1" x1="22.22" y1="39.82" x2="25.81" y2="39.82"/>
      <path class="cls-1" d="M10.3,9.24C13.95,4.96,20.17,1.25,26.7,1.25s12.59,3.13,16.33,7.92"/>
      <line class="cls-1" x1="43.03" y1="9.17" x2="43.9" y2="10.03"/>
      <path class="cls-1" d="M43.9,10.03c9.19.56,16.35,8.18,16.35,17.5,0,8.43-6.09,15.58-14.02,17.26"/>
      <polyline class="cls-1" points="46.23 44.79 46.2 44.84 47.06 55.31 47.06 62.5 6 62.5 5.98 55.29 46.31 55.29"/>
      <line class="cls-1" x1="43.94" y1="16.64" x2="45.68" y2="38.18"/>
      <path class="cls-1" d="M45.68,38.18c4.69-1.25,8.3-5.54,8.3-10.62,0-5.67-4.53-10.34-10.04-10.92"/>
    </g>
  </g>
</svg>