<?xml version="1.0" encoding="UTF-8"?>
<svg id="Layer_2" data-name="Layer 2" xmlns="http://www.w3.org/2000/svg" viewBox="0 0 64.43 66.98">
  <defs>
    <style>
      .cls-1, .cls-2, .cls-3, .cls-4 {
        fill: none;
        stroke: #000;
        stroke-width: 2.5px;
      }

      .cls-1, .cls-3 {
        stroke-linejoin: round;
      }

      .cls-2, .cls-4 {
        stroke-miterlimit: 10;
      }

      .cls-3, .cls-4 {
        stroke-linecap: round;
      }
    </style>
  </defs>
  <g id="Layer_1-2" data-name="Layer 1">
    <g>
      <line class="cls-1" x1="14.96" y1="28.99" x2="14.96" y2="62.76"/>
      <path class="cls-1" d="M14.96,62.76c0,1.63-1.32,2.97-2.94,2.97s-2.95-1.33-2.95-2.97"/>
      <line class="cls-1" x1="9.07" y1="62.76" x2="9.07" y2="28.99"/>
      <line class="cls-3" x1="12.02" y1="1.86" x2="12.02" y2="24.13"/>
      <line class="cls-3" x1="22.78" y1="12.03" x2="1.25" y2="12.03"/>
      <line class="cls-3" x1="19.42" y1="4.55" x2="12.11" y2="11.85"/>
      <line class="cls-3" x1="11.92" y1="11.85" x2="4.61" y2="4.55"/>
      <line class="cls-3" x1="22.78" y1="18.12" x2="1.25" y2="18.12"/>
      <line class="cls-3" x1="22.78" y1="24.2" x2="1.25" y2="24.2"/>
      <line class="cls-1" x1="40.35" y1="37.99" x2="40.35" y2="4.22"/>
      <path class="cls-1" d="M40.35,4.22c0-1.63,1.33-2.97,2.95-2.97s2.94,1.34,2.94,2.97"/>
      <line class="cls-1" x1="46.24" y1="4.22" x2="46.24" y2="37.99"/>
      <path class="cls-2" d="M25.79,65.73c0-7.93,3.94-15.62,12.53-17.63v-5.36h9.95v5.36c8.59,2.01,12.53,9.71,12.53,17.63"/>
      <line class="cls-4" x1="23.41" y1="65.73" x2="63.18" y2="65.73"/>
      <path class="cls-3" d="M38.68,54.25s-4.16,1.3-5.63,5.34"/>
    </g>
  </g>
</svg>