<?xml version="1.0" encoding="UTF-8"?>
<svg id="Layer_2" data-name="Layer 2" xmlns="http://www.w3.org/2000/svg" viewBox="0 0 68.05 60.05">
  <defs>
    <style>
      .cls-1, .cls-2 {
        fill: none;
        stroke: #000;
        stroke-linejoin: round;
        stroke-width: 2.5px;
      }

      .cls-2 {
        stroke-linecap: round;
      }
    </style>
  </defs>
  <g id="Layer_1-2" data-name="Layer 1">
    <g>
      <path class="cls-1" d="M13.79,3.9C9.18,3.3,4.94,2.53.21,1.71"/>
      <path class="cls-1" d="M44.5,4.79c-3.27.24-6.64.38-10.43.38-5.9,0-10.88-.27-15.46-.73"/>
      <path class="cls-1" d="M67.86,1.71c-6.14.95-11.98,1.97-18.51,2.65"/>
      <line class="cls-2" x1="18.61" y1="10.47" x2="18.61" y2="1.25"/>
      <line class="cls-2" x1="49.32" y1="10.47" x2="49.32" y2="1.25"/>
      <path class="cls-2" d="M33.87,17.35c-7.51,0-9.25-6.17-9.25-6.17"/>
      <polyline class="cls-2" points="24.62 11.18 12.5 11.68 5.2 26.73 16.54 30.65 16.54 58.8 51.1 58.78 51.1 30.65 62.87 26.73 55.5 11.68 43.02 11.18"/>
      <path class="cls-2" d="M43.02,11.18s-1.74,6.17-9.25,6.17"/>
      <line class="cls-2" x1="16.55" y1="32.01" x2="17.88" y2="24.31"/>
      <line class="cls-2" x1="51.02" y1="32.01" x2="49.69" y2="24.31"/>
    </g>
  </g>
</svg>