<?xml version="1.0" encoding="UTF-8"?>
<svg id="Layer_2" data-name="Layer 2" xmlns="http://www.w3.org/2000/svg" viewBox="0 0 72.36 61.42">
  <defs>
    <style>
      .cls-1, .cls-2, .cls-3, .cls-4, .cls-5 {
        fill: none;
        stroke: #000;
        stroke-width: 2.5px;
      }

      .cls-1, .cls-3 {
        stroke-linejoin: round;
      }

      .cls-2, .cls-4 {
        stroke-miterlimit: 10;
      }

      .cls-3, .cls-4 {
        stroke-linecap: round;
      }

      .cls-5 {
        stroke-miterlimit: 22.93;
      }
    </style>
  </defs>
  <g id="Layer_1-2" data-name="Layer 1">
    <g>
      <path d="M38.32,2.03c0,.43-.35.78-.78.78s-.78-.35-.78-.78.35-.78.78-.78.78.35.78.78Z"/>
      <path class="cls-5" d="M38.32,2.03c0,.43-.35.78-.78.78s-.78-.35-.78-.78.35-.78.78-.78.78.35.78.78Z"/>
      <path d="M31.68,11.43c0,.43-.35.78-.78.78s-.78-.35-.78-.78.35-.78.78-.78.78.35.78.78Z"/>
      <path class="cls-5" d="M31.68,11.43c0,.43-.35.78-.78.78s-.78-.35-.78-.78.35-.78.78-.78.78.35.78.78Z"/>
      <line class="cls-4" x1="13.66" y1="54.3" x2="10.83" y2="60.17"/>
      <line class="cls-4" x1="58.69" y1="54.3" x2="61.53" y2="60.17"/>
      <line class="cls-2" x1="66.05" y1="36.35" x2="66.05" y2="40.91"/>
      <path class="cls-2" d="M66.05,40.91c0,8.25-6.75,15-15,15"/>
      <line class="cls-2" x1="51.05" y1="55.91" x2="21.31" y2="55.91"/>
      <path class="cls-2" d="M21.31,55.91c-8.25,0-15-6.75-15-15"/>
      <line class="cls-2" x1="6.31" y1="40.91" x2="6.31" y2="36.35"/>
      <line class="cls-1" x1="33.32" y1="24.72" x2="68.12" y2="24.72"/>
      <path class="cls-1" d="M68.12,24.72c1.64,0,2.99,1.38,2.99,3.07"/>
      <line class="cls-1" x1="71.11" y1="27.79" x2="71.11" y2="28.3"/>
      <path class="cls-1" d="M71.11,28.3c0,1.69-1.34,3.07-2.99,3.07"/>
      <line class="cls-1" x1="68.12" y1="31.37" x2="32.99" y2="31.37"/>
      <line class="cls-1" x1="13.99" y1="31.37" x2="4.24" y2="31.37"/>
      <path class="cls-1" d="M4.24,31.37c-1.64,0-2.99-1.38-2.99-3.07"/>
      <line class="cls-1" x1="1.25" y1="28.3" x2="1.25" y2="27.79"/>
      <path class="cls-1" d="M1.25,27.79c0-1.69,1.34-3.07,2.99-3.07"/>
      <line class="cls-1" x1="4.24" y1="24.72" x2="14.07" y2="24.72"/>
      <line class="cls-3" x1="65.92" y1="24.21" x2="65.92" y2="15.72"/>
      <path class="cls-3" d="M65.92,15.72c0-2.87-2.08-5.22-4.63-5.22s-4.63,2.35-4.63,5.22"/>
      <polyline class="cls-3" points="32.95 21.89 32.95 42.58 18.79 42.58 18.79 24.58"/>
      <path class="cls-3" d="M18.79,24.58c0-1.64,1.34-2.98,2.97-2.98"/>
      <line class="cls-3" x1="21.76" y1="21.6" x2="31.88" y2="21.6"/>
      <path class="cls-3" d="M31.88,21.6c1.38,0,3.5.03,3.5,2.95"/>
      <line class="cls-3" x1="19.08" y1="36.68" x2="32.64" y2="36.68"/>
      <path class="cls-2" d="M45.74,15.69c-1.19,1.69-3.53,2.1-5.22.91-1.69-1.19-2.1-3.53-.91-5.22,1.19-1.69,3.53-2.1,5.22-.91,1.69,1.19,2.1,3.53.91,5.22Z"/>
    </g>
  </g>
</svg>