<?xml version="1.0" encoding="UTF-8"?>
<svg id="Layer_2" data-name="Layer 2" xmlns="http://www.w3.org/2000/svg" viewBox="0 0 72 58.05">
  <defs>
    <style>
      .cls-1, .cls-2 {
        stroke-linejoin: round;
      }

      .cls-1, .cls-2, .cls-3 {
        fill: none;
        stroke: #000;
        stroke-width: 2.5px;
      }

      .cls-2 {
        stroke-linecap: round;
      }

      .cls-3 {
        stroke-miterlimit: 22.93;
      }
    </style>
  </defs>
  <g id="Layer_1-2" data-name="Layer 1">
    <g>
      <line class="cls-1" x1="18.31" y1="54" x2="5.5" y2="54"/>
      <path class="cls-1" d="M5.5,54c-2.34,0-4.25-1.91-4.25-4.25"/>
      <line class="cls-1" x1="1.25" y1="49.75" x2="1.25" y2="5.5"/>
      <path class="cls-1" d="M1.25,5.5C1.25,3.16,3.16,1.25,5.5,1.25"/>
      <line class="cls-1" x1="5.5" y1="1.25" x2="44.69" y2="1.25"/>
      <path class="cls-1" d="M44.69,1.25c2.34,0,4.25,1.91,4.25,4.25"/>
      <line class="cls-1" x1="48.94" y1="5.5" x2="48.94" y2="27.86"/>
      <line class="cls-2" x1="48.59" y1="13.07" x2="1.61" y2="13.07"/>
      <line class="cls-2" x1="29.89" y1="7.16" x2="20.3" y2="7.16"/>
      <path class="cls-1" d="M46.34,49.04c-2.47,4.43-7.21,7.42-12.64,7.42-7.99,0-14.46-6.47-14.46-14.46s6.48-14.46,14.46-14.46c3.83,0,7.31,1.49,9.9,3.91"/>
      <path class="cls-1" d="M41.41,42c0,4.26-3.45,7.71-7.72,7.71s-7.71-3.45-7.71-7.71,3.45-7.71,7.71-7.71,7.72,3.45,7.72,7.71Z"/>
      <line class="cls-2" x1="67.11" y1="23.85" x2="67.11" y2="31.13"/>
      <line class="cls-2" x1="70.75" y1="27.49" x2="63.47" y2="27.49"/>
      <line class="cls-2" x1="59.11" y1="13.5" x2="59.11" y2="20.79"/>
      <line class="cls-2" x1="62.76" y1="17.15" x2="55.47" y2="17.15"/>
      <line class="cls-2" x1="48.65" y1="56.8" x2="59.79" y2="56.8"/>
      <polyline class="cls-2" points="61.17 40.42 60.35 32.48 48.09 32.48 47.26 40.42"/>
      <path class="cls-2" d="M47.26,40.42c-.36,3.94,3.17,7,6.95,7s7.31-3.06,6.95-7"/>
      <line class="cls-2" x1="54.22" y1="47.54" x2="54.22" y2="56.66"/>
      <path d="M41.24,7.16c0,.39-.31.7-.7.7s-.7-.31-.7-.7.31-.7.7-.7.7.31.7.7Z"/>
      <path class="cls-3" d="M41.24,7.16c0,.39-.31.7-.7.7s-.7-.31-.7-.7.31-.7.7-.7.7.31.7.7Z"/>
    </g>
  </g>
</svg>