<?xml version="1.0" encoding="UTF-8"?>
<svg id="Layer_2" data-name="Layer 2" xmlns="http://www.w3.org/2000/svg" viewBox="0 0 75.96 58.74">
  <defs>
    <style>
      .cls-1, .cls-2 {
        fill: none;
        stroke: #000;
        stroke-miterlimit: 10;
        stroke-width: 2.5px;
      }

      .cls-2 {
        stroke-linecap: round;
      }
    </style>
  </defs>
  <g id="Layer_1-2" data-name="Layer 1">
    <g>
      <path class="cls-1" d="M5.21,34.05c-2.33.94-3.96,2.98-3.96,5.33,0,3.23,3.08,5.9,6.84,5.9"/>
      <line class="cls-1" x1="8.09" y1="45.28" x2="20.12" y2="45.28"/>
      <path class="cls-1" d="M20.12,45.28c3.76,0,6.15,1.37,6.84,3.31.61,1.71,3.08,3.31,6.84,3.31"/>
      <line class="cls-1" x1="33.8" y1="51.89" x2="62.64" y2="51.89"/>
      <path class="cls-1" d="M62.64,51.89c10.14,0,12.07-4.12,12.07-9.38"/>
      <path class="cls-1" d="M74.71,42.51c0-5.51-1.25-8.25-7.08-9.1"/>
      <path class="cls-2" d="M61.62,24.79c0,2.26-.21,8.46,2.7,14.17"/>
      <line class="cls-2" x1="8.71" y1="38.96" x2="64.24" y2="38.96"/>
      <path class="cls-1" d="M21.93,54.33c0,1.73-1.66,3.15-3.69,3.15"/>
      <line class="cls-1" x1="18.24" y1="57.49" x2="15.48" y2="57.49"/>
      <path class="cls-1" d="M15.48,57.49c-2.03,0-3.69-1.42-3.69-3.15s1.66-3.15,3.69-3.15"/>
      <line class="cls-1" x1="15.48" y1="51.18" x2="18.24" y2="51.18"/>
      <path class="cls-1" d="M18.24,51.18c2.03,0,3.69,1.42,3.69,3.15"/>
      <path class="cls-1" d="M11.34,28.57c-.18,2.9-.76,6.74-2.62,10.4"/>
      <path class="cls-1" d="M18.54,28.57c-.09,3-.35,7.19-1.07,10.33"/>
      <path class="cls-1" d="M54.32,28.57c.09,2.97.34,7.11,1.05,10.23"/>
      <line class="cls-1" x1="25.76" y1="38.92" x2="25.76" y2="28.57"/>
      <line class="cls-1" x1="32.93" y1="38.89" x2="32.93" y2="28.57"/>
      <line class="cls-1" x1="40.1" y1="38.86" x2="40.1" y2="28.57"/>
      <line class="cls-1" x1="47.28" y1="38.79" x2="47.28" y2="28.57"/>
      <polyline class="cls-1" points="57.8 14.73 22.28 14.73 22.28 10.7"/>
      <path class="cls-1" d="M22.28,10.7c0-1.14.97-2.1,2.11-2.1"/>
      <line class="cls-1" x1="24.39" y1="8.6" x2="51.34" y2="8.6"/>
      <path class="cls-1" d="M51.34,8.6c2.02,0,3.67-1.64,3.67-3.66"/>
      <line class="cls-1" x1="55.01" y1="4.94" x2="55.01" y2="4.92"/>
      <path class="cls-1" d="M55.01,4.92c0-2.02-1.65-3.67-3.67-3.67"/>
      <line class="cls-1" x1="51.34" y1="1.25" x2="24.39" y2="1.25"/>
      <path class="cls-1" d="M9.29,19.49c0-3.13,2.59-4.57,5.64-4.75v-4.03c0-5.21,4.24-9.45,9.46-9.45"/>
      <polyline class="cls-1" points="9.29 19.49 9.29 23.85 63.91 23.85 63.91 19.49"/>
      <path class="cls-1" d="M63.91,19.49c0-3.36-2.75-4.75-6.11-4.75"/>
    </g>
  </g>
</svg>