<?xml version="1.0" encoding="UTF-8"?>
<svg id="Layer_2" data-name="Layer 2" xmlns="http://www.w3.org/2000/svg" viewBox="0 0 90.08 66.06">
  <g id="Layer_1-2" data-name="Layer 1">
    <path d="M39.52,54.2c-.06,0-.12.02-.18.04l-1,.42c-.19.07-.32.26-.32.47,0,.28.22.5.5.5.07,0,.15-.02.21-.05l1-.42c.19-.08.31-.26.31-.46,0-.28-.22-.5-.5-.5,0,0-.02,0-.02,0h0ZM45.53,51.66c-.06,0-.12.02-.18.04l-3,1.27c-.19.08-.31.26-.31.46,0,.28.22.5.5.5.07,0,.13-.01.2-.04l3-1.27c.19-.08.31-.26.31-.46,0-.28-.22-.5-.5-.5,0,0-.02,0-.02,0h0ZM68.55,41.89c-.06,0-.12.02-.18.04l-18.02,7.64c-.19.07-.32.26-.32.47,0,.28.22.5.5.5.07,0,.15-.02.21-.05l18.02-7.64c.19-.08.31-.26.31-.46,0-.28-.22-.5-.5-.5,0,0-.02,0-.02,0h0ZM9.98,40.28c-1.14,3.3-1.23,7.29-.1,11.37-2.37-1.43-6.15-4.46-7.63-10,1.26-.37,3.88-1.03,7.73-1.38ZM18.18,40.23c1.05.1,2.04.25,2.95.43.61.31,1.25.73,1.89,1.3,1.44,1.28,2.85,3.21,3.85,5.71,1.36,3.41,1.51,7.07.48,9.44-.3.69-.84,1.52-1.58,1.81-.85.34-2.42.03-4.07-1.2-1.65-1.22-3.35-3.31-4.54-6.29-1.36-3.41-1.51-7.07-.48-9.44.28-.66.8-1.44,1.49-1.76ZM14.51,40.04c.76,0,1.49.02,2.19.06-.43.48-.73,1.03-.93,1.49-1.18,2.73-.97,6.59.47,10.2,1.25,3.14,3.06,5.37,4.87,6.73,1.82,1.35,3.65,1.87,5.03,1.33,1.16-.45,1.78-1.54,2.13-2.34h0c1.18-2.73.97-6.6-.47-10.21-1.03-2.58-2.47-4.58-4-5.98,1.57.48,2.88,1.04,3.94,1.61,2.59,1.37,3.6,2.58,3.69,2.68.04.09.07.16.09.21,1.57,3.95,1.87,7.96,1.11,11.18-.75,3.2-2.49,5.56-4.98,6.56l-.05.02c-2.52.99-5.43.45-8.19-1.39-2.77-1.83-5.31-4.96-6.89-8.91-1.92-4.82-1.86-9.66-.41-13.11.82-.04,1.5-.13,2.4-.13ZM71.74,29.34c.15.42.31.83.43,1.25.02.06.03.12.05.18.17.58.31,1.15.43,1.73.55,2.69.54,5.28.02,7.49-.75,3.21-2.5,5.59-5.02,6.58-.56.22-3.23,1.35-7.07,2.98-3.84,1.63-8.79,3.74-13.67,5.82-6.99,2.97-10.45,4.45-13.8,5.88.66-1.13,1.16-2.41,1.49-3.78.86-3.64.52-7.98-1.15-12.24l38.31-15.87ZM59.44,18.03c1.71.08,3.5.72,5.23,1.87,1.73,1.15,3.37,2.79,4.75,4.84l.4.65c.3.49.58.99.85,1.51.04.07.08.14.12.22.21.42.4.86.59,1.31l-38.42,15.91c-.21-.24-1.55-1.72-4.28-3.16-2.97-1.58-7.59-3.12-14.17-3.12-1.64,0-3.1.09-4.48.21,4.68-1.99,9.13-3.89,18.38-7.82,6.8-2.89,13.64-5.8,18.87-8.02,2.62-1.11,4.83-2.05,6.43-2.73,1.6-.68,2.66-1.12,2.76-1.16.94-.37,1.94-.53,2.97-.48ZM72.06,8.01h6.01v19.36c0,1.22-.73,2.31-1.86,2.77l-1.88.78c-.25-.95-.55-1.9-.92-2.85-.39-.99-.85-1.93-1.35-2.82V8.01ZM62.06,2h26.02v1c0,1.67-1.33,3-3,3h-20.02c-1.67,0-3-1.33-3-3v-1ZM61.05,0c-.55,0-1,.45-1,1v2c0,2.75,2.25,5,5,5h5v14.22c-1.28-1.62-2.74-2.97-4.29-4-2.37-1.57-5.01-2.39-7.55-2.16-.85.07-1.68.27-2.49.59h0c-.26.1-1.2.5-2.8,1.18-1.61.68-3.82,1.62-6.44,2.73-5.23,2.22-12.08,5.13-18.87,8.02C14.03,34.36.61,40.07.61,40.07c-.37.16-.61.52-.61.92,0,.07,0,.14.02.21,1.84,8.79,9.02,12.43,10.82,13.22,1.72,4.11,4.4,7.41,7.47,9.44,3.16,2.1,6.8,2.85,10.04,1.58,0,0,.02,0,.03-.01,0,0,9.54-4.07,19.31-8.23,4.89-2.08,9.83-4.18,13.67-5.81,3.84-1.63,6.65-2.81,7.02-2.96,3.24-1.27,5.37-4.3,6.24-7.98.54-2.3.6-4.88.16-7.54l2.21-.92c1.87-.77,3.09-2.6,3.09-4.62V8.01h5c2.75,0,5-2.25,5-5V1c0-.55-.45-1-1-1h-28.03Z"/>
  </g>
</svg>