<?xml version="1.0" encoding="UTF-8"?>
<svg id="Layer_2" data-name="Layer 2" xmlns="http://www.w3.org/2000/svg" viewBox="0 0 67.38 66.89">
  <defs>
    <style>
      .cls-1 {
        fill: none;
        stroke: #000;
        stroke-linecap: round;
        stroke-miterlimit: 10;
        stroke-width: 2.18px;
      }
    </style>
  </defs>
  <g id="Layer_1-2" data-name="Layer 1">
    <path class="cls-1" d="M21.12,10.86l17.4,4.67,1.5,2.6,15.25,4.25M57.58,20.11c.27.08,2.52.68,3.42.92.91.24.58.7.38,1.43-.2.73-1.44,5.39-1.73,6.47-.29,1.08-.75.72-1.48.53-.73-.19-4.15-1.12-4.41-1.19M19.54,16.45c-7.88-2.13-12.89,4.55-12.98,8.91-.09,4.36-.33,17.93-.33,17.93M27.03,25.62s-.26.97-.62,2.3c-.36,1.33-.09,2.54,1.46,2.9,1.56.36,7.29,2.13,8.63,2.53,1.33.4,2.76,0,3.25-1.33.49-1.33,1.13-3.17,1.13-3.17M34.37,49.55v-16.77M28.95,49.53v-18.42M20.59,1.3l44.64,11.29-9.96,9.78-2.49,9.78-34.95-9.69,3.29-11.6-3.56-.98,3.03-8.58ZM31.66,53.1c.77,0,1.4.63,1.4,1.4s-.63,1.4-1.4,1.4-1.4-.63-1.4-1.4.63-1.4,1.4-1.4ZM31.66,48.85c3.12,0,5.65,2.53,5.65,5.65s-2.53,5.65-5.65,5.65-5.65-2.53-5.65-5.65,2.53-5.65,5.65-5.65ZM12.21,57.16h14.58M12.21,51.78h14.58M1.09,43.12v22.68h6.22c3.44,0,4.89-3.02,4.89-6.23v-10.58c0-3.6-2.67-5.69-4.8-5.69s-6.31-.18-6.31-.18ZM31.66,53.11c-1.85,0-1.84,2.79,0,2.79s1.84-2.79,0-2.79Z"/>
  </g>
</svg>