<?xml version="1.0" encoding="UTF-8"?>
<svg id="Layer_2" data-name="Layer 2" xmlns="http://www.w3.org/2000/svg" viewBox="0 0 65.84 68.4">
  <defs>
    <style>
      .cls-1 {
        fill: none;
        stroke: #000;
        stroke-linecap: round;
        stroke-miterlimit: 10;
        stroke-width: 2.18px;
      }
    </style>
  </defs>
  <g id="Layer_1-2" data-name="Layer 1">
    <g>
      <circle class="cls-1" cx="32.9" cy="45.42" r="4.93" transform="translate(-17.2 70.62) rotate(-80.78)"/>
      <circle class="cls-1" cx="32.9" cy="45.42" r="12.1" transform="translate(-13.22 77.33) rotate(-88.76)"/>
      <path class="cls-1" d="M32.9,23.54c12.09,0,21.88,9.8,21.88,21.88s-9.8,21.88-21.88,21.88-21.88-9.8-21.88-21.88,9.8-21.88,21.88-21.88Z"/>
      <path class="cls-1" d="M11.55,50.21c-2.75-.01-5.1.08-7.75.11-.27-1.59-.41-3.23-.41-4.9,0-16.3,13.21-29.52,29.52-29.52s29.52,13.21,29.52,29.52c0,1.71-.15,3.39-.43,5.02-2.56,0-5.22-.19-7.74-.19"/>
      <path class="cls-1" d="M1.09,7.89h63.66c0,4.24-3.47,7.71-7.71,7.71H8.8c-4.24,0-7.71-3.47-7.71-7.71Z"/>
      <line class="cls-1" x1="27.77" y1="1.09" x2="27.77" y2="7.26"/>
      <line class="cls-1" x1="27.77" y1="1.09" x2="27.77" y2="7.26"/>
      <line class="cls-1" x1="37.77" y1="1.09" x2="37.77" y2="7.26"/>
    </g>
  </g>
</svg>