<?xml version="1.0" encoding="UTF-8"?>
<svg id="Layer_2" data-name="Layer 2" xmlns="http://www.w3.org/2000/svg" viewBox="0 0 85.64 68.41">
  <defs>
    <style>
      .cls-1 {
        fill: none;
        stroke: #000;
        stroke-linecap: round;
        stroke-miterlimit: 10;
        stroke-width: 2.18px;
      }
    </style>
  </defs>
  <g id="Layer_1-2" data-name="Layer 1">
    <path class="cls-1" d="M60.17,47.69c0,.51-.41.92-.92.92s-.92-.41-.92-.92.41-.92.92-.92.92.41.92.92ZM59.8,2.24c3.65-2.23,8.38-1.08,10.5,2.39l7.83,13.19-35.47,21.65s-7.94-7.58-13.07-4.44c-5.13,3.13-15.93,9.72-15.93,9.72l-11.59-7.33L59.8,2.24ZM19.85,47.18l5.12,8.33,5.37-3.28M25.38,43.88l5.25,8.55c1.36,2.23,4.29,2.93,6.52,1.57l7.99-4.9c5.95-3.63,8.18,1.4,8.18,1.4.13.33.3.72.49,1.03,1.88,3.09,5.97,4.03,9.13,2.1,3.16-1.93,4.2-5.99,2.32-9.08-.22-.36-.55-.8-.82-1.1,0,0-3.51-3.94,2.44-7.57l8.18-4.98c1.71-1.08,2.42-4.02,1.06-6.24l-2.46-4.03M84.55,42.03v25.29M84.29,59.68h-19.7c-3.91,0-7.11-2.29-7.11-5.09M65.67,49.49h18.63"/>
  </g>
</svg>