<?xml version="1.0" encoding="UTF-8"?>
<svg id="Layer_2" data-name="Layer 2" xmlns="http://www.w3.org/2000/svg" viewBox="0 0 68.49 68.58">
  <defs>
    <style>
      .cls-1, .cls-2 {
        stroke-miterlimit: 22.93;
      }

      .cls-1, .cls-2, .cls-3, .cls-4 {
        stroke: #000;
      }

      .cls-1, .cls-2, .cls-4 {
        fill: none;
        stroke-width: 2.5px;
      }

      .cls-2, .cls-4 {
        stroke-linecap: round;
      }

      .cls-3 {
        fill: #1b9fda;
        fill-rule: evenodd;
        stroke-miterlimit: 10;
      }

      .cls-4 {
        stroke-linejoin: round;
      }
    </style>
  </defs>
  <g id="Layer_1-2" data-name="Layer 1">
    <g>
      <path class="cls-2" d="M6.51,35.08v27.18h55.97v-27.46M1.25,33.51v33.81h65.99v-34.32"/>
      <path class="cls-1" d="M67.24,29.04V1.25H1.25v28.04c1.65.02,1.83.03,3.48.05,2.59,0,9.39-6.57,13.36-9.87,4.29,3.82,9.26,9.12,16.22,9.12s11.04-4.51,16.17-8.32c3.94,2.56,8.73,8.5,12.58,8.5,1.65.1,2.53.16,4.18.26Z"/>
      <path class="cls-1" d="M1.25,22.29c1.65.03,1.83.03,3.48.05,2.59,0,9.39-4.76,13.36-8.06,4.29,3.82,9.26,8.44,16.22,8.44s11.04-4.52,16.17-8.33c3.94,2.56,8.73,7.91,12.58,7.91,1.65.1,2.79.38,4.18.41"/>
      <line class="cls-4" x1="18.09" y1="28.02" x2="18.09" y2="1.96"/>
      <line class="cls-4" x1="50.48" y1="28.55" x2="50.48" y2="1.25"/>
      <path class="cls-4" d="M50.56,30.42c.85,0,1.55,1.74,1.55,2.59v2.65h-3.09v-2.65c0-.85.7-2.59,1.55-2.59Z"/>
      <path class="cls-4" d="M18.32,29.89c.85,0,1.55,1.74,1.55,2.59v2.65h-3.09v-2.65c0-.85.7-2.59,1.55-2.59Z"/>
      <path class="cls-3" d="M50.48,28.07c.63,0,1.14.51,1.14,1.14s-.51,1.13-1.14,1.13-1.14-.51-1.14-1.13.51-1.14,1.14-1.14Z"/>
      <path class="cls-4" d="M50.48,28.07c.63,0,1.14.51,1.14,1.14s-.51,1.13-1.14,1.13-1.14-.51-1.14-1.13.51-1.14,1.14-1.14Z"/>
      <path class="cls-3" d="M18.24,27.54c.63,0,1.14.51,1.14,1.13s-.51,1.14-1.14,1.14-1.14-.51-1.14-1.14.51-1.13,1.14-1.13Z"/>
      <path class="cls-4" d="M18.24,27.54c.63,0,1.14.51,1.14,1.13s-.51,1.14-1.14,1.14-1.14-.51-1.14-1.14.51-1.13,1.14-1.13Z"/>
    </g>
  </g>
</svg>