<?xml version="1.0" encoding="UTF-8"?>
<svg id="Layer_2" data-name="Layer 2" xmlns="http://www.w3.org/2000/svg" viewBox="0 0 68.05 68.82">
  <defs>
    <style>
      .cls-1 {
        fill: none;
        stroke: #000;
        stroke-linecap: round;
        stroke-linejoin: round;
        stroke-width: 2.5px;
      }
    </style>
  </defs>
  <g id="Layer_1-2" data-name="Layer 1">
    <path class="cls-1" d="M43.08,21.91c-8.99-5.92-7.66-17.55-7.52-20.66M25.17,21.91c8.99-5.92,7.66-17.55,7.52-20.66M56.04,15.36c-14.3,1.24-17.26-10.86-18.59-14.11M12.22,15.36c14.3,1.24,17.74-10.86,19.06-14.11M62.63,8.05c-3.11.15-14.66,1.76-21.63-6.8M5.26,8.05c3.11.15,15.55,1.76,22.51-6.8M1.32,1.32c1.23,2.94,10.43,21.79,33.51,21.79S66.48,1.25,66.48,1.25M1.32,1.32c.78,1.89,5,20.77,6.04,24.94,1.04,4.17-2.17,4.08-3.26,5.08-1.09,1-.76,2.46.95,3.6,1.71,1.14,2.72,2.17.37,3.1-2.34.93-3.86,1.78-3.86,3.1s3.43,1.99,3.71,3.65c.28,1.66-3.71,6.33-3.71,6.33M66.03,2.13s-4.31,19.86-5.36,24.03c-1.04,4.17,2.17,4.08,3.26,5.08,1.09,1,.76,2.46-.95,3.6s-2.72,2.17-.37,3.1c2.34.93,3.86,1.78,3.86,3.1s-3.43,1.99-3.71,3.65c-.28,1.66,3.71,6.33,3.71,6.33M1.25,51.13V1.25h65.23v49.77M61.46,51.74v10.39H6.25v-10.49M1.5,55.65v11.92h65.3v-12.2"/>
  </g>
</svg>