<?xml version="1.0" encoding="UTF-8"?>
<svg id="Layer_2" data-name="Layer 2" xmlns="http://www.w3.org/2000/svg" viewBox="0 0 69.68 68.54">
  <defs>
    <style>
      .cls-1 {
        fill: none;
        stroke: #000;
        stroke-linecap: round;
        stroke-linejoin: round;
        stroke-width: 2.5px;
      }
    </style>
  </defs>
  <g id="Layer_1-2" data-name="Layer 1">
    <path class="cls-1" d="M9.36,58.58c3.26-1.51,6.11,2.86,8,2.85,1.69,0,4.44-2.89,6.14-2.9,1.91,0,3.67,2.88,5.58,2.88,1.75,0,4.1-2.89,5.85-2.9,1.86,0,4.01,2.88,5.87,2.88,1.82,0,4.09-2.89,5.91-2.9,1.84,0,3.68,2.88,5.51,2.88,1.83,0,3.66-2.9,5.48-2.9,1.9,0,1.51.59,3.41.73M9.03,10.01c1.89,0,6.44-2.88,8.33-2.88,1.69,0,4.44,2.89,6.14,2.9,1.91,0,3.67-2.88,5.58-2.88,1.75,0,4.1,2.89,5.85,2.9,1.86,0,4.01-2.88,5.87-2.88,1.82,0,4.09,2.89,5.91,2.9,1.84,0,3.68-2.88,5.51-2.88,1.83,0,3.66,2.89,5.48,2.9,1.9,0,3.46-2.54,4.66-2.63M26.99,30.65h14.6v7.73h-14.6v-7.73ZM48.04,55.72l-9.08-17.15M39.52,56.05l-3.52-17.67M29.81,55.61l3.77-17.23M20.91,55.55l9.42-17.17M29.95,12.75l3.51,17.9M39.3,12.81l-3.42,17.84M47.96,13.25l-9.43,17.4M21.17,13.47l8.97,17.09M67.94,1.25l-5.58,6.21-20.76,23.19v7.73l26.84,28.63c-1.8,0-4.09-2.59-5.89-2.6-1.9,0-3.81,2.88-5.71,2.88-1.83,0-3.66-2.89-5.48-2.9-1.84,0-3.68,2.88-5.51,2.88-1.82,0-3.64-2.89-5.46-2.9-1.86,0-3.71,2.88-5.57,2.88-1.75,0-3.49-2.89-5.24-2.9-1.91,0-3.82,2.88-5.73,2.88-1.69,0-3.38-2.89-5.08-2.9-1.89,0-3.78,2.88-5.68,2.88-1.82,0-3.3-2.55-5.12-2.56-1.83,0-3.12,2.46-6.47,2.46l25.49-28.73M26.99,30.65L1.25,1.38c3.35,0,4.55,2.88,6.38,2.88,1.82,0,3.64-2.89,5.46-2.9,1.89,0,3.78,2.88,5.68,2.88,1.69,0,3.38-2.89,5.08-2.9,1.91,0,3.82,2.88,5.73,2.88,1.75,0,3.49-2.89,5.24-2.9,1.86,0,3.71,2.88,5.57,2.88,1.82,0,3.64-2.89,5.46-2.9,1.84,0,3.68,2.88,5.51,2.88,1.83,0,3.66-2.89,5.48-2.9,1.9,0,3.81,2.88,5.71,2.88,1.8,0,3.6-2.89,5.39-2.9M62.81,13.84v40.39M7.2,13.84v40.39M67.64,8.13v52.14M2.37,8.13v52.14"/>
  </g>
</svg>