<?xml version="1.0" encoding="UTF-8"?>
<svg id="Layer_2" data-name="Layer 2" xmlns="http://www.w3.org/2000/svg" viewBox="0 0 67.26 67.7">
  <defs>
    <style>
      .cls-1 {
        fill: none;
        stroke: #000;
        stroke-linecap: round;
        stroke-linejoin: round;
        stroke-width: 2.5px;
      }
    </style>
  </defs>
  <g id="Layer_1-2" data-name="Layer 1">
    <path class="cls-1" d="M65.99,1.37c-1.62,7.09-6.96,13.14-15.59,13.14s-14.6-6.15-15.99-13.16M33.98,1.35c-.35,6.92-6.9,12.79-15.53,12.79S3.82,8.36,2.43,1.35M61.65,1.25c-.3,4.82-5.22,8.66-11.25,8.66s-11.13-4.66-11.16-8.56M29.71,1.35c-.3,4.82-5.22,8.56-11.25,8.56S7.32,5.25,7.3,1.35M55.88,1.35c-.31,2.13-2.48,3.74-5.1,3.74s-4.78-1.64-5.1-3.76M23.93,1.35c-.31,2.13-2.48,3.74-5.1,3.74s-4.78-1.64-5.1-3.76M60.99,41.71v19.4H6.79v-19.5M1.5,45.55v20.9h64.1v-21.18M65.98,1.35c-2.98,9.33-6.25,15.34-7.27,19.44-1.02,4.09,3.57,2.9,4.25,4.05.68,1.15-.79,1.37-1.98,2.04-1.2.67-.67,2.29.68,2.55,1.35.27,3.18.69,3.18,1.99s-3.2,1.43-3.48,3.06c-.28,1.63,4.63,4.84,4.63,4.84V1.35H1.25v37.98s4.91-3.21,4.63-4.84c-.28-1.63-3.48-1.75-3.48-3.06s1.83-1.73,3.18-1.99c1.35-.27,1.88-1.89.68-2.55-1.2-.67-2.67-.89-1.98-2.04.68-1.15,5.28.04,4.25-4.05C7.52,16.69,4.31,10.75,1.32,1.42"/>
  </g>
</svg>