<?xml version="1.0" encoding="UTF-8"?>
<svg id="Layer_2" data-name="Layer 2" xmlns="http://www.w3.org/2000/svg" viewBox="0 0 68.47 68.53">
  <defs>
    <style>
      .cls-1 {
        fill: none;
        stroke: #000;
        stroke-linecap: round;
        stroke-linejoin: round;
        stroke-width: 2.5px;
      }
    </style>
  </defs>
  <g id="Layer_1-2" data-name="Layer 1">
    <path class="cls-1" d="M1.32,1.54c8.02,16.35,19.94,22.45,33.38,22.45S61.72,14.78,67.22,1.25M1.32,1.54c8.68,9.16,19.94,16.34,33.38,16.34S61.31,8.33,67.22,1.25M1.32,1.54c7.94,4.2,19.94,10.98,33.38,10.98S61.11,4.39,66.36,1.52M6.17,52.75v9.29h55.19v-8.85M1.25,57.66v9.62h65.79v-10.38M1.32,1.54c1.56,4.55,6.4,18.69,7.46,22.01,1.06,3.31,2.37,4.94.25,6.44-2.12,1.5-4.19.44-4.31,2.69-.12,2.25,3.81,2.87,3.5,4.25-.31,1.38-2.75,2.12-4.12,2.75-1.37.62-1.91.67-1.95,1.61-.05.94,3.02,1.98,4.02,2.36.99.38,1.7,1.75.52,2.88-1.18,1.13-5.36,5.16-5.36,5.16V1.54s17.2,4.77,33.82,4.77S67.22,1.25,67.22,1.25v50.73c-.16-.16-4.18-4.61-5.36-5.74-1.18-1.13-.47-2.5.52-2.88.99-.38,4.06-1.42,4.02-2.36-.05-.94-.58-.99-1.95-1.61-1.37-.62-3.81-1.37-4.12-2.75-.31-1.37,3.62-2,3.5-4.25-.13-2.25-2.19-1.19-4.31-2.69-2.12-1.5-.81-3.12.25-6.44,1.06-3.31,5.91-17.45,7.46-22.01"/>
  </g>
</svg>