<?xml version="1.0" encoding="UTF-8"?>
<svg id="Layer_2" data-name="Layer 2" xmlns="http://www.w3.org/2000/svg" viewBox="0 0 68.47 68.47">
  <defs>
    <style>
      .cls-1 {
        fill: none;
        stroke: #000;
        stroke-linecap: round;
        stroke-miterlimit: 22.93;
        stroke-width: 2.5px;
      }
    </style>
  </defs>
  <g id="Layer_1-2" data-name="Layer 1">
    <path class="cls-1" d="M15.52,26.14c2.46,7.17,7.46,13.18,19.43,13.18s17.3-7.59,17.8-12.51M52.83,26.78l6.11,12.31s-1.08,1.5-3.16,1.5h-3.08l.09-13.98M15.51,26.15l-6.19,12.94s1.08,1.5,3.16,1.5h3.08l-.04-14.45c2.19,3.56,7.46,8.52,19.43,8.52s16.34-6.25,17.88-7.78M52.79,26.61c3.48,1.2,9.67,2.98,13.56,4.58.05.92-.68,2.29-1.35,3.26-.61.88-1.39,1.72-2.4,2.15l-9.89-9.75.08-.23ZM15.53,26.14s0,0-.01-.01c-3.05,1.29-9.74,3.47-13.61,5.06-.05.92.68,2.29,1.35,3.26.61.88,1.39,1.72,2.4,2.15l9.88-10.46ZM52.74,1.73v24.99M15.51,1.31v24.83M1.25,26.26V1.25h65.8v25.48h-14.27s-7.72,3.64-18.34,3.64-18.92-4.22-18.92-4.22l-14.27.11ZM61.99,43.15v19.11H6.53v-19.38M1.26,38.41v28.81h65.96v-29.08"/>
  </g>
</svg>