<?xml version="1.0" encoding="UTF-8"?>
<svg id="Layer_2" data-name="Layer 2" xmlns="http://www.w3.org/2000/svg" viewBox="0 0 74.24 68.74">
  <defs>
    <style>
      .cls-1 {
        fill: none;
        stroke: #000;
        stroke-linecap: round;
        stroke-linejoin: round;
        stroke-width: 2.5px;
      }
    </style>
  </defs>
  <g id="Layer_1-2" data-name="Layer 1">
    <path class="cls-1" d="M59.95,44.91c0,4.28-1.45,17.24-4.09,18.75M61.59,45.11c-.27,4.87.15,16.24,2.79,18.22M59.47,44.91c-.09.76-2.94,16.29-11.89,16.49,0,0-.34,3.9,2.6,3.9s5.68-1.64,5.68-1.64c0,0,1.88,3.83,3.83,3.83s4.31-3.37,4.69-4.16c.91.77,3.95,2.31,5.97,1.59,2.02-.72,2.65-3.56,2.65-3.56-3.27.43-11.02-5.5-11.21-16.44h-2.31ZM60.47,23.21c.63,3.35,3.91,9.73,3.91,14.79s-2.34,5.56-4.05,6.91c-1.57-1.41-3.78-2.33-3.78-6.91s3.11-11.28,3.91-14.79ZM60.33,23.21c3.13,0,9.19,9.73,9.19,14.79v1.32c0,3.07-2.51,5.59-5.59,5.59h-7.21c-3.07,0-5.59-2.51-5.59-5.59v-1.32c0-4.41,5.59-14.79,9.19-14.79ZM57.3,1.25h6.32v15.53c0,1.74-1.42,6.43-3.16,6.43s-3.16-4.69-3.16-6.43V1.25ZM50.98,1.25h18.36v15.26c0,3.69-3.02,6.71-6.71,6.71h-4.95c-3.69,0-6.71-3.02-6.71-6.71V1.25ZM13.63,44.91c0,4.28-1.45,17.24-4.09,18.75M15.27,45.11c-.27,4.87.15,16.24,2.79,18.22M13.15,44.91c-.09.76-2.94,16.29-11.89,16.49,0,0-.34,3.9,2.6,3.9s5.68-1.64,5.68-1.64c0,0,1.88,3.83,3.83,3.83s4.31-3.37,4.69-4.16c.91.77,3.95,2.31,5.97,1.59,2.02-.72,2.65-3.56,2.65-3.56-3.27.43-11.02-5.5-11.21-16.44h-2.31ZM14.15,23.21c.63,3.35,3.91,9.73,3.91,14.79s-2.34,5.56-4.05,6.91c-1.57-1.41-3.78-2.33-3.78-6.91s3.11-11.28,3.91-14.79ZM14.02,23.21c3.13,0,9.19,9.73,9.19,14.79v1.32c0,3.07-2.52,5.59-5.59,5.59h-7.21c-3.07,0-5.59-2.51-5.59-5.59v-1.32c0-4.41,5.59-14.79,9.19-14.79ZM10.98,1.25h6.32v15.53c0,1.74-1.42,6.43-3.16,6.43s-3.16-4.69-3.16-6.43V1.25ZM4.66,1.25h18.36v15.26c0,3.69-3.02,6.71-6.71,6.71h-4.95c-3.69,0-6.71-3.02-6.71-6.71V1.25ZM29.11,65.13h15.87M30.65,60.36h12.8M26.28,6.4h21.4M26.41,1.4h21.65"/>
  </g>
</svg>