<?xml version="1.0" encoding="UTF-8"?>
<svg id="Layer_2" data-name="Layer 2" xmlns="http://www.w3.org/2000/svg" viewBox="0 0 71.17 68.48">
  <defs>
    <style>
      .cls-1 {
        fill-rule: evenodd;
      }

      .cls-1, .cls-2, .cls-3, .cls-4 {
        stroke: #000;
      }

      .cls-1, .cls-3 {
        fill: #2b2a29;
        stroke-miterlimit: 10;
      }

      .cls-2 {
        stroke-miterlimit: 22.93;
      }

      .cls-2, .cls-4 {
        fill: none;
        stroke-linecap: round;
        stroke-width: 2.5px;
      }

      .cls-4 {
        stroke-linejoin: round;
      }
    </style>
  </defs>
  <g id="Layer_1-2" data-name="Layer 1">
    <g>
      <polyline class="cls-2" points="2.58 59.59 2.58 67.23 68.75 67.23 68.75 59.59"/>
      <polyline class="cls-2" points="7.61 58.09 7.61 62.8 63.12 62.8 63.12 58.29"/>
      <path class="cls-1" d="M13.05,17c.85,0,1.53.69,1.53,1.53s-.69,1.53-1.53,1.53-1.53-.69-1.53-1.53.69-1.53,1.53-1.53Z"/>
      <path class="cls-4" d="M13.05,17c.85,0,1.53.69,1.53,1.53s-.69,1.53-1.53,1.53-1.53-.69-1.53-1.53.69-1.53,1.53-1.53Z"/>
      <path class="cls-1" d="M7.65,24.93c.85,0,1.53.69,1.53,1.53s-.69,1.53-1.53,1.53-1.53-.69-1.53-1.53.69-1.53,1.53-1.53Z"/>
      <path class="cls-4" d="M7.65,24.93c.85,0,1.53.69,1.53,1.53s-.69,1.53-1.53,1.53-1.53-.69-1.53-1.53.69-1.53,1.53-1.53Z"/>
      <path class="cls-1" d="M2.78,11.38c.85,0,1.53.69,1.53,1.53s-.69,1.53-1.53,1.53-1.53-.69-1.53-1.53.69-1.53,1.53-1.53Z"/>
      <path class="cls-4" d="M2.78,11.38c.85,0,1.53.69,1.53,1.53s-.69,1.53-1.53,1.53-1.53-.69-1.53-1.53.69-1.53,1.53-1.53Z"/>
      <path class="cls-4" d="M24.29,11.71c.85,0,1.53.69,1.53,1.53s-.69,1.53-1.53,1.53-1.53-.69-1.53-1.53.69-1.53,1.53-1.53Z"/>
      <path class="cls-1" d="M18.56,27.25c.85,0,1.53.69,1.53,1.53s-.69,1.53-1.53,1.53-1.53-.69-1.53-1.53.69-1.53,1.53-1.53Z"/>
      <path class="cls-4" d="M18.56,27.25c.85,0,1.53.69,1.53,1.53s-.69,1.53-1.53,1.53-1.53-.69-1.53-1.53.69-1.53,1.53-1.53Z"/>
      <path class="cls-1" d="M30.01,23.72c.85,0,1.53.69,1.53,1.53s-.69,1.53-1.53,1.53-1.53-.69-1.53-1.53.69-1.53,1.53-1.53Z"/>
      <path class="cls-4" d="M30.01,23.72c.85,0,1.53.69,1.53,1.53s-.69,1.53-1.53,1.53-1.53-.69-1.53-1.53.69-1.53,1.53-1.53Z"/>
      <path class="cls-1" d="M35.52,15.24c.85,0,1.53.69,1.53,1.53s-.69,1.53-1.53,1.53-1.53-.69-1.53-1.53.69-1.53,1.53-1.53Z"/>
      <path class="cls-4" d="M35.52,15.24c.85,0,1.53.69,1.53,1.53s-.69,1.53-1.53,1.53-1.53-.69-1.53-1.53.69-1.53,1.53-1.53Z"/>
      <path class="cls-1" d="M41.07,25.26c.85,0,1.53.69,1.53,1.53s-.69,1.53-1.53,1.53-1.53-.69-1.53-1.53.69-1.53,1.53-1.53Z"/>
      <path class="cls-4" d="M41.07,25.26c.85,0,1.53.69,1.53,1.53s-.69,1.53-1.53,1.53-1.53-.69-1.53-1.53.69-1.53,1.53-1.53Z"/>
      <circle class="cls-3" cx="63.14" cy="15.46" r="1.53"/>
      <circle class="cls-4" cx="63.14" cy="15.46" r="1.53"/>
      <path class="cls-1" d="M68.39,22.1c.85,0,1.53.69,1.53,1.53s-.69,1.53-1.53,1.53-1.53-.69-1.53-1.53.69-1.53,1.53-1.53Z"/>
      <path class="cls-4" d="M68.39,22.1c.85,0,1.53.69,1.53,1.53s-.69,1.53-1.53,1.53-1.53-.69-1.53-1.53.69-1.53,1.53-1.53Z"/>
      <path class="cls-1" d="M46.66,19.4c.85,0,1.53.69,1.53,1.53s-.69,1.53-1.53,1.53-1.53-.69-1.53-1.53.69-1.53,1.53-1.53Z"/>
      <path class="cls-4" d="M46.66,19.4c.85,0,1.53.69,1.53,1.53s-.69,1.53-1.53,1.53-1.53-.69-1.53-1.53.69-1.53,1.53-1.53Z"/>
      <path class="cls-1" d="M52.01,9.24c.85,0,1.53.69,1.53,1.53s-.69,1.53-1.53,1.53-1.53-.69-1.53-1.53.69-1.53,1.53-1.53Z"/>
      <path class="cls-4" d="M52.01,9.24c.85,0,1.53.69,1.53,1.53s-.69,1.53-1.53,1.53-1.53-.69-1.53-1.53.69-1.53,1.53-1.53Z"/>
      <path class="cls-1" d="M57.6,24.34c.85,0,1.53.69,1.53,1.53s-.69,1.53-1.53,1.53-1.53-.69-1.53-1.53.69-1.53,1.53-1.53Z"/>
      <path class="cls-4" d="M57.6,24.34c.85,0,1.53.69,1.53,1.53s-.69,1.53-1.53,1.53-1.53-.69-1.53-1.53.69-1.53,1.53-1.53Z"/>
      <path class="cls-4" d="M13.05,38.48c.85,0,1.53.69,1.53,1.53s-.69,1.53-1.53,1.53-1.53-.69-1.53-1.53.69-1.53,1.53-1.53Z"/>
      <path class="cls-1" d="M7.65,46.41c.85,0,1.53.69,1.53,1.53s-.69,1.53-1.53,1.53-1.53-.69-1.53-1.53.69-1.53,1.53-1.53Z"/>
      <path class="cls-4" d="M7.65,46.41c.85,0,1.53.69,1.53,1.53s-.69,1.53-1.53,1.53-1.53-.69-1.53-1.53.69-1.53,1.53-1.53Z"/>
      <path class="cls-1" d="M2.78,32.86c.85,0,1.53.69,1.53,1.53s-.69,1.53-1.53,1.53-1.53-.69-1.53-1.53.69-1.53,1.53-1.53Z"/>
      <path class="cls-4" d="M2.78,32.86c.85,0,1.53.69,1.53,1.53s-.69,1.53-1.53,1.53-1.53-.69-1.53-1.53.69-1.53,1.53-1.53Z"/>
      <path class="cls-4" d="M24.29,33.19c.85,0,1.53.69,1.53,1.53s-.69,1.53-1.53,1.53-1.53-.69-1.53-1.53.69-1.53,1.53-1.53Z"/>
      <path class="cls-4" d="M18.56,48.72c.85,0,1.53.69,1.53,1.53s-.69,1.53-1.53,1.53-1.53-.69-1.53-1.53.69-1.53,1.53-1.53Z"/>
      <path class="cls-1" d="M30.01,45.2c.85,0,1.53.69,1.53,1.53s-.69,1.53-1.53,1.53-1.53-.69-1.53-1.53.69-1.53,1.53-1.53Z"/>
      <path class="cls-4" d="M30.01,45.2c.85,0,1.53.69,1.53,1.53s-.69,1.53-1.53,1.53-1.53-.69-1.53-1.53.69-1.53,1.53-1.53Z"/>
      <path class="cls-1" d="M35.52,36.72c.85,0,1.53.69,1.53,1.53s-.69,1.53-1.53,1.53-1.53-.69-1.53-1.53.69-1.53,1.53-1.53Z"/>
      <path class="cls-4" d="M35.52,36.72c.85,0,1.53.69,1.53,1.53s-.69,1.53-1.53,1.53-1.53-.69-1.53-1.53.69-1.53,1.53-1.53Z"/>
      <path class="cls-1" d="M41.07,44.76c.85,0,1.53.69,1.53,1.53s-.69,1.53-1.53,1.53-1.53-.69-1.53-1.53.69-1.53,1.53-1.53Z"/>
      <path class="cls-4" d="M41.07,44.76c.85,0,1.53.69,1.53,1.53s-.69,1.53-1.53,1.53-1.53-.69-1.53-1.53.69-1.53,1.53-1.53Z"/>
      <path class="cls-1" d="M63.14,33.43c.85,0,1.53.69,1.53,1.53s-.69,1.53-1.53,1.53-1.53-.69-1.53-1.53.69-1.53,1.53-1.53Z"/>
      <path class="cls-4" d="M63.14,33.43c.85,0,1.53.69,1.53,1.53s-.69,1.53-1.53,1.53-1.53-.69-1.53-1.53.69-1.53,1.53-1.53Z"/>
      <path class="cls-1" d="M68.39,46.09c.85,0,1.53.69,1.53,1.53s-.69,1.53-1.53,1.53-1.53-.69-1.53-1.53.69-1.53,1.53-1.53Z"/>
      <path class="cls-4" d="M68.39,46.09c.85,0,1.53.69,1.53,1.53s-.69,1.53-1.53,1.53-1.53-.69-1.53-1.53.69-1.53,1.53-1.53Z"/>
      <path class="cls-1" d="M46.66,48.26c.85,0,1.53.69,1.53,1.53s-.69,1.53-1.53,1.53-1.53-.69-1.53-1.53.69-1.53,1.53-1.53Z"/>
      <path class="cls-4" d="M46.66,48.26c.85,0,1.53.69,1.53,1.53s-.69,1.53-1.53,1.53-1.53-.69-1.53-1.53.69-1.53,1.53-1.53Z"/>
      <path class="cls-1" d="M52.01,35.28c.85,0,1.53.69,1.53,1.53s-.69,1.53-1.53,1.53-1.53-.69-1.53-1.53.69-1.53,1.53-1.53Z"/>
      <path class="cls-4" d="M52.01,35.28c.85,0,1.53.69,1.53,1.53s-.69,1.53-1.53,1.53-1.53-.69-1.53-1.53.69-1.53,1.53-1.53Z"/>
      <path class="cls-1" d="M57.6,42.78c.85,0,1.53.69,1.53,1.53s-.69,1.53-1.53,1.53-1.53-.69-1.53-1.53.69-1.53,1.53-1.53Z"/>
      <path class="cls-4" d="M57.6,42.78c.85,0,1.53.69,1.53,1.53s-.69,1.53-1.53,1.53-1.53-.69-1.53-1.53.69-1.53,1.53-1.53Z"/>
      <rect class="cls-4" x="2.41" y="1.25" width="65.59" height="6.03"/>
      <line class="cls-4" x1="2.78" y1="54.25" x2="2.78" y2="7.28"/>
      <line class="cls-4" x1="24.29" y1="54.25" x2="24.29" y2="7.28"/>
      <line class="cls-4" x1="52.08" y1="54.25" x2="52.08" y2="7.28"/>
      <line class="cls-4" x1="46.6" y1="54.25" x2="46.6" y2="7.28"/>
      <line class="cls-4" x1="7.58" y1="54.25" x2="7.58" y2="7.28"/>
      <line class="cls-4" x1="29.93" y1="54.25" x2="29.93" y2="7.28"/>
      <line class="cls-4" x1="57.71" y1="54.25" x2="57.71" y2="7.28"/>
      <line class="cls-4" x1="13.04" y1="54.25" x2="13.04" y2="7.28"/>
      <line class="cls-4" x1="35.54" y1="54.25" x2="35.54" y2="7.28"/>
      <line class="cls-4" x1="63.25" y1="54.25" x2="63.25" y2="7.28"/>
      <line class="cls-4" x1="18.56" y1="54.25" x2="18.56" y2="7.28"/>
      <line class="cls-4" x1="41.06" y1="54.25" x2="41.06" y2="7.28"/>
      <line class="cls-4" x1="68" y1="54.25" x2="68" y2="7.28"/>
    </g>
  </g>
</svg>