<?xml version="1.0" encoding="UTF-8"?>
<svg id="Layer_2" data-name="Layer 2" xmlns="http://www.w3.org/2000/svg" viewBox="0 0 72.69 66.99">
  <defs>
    <style>
      .cls-1 {
        fill: none;
        stroke: #000;
        stroke-linecap: round;
        stroke-linejoin: round;
        stroke-width: 2.5px;
      }
    </style>
  </defs>
  <g id="Layer_1-2" data-name="Layer 1">
    <path class="cls-1" d="M67.4,59.23v-24.74M5.5,59.23v-24.88M34.28,44.44l-24.97,10.45M34.28,39l-24.97,10.45M34.47,34.47v19.86c0,.53-.44.98-.98.98H10.28c-.54,0-.98-.45-.98-.98v-19.86M1.25,59.23h70.19v6.51H1.25v-6.51ZM63.39,44.44l-24.97,10.45M63.58,34.46v19.87c0,.53-.44.98-.98.98h-23.21c-.54,0-.98-.45-.98-.98v-19.84M3.16,28.84h66.34M3.16,23.21h66.34M3.16,17.7l66.38-.03M3.16,12.51h66.34M3.16,7h66.34s0,26.8,0,26.8c0,.33-.29.62-.62.62H3.78c-.33,0-.62-.28-.62-.62V7ZM3.16,1.26h66.34s0,5.12,0,5.12c0,.32-.31.62-.62.62H3.78c-.32,0-.62-.28-.62-.62V1.26Z"/>
  </g>
</svg>