<?xml version="1.0" encoding="UTF-8"?>
<svg id="Layer_2" data-name="Layer 2" xmlns="http://www.w3.org/2000/svg" viewBox="0 0 67.67 67.9">
  <defs>
    <style>
      .cls-1 {
        fill: none;
        stroke: #000;
        stroke-linecap: round;
        stroke-linejoin: round;
        stroke-width: 2.5px;
      }
    </style>
  </defs>
  <g id="Layer_1-2" data-name="Layer 1">
    <path class="cls-1" d="M1.35,41.95s1.73-2.62,4.26-2.62,4.27,2.38,4.27,2.38c0,0,1.63-2.32,4.02-2.32s3.91,2.57,3.91,2.57c0,0,1.46-2.77,4.03-2.77s4.27,2.77,4.27,2.77c0,0,1.64-2.31,4-2.31s4.08,2.31,4.08,2.31c0,0,.72-2.24,3.88-2.24s4.04,2.24,4.04,2.24c0,0,.9-2.82,3.86-2.82s4.21,2.82,4.21,2.82c0,0,1.39-2.44,4.23-2.44s3.7,2.44,3.7,2.44c0,0,1.66-2.44,4.23-2.44s3.77,2.44,3.77,2.44M66.41,41.95v-13.36M58.11,41.95v-13.36M50.19,41.95v-13.36M42.11,41.95v-13.36M34.18,41.95v-13.36M26.1,41.95v-13.36M17.8,41.95v-13.36M9.87,41.8v-13.21M1.25,41.95v-13.36M61.06,48.07v13.64H6.05v-14.67M1.3,45.44v21.21h65.1v-22.68M1.25,1.25h65.16v27.34H1.25V1.25Z"/>
  </g>
</svg>