<?xml version="1.0" encoding="UTF-8"?>
<svg id="Layer_2" data-name="Layer 2" xmlns="http://www.w3.org/2000/svg" viewBox="0 0 68.17 68.26">
  <defs>
    <style>
      .cls-1 {
        fill: #2b2a29;
        fill-rule: evenodd;
        stroke-miterlimit: 10;
      }

      .cls-1, .cls-2, .cls-3 {
        stroke: #000;
      }

      .cls-2 {
        stroke-miterlimit: 22.93;
      }

      .cls-2, .cls-3 {
        fill: none;
        stroke-linecap: round;
        stroke-width: 2.5px;
      }

      .cls-3 {
        stroke-linejoin: round;
      }
    </style>
  </defs>
  <g id="Layer_1-2" data-name="Layer 1">
    <g>
      <polyline class="cls-2" points="1.25 31.14 1.25 67.01 66.92 67.01 66.92 30.2"/>
      <polygon class="cls-2" points="66.92 23.76 66.92 1.25 1.25 1.25 1.25 23.58 6.17 29.23 20.47 14.92 34.15 28.47 48.01 14.61 62 28.59 66.92 23.76"/>
      <polyline class="cls-2" points="5.94 49.16 5.94 62.05 62.1 62.05 62.1 49.96"/>
      <rect class="cls-3" x="15.92" y="1.25" width="8.75" height="17.83"/>
      <rect class="cls-3" x="43.72" y="1.25" width="8.75" height="17.83"/>
      <line class="cls-3" x1="6.19" y1="35.02" x2="6.19" y2="28.98"/>
      <line class="cls-3" x1="34.16" y1="35.02" x2="34.16" y2="28.47"/>
      <line class="cls-3" x1="61.99" y1="35.02" x2="61.99" y2="28.79"/>
      <path class="cls-3" d="M34.25,36.88c.85,0,1.54,1.73,1.54,2.58v2.64h-3.08v-2.64c0-.85.69-2.58,1.54-2.58Z"/>
      <path class="cls-3" d="M62.08,36.88c.85,0,1.54,1.73,1.54,2.58v2.64h-3.08v-2.64c0-.85.69-2.58,1.54-2.58Z"/>
      <path class="cls-3" d="M6.42,36.88c.85,0,1.54,1.73,1.54,2.58v2.64h-3.08v-2.64c0-.85.69-2.58,1.54-2.58Z"/>
      <path class="cls-1" d="M34.16,34.55c.62,0,1.13.51,1.13,1.13s-.51,1.13-1.13,1.13-1.13-.51-1.13-1.13.51-1.13,1.13-1.13Z"/>
      <path class="cls-3" d="M34.16,34.55c.62,0,1.13.51,1.13,1.13s-.51,1.13-1.13,1.13-1.13-.51-1.13-1.13.51-1.13,1.13-1.13Z"/>
      <path class="cls-1" d="M61.99,34.55c.62,0,1.13.51,1.13,1.13s-.51,1.13-1.13,1.13-1.13-.51-1.13-1.13.51-1.13,1.13-1.13Z"/>
      <path class="cls-3" d="M61.99,34.55c.62,0,1.13.51,1.13,1.13s-.51,1.13-1.13,1.13-1.13-.51-1.13-1.13.51-1.13,1.13-1.13Z"/>
      <path class="cls-1" d="M6.34,34.55c.62,0,1.13.51,1.13,1.13s-.51,1.13-1.13,1.13-1.13-.51-1.13-1.13.51-1.13,1.13-1.13Z"/>
      <path class="cls-3" d="M6.34,34.55c.62,0,1.13.51,1.13,1.13s-.51,1.13-1.13,1.13-1.13-.51-1.13-1.13.51-1.13,1.13-1.13Z"/>
    </g>
  </g>
</svg>