<?xml version="1.0" encoding="UTF-8"?>
<svg id="Layer_2" data-name="Layer 2" xmlns="http://www.w3.org/2000/svg" viewBox="0 0 68.88 69.37">
  <defs>
    <style>
      .cls-1 {
        fill: none;
        stroke: #000;
        stroke-linecap: round;
        stroke-linejoin: round;
        stroke-width: 2.5px;
      }
    </style>
  </defs>
  <g id="Layer_1-2" data-name="Layer 1">
    <path class="cls-1" d="M8.35,67.38h51.99M12.21,61.86h43.94M42.87,1.25c-.52,10.59-.58,27.25,24.26,32.95M26.01,1.25c.52,10.59.58,27.25-24.26,32.95M50.65,1.25c-.52,10.59.49,24.57,16.6,33.07M18.23,1.25c.52,10.59-.49,24.57-16.6,33.07M59.04,1.25c-.52,10.59-.82,24.5,8.59,33.44M9.84,1.25c.52,10.59.82,24.5-8.59,33.44M67.4,34.46l-8.92,17.44M1.48,34.46l8.92,17.44M67.63,34.69l-5.09,23.58M1.25,34.69l5.09,23.58M67.63,68.12V1.25h-31.28c.08,1.76-2.74,16.94,5.43,23.8,8.18,6.86,17.58,11.02,25.46,9.27l-13.78,15.26s-.78,1.69,1.03,1.64c1.81-.05,4.01.11,4.12.99.11.88-3.07,2.8-2.09,3.95.99,1.15,1.75,1.79,3.8,1.64,2.05-.14,2.58.48,2.15,1.15-.43.67-2.87,2.21-2.12,3.87.75,1.66,7.28,5.31,7.28,5.31ZM1.25,68.12V1.25h31.28c.08,5.71,2.74,16.94-5.43,23.8-8.18,6.86-17.58,11.02-25.46,9.27l13.78,15.26s.78,1.69-1.03,1.64c-1.81-.05-4.01.11-4.12.99-.11.88,3.07,2.8,2.09,3.95-.99,1.15-1.75,1.79-3.8,1.64-2.05-.14-2.58.48-2.15,1.15.43.67,2.87,2.21,2.12,3.87-.75,1.66-7.28,5.31-7.28,5.31Z"/>
  </g>
</svg>