<?xml version="1.0" encoding="UTF-8"?>
<svg id="Layer_2" data-name="Layer 2" xmlns="http://www.w3.org/2000/svg" viewBox="0 0 69.04 69.07">
  <defs>
    <style>
      .cls-1 {
        fill: none;
        stroke: #000;
        stroke-linecap: round;
        stroke-miterlimit: 22.93;
        stroke-width: 2.5px;
      }
    </style>
  </defs>
  <g id="Layer_1-2" data-name="Layer 1">
    <path class="cls-1" d="M56.27,67.43c-3.3-.05-3.55-3.85-5.98-3.85s-2.79,3.9-5.38,3.9-2.49-3.6-5.07-3.6-2.39,3.3-4.98,3.3M33.14,1.25h23.12M44.67,1.36h23.12v66.18c-3.3-.05-3.55-3.85-5.98-3.85s-2.79,3.9-5.38,3.9-3.35-3.9-5.93-3.9-3.25,3.72-5.83,3.72M50.35,48.05V1.49M61.91,48.05V1.49M30.21,47.82V1.26M44.67,58.09V1.49M56.23,58.09V1.49M24.53,57.86V1.26M12.96,57.86V1.26M38.79,48.35V1.49M50.35,48.35V1.49M18.64,48.12V1.26M7.08,48.12V1.26M24.02,1.26h10.49v65.92c-2.69.1-1.65-3.83-5.1-3.83s-2.2,3.83-5.44,3.83M23.97,67.19c-2.69.1-2.03-3.83-5.48-3.83s-2.07,4.14-5.32,4.14-3.05-4.14-6.14-4.14-2.53,4.4-5.78,4.45V1.26h22.72"/>
  </g>
</svg>