<?xml version="1.0" encoding="UTF-8"?>
<svg id="Layer_2" data-name="Layer 2" xmlns="http://www.w3.org/2000/svg" viewBox="0 0 68.5 68.6">
  <defs>
    <style>
      .cls-1 {
        fill: none;
        stroke: #000;
        stroke-miterlimit: 22.93;
        stroke-width: 2.5px;
      }
    </style>
  </defs>
  <g id="Layer_1-2" data-name="Layer 1">
    <path class="cls-1" d="M15.96,1.25v29.79M52.45,1.95v28.79M11.33,1.25v38.01M57.11,1.77v37.11M6.03,1.25v45.56M62.38,1.77v44.66M21.46.78v27.55c0,1.6-5.52.6-5.52,2.71s2.31,3.41,2.31,5.22-6.92.2-6.92,3.01,1.91,2.61,1.91,4.41-7.22.3-7.22,2.61,2.31,3.01,2.31,5.11-6.72,3.31-6.72,3.31M46.98,1.43v26.91c0,1.6,5.52.6,5.52,2.71s-2.31,3.41-2.31,5.22,6.92.2,6.92,3.01-1.91,2.61-1.91,4.41,7.22.3,7.22,2.61-2.31,3.01-2.31,5.11,6.72,3.31,6.72,3.31M23.62,6.87h20.56M24.22,1.55h20.66M46.59,1.55h20.66v53.46M1.45,54.71V1.25h20.16M6.37,57.72v4.31h55.67v-4.61M1.25,59.93v7.42h65.7v-7.22"/>
  </g>
</svg>