<?xml version="1.0" encoding="UTF-8"?>
<svg id="Layer_2" data-name="Layer 2" xmlns="http://www.w3.org/2000/svg" viewBox="0 0 69.5 69.4">
  <defs>
    <style>
      .cls-1 {
        fill: none;
        stroke: #000;
        stroke-linecap: round;
        stroke-miterlimit: 22.93;
        stroke-width: 2.5px;
      }
    </style>
  </defs>
  <g id="Layer_1-2" data-name="Layer 1">
    <path class="cls-1" d="M56.77,15.74v28.78c0,2.24.95,2.34,2.27,2.34s2.54-.61,3.56.51c1.02,1.12-2.85,2.64-2.24,3.66.61,1.02,7.02.71,7.68,2.29M13.15,16.01v28.61c0,2.13-.98,2.75-2.3,2.54-1.32-.2-3.05-1.22-3.86.3-.81,1.53,2.44,1.63,2.03,3.36-.41,1.73-2.85,1.63-4.17,1.63s-3.6,1.33-3.6,1.33M62.6,47.87V9.94M6.99,47.46V10.16M14.36,1.25c.43,1.65,7.93,11.29,19.83,11.29S54.08,4.81,55.8,1.25M7.95,1.25c.43,1.65,8.44,16.45,26.24,16.45S60.11,4.81,61.84,1.25M1.35,1.25s9.16,21.85,32.85,21.85S66.32,4.81,68.04,1.25M21.12,1.25c2.85,3.51,8.08,5.59,14.28,5.59s11.18-2.54,13.12-5.59M1.25,53.77c.07-4.47.09-52.52.09-52.52h66.7v52.06M6.43,62.46h56.73M1.55,60.43v7.73h66.7v-8.34"/>
  </g>
</svg>