<?xml version="1.0" encoding="UTF-8"?>
<svg id="Layer_2" data-name="Layer 2" xmlns="http://www.w3.org/2000/svg" viewBox="0 0 68.81 67.97">
  <defs>
    <style>
      .cls-1 {
        fill: none;
        stroke: #000;
        stroke-miterlimit: 22.93;
        stroke-width: 2.5px;
      }
    </style>
  </defs>
  <g id="Layer_1-2" data-name="Layer 1">
    <path class="cls-1" d="M1.25,6.71h66.31M67.56,37.88c0,2.1-1.71,3.82-3.8,3.82H5.05c-2.09,0-3.8-1.72-3.8-3.82M67.56,43.69c0,2.1-1.71,3.82-3.8,3.82H5.05c-2.09,0-3.8-1.72-3.8-3.82M67.56,49.19c0,2.1-1.71,3.82-3.8,3.82H5.05c-2.09,0-3.8-1.72-3.8-3.82M1.25,2.01c0-.42.34-.76.76-.76h64.79c.42,0,.76.34.76.76M67.56,1.94v52.91c0,2.1-1.71,3.82-3.8,3.82H5.05c-2.09,0-3.8-1.72-3.8-3.82V1.94M6.51,60.34v1.72h56v-1.87M1.25,59.55v7.17h66.31v-7.57"/>
  </g>
</svg>