<?xml version="1.0" encoding="UTF-8"?>
<svg id="Layer_2" data-name="Layer 2" xmlns="http://www.w3.org/2000/svg" viewBox="0 0 68.94 68.82">
  <defs>
    <style>
      .cls-1 {
        fill: none;
        stroke: #000;
        stroke-linecap: round;
        stroke-miterlimit: 22.93;
        stroke-width: 2.5px;
      }
    </style>
  </defs>
  <g id="Layer_1-2" data-name="Layer 1">
    <path class="cls-1" d="M16.52,1.78c4.28,1.66,10.18,3.17,17.49,3.17s13.18-1.53,17.66-3.24M8.5,2.48s9.29,7.45,25.51,7.45,26.53-7.85,26.53-7.85M8.5,22.5s9.29,7.45,25.51,7.45,26.53-7.85,26.53-7.85M8.5,7.48s9.29,7.45,25.51,7.45,26.53-7.85,26.53-7.85M8.5,27.48s9.29,7.45,25.51,7.45,26.53-7.85,26.53-7.85M8.5,12.49s9.29,7.45,25.51,7.45,26.53-7.85,26.53-7.85M8.5,32.48s9.29,7.45,25.51,7.45,26.53-7.85,26.53-7.85M8.5,17.49s9.29,7.45,25.51,7.45,26.53-7.85,26.53-7.85M6.02,44.01v18.42h55.87v-19.02M1.49,40.95v26.61h65.93v-26.92M60.54,2.08v34.13l3.52,3.83,3.53-4.33V1.26M1.45,1.25v34.96s3.52,3.83,3.52,3.83l3.53-4.33V1.73M1.25,1.73h66.44"/>
  </g>
</svg>