<?xml version="1.0" encoding="UTF-8"?>
<svg id="Layer_2" data-name="Layer 2" xmlns="http://www.w3.org/2000/svg" viewBox="0 0 69.86 69.25">
  <defs>
    <style>
      .cls-1 {
        fill: none;
        stroke: #000;
        stroke-linecap: round;
        stroke-miterlimit: 22.93;
        stroke-width: 2.5px;
      }
    </style>
  </defs>
  <g id="Layer_1-2" data-name="Layer 1">
    <path class="cls-1" d="M46.2,1.25v15.26M24.02,1.25v15.26M1.25,15.7c3.64,12.07,17.89,13.28,22.77.51,4.21,13.35,18.36,12.32,22.18-.04,3.31,12.52,19.19,12.31,22.41.02M1.25,8.63c3.64,12.07,17.89,13.48,22.77.72,4.71,11.16,17.28,10.51,22.18.02,3.31,12.52,19.19,11.56,22.41-.74M1.25,1.25c3.63,12.04,17.72,12.82,22.62.15,0,0,.22,0,.34,0,2.8,10.44,16.47,11.02,21.83.03,0,0,.35,0,.37.01,3.31,12.52,18.98,12.1,22.19-.19M6.54,30.44v28.02h56.17v-27.57M1.45,22.44v45.56h66.95V22.44M1.25,15.7V1.25h67.36v14.93"/>
  </g>
</svg>