<?xml version="1.0" encoding="UTF-8"?>
<svg id="Layer_2" data-name="Layer 2" xmlns="http://www.w3.org/2000/svg" viewBox="0 0 72.92 67.2">
  <defs>
    <style>
      .cls-1 {
        fill: none;
        stroke: #000;
        stroke-linecap: round;
        stroke-linejoin: round;
        stroke-width: 2.5px;
      }
    </style>
  </defs>
  <g id="Layer_1-2" data-name="Layer 1">
    <path class="cls-1" d="M67.61,59.42V17.81M5.51,59.42V17.75M34.38,44.58l-25.05,10.49M34.38,39.13l-25.05,10.49M34.58,17.75v36.74c0,.54-.44.98-.98.98H10.31c-.54,0-.98-.46-.98-.98V17.75M1.25,59.42h70.42v6.53H1.25v-6.53ZM63.59,44.58l-25.05,10.49M63.78,17.82v36.68c0,.54-.44.98-.98.98h-23.28c-.54,0-.98-.46-.98-.98V17.81M3.16,12.37h66.55M3.16,6.73h66.55M3.16,1.26h66.55s0,15.88,0,15.88c0,.32-.31.63-.63.63H3.79c-.32,0-.63-.28-.63-.63V1.26Z"/>
  </g>
</svg>