<?xml version="1.0" encoding="UTF-8"?>
<svg id="Layer_2" data-name="Layer 2" xmlns="http://www.w3.org/2000/svg" viewBox="0 0 68.94 68.36">
  <defs>
    <style>
      .cls-1 {
        fill: none;
        stroke: #000;
        stroke-linecap: round;
        stroke-miterlimit: 22.93;
        stroke-width: 2.5px;
      }
    </style>
  </defs>
  <g id="Layer_1-2" data-name="Layer 1">
    <path class="cls-1" d="M16.52,1.32c4.28,1.66,10.18,3.17,17.49,3.17s13.18-1.53,17.66-3.24M8.5,2.02s9.29,7.45,25.51,7.45S60.54,1.61,60.54,1.61M8.5,37.03s9.29,7.45,25.51,7.45,26.53-7.85,26.53-7.85M8.5,22.04s9.29,7.45,25.51,7.45,26.53-7.85,26.53-7.85M8.5,7.02s9.29,7.45,25.51,7.45,26.53-7.85,26.53-7.85M8.5,42.03s9.29,7.45,25.51,7.45,26.53-7.85,26.53-7.85M8.5,27.02s9.29,7.45,25.51,7.45,26.53-7.85,26.53-7.85M8.5,12.03s9.29,7.45,25.51,7.45,26.53-7.85,26.53-7.85M8.5,47.04s9.29,7.45,25.51,7.45,26.53-7.85,26.53-7.85M8.5,32.02s9.29,7.45,25.51,7.45,26.53-7.85,26.53-7.85M8.5,17.03s9.29,7.45,25.51,7.45,26.53-7.85,26.53-7.85M6.02,57.44v4.53h55.87v-5.13M1.49,55.33v11.78h65.93v-12.08M60.54,1.47v48.36l3.52,3.83,3.53-4.33V1.27M1.45,1.47v48.99l3.52,3.83,3.53-4.33V1.27M1.25,1.27h66.44"/>
  </g>
</svg>