<?xml version="1.0" encoding="UTF-8"?>
<svg id="Layer_2" data-name="Layer 2" xmlns="http://www.w3.org/2000/svg" viewBox="0 0 68.16 68.6">
  <defs>
    <style>
      .cls-1 {
        fill: none;
        stroke: #000;
        stroke-linecap: round;
        stroke-miterlimit: 22.93;
        stroke-width: 2.5px;
      }
    </style>
  </defs>
  <g id="Layer_1-2" data-name="Layer 1">
    <path class="cls-1" d="M1.25,54.88c1.14-.2,9.49-.27,10.36-2.74.87-2.47-4.48-1.1-2.81-3.31,1.88-2.48,10.62.79,10.77-2.71.07-1.6-4.48-1-3.08-2.81,2.34-3,11.06.65,11.84-3.21.27-1.34-4.95-1.47-3.01-3.01,2.43-1.93,11.48.67,12.64-3.08.53-1.74-4.81-1.81-4.35-3.88M33.61,30.14V1.25M25.32,37.09V1.25M17.03,42.84V1.25M8.61,49.26V1.25M1.25,54.88V1.25h65.66v66.1H1.38v-6.95M6.33,59.16v3.21h55.23V6.79h-22.97"/>
  </g>
</svg>