<?xml version="1.0" encoding="UTF-8"?>
<svg id="Layer_2" data-name="Layer 2" xmlns="http://www.w3.org/2000/svg" viewBox="0 0 68.81 68.21">
  <defs>
    <style>
      .cls-1 {
        fill: none;
        stroke: #000;
        stroke-miterlimit: 22.93;
        stroke-width: 2.5px;
      }
    </style>
  </defs>
  <g id="Layer_1-2" data-name="Layer 1">
    <path class="cls-1" d="M1.25,6.96h66.31M67.56,9.86c0,2.1-1.71,3.82-3.8,3.82H5.05c-2.09,0-3.8-1.72-3.8-3.82M67.56,15.66c0,2.1-1.71,3.82-3.8,3.82H5.05c-2.09,0-3.8-1.72-3.8-3.82M67.56,21.17c0,2.1-1.71,3.82-3.8,3.82H5.05c-2.09,0-3.8-1.72-3.8-3.82M1.25,2.01c0-.42.34-.76.76-.76h64.79c.42,0,.76.34.76.76M66.8,1.27c.42,0,.76.34.76.76v24.79c0,2.1-1.71,3.82-3.8,3.82H5.05c-2.09,0-3.8-1.72-3.8-3.82V2.03c0-.42.34-.76.76-.76M6.51,36.01v26.3h56v-28.59M1.25,33.64v33.32h66.31v-34.05"/>
  </g>
</svg>