<?xml version="1.0" encoding="UTF-8"?>
<svg id="Layer_2" data-name="Layer 2" xmlns="http://www.w3.org/2000/svg" viewBox="0 0 69.01 69.53">
  <defs>
    <style>
      .cls-1 {
        fill: none;
        stroke: #000;
        stroke-linecap: round;
        stroke-miterlimit: 22.93;
        stroke-width: 2.5px;
      }
    </style>
  </defs>
  <g id="Layer_1-2" data-name="Layer 1">
    <path class="cls-1" d="M45.86,1.73v46.15M23.64,1.25v46.63M6.08,61.88v1.38h56.83v-1.25M1.26,59.63v8.65h66.46v-9.09M1.29,35.81V1.25h66.48v34.78M1.25,44.57v5.77c0,10.4,19.8,15.47,22.38-4.22,1.26,18.99,22.02,16.51,22.24.27,1.32,17.97,21.79,14.89,21.86,4.63.02-2.61,0-5.94,0-6.27M1.25,39.57v5.77c0,10.4,20.2,14.66,22.38-4.23,1.26,18.99,20.8,17.33,22.24.27,1.21,16.94,21.77,14.91,21.84,4.63.02-2.61,0-5.94,0-6.28M1.25,34.81v5.77c0,10.03,16.94,13.11,22.38.54,5.18,13.37,19.56,10.27,22.24.27,2.36,12.05,21.77,9.49,21.84-.14.02-2.61,0-5.94,0-6.28M1.25,34.81c0,10.9,17.5,14.83,22.38.54,3.95,12.68,19.44,10.71,22.24.27,2.26,13.07,21.87,9.07,21.84-.64"/>
  </g>
</svg>