<?xml version="1.0" encoding="UTF-8"?>
<svg id="Layer_2" data-name="Layer 2" xmlns="http://www.w3.org/2000/svg" viewBox="0 0 75.93 66.45">
  <defs>
    <style>
      .cls-1 {
        fill: none;
        stroke: #000;
        stroke-linecap: round;
        stroke-linejoin: round;
        stroke-width: 2.5px;
      }
    </style>
  </defs>
  <g id="Layer_1-2" data-name="Layer 1">
    <path class="cls-1" d="M5.07,45.05h65.75M5.07,39.79l65.79-.02M5.07,28.71h65.75M68.2,61.72h6.48v3.48H1.25v-3.48h7.08M5.07,6.72h65.75M5.07,56.13h65.75M5.07,50.48h65.75M70.82,61.11c0,.33-.29.62-.62.62H5.69c-.33,0-.62-.28-.62-.62V1.26s65.75,0,65.75,0v59.86ZM5.07,34.14l65.75-.03M5.07,23.17h65.75M5.07,17.57l65.79-.02M5.07,12.29h65.75"/>
  </g>
</svg>