<?xml version="1.0" encoding="UTF-8"?>
<svg id="Layer_2" data-name="Layer 2" xmlns="http://www.w3.org/2000/svg" viewBox="0 0 68.19 69.27">
  <defs>
    <style>
      .cls-1 {
        fill: none;
        stroke: #000;
        stroke-linecap: round;
        stroke-miterlimit: 22.93;
        stroke-width: 2.5px;
      }
    </style>
  </defs>
  <g id="Layer_1-2" data-name="Layer 1">
    <path class="cls-1" d="M47.63,18.44v5.89M53.16,18.44v12.98M21.08,18.38v6.47M15.76,18.29v13.13M57.78,16.55v23.1M11.13,16.22v23.43M63.09,10.82v36.38M5.83,10.61v36.58M26.78,16.77c0,2.11-.07,2.89-.07,4.69s-5.67.05-5.67,2.86,1.91,2.61,1.91,4.41c0,1.6-7.2.58-7.2,2.68s2.31,3.41,2.31,5.22-6.92.2-6.92,3.01,1.91,2.61,1.91,4.41-7.22.3-7.22,2.61,2.31,3.01,2.31,5.11-6.72,3.31-6.72,3.31M42.28,16.18c0,2.11-.11,3.48-.11,5.29s5.47.05,5.47,2.86-1.15,2.21-1.15,4.01c0,1.6,6.69.98,6.69,3.09s-2.31,3.41-2.31,5.22,6.92.2,6.92,3.01-1.91,2.61-1.91,4.41,7.22.3,7.22,2.61-2.31,3.01-2.31,5.11,6.14,3.31,6.14,3.31M5.83,1.72c.65,2.96,6.12,12.27,14.2,11.82s11.58-7.26,12.58-8.31M32.86,1.62s2.71.15,5.82,3.76c3.11,3.61,6.12,9.03,12.64,8.62,6.52-.4,10.33-7.92,11.74-12.39M28.29,1.62c3.11,1,6.87,6.57,10.08,10.68,3.21,4.11,7.17,7.12,14.94,6.12,7.77-1,13.01-13.38,13.39-14.14M1.61,2.24c.88,2.19,5.97,16.47,16.9,16.32,10.93-.15,16.99-8.35,17.33-9.55M66.94,55.09V1.25M66.94,1.72h-11M1.25,55.09V1.72h11s2.31,6.12,8.73,6.12,7.32-6.22,7.32-6.22h12.14s3.81,6.42,9.33,6.42,6.82-6.42,6.82-6.42M1.41,59.69v8.32h65.36v-8.22M5.83,62.4h56.57"/>
  </g>
</svg>