<?xml version="1.0" encoding="UTF-8"?>
<svg id="Layer_2" data-name="Layer 2" xmlns="http://www.w3.org/2000/svg" viewBox="0 0 69.17 68.31">
  <defs>
    <style>
      .cls-1 {
        fill: none;
        stroke: #000;
        stroke-linecap: round;
        stroke-miterlimit: 22.93;
        stroke-width: 2.5px;
      }
    </style>
  </defs>
  <g id="Layer_1-2" data-name="Layer 1">
    <path class="cls-1" d="M62.91,24.79v-7.98M59.06,24.05v-7.94M54.27,22.9v-7.96M45.7,22.77v-7.93M41.31,24.66v-8.71M36.85,25.06v-8.48M31.99,24.86v-7.93M27.74,24.12v-7.85M23.56,22.97v-8.18M14.58,22.97v-7.61M10.46,24.12v-7.74M6.21,24.93v-8.18M19.03,20.81v-7.9M50.01,20.34v-7.85M6.25,29.43v32.47l56.43.16-.14-33.26M1.25,24.86v42.2h66.67V25.54M1.28,16.22V1.25h66.62v14.76M1.28,16.62c4.37.62,14.08-.12,17.8-4.1,2.35,1.31,6.33,4.03,15.44,4.03s12.87-2.72,15.48-4.39c2.78,2.17,10.42,5.47,17.89,4.05"/>
  </g>
</svg>