<?xml version="1.0" encoding="UTF-8"?>
<svg id="Layer_2" data-name="Layer 2" xmlns="http://www.w3.org/2000/svg" viewBox="0 0 69 69.53">
  <defs>
    <style>
      .cls-1 {
        fill: none;
        stroke: #000;
        stroke-linecap: round;
        stroke-miterlimit: 22.93;
        stroke-width: 2.5px;
      }
    </style>
  </defs>
  <g id="Layer_1-2" data-name="Layer 1">
    <path class="cls-1" d="M45.84,1.25v18.83M23.63,1.25v18.3M6.06,33.48v29.78h56.83v-28.97M1.25,28.62v39.66h66.46V28.6M1.27,20.77V1.25h66.48v19.64M1.27,15.26v5.77c0,10.4,19.8,15.47,22.38-4.22,1.26,18.99,22.02,16.51,22.24.27,1.32,17.97,21.79,14.89,21.86,4.63.02-2.61,0-5.94,0-6.28M1.27,10.26v5.77c0,10.4,20.18,14.64,22.36-4.23,0,0,0,0,0,0,1.26,18.98,20.76,17.32,22.2.27,0,0,.01,0,.02,0,1.21,16.94,21.81,14.91,21.87,4.64.02-2.61,0-5.94,0-6.28M1.27,5.5v5.77c0,10.03,16.91,13.1,22.36.54t0,0c5.17,13.37,19.52,10.26,22.2.27,0,0,.01,0,.01,0,2.36,12.05,21.81,9.49,21.87-.13.02-2.61,0-5.94,0-6.28M1.27,5.5c0,10.9,17.48,14.82,22.36.54,0,0,0,0,.01,0,3.95,12.67,19.38,10.69,22.2.27,0,0,.02,0,.02,0,2.26,13.07,21.9,9.07,21.87-.64"/>
  </g>
</svg>