<?xml version="1.0" encoding="UTF-8"?>
<svg id="Layer_2" data-name="Layer 2" xmlns="http://www.w3.org/2000/svg" viewBox="0 0 68.04 68.32">
  <defs>
    <style>
      .cls-1 {
        fill: none;
        stroke: #000;
        stroke-linecap: round;
        stroke-linejoin: round;
        stroke-width: 2.5px;
      }
    </style>
  </defs>
  <g id="Layer_1-2" data-name="Layer 1">
    <path class="cls-1" d="M61.57,58.56v3.33H6.23v-3.19M1.25,55.53v11.54h65.29v-11.54M1.29,7.37l4.6,6.39-4.62,5.59,4.55,5.19-4.56,5.59,4.69,5.59-4.69,5.19,4.73,5.83-4.65,5.19M66.55,7.37l-3.79,6.39,3.88,5.56-3.88,5.21,3.9,5.59-3.9,5.59,3.99,5.19-3.95,5.83,3.99,5.19M1.34,51.92h65.45M1.3,40.9h65.45M5.99,46.73h56.81M5.95,35.71h56.81M1.83,30.12h64.79M5.82,24.53h56.94M2.09,19.34h63.99M5.88,13.76h56.87M1.25,1.25h65.3v6.12H1.25V1.25Z"/>
  </g>
</svg>