<?xml version="1.0" encoding="UTF-8"?>
<svg id="Layer_2" data-name="Layer 2" xmlns="http://www.w3.org/2000/svg" viewBox="0 0 69.72 69.87">
  <defs>
    <style>
      .cls-1, .cls-2 {
        stroke-miterlimit: 22.93;
      }

      .cls-1, .cls-2, .cls-3 {
        fill: none;
        stroke: #000;
        stroke-linecap: round;
        stroke-width: 2.5px;
      }

      .cls-2 {
        stroke-dasharray: 2.5 7.5;
      }

      .cls-3 {
        stroke-linejoin: round;
      }
    </style>
  </defs>
  <g id="Layer_1-2" data-name="Layer 1">
    <g>
      <rect class="cls-3" x="1.25" y="1.25" width="67.22" height="4.68"/>
      <line class="cls-1" x1="1.25" y1="67.92" x2="1.25" y2="5.93"/>
      <line class="cls-1" x1="6.63" y1="68.62" x2="6.63" y2="5.93"/>
      <line class="cls-1" x1="12.86" y1="68.06" x2="12.86" y2="5.93"/>
      <line class="cls-1" x1="18.8" y1="68.06" x2="18.8" y2="5.93"/>
      <line class="cls-1" x1="36.91" y1="68.06" x2="36.91" y2="5.93"/>
      <line class="cls-1" x1="24.88" y1="68.34" x2="24.88" y2="5.93"/>
      <line class="cls-1" x1="43" y1="68.34" x2="43" y2="5.93"/>
      <line class="cls-1" x1="31.25" y1="68.34" x2="31.25" y2="5.93"/>
      <line class="cls-1" x1="49.37" y1="68.34" x2="49.37" y2="5.93"/>
      <line class="cls-1" x1="55.03" y1="68.48" x2="55.03" y2="5.93"/>
      <polyline class="cls-1" points="57.68 63.11 62.95 63.11 62.95 54.33"/>
      <polyline class="cls-1" points="58.86 68.06 68.47 68.06 68.47 1.25"/>
      <line class="cls-1" x1="63.03" y1="5.93" x2="63.03" y2="41.52"/>
      <line class="cls-2" x1="57.22" y1="41.38" x2="57.22" y2="5.93"/>
      <path class="cls-3" d="M63.1,41.81h.14c1.13,0,2.05.92,2.05,2.05v5.52c0,1.13-.92,2.05-2.05,2.05h-.14c-1.13,0-2.05-.92-2.05-2.05v-5.52c0-1.13.92-2.05,2.05-2.05Z"/>
    </g>
  </g>
</svg>