<?xml version="1.0" encoding="UTF-8"?>
<svg id="Layer_2" data-name="Layer 2" xmlns="http://www.w3.org/2000/svg" viewBox="0 0 67.64 67.69">
  <defs>
    <style>
      .cls-1 {
        fill: none;
        stroke: #000;
        stroke-linecap: round;
        stroke-miterlimit: 22.93;
        stroke-width: 2.5px;
      }
    </style>
  </defs>
  <g id="Layer_1-2" data-name="Layer 1">
    <path class="cls-1" d="M5.9,34.67v26.85h55.7v-26.06M59.11,11.93V1.25M41.75,11.93V1.25M33.5,11.93V1.25M26.4,11.93V1.25M44.96,26.9v-7.96M40.6,29.55v-8.45M35.98,30.8v-8.57M31.24,30.64v-8.29M26.62,29.18v-8.2M22.07,26.94v-8.15M49.78,23.59v-8.85M17.34,23.59v-8.85M53.74,27.12v-8.85M13.76,26.34v-8.07M57.6,29.2v-8.6M10.12,28.74v-8.18M61.54,30.47v-8.36M6.19,30.47v-8.7M8.01,11.93V1.25M1.25,22.52c1.03,0,7.51-.76,11-3.06,3.49-2.29,7.42-7.53,7.42-7.53l-2.49-10.68h-.06l-2.15,10.25s6,10.8,18.55,10.8,18.66-10.58,18.66-10.58l-2.45-10.47h-.09l-2.26,10.79s9.53,12,19,10.25M1.25,30.48V1.25h65.14v30.16M1.25,34.88v31.56h65.14v-32.49"/>
  </g>
</svg>