<?xml version="1.0" encoding="UTF-8"?>
<svg id="Layer_2" data-name="Layer 2" xmlns="http://www.w3.org/2000/svg" viewBox="0 0 67.64 67.69">
  <defs>
    <style>
      .cls-1 {
        fill: none;
        stroke: #000;
        stroke-linecap: round;
        stroke-miterlimit: 22.93;
        stroke-width: 2.5px;
      }
    </style>
  </defs>
  <g id="Layer_1-2" data-name="Layer 1">
    <path class="cls-1" d="M49.62,21.18V1.25M17.15,21.18V1.25M5.9,55.01v6.51h55.7v-5.71M59.11,31.15V1.48M41.75,31.15V1.48M33.5,31.15V1.48M26.4,31.15V1.48M44.96,46.12v-7.96M40.6,48.77v-8.45M35.98,50.01v-8.57M31.24,49.86v-8.29M26.62,48.39v-8.2M22.07,46.16v-8.15M49.78,42.81v-8.85M17.34,42.81v-8.85M53.74,46.34v-8.85M13.76,45.56v-8.07M57.6,48.42v-8.59M10.12,47.96v-8.18M61.54,49.69v-8.36M6.19,49.69v-8.7M8.01,31.15V1.48M1.25,41.73c1.03,0,7.51-.76,11-3.05,3.49-2.29,7.42-7.53,7.42-7.53l-2.49-10.69h-.06l-2.15,10.25s6,10.8,18.55,10.8,18.66-10.58,18.66-10.58l-2.45-10.47h-.09l-2.26,10.79s9.53,12,19,10.25M1.25,49.69V1.25h65.14v49.37M1.25,55.22v11.21h65.14v-12.14"/>
  </g>
</svg>