<?xml version="1.0" encoding="UTF-8"?>
<svg id="Layer_2" data-name="Layer 2" xmlns="http://www.w3.org/2000/svg" viewBox="0 0 69.2 68.79">
  <defs>
    <style>
      .cls-1 {
        fill: none;
        stroke: #000;
        stroke-linecap: round;
        stroke-miterlimit: 22.93;
        stroke-width: 2.5px;
      }
    </style>
  </defs>
  <g id="Layer_1-2" data-name="Layer 1">
    <path class="cls-1" d="M1.28,1.32c1.64,2.64,5.9,4.35,9.17,3.91,3.63-.48,4.96-2.8,5.32-3.93M1.28,1.32c1.37,4.52,8.84,7.1,14.39,6.52,8.61-.89,10.83-5.42,11.18-6.55M1.28,1.32c1.8,11.06,16.64,10.59,22.07,9.33,11.62-2.7,13.7-8.24,14.06-9.36M1.28,1.32c.5,3.07,4.01,6.8,9.3,9.54,5.3,2.74,12.36,4.34,19.92,2.86,15.12-2.96,17.98-11.32,18.33-12.45M1.28,1.32c1,6.15,14.05,22.09,32.83,17.41C52.89,14.05,57.97,2.39,58.32,1.26M1.25,1.32c1,6.15,14.35,24.32,38.07,20.51,23.72-3.81,28.63-20.57,28.63-20.57M1.25,1.32l66.7-.07M7.13,16.22v45.98h55.33V15.42M1.79,9.8v57.74h65.49V9.8"/>
  </g>
</svg>