<?xml version="1.0" encoding="UTF-8"?>
<svg id="Layer_2" data-name="Layer 2" xmlns="http://www.w3.org/2000/svg" viewBox="0 0 69.93 68.69">
  <defs>
    <style>
      .cls-1 {
        fill: none;
        stroke: #000;
        stroke-miterlimit: 22.93;
        stroke-width: 2.5px;
      }
    </style>
  </defs>
  <g id="Layer_1-2" data-name="Layer 1">
    <path class="cls-1" d="M49.2,9.14c6.4,2,13.99-3.88,14.39-7.89M21.59,9.24c-6.3,1.95-13.91-3.58-14.66-7.98M41.07.93c-.82,5.53-9.57,6.29-11.42.05M47.82,1.25c-1.79,12.07-20.88,13.72-24.91.11M51.66,4.55c2.46.57,4.42-.66,5.45-3.3M19.32,4.55c-2.46.57-4.41.09-5.51-3.3M67.26,1.25c-1.7,11.86-13.54,15.81-21.85,11.79M1.43,1.25s0,0,0,0c3.7,11.74,16.13,15.7,23.95,11.98M67.59,1.25l1.05,38.9c-3.27-.58-4.45-2.4-5.04-5.61-.28-1.53,3.66-1.42,3.65-2.44-.21-1.65-4.78-1.13-4.73-2.94.06-1.81,3.14-1.99,3.25-3.8.11-1.81-4.73-.34-4.5-2.6.22-2.16,5.73-19.84,6.25-21.51h.06ZM1.43,1.25l-.09,38.89c2.14-.89,4.23-2.09,4.87-5.57.28-1.53-3.49-1.97-3.48-2.99.21-1.65,4.95-1.18,4.9-2.99-.06-1.81-3.48-1.36-3.59-3.18-.11-1.81,4.44-1.92,4.22-4.19C8.02,18.98,1.53,1.51,1.44,1.25h0ZM52.39,1.58c-1.47,8.17-7.97,14.62-17.71,14.62S19.43,8.31,18.6,1.25M1.43,1.25h66.16M62.26,42.5v20.25H6.54v-20.67M1.25,44.79v22.65h66.26v-22.77"/>
  </g>
</svg>