<?xml version="1.0" encoding="UTF-8"?>
<svg id="Layer_2" data-name="Layer 2" xmlns="http://www.w3.org/2000/svg" viewBox="0 0 60.23 58.84">
  <defs>
    <style>
      .cls-1 {
        stroke-miterlimit: 10;
      }

      .cls-1, .cls-2, .cls-3 {
        fill: none;
        stroke: #141313;
        stroke-width: 2.5px;
      }

      .cls-2 {
        stroke-linecap: round;
      }

      .cls-2, .cls-3 {
        stroke-linejoin: round;
      }
    </style>
  </defs>
  <g id="Layer_1-2" data-name="Layer 1">
    <g>
      <path class="cls-3" d="M6.63,13.41s3.85-8.53,14.09-5.94c0,0,7.37,3.21,7.37-6.22,0,0,9.94,2.64,12.9,12.16"/>
      <line class="cls-1" x1="1.77" y1="57.59" x2="47.07" y2="57.59"/>
      <path class="cls-3" d="M1.25,31.96c0,10.9,8.92,19.82,19.82,19.82"/>
      <line class="cls-3" x1="21.07" y1="51.78" x2="27.76" y2="51.78"/>
      <path class="cls-3" d="M27.76,51.78c10.9,0,19.82-8.92,19.82-19.82"/>
      <polyline class="cls-3" points="47.58 31.96 47.59 17.95 1.25 17.95 1.25 31.96"/>
      <path class="cls-2" d="M10.85,39.7c-1.63-2.15-2.6-4.83-2.6-7.74"/>
      <line class="cls-2" x1="8.25" y1="31.96" x2="8.25" y2="25.35"/>
      <path class="cls-1" d="M47.81,22.5c.84-.08,2.12-.09,3.03-.09,4.73,0,8.49,3.69,8.12,8.11-.46,5.51-9.02,10.46-13.72,10.99"/>
    </g>
  </g>
</svg>