<?xml version="1.0" encoding="UTF-8"?>
<svg id="Layer_2" data-name="Layer 2" xmlns="http://www.w3.org/2000/svg" viewBox="0 0 47.82 68.61">
  <defs>
    <style>
      .cls-1, .cls-2 {
        stroke-miterlimit: 10;
      }

      .cls-1, .cls-2, .cls-3 {
        fill: none;
        stroke: #141313;
        stroke-width: 2.5px;
      }

      .cls-1, .cls-3 {
        stroke-linecap: round;
      }

      .cls-3 {
        stroke-linejoin: round;
      }
    </style>
  </defs>
  <g id="Layer_1-2" data-name="Layer 1">
    <g>
      <path class="cls-1" d="M12,7.39c.59-3.48,3.8-6.14,7.67-6.14s6.88,2.5,7.61,5.82"/>
      <line class="cls-2" x1="37.88" y1="27.88" x2="41.57" y2="27.88"/>
      <path class="cls-2" d="M41.57,27.88c2.75,0,5,2.25,5,5"/>
      <line class="cls-2" x1="46.57" y1="32.88" x2="46.57" y2="45.06"/>
      <path class="cls-2" d="M46.57,45.06c0,2.75-2.25,5-5,5"/>
      <line class="cls-2" x1="41.57" y1="50.06" x2="37.88" y2="50.06"/>
      <polyline class="cls-3" points="29.43 20.47 37.79 20.47 37.79 62.36"/>
      <path class="cls-3" d="M37.79,62.36c0,2.75-2.25,5-5,5"/>
      <line class="cls-3" x1="32.79" y1="67.36" x2="6.25" y2="67.36"/>
      <path class="cls-3" d="M6.25,67.36c-2.75,0-5-2.25-5-5"/>
      <polyline class="cls-3" points="1.25 62.36 1.25 20.47 18.49 20.47"/>
      <line class="cls-3" x1="1.54" y1="58.08" x2="37.49" y2="58.08"/>
      <line class="cls-3" x1="10.15" y1="57.76" x2="10.15" y2="34.53"/>
      <line class="cls-3" x1="19.52" y1="57.76" x2="19.52" y2="34.53"/>
      <line class="cls-3" x1="28.88" y1="57.76" x2="28.88" y2="34.53"/>
      <path class="cls-1" d="M16.42,16s2.18,2.19,2.67,6.31c.28,2.37,2.26,4.81,5.58,4.12,0,0,4.55-.39,4.85-8.04"/>
      <path class="cls-1" d="M2.96,14.95c0-4.11,3.33-7.44,7.44-7.44,1.83,0,3.51.66,4.8,1.76"/>
      <path class="cls-1" d="M36.37,14.63c-.3-4.08-3.7-7.29-7.85-7.29-1.94,0-3.71.7-5.08,1.86"/>
    </g>
  </g>
</svg>