<?xml version="1.0" encoding="UTF-8"?>
<svg id="Layer_2" data-name="Layer 2" xmlns="http://www.w3.org/2000/svg" viewBox="0 0 36.58 75.3">
  <defs>
    <style>
      .cls-1, .cls-2, .cls-3, .cls-4, .cls-5, .cls-6 {
        stroke: #151414;
      }

      .cls-1, .cls-2, .cls-4, .cls-5, .cls-6 {
        fill: none;
        stroke-width: 2.5px;
      }

      .cls-1, .cls-4 {
        stroke-miterlimit: 10;
      }

      .cls-2 {
        stroke-miterlimit: 22.93;
      }

      .cls-3 {
        fill: #465257;
        stroke-miterlimit: 10;
      }

      .cls-4, .cls-5 {
        stroke-linecap: round;
      }

      .cls-5, .cls-6 {
        stroke-linejoin: round;
      }
    </style>
  </defs>
  <g id="Layer_1-2" data-name="Layer 1">
    <g>
      <path class="cls-1" d="M7.48,47.22c-1.88.07-3.95-.17-6.15-.88"/>
      <path class="cls-1" d="M35.02,43.01s-8.6-6.12-17.52.85c0,0-2.52,1.96-6.49,2.89"/>
      <line class="cls-4" x1="4.92" y1="17.47" x2="31.73" y2="17.47"/>
      <path class="cls-3" d="M17.27,2.03c0,.43-.35.78-.78.78s-.78-.35-.78-.78.35-.78.78-.78.78.35.78.78Z"/>
      <path class="cls-2" d="M17.27,2.03c0,.43-.35.78-.78.78s-.78-.35-.78-.78.35-.78.78-.78.78.35.78.78Z"/>
      <path class="cls-3" d="M12.77,7.53c0,.43-.35.78-.78.78s-.78-.35-.78-.78.35-.78.78-.78.78.35.78.78Z"/>
      <path class="cls-2" d="M12.77,7.53c0,.43-.35.78-.78.78s-.78-.35-.78-.78.35-.78.78-.78.78.35.78.78Z"/>
      <path class="cls-3" d="M18.8,10.03c0,.43-.35.78-.78.78s-.78-.35-.78-.78.35-.78.78-.78.78.35.78.78Z"/>
      <path class="cls-2" d="M18.8,10.03c0,.43-.35.78-.78.78s-.78-.35-.78-.78.35-.78.78-.78.78.35.78.78Z"/>
      <path class="cls-6" d="M25.97,17.44s9.36,6.63,9.36,9.95v40.66c0,3.3-2.7,6-6,6"/>
      <line class="cls-6" x1="29.33" y1="74.05" x2="7.25" y2="74.05"/>
      <path class="cls-6" d="M7.25,74.05c-3.3,0-6-2.7-6-6V27.39c0-3.32,9.36-9.95,9.36-9.95"/>
      <line class="cls-5" x1="21.37" y1="17.06" x2="28.26" y2="10.64"/>
      <path class="cls-6" d="M7.48,55.68c-1.88.07-3.95-.17-6.15-.88"/>
      <path class="cls-6" d="M35.02,51.47s-8.6-6.12-17.52.85c0,0-2.52,1.96-6.49,2.89"/>
    </g>
  </g>
</svg>