<?xml version="1.0" encoding="UTF-8"?>
<svg id="Layer_2" data-name="Layer 2" xmlns="http://www.w3.org/2000/svg" viewBox="0 0 77.54 54.67">
  <defs>
    <style>
      .cls-1 {
        stroke-miterlimit: 10;
      }

      .cls-1, .cls-2, .cls-3 {
        fill: none;
        stroke: #151414;
        stroke-width: 2.5px;
      }

      .cls-2 {
        stroke-linecap: round;
      }

      .cls-2, .cls-3 {
        stroke-linejoin: round;
      }
    </style>
  </defs>
  <g id="Layer_1-2" data-name="Layer 1">
    <g>
      <path class="cls-3" d="M16.92,42.56c-9.28-1.91-9.28-13.17-9.28-13.17-.76-5.93-6.39-8.67-6.39-8.67v-7.75s7.29,3.17,12.52,6.44"/>
      <line class="cls-3" x1="16.92" y1="42.56" x2="17.95" y2="42.7"/>
      <path class="cls-2" d="M61.34,20.38c4.59-2.18,9.87-1.49,12.83,2.03,3.63,4.32,2.48,11.33-2.57,15.58"/>
      <line class="cls-2" x1="71.6" y1="37.99" x2="59.1" y2="48.52"/>
      <path class="cls-2" d="M59.1,48.52c-.66.55-1.49,1.03-2.2,1.44"/>
      <line class="cls-1" x1="18.23" y1="20.14" x2="60.98" y2="20.14"/>
      <path class="cls-3" d="M39.6,1.25c-2.52,0-4.31,1.28-4.31,3.8,0,.83.22,1.61.61,2.28"/>
      <path class="cls-3" d="M35.9,7.33c.81,2.19-1.69,2.29-1.69,2.29"/>
      <line class="cls-3" x1="34.21" y1="9.61" x2="31.34" y2="9.61"/>
      <path class="cls-3" d="M31.34,9.61c-7.53,0-13.69,6.16-13.69,13.69"/>
      <line class="cls-3" x1="17.65" y1="23.3" x2="17.65" y2="39.73"/>
      <path class="cls-3" d="M17.65,39.73c0,7.53,6.16,13.69,13.69,13.69"/>
      <line class="cls-3" x1="31.34" y1="53.42" x2="47.79" y2="53.42"/>
      <path class="cls-3" d="M47.79,53.42c7.53,0,13.69-6.16,13.69-13.69"/>
      <line class="cls-3" x1="61.48" y1="39.73" x2="61.48" y2="23.3"/>
      <path class="cls-3" d="M61.48,23.3c0-7.53-6.16-13.69-13.69-13.69"/>
      <line class="cls-3" x1="47.79" y1="9.61" x2="44.92" y2="9.61"/>
      <path class="cls-3" d="M44.92,9.61s-2.5-.1-1.69-2.29"/>
      <path class="cls-3" d="M43.23,7.33c.39-.67.61-1.45.61-2.28,0-2.52-1.67-3.8-4.19-3.8"/>
      <line class="cls-3" x1="39.64" y1="1.25" x2="39.6" y2="1.25"/>
    </g>
  </g>
</svg>