<?xml version="1.0" encoding="UTF-8"?>
<svg id="Layer_2" data-name="Layer 2" xmlns="http://www.w3.org/2000/svg" viewBox="0 0 55.71 77.16">
  <defs>
    <style>
      .cls-1 {
        stroke-linecap: round;
      }

      .cls-1, .cls-2 {
        fill: none;
        stroke: #151414;
        stroke-linejoin: round;
        stroke-width: 2.5px;
      }
    </style>
  </defs>
  <g id="Layer_1-2" data-name="Layer 1">
    <g>
      <line class="cls-2" x1="7.46" y1="58.3" x2="46.86" y2="58.3"/>
      <line class="cls-2" x1="8.24" y1="64.74" x2="46.27" y2="64.74"/>
      <path class="cls-2" d="M45.87,70.93l1.83-21.96s.97.12,1.25.12c3.05,0,5.52-2.37,5.52-5.29s-2.64-5.3-5.69-5.3l.47-7.36H6.46l.47,7.36c-3.05,0-5.69,2.37-5.69,5.3s2.47,5.29,5.52,5.29c.28,0,1.25-.12,1.25-.12l.4,4.62"/>
      <path class="cls-2" d="M45.87,70.93c-.24,2.74-2.68,4.98-5.43,4.98"/>
      <line class="cls-2" x1="40.43" y1="75.91" x2="15.24" y2="75.91"/>
      <path class="cls-2" d="M15.24,75.91c-2.75,0-5.2-2.24-5.43-4.98"/>
      <line class="cls-2" x1="9.81" y1="70.93" x2="9.68" y2="69.41"/>
      <path class="cls-1" d="M44.83,30.56c-.33-2.77-1.06-4.78-1.06-4.78-.78-3.33,1.04-6.88,1.04-6.88"/>
      <line class="cls-1" x1="44.81" y1="18.91" x2="47.75" y2="12.59"/>
      <polyline class="cls-1" points="44.68 11.09 48.89 13.04 51.03 8.44"/>
      <path class="cls-1" d="M51.03,8.44c1.17-2.52.07-5.54-2.45-6.71"/>
      <line class="cls-1" x1="48.58" y1="1.73" x2="48.56" y2="1.72"/>
      <path class="cls-1" d="M48.56,1.72c-2.52-1.17-5.54-.07-6.71,2.45"/>
      <polyline class="cls-1" points="41.84 4.17 39.7 8.77 40.67 9.22 37.7 15.59"/>
      <path class="cls-1" d="M37.7,15.59s-1.54,3.68-4.6,5.22c0,0-7.56,2.76-10.38,8.81"/>
      <line class="cls-1" x1="22.72" y1="29.62" x2="22.23" y2="30.67"/>
    </g>
  </g>
</svg>