<?xml version="1.0" encoding="UTF-8"?>
<svg id="Layer_2" data-name="Layer 2" xmlns="http://www.w3.org/2000/svg" viewBox="0 0 31.49 71.08">
  <defs>
    <style>
      .cls-1 {
        stroke-miterlimit: 10;
      }

      .cls-1, .cls-2, .cls-3, .cls-4 {
        fill: none;
        stroke-width: 2.5px;
      }

      .cls-1, .cls-2, .cls-3, .cls-4, .cls-5 {
        stroke: #151414;
      }

      .cls-2 {
        stroke-miterlimit: 22.93;
      }

      .cls-3 {
        stroke-linecap: round;
      }

      .cls-3, .cls-4 {
        stroke-linejoin: round;
      }

      .cls-5 {
        fill: #141313;
        stroke-miterlimit: 10;
      }
    </style>
  </defs>
  <g id="Layer_1-2" data-name="Layer 1">
    <g>
      <line class="cls-4" x1="15.74" y1="56.64" x2="15.74" y2="69.68"/>
      <line class="cls-3" x1="5.34" y1="69.83" x2="26.14" y2="69.83"/>
      <polyline class="cls-3" points="30.16 39.25 25.33 1.25 6.15 1.25 1.32 39.25"/>
      <path class="cls-3" d="M1.32,39.25c-.86,10.83,6.3,17,14.42,17"/>
      <line class="cls-3" x1="15.74" y1="56.25" x2="15.75" y2="56.25"/>
      <path class="cls-3" d="M15.75,56.25c8.12,0,15.28-6.17,14.42-17"/>
      <line class="cls-1" x1="9.01" y1="17.18" x2="27.09" y2="17.18"/>
      <path class="cls-5" d="M13.91,24.93c0,.43-.35.78-.78.78s-.78-.35-.78-.78.35-.78.78-.78.78.35.78.78Z"/>
      <path class="cls-2" d="M13.91,24.93c0,.43-.35.78-.78.78s-.78-.35-.78-.78.35-.78.78-.78.78.35.78.78Z"/>
      <path class="cls-5" d="M21.66,29.18c0,.43-.35.78-.78.78s-.78-.35-.78-.78.35-.78.78-.78.78.35.78.78Z"/>
      <path class="cls-2" d="M21.66,29.18c0,.43-.35.78-.78.78s-.78-.35-.78-.78.35-.78.78-.78.78.35.78.78Z"/>
      <path class="cls-5" d="M15.72,35.71c0,.43-.35.78-.78.78s-.78-.35-.78-.78.35-.78.78-.78.78.35.78.78Z"/>
      <path class="cls-2" d="M15.72,35.71c0,.43-.35.78-.78.78s-.78-.35-.78-.78.35-.78.78-.78.78.35.78.78Z"/>
      <path class="cls-5" d="M20.99,45.6c0,.43-.35.78-.78.78s-.78-.35-.78-.78.35-.78.78-.78.78.35.78.78Z"/>
      <path class="cls-2" d="M20.99,45.6c0,.43-.35.78-.78.78s-.78-.35-.78-.78.35-.78.78-.78.78.35.78.78Z"/>
      <path class="cls-5" d="M11.35,44.37c0,.43-.35.78-.78.78s-.78-.35-.78-.78.35-.78.78-.78.78.35.78.78Z"/>
      <path class="cls-2" d="M11.35,44.37c0,.43-.35.78-.78.78s-.78-.35-.78-.78.35-.78.78-.78.78.35.78.78Z"/>
    </g>
  </g>
</svg>