<?xml version="1.0" encoding="UTF-8"?>
<svg id="Layer_2" data-name="Layer 2" xmlns="http://www.w3.org/2000/svg" viewBox="0 0 39.8 67.53">
  <defs>
    <style>
      .cls-1 {
        stroke-linecap: round;
      }

      .cls-1, .cls-2 {
        fill: none;
        stroke: #151414;
        stroke-linejoin: round;
        stroke-width: 2.5px;
      }
    </style>
  </defs>
  <g id="Layer_1-2" data-name="Layer 1">
    <g>
      <line class="cls-2" x1="23.55" y1="19.96" x2="27.22" y2="3.64"/>
      <line class="cls-2" x1="16.65" y1="52.17" x2="20.24" y2="35.41"/>
      <line class="cls-1" x1="16.11" y1="54.67" x2="19.72" y2="37.83"/>
      <line class="cls-1" x1="27.22" y1="3.64" x2="38.55" y2="1.25"/>
      <polyline class="cls-2" points="32.92 35.26 30.26 66.28 7.57 66.28 4.91 35.26"/>
      <rect class="cls-1" x="1.25" y="24.74" width="35.33" height="5.89"/>
      <path class="cls-2" d="M25.95,9.73c4.88,2.54,8.21,7.65,8.21,13.53"/>
      <line class="cls-2" x1="34.16" y1="23.26" x2="34.16" y2="24.58"/>
      <path class="cls-2" d="M21.29,8.2c-.78-.12-1.57-.18-2.38-.18-8.42,0-15.24,6.82-15.24,15.24"/>
      <line class="cls-2" x1="3.67" y1="23.26" x2="3.67" y2="24.58"/>
      <line class="cls-1" x1="6.31" y1="46.05" x2="31.52" y2="46.05"/>
    </g>
  </g>
</svg>