<?xml version="1.0" encoding="UTF-8"?>
<svg id="Layer_2" data-name="Layer 2" xmlns="http://www.w3.org/2000/svg" viewBox="0 0 67.24 74.52">
  <defs>
    <style>
      .cls-1, .cls-2 {
        stroke-linejoin: round;
      }

      .cls-1, .cls-2, .cls-3 {
        fill: none;
        stroke: #000;
        stroke-width: 2.5px;
      }

      .cls-2 {
        stroke-linecap: round;
      }

      .cls-3 {
        stroke-miterlimit: 22.93;
      }
    </style>
  </defs>
  <g id="Layer_1-2" data-name="Layer 1">
    <g>
      <line class="cls-2" x1="11.73" y1="26.67" x2="18.28" y2="29.38"/>
      <line class="cls-2" x1="26.66" y1="11.71" x2="29.44" y2="18.37"/>
      <line class="cls-2" x1="22.87" y1="22.9" x2="11.78" y2="11.85"/>
      <line class="cls-2" x1="47.86" y1="11.71" x2="45.08" y2="18.37"/>
      <line class="cls-2" x1="11.73" y1="47.77" x2="18.28" y2="45.06"/>
      <line class="cls-2" x1="26.66" y1="62.73" x2="29.44" y2="56.07"/>
      <line class="cls-2" x1="22.87" y1="51.54" x2="11.78" y2="62.58"/>
      <path class="cls-1" d="M43.5,23.96c-3.61-1.69-7.9-1.92-11.87-.28-7.49,3.1-11.05,11.71-7.95,19.2,3.06,7.39,11.5,10.96,18.91,8.07"/>
      <line class="cls-2" x1="37.26" y1="16.87" x2="37.26" y2="1.25"/>
      <line class="cls-2" x1="37.26" y1="73.27" x2="37.26" y2="57.65"/>
      <line class="cls-2" x1="1.25" y1="37.26" x2="16.87" y2="37.26"/>
      <path class="cls-1" d="M47.11,55.63c0-2.8,0-26.66,0-26.66,0-3.58,2.93-6.51,6.51-6.51"/>
      <line class="cls-1" x1="53.61" y1="22.46" x2="54.2" y2="22.46"/>
      <path class="cls-1" d="M54.2,22.46c3.58,0,6.51,2.93,6.51,6.51v26.66c1.38,1.57,2.12,3.63,2.12,5.89,0,4.93-4,8.93-8.93,8.93s-8.93-4-8.93-8.93c0-2.26.74-4.32,2.13-5.89"/>
      <line class="cls-2" x1="61.22" y1="48.87" x2="65.99" y2="48.87"/>
      <line class="cls-2" x1="61.22" y1="41" x2="65.99" y2="41"/>
      <line class="cls-2" x1="61.22" y1="33.14" x2="65.99" y2="33.14"/>
      <line class="cls-2" x1="53.91" y1="60.19" x2="53.91" y2="32.04"/>
      <path d="M55.44,61.33c0,.85-.68,1.53-1.53,1.53s-1.53-.68-1.53-1.53.69-1.53,1.53-1.53,1.53.68,1.53,1.53Z"/>
      <path class="cls-3" d="M55.44,61.33c0,.85-.68,1.53-1.53,1.53s-1.53-.68-1.53-1.53.69-1.53,1.53-1.53,1.53.68,1.53,1.53Z"/>
    </g>
  </g>
</svg>