<?xml version="1.0" encoding="UTF-8"?>
<svg id="Layer_2" data-name="Layer 2" xmlns="http://www.w3.org/2000/svg" viewBox="0 0 63 66.55">
  <defs>
    <style>
      .cls-1, .cls-2, .cls-3, .cls-4 {
        fill: none;
        stroke: #000;
        stroke-width: 2.5px;
      }

      .cls-1, .cls-3 {
        stroke-linejoin: round;
      }

      .cls-2, .cls-4 {
        stroke-miterlimit: 10;
      }

      .cls-3, .cls-4 {
        stroke-linecap: round;
      }
    </style>
  </defs>
  <g id="Layer_1-2" data-name="Layer 1">
    <g>
      <line class="cls-4" x1="47.26" y1="64.65" x2="47.26" y2="35.64"/>
      <line class="cls-4" x1="47.24" y1="43.35" x2="53.15" y2="38.46"/>
      <line class="cls-4" x1="41.34" y1="38.46" x2="47.25" y2="43.35"/>
      <line class="cls-4" x1="47.25" y1="56.94" x2="41.34" y2="61.83"/>
      <line class="cls-4" x1="53.15" y1="61.83" x2="47.25" y2="56.94"/>
      <line class="cls-4" x1="32.75" y1="50.16" x2="61.75" y2="50.16"/>
      <line class="cls-4" x1="54.04" y1="50.14" x2="58.93" y2="56.05"/>
      <line class="cls-4" x1="58.93" y1="44.24" x2="54.04" y2="50.15"/>
      <line class="cls-4" x1="40.45" y1="50.15" x2="35.56" y2="44.24"/>
      <line class="cls-4" x1="35.56" y1="56.05" x2="40.45" y2="50.14"/>
      <path class="cls-3" d="M25.41,28.24c-3.09,10.24-2.77,24.88,1.29,37.07"/>
      <path class="cls-2" d="M17.02,47.5c1.17-2.6-2.36-6.55-6.51-7.31-5.35-.98-8.9.7-8.9.7,0,0,1.63,3.96,5.63,6.89,3.4,2.49,8.74,2.03,9.78-.29Z"/>
      <path class="cls-1" d="M12.55,20.25c-1.05,4.11,1.42,8.29,5.53,9.34,2.85.73,5.74-.24,7.6-2.29.64,2.68,2.7,4.93,5.56,5.66,4.11,1.05,8.29-1.42,9.34-5.53.74-2.88-.27-5.8-2.35-7.65,2.72-.62,5-2.69,5.74-5.58,1.05-4.11-1.42-8.29-5.53-9.34-2.86-.73-5.75.24-7.6,2.29-.64-2.68-2.7-4.93-5.56-5.66-4.11-1.05-8.29,1.42-9.34,5.53-.74,2.88.27,5.8,2.35,7.65-2.72.62-5.01,2.69-5.75,5.58Z"/>
      <line class="cls-1" x1="23.64" y1="16.05" x2="18.29" y2="14.67"/>
      <line class="cls-1" x1="38.14" y1="19.77" x2="32.89" y2="18.42"/>
      <line class="cls-3" x1="30.67" y1="21.31" x2="33.37" y2="25.87"/>
      <line class="cls-3" x1="23.14" y1="8.59" x2="25.83" y2="13.13"/>
      <line class="cls-3" x1="32.41" y1="14.77" x2="36.9" y2="12.12"/>
      <line class="cls-3" x1="19.62" y1="22.34" x2="24.13" y2="19.67"/>
      <path class="cls-1" d="M23.68,16.06c-.65,2.53.87,5.1,3.4,5.75,2.53.65,5.1-.88,5.75-3.4.65-2.53-.88-5.1-3.4-5.75-2.53-.65-5.1.88-5.75,3.4Z"/>
      <line class="cls-1" x1="27.1" y1="21.82" x2="25.72" y2="27.16"/>
      <line class="cls-1" x1="30.82" y1="7.32" x2="29.47" y2="12.57"/>
    </g>
  </g>
</svg>