<?xml version="1.0" encoding="UTF-8"?>
<svg id="Layer_2" data-name="Layer 2" xmlns="http://www.w3.org/2000/svg" viewBox="0 0 66.29 42.36">
  <defs>
    <style>
      .cls-1, .cls-2 {
        stroke-linejoin: round;
      }

      .cls-1, .cls-2, .cls-3, .cls-4 {
        fill: none;
        stroke: #000;
        stroke-width: 2.5px;
      }

      .cls-2, .cls-3 {
        stroke-linecap: round;
      }

      .cls-3 {
        stroke-miterlimit: 10;
      }

      .cls-4 {
        stroke-miterlimit: 22.93;
      }
    </style>
  </defs>
  <g id="Layer_1-2" data-name="Layer 1">
    <g>
      <polyline class="cls-2" points="40.29 41.11 40.29 16.72 26 16.72 26 41.11"/>
      <path class="cls-2" d="M33.14,2.2c-4.38,0-8.04,2.79-9.09,6.56"/>
      <polyline class="cls-2" points="24.06 8.76 33.54 8.76 42.23 8.76"/>
      <path class="cls-2" d="M42.23,8.76c-1.04-3.77-4.71-6.56-9.09-6.56"/>
      <line class="cls-3" x1="1.25" y1="41.11" x2="1.25" y2="31.85"/>
      <line class="cls-3" x1="7.25" y1="41.11" x2="7.25" y2="31.85"/>
      <line class="cls-3" x1="13.25" y1="41.11" x2="13.25" y2="31.85"/>
      <line class="cls-3" x1="19.25" y1="41.11" x2="19.25" y2="31.85"/>
      <path d="M19.31,12c0,.43-.35.78-.78.78s-.78-.35-.78-.78.35-.78.78-.78.78.35.78.78Z"/>
      <path class="cls-4" d="M19.31,12c0,.43-.35.78-.78.78s-.78-.35-.78-.78.35-.78.78-.78.78.35.78.78Z"/>
      <path d="M14.26,6.98c0,.43-.35.78-.78.78s-.78-.35-.78-.78.35-.78.78-.78.78.35.78.78Z"/>
      <path class="cls-4" d="M14.26,6.98c0,.43-.35.78-.78.78s-.78-.35-.78-.78.35-.78.78-.78.78.35.78.78Z"/>
      <path d="M12.17,13.22c0,.43-.35.78-.78.78s-.78-.35-.78-.78.35-.78.78-.78.78.35.78.78Z"/>
      <path class="cls-4" d="M12.17,13.22c0,.43-.35.78-.78.78s-.78-.35-.78-.78.35-.78.78-.78.78.35.78.78Z"/>
      <path d="M7.21,7.95c0,.43-.35.78-.78.78s-.78-.35-.78-.78.35-.78.78-.78.78.35.78.78Z"/>
      <path class="cls-4" d="M7.21,7.95c0,.43-.35.78-.78.78s-.78-.35-.78-.78.35-.78.78-.78.78.35.78.78Z"/>
      <path d="M9.19,2.03c0,.43-.35.78-.78.78s-.78-.35-.78-.78.35-.78.78-.78.78.35.78.78Z"/>
      <path class="cls-4" d="M9.19,2.03c0,.43-.35.78-.78.78s-.78-.35-.78-.78.35-.78.78-.78.78.35.78.78Z"/>
      <path d="M5.14,14.12c0,.43-.35.78-.78.78s-.78-.35-.78-.78.35-.78.78-.78.78.35.78.78Z"/>
      <path class="cls-4" d="M5.14,14.12c0,.43-.35.78-.78.78s-.78-.35-.78-.78.35-.78.78-.78.78.35.78.78Z"/>
      <line class="cls-3" x1="65.04" y1="41.11" x2="65.04" y2="31.85"/>
      <line class="cls-3" x1="59.04" y1="41.11" x2="59.04" y2="31.85"/>
      <line class="cls-3" x1="53.04" y1="41.11" x2="53.04" y2="31.85"/>
      <line class="cls-3" x1="47.04" y1="41.11" x2="47.04" y2="31.85"/>
      <path d="M46.97,12c0,.43.35.78.78.78s.78-.35.78-.78-.35-.78-.78-.78-.78.35-.78.78Z"/>
      <path class="cls-4" d="M46.97,12c0,.43.35.78.78.78s.78-.35.78-.78-.35-.78-.78-.78-.78.35-.78.78Z"/>
      <path d="M52.02,6.98c0,.43.35.78.78.78s.78-.35.78-.78-.35-.78-.78-.78-.78.35-.78.78Z"/>
      <path class="cls-4" d="M52.02,6.98c0,.43.35.78.78.78s.78-.35.78-.78-.35-.78-.78-.78-.78.35-.78.78Z"/>
      <path d="M54.11,13.22c0,.43.35.78.78.78s.78-.35.78-.78-.35-.78-.78-.78-.78.35-.78.78Z"/>
      <path class="cls-4" d="M54.11,13.22c0,.43.35.78.78.78s.78-.35.78-.78-.35-.78-.78-.78-.78.35-.78.78Z"/>
      <path d="M59.08,7.95c0,.43.35.78.78.78s.78-.35.78-.78-.35-.78-.78-.78-.78.35-.78.78Z"/>
      <path class="cls-4" d="M59.08,7.95c0,.43.35.78.78.78s.78-.35.78-.78-.35-.78-.78-.78-.78.35-.78.78Z"/>
      <path d="M57.09,2.03c0,.43.35.78.78.78s.78-.35.78-.78-.35-.78-.78-.78-.78.35-.78.78Z"/>
      <path class="cls-4" d="M57.09,2.03c0,.43.35.78.78.78s.78-.35.78-.78-.35-.78-.78-.78-.78.35-.78.78Z"/>
      <path d="M61.14,14.12c0,.43.35.78.78.78s.78-.35.78-.78-.35-.78-.78-.78-.78.35-.78.78Z"/>
      <path class="cls-4" d="M61.14,14.12c0,.43.35.78.78.78s.78-.35.78-.78-.35-.78-.78-.78-.78.35-.78.78Z"/>
      <line class="cls-1" x1="37.1" y1="8.93" x2="37.1" y2="16.49"/>
      <line class="cls-1" x1="29.19" y1="8.93" x2="29.19" y2="16.49"/>
    </g>
  </g>
</svg>