<?xml version="1.0" encoding="UTF-8"?>
<svg id="Layer_2" data-name="Layer 2" xmlns="http://www.w3.org/2000/svg" viewBox="0 0 51.52 67.67">
  <defs>
    <style>
      .cls-1, .cls-2, .cls-3, .cls-4 {
        fill: none;
        stroke: #000;
        stroke-width: 2.5px;
      }

      .cls-1, .cls-3 {
        stroke-linejoin: round;
      }

      .cls-2 {
        stroke-miterlimit: 10;
      }

      .cls-3 {
        stroke-linecap: round;
      }

      .cls-4 {
        stroke-miterlimit: 22.93;
      }
    </style>
  </defs>
  <g id="Layer_1-2" data-name="Layer 1">
    <g>
      <line class="cls-3" x1="37.22" y1="49.05" x2="33.38" y2="49.05"/>
      <line class="cls-3" x1="37.22" y1="42.72" x2="33.38" y2="42.72"/>
      <line class="cls-3" x1="37.22" y1="36.39" x2="33.38" y2="36.39"/>
      <line class="cls-3" x1="43.08" y1="58.16" x2="43.08" y2="44.94"/>
      <path class="cls-1" d="M48.56,54.49v-21.46c0-2.88-2.36-5.24-5.24-5.24"/>
      <line class="cls-1" x1="43.32" y1="27.79" x2="42.85" y2="27.79"/>
      <path class="cls-1" d="M42.85,27.79c-2.88,0-5.24,2.36-5.24,5.24v21.46c-1.11,1.27-1.71,2.92-1.71,4.74,0,3.97,3.22,7.19,7.19,7.19s7.19-3.22,7.19-7.19c0-1.82-.6-3.48-1.71-4.74"/>
      <path class="cls-3" d="M21.07,28.3c3.47,10.12,3.7,24.76.1,37.09"/>
      <path class="cls-2" d="M17.3,49.54c1.06-2.65-2.63-6.45-6.8-7.03-5.39-.76-8.86,1.07-8.86,1.07,0,0,1.79,3.89,5.91,6.65,3.5,2.35,8.82,1.67,9.76-.69Z"/>
      <path class="cls-1" d="M27.68,14.48c2.01-1.93,2.91-4.88,2.06-7.74-1.21-4.07-5.48-6.38-9.54-5.17-2.83.84-4.8,3.16-5.34,5.87-1.93-1.97-4.85-2.84-7.68-2C3.12,6.64.8,10.91,2.01,14.98c.85,2.86,3.21,4.84,5.95,5.36-2.01,1.93-2.91,4.88-2.06,7.73,1.21,4.07,5.48,6.38,9.55,5.17,2.83-.84,4.8-3.16,5.34-5.87,1.93,1.97,4.85,2.84,7.68,2,4.07-1.21,6.38-5.48,5.18-9.54-.85-2.86-3.21-4.84-5.95-5.36Z"/>
      <line class="cls-1" x1="22.39" y1="16.05" x2="27.68" y2="14.48"/>
      <line class="cls-1" x1="8.04" y1="20.32" x2="13.24" y2="18.77"/>
      <line class="cls-3" x1="15.56" y1="21.57" x2="13.03" y2="26.23"/>
      <line class="cls-3" x1="22.6" y1="8.58" x2="20.09" y2="13.22"/>
      <line class="cls-3" x1="13.58" y1="15.1" x2="8.99" y2="12.62"/>
      <line class="cls-3" x1="26.64" y1="22.19" x2="22.03" y2="19.69"/>
      <path class="cls-1" d="M22.35,16.06c.74,2.5-.68,5.13-3.19,5.87-2.5.74-5.13-.69-5.87-3.19-.74-2.5.68-5.13,3.18-5.87,2.5-.74,5.13.68,5.87,3.19Z"/>
      <line class="cls-1" x1="19.15" y1="21.94" x2="20.72" y2="27.24"/>
      <line class="cls-1" x1="14.89" y1="7.6" x2="16.43" y2="12.79"/>
      <path d="M44.22,59.06c0,.63-.5,1.13-1.13,1.13s-1.13-.51-1.13-1.13.51-1.13,1.13-1.13,1.13.51,1.13,1.13Z"/>
      <path class="cls-4" d="M44.22,59.06c0,.63-.5,1.13-1.13,1.13s-1.13-.51-1.13-1.13.51-1.13,1.13-1.13,1.13.51,1.13,1.13Z"/>
    </g>
  </g>
</svg>