<?xml version="1.0" encoding="UTF-8"?>
<svg id="Layer_2" data-name="Layer 2" xmlns="http://www.w3.org/2000/svg" viewBox="0 0 48.32 73.86">
  <defs>
    <style>
      .cls-1, .cls-2, .cls-3 {
        fill: none;
        stroke: #000;
        stroke-width: 2.5px;
      }

      .cls-1, .cls-3 {
        stroke-linejoin: round;
      }

      .cls-2 {
        stroke-miterlimit: 10;
      }

      .cls-3 {
        stroke-linecap: round;
      }
    </style>
  </defs>
  <g id="Layer_1-2" data-name="Layer 1">
    <g>
      <path class="cls-1" d="M23.81,30.46c1.73,5.08,2.7,8.81,2.7,15.73"/>
      <path class="cls-2" d="M32.8,42.83c-1.05-2.35,2.13-5.91,5.87-6.6,4.83-.88,8.04.64,8.04.64,0,0-1.47,3.57-5.08,6.22-3.07,2.25-7.89,1.83-8.83-.26Z"/>
      <polyline class="cls-3" points="38.12 57.27 36.49 72.61 17.62 72.61 16.01 57.18 12.48 57.18 12.48 51.04 41.51 51.04 41.51 57.18 24.51 57.18"/>
      <path class="cls-1" d="M29.26,14.81c1.93-2.29,2.54-5.55,1.3-8.5C28.8,2.11,23.97.13,19.76,1.89c-2.92,1.22-4.76,3.93-5.02,6.89-2.29-1.88-5.51-2.47-8.43-1.24C2.11,9.3.13,14.13,1.89,18.33c1.24,2.95,3.99,4.8,6.98,5.03-1.93,2.29-2.54,5.55-1.3,8.5,1.76,4.2,6.59,6.18,10.79,4.41,2.92-1.22,4.76-3.93,5.02-6.88,2.29,1.88,5.51,2.47,8.43,1.25,4.2-1.76,6.18-6.59,4.42-10.79-1.24-2.95-3.99-4.8-6.98-5.03Z"/>
      <line class="cls-1" x1="23.78" y1="17.11" x2="29.26" y2="14.81"/>
      <line class="cls-1" x1="8.96" y1="23.33" x2="14.33" y2="21.07"/>
      <line class="cls-3" x1="17.14" y1="23.79" x2="14.98" y2="29.07"/>
      <line class="cls-3" x1="23.15" y1="9.1" x2="21" y2="14.35"/>
      <line class="cls-3" x1="14.26" y1="17.12" x2="9.08" y2="15"/>
      <line class="cls-3" x1="29.05" y1="23.17" x2="23.83" y2="21.04"/>
      <path class="cls-1" d="M23.74,17.12c1.08,2.58-.13,5.56-2.72,6.64-2.58,1.08-5.56-.14-6.64-2.72-1.08-2.59.13-5.56,2.72-6.64,2.58-1.08,5.56.13,6.64,2.72Z"/>
      <line class="cls-1" x1="21.01" y1="23.78" x2="23.31" y2="29.25"/>
      <line class="cls-1" x1="14.79" y1="8.95" x2="17.05" y2="14.32"/>
    </g>
  </g>
</svg>