<?xml version="1.0" encoding="UTF-8"?>
<svg id="Layer_2" data-name="Layer 2" xmlns="http://www.w3.org/2000/svg" viewBox="0 0 58.33 55.38">
  <defs>
    <style>
      .cls-1 {
        stroke-linejoin: round;
      }

      .cls-1, .cls-2 {
        fill: none;
        stroke: #000;
        stroke-width: 2.5px;
      }

      .cls-2 {
        stroke-miterlimit: 10;
      }
    </style>
  </defs>
  <g id="Layer_1-2" data-name="Layer 1">
    <g>
      <polyline class="cls-2" points="41.08 16.72 46.01 16.72 46.01 12.02 51.44 2.49 57.08 12.02 57.08 54.13 46.01 54.13 46.01 49.28 41.08 49.28"/>
      <polyline class="cls-2" points="41.08 27.17 46.25 27.17 46.25 39.34 41.08 39.34"/>
      <polyline class="cls-1" points="20.54 16.72 25.47 16.72 25.47 12.02 30.9 2.49 36.54 12.02 36.54 54.13 25.47 54.13 25.47 49.28 20.54 49.28"/>
      <polyline class="cls-2" points="20.54 27.17 25.71 27.17 25.71 39.34 20.54 39.34"/>
      <polyline class="cls-1" points="0 16.72 4.93 16.72 4.93 12.02 10.36 2.49 16 12.02 16 54.13 4.93 54.13 4.93 49.28 0 49.28"/>
      <polyline class="cls-2" points="0 27.17 5.17 27.17 5.17 39.34 0 39.34"/>
    </g>
  </g>
</svg>