<?xml version="1.0" encoding="UTF-8"?>
<svg id="Layer_2" data-name="Layer 2" xmlns="http://www.w3.org/2000/svg" viewBox="0 0 44.55 60.03">
  <defs>
    <style>
      .cls-1 {
        fill: none;
        stroke: #000;
        stroke-linecap: round;
        stroke-miterlimit: 4;
        stroke-width: 2.5px;
      }
    </style>
  </defs>
  <g id="Layer_1-2" data-name="Layer 1">
    <g>
      <path class="cls-1" d="M26.76,29.88c-9.12-10.72-9.98-14.59-10.05-15.13-.08.54-.93,4.41-10.05,15.13-10.66,12.52-4.62,28.86,9.97,28.9"/>
      <line class="cls-1" x1="16.62" y1="58.78" x2="16.78" y2="58.78"/>
      <path class="cls-1" d="M16.78,58.78c14.49-.04,20.63-16.38,9.97-28.9"/>
      <path class="cls-1" d="M8.11,43.58s.07,4.7,4.28,7.08"/>
      <path class="cls-1" d="M40.57,7.85C35.95,2.42,35.51.46,35.47.19c-.04.27-.47,2.23-5.09,7.67-5.4,6.34-2.34,14.63,5.05,14.65"/>
      <line class="cls-1" x1="35.44" y1="22.5" x2="35.52" y2="22.5"/>
      <path class="cls-1" d="M35.52,22.5c7.34-.02,10.45-8.3,5.05-14.65"/>
    </g>
  </g>
</svg>