<?xml version="1.0" encoding="UTF-8"?>
<svg id="Layer_2" data-name="Layer 2" xmlns="http://www.w3.org/2000/svg" viewBox="0 0 40.82 70.3">
  <defs>
    <style>
      .cls-1, .cls-2 {
        fill: none;
        stroke: #000;
        stroke-miterlimit: 10;
        stroke-width: 2.5px;
      }

      .cls-2 {
        stroke-linecap: round;
      }
    </style>
  </defs>
  <g id="Layer_1-2" data-name="Layer 1">
    <g>
      <polyline class="cls-2" points="31.31 53.94 29.7 69.05 10.83 69.05 9.2 53.63 5.75 53.63 5.75 47.48 34.78 47.48 34.78 53.63 17.78 53.63"/>
      <path class="cls-1" d="M20.27,5.95c-6.42,0-16.19,5.67-14.53,18.61"/>
      <line class="cls-1" x1="5.74" y1="24.55" x2="8.44" y2="42.93"/>
      <path class="cls-2" d="M20.47,5.95c6.42,0,16.19,5.67,14.53,18.61"/>
      <line class="cls-2" x1="34.99" y1="24.55" x2="31.49" y2="47.32"/>
      <line class="cls-2" x1="20.27" y1="5.95" x2="20.27" y2="1.25"/>
      <line class="cls-2" x1="20.38" y1="19.44" x2="20.38" y2="13.05"/>
      <line class="cls-2" x1="20.38" y1="41.52" x2="20.38" y2="27.22"/>
      <line class="cls-2" x1="26.15" y1="41.51" x2="26.75" y2="33.55"/>
      <line class="cls-2" x1="27.29" y1="26.5" x2="27.98" y2="16.62"/>
      <line class="cls-2" x1="13.69" y1="30.45" x2="12.89" y2="18.47"/>
      <line class="cls-2" x1="14.54" y1="41.49" x2="14.09" y2="36.87"/>
      <line class="cls-2" x1="13.07" y1="8.03" x2="10.64" y2="4.21"/>
      <line class="cls-2" x1="7.48" y1="13.7" x2="3.56" y2="11.75"/>
      <line class="cls-2" x1="5.58" y1="22.73" x2="1.25" y2="22.73"/>
      <line class="cls-2" x1="6.72" y1="32.34" x2="2.42" y2="32.89"/>
      <line class="cls-2" x1="27.75" y1="8.03" x2="30.18" y2="4.21"/>
      <line class="cls-2" x1="33.34" y1="13.7" x2="37.26" y2="11.75"/>
      <line class="cls-2" x1="35.24" y1="22.73" x2="39.57" y2="22.73"/>
      <line class="cls-2" x1="34.1" y1="32.34" x2="38.4" y2="32.89"/>
    </g>
  </g>
</svg>