<?xml version="1.0" encoding="UTF-8"?>
<svg id="Layer_2" data-name="Layer 2" xmlns="http://www.w3.org/2000/svg" viewBox="0 0 62.62 70.26">
  <defs>
    <style>
      .cls-1, .cls-2 {
        fill: none;
        stroke: #000;
        stroke-linejoin: round;
        stroke-width: 2.5px;
      }

      .cls-2 {
        stroke-linecap: round;
      }
    </style>
  </defs>
  <g id="Layer_1-2" data-name="Layer 1">
    <g>
      <line class="cls-2" x1="25.88" y1="18.33" x2="3.46" y2="30.54"/>
      <path class="cls-2" d="M3.46,30.54s-3.42,1.96-1.76,5.01c0,0,1.27,2.14,5.37,2.67"/>
      <polyline class="cls-2" points="49.81 38.57 49.81 69.01 16.6 69.01"/>
      <path class="cls-2" d="M26.17,6.57c0-2.94,2.38-5.32,5.32-5.32s5.32,2.38,5.32,5.32-2.38,5.32-5.32,5.32"/>
      <polyline class="cls-2" points="31.49 11.9 31.49 15.58 59.16 30.54"/>
      <path class="cls-2" d="M59.16,30.54s3.42,1.96,1.76,5.01c0,0-1.05,2.77-7.01,2.77h-9.06"/>
      <line class="cls-2" x1="12.71" y1="63.76" x2="12.71" y2="41.22"/>
      <path class="cls-2" d="M12.71,41.22c0-6.83,3.31-7.88,3.31-7.88"/>
      <line class="cls-2" x1="16.01" y1="33.34" x2="47.27" y2="33.34"/>
      <path class="cls-2" d="M47.27,33.34s-3.31,1.36-3.31,7.88"/>
      <polyline class="cls-2" points="43.97 41.22 43.97 63.76 12.71 63.76"/>
      <line class="cls-1" x1="43.38" y1="57.01" x2="13.29" y2="57.01"/>
    </g>
  </g>
</svg>