<?xml version="1.0" encoding="UTF-8"?>
<svg id="Layer_2" data-name="Layer 2" xmlns="http://www.w3.org/2000/svg" viewBox="0 0 51.06 67.7">
  <defs>
    <style>
      .cls-1 {
        stroke-linejoin: round;
      }

      .cls-1, .cls-2 {
        fill: none;
        stroke: #000;
        stroke-width: 2.5px;
      }

      .cls-2 {
        stroke-miterlimit: 10;
      }
    </style>
  </defs>
  <g id="Layer_1-2" data-name="Layer 1">
    <g>
      <path class="cls-1" d="M31.81,10.05C29.13,4.83,23.69,1.25,17.43,1.25,9.12,1.25,2.62,6.41,1.73,14.48c0,0-.35,3.08,3.04,3.47.65.08,1.72.01,2.27-.1"/>
      <path class="cls-2" d="M27.63,46.45c0,5.63-4.57,10.2-10.2,10.2s-10.2-4.57-10.2-10.2,4.57-10.2,10.2-10.2,10.2,4.57,10.2,10.2Z"/>
      <polyline class="cls-2" points="12.76 46.06 16.91 49.43 22.23 42.56"/>
      <line class="cls-2" x1="22.16" y1="10.42" x2="47.02" y2="10.42"/>
      <path class="cls-2" d="M47.02,10.42c1.54,0,2.79,1.26,2.79,2.79"/>
      <line class="cls-2" x1="49.81" y1="13.21" x2="49.81" y2="16.1"/>
      <path class="cls-2" d="M49.81,16.1c0,1.54-1.26,2.79-2.79,2.79"/>
      <line class="cls-2" x1="47.02" y1="18.89" x2="22.16" y2="18.89"/>
      <path class="cls-2" d="M23.54,14.65c0,3.53-2.87,6.4-6.4,6.4s-6.4-2.87-6.4-6.4,2.87-6.4,6.4-6.4,6.4,2.87,6.4,6.4Z"/>
      <path class="cls-1" d="M22.51,19.33c-.96,2.05-3.62,3.34-3.62,3.34-6.76,3.36-12.95,7.01-12.95,7.01,0,0-2.07,1.31-2.05,1.31-2.34,1.72-2.64,3.86-2.64,6.16"/>
      <line class="cls-1" x1="1.25" y1="37.14" x2="1.25" y2="57.69"/>
      <path class="cls-1" d="M1.25,57.69c0,4.82,3.94,8.76,8.76,8.76"/>
      <line class="cls-1" x1="10.01" y1="66.45" x2="24.81" y2="66.45"/>
      <path class="cls-1" d="M24.81,66.45c4.82,0,8.76-3.94,8.76-8.76"/>
      <line class="cls-1" x1="33.57" y1="57.69" x2="33.57" y2="23.09"/>
    </g>
  </g>
</svg>