<?xml version="1.0" encoding="UTF-8"?>
<svg id="Layer_2" data-name="Layer 2" xmlns="http://www.w3.org/2000/svg" viewBox="0 0 73.18 58.23">
  <defs>
    <style>
      .cls-1 {
        stroke-linejoin: round;
      }

      .cls-1, .cls-2, .cls-3 {
        fill: none;
        stroke: #000;
        stroke-width: 2.5px;
      }

      .cls-2 {
        stroke-miterlimit: 10;
      }

      .cls-3 {
        stroke-miterlimit: 22.93;
      }
    </style>
  </defs>
  <g id="Layer_1-2" data-name="Layer 1">
    <g>
      <path d="M51.37,39.42c0,.43-.35.78-.78.78s-.78-.35-.78-.78.35-.78.78-.78.78.35.78.78Z"/>
      <path class="cls-3" d="M51.37,39.42c0,.43-.35.78-.78.78s-.78-.35-.78-.78.35-.78.78-.78.78.35.78.78Z"/>
      <line class="cls-2" x1="56.01" y1="40.92" x2="71.72" y2="40.92"/>
      <line class="cls-2" x1="71.72" y1="49.52" x2="55.1" y2="49.52"/>
      <path class="cls-2" d="M55.1,49.52c-3.3,0-6-1.93-6-4.3"/>
      <polyline class="cls-1" points="17.36 38.97 21.68 46 26.21 43.23"/>
      <path class="cls-2" d="M51.06,1.07L2.37,30.75l9.77,6.18s9.11-5.56,13.44-8.2c4.33-2.64,11.02,3.75,11.02,3.75l29.92-18.26-6.61-11.12"/>
      <line class="cls-2" x1="71.93" y1="32.36" x2="71.93" y2="58.23"/>
      <line class="cls-1" x1="22.02" y1="36.19" x2="26.46" y2="43.4"/>
      <path class="cls-1" d="M26.46,43.4c1.15,1.88,3.62,2.48,5.5,1.33"/>
      <line class="cls-1" x1="31.95" y1="44.73" x2="38.69" y2="40.6"/>
      <path class="cls-1" d="M38.69,40.6c5.02-3.06,6.9,1.18,6.9,1.18.11.27.25.61.41.87,1.59,2.6,5.03,3.4,7.7,1.77,2.67-1.62,3.54-5.05,1.95-7.66-.19-.3-.46-.67-.69-.93,0,0-2.96-3.32,2.06-6.38"/>
      <line class="cls-1" x1="57.02" y1="29.45" x2="63.92" y2="25.25"/>
      <path class="cls-1" d="M63.92,25.25c1.44-.91,2.04-3.39.89-5.26"/>
      <line class="cls-1" x1="64.81" y1="19.99" x2="62.73" y2="16.58"/>
    </g>
  </g>
</svg>