<?xml version="1.0" encoding="UTF-8"?>
<svg id="Layer_2" data-name="Layer 2" xmlns="http://www.w3.org/2000/svg" viewBox="0 0 68.52 50.29">
  <defs>
    <style>
      .cls-1, .cls-2, .cls-3 {
        fill: none;
        stroke: #000;
        stroke-width: 2.5px;
      }

      .cls-1, .cls-3 {
        stroke-miterlimit: 10;
      }

      .cls-2 {
        stroke-linejoin: round;
      }

      .cls-2, .cls-3 {
        stroke-linecap: round;
      }
    </style>
  </defs>
  <g id="Layer_1-2" data-name="Layer 1">
    <g>
      <line class="cls-3" x1="9.55" y1="31.92" x2="58.97" y2="31.92"/>
      <line class="cls-1" x1="34.26" y1="9.7" x2="34.26" y2="5.03"/>
      <line class="cls-3" x1="54.07" y1="9.51" x2="60.52" y2="4.58"/>
      <line class="cls-3" x1="59.91" y1="17.96" x2="67.27" y2="14.52"/>
      <line class="cls-3" x1="14.45" y1="9.51" x2="8" y2="4.58"/>
      <line class="cls-3" x1="8.61" y1="17.96" x2="1.25" y2="14.52"/>
      <line class="cls-2" x1="60.54" y1="49.04" x2="60.54" y2="43.46"/>
      <path class="cls-2" d="M60.54,43.46c-4-1.4-4-5.42-4-5.42"/>
      <line class="cls-2" x1="56.54" y1="38.04" x2="11.98" y2="38.04"/>
      <path class="cls-2" d="M11.98,38.04s0,4.02-4,5.42"/>
      <polyline class="cls-2" points="7.98 43.46 7.98 49.04 60.54 49.04"/>
      <path class="cls-3" d="M56.47,31.77c-1.67-1.85-2.18-3.61-2.36-4.67-1.56-9.49-6.85-16.74-19.85-16.74s-18.29,7.24-19.85,16.74c-.17,1.06-.69,2.82-2.36,4.67"/>
      <path class="cls-3" d="M30.13,16.37c-4.03.73-6.75,2.66-8.43,6.03"/>
      <line class="cls-2" x1="59.99" y1="43.52" x2="25.97" y2="43.52"/>
      <line class="cls-2" x1="17.63" y1="43.52" x2="8.63" y2="43.52"/>
      <path class="cls-2" d="M29.33,4.9v-1.36c0-1.26,1.28-2.29,2.83-2.29"/>
      <line class="cls-2" x1="32.16" y1="1.25" x2="36.36" y2="1.25"/>
      <path class="cls-2" d="M36.36,1.25c1.56,0,2.83,1.03,2.83,2.29v1.36"/>
    </g>
  </g>
</svg>