<?xml version="1.0" encoding="UTF-8"?>
<svg id="Layer_2" data-name="Layer 2" xmlns="http://www.w3.org/2000/svg" viewBox="0 0 53.62 62.07">
  <defs>
    <style>
      .cls-1 {
        fill-rule: evenodd;
      }

      .cls-1, .cls-2 {
        fill: none;
        stroke: #000;
        stroke-linecap: round;
        stroke-linejoin: round;
        stroke-width: 2.5px;
      }
    </style>
  </defs>
  <g id="Layer_1-2" data-name="Layer 1">
    <g>
      <path class="cls-1" d="M22.17,8.94l-.43.14c-1.82.54-3.53,1.38-5.1,2.44-1.68,1.14-3.09,2.36-4.18,4.31l-.08.16c-1.55,2.82-2.44,5.99-2.52,9.33l-.08,3.5c-.11,5.15-2.47,10.09-6.67,13.07-.14.08-.24.16-.35.22-1.82,1.22-1.84,3.85-.11,5.15,2.6,1.98,8.84,3.88,23.27,3.88h1c9.11,0,14.95-.76,18.66-1.82,2.52-.71,4.07-1.52,5.02-2.39,1.46-1.3,1.25-3.63-.38-4.72-.16-.11-.33-.22-.46-.33-4.2-2.98-6.59-7.92-6.7-13.07l-.08-3.5c-.08-3.8-1.25-7.08-3.23-9.85-2.25-3.09-5.51-5.29-9.11-6.51"/>
      <path class="cls-1" d="M26.42,11.31c1.92,0,3.59-1.08,4.44-2.66.37-.71.59-1.52.59-2.37,0-2.77-2.25-5.03-5.03-5.03s-5.04,2.25-5.04,5.03c0,.86.22,1.66.59,2.37.84,1.58,2.52,2.66,4.45,2.66Z"/>
      <line class="cls-2" x1="1.25" y1="4.86" x2="52.37" y2="56.18"/>
      <path class="cls-1" d="M31.75,51.54c.64.95,1.02,2.1,1.02,3.33,0,3.29-2.67,5.95-5.95,5.95s-5.95-2.67-5.95-5.95c0-1.23.37-2.38,1.02-3.33"/>
    </g>
  </g>
</svg>