<?xml version="1.0" encoding="UTF-8"?>
<svg id="Layer_2" data-name="Layer 2" xmlns="http://www.w3.org/2000/svg" viewBox="0 0 72.61 64.56">
  <defs>
    <style>
      .cls-1, .cls-2 {
        fill: none;
        stroke: #000;
        stroke-linejoin: round;
        stroke-width: 2.5px;
      }

      .cls-2 {
        stroke-linecap: round;
      }
    </style>
  </defs>
  <g id="Layer_1-2" data-name="Layer 1">
    <g>
      <path class="cls-2" d="M21.46,53.13s1.02,6.97-2.81,10.18"/>
      <polyline class="cls-1" points="24.17 30.45 26.25 52.14 17.1 53.76 12.31 36.32"/>
      <path class="cls-2" d="M71.36,12.68s-3.12-3.88-6.71-.37c-1.13,1.11-3.31,2.63-6.39-.74"/>
      <path class="cls-2" d="M71.36,21.42s-3.12-3.88-6.71-.37c-1.13,1.11-3.31,2.63-6.39-.74"/>
      <path class="cls-2" d="M21.22,2.11c-1.35-.54-3.01-.86-4.59-.86C8.13,1.25,1.25,8.14,1.25,16.63s6.88,15.38,15.37,15.38c1.58,0,3.25-.31,4.59-.86,10.18-4.17,17.11-5.12,22.25-4.92"/>
      <polyline class="cls-2" points="43.46 26.23 52.14 28.32 52.14 4.93 43.46 7.01"/>
      <path class="cls-2" d="M43.46,7.01c-5.1.17-11.99-.8-22.25-4.9"/>
      <line class="cls-1" x1="43.62" y1="25.94" x2="43.62" y2="11.39"/>
      <path class="cls-2" d="M22.65,16.63c0,3.71-3.01,6.71-6.71,6.71s-6.71-3.01-6.71-6.71,3-6.71,6.71-6.71,6.71,3.01,6.71,6.71Z"/>
    </g>
  </g>
</svg>