<?xml version="1.0" encoding="UTF-8"?>
<svg id="Layer_2" data-name="Layer 2" xmlns="http://www.w3.org/2000/svg" viewBox="0 0 50.95 58.32">
  <defs>
    <style>
      .cls-1 {
        stroke-linejoin: round;
      }

      .cls-1, .cls-2 {
        fill: none;
        stroke: #000;
        stroke-linecap: round;
        stroke-width: 2.5px;
      }

      .cls-2 {
        stroke-miterlimit: 10;
      }
    </style>
  </defs>
  <g id="Layer_1-2" data-name="Layer 1">
    <g>
      <path class="cls-1" d="M43.21,25.82c0-7.78-8.69-14.08-19.42-14.08-8.79,0-16.21,4.23-18.61,10.03"/>
      <line class="cls-2" x1="49.7" y1="1.25" x2="29.37" y2="1.25"/>
      <path class="cls-2" d="M29.37,1.25c-3.06,0-5.57,2.51-5.57,5.57"/>
      <line class="cls-2" x1="23.81" y1="6.82" x2="23.81" y2="11.54"/>
      <line class="cls-1" x1="15.75" y1="26.15" x2="44.33" y2="26.15"/>
      <path class="cls-1" d="M44.33,26.15c1.1,0,2,.9,2,2"/>
      <polyline class="cls-1" points="46.33 28.15 46.33 31.35 1.25 31.35 1.25 28.15"/>
      <path class="cls-1" d="M1.25,28.15c0-1.1.9-2,2-2"/>
      <line class="cls-1" x1="3.25" y1="26.15" x2="7.88" y2="26.15"/>
      <line class="cls-1" x1="8.67" y1="37.02" x2="8.67" y2="43.11"/>
      <line class="cls-1" x1="8.67" y1="47.63" x2="8.67" y2="48.86"/>
      <line class="cls-1" x1="8.67" y1="53.26" x2="8.67" y2="57.03"/>
      <line class="cls-1" x1="23.12" y1="37.02" x2="23.12" y2="42.17"/>
      <line class="cls-1" x1="23.13" y1="55.1" x2="23.13" y2="57.07"/>
      <line class="cls-1" x1="23.12" y1="46.6" x2="23.12" y2="50.83"/>
      <line class="cls-1" x1="15.9" y1="37.02" x2="15.9" y2="46.33"/>
      <line class="cls-1" x1="15.9" y1="50.93" x2="15.9" y2="57.04"/>
      <line class="cls-1" x1="30.35" y1="57.07" x2="30.35" y2="51.41"/>
      <line class="cls-1" x1="30.35" y1="38.83" x2="30.35" y2="37.02"/>
      <line class="cls-1" x1="30.35" y1="46.98" x2="30.35" y2="43.33"/>
      <line class="cls-1" x1="37.58" y1="57.07" x2="37.58" y2="47.99"/>
      <line class="cls-1" x1="37.58" y1="43.44" x2="37.58" y2="37.05"/>
    </g>
  </g>
</svg>