<?xml version="1.0" encoding="UTF-8"?>
<svg id="Layer_2" data-name="Layer 2" xmlns="http://www.w3.org/2000/svg" viewBox="0 0 73.77 55.33">
  <defs>
    <style>
      .cls-1, .cls-2, .cls-3, .cls-4 {
        fill: none;
        stroke: #000;
        stroke-width: 2.5px;
      }

      .cls-1, .cls-3 {
        stroke-linejoin: round;
      }

      .cls-2 {
        stroke-miterlimit: 10;
      }

      .cls-3 {
        stroke-linecap: round;
      }

      .cls-4 {
        stroke-miterlimit: 22.93;
      }
    </style>
  </defs>
  <g id="Layer_1-2" data-name="Layer 1">
    <g>
      <line class="cls-1" x1="6.92" y1="7.22" x2="66.85" y2="7.22"/>
      <line class="cls-1" x1="6.92" y1="12.76" x2="66.85" y2="12.76"/>
      <line class="cls-3" x1="51.3" y1="39.44" x2="51.3" y2="54"/>
      <line class="cls-3" x1="45" y1="43.08" x2="57.61" y2="50.36"/>
      <line class="cls-3" x1="57.61" y1="43.08" x2="45" y2="50.36"/>
      <line class="cls-3" x1="18.1" y1="39.36" x2="19.08" y2="43.97"/>
      <path class="cls-3" d="M19.08,43.97c.19.92-.21,1.94-.9,2.25-.69.31-1.08,1.32-.85,2.24"/>
      <line class="cls-3" x1="17.32" y1="48.46" x2="18.69" y2="54.08"/>
      <line class="cls-3" x1="26.73" y1="39.36" x2="27.71" y2="43.97"/>
      <path class="cls-3" d="M27.71,43.97c.2.92-.21,1.94-.9,2.25-.69.31-1.08,1.32-.85,2.24"/>
      <line class="cls-3" x1="25.95" y1="48.46" x2="27.32" y2="54.08"/>
      <line class="cls-3" x1="35.36" y1="39.36" x2="36.34" y2="43.97"/>
      <path class="cls-3" d="M36.34,43.97c.2.92-.21,1.94-.9,2.25-.69.31-1.08,1.32-.85,2.24"/>
      <line class="cls-3" x1="34.58" y1="48.46" x2="35.95" y2="54.08"/>
      <line class="cls-2" x1="60.97" y1="32.46" x2="60.97" y2="26.59"/>
      <path class="cls-2" d="M60.97,26.59c0-1.11-.91-2.02-2.02-2.02"/>
      <line class="cls-2" x1="58.95" y1="24.57" x2="14.82" y2="24.57"/>
      <path class="cls-2" d="M14.82,24.57c-1.11,0-2.02.91-2.02,2.02"/>
      <polyline class="cls-2" points="12.8 26.59 12.8 32.46 4.56 32.46"/>
      <path class="cls-2" d="M4.56,32.46c-1.5,0-3.31-1.82-3.31-4.04"/>
      <line class="cls-2" x1="1.25" y1="28.43" x2="1.25" y2="5.29"/>
      <path class="cls-2" d="M1.25,5.29C1.25,3.07,3.07,1.25,5.29,1.25"/>
      <line class="cls-2" x1="5.29" y1="1.25" x2="68.48" y2="1.25"/>
      <path class="cls-2" d="M68.48,1.25c2.22,0,4.04,1.82,4.04,4.04"/>
      <line class="cls-2" x1="72.52" y1="5.29" x2="72.52" y2="28.42"/>
      <path class="cls-2" d="M72.52,28.42c0,2.22-1.82,4.04-4.76,4.04"/>
      <line class="cls-2" x1="67.75" y1="32.46" x2="60.97" y2="32.46"/>
      <line class="cls-2" x1="17.08" y1="32.47" x2="56.68" y2="32.47"/>
      <path d="M65.22,19.36c0,.34-.28.62-.62.62s-.62-.28-.62-.62.28-.62.62-.62.62.28.62.62Z"/>
      <path class="cls-4" d="M65.22,19.36c0,.34-.28.62-.62.62s-.62-.28-.62-.62.28-.62.62-.62.62.28.62.62Z"/>
    </g>
  </g>
</svg>