<?xml version="1.0" encoding="UTF-8"?>
<svg id="Layer_2" data-name="Layer 2" xmlns="http://www.w3.org/2000/svg" viewBox="0 0 64.03 63.36">
  <defs>
    <style>
      .cls-1 {
        fill: none;
        stroke: #000;
        stroke-linecap: round;
        stroke-linejoin: round;
        stroke-width: 2.5px;
      }
    </style>
  </defs>
  <g id="Layer_1-2" data-name="Layer 1">
    <g>
      <line class="cls-1" x1="12.39" y1="39.5" x2="16.03" y2="35.59"/>
      <path class="cls-1" d="M16.03,35.59c.75-.81,1.98-.81,2.72,0"/>
      <line class="cls-1" x1="18.76" y1="35.59" x2="20.95" y2="37.94"/>
      <path class="cls-1" d="M20.95,37.94c.75.8,1.98.8,2.72,0"/>
      <line class="cls-1" x1="23.67" y1="37.94" x2="25.86" y2="35.59"/>
      <path class="cls-1" d="M25.86,35.59c.75-.81,1.97-.81,2.72,0"/>
      <line class="cls-1" x1="28.59" y1="35.59" x2="31.01" y2="38.2"/>
      <path class="cls-1" d="M31.01,38.2c.75.81,1.97.81,2.72,0"/>
      <line class="cls-1" x1="33.74" y1="38.2" x2="36.08" y2="35.68"/>
      <path class="cls-1" d="M36.08,35.68c.75-.81,1.98-.81,2.72,0"/>
      <line class="cls-1" x1="38.8" y1="35.68" x2="41.02" y2="38.07"/>
      <line class="cls-1" x1="43.74" y1="38.07" x2="45.97" y2="35.68"/>
      <path class="cls-1" d="M45.97,35.68c.75-.81,1.97-.81,2.72,0"/>
      <line class="cls-1" x1="48.69" y1="35.68" x2="52.3" y2="39.57"/>
      <line class="cls-1" x1="12.39" y1="49.5" x2="16.03" y2="45.58"/>
      <path class="cls-1" d="M16.03,45.58c.75-.81,1.98-.81,2.72,0"/>
      <line class="cls-1" x1="18.76" y1="45.58" x2="20.95" y2="47.94"/>
      <path class="cls-1" d="M20.95,47.94c.75.81,1.98.81,2.72,0"/>
      <line class="cls-1" x1="23.67" y1="47.94" x2="25.86" y2="45.58"/>
      <path class="cls-1" d="M25.86,45.58c.75-.81,1.97-.81,2.72,0"/>
      <line class="cls-1" x1="28.59" y1="45.58" x2="31.01" y2="48.19"/>
      <path class="cls-1" d="M31.01,48.19c.75.81,1.97.81,2.72,0"/>
      <line class="cls-1" x1="33.74" y1="48.19" x2="36.08" y2="45.68"/>
      <path class="cls-1" d="M36.08,45.68c.75-.81,1.98-.81,2.72,0"/>
      <path class="cls-1" d="M43.99,1.25c-3.62,0-3.87,4.09-3.87,5.4v21.33M27.05,1.25c-3.62,0-3.87,4.09-3.87,5.4v21.33M23.28,12.43h16.65M23.28,21.89h16.69M45,17.68c9.96,1.11,17.78,9.63,17.78,19.88v4.55c0,11-9,20-20,20h-21.53c-11,0-20-9-20-20v-4.55c0-10.03,7.48-18.4,17.14-19.79M41.02,38.07c.75.8,1.98.8,2.72,0M38.8,45.68l2.22,2.39"/>
      <path class="cls-1" d="M41.02,48.06c.75.81,1.98.81,2.72,0"/>
      <line class="cls-1" x1="43.74" y1="48.06" x2="45.97" y2="45.68"/>
      <path class="cls-1" d="M45.97,45.68c.75-.81,1.97-.81,2.72,0"/>
      <line class="cls-1" x1="48.69" y1="45.68" x2="52.3" y2="49.56"/>
    </g>
  </g>
</svg>