<?xml version="1.0" encoding="UTF-8"?>
<svg id="Layer_2" data-name="Layer 2" xmlns="http://www.w3.org/2000/svg" viewBox="0 0 83.73 60.46">
  <defs>
    <style>
      .cls-1 {
        fill: none;
        stroke: #000;
        stroke-linecap: round;
        stroke-linejoin: round;
        stroke-width: 2.5px;
      }
    </style>
  </defs>
  <g id="Layer_1-2" data-name="Layer 1">
    <g>
      <line class="cls-1" x1="16.33" y1="26.67" x2="22.88" y2="29.38"/>
      <line class="cls-1" x1="31.27" y1="11.71" x2="34.04" y2="18.37"/>
      <line class="cls-1" x1="27.48" y1="22.9" x2="16.38" y2="11.85"/>
      <line class="cls-1" x1="67.4" y1="26.67" x2="60.84" y2="29.38"/>
      <line class="cls-1" x1="52.46" y1="11.71" x2="49.69" y2="18.37"/>
      <line class="cls-1" x1="56.25" y1="22.9" x2="67.35" y2="11.85"/>
      <path class="cls-1" d="M55.67,42.28c1.21-3.33,1.23-7.11-.23-10.64-3.1-7.49-11.71-11.05-19.2-7.95-7.3,3.02-10.87,11.29-8.17,18.64"/>
      <line class="cls-1" x1="41.86" y1="16.87" x2="41.86" y2="1.25"/>
      <line class="cls-1" x1="62.25" y1="37.26" x2="77.88" y2="37.26"/>
      <line class="cls-1" x1="5.85" y1="37.26" x2="21.47" y2="37.26"/>
      <path class="cls-1" d="M1.25,44.76s8.52,8.63,20.27,0"/>
      <line class="cls-1" x1="21.52" y1="44.76" x2="21.57" y2="44.76"/>
      <path class="cls-1" d="M21.57,44.76s8.52,8.63,20.27,0"/>
      <line class="cls-1" x1="41.84" y1="44.76" x2="41.89" y2="44.76"/>
      <path class="cls-1" d="M41.89,44.76s8.52,8.63,20.27,0"/>
      <line class="cls-1" x1="62.16" y1="44.76" x2="62.21" y2="44.76"/>
      <path class="cls-1" d="M62.21,44.76s8.52,8.63,20.27,0"/>
      <path class="cls-1" d="M72.32,55.37c-11.76,8.63-20.27,0-20.27,0"/>
      <line class="cls-1" x1="52.05" y1="55.37" x2="52" y2="55.37"/>
      <path class="cls-1" d="M52,55.37c-11.76,8.63-20.27,0-20.27,0"/>
      <line class="cls-1" x1="31.73" y1="55.37" x2="31.68" y2="55.37"/>
      <path class="cls-1" d="M31.68,55.37c-11.76,8.63-20.27,0-20.27,0"/>
    </g>
  </g>
</svg>