<?xml version="1.0" encoding="UTF-8"?>
<svg id="Layer_2" data-name="Layer 2" xmlns="http://www.w3.org/2000/svg" viewBox="0 0 51.68 53.94">
  <defs>
    <style>
      .cls-1 {
        stroke-miterlimit: 10;
      }

      .cls-1, .cls-2 {
        fill: none;
        stroke: #141313;
        stroke-width: 2.5px;
      }

      .cls-2 {
        stroke-linecap: round;
        stroke-linejoin: round;
      }
    </style>
  </defs>
  <g id="Layer_1-2" data-name="Layer 1">
    <g>
      <path class="cls-2" d="M45.43,33.31c-1.49-.56-3.2-.76-4.96-.49-4.84.72-8.28,4.64-7.66,8.76.61,4.12,5.04,6.87,9.88,6.15,4.84-.72,7.75-4.32,7.75-8.76"/>
      <polyline class="cls-2" points="50.43 38.96 50.43 1.25 18.95 6.11 18.95 43.82"/>
      <path class="cls-2" d="M18.95,43.82c0,4.44-2.9,8.04-7.75,8.76-4.84.72-9.27-2.03-9.88-6.15-.62-4.12,2.82-8.04,7.66-8.76,1.79-.27,3.53-.06,5.04.52"/>
      <line class="cls-1" x1="18.95" y1="17.49" x2="50.36" y2="13.08"/>
    </g>
  </g>
</svg>