<?xml version="1.0" encoding="UTF-8"?>
<svg id="Layer_2" data-name="Layer 2" xmlns="http://www.w3.org/2000/svg" viewBox="0 0 56.32 65.29">
  <defs>
    <style>
      .cls-1, .cls-2 {
        stroke-miterlimit: 10;
      }

      .cls-1, .cls-2, .cls-3 {
        fill: none;
        stroke: #141313;
        stroke-width: 2.5px;
      }

      .cls-1, .cls-3 {
        stroke-linecap: round;
      }

      .cls-3 {
        stroke-linejoin: round;
      }
    </style>
  </defs>
  <g id="Layer_1-2" data-name="Layer 1">
    <g>
      <path class="cls-3" d="M45.24,25.35c.28,13.84,9.83,18.79,9.83,18.79v8.91"/>
      <line class="cls-3" x1="55.07" y1="53.04" x2="17.4" y2="53.04"/>
      <line class="cls-1" x1="1.25" y1="61.94" x2="54.25" y2="8.94"/>
      <path class="cls-2" d="M39.43,57.75c-.58,3.56-3.67,6.28-7.4,6.28s-6.81-2.72-7.4-6.28"/>
      <circle class="cls-1" cx="32.03" cy="6.29" r="5.04" transform="translate(23.49 37.79) rotate(-85.93)"/>
      <path class="cls-1" d="M44.18,18.92c-1.02-2.67-3.02-5.52-6.96-6.81-1.05-.34-2.9-.73-5.22-.78-2.28.05-4.11.44-5.16.78-8.4,2.75-8,12.63-8,12.63,0,14.32-9.84,19.41-9.84,19.41v8.91"/>
      <line class="cls-1" x1="9.01" y1="53.06" x2="10" y2="53.06"/>
    </g>
  </g>
</svg>