<?xml version="1.0" encoding="UTF-8"?>
<svg id="Layer_2" data-name="Layer 2" xmlns="http://www.w3.org/2000/svg" viewBox="0 0 48.54 65.29">
  <defs>
    <style>
      .cls-1 {
        fill: none;
        stroke: #141313;
        stroke-linejoin: round;
        stroke-width: 2.5px;
      }
    </style>
  </defs>
  <g id="Layer_1-2" data-name="Layer 1">
    <g>
      <path class="cls-1" d="M31.67,57.75c-.58,3.56-3.67,6.28-7.4,6.28s-6.81-2.72-7.39-6.28"/>
      <path class="cls-1" d="M1.25,53.06v-8.91s9.84-5.09,9.84-19.41c0,0-.4-9.88,8-12.63,1.05-.34,2.87-.72,5.16-.78,2.31.05,4.17.43,5.22.78,8.4,2.75,8,12.63,8,12.63,0,14.32,9.83,19.41,9.83,19.41v8.91H1.25Z"/>
      <path class="cls-1" d="M24.27,1.25c2.78,0,5.04,2.26,5.04,5.04s-2.26,5.04-5.04,5.04-5.04-2.26-5.04-5.04,2.26-5.04,5.04-5.04Z"/>
    </g>
  </g>
</svg>