<?xml version="1.0" encoding="UTF-8"?>
<svg id="Layer_2" data-name="Layer 2" xmlns="http://www.w3.org/2000/svg" viewBox="0 0 57.03 54.78">
  <defs>
    <style>
      .cls-1 {
        stroke-linecap: round;
        stroke-miterlimit: 10;
      }

      .cls-1, .cls-2 {
        fill: none;
        stroke: #141313;
        stroke-width: 2.5px;
      }

      .cls-2 {
        stroke-linejoin: round;
      }
    </style>
  </defs>
  <g id="Layer_1-2" data-name="Layer 1">
    <g>
      <polygon class="cls-2" points="16.95 18.22 35.4 1.25 35.4 53.53 16.95 36.55 16.95 18.22"/>
      <line class="cls-2" x1="11.54" y1="34.95" x2="3.58" y2="34.95"/>
      <path class="cls-2" d="M3.58,34.95c-1.28,0-2.33-1.05-2.33-2.33"/>
      <line class="cls-2" x1="1.25" y1="32.62" x2="1.25" y2="22.16"/>
      <path class="cls-2" d="M1.25,22.16c0-1.28,1.05-2.33,2.33-2.33"/>
      <line class="cls-2" x1="3.58" y1="19.82" x2="11.54" y2="19.82"/>
      <path class="cls-1" d="M49.79,11.05c3.74,4.44,5.99,10.17,5.99,16.43s-2.19,11.83-5.83,16.25"/>
      <path class="cls-1" d="M44.42,16.61c2.28,3,3.64,6.74,3.64,10.8s-1.34,7.77-3.61,10.76"/>
    </g>
  </g>
</svg>