<?xml version="1.0" encoding="UTF-8"?>
<svg id="Layer_2" data-name="Layer 2" xmlns="http://www.w3.org/2000/svg" viewBox="0 0 60.34 57.43">
  <defs>
    <style>
      .cls-1 {
        stroke-miterlimit: 22.93;
      }

      .cls-1, .cls-2 {
        fill: none;
        stroke: #141313;
        stroke-width: 2.5px;
      }

      .cls-3 {
        fill: #141313;
      }

      .cls-2 {
        stroke-linecap: round;
        stroke-linejoin: round;
      }
    </style>
  </defs>
  <g id="Layer_1-2" data-name="Layer 1">
    <g>
      <path class="cls-2" d="M4.08,56.18c-1.56,0-2.83-1.28-2.83-2.83"/>
      <line class="cls-2" x1="1.25" y1="53.35" x2="1.25" y2="4.08"/>
      <path class="cls-2" d="M1.25,4.08c0-1.56,1.28-2.83,2.83-2.83"/>
      <line class="cls-2" x1="4.08" y1="1.25" x2="56.25" y2="1.25"/>
      <path class="cls-2" d="M56.25,1.25c1.56,0,2.83,1.28,2.83,2.83"/>
      <line class="cls-2" x1="59.09" y1="4.08" x2="59.09" y2="53.35"/>
      <path class="cls-2" d="M59.09,53.35c0,1.56-1.28,2.83-2.83,2.83"/>
      <line class="cls-2" x1="56.25" y1="56.18" x2="4.08" y2="56.18"/>
      <path class="cls-2" d="M14.72,9.84c.49-.11,1.01-.18,1.54-.18,3.7,0,6.7,2.99,6.7,6.69s-3,6.69-6.7,6.69-6.69-3-6.69-6.69c0-.42.04-.84.12-1.24"/>
      <path class="cls-2" d="M46.45,13.08c.43,1.01.66,2.12.66,3.28,0,4.66-3.78,8.43-8.43,8.43s-8.44-3.77-8.44-8.43,3.78-8.43,8.44-8.43c1.04,0,2.03.19,2.95.53"/>
      <path class="cls-2" d="M40.22,47.59c-.49.11-1.01.18-1.54.18-3.7,0-6.7-2.99-6.7-6.69s3-6.69,6.7-6.69,6.69,2.99,6.69,6.69c0,.42-.04.84-.11,1.24"/>
      <path class="cls-2" d="M8.49,44.35c-.43-1.01-.67-2.11-.67-3.28,0-4.66,3.78-8.43,8.43-8.43s8.44,3.77,8.44,8.43-3.78,8.43-8.44,8.43c-1.04,0-2.03-.19-2.95-.53"/>
      <path class="cls-3" d="M53.23,33.76c0,.43-.35.78-.78.78s-.78-.35-.78-.78.35-.78.78-.78.78.35.78.78Z"/>
      <path class="cls-1" d="M53.23,33.76c0,.43-.35.78-.78.78s-.78-.35-.78-.78.35-.78.78-.78.78.35.78.78Z"/>
      <path class="cls-3" d="M53.23,41.17c0,.43-.35.78-.78.78s-.78-.35-.78-.78.35-.78.78-.78.78.35.78.78Z"/>
      <path class="cls-1" d="M53.23,41.17c0,.43-.35.78-.78.78s-.78-.35-.78-.78.35-.78.78-.78.78.35.78.78Z"/>
      <path class="cls-3" d="M53.23,48.58c0,.43-.35.78-.78.78s-.78-.35-.78-.78.35-.78.78-.78.78.35.78.78Z"/>
      <path class="cls-1" d="M53.23,48.58c0,.43-.35.78-.78.78s-.78-.35-.78-.78.35-.78.78-.78.78.35.78.78Z"/>
    </g>
  </g>
</svg>