<?xml version="1.0" encoding="UTF-8"?>
<svg id="Layer_2" data-name="Layer 2" xmlns="http://www.w3.org/2000/svg" viewBox="0 0 72.38 46.17">
  <defs>
    <style>
      .cls-1 {
        stroke-miterlimit: 22.93;
      }

      .cls-1, .cls-2, .cls-3 {
        fill: none;
        stroke: #141313;
        stroke-width: 2.5px;
      }

      .cls-4 {
        fill: #141313;
      }

      .cls-2 {
        stroke-linecap: round;
      }

      .cls-2, .cls-3 {
        stroke-linejoin: round;
      }
    </style>
  </defs>
  <g id="Layer_1-2" data-name="Layer 1">
    <g>
      <path class="cls-2" d="M1.25,6.25C1.25,3.5,3.5,1.25,6.25,1.25"/>
      <line class="cls-2" x1="6.25" y1="1.25" x2="66.13" y2="1.25"/>
      <path class="cls-2" d="M66.13,1.25c2.75,0,5,2.25,5,5"/>
      <line class="cls-2" x1="71.13" y1="6.25" x2="71.13" y2="39.92"/>
      <path class="cls-2" d="M71.13,39.92c0,2.75-2.25,5-5,5"/>
      <line class="cls-2" x1="66.13" y1="44.92" x2="6.25" y2="44.92"/>
      <path class="cls-2" d="M6.25,44.92c-2.75,0-5-2.25-5-5"/>
      <line class="cls-2" x1="1.25" y1="39.92" x2="1.25" y2="6.25"/>
      <path class="cls-4" d="M45.48,38.34c0,.43-.35.78-.78.78s-.78-.35-.78-.78.35-.78.78-.78.78.35.78.78Z"/>
      <path class="cls-1" d="M45.48,38.34c0,.43-.35.78-.78.78s-.78-.35-.78-.78.35-.78.78-.78.78.35.78.78Z"/>
      <path class="cls-4" d="M52.87,38.34c0,.43-.35.78-.78.78s-.78-.35-.78-.78.35-.78.78-.78.78.35.78.78Z"/>
      <path class="cls-1" d="M52.87,38.34c0,.43-.35.78-.78.78s-.78-.35-.78-.78.35-.78.78-.78.78.35.78.78Z"/>
      <path class="cls-4" d="M60.26,38.34c0,.43-.35.78-.78.78s-.78-.35-.78-.78.35-.78.78-.78.78.35.78.78Z"/>
      <path class="cls-1" d="M60.26,38.34c0,.43-.35.78-.78.78s-.78-.35-.78-.78.35-.78.78-.78.78.35.78.78Z"/>
      <path class="cls-3" d="M44.61,11.6c1.95-1.88,4.6-3.03,7.52-3.03,6,0,10.86,4.86,10.86,10.86s-4.86,10.86-10.86,10.86-10.86-4.86-10.86-10.86c0-1.21.2-2.38.57-3.47"/>
      <line class="cls-2" x1="56.78" y1="14.78" x2="62.79" y2="8.77"/>
      <line class="cls-2" x1="41.48" y1="30.08" x2="47.48" y2="24.08"/>
      <line class="cls-2" x1="56.78" y1="24.08" x2="62.79" y2="30.08"/>
      <line class="cls-2" x1="41.48" y1="8.77" x2="47.48" y2="14.78"/>
      <path class="cls-3" d="M12.72,11.6c1.95-1.88,4.6-3.03,7.52-3.03,6,0,10.86,4.86,10.86,10.86s-4.86,10.86-10.86,10.86-10.86-4.86-10.86-10.86c0-1.21.2-2.38.57-3.47"/>
      <line class="cls-2" x1="24.9" y1="14.78" x2="30.9" y2="8.77"/>
      <line class="cls-2" x1="9.59" y1="30.08" x2="15.6" y2="24.08"/>
      <line class="cls-2" x1="24.9" y1="24.08" x2="30.9" y2="30.08"/>
      <line class="cls-2" x1="9.59" y1="8.77" x2="15.6" y2="14.78"/>
    </g>
  </g>
</svg>