<?xml version="1.0" encoding="UTF-8"?>
<svg id="Layer_2" data-name="Layer 2" xmlns="http://www.w3.org/2000/svg" viewBox="0 0 54.56 60.08">
  <defs>
    <style>
      .cls-1 {
        stroke-linecap: round;
      }

      .cls-1, .cls-2, .cls-3 {
        fill: none;
        stroke: #141313;
        stroke-width: 2.5px;
      }

      .cls-1, .cls-3 {
        stroke-miterlimit: 10;
      }

      .cls-2 {
        stroke-miterlimit: 22.93;
      }

      .cls-4 {
        fill: #141313;
      }
    </style>
  </defs>
  <g id="Layer_1-2" data-name="Layer 1">
    <g>
      <path class="cls-4" d="M19.72,6.87c0,.39-.31.7-.7.7s-.7-.31-.7-.7.31-.7.7-.7.7.31.7.7Z"/>
      <path class="cls-2" d="M19.72,6.87c0,.39-.31.7-.7.7s-.7-.31-.7-.7.31-.7.7-.7.7.31.7.7Z"/>
      <path class="cls-4" d="M27.98,6.87c0,.39-.31.7-.7.7s-.7-.31-.7-.7.31-.7.7-.7.7.31.7.7Z"/>
      <path class="cls-2" d="M27.98,6.87c0,.39-.31.7-.7.7s-.7-.31-.7-.7.31-.7.7-.7.7.31.7.7Z"/>
      <path class="cls-4" d="M36.24,6.87c0,.39-.31.7-.7.7s-.7-.31-.7-.7.32-.7.7-.7.7.31.7.7Z"/>
      <path class="cls-2" d="M36.24,6.87c0,.39-.31.7-.7.7s-.7-.31-.7-.7.32-.7.7-.7.7.31.7.7Z"/>
      <line class="cls-3" x1="1.25" y1="17.45" x2="1.25" y2="54.58"/>
      <path class="cls-3" d="M1.25,54.58c0,2.34,1.91,4.25,4.25,4.25"/>
      <line class="cls-3" x1="5.5" y1="58.83" x2="49.06" y2="58.83"/>
      <path class="cls-3" d="M49.06,58.83c2.34,0,4.25-1.91,4.25-4.25"/>
      <line class="cls-3" x1="53.31" y1="54.58" x2="53.31" y2="5.5"/>
      <path class="cls-3" d="M53.31,5.5c0-2.34-1.91-4.25-4.25-4.25"/>
      <line class="cls-3" x1="49.06" y1="1.25" x2="5.5" y2="1.25"/>
      <path class="cls-3" d="M5.5,1.25C3.16,1.25,1.25,3.16,1.25,5.5"/>
      <polyline class="cls-3" points="1.25 5.5 1.25 12.45 52.69 12.45"/>
      <path class="cls-3" d="M11.86,32.63c0-2.75,2.25-5,5-5"/>
      <line class="cls-3" x1="16.86" y1="27.63" x2="37.69" y2="27.63"/>
      <path class="cls-3" d="M37.69,27.63c2.75,0,5,2.25,5,5"/>
      <line class="cls-3" x1="42.69" y1="32.63" x2="42.69" y2="45.35"/>
      <path class="cls-3" d="M42.69,45.35c0,2.75-2.25,5-5,5"/>
      <line class="cls-3" x1="37.69" y1="50.35" x2="16.86" y2="50.35"/>
      <path class="cls-3" d="M16.86,50.35c-2.75,0-5-2.25-5-5"/>
      <line class="cls-3" x1="11.86" y1="45.35" x2="11.86" y2="32.63"/>
      <line class="cls-1" x1="46.52" y1="19.4" x2="8.04" y2="19.4"/>
      <line class="cls-3" x1="12.1" y1="42.27" x2="42.45" y2="42.27"/>
      <line class="cls-3" x1="19.77" y1="42.54" x2="19.77" y2="50.02"/>
      <line class="cls-3" x1="27.28" y1="42.54" x2="27.28" y2="50.02"/>
      <line class="cls-3" x1="34.79" y1="42.54" x2="34.79" y2="50.02"/>
    </g>
  </g>
</svg>