<?xml version="1.0" encoding="UTF-8"?>
<svg id="Layer_2" data-name="Layer 2" xmlns="http://www.w3.org/2000/svg" viewBox="0 0 54.56 60.08">
  <defs>
    <style>
      .cls-1 {
        stroke-miterlimit: 22.93;
      }

      .cls-1, .cls-2, .cls-3 {
        fill: none;
        stroke: #141313;
        stroke-width: 2.5px;
      }

      .cls-2 {
        stroke-miterlimit: 10;
      }

      .cls-4 {
        fill: #141313;
      }

      .cls-3 {
        stroke-linecap: round;
        stroke-linejoin: round;
      }
    </style>
  </defs>
  <g id="Layer_1-2" data-name="Layer 1">
    <g>
      <line class="cls-3" x1="19.04" y1="51.45" x2="30.95" y2="51.45"/>
      <path class="cls-2" d="M32.35,34.35c.11,4-3.42,7.05-7.34,7.05"/>
      <line class="cls-2" x1="25.01" y1="41.41" x2="24.98" y2="41.41"/>
      <path class="cls-2" d="M24.98,41.41c-4.05,0-7.69-3.27-7.31-7.48"/>
      <polyline class="cls-2" points="17.67 33.92 18.55 25.43 26.09 25.43"/>
      <line class="cls-2" x1="1.25" y1="17.91" x2="1.25" y2="54.58"/>
      <path class="cls-2" d="M1.25,54.58c0,2.34,1.91,4.25,4.25,4.25"/>
      <line class="cls-2" x1="5.5" y1="58.83" x2="49.06" y2="58.83"/>
      <path class="cls-2" d="M49.06,58.83c2.34,0,4.25-1.91,4.25-4.25"/>
      <line class="cls-2" x1="53.31" y1="54.58" x2="53.31" y2="5.5"/>
      <path class="cls-2" d="M53.31,5.5c0-2.34-1.91-4.25-4.25-4.25"/>
      <line class="cls-2" x1="49.06" y1="1.25" x2="5.5" y2="1.25"/>
      <path class="cls-2" d="M5.5,1.25C3.16,1.25,1.25,3.16,1.25,5.5"/>
      <polyline class="cls-2" points="1.25 5.5 1.25 13.02 52.93 13.02"/>
      <line class="cls-3" x1="32.51" y1="7.22" x2="22.04" y2="7.22"/>
      <line class="cls-3" x1="25" y1="41.78" x2="25" y2="51.1"/>
      <path class="cls-3" d="M38.16,25.6c-3.01-3.53-3.29-4.81-3.31-4.99-.02.18-.3,1.45-3.31,4.99-3.51,4.12-1.49,9.51,3.31,9.52,4.78-.01,6.83-5.4,3.31-9.52Z"/>
      <path class="cls-4" d="M44.49,7.22c0,.39-.31.7-.7.7s-.7-.31-.7-.7.31-.7.7-.7.7.31.7.7Z"/>
      <path class="cls-1" d="M44.49,7.22c0,.39-.31.7-.7.7s-.7-.31-.7-.7.31-.7.7-.7.7.31.7.7Z"/>
    </g>
  </g>
</svg>