<?xml version="1.0" encoding="UTF-8"?>
<svg id="Layer_2" data-name="Layer 2" xmlns="http://www.w3.org/2000/svg" viewBox="0 0 66.31 62.14">
  <defs>
    <style>
      .cls-1, .cls-2, .cls-3, .cls-4 {
        fill: none;
        stroke: #141313;
        stroke-width: 2.5px;
      }

      .cls-1, .cls-3 {
        stroke-miterlimit: 10;
      }

      .cls-1, .cls-4 {
        stroke-linecap: round;
      }

      .cls-2 {
        stroke-miterlimit: 22.93;
      }

      .cls-5 {
        fill: #141313;
      }

      .cls-4 {
        stroke-linejoin: round;
      }
    </style>
  </defs>
  <g id="Layer_1-2" data-name="Layer 1">
    <g>
      <line class="cls-3" x1="1.25" y1="56.99" x2="2.89" y2="33.46"/>
      <path class="cls-3" d="M2.89,33.46c.92-8.72,6.51-14.29,14.37-14.29"/>
      <line class="cls-3" x1="17.26" y1="19.17" x2="31.55" y2="19.17"/>
      <line class="cls-3" x1="61.15" y1="56.99" x2="59.51" y2="33.46"/>
      <path class="cls-3" d="M59.51,33.46c-.92-8.72-6.51-14.29-14.38-14.29"/>
      <line class="cls-3" x1="45.13" y1="19.17" x2="30.84" y2="19.17"/>
      <line class="cls-4" x1="1.35" y1="56.64" x2="61.05" y2="56.64"/>
      <path class="cls-3" d="M50.04,38.4c2.53,2.5,2.55,6.58.05,9.11-2.5,2.53-6.58,2.55-9.11.05-2.53-2.5-2.55-6.59-.05-9.12,2.5-2.53,6.58-2.55,9.11-.05Z"/>
      <line class="cls-3" x1="40.93" y1="38.45" x2="50.09" y2="47.52"/>
      <line class="cls-3" x1="57.86" y1="26.67" x2="61.19" y2="25.82"/>
      <path class="cls-3" d="M61.19,25.82c1.35-.34,2.73.47,3.07,1.82"/>
      <line class="cls-3" x1="64.26" y1="27.64" x2="64.99" y2="30.49"/>
      <path class="cls-3" d="M64.99,30.49c.35,1.34-.47,2.72-1.82,3.07"/>
      <line class="cls-3" x1="63.17" y1="33.55" x2="59.84" y2="34.41"/>
      <line class="cls-3" x1="44.25" y1="14.96" x2="44.25" y2="10.5"/>
      <path class="cls-3" d="M44.25,10.5c.91-.84,1.43-1.78,1.43-2.78,0-3.57-6.48-6.46-14.48-6.46s-14.48,2.89-14.48,6.46c0,1,.52,1.94,1.43,2.78"/>
      <line class="cls-3" x1="18.15" y1="10.5" x2="18.15" y2="14.96"/>
      <line class="cls-1" x1="8.53" y1="56.72" x2="8.53" y2="60.89"/>
      <line class="cls-1" x1="53.86" y1="56.72" x2="53.86" y2="60.89"/>
      <path class="cls-5" d="M46,31.22c0,.35-.28.63-.63.63s-.63-.28-.63-.63.28-.63.63-.63.63.28.63.63Z"/>
      <path class="cls-2" d="M46,31.22c0,.35-.28.63-.63.63s-.63-.28-.63-.63.28-.63.63-.63.63.28.63.63Z"/>
      <path class="cls-5" d="M39.06,33.46c0,.35-.28.63-.63.63s-.63-.28-.63-.63.28-.63.63-.63.63.28.63.63Z"/>
      <path class="cls-2" d="M39.06,33.46c0,.35-.28.63-.63.63s-.63-.28-.63-.63.28-.63.63-.63.63.28.63.63Z"/>
      <path class="cls-5" d="M34.83,38.92c0,.35-.28.63-.63.63s-.63-.28-.63-.63.28-.63.63-.63.63.28.63.63Z"/>
      <path class="cls-2" d="M34.83,38.92c0,.35-.28.63-.63.63s-.63-.28-.63-.63.28-.63.63-.63.63.28.63.63Z"/>
      <path class="cls-5" d="M34.55,45.97c0,.35-.28.63-.63.63s-.63-.28-.63-.63.28-.63.63-.63.63.28.63.63Z"/>
      <path class="cls-2" d="M34.55,45.97c0,.35-.28.63-.63.63s-.63-.28-.63-.63.28-.63.63-.63.63.28.63.63Z"/>
    </g>
  </g>
</svg>