<?xml version="1.0" encoding="UTF-8"?>
<svg id="Layer_2" data-name="Layer 2" xmlns="http://www.w3.org/2000/svg" viewBox="0 0 60.11 61.43">
  <defs>
    <style>
      .cls-1 {
        stroke-miterlimit: 22.93;
      }

      .cls-1, .cls-2, .cls-3, .cls-4 {
        fill: none;
        stroke: #141313;
        stroke-width: 2.5px;
      }

      .cls-2 {
        stroke-miterlimit: 10;
      }

      .cls-5 {
        fill: #141313;
      }

      .cls-3 {
        stroke-linecap: round;
      }

      .cls-3, .cls-4 {
        stroke-linejoin: round;
      }
    </style>
  </defs>
  <g id="Layer_1-2" data-name="Layer 1">
    <g>
      <path class="cls-5" d="M29.57,9.92c0,.39-.31.7-.7.7s-.7-.31-.7-.7.31-.7.7-.7.7.31.7.7Z"/>
      <path class="cls-1" d="M29.57,9.92c0,.39-.31.7-.7.7s-.7-.31-.7-.7.31-.7.7-.7.7.31.7.7Z"/>
      <path class="cls-5" d="M36.1,9.92c0,.39-.31.7-.7.7s-.7-.31-.7-.7.31-.7.7-.7.7.31.7.7Z"/>
      <path class="cls-1" d="M36.1,9.92c0,.39-.31.7-.7.7s-.7-.31-.7-.7.31-.7.7-.7.7.31.7.7Z"/>
      <path class="cls-5" d="M42.63,9.92c0,.39-.31.7-.7.7s-.7-.31-.7-.7.31-.7.7-.7.7.31.7.7Z"/>
      <path class="cls-1" d="M42.63,9.92c0,.39-.31.7-.7.7s-.7-.31-.7-.7.31-.7.7-.7.7.31.7.7Z"/>
      <line class="cls-4" x1="28.43" y1="30.43" x2="28.43" y2="39.37"/>
      <path class="cls-4" d="M28.43,39.37c0,7.86,6.58,14.23,14.7,14.23s14.69-6.37,14.69-14.23"/>
      <polyline class="cls-4" points="57.82 39.37 57.82 30.42 28.43 30.43"/>
      <line class="cls-3" x1="52.41" y1="17.9" x2="9.58" y2="17.9"/>
      <path class="cls-3" d="M9.58,17.9c-4.58,0-8.33-3.75-8.33-8.33"/>
      <line class="cls-3" x1="1.25" y1="9.57" x2="1.25" y2="9.58"/>
      <path class="cls-3" d="M1.25,9.58C1.25,5,5,1.25,9.58,1.25"/>
      <line class="cls-3" x1="9.58" y1="1.25" x2="44.08" y2="1.25"/>
      <path class="cls-3" d="M44.08,1.25c4.58,0,8.33,3.75,8.33,8.33"/>
      <line class="cls-3" x1="52.41" y1="9.58" x2="52.41" y2="17.9"/>
      <line class="cls-4" x1="11.38" y1="22.22" x2="6.18" y2="49.95"/>
      <path class="cls-4" d="M6.18,49.95c-2.57.29-4.64,2.61-4.64,5.13,0,2.71,2.34,5.1,5.21,5.1"/>
      <line class="cls-4" x1="6.75" y1="60.18" x2="56.26" y2="60.18"/>
      <path class="cls-4" d="M56.26,60.18c1.43,0,2.6-1.17,2.6-2.6"/>
      <line class="cls-4" x1="58.86" y1="57.58" x2="58.86" y2="56.3"/>
      <path class="cls-4" d="M58.86,56.3c0-1.43-1.17-2.59-2.6-2.59"/>
      <line class="cls-4" x1="56.26" y1="53.71" x2="33.98" y2="53.71"/>
      <path class="cls-4" d="M33.98,53.71c-6.73,0-14.6-4.51-14.6-13.7"/>
      <line class="cls-4" x1="19.38" y1="40.01" x2="19.38" y2="28.31"/>
      <path class="cls-4" d="M19.38,28.31c0-5.73,4.69-10.4,10.41-10.4"/>
      <line class="cls-4" x1="42.45" y1="30.31" x2="42.45" y2="24.11"/>
      <path class="cls-2" d="M9.7,31.19s.51-3.63,5.27-3.23c0,0,4.7.02,4.4,5.02"/>
      <line class="cls-4" x1="52.41" y1="9.73" x2="56.97" y2="9.73"/>
      <polyline class="cls-3" points="47.71 18.18 47.71 24.06 37.2 24.06"/>
    </g>
  </g>
</svg>