<?xml version="1.0" encoding="UTF-8"?>
<svg id="Layer_2" data-name="Layer 2" xmlns="http://www.w3.org/2000/svg" viewBox="0 0 74.67 67.79">
  <defs>
    <style>
      .cls-1 {
        fill: #465259;
        fill-rule: evenodd;
        stroke-miterlimit: 10;
      }

      .cls-1, .cls-2 {
        stroke: #000;
      }

      .cls-2 {
        fill: none;
        stroke-linecap: round;
        stroke-linejoin: round;
        stroke-width: 2.5px;
      }
    </style>
  </defs>
  <g id="Layer_1-2" data-name="Layer 1">
    <g>
      <path class="cls-2" d="M23.17,1.25h8.9c.62,0,1.12.5,1.12,1.12v28.58c0,3.06-2.51,5.57-5.57,5.57h0c-3.06,0-5.57-2.51-5.57-5.57V2.37c0-.62.5-1.12,1.12-1.12Z"/>
      <path class="cls-1" d="M27.64,29.46c1.2,0,2.17.97,2.17,2.17s-.97,2.17-2.17,2.17-2.17-.97-2.17-2.17.97-2.17,2.17-2.17Z"/>
      <path class="cls-2" d="M27.64,29.46c1.2,0,2.17.97,2.17,2.17s-.97,2.17-2.17,2.17-2.17-.97-2.17-2.17.97-2.17,2.17-2.17Z"/>
      <path class="cls-2" d="M4.31,40.1c-2.29-.72-3.58-3.17-2.86-5.46l3.34-10.69c.72-2.29,3.17-3.58,5.46-2.86"/>
      <path class="cls-2" d="M33.26,24.65l8.17,2.54-7.74,24.93-27.11-8.01c-1.78-.52-2.76-2.45-2.21-4.22l5.9-18.88c.55-1.77,2.45-2.76,4.22-2.21l7.52,2.34"/>
      <path class="cls-2" d="M41.42,27.19c3.19-.21,7.02-.42,10.22-.63.82,0,2.06.43,1.88,1.12-3.03,10.26-6.06,20.53-9.08,30.79-.19.73-1.2,1.13-1.96.38l-8.85-6.8"/>
      <line class="cls-2" x1="57.55" y1="39.64" x2="73.42" y2="30.86"/>
      <line class="cls-2" x1="55.59" y1="44.97" x2="73.33" y2="50.15"/>
      <line class="cls-2" x1="54.08" y1="50.23" x2="63" y2="66.54"/>
    </g>
  </g>
</svg>