<?xml version="1.0" encoding="UTF-8"?>
<svg id="Layer_2" data-name="Layer 2" xmlns="http://www.w3.org/2000/svg" viewBox="0 0 42.26 65.45">
  <defs>
    <style>
      .cls-1 {
        fill: none;
        stroke: #000;
        stroke-miterlimit: 22.93;
        stroke-width: 2.5px;
      }
    </style>
  </defs>
  <g id="Layer_1-2" data-name="Layer 1">
    <path class="cls-1" d="M31.48,3.11c.51,0,.93-.42.93-.93s-.42-.93-.93-.93-.93.42-.93.93.42.93.93.93ZM11.76,3.11c.51,0,.93-.42.93-.93s-.42-.93-.93-.93-.93.42-.93.93.42.93.93.93ZM31.48,5.83v-2.72M11.76,5.83v-2.72M1.95,6.98c0-.63.52-1.15,1.15-1.15M1.95,8.94v-1.96M3.1,10.08c-.63,0-1.15-.52-1.15-1.15M39.86,10.08H3.1M41.01,8.94c0,.63-.52,1.15-1.15,1.15M41.01,6.98v1.96M39.86,5.83c.63,0,1.15.52,1.15,1.15M3.1,5.83h36.77M36.23,13.25l3.17,4.72M28.9,13.13l1.61,5.03M21.45,13.13v4.97M14.24,13.13l-1.8,4.91M6.61,13.06l-3.17,4.91M5.82,64.2h30.2M5.82,25.79h30.2M27.83,40.38l-9.8,9.31M28.03,32.91l-17.56,17.17M20.46,33.1l-9.41,9.12M36.03,64.2h4.57V25.79h-4.57v38.41ZM1.25,64.2h4.57V25.79H1.25v38.41Z"/>
  </g>
</svg>