<?xml version="1.0" encoding="UTF-8"?>
<svg id="Layer_2" data-name="Layer 2" xmlns="http://www.w3.org/2000/svg" viewBox="0 0 64.51 66.53">
  <defs>
    <style>
      .cls-1 {
        fill: none;
        stroke: #000;
        stroke-linecap: round;
        stroke-linejoin: round;
        stroke-width: 2.5px;
      }
    </style>
  </defs>
  <g id="Layer_1-2" data-name="Layer 1">
    <g>
      <line class="cls-1" x1="32.27" y1="53.83" x2="32.27" y2="7.64"/>
      <path class="cls-1" d="M35.93,6.99c3.16,0,5.74-2.58,5.74-5.74h-18.66c0,3.16,2.58,5.74,5.74,5.74h7.18Z"/>
      <path class="cls-1" d="M12.73,57.6c0,12.13,19.54,9.14,19.54-3.77"/>
      <path class="cls-1" d="M52.32,57.48c0,12.13-20.02,9.26-20.02-3.65"/>
      <line class="cls-1" x1="7.38" y1="34.02" x2="7.38" y2="32.64"/>
      <path class="cls-1" d="M7.38,32.64c0-2.41,2.3-4.38,5.12-4.38"/>
      <line class="cls-1" x1="12.5" y1="28.26" x2="12.5" y2="28.26"/>
      <path class="cls-1" d="M12.5,28.26c2.82,0,5.12,1.97,5.12,4.38"/>
      <line class="cls-1" x1="17.62" y1="32.64" x2="17.62" y2="34"/>
      <line class="cls-1" x1="47.15" y1="34.02" x2="47.15" y2="32.64"/>
      <path class="cls-1" d="M47.15,32.64c0-2.41,2.3-4.38,5.12-4.38"/>
      <path class="cls-1" d="M52.27,28.26c2.82,0,5.12,1.97,5.12,4.38"/>
      <line class="cls-1" x1="57.39" y1="32.64" x2="57.39" y2="34"/>
      <path class="cls-1" d="M17,51.84s3.37-1.37,3.5-5.81c.13-4.44-.72-3.49-.66-6.75.07-3.26,3.65-5.02,3.65-5.02H1.25s2.77,2.27,3.2,4.34c.61,3.02-.46,2.7-.43,7.07.03,4.37,3.14,6.21,3.76,6.21l9.23-.03Z"/>
      <path class="cls-1" d="M56.77,51.84s3.37-1.37,3.5-5.81c.13-4.44-.72-3.49-.66-6.75.07-3.26,3.65-5.02,3.65-5.02h-22.24s2.77,2.27,3.2,4.34c.61,3.02-.46,2.7-.43,7.07.03,4.37,3.14,6.21,3.76,6.21l9.23-.03Z"/>
      <line class="cls-1" x1="17.11" y1="52.1" x2="17.17" y2="53.16"/>
      <path class="cls-1" d="M17.17,53.16c.14,2.44-2,4.44-4.44,4.44"/>
      <line class="cls-1" x1="12.73" y1="57.6" x2="12.34" y2="57.6"/>
      <path class="cls-1" d="M12.34,57.6c-2.44,0-4.3-2-4.44-4.44"/>
      <line class="cls-1" x1="7.91" y1="53.16" x2="7.85" y2="52.1"/>
      <line class="cls-1" x1="56.87" y1="52.1" x2="56.94" y2="53.16"/>
      <path class="cls-1" d="M56.94,53.16c.14,2.44-2,4.44-4.44,4.44"/>
      <line class="cls-1" x1="52.5" y1="57.6" x2="52.11" y2="57.6"/>
      <path class="cls-1" d="M52.11,57.6c-2.44,0-4.3-2-4.44-4.44"/>
      <line class="cls-1" x1="47.67" y1="53.16" x2="47.61" y2="52.1"/>
    </g>
  </g>
</svg>