<?xml version="1.0" encoding="UTF-8"?>
<svg id="Layer_2" data-name="Layer 2" xmlns="http://www.w3.org/2000/svg" viewBox="0 0 63.5 55.96">
  <defs>
    <style>
      .cls-1 {
        fill: none;
        stroke: #000;
        stroke-miterlimit: 22.93;
        stroke-width: 2.5px;
      }
    </style>
  </defs>
  <g id="Layer_1-2" data-name="Layer 1">
    <path class="cls-1" d="M23.93,30.53v-.76M38.72,30.53c0,3.78-3.09,6.88-6.88,6.88h-1.04c-3.78,0-6.88-3.09-6.88-6.88M38.72,29.76v.76M48.67,34.61l9.1,3.52M44.66,40.31l7.03,7.28M38.6,44.19l3.88,9.34M31.69,45.89v10.07M24.9,44.32l-3.88,8.85M18.96,40.44l-6.91,6.67M14.95,34.49l-9.46,3.88M6.46,24.67h50.21V5.75M62.25,29.08c0,.37-.31.68-.68.68H1.93c-.37,0-.68-.31-.68-.68V1.25h61v27.83Z"/>
  </g>
</svg>