<?xml version="1.0" encoding="UTF-8"?>
<svg id="Layer_2" data-name="Layer 2" xmlns="http://www.w3.org/2000/svg" viewBox="0 0 73.36 67.37">
  <defs>
    <style>
      .cls-1 {
        fill: none;
        stroke: #000;
        stroke-linecap: round;
        stroke-miterlimit: 22.93;
        stroke-width: 2.5px;
      }
    </style>
  </defs>
  <g id="Layer_1-2" data-name="Layer 1">
    <path class="cls-1" d="M33.34,7.27c-3.31,0-6.01-2.71-6.01-6.01h19.55c0,3.31-2.71,6.01-6.01,6.01h-7.52ZM36.99,36.94l-.02-29.67M56.54,36.81h.41c2.56,0,4.65,1.82,4.65,4.04v1.43M62.7,59.93v.26c0,3.26-2.67,5.93-5.93,5.93s-5.93-2.67-5.93-5.93v-.27M61.02,45.85c1.16,1.16,5.13,3.35,6.49,10.39M61.82,42.44l-11.32.26c-7.23,4.42-9.61,10.36-9.64,17.24h31.24c.36-6.45-5.95-17.59-10.28-17.5ZM51.72,42.66v-1.72c0-2.22,2.24-4.14,4.79-4.14M23.1,59.93v.26c0,3.26-2.67,5.93-5.93,5.93s-5.93-2.67-5.93-5.93v-.26M21.42,45.85c1.16,1.16,5.13,3.35,6.49,10.39M32.49,59.93c.36-6.45-5.95-17.59-10.28-17.5l-11.32.26C3.67,47.11,1.29,53.05,1.26,59.93h31.24ZM12.11,42.66v-1.72c0-2.22,2.09-4.04,4.65-4.04h.41c2.56,0,4.65,1.82,4.65,4.04v1.5M16.97,36.9c-.14-3.31,2.15-8.52,9.93-8.52,6.9,0,10.07,4.08,10.07,4.77,0,6.82.07,3.01.07,0,0-.68,3.06-4.77,9.7-4.77,7.49,0,9.98,6.23,10.11,8.42"/>
  </g>
</svg>