<?xml version="1.0" encoding="UTF-8"?>
<svg id="Layer_2" data-name="Layer 2" xmlns="http://www.w3.org/2000/svg" viewBox="0 0 68.18 66.48">
  <defs>
    <style>
      .cls-1 {
        fill: none;
        stroke: #000;
        stroke-miterlimit: 22.93;
        stroke-width: 2.5px;
      }
    </style>
  </defs>
  <g id="Layer_1-2" data-name="Layer 1">
    <path class="cls-1" d="M53.91,65.22c-3.51,0-6.38-2.87-6.38-6.38M60.29,58.85c0,3.51-2.87,6.38-6.37,6.38M14.11,65.22c-3.51,0-6.37-2.87-6.37-6.38M20.49,58.85c0,3.51-2.87,6.38-6.37,6.38M61.09,46.97v7.63M21.74,46.97v7.63M41.36,58.7h25.57v-16.85h-25.57v16.85ZM1.25,58.7h25.57v-16.85H1.25v16.85ZM54.52,38.67v3.57M49.36,33.5c2.84,0,5.16,2.32,5.16,5.16M18.86,33.5h30.5M13.7,38.67c0-2.84,2.32-5.16,5.16-5.16M13.7,42.23v-3.57M34.19,33.96V7.85M38.28,7.93h-8.35c-3.67,0-6.68-3-6.68-6.68h21.7c0,3.67-3,6.68-6.68,6.68Z"/>
  </g>
</svg>