<?xml version="1.0" encoding="UTF-8"?>
<svg id="Layer_2" data-name="Layer 2" xmlns="http://www.w3.org/2000/svg" viewBox="0 0 66.35 69.41">
  <defs>
    <style>
      .cls-1 {
        fill: none;
        stroke: #000;
        stroke-linecap: round;
        stroke-miterlimit: 22.93;
        stroke-width: 2.5px;
      }
    </style>
  </defs>
  <g id="Layer_1-2" data-name="Layer 1">
    <g>
      <path class="cls-1" d="M19.81,42.45c4.81,2.03,8.19,6.78,8.19,12.33,0,7.39-5.99,13.37-13.37,13.37S1.25,62.17,1.25,54.78c0-5.45,3.27-10.15,7.95-12.23,1.7-.04,8.56-.2,10.61-.1Z"/>
      <path class="cls-1" d="M56.92,42.45c4.81,2.03,8.19,6.78,8.19,12.33,0,7.39-5.99,13.37-13.37,13.37s-13.37-5.99-13.37-13.37c0-5.45,3.27-10.15,7.95-12.23,1.7-.04,8.56-.2,10.61-.1Z"/>
      <path class="cls-1" d="M14.94,36.94v-3.17c0-2.2,3.23-5.43,9.4-5.43s9.01,4.12,9.01,4.81v3.17"/>
      <path class="cls-1" d="M51.83,36.94v-3.17c0-2.2-3.23-5.43-9.4-5.43s-9.01,4.12-9.01,4.81v3.17"/>
      <line class="cls-1" x1="9.74" y1="42.45" x2="9.74" y2="41.01"/>
      <path class="cls-1" d="M9.74,41.01c0-2.24,2.11-4.08,4.69-4.08"/>
      <line class="cls-1" x1="14.43" y1="36.94" x2="14.84" y2="36.94"/>
      <path class="cls-1" d="M14.84,36.94c2.58,0,4.69,1.83,4.69,4.08"/>
      <line class="cls-1" x1="19.52" y1="41.01" x2="19.52" y2="42.45"/>
      <line class="cls-1" x1="47.01" y1="42.45" x2="47.01" y2="41.01"/>
      <path class="cls-1" d="M47.01,41.01c0-2.24,2.11-4.08,4.69-4.08"/>
      <line class="cls-1" x1="51.7" y1="36.94" x2="52.11" y2="36.94"/>
      <path class="cls-1" d="M52.11,36.94c2.58,0,4.69,1.83,4.69,4.08"/>
      <line class="cls-1" x1="56.79" y1="41.01" x2="56.79" y2="42.45"/>
      <line class="cls-1" x1="33.2" y1="33.61" x2="33.2" y2="7.31"/>
      <line class="cls-1" x1="23.34" y1="1.25" x2="43.05" y2="1.25"/>
      <path class="cls-1" d="M43.05,1.25c0,3.33-2.73,6.06-6.06,6.06"/>
      <line class="cls-1" x1="36.98" y1="7.31" x2="29.41" y2="7.31"/>
      <path class="cls-1" d="M29.41,7.31c-3.33,0-6.06-2.73-6.06-6.06"/>
    </g>
  </g>
</svg>