<?xml version="1.0" encoding="UTF-8"?>
<svg id="Layer_2" data-name="Layer 2" xmlns="http://www.w3.org/2000/svg" viewBox="0 0 66 68">
  <defs>
    <style>
      .cls-1 {
        fill: none;
        stroke: #000;
        stroke-linecap: round;
        stroke-miterlimit: 22.93;
        stroke-width: 2.5px;
      }
    </style>
  </defs>
  <g id="Layer_1-2" data-name="Layer 1">
    <path class="cls-1" d="M59.88,41.54v1.37M56.45,38.1c1.89,0,3.44,1.55,3.44,3.43M56.45,38.1h0M53.01,41.54c0-1.89,1.55-3.43,3.44-3.43M53.01,42.91v-1.37M36.36,41.54v1.37M32.93,38.1c1.89,0,3.44,1.55,3.44,3.43M29.49,41.54c0-1.89,1.55-3.43,3.44-3.43M29.49,42.91v-1.37M13.1,41.54v1.37M9.67,38.1c1.89,0,3.44,1.55,3.44,3.43M9.67,38.1h0M6.23,41.54c0-1.89,1.55-3.43,3.44-3.43M6.23,42.91v-1.37M57.65,46.35c4.95,3.05,5.45,13.91-1.32,15.76M34.13,46.35c4.95,3.05,5.45,13.91-1.32,15.76M10.87,46.35c4.95,3.05,5.45,13.91-1.32,15.76M60.61,42.87c2.47,2.23,4.13,6.35,4.13,11.06,0,7.08-3.74,12.82-8.36,12.82s-8.36-5.74-8.36-12.82c0-4.61,1.92-8.81,4.29-11.07,1.12.02,7.17.03,8.29,0ZM37.09,42.87c2.47,2.23,4.13,6.35,4.13,11.06,0,7.08-3.74,12.82-8.36,12.82s-8.36-5.74-8.36-12.82c0-4.61,1.92-8.81,4.29-11.07,1.12.02,7.17.03,8.29,0ZM13.84,42.87c2.47,2.23,4.13,6.35,4.13,11.06,0,7.08-3.74,12.82-8.36,12.82S1.25,61.01,1.25,53.93c0-4.61,1.92-8.81,4.29-11.07,1.12.02,7.17.03,8.29,0ZM29.4,7.06c-3.2,0-5.81-2.62-5.81-5.81M36.67,7.06h-7.27M42.48,1.25c0,3.2-2.62,5.81-5.81,5.81M23.58,1.25h18.9M33.03,37.35V7.06M56.58,38.25c.02-5.45-3.25-12.27-12.11-12.27-7.85,0-11.47,8.09-11.47,8.75s0,2.62,0,2.62M9.45,38.11c-.02-6.04,3.25-12.13,12.11-12.13,7.85,0,11.47,8.09,11.47,8.75s0,2.62,0,2.62"/>
  </g>
</svg>