<?xml version="1.0" encoding="UTF-8"?>
<svg id="Layer_2" data-name="Layer 2" xmlns="http://www.w3.org/2000/svg" viewBox="0 0 67.9 69.97">
  <defs>
    <style>
      .cls-1 {
        fill: none;
        stroke: #000;
        stroke-linecap: round;
        stroke-linejoin: round;
        stroke-width: 2.5px;
      }
    </style>
  </defs>
  <g id="Layer_1-2" data-name="Layer 1">
    <path class="cls-1" d="M45.19,19.42l15.11,9.79M45.32,28.83c.39.19,14,9.06,14,9.06M33.24,29.99l16.38,9.08M33.28,39.69l15.9,8.54M21.64,40.1c1.59.73,17.06,9.03,17.06,9.03M43.92,1.69l.32.37c.47.54.41,1.35-.13,1.82L3.71,39.01c-.54.47-1.35.41-1.82-.13l-.32-.37c-.47-.54-.41-1.35.13-1.82L42.1,1.57c.54-.47,1.35-.41,1.82.13ZM44.37,8.81l5.46,1.67M38.21,14.08l4.69,2.05M32.17,19.02l4.11,3.21M26.39,24.29l3.21,3.4M20.54,29.43l2.44,4.3M14.76,34.5l1.35,5.08M8.98,39.96v5.78M28.62,59.79l-19.53-9.35M38.64,58.19l-17.47-8.74M65.04,18.45l-19.85.96.13,9.42-12.08,1.16.03,9.7-11.63.42-.18,9.35-12.37.99.18,9.01,19.35,9.27M65.62,68.44H28.62v-8.97l10.02-1.29.06-9.06,10.47-.9.13-9.12,10.02-1.22.39-9.13h6.94"/>
  </g>
</svg>