<?xml version="1.0" encoding="UTF-8"?>
<svg id="Layer_2" data-name="Layer 2" xmlns="http://www.w3.org/2000/svg" viewBox="0 0 75.65 65.83">
  <defs>
    <style>
      .cls-1 {
        fill: none;
        stroke: #000;
        stroke-linecap: round;
        stroke-miterlimit: 22.93;
        stroke-width: 2.5px;
      }
    </style>
  </defs>
  <g id="Layer_1-2" data-name="Layer 1">
    <path class="cls-1" d="M15.98,56.07c0,13.45,21.69,10.13,21.69-4.19,0,14.32,22.2,17.5,22.2,4.05M48.07,1.25c0,3.5-2.86,6.36-6.36,6.36h-7.96c-3.5,0-6.36-2.86-6.36-6.36h20.69ZM37.67,51.89l-.02-43.55M65.47,37.56v-.24c0-3.09-2.53-5.61-5.61-5.61s-5.61,2.53-5.61,5.61v.25M63.89,50.89c1.1-1.1,4.85-3.17,6.15-9.83M74.37,37.56c.3,5.26-1.37,18.39-14.47,18.39s-15.05-9.65-15.09-18.39h29.56ZM21.82,37.57v-.25c0-3.09-2.53-5.61-5.61-5.61-3.18.04-5.61,2.41-5.61,5.61v.25M20.23,50.89c1.1-1.1,4.85-3.17,6.14-9.83M1.26,37.55h29.56c.3,5.26-1.48,18.4-14.58,18.4S1.3,46.3,1.26,37.55Z"/>
  </g>
</svg>