<?xml version="1.0" encoding="UTF-8"?>
<svg id="Layer_2" data-name="Layer 2" xmlns="http://www.w3.org/2000/svg" viewBox="0 0 43.8 65.95">
  <defs>
    <style>
      .cls-1 {
        fill: none;
        stroke: #000;
        stroke-linecap: round;
        stroke-miterlimit: 22.93;
        stroke-width: 2.5px;
      }
    </style>
  </defs>
  <g id="Layer_1-2" data-name="Layer 1">
    <g>
      <polyline class="cls-1" points="23.98 43.66 42.55 43.73 42.55 49.12 1.25 49.12 1.25 43.73 9.56 43.73"/>
      <line class="cls-1" x1="16" y1="43.73" x2="20.73" y2="43.66"/>
      <line class="cls-1" x1="15.65" y1="55.71" x2="10.83" y2="60.53"/>
      <line class="cls-1" x1="22.03" y1="57.73" x2="22.03" y2="64.7"/>
      <line class="cls-1" x1="28.15" y1="55.38" x2="33.1" y2="60.79"/>
      <path class="cls-1" d="M3.4,42.42c0-11.46,8.99-18.76,18.37-18.76s19.02,9.12,19.02,19.28"/>
      <line class="cls-1" x1="17.08" y1="24.35" x2="17.08" y2="11.47"/>
      <path class="cls-1" d="M17.08,11.47c0-.81.66-1.48,1.48-1.48"/>
      <line class="cls-1" x1="18.56" y1="9.99" x2="24.85" y2="9.99"/>
      <path class="cls-1" d="M24.85,9.99c.81,0,1.48.66,1.48,1.48"/>
      <line class="cls-1" x1="26.33" y1="11.47" x2="26.33" y2="24.35"/>
      <line class="cls-1" x1="22.29" y1="1.25" x2="22.29" y2="9.99"/>
    </g>
  </g>
</svg>