<?xml version="1.0" encoding="UTF-8"?>
<svg id="Layer_2" data-name="Layer 2" xmlns="http://www.w3.org/2000/svg" viewBox="0 0 49.6 67">
  <defs>
    <style>
      .cls-1 {
        fill: none;
        stroke: #000;
        stroke-linecap: round;
        stroke-miterlimit: 22.93;
        stroke-width: 2.5px;
      }
    </style>
  </defs>
  <g id="Layer_1-2" data-name="Layer 1">
    <path class="cls-1" d="M30.43,65.03c.33-1.64.07-19.95.07-19.95M14.79,45.08h31.4M18.19,45.08l3.86-7,16.49-.07,4.55,7.07-6.97,20.67h-10.92l-7-20.67ZM25,37.75l2.62-6.08h5.56l3.01,6.15M30.49,22.64v8.37M12.18,19.44c0,4.19-6.22,3.79-6.22-.52s3.57-6.43,7.83-4.99c4.25,1.44,8.66,11.93,17.16,11.53,8.5-.39,14.52-5.23,14.52-11.38s-3.27-6.67-6.02-6.67-4.91,1.18-5.23,4.58c-.33,3.4,4.45,5.36,6.15,1.96M1.25,7.4h47.1M5.96,30.95V1.25"/>
  </g>
</svg>