<?xml version="1.0" encoding="UTF-8"?>
<svg id="Layer_2" data-name="Layer 2" xmlns="http://www.w3.org/2000/svg" viewBox="0 0 124.53 67.79">
  <defs>
    <style>
      .cls-1 {
        fill: none;
        stroke: #000;
        stroke-miterlimit: 22.93;
        stroke-width: 2.5px;
      }
    </style>
  </defs>
  <g id="Layer_1-2" data-name="Layer 1">
    <path class="cls-1" d="M64.32,11.03v19.39M58.66,11.03v19.39M49.59,59.91v-1.02M56.22,66.54c-3.65,0-6.63-2.98-6.63-6.63M67.69,66.54h-11.47M74.32,59.91c0,3.65-2.98,6.63-6.63,6.63M49.59,58.89h24.73v1.02M47.5,57.95v-4.66M48.44,58.89c-.52,0-.94-.42-.94-.94M75.69,58.89h-27.25M76.63,57.95c0,.52-.42.94-.94.94M47.5,53.29h29.13v4.66M76.63,49.05v4.24M76.63,40.48v3.83M74.34,38.19c1.26,0,2.29,1.04,2.29,2.29M49.79,38.19h24.56M47.5,40.48c0-1.26,1.03-2.29,2.29-2.29M47.5,43.76v-3.28M47.5,53.29v-4.81M68.84,34.75v3.46M64.48,30.4c2.4,0,4.36,1.96,4.36,4.35M58.62,30.4h5.86M54.27,34.75c0-2.4,1.96-4.35,4.36-4.35M54.27,38.26v-3.51M50.62,1.25h22.27v9.78h-22.27V1.25ZM66.21,48.91l55.35,1.25-7.08-7.49-39.95,1.67-8.32,4.58ZM58.32,43.91l-55.35-1.25,7.08,7.49,39.95-1.66,8.32-4.58Z"/>
  </g>
</svg>