<?xml version="1.0" encoding="UTF-8"?>
<svg id="Layer_2" data-name="Layer 2" xmlns="http://www.w3.org/2000/svg" viewBox="0 0 82.22 66.38">
  <defs>
    <style>
      .cls-1 {
        fill: none;
        stroke: #000;
        stroke-miterlimit: 22.93;
        stroke-width: 2.5px;
      }
    </style>
  </defs>
  <g id="Layer_1-2" data-name="Layer 1">
    <path class="cls-1" d="M41.15,1.25c6.1,0,11.04,2.54,11.04,5.67s-4.94,5.66-11.04,5.66-11.04-2.54-11.04-5.66,4.94-5.67,11.04-5.67ZM28.38,57.25s.41-15.35,12.4-15.35,13.04,11.01,13.04,16.96M41.14,53.88c7.05,0,12.77,2.52,12.77,5.62s-5.72,5.62-12.77,5.62-12.77-2.52-12.77-5.62,5.72-5.62,12.77-5.62ZM41.2,8.67v33.66M26.58,46.65l-5.09-.49L2.12,56.22l-.56,2.96,6.83,3.97,3.62.09,12.43-6.9M57.36,56.09l11.46,6.56,2.96.25,9.02-4.01.12-2.63-19.95-9.93-6.08-.16M46.77,39.43l5.01-2.38,8.29.66,19.89-10.21.47-2.02-7.6-4.24-2.87-.27-18.85,9.27.66,6.81M34.05,39.75l-3.78-2.3.33-6.9-18.64-9.93-2.79-.16-7.73,4.17-.15,3.3,19.29,9.52h9.69"/>
  </g>
</svg>