<?xml version="1.0" encoding="UTF-8"?>
<svg id="Layer_2" data-name="Layer 2" xmlns="http://www.w3.org/2000/svg" viewBox="0 0 65.11 68.97">
  <defs>
    <style>
      .cls-1 {
        fill: none;
        stroke: #000;
        stroke-linecap: round;
        stroke-miterlimit: 22.93;
        stroke-width: 2.5px;
      }
    </style>
  </defs>
  <g id="Layer_1-2" data-name="Layer 1">
    <path class="cls-1" d="M16.71,34.95l34.66,22.94M28.45,17.62c-6.47,1.99-11.8,8.8-11.74,17.33M62.97,40.84L28.45,17.62M63.13,40.98c-.9-1.04-6.25-.66-9.7,5.49-3.46,6.15-4.17,9.42-2.51,11.08,1.66,1.66,5.68.05,9.56-5.82,3.88-5.87,3.88-9.33,2.65-10.75ZM53.37,34.39c-6.47,1.99-11.52,8.71-11.46,17.24M17.39,29.18H7.53M19.95,24.26H7.53M5.27,42.77H1.25M5.46,10.53s2.13-.33,2.08,2.27c-.05,2.6.01,25.08,0,27.65-.01,2.57-1.82,2.32-2.27,2.32M1.25,10.55l4.21-.02M1.25,1.25v66.47"/>
  </g>
</svg>