<?xml version="1.0" encoding="UTF-8"?>
<svg id="Layer_2" data-name="Layer 2" xmlns="http://www.w3.org/2000/svg" viewBox="0 0 40.77 66.89">
  <defs>
    <style>
      .cls-1 {
        fill: none;
        stroke: #000;
        stroke-miterlimit: 22.93;
        stroke-width: 2.5px;
      }
    </style>
  </defs>
  <g id="Layer_1-2" data-name="Layer 1">
    <g>
      <path class="cls-1" d="M21.94,8.61h-2.78c-4.05,0-7.36-3.31-7.36-7.36,0,0,17.49,0,17.49,0h0c0,4.05-3.31,7.36-7.36,7.36Z"/>
      <line class="cls-1" x1="20.55" y1="21.56" x2="20.55" y2="8.61"/>
      <line class="cls-1" x1="28.4" y1="23.22" x2="28.4" y2="28.86"/>
      <path class="cls-1" d="M26.74,21.56c.91,0,1.66.75,1.66,1.66"/>
      <line class="cls-1" x1="14.35" y1="21.56" x2="26.74" y2="21.56"/>
      <path class="cls-1" d="M12.7,23.22c0-.91.75-1.66,1.66-1.66"/>
      <line class="cls-1" x1="12.7" y1="28.86" x2="12.7" y2="23.22"/>
      <circle class="cls-1" cx="20.38" cy="46.51" r="19.13" transform="translate(-28.79 59.18) rotate(-80.78)"/>
    </g>
  </g>
</svg>