<?xml version="1.0" encoding="UTF-8"?>
<svg id="Layer_2" data-name="Layer 2" xmlns="http://www.w3.org/2000/svg" viewBox="0 0 62.25 68.61">
  <defs>
    <style>
      .cls-1 {
        fill: none;
        stroke: #000;
        stroke-linecap: round;
        stroke-linejoin: round;
        stroke-width: 2.5px;
      }
    </style>
  </defs>
  <g id="Layer_1-2" data-name="Layer 1">
    <path class="cls-1" d="M24.9,31.51h11.74M6.86,11.51l3.52,3.54M30.8,5.6V1.25M51.21,15.05l3.52-3.54M22.2,59.82h17.3M34.83,65.13h2.54M26.86,65.13c.64.88,2.03,2.23,3.99,2.23s3.34-1.35,3.99-2.23M24.32,65.13h2.54M23.53,54.06h14.62M38.15,54.06c.97-6.47,4.47-8.18,8.38-12.37,9.4-11.1-.14-29.63-15.68-29.63S5.91,30.3,15.13,41.65c3.89,4.21,7.42,5.94,8.4,12.42M30.85,54.07v-16.55l5.83-5.86M30.75,37.52l-5.84-5.86M1.25,32.1h4.99M56.01,32.1h4.99"/>
  </g>
</svg>