<?xml version="1.0" encoding="UTF-8"?>
<svg id="Layer_2" data-name="Layer 2" xmlns="http://www.w3.org/2000/svg" viewBox="0 0 60.7 66.68">
  <defs>
    <style>
      .cls-1 {
        fill: none;
        stroke: #000;
        stroke-miterlimit: 22.93;
        stroke-width: 2.5px;
      }
    </style>
  </defs>
  <g id="Layer_1-2" data-name="Layer 1">
    <g>
      <path class="cls-1" d="M1.25,55.78v-29.44s4.62.04,5.91.05c1.29.01,2.86,1.95,2.86,4.36v21.53c0,2.78-1.41,3.55-3.44,3.5-2.03-.05-5.34,0-5.34,0Z"/>
      <path class="cls-1" d="M10.03,41.79c2.38-.03,6.27.54,7.96,2.65,1.69,2.11,1.79,5.05,1.67,10.84-.12,5.79,5.51,10.29,10.04,10.13,4.53-.15,11.49-1.55,10.95-13.56"/>
      <path class="cls-1" d="M51.83,40.76h-22.62s1.15,11.1,11.7,11.1,10.92-11.1,10.92-11.1Z"/>
      <line class="cls-1" x1="44.95" y1="32.56" x2="44.95" y2="40.52"/>
      <line class="cls-1" x1="36.27" y1="32.8" x2="36.09" y2="40.64"/>
      <polygon class="cls-1" points="22.27 32.26 58.95 32.26 48.33 1.25 33.01 1.25 22.27 32.26"/>
    </g>
  </g>
</svg>