<?xml version="1.0" encoding="UTF-8"?>
<svg id="Layer_2" data-name="Layer 2" xmlns="http://www.w3.org/2000/svg" viewBox="0 0 49.14 67.78">
  <defs>
    <style>
      .cls-1 {
        fill: none;
        stroke: #000;
        stroke-miterlimit: 22.93;
        stroke-width: 2.5px;
      }
    </style>
  </defs>
  <g id="Layer_1-2" data-name="Layer 1">
    <path class="cls-1" d="M24.57,14.03v-6.63M24.57,24.77v-6.63M22.54,14.09c0-1.03.84-1.87,1.87-1.87M22.54,18.36v-4.27M24.41,20.23c-1.03,0-1.87-.84-1.87-1.87M24.48,20.23h-.07M26.36,18.36c0,1.03-.84,1.87-1.87,1.87M26.36,14.09v4.27M24.48,12.22c1.03,0,1.87.84,1.87,1.87M24.41,12.22h.07M22.54,3.12c0-1.03.84-1.87,1.87-1.87M22.54,7.39V3.12M24.41,9.26c-1.03,0-1.87-.84-1.87-1.87M24.48,9.26h-.07M26.36,7.39c0,1.03-.84,1.87-1.87,1.87M26.36,3.12v4.27M24.48,1.25c1.03,0,1.87.84,1.87,1.87M24.41,1.25h.07M47.89,28.23v34.83M43.68,28.23v34.83M38.81,28.23v34.83M34.16,28.23v34.83M29.3,28.23v34.83M24.73,28.23v34.83M19.71,28.23v34.83M14.99,28.23v34.83M10.35,28.23v34.83M5.41,28.23v34.83M1.25,28.23v34.83M1.25,66.53h46.64v-3.46H1.25v3.46ZM1.25,28.23h46.64v-3.46H1.25v3.46Z"/>
  </g>
</svg>