<?xml version="1.0" encoding="UTF-8"?>
<svg id="Layer_2" data-name="Layer 2" xmlns="http://www.w3.org/2000/svg" viewBox="0 0 89.02 66.34">
  <defs>
    <style>
      .cls-1 {
        fill: none;
        stroke: #000;
        stroke-linecap: round;
        stroke-miterlimit: 22.93;
        stroke-width: 2.5px;
      }
    </style>
  </defs>
  <g id="Layer_1-2" data-name="Layer 1">
    <g>
      <path class="cls-1" d="M44.3,44.36c9.18,0,16.66-7.48,16.66-16.66s-7.48-16.66-16.66-16.66-16.66,7.49-16.66,16.66,7.48,16.66,16.66,16.66Z"/>
      <path class="cls-1" d="M44.3,38.35c5.86,0,10.65-4.78,10.65-10.65s-4.78-10.65-10.65-10.65-10.65,4.78-10.65,10.65,4.78,10.65,10.65,10.65Z"/>
      <polygon class="cls-1" points="12.22 27.91 5.97 38.22 18.47 38.22 12.22 27.91"/>
      <polygon class="cls-1" points="76.8 27.91 83.05 38.22 70.55 38.22 76.8 27.91"/>
      <path class="cls-1" d="M5.88,38.87c-.15.98-3.86,22.16-4.39,24.14-.53,1.98-.21,2.08,1.04,2.08h19.16c1.77,0,1.75-.51,1.5-2.6-.25-2.09-4.23-22.86-4.4-23.66"/>
      <path class="cls-1" d="M83.05,38.22s3.95,22.81,4.48,24.78c.53,1.98.21,2.08-1.04,2.08h-19.16c-1.77,0-1.75-.51-1.5-2.6.25-2.09,4.73-24.27,4.73-24.27"/>
      <path class="cls-1" d="M41.54,27.6S40.81,1.25,27.48,1.25s-15.26,24.37-15.26,26.66"/>
      <path class="cls-1" d="M47.49,27.6s.73-26.35,14.06-26.35,15.26,24.37,15.26,26.66"/>
    </g>
  </g>
</svg>