<?xml version="1.0" encoding="UTF-8"?>
<svg id="Layer_2" data-name="Layer 2" xmlns="http://www.w3.org/2000/svg" viewBox="0 0 98.58 66.97">
  <defs>
    <style>
      .cls-1 {
        fill: none;
        stroke: #000;
        stroke-linecap: round;
        stroke-miterlimit: 22.93;
        stroke-width: 2.5px;
      }
    </style>
  </defs>
  <g id="Layer_1-2" data-name="Layer 1">
    <path class="cls-1" d="M85.72,56.64v-2.57M87.95,58.87c-1.23,0-2.23-1-2.23-2.23M90.18,56.64c0,1.23-1,2.23-2.23,2.23M90.18,54.08v2.57M65.48,63.49v-2.57M67.71,65.72c-1.23,0-2.23-1-2.23-2.23M69.93,63.49c0,1.23-1,2.23-2.23,2.23M69.93,60.93v2.57M28.76,63.36v-2.57M30.99,65.58c-1.23,0-2.23-1-2.23-2.23M33.22,63.36c0,1.22-1,2.23-2.23,2.23M33.22,60.79v2.57M8.37,56.69v-2.57M10.59,58.92c-1.23,0-2.23-1-2.23-2.23M12.82,56.69c0,1.22-1,2.23-2.23,2.23M12.82,54.12v2.57M78.6,54.23l9.66-.15M86.62,41.83c-2.51.06-2.22,4.26-3.92,7.42-1.43,2.65-4.09,4.98-4.09,4.98M89.24,41.77l-2.62.06M97.33,54.08s-3.63-2.32-4.27-5.32c-.53-2.47-1.7-7.04-3.82-7M88.27,54.08h9.06M58.36,61.07l9.66-.15M66.38,48.67c-2.51.06-2.22,4.27-3.92,7.42-1.43,2.65-4.09,4.98-4.09,4.98M69,48.61l-2.62.06M77.09,60.93s-3.63-2.32-4.27-5.32c-.53-2.47-1.7-7.04-3.82-6.99M68.02,60.93h9.06M21.64,60.94l9.66-.15M29.66,48.54c-2.51.06-2.22,4.26-3.92,7.42-1.43,2.65-4.09,4.98-4.09,4.98M32.28,48.48l-2.62.06M40.37,60.79s-3.63-2.32-4.27-5.32c-.53-2.47-1.7-7.04-3.82-7M31.31,60.79h9.06M1.25,54.27l9.66-.15M9.26,41.87c-2.51.06-2.22,4.26-3.92,7.42-1.43,2.65-4.09,4.98-4.09,4.98M11.89,41.81l-2.62.06M19.98,54.12s-3.63-2.32-4.27-5.32c-.53-2.47-1.7-7.04-3.82-7M10.91,54.12h9.06M86.21,41.85l.3-2.9h2.74l.45,2.81M65.97,48.69l.3-2.9h2.74l.45,2.81M29.25,48.56l.3-2.9h2.74l.45,2.81M8.85,41.89l.3-2.9h2.74l.45,2.81M67.46,45.66c0-8.39-3.81-16.93-9.74-16.33-5.93.6-8.54,5.99-8.54,10.19M30.9,45.66c0-8.39,3.81-16.93,9.74-16.33,5.93.6,8.54,5.99,8.54,10.19M87.7,39.07s-3.75-16.03-16.78-17.23c-13.03-1.2-21.57,7.94-21.57,15.88M10.58,39.07s3.75-16.03,16.78-17.23c13.03-1.2,21.57,7.94,21.57,15.88M49.14,1.25v40.36"/>
  </g>
</svg>