<?xml version="1.0" encoding="UTF-8"?>
<svg id="Layer_2" data-name="Layer 2" xmlns="http://www.w3.org/2000/svg" viewBox="0 0 58.88 68.34">
  <defs>
    <style>
      .cls-1 {
        fill: none;
        stroke: #000;
        stroke-linecap: round;
        stroke-linejoin: round;
        stroke-width: 2.5px;
      }
    </style>
  </defs>
  <g id="Layer_1-2" data-name="Layer 1">
    <path class="cls-1" d="M47.67,27.38c1.65,2.75,1.11,6.36-1.42,8.5-2.53,2.13-6.18,2.06-8.61-.03M37.12,46.15l.38-4.62M49.15,39.22l2.61,3.09M53.01,28.45l4.62.4M7.14,29.58l12.68-11.83M4.41,34.1c0,.87-.7,1.58-1.58,1.58s-1.58-.7-1.58-1.58.71-1.58,1.58-1.58,1.58.71,1.58,1.58ZM10.02,67.09h34.1M44.13,67.09c-3.52-5.97-9.83-9.59-17.03-9.59s-13.56,3.58-17.07,9.59M19.52,58.65l-13.79-19.17M24.92,22.94l.65,17.42,28.74-23.79-17.95-3.42-11.45,9.79ZM24.92,22.94l-10.18-11.9L26.19,1.25l10.18,11.9"/>
  </g>
</svg>