<?xml version="1.0" encoding="UTF-8"?>
<svg id="Layer_2" data-name="Layer 2" xmlns="http://www.w3.org/2000/svg" viewBox="0 0 48.46 71">
  <defs>
    <style>
      .cls-1 {
        fill: none;
        stroke: #000;
        stroke-miterlimit: 22.93;
        stroke-width: 2.5px;
      }
    </style>
  </defs>
  <g id="Layer_1-2" data-name="Layer 1">
    <path class="cls-1" d="M27.3,3.69V0M7.01,8.69l2.98,3M44.59,11.69l2.99-3M8.19,56.07h15.31c1.08,0,1.01-.31,1.01-1.71v-8.76M7.4,61.3h21.76c1.08,0,1.01-.32,1.01-1.71v-13.99M34.76,15.78c2.54,0,2.78.62,2.97,1.47,1.74,7.76,3.73,18.21,5.91,26.36.38,1.41.63,2.03-1.4,2.03s-27.97-.07-29.99-.07-1.61-.77-1.26-2.1c.35-1.33,6.08-24.61,6.52-26.25.44-1.64,1.06-1.44,2.83-1.44h14.42ZM1.25,67.38v-18.18c0-1.31,1.07-2.38,2.38-2.38h1.4c1.31,0,2.38,1.07,2.38,2.38v18.18c0,1.31-1.07,2.38-2.38,2.38h-1.4c-1.31,0-2.38-1.07-2.38-2.38Z"/>
  </g>
</svg>