<?xml version="1.0" encoding="UTF-8"?>
<svg id="Layer_2" data-name="Layer 2" xmlns="http://www.w3.org/2000/svg" viewBox="0 0 49.18 66.96">
  <defs>
    <style>
      .cls-1 {
        fill-rule: evenodd;
        stroke-miterlimit: 10;
      }

      .cls-1, .cls-2 {
        stroke: #000;
      }

      .cls-2 {
        fill: none;
        stroke-linecap: round;
        stroke-linejoin: round;
        stroke-width: 2.5px;
      }
    </style>
  </defs>
  <g id="Layer_1-2" data-name="Layer 1">
    <g>
      <path class="cls-2" d="M18.28,63.54h2.47M28.52,63.54h2.47M20.75,63.54c.62.86,1.98,2.17,3.89,2.17s3.26-1.31,3.89-2.17M16.2,58.36h16.87M17.51,52.74h14.25M24.64,52.75v-16.13l5.69-5.72M6.27,34.63c.54,2.11,1.54,4.16,3.05,6.01,3.79,4.1,7.23,5.79,8.19,12.1M31.76,52.74c.95-6.31,4.36-7.98,8.17-12.07,2.13-2.51,3.26-5.42,3.55-8.4M18.84,30.75h11.45M24.54,36.62l-5.7-5.72"/>
      <path class="cls-2" d="M1.25,11.25l3.43,3.45M24.59,5.5V1.25M44.49,14.7l3.44-3.45"/>
      <path class="cls-2" d="M5.93,29.18s.06-.01.06-.01c4.16-22.96,31.46-16.46,31.37,0h6.45c.71-24.5-36.46-27.09-37.88.01Z"/>
      <path class="cls-1" d="M5.93,29.18s.06-.01.06-.01c1.77-9.77,7.73-14.21,13.98-14.81.04-.99,0-3.06-.11-3.9-7.2,1.9-13.37,7.98-13.94,18.72Z"/>
      <path class="cls-2" d="M5.93,29.18s.06-.01.06-.01c1.77-9.77,7.73-14.21,13.98-14.81.04-.99,0-3.06-.11-3.9-7.2,1.9-13.37,7.98-13.94,18.72Z"/>
    </g>
  </g>
</svg>