<?xml version="1.0" encoding="UTF-8"?>
<svg id="Layer_2" data-name="Layer 2" xmlns="http://www.w3.org/2000/svg" viewBox="0 0 73.99 69.78">
  <defs>
    <style>
      .cls-1 {
        fill: none;
        stroke: #000;
        stroke-linecap: round;
        stroke-linejoin: round;
        stroke-width: 2.5px;
      }
    </style>
  </defs>
  <g id="Layer_1-2" data-name="Layer 1">
    <path class="cls-1" d="M9.94,21.57h16.05c3.23,0,4.98-2.04,4.98-4.61V6.47c0-3.08,2.17-5.22,4.44-5.22h11.71c3.67,0,5.42,2.31,5.42,4.74v10.71M1.25,33.75h0V8.81M9.76,25.24c0,4.68-3.83,8.51-8.51,8.51M9.76,17.32v7.92M1.25,8.81c4.68,0,8.51,3.83,8.51,8.51M1.25,8.81h0M57.01,19.19v5.01M54.52,16.7c1.37,0,2.5,1.12,2.5,2.5M50.52,16.7h4M48.02,19.19c0-1.37,1.12-2.5,2.5-2.5M48.02,24.2v-5.01M52.46,55.88c-4.1,0-7.45-3.35-7.45-7.45M59.9,48.43c0,4.1-3.35,7.45-7.45,7.45M48.17,28.65l-5.28,15.19M46.12,23.96l-8.95,24.36h30.67l-8.51-24.07-13.21-.29ZM52.46,64.84v3.69M32.17,59.83l2.98-3M69.75,56.83l2.99,3"/>
  </g>
</svg>