<?xml version="1.0" encoding="UTF-8"?>
<svg id="Layer_2" data-name="Layer 2" xmlns="http://www.w3.org/2000/svg" viewBox="0 0 79.68 64.13">
  <defs>
    <style>
      .cls-1 {
        stroke-miterlimit: 10;
      }

      .cls-1, .cls-2, .cls-3 {
        fill: none;
        stroke: #141313;
        stroke-width: 2.5px;
      }

      .cls-1, .cls-3 {
        stroke-linecap: round;
      }

      .cls-2 {
        stroke-miterlimit: 22.93;
      }

      .cls-4 {
        fill: #141313;
      }

      .cls-3 {
        stroke-linejoin: round;
      }
    </style>
  </defs>
  <g id="Layer_1-2" data-name="Layer 1">
    <g>
      <line class="cls-1" x1="39.84" y1="12.32" x2="39.84" y2="62.88"/>
      <path class="cls-3" d="M43.7,8.35c0,2.13-1.73,3.86-3.86,3.86s-3.86-1.73-3.86-3.86,1.73-3.86,3.86-3.86,3.86,1.73,3.86,3.86Z"/>
      <path class="cls-3" d="M39.49,17.29c-3.54,0-8.07-.81-13.64-12.5-1.18-2.48-5.3-6.84-12.14.59,0,0-4.48,4.36-12.46,5.62,0,0,7.94,10.98,23.41,15.71"/>
      <path class="cls-3" d="M5.85,15.79s9.12-3.15,13.05-7.08"/>
      <path class="cls-3" d="M10.41,19.53s7.35-2.28,10.58-5.16"/>
      <path class="cls-3" d="M16.12,22.95s5.1-1.95,7.57-3.67"/>
      <path class="cls-1" d="M34.73,52.59c-1.05,1.34-.48,3.17,4.82,5.42"/>
      <path class="cls-1" d="M44.01,55.91c-.83.64-2.15,1.36-3.88,2.1"/>
      <path class="cls-1" d="M31.02,27.02c-4.37,3.25-.8,8.12,7.19,11.34,0,0,12.56,4.78,7.21,9.15"/>
      <path class="cls-4" d="M33.6,26.67c-1.28.9-2.7,1.07-3.18.39-.48-.68.17-1.96,1.44-2.86,1.28-.9,2.7-1.07,3.18-.39.48.68-.17,1.96-1.44,2.86Z"/>
      <path class="cls-2" d="M33.6,26.67c-1.28.9-2.7,1.07-3.18.39-.48-.68.17-1.96,1.44-2.86,1.28-.9,2.7-1.07,3.18-.39.48.68-.17,1.96-1.44,2.86Z"/>
      <path class="cls-3" d="M40.18,17.29c3.54,0,8.07-.81,13.64-12.5,1.18-2.48,5.31-6.84,12.15.59,0,0,4.48,4.36,12.46,5.62,0,0-7.94,10.98-23.41,15.71"/>
      <path class="cls-3" d="M73.83,15.79s-9.12-3.15-13.05-7.08"/>
      <path class="cls-3" d="M69.27,19.53s-7.35-2.28-10.58-5.16"/>
      <path class="cls-3" d="M63.55,22.95s-5.1-1.95-7.57-3.67"/>
      <path class="cls-1" d="M35.54,41.53c-3.22,2.39-4.94,5.72,4,8.41,0,0,9.28,2.15,4.47,5.98"/>
      <path class="cls-1" d="M48.66,27.02c3.53,2.62,1.88,6.3-3.09,9.32"/>
      <path class="cls-4" d="M46.07,26.67c1.28.9,2.7,1.07,3.18.39.48-.68-.17-1.96-1.44-2.86-1.28-.9-2.7-1.07-3.18-.39-.48.68.17,1.96,1.44,2.86Z"/>
      <path class="cls-2" d="M46.07,26.67c1.28.9,2.7,1.07,3.18.39.48-.68-.17-1.96-1.44-2.86-1.28-.9-2.7-1.07-3.18-.39-.48.68.17,1.96,1.44,2.86Z"/>
    </g>
  </g>
</svg>