<?xml version="1.0" encoding="UTF-8"?>
<svg id="Layer_2" data-name="Layer 2" xmlns="http://www.w3.org/2000/svg" viewBox="0 0 64.5 64.5">
  <defs>
    <style>
      .cls-1 {
        stroke-miterlimit: 10;
      }

      .cls-1, .cls-2 {
        fill: none;
        stroke: #141313;
        stroke-width: 2.5px;
      }

      .cls-2 {
        stroke-linecap: round;
        stroke-linejoin: round;
      }
    </style>
  </defs>
  <g id="Layer_1-2" data-name="Layer 1">
    <g>
      <path class="cls-1" d="M23.43,47.37c-4.2-5.73-2.44-17.53,5.28-22.82,9.94-6.81,21.52-6.76,21.52-6.76,0,0,2.87,10.42-2.39,22.55-3.59,8.27-13.67,12.83-20.5,10.03,0,0-2.29-1.09-3.62-2.67"/>
      <path class="cls-2" d="M40.97,29.75s-6.16,15.01-27.39,22.08"/>
      <polyline class="cls-1" points="16.89 41.67 1.25 41.67 1.25 22.83 22.84 22.83 22.84 1.25 41.66 1.25 41.66 14.56"/>
      <polyline class="cls-1" points="41.66 52.92 41.66 63.25 22.84 63.25 22.84 53.08"/>
      <polyline class="cls-1" points="55.35 22.83 63.25 22.83 63.25 41.67 51.88 41.67"/>
    </g>
  </g>
</svg>