<?xml version="1.0" encoding="UTF-8"?>
<svg id="Layer_2" data-name="Layer 2" xmlns="http://www.w3.org/2000/svg" viewBox="0 0 52.97 78.74">
  <defs>
    <style>
      .cls-1 {
        stroke-linecap: round;
      }

      .cls-1, .cls-2 {
        fill: none;
        stroke: #141313;
        stroke-linejoin: round;
        stroke-width: 2.5px;
      }
    </style>
  </defs>
  <g id="Layer_1-2" data-name="Layer 1">
    <g>
      <path class="cls-1" d="M12.97,22.79s-23.06,17.19-4.5,38.64c5.43,6.28,26.22,20.46,37.68,14.73,1.93-.97,10.9-6.35.97-37.92-1.46-4.65-3.34-7.81-5.93-10.5"/>
      <path class="cls-1" d="M12.34,45c5.31-1.93,8.22-11.99,8.22-11.99,3.14-9.18,8-11.92,8-11.92"/>
      <line class="cls-1" x1="28.55" y1="21.09" x2="24.18" y2="18.04"/>
      <path class="cls-1" d="M45.02,18.76s-19.16,7.65-7.81,21.9"/>
      <line class="cls-1" x1="27.88" y1="13.85" x2="33.51" y2="16.99"/>
      <path class="cls-1" d="M33.51,16.99s6.13-3.95,10.72-6.12"/>
      <path class="cls-1" d="M31.37,12.58s-7.69-1.2-8.02,8.08"/>
      <path class="cls-1" d="M38.67,12.4s-3.41-10.3-17.42-6.44"/>
      <polyline class="cls-1" points="21.24 5.96 17.79 2.5 14.89 5.4"/>
      <path class="cls-1" d="M14.89,5.4s2.77,3.14,2.04,5.55c0,0-4.83,9.66-4.11,23.91"/>
      <line class="cls-1" x1="24.18" y1="5.13" x2="23.69" y2="1.25"/>
      <line class="cls-1" x1="28.19" y1="4.73" x2="28.52" y2="1.25"/>
      <line class="cls-2" x1="13.62" y1="20.77" x2="10.64" y2="15.39"/>
      <path class="cls-2" d="M10.64,15.39s-5.45.33-6.63,2.7"/>
      <line class="cls-2" x1="4.01" y1="18.08" x2="6.29" y2="30.4"/>
    </g>
  </g>
</svg>