<?xml version="1.0" encoding="UTF-8"?>
<svg id="Layer_2" data-name="Layer 2" xmlns="http://www.w3.org/2000/svg" viewBox="0 0 71.23 54.75">
  <defs>
    <style>
      .cls-1 {
        stroke-linecap: round;
      }

      .cls-1, .cls-2 {
        fill: none;
        stroke: #141313;
        stroke-miterlimit: 10;
        stroke-width: 2.5px;
      }
    </style>
  </defs>
  <g id="Layer_1-2" data-name="Layer 1">
    <g>
      <path class="cls-2" d="M33,54.75v-19.48c0-2.18.25-6.73-9.03-11.44"/>
      <path class="cls-1" d="M16.18,30.58s2.43-2.2,6.74-2.04"/>
      <line class="cls-1" x1="24.76" y1="15.45" x2="25.24" y2="14.8"/>
      <path class="cls-1" d="M25.24,14.8s6.11-7.68-2.24-12.48C18.68-.15,3.28-.22,1.33,23.21c-.76,9.09,3.42,24.13,17.95,24.13,6.26,0,12.02-7.35,6.19-14.85-1.08-1.39-2.47-3.71-2.47-3.71,2.3-6.36-.83-9.18-.83-9.18-3.15-2.85-7.11-2.47-7.11-2.47"/>
      <path class="cls-1" d="M15.04,7.15c-.38.14-.76.31-1.14.52-1.73.95-3.18,2.5-4.33,4.61"/>
      <path class="cls-2" d="M38.24,54.75v-19.48c0-2.18-.25-6.73,9.03-11.44"/>
      <path class="cls-1" d="M55.06,30.58s-2.43-2.2-6.74-2.04"/>
      <line class="cls-1" x1="46.48" y1="15.45" x2="45.99" y2="14.8"/>
      <path class="cls-1" d="M45.99,14.8s-6.11-7.68,2.24-12.48C52.55-.15,67.95-.22,69.9,23.21c.76,9.09-3.42,24.13-17.95,24.13-6.26,0-12.01-7.35-6.19-14.85,1.08-1.39,2.47-3.71,2.47-3.71-2.3-6.36.83-9.18.83-9.18,3.15-2.85,7.11-2.47,7.11-2.47"/>
      <path class="cls-1" d="M61.66,12.27c-1.14-2.1-2.59-3.65-4.33-4.61-.38-.21-.77-.38-1.14-.52"/>
    </g>
  </g>
</svg>