<?xml version="1.0" encoding="UTF-8"?>
<svg id="Layer_2" data-name="Layer 2" xmlns="http://www.w3.org/2000/svg" viewBox="0 0 55.58 67.91">
  <defs>
    <style>
      .cls-1, .cls-2, .cls-3 {
        fill: none;
        stroke: #000;
        stroke-width: 2.5px;
      }

      .cls-1, .cls-3 {
        stroke-linejoin: round;
      }

      .cls-2 {
        stroke-miterlimit: 10;
      }

      .cls-3 {
        stroke-linecap: round;
      }
    </style>
  </defs>
  <g id="Layer_1-2" data-name="Layer 1">
    <g>
      <rect class="cls-2" x="5.51" y="30.95" width="48.82" height="8.2"/>
      <line class="cls-1" x1="54.33" y1="43.85" x2="54.33" y2="63.66"/>
      <path class="cls-1" d="M54.33,63.66c0,1.65-1.35,3-3,3"/>
      <line class="cls-1" x1="51.33" y1="66.66" x2="8.51" y2="66.66"/>
      <path class="cls-1" d="M8.51,66.66c-1.65,0-3-1.35-3-3"/>
      <line class="cls-1" x1="5.51" y1="63.66" x2="5.51" y2="43.85"/>
      <rect class="cls-2" x="1.29" y="11.38" width="48.82" height="8.82" transform="translate(-4.23 12.08) rotate(-24.49)"/>
      <line class="cls-3" x1="14.29" y1="49.03" x2="45.54" y2="49.03"/>
      <line class="cls-3" x1="14.29" y1="56.83" x2="45.54" y2="56.83"/>
      <line class="cls-1" x1="13.04" y1="30.83" x2="19.29" y2="39.33"/>
      <line class="cls-1" x1="26.16" y1="30.83" x2="32.41" y2="39.33"/>
      <line class="cls-1" x1="39.29" y1="30.83" x2="45.54" y2="39.33"/>
      <line class="cls-1" x1="38.94" y1="4.97" x2="36.89" y2="15.51"/>
      <line class="cls-1" x1="26.41" y1="10.47" x2="24.45" y2="20.57"/>
      <line class="cls-1" x1="13.73" y1="16.76" x2="11.8" y2="26.73"/>
    </g>
  </g>
</svg>