<?xml version="1.0" encoding="UTF-8"?>
<svg id="Layer_2" data-name="Layer 2" xmlns="http://www.w3.org/2000/svg" viewBox="0 0 62.27 60.24">
  <defs>
    <style>
      .cls-1, .cls-2, .cls-3, .cls-4 {
        fill: none;
        stroke: #000;
        stroke-width: 2.5px;
      }

      .cls-1, .cls-3 {
        stroke-linejoin: round;
      }

      .cls-2, .cls-4 {
        stroke-miterlimit: 10;
      }

      .cls-3, .cls-4 {
        stroke-linecap: round;
      }
    </style>
  </defs>
  <g id="Layer_1-2" data-name="Layer 1">
    <g>
      <line class="cls-3" x1="41.54" y1="1.25" x2="8.23" y2="13.81"/>
      <path d="M57.27,18.39H5c-2.75,0-5,2.25-5,5v31.85c0,2.75,2.25,5,5,5h52.27c2.75,0,5-2.25,5-5v-31.85c0-2.75-2.25-5-5-5M57.27,20.89c1.38,0,2.5,1.12,2.5,2.5v31.85c0,1.38-1.12,2.5-2.5,2.5H5c-1.38,0-2.5-1.12-2.5-2.5v-31.85c0-1.38,1.12-2.5,2.5-2.5h52.27Z"/>
      <line class="cls-1" x1="43.12" y1="24.93" x2="43.12" y2="30.95"/>
      <line class="cls-1" x1="60.47" y1="31.19" x2="2.33" y2="31.19"/>
      <path class="cls-2" d="M52.67,44.86c0,3.79-3.07,6.86-6.86,6.86s-6.86-3.07-6.86-6.86,3.07-6.86,6.86-6.86,6.86,3.07,6.86,6.86Z"/>
      <line class="cls-4" x1="9.54" y1="38.1" x2="9.54" y2="51.62"/>
      <line class="cls-4" x1="16.81" y1="38.1" x2="16.81" y2="51.62"/>
      <line class="cls-4" x1="24.07" y1="38.1" x2="24.07" y2="51.62"/>
      <line class="cls-4" x1="31.34" y1="38.1" x2="31.34" y2="51.62"/>
    </g>
  </g>
</svg>