<?xml version="1.0" encoding="UTF-8"?>
<svg id="Layer_2" data-name="Layer 2" xmlns="http://www.w3.org/2000/svg" viewBox="0 0 55.24 55.24">
  <defs>
    <style>
      .cls-1 {
        stroke-miterlimit: 10;
      }

      .cls-1, .cls-2 {
        fill: none;
        stroke: #000;
        stroke-width: 2.5px;
      }

      .cls-2 {
        stroke-linecap: square;
        stroke-linejoin: round;
      }
    </style>
  </defs>
  <g id="Layer_1-2" data-name="Layer 1">
    <g>
      <path class="cls-2" d="M43.11,36.02s-1.67-1.52-4.02-.23"/>
      <line class="cls-2" x1="39.09" y1="35.8" x2="33.32" y2="38.98"/>
      <path class="cls-2" d="M33.32,38.98s-5.74-4.55-8.95-8.03"/>
      <line class="cls-2" x1="24.38" y1="30.95" x2="24.38" y2="30.95"/>
      <path class="cls-2" d="M24.38,30.95s-.03-.03-.05-.04c-.01-.01-.03-.03-.04-.04"/>
      <line class="cls-2" x1="24.29" y1="30.86" x2="24.29" y2="30.86"/>
      <path class="cls-2" d="M24.29,30.86c-3.48-3.21-8.03-8.95-8.03-8.95"/>
      <line class="cls-2" x1="16.26" y1="21.92" x2="19.45" y2="16.15"/>
      <path class="cls-2" d="M19.45,16.15c1.29-2.35-.23-4.02-.23-4.02"/>
      <line class="cls-2" x1="19.22" y1="12.13" x2="12.84" y2="2.56"/>
      <path class="cls-2" d="M12.84,2.56c-1.14-1.59-2.5-1.29-2.5-1.29-1.75.08-6.91,4.93-6.91,4.93-2.73,2.43-2.13,4.55-2.13,4.55,1.84,13,15.51,25.53,16.55,26.62,1.41,1.31,13.62,14.72,26.62,16.55,0,0,2.13.61,4.55-2.12,0,0,4.86-5.16,4.93-6.91,0,0,.3-1.37-1.29-2.5"/>
      <line class="cls-2" x1="52.68" y1="42.4" x2="43.11" y2="36.02"/>
      <path class="cls-1" d="M30.47,11.19c3.2.08,6.38,1.33,8.85,3.75,2.48,2.45,3.78,5.65,3.88,8.87"/>
      <path class="cls-1" d="M30.71,3.95c4.96.14,9.88,2.08,13.69,5.83,3.81,3.75,5.82,8.64,6.03,13.59"/>
    </g>
  </g>
</svg>