<?xml version="1.0" encoding="UTF-8"?>
<svg id="Layer_2" data-name="Layer 2" xmlns="http://www.w3.org/2000/svg" viewBox="0 0 64.98 57.84">
  <defs>
    <style>
      .cls-1 {
        stroke-linejoin: round;
      }

      .cls-1, .cls-2 {
        fill: none;
        stroke: #000;
        stroke-width: 2.5px;
      }

      .cls-2 {
        stroke-miterlimit: 22.93;
      }
    </style>
  </defs>
  <g id="Layer_1-2" data-name="Layer 1">
    <g>
      <path class="cls-1" d="M56.06,34.4c-2.54,12.65-13.72,22.18-27.14,22.18-15.28,0-27.67-12.39-27.67-27.67S13.64,1.25,28.92,1.25s27.5,12.21,27.68,27.34"/>
      <path d="M28.92,18.5h0c-5.76,0-10.42,4.67-10.42,10.42s4.67,10.42,10.42,10.42,10.43-4.67,10.43-10.42-4.67-10.42-10.43-10.42M28.92,21c4.37,0,7.93,3.55,7.93,7.92s-3.56,7.92-7.93,7.92-7.92-3.55-7.92-7.92,3.55-7.92,7.92-7.92Z"/>
      <rect class="cls-1" x="35.67" y="39.9" width="9.62" height="5.83" transform="translate(-15.67 24.96) rotate(-28.97)"/>
      <line class="cls-1" x1="44.69" y1="40.36" x2="64.4" y2="29.99"/>
      <path class="cls-1" d="M13.83,27.4c.54-5.39,3.9-9.93,8.57-12.17"/>
      <path class="cls-1" d="M7.73,26.79c.75-7.53,5.43-13.89,11.96-17.04"/>
      <path d="M29.7,28.92c0,.43-.35.78-.78.78s-.78-.35-.78-.78.35-.78.78-.78.78.35.78.78Z"/>
      <path class="cls-2" d="M29.7,28.92c0,.43-.35.78-.78.78s-.78-.35-.78-.78.35-.78.78-.78.78.35.78.78Z"/>
    </g>
  </g>
</svg>