<?xml version="1.0" encoding="UTF-8"?>
<svg id="Layer_2" data-name="Layer 2" xmlns="http://www.w3.org/2000/svg" viewBox="0 0 70.83 68.33">
  <defs>
    <style>
      .cls-1, .cls-2 {
        fill: none;
        stroke: #000;
        stroke-linejoin: round;
        stroke-width: 2.5px;
      }

      .cls-2 {
        stroke-linecap: round;
      }
    </style>
  </defs>
  <g id="Layer_1-2" data-name="Layer 1">
    <g>
      <line class="cls-2" x1="53.53" y1="25.98" x2="62.61" y2="25.98"/>
      <path class="cls-2" d="M62.61,25.98c3.83,0,6.97-3.14,6.97-6.97"/>
      <line class="cls-2" x1="69.58" y1="19.01" x2="69.58" y2="8.22"/>
      <path class="cls-2" d="M69.58,8.22c0-3.83-3.14-6.97-6.97-6.97"/>
      <line class="cls-2" x1="62.61" y1="1.25" x2="41.36" y2="1.25"/>
      <path class="cls-2" d="M41.36,1.25c-3.83,0-6.97,3.14-6.97,6.97"/>
      <line class="cls-2" x1="34.39" y1="8.22" x2="34.39" y2="19.01"/>
      <path class="cls-2" d="M34.39,19.01c0,3.83,3.14,6.97,6.97,6.97"/>
      <polyline class="cls-2" points="41.36 25.98 47.35 25.98 38.75 33.77"/>
      <line class="cls-2" x1="19.38" y1="49.04" x2="19.38" y2="67.08"/>
      <polyline class="cls-2" points="13.07 67.08 11.35 47.62 7.95 48.65"/>
      <path class="cls-2" d="M7.95,48.65s-6.71,1.68-6.71,7.21"/>
      <line class="cls-2" x1="1.25" y1="55.86" x2="1.25" y2="67.08"/>
      <polyline class="cls-2" points="25.7 67.08 27.42 47.62 30.81 48.65"/>
      <path class="cls-2" d="M30.81,48.65s6.71,1.68,6.71,7.21"/>
      <line class="cls-2" x1="37.52" y1="55.86" x2="37.52" y2="67.08"/>
      <path class="cls-1" d="M19.37,19.11c-9.21,0-9.72,5.57-9.08,12.35.65,6.79,4.91,12.34,9.08,12.34s8.44-5.56,9.08-12.34c.64-6.77.13-12.35-9.08-12.35Z"/>
      <path class="cls-2" d="M22.57,24.85s-1.17,3.96-7.37,4.34"/>
      <path class="cls-2" d="M21.7,26.58s2.77,2.05,6.66,3.07"/>
    </g>
  </g>
</svg>