<?xml version="1.0" encoding="UTF-8"?>
<svg id="Layer_2" data-name="Layer 2" xmlns="http://www.w3.org/2000/svg" viewBox="0 0 61.7 68.05">
  <defs>
    <style>
      .cls-1, .cls-2, .cls-3, .cls-4 {
        fill: none;
        stroke: #000;
        stroke-width: 2.5px;
      }

      .cls-1, .cls-3 {
        stroke-linejoin: round;
      }

      .cls-2, .cls-4 {
        stroke-miterlimit: 10;
      }

      .cls-3, .cls-4 {
        stroke-linecap: round;
      }
    </style>
  </defs>
  <g id="Layer_1-2" data-name="Layer 1">
    <g>
      <polyline class="cls-3" points="38.38 51.68 36.77 66.8 17.9 66.8 16.26 51.37 12.76 51.37 12.76 45.23 41.79 45.23 41.79 51.37 24.8 51.37"/>
      <path class="cls-1" d="M21.42,18.54c1.91,3.87,4.28,11,4.91,22.29"/>
      <path class="cls-3" d="M17.25,26.11s6.14-.08,7.57,2.75"/>
      <path class="cls-2" d="M21.38,18.56c-2.87,1.68-7.88-1.91-9.28-6.62-1.8-6.08-.3-10.4-.3-10.4,0,0,4.79,1.39,8.69,5.66,3.31,3.63,3.45,9.88.89,11.37Z"/>
      <path class="cls-2" d="M17.08,26.43c.31,2.61-3.87,5.11-7.73,4.64-4.98-.61-7.64-3.06-7.64-3.06,0,0,2.52-3.03,6.84-4.52,3.68-1.26,8.25.61,8.52,2.93Z"/>
      <path class="cls-4" d="M49.63,28.83c-7.33,6.11-13.8,2.4-16.53-2.58-2.72-4.99-2.05-12.49,5.96-15.53,6.05-2.3,20.93.1,20.93.1,0,0-5.05,13.58-10.37,18.01Z"/>
      <line class="cls-3" x1="38.73" y1="23.22" x2="44.18" y2="25.53"/>
      <line class="cls-3" x1="43.44" y1="20.13" x2="43.73" y2="15.59"/>
      <path class="cls-3" d="M25.87,33.16c1.88-3.44,6.59-6.57,6.59-6.57"/>
      <line class="cls-3" x1="32.47" y1="26.6" x2="50.71" y2="16.12"/>
    </g>
  </g>
</svg>