<?xml version="1.0" encoding="UTF-8"?>
<svg id="Layer_2" data-name="Layer 2" xmlns="http://www.w3.org/2000/svg" viewBox="0 0 62.49 60.71">
  <defs>
    <style>
      .cls-1, .cls-2, .cls-3, .cls-4 {
        fill: none;
        stroke: #000;
        stroke-width: 2.5px;
      }

      .cls-1, .cls-3 {
        stroke-linejoin: round;
      }

      .cls-2, .cls-4 {
        stroke-miterlimit: 10;
      }

      .cls-3, .cls-4 {
        stroke-linecap: round;
      }
    </style>
  </defs>
  <g id="Layer_1-2" data-name="Layer 1">
    <g>
      <polyline class="cls-2" points="57.24 34.34 57.24 59.46 1.25 59.46 1.25 27.67 36.13 27.67"/>
      <line class="cls-4" x1="9.25" y1="36.14" x2="30.25" y2="36.14"/>
      <line class="cls-4" x1="9.25" y1="43.12" x2="30.25" y2="43.12"/>
      <line class="cls-4" x1="33.41" y1="51.61" x2="46.88" y2="51.61"/>
      <line class="cls-4" x1="41.46" y1="42.57" x2="39.95" y2="46.08"/>
      <path class="cls-2" d="M40.3,35.18c1.8-12.3,7.12-23.82,15.37-33.15.74-.76,2.2-1,3.22-.56.17.08.35.15.53.23,1.02.44,1.85,1.67,1.81,2.72-1.14,12.35-5.9,24.21-13.58,33.93"/>
      <line class="cls-2" x1="47.66" y1="38.35" x2="40.3" y2="35.18"/>
      <polyline class="cls-3" points="40.71 35.93 39.97 41.91 42.96 43.2 46.83 38.54"/>
      <line class="cls-3" x1="52.49" y1="5.59" x2="47.59" y2="3.13"/>
      <path class="cls-3" d="M47.59,3.13s-4.65,6.27-7.46,13.01"/>
      <line class="cls-1" x1="46.34" y1="16.33" x2="57.21" y2="21.02"/>
    </g>
  </g>
</svg>