<?xml version="1.0" encoding="UTF-8"?>
<svg id="Layer_2" data-name="Layer 2" xmlns="http://www.w3.org/2000/svg" viewBox="0 0 77.94 55.56">
  <defs>
    <style>
      .cls-1, .cls-2 {
        fill: none;
        stroke: #000;
        stroke-linejoin: round;
        stroke-width: 2.5px;
      }

      .cls-2 {
        stroke-linecap: round;
      }
    </style>
  </defs>
  <g id="Layer_1-2" data-name="Layer 1">
    <g>
      <path class="cls-1" d="M64.25,26.7c.02.36.02.72.02,1.08,0,14.65-11.88,26.53-26.53,26.53s-26.53-11.88-26.53-26.53S23.09,1.25,37.74,1.25c7.6,0,14.46,3.2,19.29,8.32"/>
      <path class="cls-1" d="M69.4,12.58s4.48-1.91,6.74.32c0,0,1.96,2.53-1.54,4.14"/>
      <path class="cls-1" d="M69.68,12.47l-8.95,3.58c-2.25.29-11.58-3.51-11.58-3.51-3.74-1.51-7.04-.18-7.04-.18l8.81,7.42-4.2,1.8c-2.5,1.12-4.56.42-4.56.42l-3.31-1.07c-2.75-.82-4.56.4-4.56.4l6.72,6.02c2.37,2.1,7.16.28,7.16.28l26.7-10.68"/>
      <path class="cls-2" d="M4.39,30.31s-17.45,18.83,29.87.62"/>
    </g>
  </g>
</svg>