<?xml version="1.0" encoding="UTF-8"?>
<svg id="Layer_2" data-name="Layer 2" xmlns="http://www.w3.org/2000/svg" viewBox="0 0 45.74 68.81">
  <defs>
    <style>
      .cls-1 {
        stroke-linejoin: round;
      }

      .cls-1, .cls-2, .cls-3, .cls-4 {
        fill: none;
        stroke: #000;
        stroke-width: 2.5px;
      }

      .cls-2 {
        stroke-miterlimit: 10;
      }

      .cls-3 {
        stroke-miterlimit: 4;
      }

      .cls-4 {
        stroke-miterlimit: 22.93;
      }
    </style>
  </defs>
  <g id="Layer_1-2" data-name="Layer 1">
    <g>
      <line class="cls-3" x1="8.46" y1="32.2" x2="8.46" y2="8.25"/>
      <path class="cls-3" d="M8.46,8.25c0-3.85,3.15-7,7-7"/>
      <line class="cls-3" x1="15.46" y1="1.25" x2="30.28" y2="1.25"/>
      <path class="cls-3" d="M30.28,1.25c3.85,0,7,3.15,7,7"/>
      <line class="cls-3" x1="37.28" y1="8.25" x2="37.28" y2="32.2"/>
      <line class="cls-1" x1="8.23" y1="61.62" x2="8.23" y2="60.18"/>
      <path class="cls-1" d="M8.23,60.18c0-2.75,2.25-5,5-5"/>
      <line class="cls-1" x1="13.23" y1="55.18" x2="32.51" y2="55.18"/>
      <path class="cls-1" d="M32.51,55.18c2.75,0,5,2.25,5,5"/>
      <line class="cls-1" x1="37.51" y1="60.18" x2="37.51" y2="61.63"/>
      <line class="cls-3" x1="22.87" y1="61.6" x2="22.87" y2="46.65"/>
      <path class="cls-2" d="M41.88,40.41c0,1.1-.9,2-2,2"/>
      <line class="cls-2" x1="39.88" y1="42.41" x2="5.87" y2="42.41"/>
      <path class="cls-2" d="M5.87,42.41c-1.1,0-2-.9-2-2"/>
      <line class="cls-2" x1="3.87" y1="40.41" x2="3.87" y2="34.36"/>
      <path class="cls-2" d="M3.87,34.36c0-1.1.9-2,2-2"/>
      <line class="cls-2" x1="5.87" y1="32.36" x2="39.88" y2="32.36"/>
      <path class="cls-2" d="M39.88,32.36c1.1,0,2,.9,2,2"/>
      <line class="cls-2" x1="41.88" y1="34.36" x2="41.88" y2="40.41"/>
      <line class="cls-2" x1="8.4" y1="21.48" x2="3.56" y2="21.48"/>
      <path class="cls-2" d="M3.56,21.48s-3.19,0-2.07,4.81"/>
      <line class="cls-2" x1="1.49" y1="26.29" x2="3.87" y2="37.35"/>
      <line class="cls-2" x1="37.37" y1="21.48" x2="42.18" y2="21.48"/>
      <path class="cls-2" d="M42.18,21.48s3.19,0,2.07,4.81"/>
      <line class="cls-2" x1="44.25" y1="26.29" x2="41.87" y2="37.35"/>
      <path d="M23.94,66.49c0,.59-.48,1.07-1.07,1.07s-1.07-.48-1.07-1.07.48-1.07,1.07-1.07,1.07.48,1.07,1.07Z"/>
      <path class="cls-4" d="M23.94,66.49c0,.59-.48,1.07-1.07,1.07s-1.07-.48-1.07-1.07.48-1.07,1.07-1.07,1.07.48,1.07,1.07Z"/>
      <path d="M9.16,66.49c0,.59-.48,1.07-1.07,1.07s-1.07-.48-1.07-1.07.48-1.07,1.07-1.07,1.07.48,1.07,1.07Z"/>
      <path class="cls-4" d="M9.16,66.49c0,.59-.48,1.07-1.07,1.07s-1.07-.48-1.07-1.07.48-1.07,1.07-1.07,1.07.48,1.07,1.07Z"/>
      <path d="M38.73,66.49c0,.59-.48,1.07-1.07,1.07s-1.07-.48-1.07-1.07.48-1.07,1.07-1.07,1.07.48,1.07,1.07Z"/>
      <path class="cls-4" d="M38.73,66.49c0,.59-.48,1.07-1.07,1.07s-1.07-.48-1.07-1.07.48-1.07,1.07-1.07,1.07.48,1.07,1.07Z"/>
    </g>
  </g>
</svg>