<?xml version="1.0" encoding="UTF-8"?>
<svg id="Layer_2" data-name="Layer 2" xmlns="http://www.w3.org/2000/svg" viewBox="0 0 55.24 55.24">
  <defs>
    <style>
      .cls-1 {
        stroke-miterlimit: 10;
      }

      .cls-1, .cls-2 {
        fill: none;
        stroke: #000;
        stroke-width: 2.5px;
      }

      .cls-2 {
        stroke-linecap: square;
        stroke-linejoin: round;
      }
    </style>
  </defs>
  <g id="Layer_1-2" data-name="Layer 1">
    <g>
      <path class="cls-2" d="M12.84,2.56l6.38,9.56s1.52,1.67.23,4.02l-3.19,5.77s4.55,5.74,8.03,8.95h0s.03.03.04.04c.02.01.03.03.05.04h0c3.2,3.48,8.95,8.03,8.95,8.03l5.77-3.19c2.35-1.29,4.02.23,4.02.23l9.56,6.38c1.6,1.14,1.29,2.5,1.29,2.5-.08,1.75-4.93,6.91-4.93,6.91-2.43,2.73-4.55,2.12-4.55,2.12-13-1.84-25.21-15.24-26.62-16.55-1.04-1.09-14.72-13.62-16.55-26.62,0,0-.61-2.13,2.13-4.55,0,0,5.16-4.86,6.91-4.93,0,0,1.37-.3,2.5,1.29Z"/>
      <path class="cls-1" d="M30.39,11.21c3.2.08,6.38,1.34,8.84,3.77,2.48,2.45,3.77,5.65,3.86,8.88"/>
      <path class="cls-1" d="M30.65,3.97c4.96.15,9.87,2.1,13.68,5.86,3.8,3.76,5.8,8.65,6,13.6"/>
    </g>
  </g>
</svg>