<?xml version="1.0" encoding="UTF-8"?>
<svg id="Layer_2" data-name="Layer 2" xmlns="http://www.w3.org/2000/svg" viewBox="0 0 62.35 62.35">
  <defs>
    <style>
      .cls-1 {
        stroke-miterlimit: 10;
      }

      .cls-1, .cls-2 {
        fill: none;
        stroke: #000;
        stroke-width: 2.5px;
      }

      .cls-2 {
        stroke-linecap: round;
        stroke-linejoin: round;
      }
    </style>
  </defs>
  <g id="Layer_1-2" data-name="Layer 1">
    <g>
      <path class="cls-1" d="M20.2,19.15c-2.37,5.79-1.21,12.72,3.47,17.41"/>
      <line class="cls-1" x1="23.67" y1="36.56" x2="25.79" y2="38.68"/>
      <path class="cls-1" d="M25.79,38.68c6.22,6.22,16.4,6.22,22.63,0"/>
      <line class="cls-1" x1="48.42" y1="38.68" x2="56.43" y2="30.67"/>
      <path class="cls-1" d="M56.43,30.67c6.22-6.22,6.22-16.41,0-22.63"/>
      <line class="cls-1" x1="56.43" y1="8.04" x2="54.31" y2="5.92"/>
      <path class="cls-1" d="M54.31,5.92c-3.73-3.73-8.89-5.23-13.77-4.48"/>
      <rect class="cls-2" x=".83" y="49.21" width="18.25" height="6.37" transform="translate(-34.13 22.39) rotate(-45)"/>
      <path class="cls-2" d="M30.4,19.03c-4.81,0-8.71-3.9-8.71-8.71S25.59,1.61,30.4,1.61c4.81,0,8.71,3.89,8.71,8.71s-3.9,8.71-8.71,8.71Z"/>
      <path class="cls-2" d="M34.19,18.06s-.02-6.55-3.3-7.48c-4.46-1.27-4.8-3.73-4.67-7.79"/>
      <path class="cls-1" d="M19.12,27.13c-.18,4-1.02,10.38-3.5,17.36"/>
      <path class="cls-1" d="M35.21,43.23c-4,.18-10.38,1.02-17.36,3.5"/>
    </g>
  </g>
</svg>