<?xml version="1.0" encoding="UTF-8"?>
<svg id="Layer_2" data-name="Layer 2" xmlns="http://www.w3.org/2000/svg" viewBox="0 0 59.39 59.39">
  <defs>
    <style>
      .cls-1 {
        stroke-linejoin: round;
      }

      .cls-1, .cls-2 {
        fill: none;
        stroke: #000;
        stroke-width: 2.5px;
      }

      .cls-2 {
        stroke-miterlimit: 10;
      }
    </style>
  </defs>
  <g id="Layer_1-2" data-name="Layer 1">
    <g>
      <polyline class="cls-1" points="47.87 6.8 52.25 2.42 56.97 7.14 52.73 11.39"/>
      <line class="cls-1" x1="18.88" y1="35.79" x2="32.31" y2="22.35"/>
      <polyline class="cls-1" points="11.45 52.67 7.15 56.97 2.42 52.25 6.9 47.77"/>
      <line class="cls-1" x1="37.04" y1="27.08" x2="23.65" y2="40.47"/>
      <path class="cls-2" d="M22.04,50.93c1.56,1.56,1.56,4.1,0,5.66"/>
      <line class="cls-2" x1="22.04" y1="56.58" x2="21.65" y2="56.98"/>
      <path class="cls-2" d="M21.65,56.98c-1.56,1.56-4.1,1.56-5.66,0"/>
      <line class="cls-2" x1="15.99" y1="56.98" x2="2.42" y2="43.4"/>
      <path class="cls-2" d="M2.42,43.4c-1.56-1.56-1.56-4.1,0-5.66"/>
      <line class="cls-2" x1="2.42" y1="37.74" x2="2.81" y2="37.35"/>
      <path class="cls-2" d="M2.81,37.35c1.56-1.56,4.1-1.56,5.66,0"/>
      <line class="cls-2" x1="8.47" y1="37.35" x2="22.04" y2="50.93"/>
      <path class="cls-2" d="M49.59,32.84c1.56,1.56,4.1,1.56,5.66,0"/>
      <line class="cls-2" x1="55.25" y1="32.84" x2="55.64" y2="32.45"/>
      <path class="cls-2" d="M55.64,32.45c1.56-1.56,1.56-4.1,0-5.66"/>
      <line class="cls-2" x1="55.64" y1="26.79" x2="32.6" y2="3.75"/>
      <path class="cls-2" d="M32.6,3.75c-1.55-1.56-4.1-1.56-5.66,0"/>
      <line class="cls-2" x1="26.95" y1="3.75" x2="26.55" y2="4.14"/>
      <path class="cls-2" d="M26.55,4.14c-1.56,1.56-1.56,4.1,0,5.66"/>
      <line class="cls-2" x1="26.55" y1="9.8" x2="49.59" y2="32.84"/>
      <path class="cls-2" d="M50.92,22.05c1.55,1.56,4.1,1.56,5.66,0"/>
      <line class="cls-2" x1="56.58" y1="22.05" x2="56.97" y2="21.65"/>
      <path class="cls-2" d="M56.97,21.65c1.56-1.56,1.56-4.1,0-5.66"/>
      <line class="cls-2" x1="56.97" y1="16" x2="43.4" y2="2.42"/>
      <path class="cls-2" d="M43.4,2.42c-1.56-1.56-4.1-1.56-5.66,0"/>
      <line class="cls-2" x1="37.74" y1="2.42" x2="37.35" y2="2.81"/>
      <path class="cls-2" d="M37.35,2.81c-1.55,1.56-1.55,4.1,0,5.66"/>
      <line class="cls-2" x1="37.35" y1="8.47" x2="50.92" y2="22.05"/>
      <path class="cls-2" d="M32.84,49.59c1.56,1.56,1.56,4.1,0,5.66"/>
      <line class="cls-2" x1="32.84" y1="55.25" x2="32.45" y2="55.64"/>
      <path class="cls-2" d="M32.45,55.64c-1.56,1.56-4.1,1.56-5.66,0"/>
      <line class="cls-2" x1="26.79" y1="55.64" x2="3.75" y2="32.6"/>
      <path class="cls-2" d="M3.75,32.6c-1.56-1.56-1.56-4.1,0-5.66"/>
      <line class="cls-2" x1="3.75" y1="26.95" x2="4.14" y2="26.55"/>
      <path class="cls-2" d="M4.14,26.55c1.56-1.56,4.1-1.56,5.66,0"/>
      <line class="cls-2" x1="9.8" y1="26.55" x2="32.84" y2="49.59"/>
    </g>
  </g>
</svg>