<?xml version="1.0" encoding="UTF-8"?>
<svg id="Layer_2" data-name="Layer 2" xmlns="http://www.w3.org/2000/svg" viewBox="0 0 61.09 66.67">
  <defs>
    <style>
      .cls-1 {
        fill: none;
        stroke: #000;
        stroke-linecap: round;
        stroke-linejoin: round;
        stroke-width: 2.5px;
      }
    </style>
  </defs>
  <g id="Layer_1-2" data-name="Layer 1">
    <path class="cls-1" d="M59.84,47.29c0,10.04-8.09,18.14-18.14,18.14s-18.14-8.09-18.14-18.14,8.09-18.14,18.14-18.14,18.14,8.09,18.14,18.14ZM41.71,48.68v5.58M36.13,44.5v-4.19c0-3.07,2.51-5.58,5.58-5.58s5.58,2.51,5.58,5.58v4.19M36.13,44.5h11.16M36.13,44.5h-2.79v13.95h16.74v-13.95h-2.79M7.81,10.32C12.69,4.74,19.8,1.25,27.76,1.25s15.07,3.49,19.95,9.07M14.36,61.79c3.91-2.65,7.39-5.86,9.77-9.77M9.62,58.17c11.16-4.32,11.16-16.18,11.16-19.25,0-3.91,3.07-6.97,6.98-6.97,1.12,0,2.23.28,3.21.7M20.22,64.31c3.21-1.4,5.72-3.21,7.67-5.3M6.13,54.26c10.04-4.05,9.07-15.35,9.07-15.35,0-6.97,5.58-12.55,12.56-12.55,3.35,0,6.42,1.4,8.79,3.49M27.76,65.42c1.4-.7,2.79-1.81,3.91-3.07M3.76,50.22c6.84-4.46,5.86-11.3,5.86-11.3,0-10.04,8.09-18.14,18.14-18.14,6.42,0,12.14,3.35,15.35,8.37M1.95,45.05c1.26-1.53,2.09-3.49,2.09-6.14,0-13.11,10.6-23.72,23.72-23.72,10.46,0,19.25,6.7,22.46,16.04M54.26,26.36c-4.74-9.9-14.79-16.74-26.51-16.74S5.99,16.46,1.25,26.36"/>
  </g>
</svg>