<?xml version="1.0" encoding="UTF-8"?>
<svg id="Layer_2" data-name="Layer 2" xmlns="http://www.w3.org/2000/svg" viewBox="0 0 58.29 68.96">
  <defs>
    <style>
      .cls-1 {
        fill: none;
        stroke: #000;
        stroke-linecap: round;
        stroke-linejoin: round;
        stroke-width: 2.5px;
      }
    </style>
  </defs>
  <g id="Layer_1-2" data-name="Layer 1">
    <g>
      <path class="cls-1" d="M47.2,39.44v14.92c0,3.95-3.23,7.18-7.18,7.18h-11.43c-3.95,0-7.18-3.23-7.18-7.18V14.17c0-3.95,3.23-7.18,7.18-7.18h11.43c3.95,0,7.18,3.23,7.18,7.18v20.49"/>
      <rect class="cls-1" x="28.95" y="13.88" width="11.23" height="11.96" rx="3.16" ry="3.16"/>
      <path class="cls-1" d="M28.47,47.06c.77,0,1.39.62,1.39,1.39s-.62,1.39-1.39,1.39-1.39-.62-1.39-1.39.62-1.39,1.39-1.39Z"/>
      <path class="cls-1" d="M34.14,47.2c.77,0,1.39.62,1.39,1.39s-.62,1.39-1.39,1.39-1.39-.62-1.39-1.39.62-1.39,1.39-1.39Z"/>
      <path class="cls-1" d="M31.45,52.87c.77,0,1.39.62,1.39,1.39s-.62,1.39-1.39,1.39-1.39-.62-1.39-1.39.62-1.39,1.39-1.39Z"/>
      <path class="cls-1" d="M39.81,47.2c.77,0,1.39.62,1.39,1.39s-.62,1.39-1.39,1.39-1.39-.62-1.39-1.39.62-1.39,1.39-1.39Z"/>
      <path class="cls-1" d="M37.11,52.87c.77,0,1.39.62,1.39,1.39s-.62,1.39-1.39,1.39-1.39-.62-1.39-1.39.62-1.39,1.39-1.39Z"/>
      <path class="cls-1" d="M51.34,39.46v28.25M51.34,1.25v33.34"/>
      <path class="cls-1" d="M39.63,39.41c-.9,2.03-2.95,3.44-5.33,3.44-3.22,0-5.82-2.58-5.82-5.76s2.61-5.76,5.82-5.76c2.34,0,4.36,1.37,5.29,3.34"/>
      <path class="cls-1" d="M39.74,34.65h14.92c1.31,0,2.38,1.07,2.38,2.38s-1.07,2.38-2.38,2.38h-14.92"/>
      <path class="cls-1" d="M5.53,42.81c-2.46-1.04-4.27-4.57-4.27-8.77s1.69-7.48,4.01-8.65"/>
      <path class="cls-1" d="M9.78,38.87c-1.63-.64-2.81-2.49-2.81-4.67s1.12-3.94,2.69-4.62"/>
      <path class="cls-1" d="M13.63,35.6c-.53-.27-.89-.8-.89-1.41s.38-1.16.93-1.42"/>
    </g>
  </g>
</svg>