<?xml version="1.0" encoding="UTF-8"?>
<svg id="Layer_2" data-name="Layer 2" xmlns="http://www.w3.org/2000/svg" viewBox="0 0 85.63 67.09">
  <defs>
    <style>
      .cls-1 {
        stroke-width: .72px;
      }

      .cls-1, .cls-2 {
        stroke-miterlimit: 22.93;
      }

      .cls-1, .cls-2, .cls-3, .cls-4 {
        fill: none;
        stroke: #000;
      }

      .cls-5 {
        fill-rule: evenodd;
      }

      .cls-2, .cls-3, .cls-4 {
        stroke-linecap: round;
        stroke-width: 2.4px;
      }

      .cls-3 {
        stroke-miterlimit: 10;
      }

      .cls-4 {
        stroke-linejoin: round;
      }
    </style>
  </defs>
  <g id="Layer_1-2" data-name="Layer 1">
    <g>
      <path class="cls-2" d="M7.2,24.9c-1.02-1.86-1.61-4-1.61-6.27,0-7.2,5.83-13.03,13.03-13.03,2.07,0,4.03.48,5.76,1.34M3.81,27.81c-1.66-2.67-2.61-5.81-2.61-9.18C1.2,9,9,1.2,18.62,1.2c3.35,0,6.48.94,9.13,2.58M11.11,21.4c-.32-.86-.49-1.8-.49-2.77,0-4.42,3.4-7.89,8.01-8.01.42-.01.84.01,1.24.06"/>
      <path class="cls-5" d="M75.64,31.42l1.24.41.14,1.51s3.3-1.38,3.58-1.38,4.68.41,4.68.41v-5.92l-1.65-1.79-3.16,3.3-2.61,1.65-2.2,1.79ZM64.56,24.24h3.44l-.14,2.61,6.47,6.33h-5.78l-3.99-8.12v-.83ZM55.18,25.45v3.85l11.01,3.72-9.91-8.39-1.1.83ZM62,52.5c1.1-.41,21.05-.14,21.05-.14v-17.48l-3.99-1.1-4.71,1.48-3.69.17v.96l3.19,4.23-2.33,2.13,1.16,4.07-3.1-3.1,1.48-3.61-3.03-4.54-11.42-3.99v12.66l11.15-2.06-5.78,10.32ZM52.32,48l10.73-2.34-6.08,10.64h-2.89l-1.62-1.97-.14-6.33ZM77.21,25.33l7.84-5.64v-1.36h-4.91l-2.93,7ZM69.68,25.56l3.3-2.48,2.89.27-2.89,5.64-3.3-3.44ZM54.36,21.14l10.04,7.98-3.99-9.08h-5.92l-.14,1.1Z"/>
      <path class="cls-1" d="M75.64,31.42l1.24.41.14,1.51s3.3-1.38,3.58-1.38,4.68.41,4.68.41v-5.92l-1.65-1.79-3.16,3.3-2.61,1.65-2.2,1.79ZM64.56,24.24h3.44l-.14,2.61,6.47,6.33h-5.78l-3.99-8.12v-.83ZM55.18,25.45v3.85l11.01,3.72-9.91-8.39-1.1.83ZM62,52.5c1.1-.41,21.05-.14,21.05-.14v-17.48l-3.99-1.1-4.71,1.48-3.69.17v.96l3.19,4.23-2.33,2.13,1.16,4.07-3.1-3.1,1.48-3.61-3.03-4.54-11.42-3.99v12.66l11.15-2.06-5.78,10.32ZM52.32,48l10.73-2.34-6.08,10.64h-2.89l-1.62-1.97-.14-6.33ZM77.21,25.33l7.84-5.64v-1.36h-4.91l-2.93,7ZM69.68,25.56l3.3-2.48,2.89.27-2.89,5.64-3.3-3.44ZM54.36,21.14l10.04,7.98-3.99-9.08h-5.92l-.14,1.1Z"/>
      <polyline class="cls-4" points="50.14 26.13 42.08 19.06 19.1 39.63 19.1 65.89 36.14 65.89 36.14 50.95 48.02 50.95 48.02 65.89 65.05 65.89 65.05 56.9"/>
      <polyline class="cls-3" points="8.97 37.92 19.3 28.87 19.3 13.97 26.48 13.97 26.48 22.61 41.98 9.09 50.47 16.39"/>
    </g>
  </g>
</svg>