<?xml version="1.0" encoding="UTF-8"?>
<svg id="Layer_2" data-name="Layer 2" xmlns="http://www.w3.org/2000/svg" viewBox="0 0 72.48 59.59">
  <defs>
    <style>
      .cls-1 {
        stroke-miterlimit: 22.93;
        stroke-width: .72px;
      }

      .cls-1, .cls-2, .cls-3 {
        fill: none;
        stroke: #000;
      }

      .cls-4 {
        fill-rule: evenodd;
      }

      .cls-2 {
        stroke-miterlimit: 10;
      }

      .cls-2, .cls-3 {
        stroke-linecap: round;
        stroke-width: 2.4px;
      }

      .cls-3 {
        stroke-linejoin: round;
      }
    </style>
  </defs>
  <g id="Layer_1-2" data-name="Layer 1">
    <g>
      <polyline class="cls-3" points="42.37 18.62 34.31 11.56 11.33 32.13 11.33 58.39 28.37 58.39 28.37 43.45 40.25 43.45 40.25 58.39 57.29 58.39 57.29 49.39"/>
      <polyline class="cls-2" points="1.2 30.41 11.53 21.37 11.53 6.46 18.72 6.46 18.72 15.11 34.22 1.59 42.71 8.89"/>
      <path class="cls-4" d="M53.93,44.49s8.55,1.4,12.74-4.93c4.19-6.33,1.36-8.47,2.34-12.41.99-3.95,2.47-5.38,2.47-5.38,0,0-3.21.36-4.23,1.36-5.47,6.66-7.48.11-5.34-3.29,1.4-2.22,3.29-4.93,2.71-9.53-.58-4.6-2.71-6.9-4.19-7.64,0,0,.58,4.85,0,6.49-.58,1.64-.95,4.27-3.95,5.92-3,1.64-3.95,2.63-4.36,4.03-.41,1.4.45,3.45-3.29,3.45-3.33,0-2.24-3.44-.82-5.42,0,0-5.59,3.21-7.31,8.06-1.73,4.85,1.56,12.9,1.56,12.9,0,0,.33-4.44,1.89-6.33,1.56-1.89,2.3-1.4,2.38-.66.25,2.22.29,2.13,2.63,3.33,0,0-.99-1.48.33-2.96,1.32-1.48,2.24-.66,2.85-2.47.62-1.81-.1-3.7.27-4.89.45,0,2.67.78,3.08,3.49.62,3.29-1.69,3.82-1.85,5.75-.16,1.93,1.11,3.45,1.11,3.45,0,0,.25-2.71,1.48-3.12,1.97-.66,2.33,7.1-2.51,10.81Z"/>
      <path class="cls-1" d="M53.93,44.49s8.55,1.4,12.74-4.93c4.19-6.33,1.36-8.47,2.34-12.41.99-3.95,2.47-5.38,2.47-5.38,0,0-3.21.36-4.23,1.36-5.47,6.66-7.48.11-5.34-3.29,1.4-2.22,3.29-4.93,2.71-9.53-.58-4.6-2.71-6.9-4.19-7.64,0,0,.58,4.85,0,6.49-.58,1.64-.95,4.27-3.95,5.92-3,1.64-3.95,2.63-4.36,4.03-.41,1.4.45,3.45-3.29,3.45-3.33,0-2.24-3.44-.82-5.42,0,0-5.59,3.21-7.31,8.06-1.73,4.85,1.56,12.9,1.56,12.9,0,0,.33-4.44,1.89-6.33,1.56-1.89,2.3-1.4,2.38-.66.25,2.22.29,2.13,2.63,3.33,0,0-.99-1.48.33-2.96,1.32-1.48,2.24-.66,2.85-2.47.62-1.81-.1-3.7.27-4.89.45,0,2.67.78,3.08,3.49.62,3.29-1.69,3.82-1.85,5.75-.16,1.93,1.11,3.45,1.11,3.45,0,0,.25-2.71,1.48-3.12,1.97-.66,2.33,7.1-2.51,10.81Z"/>
    </g>
  </g>
</svg>