<?xml version="1.0" encoding="UTF-8"?>
<svg id="Layer_2" data-name="Layer 2" xmlns="http://www.w3.org/2000/svg" viewBox="0 0 61.5 67.12">
  <defs>
    <style>
      .cls-1 {
        fill: none;
        stroke: #000;
        stroke-linecap: round;
        stroke-linejoin: round;
        stroke-width: 2.5px;
      }
    </style>
  </defs>
  <g id="Layer_1-2" data-name="Layer 1">
    <path class="cls-1" d="M60.25,47.61c0,10.11-8.15,18.26-18.26,18.26s-18.26-8.15-18.26-18.26,8.15-18.26,18.26-18.26,18.26,8.15,18.26,18.26ZM41.99,34.97s-4.36,5.34-9.83,5.34c0,3.79.7,7.45,1.69,10.68,2.11,6.32,5.76,10.68,8.15,10.68s5.9-4.36,8.15-10.68c1.12-3.23,1.69-6.88,1.69-10.68-5.48,0-9.83-5.34-9.83-5.34ZM7.85,10.38C12.77,4.76,19.93,1.25,27.94,1.25s15.17,3.51,20.09,9.13M14.46,62.22c3.93-2.67,7.45-5.9,9.83-9.83M9.68,58.57c11.24-4.35,11.24-16.3,11.24-19.39,0-3.93,3.09-7.02,7.02-7.02,1.12,0,2.25.28,3.23.7M20.36,64.75c3.23-1.4,5.76-3.23,7.73-5.34M6.17,54.63c10.11-4.07,9.13-15.45,9.13-15.45,0-7.02,5.62-12.64,12.64-12.64,3.37,0,6.46,1.4,8.85,3.51M27.94,65.87c1.4-.7,2.81-1.83,3.93-3.09M3.78,50.56c6.88-4.5,5.9-11.38,5.9-11.38,0-10.11,8.15-18.26,18.26-18.26,6.46,0,12.22,3.37,15.45,8.43M1.95,45.36c1.26-1.54,2.11-3.51,2.11-6.18,0-13.21,10.68-23.88,23.88-23.88,10.54,0,19.39,6.74,22.62,16.16M54.63,26.54c-4.78-9.97-14.89-16.86-26.69-16.86S6.03,16.56,1.25,26.54"/>
  </g>
</svg>