<?xml version="1.0" encoding="UTF-8"?>
<svg id="Layer_2" data-name="Layer 2" xmlns="http://www.w3.org/2000/svg" viewBox="0 0 69.13 67.84">
  <defs>
    <style>
      .cls-1 {
        fill: none;
        stroke: #000;
        stroke-linecap: round;
        stroke-linejoin: round;
        stroke-width: 2.5px;
      }
    </style>
  </defs>
  <g id="Layer_1-2" data-name="Layer 1">
    <g>
      <line class="cls-1" x1="39.01" y1="9.65" x2="26.11" y2="22.71"/>
      <path class="cls-1" d="M18.87,10.71L27.47,2.2c1.29-1.27,3.38-1.26,4.66.02l34.8,35.17c1.27,1.29,1.26,3.38-.02,4.66l-8.6,8.51c-1.29,1.27-3.38,1.26-4.66-.02L18.84,15.37c-1.27-1.29-1.26-3.38.02-4.66Z"/>
      <line class="cls-1" x1="60.25" y1="30.64" x2="47.04" y2="43.86"/>
      <path class="cls-1" d="M58.45,40.62c.47,0,.85.38.85.85s-.38.85-.85.85-.85-.38-.85-.85.38-.85.85-.85Z"/>
      <circle class="cls-1" cx="28.44" cy="11.85" r=".85"/>
      <path class="cls-1" d="M49.29,19.59c.33-.35,3.81-4.37,5.69-5.73,1.88-1.36,5.54-3.12,6.57-6.19,1.02-3.07-.26-6.35-.26-6.35"/>
      <path class="cls-1" d="M22.37,24.73l-12.9,13.07M2.22,25.79l8.6-8.51c1.29-1.27,3.38-1.26,4.66.02l34.8,35.17c1.27,1.29,1.26,3.38-.02,4.66l-8.6,8.51c-1.29,1.27-3.38,1.26-4.66-.02L2.2,30.45c-1.28-1.29-1.26-3.38.02-4.66ZM43.61,45.72l-13.21,13.22M41.8,55.7c.47,0,.85.38.85.85s-.38.85-.85.85-.85-.38-.85-.85.38-.85.85-.85ZM11.79,26.08c.47,0,.85.38.85.85s-.38.85-.85.85-.85-.38-.85-.85.38-.85.85-.85Z"/>
    </g>
  </g>
</svg>