<?xml version="1.0" encoding="UTF-8"?>
<svg id="Layer_2" data-name="Layer 2" xmlns="http://www.w3.org/2000/svg" viewBox="0 0 55.45 66.6">
  <defs>
    <style>
      .cls-1 {
        fill: none;
        stroke: #000;
        stroke-linecap: round;
        stroke-miterlimit: 10;
        stroke-width: 2.32px;
      }
    </style>
  </defs>
  <g id="Layer_1-2" data-name="Layer 1">
    <g>
      <path class="cls-1" d="M25.85,42.69c-.91,7.99-3.51,16.16-7.38,20.34"/>
      <path class="cls-1" d="M30.9,47.85c1.33-7.36,1.39-15.16-.06-20.82-.03-.11-.06-.23-.09-.34-.08-.33-.26-.98-.26-.98-.31-1.54-1.81-2.52-3.34-2.21-1.54.31-2.52,1.8-2.21,3.33,0,0,.19.69.27,1.02h0c.04.11.06.22.09.33.62,2.42.91,5.33.91,8.45"/>
      <path class="cls-1" d="M23.91,65.41c2.23-2.64,4.04-6.46,5.37-10.79"/>
      <path class="cls-1" d="M20.45,32.8c1.02,9.35-2.27,23.56-8.27,28.48"/>
      <path class="cls-1" d="M35.84,23.07h0c-1.55-3.76-5.59-6.02-9.72-5.18-3.86.79-6.59,4.03-6.89,7.77"/>
      <path class="cls-1" d="M31.24,65.44c5.19-7.88,7.59-23.64,6.21-35.06"/>
      <path class="cls-1" d="M13.67,46.66c-1.34,4.95-3.57,9.4-6.44,11.24"/>
      <path class="cls-1" d="M18.79,15.38c-3.25,2.65-5.22,6.67-5.22,10.99,0,1.21.26,2.41.65,3.56.14.4.26.8.36,1.21.55,2.15.67,4.99.41,8.03"/>
      <path class="cls-1" d="M43.27,36.64c-.06-4.59-.52-8.92-1.42-12.43-.06-.23-.12-.45-.19-.68-.18-.87-.44-1.71-.76-2.5h0c-2.52-6.22-9.17-9.95-15.97-8.56"/>
      <path class="cls-1" d="M38.51,63.74c2.24-4.51,3.76-11.25,4.42-18.25"/>
      <path class="cls-1" d="M9.27,31.88c.08.24.16.47.21.66,1.4,5.47-1.22,19.08-6.01,21.6"/>
      <path class="cls-1" d="M44.61,16.24c-4.18-6.91-12.4-10.79-20.78-9.08-8.58,1.76-14.71,8.86-15.61,17.13"/>
      <path class="cls-1" d="M45.95,59.71c2.78-8.22,3.52-23.72,1.76-34.04"/>
      <path class="cls-1" d="M37.42,3.06c-4.48-1.85-9.54-2.43-14.66-1.38C10.37,4.21,1.97,15.43,2.61,27.69c.09,1.79.99,3.39,1.44,5.13.92,3.52.67,11.66-2.89,15.03"/>
      <path class="cls-1" d="M53.72,31.54c-.52-5.84-1.19-10.29-1.19-10.29-1.15-5.51-4.02-10.22-7.92-13.7"/>
      <path class="cls-1" d="M53.7,51.81c.6-3.57.68-8.13.51-12.64"/>
    </g>
  </g>
</svg>