<?xml version="1.0" encoding="UTF-8"?>
<svg id="Layer_2" data-name="Layer 2" xmlns="http://www.w3.org/2000/svg" viewBox="0 0 71.87 63.67">
  <defs>
    <style>
      .cls-1 {
        fill: none;
        stroke: #000;
        stroke-linecap: square;
        stroke-miterlimit: 10;
        stroke-width: 2.5px;
      }
    </style>
  </defs>
  <g id="Layer_1-2" data-name="Layer 1">
    <g>
      <rect class="cls-1" x="1.25" y="1.25" width="69.37" height="56.75"/>
      <polyline class="cls-1" points="63.27 48.93 63.27 50.65 8.6 50.65 8.6 8.6 63.27 8.6 63.27 14.88"/>
      <rect class="cls-1" x="60.83" y="14.88" width="4.89" height="7.02"/>
      <rect class="cls-1" x="60.83" y="37.34" width="4.89" height="7.03"/>
      <path class="cls-1" d="M39.32,26.24c1.87,1.87,1.87,4.89,0,6.76-1.87,1.87-4.89,1.87-6.76,0-1.87-1.87-1.87-4.89,0-6.76,1.87-1.87,4.89-1.87,6.76,0Z"/>
      <path class="cls-1" d="M30.72,43.42c-1.9-.72-3.68-1.84-5.21-3.37-5.76-5.76-5.76-15.09,0-20.85,2.88-2.88,6.65-4.32,10.43-4.32"/>
      <path class="cls-1" d="M41,15.78c1.95.71,3.79,1.85,5.36,3.42,5.76,5.76,5.76,15.09,0,20.85-2.88,2.88-6.65,4.32-10.42,4.32"/>
      <line class="cls-1" x1="25.87" y1="19.56" x2="27.29" y2="20.98"/>
      <line class="cls-1" x1="44.58" y1="38.27" x2="46" y2="39.69"/>
      <line class="cls-1" x1="46" y1="19.56" x2="44.58" y2="20.98"/>
      <line class="cls-1" x1="27.29" y1="38.27" x2="25.87" y2="39.69"/>
      <line class="cls-1" x1="35.93" y1="15.39" x2="35.93" y2="17.4"/>
      <line class="cls-1" x1="35.93" y1="41.85" x2="35.93" y2="43.86"/>
      <line class="cls-1" x1="50.17" y1="29.62" x2="48.16" y2="29.62"/>
      <line class="cls-1" x1="23.71" y1="29.62" x2="21.7" y2="29.62"/>
      <polyline class="cls-1" points="15.94 62.42 8.6 62.42 8.6 58 15.94 58"/>
      <polyline class="cls-1" points="63.27 62.42 55.93 62.42 55.93 58 63.27 58"/>
      <line class="cls-1" x1="63.27" y1="26.47" x2="63.27" y2="37.34"/>
    </g>
  </g>
</svg>