<?xml version="1.0" encoding="UTF-8"?>
<svg id="Layer_2" data-name="Layer 2" xmlns="http://www.w3.org/2000/svg" viewBox="0 0 84.21 66.94">
  <defs>
    <style>
      .cls-1 {
        stroke-width: 1.61px;
      }

      .cls-1, .cls-2 {
        fill: none;
        stroke: #000;
        stroke-linecap: round;
        stroke-linejoin: round;
      }

      .cls-2 {
        stroke-width: 2px;
      }
    </style>
  </defs>
  <g id="Layer_1-2" data-name="Layer 1">
    <g>
      <path class="cls-2" d="M50.7,20.41c2.75,0,4.98,1.85,4.98,4.14s-2.23,4.14-4.98,4.14-4.98-1.85-4.98-4.14,2.23-4.14,4.98-4.14Z"/>
      <polygon class="cls-2" points="57.45 16.97 58.5 17.8 56.44 19.54 55.37 18.62 57.45 16.97"/>
      <polygon class="cls-2" points="61.89 13.43 62.76 14.08 60.7 15.81 59.94 15.16 61.89 13.43"/>
      <polygon class="cls-1" points="35.09 29 47.3 37.65 42.7 42.05 30.57 33.32 35.09 29"/>
      <path class="cls-2" d="M25.07,33.16c2.94,1.97,14.74,10.91,18.25,13.69"/>
      <path class="cls-2" d="M34.36,24.17c1.2.75,14.35,10.29,18.63,13.54"/>
      <path class="cls-2" d="M40.17,50.87c11.82-12.9,25.15-24.93,37.94-35.67"/>
      <path class="cls-2" d="M59.91,2.63c-13.23,10.41-27.1,22.12-38.7,34.58"/>
      <path class="cls-2" d="M81.98,39c-.5,15.12-12.56,26.94-31.72,26.94s-32.74-14.2-31.95-27.81"/>
      <path class="cls-2" d="M83.16,29.71c.04.58.05,1.17.05,1.76,0,16.82-14.71,30.46-32.85,30.46s-32.85-13.64-32.85-30.46c0-.74.03-1.48.09-2.21"/>
      <path class="cls-2" d="M83.14,28.8c.05.68.08,1.37.08,2.06,0,16.5-14.71,29.87-32.85,29.87s-32.85-13.37-32.85-29.87c0-.77.03-1.53.09-2.29"/>
      <path class="cls-2" d="M83.2,29.12c0,.28.01.56.01.84,0,15.93-14.71,28.84-32.85,28.84s-32.85-12.91-32.85-28.84c0-.17,0-.34,0-.51"/>
      <path class="cls-2" d="M50.37,1c18.14,0,32.85,11.67,32.85,26.07s-14.71,26.07-32.85,26.07-32.85-11.67-32.85-26.07S32.22,1,50.37,1Z"/>
      <path class="cls-2" d="M9.16,32.7S.09,43.05,1.07,49.65c.99,6.6,3.65,8.28,6.7,11.43,1.82-2.16,4.78-4.72,5.17-9.25.39-4.24-3.15-5.32-4.28-9.47-1.48-5.72.49-9.66.49-9.66Z"/>
      <path class="cls-2" d="M6.95,56.04c-.45-.78-2.9-4.02-3.09-6.38-.2-2.36.1-4.31.88-5.9"/>
      <path class="cls-2" d="M38,14.28s-3.34.2-4.12,3.59"/>
      <path class="cls-2" d="M35.32,12.23s-3.34.2-4.12,3.59"/>
      <path class="cls-2" d="M32.63,10.17s-3.34.2-4.12,3.59"/>
      <path class="cls-2" d="M68.99,28.58s-1.82,7.48-12.46,12.03"/>
      <path class="cls-2" d="M70.68,33.19s-1.4,5.72-9.54,9.21"/>
      <path class="cls-2" d="M72.37,36.8s-1.11,4.73-7.55,7.62"/>
    </g>
  </g>
</svg>