<?xml version="1.0" encoding="UTF-8"?>
<svg id="Layer_2" data-name="Layer 2" xmlns="http://www.w3.org/2000/svg" viewBox="0 0 56.69 66.79">
  <defs>
    <style>
      .cls-1 {
        stroke-width: 1.72px;
      }

      .cls-1, .cls-2, .cls-3 {
        fill: none;
        stroke: #000;
        stroke-linecap: round;
        stroke-linejoin: round;
      }

      .cls-2 {
        stroke-width: 2px;
      }

      .cls-3 {
        stroke-width: 1.87px;
      }
    </style>
  </defs>
  <g id="Layer_1-2" data-name="Layer 1">
    <g>
      <path class="cls-2" d="M5.97,26.96c2.52-.79,5.04-1.57,7.56-2.36.18.7.44,1.56.62,2.25-2.15.67-4.39,1.33-6.53,2,.41.83.83,1.5,1.24,2.33,2.1-.56,4.21-1.29,6.31-1.85.25.7.5,1.56.76,2.25-2.01.5-3.38,1.01-5.39,1.51,4.45,4.45,11.68,4.76,17.97,4.76s13.68-.82,17.57-4.71c-2.09-.55-3.53-1.1-5.62-1.64.28-.73.56-1.61.84-2.34,2.15.59,4.3,1.35,6.45,1.94.4-.8.8-1.44,1.2-2.24-2.21-.74-4.41-1.48-6.62-2.22.27-.67.53-1.5.8-2.16,2.53.86,4.48,1.52,7.01,2.38,1.77.47,5.03-2.5,5.03-4.6,0-5.55-17.51-8.13-27.07-8.13S1.52,16.9,1.52,22.43c0,2.31,2.02,3.88,4.44,4.53Z"/>
      <path d="M28.6,66.79c-11.15-10.02,4.92-15.17.57-24.09,11.01,8.96-4.8,11.31-.57,24.09Z"/>
      <path d="M35.11,66.3c-7.88-7.08,4.21-10.87,1.32-17.41,7.78,6.33-3.52,8.27-1.32,17.41Z"/>
      <path d="M22.48,62.25c-7.88-7.08,3.14-10.56.4-17.02,7.78,6.33-3.83,7.88-.4,17.02Z"/>
      <path class="cls-3" d="M18.03,24.53s9.16-3.17,20.02,0"/>
      <path class="cls-3" d="M19.67,29.4s9.05-2.31,16.7,0"/>
      <path class="cls-1" d="M55.83,17.45c-5.82-4.07-12.07-6.55-27.33-6.55S6.01,13.12.86,17.71v-7.86S4.98.86,28.53.86s26.71,9,26.71,9l.59,7.59Z"/>
    </g>
  </g>
</svg>